<?xml version="1.0" encoding="utf-8"?>
<!-- Generator: Adobe Illustrator 26.0.3, SVG Export Plug-In . SVG Version: 6.00 Build 0)  -->
<svg version="1.1" id="Ebene_1" xmlns="http://www.w3.org/2000/svg" xmlns:xlink="http://www.w3.org/1999/xlink" x="0px" y="0px"
	 viewBox="0 0 100 100" style="enable-background:new 0 0 100 100;" xml:space="preserve">
<style type="text/css">
	.st0{fill:#FFCD94;stroke:#000000;stroke-miterlimit:10;}
	.st1{fill:#FFBF94;stroke:#000000;stroke-miterlimit:10;}
	.st2{fill:#E58EBB;stroke:#000000;stroke-width:0.25;stroke-miterlimit:10;}
	.st3{fill:#C90082;stroke:#000000;stroke-miterlimit:10;}
	.st4{fill:#F8F5FA;stroke:#000000;stroke-width:0.25;stroke-miterlimit:10;}
	.st5{fill:#FFBFEF;stroke:#000000;stroke-width:0.25;stroke-miterlimit:10;}
	.st6{fill:#E3A8CD;}
	.st7{stroke:#000000;stroke-width:0.25;stroke-miterlimit:10;}
	.st8{fill:#F8F5FA;}
	.st9{fill:#74B7FF;stroke:#000000;stroke-miterlimit:10;}
	.st10{fill:#5758A3;stroke:#000000;stroke-miterlimit:10;}
	.st11{fill:#8B5D33;stroke:#000000;stroke-miterlimit:10;}
</style>
<g id="Ebene_2_00000093860788734264317370000010671531211922489223_">
</g>
<g id="Ebene_2_00000155117456943755282400000000455714548288664224_">
</g>
<g>
	<g id="Ebene_1_00000017510764199299988230000010460311392665681541_">
		<path class="st0" d="M50.8,15.5l24.2,42l-24.3,42C41.9,85.7,33,71.9,24.1,58.1C33,43.9,41.9,29.7,50.8,15.5z"/>
	</g>
	<g id="Ebene_1_00000021081713733613035710000009338591003765749940_">
		<polygon class="st1" points="51,60.7 58.5,56.4 66,60.7 66,69.2 58.5,73.5 51,69.2 		"/>
	</g>
	<g id="Ebene_1_00000040566956274818674030000008800916634219015098_">
		<polygon class="st1" points="34.8,60.6 42.3,56.2 49.8,60.6 49.9,69.3 42.3,73.7 34.8,69.3 		"/>
	</g>
	<g>
		<g id="Ebene_1_00000049924981427108204100000013874390922145559987_">
			<polygon class="st2" points="47.3,18.6 46,16.5 47.3,14.4 49.7,14.4 51,16.5 49.7,18.6 			"/>
		</g>
		<g id="Ebene_1_00000075883084409569293000000007168356677507645575_">
			<polygon class="st2" points="43.1,26 41.8,23.9 43.1,21.8 45.5,21.8 46.8,23.9 45.5,26 			"/>
		</g>
		<g id="Ebene_1_00000078747367014651915640000007853831316863428752_">
			<polygon class="st2" points="50.8,20.7 49.6,18.6 50.8,16.5 53.3,16.5 54.5,18.6 53.3,20.7 			"/>
		</g>
		<g id="Ebene_1_00000078006568996357537210000013637542718916437660_">
			<polygon class="st2" points="52.2,23.9 51,21.8 52.2,19.7 54.7,19.7 55.9,21.8 54.7,23.9 			"/>
		</g>
		<g id="Ebene_1_00000124870620373433670870000000975757799074416800_">
			<polygon class="st2" points="45.5,23.9 44.3,21.8 45.5,19.7 48,19.7 49.2,21.8 48,23.9 			"/>
		</g>
		<g id="Ebene_1_00000109016897759603043560000018099208858153226659_">
			<polygon class="st2" points="52.3,27.5 51.1,25.4 52.3,23.3 54.8,23.3 56,25.4 54.8,27.5 			"/>
		</g>
		<g id="Ebene_1_00000073716574766803548870000001478722343574675360_">
			<polygon class="st2" points="48,21.8 46.8,19.7 48,17.6 50.5,17.6 51.7,19.7 50.5,21.8 			"/>
		</g>
		<g id="Ebene_1_00000103946923913876263480000002759049388801585541_">
			<polygon class="st2" points="55.7,24.9 54.5,22.8 55.7,20.7 58.2,20.7 59.4,22.8 58.2,24.9 			"/>
		</g>
		<g id="Ebene_1_00000019657649639297213490000006650460576445664700_">
			<polygon class="st2" points="57.2,28.1 56,26 57.2,23.9 59.7,23.9 60.9,26 59.7,28.1 			"/>
		</g>
		<g id="Ebene_1_00000050621994624327969240000014302206671902072504_">
			<polygon class="st2" points="61.3,30.2 60,28.1 61.3,26 63.8,26 65,28.1 63.8,30.2 			"/>
		</g>
		<g id="Ebene_1_00000043449252200788915920000012746244783792264345_">
			<polygon class="st2" points="59.7,31 58.5,28.9 59.7,26.8 62.2,26.8 63.4,28.9 62.2,31 			"/>
		</g>
		<g id="Ebene_1_00000155854385489391478070000000779963376274987438_">
			<polygon class="st2" points="48,21.8 46.8,19.7 48,17.6 50.5,17.6 51.7,19.7 50.5,21.8 			"/>
		</g>
		<g id="Ebene_1_00000121253859360152957500000002817831213141183113_">
			<polygon class="st2" points="50.5,18.6 49.2,16.5 50.5,14.4 52.9,14.4 54.2,16.5 52.9,18.6 			"/>
		</g>
		<g id="Ebene_1_00000114762514249507165360000000354996966922756272_">
			<polygon class="st2" points="48.9,26 47.7,23.9 48.9,21.8 51.4,21.8 52.6,23.9 51.4,26 			"/>
		</g>
		<g id="Ebene_1_00000091016398244549105240000013685842631155731903_">
			<polygon class="st2" points="39,88.4 37.8,86.3 39,84.2 41.5,84.2 42.7,86.3 41.5,88.4 			"/>
		</g>
		<g id="Ebene_1_00000101815976903092864370000002179455309809414060_">
			<polygon class="st2" points="57.9,90.3 57.2,89.3 57.9,88.2 59.1,88.2 59.7,89.3 59.1,90.3 			"/>
		</g>
		<g id="Ebene_1_00000152970961969070877180000012347222087850868926_">
			<polygon class="st2" points="36.5,86.3 35.3,84.2 36.5,82.1 39,82.1 40.2,84.2 39,86.3 			"/>
		</g>
		<g id="Ebene_1_00000007399662464591171460000009061300598152072100_">
			<polygon class="st2" points="33,84.2 31.7,82.1 33,80 35.5,80 36.7,82.1 35.4,84.2 			"/>
		</g>
		<g id="Ebene_1_00000008139098663933757000000013571037664345855650_">
			<polygon class="st2" points="30.5,80.9 29.3,78.8 30.5,76.7 33,76.7 34.2,78.8 33,80.9 			"/>
		</g>
		<g id="Ebene_1_00000069356200264058043440000007944793571001433266_">
			<polygon class="st2" points="31.6,78.1 30.4,76 31.6,73.9 34.1,73.9 35.3,76 34.1,78.1 			"/>
		</g>
		<g id="Ebene_1_00000047021863634659484070000002657173884551311281_">
			<polygon class="st2" points="68.4,46.4 67.2,44.3 68.4,42.2 70.9,42.2 72.1,44.3 70.9,46.4 			"/>
		</g>
		<g id="Ebene_1_00000083792668096711963000000000234143734034741179_">
			<polygon class="st2" points="58.2,21.8 57,19.7 58.2,17.6 60.7,17.6 61.9,19.7 60.7,21.8 			"/>
		</g>
		<g id="Ebene_1_00000155846876996294504220000012833218279737405846_">
			<polygon class="st2" points="64.7,28.6 63.4,26.5 64.7,24.4 67.1,24.4 68.4,26.5 67.1,28.6 			"/>
		</g>
		<g id="Ebene_1_00000064324371766809815480000017951311462969022099_">
			<polygon class="st2" points="73.1,37.5 71.8,35.4 73.1,33.3 75.5,33.3 76.8,35.4 75.5,37.5 			"/>
		</g>
		<g id="Ebene_1_00000057120558481850508240000002370040780672044161_">
			<polygon class="st2" points="72.3,40.7 71,38.6 72.3,36.5 74.7,36.5 76,38.6 74.7,40.7 			"/>
		</g>
		<g id="Ebene_1_00000130649312291674770740000009105728675298930309_">
			<polygon class="st2" points="70.6,43.8 69.4,41.7 70.6,39.6 73.1,39.6 74.3,41.7 73.1,43.8 			"/>
		</g>
		<g id="Ebene_1_00000052816994298409607080000002820994419078551740_">
			<polygon class="st2" points="67.4,43.8 66.1,41.7 67.4,39.6 69.8,39.6 71.1,41.7 69.8,43.8 			"/>
		</g>
		<g id="Ebene_1_00000161610720721244693040000013040862773401460352_">
			<polygon class="st2" points="68.1,41.7 66.9,39.6 68.1,37.5 70.6,37.5 71.8,39.6 70.6,41.7 			"/>
		</g>
		<g id="Ebene_1_00000147209448938006349250000014169797065848400014_">
			<polygon class="st2" points="68.6,38.6 67.4,36.5 68.6,34.4 71.1,34.4 72.3,36.5 71.1,38.6 			"/>
		</g>
		<g id="Ebene_1_00000034777492734968980700000016655544237121322155_">
			<polygon class="st2" points="69.8,36.3 68.5,34.2 69.8,32.1 72.3,32.1 73.5,34.2 72.3,36.3 			"/>
		</g>
		<g id="Ebene_1_00000116932605861522802950000013516928147717539481_">
			<polygon class="st2" points="67.1,35.4 65.9,33.3 67.1,31.2 69.6,31.2 70.8,33.3 69.6,35.4 			"/>
		</g>
		<g id="Ebene_1_00000116933010090541140420000004002994828949590164_">
			<polygon class="st2" points="68.1,33.1 66.9,31 68.1,28.9 70.6,28.9 71.8,31 70.6,33.1 			"/>
		</g>
		<g id="Ebene_1_00000153692586327578460160000007597796009077079483_">
			<polygon class="st2" points="54.8,20.7 53.5,18.6 54.8,16.5 57.2,16.5 58.5,18.6 57.2,20.7 			"/>
		</g>
		<g id="Ebene_1_00000136392295141352996300000017273046259214444694_">
			<polygon class="st2" points="61.3,26 60,23.9 61.3,21.8 63.8,21.8 65,23.9 63.8,26 			"/>
		</g>
		<g id="Ebene_1_00000121986131910028326680000002305205102226115209_">
			<polygon class="st2" points="63.8,33.1 62.5,31 63.8,28.9 66.2,28.9 67.5,31 66.2,33.1 			"/>
		</g>
		<g id="Ebene_1_00000093899661503872819870000000629068053195478690_">
			<polygon class="st2" points="59.4,24.9 58.1,22.8 59.4,20.7 61.9,20.7 63.1,22.8 61.8,24.9 			"/>
		</g>
		<g id="Ebene_1_00000124159704194483608700000009704461357836863370_">
			<polygon class="st2" points="48.8,22.8 47.5,20.7 48.8,18.6 51.2,18.6 52.5,20.7 51.2,22.8 			"/>
		</g>
		<g id="Ebene_1_00000012433831334915486440000013475588771625302919_">
			<polygon class="st2" points="61.2,88.4 60.6,87.3 61.2,86.3 62.5,86.3 63.1,87.3 62.5,88.4 			"/>
		</g>
		<g id="Ebene_1_00000127034956525922330070000015210008917161921978_">
			<polygon class="st2" points="46.2,27.5 45,25.4 46.2,23.3 48.7,23.3 49.9,25.4 48.7,27.5 			"/>
		</g>
		<g id="Ebene_1_00000042708643255500030600000018261299611749558931_">
			<polygon class="st2" points="41.4,23 40.2,20.9 41.4,18.8 43.9,18.8 45.2,20.9 43.9,23 			"/>
		</g>
		<g id="Ebene_1_00000093156988129375793760000006397677823034770337_">
			<polygon class="st2" points="44.1,20.1 42.8,18 44.1,15.9 46.5,15.8 47.8,17.9 46.5,20.1 			"/>
		</g>
		<g id="Ebene_1_00000147940107714500665700000010449958511284121736_">
			<polygon class="st2" points="55.7,29.6 54.5,27.5 55.7,25.4 58.2,25.4 59.4,27.5 58.2,29.6 			"/>
		</g>
		<g id="Ebene_1_00000036247280245865072260000010818401097158549641_">
			<polygon class="st2" points="49.7,28.1 48.5,26 49.7,23.9 52.2,23.9 53.4,26 52.2,28.1 			"/>
		</g>
		<g id="Ebene_1_00000121991346535237687280000001117902960961459109_">
			<polygon class="st2" points="42.7,28.9 41.4,26.8 42.7,24.7 45.2,24.7 46.4,26.8 45.2,28.9 			"/>
		</g>
		<g id="Ebene_1_00000080887655080967295960000007798500328872233646_">
			<polygon class="st2" points="39.1,26.8 37.9,24.7 39.1,22.6 41.6,22.6 42.8,24.7 41.6,26.8 			"/>
		</g>
		<g id="Ebene_1_00000003796674896473110370000007816154228912857485_">
			<polygon class="st2" points="39,31 37.8,28.9 39,26.8 41.5,26.8 42.7,28.9 41.5,31 			"/>
		</g>
		<g id="Ebene_1_00000150810723396750236720000009407928356292648321_">
			<polygon class="st2" points="36.5,28.1 35.3,26 36.5,23.9 39,23.9 40.2,26 39,28.1 			"/>
		</g>
		<g id="Ebene_1_00000016033431193503091240000001420330196670036653_">
			<polygon class="st2" points="38,24.1 36.8,22 38,19.9 40.5,19.9 41.7,22 40.5,24.1 			"/>
		</g>
		<g id="Ebene_1_00000043448343594681186370000005515947611764397467_">
			<polygon class="st2" points="38.9,19.5 39.3,17.1 41.6,16.3 43.5,17.9 43.1,20.3 40.8,21.1 			"/>
		</g>
		<g id="Ebene_1_00000055666663370317218130000018252955206566971544_">
			<polygon class="st2" points="43.1,17.6 41.8,15.5 43.1,13.4 45.5,13.4 46.8,15.5 45.5,17.6 			"/>
		</g>
		<g id="Ebene_1_00000027606506259941958050000011166724693516022712_">
			<polygon class="st2" points="67.1,30.2 65.9,28.1 67.1,26 69.6,26 70.8,28.1 69.6,30.2 			"/>
		</g>
		<g id="Ebene_1_00000120556554998956927760000003983537754656783760_">
			<polygon class="st2" points="71.1,34.1 69.9,32 71.1,29.9 73.6,29.9 74.8,32 73.6,34.1 			"/>
		</g>
		<g id="Ebene_1_00000030482902737561320300000005827103701430335661_">
			<polygon class="st2" points="44.5,30.7 43.9,29.6 44.5,28.6 45.8,28.6 46.4,29.6 45.8,30.7 			"/>
		</g>
		<g id="Ebene_1_00000013904947931658045380000015462667559689772459_">
			<polygon class="st2" points="46.1,32.3 45.5,31.2 46.1,30.2 47.4,30.2 48,31.2 47.4,32.3 			"/>
		</g>
		<g id="Ebene_1_00000152975434650941438170000008596514716728252075_">
			<polygon class="st2" points="45.4,34.2 44.8,33.1 45.4,32.1 46.6,32.1 47.3,33.1 46.6,34.2 			"/>
		</g>
		<g id="Ebene_1_00000006708717824619414190000003401712528005930426_">
			<polygon class="st2" points="44.4,35.5 43.8,34.4 44.4,33.4 45.6,33.4 46.2,34.4 45.6,35.5 			"/>
		</g>
		<g id="Ebene_1_00000090978661850565295690000008662097899371316159_">
			<polygon class="st2" points="42.4,36 41.8,34.9 42.4,33.9 43.7,33.9 44.3,34.9 43.7,36 			"/>
		</g>
		<g id="Ebene_1_00000003074963992930304730000010409665829537481136_">
			<polygon class="st2" points="41.7,31.3 41.1,30.2 41.7,29.2 42.9,29.2 43.5,30.2 42.9,31.3 			"/>
		</g>
		<g id="Ebene_1_00000139972788330946085070000015351916285315427978_">
			<polygon class="st2" points="42.4,29.4 41.8,28.4 42.4,27.3 43.7,27.3 44.3,28.4 43.7,29.4 			"/>
		</g>
		<g id="Ebene_1_00000106142128207652151860000012076881008129470604_">
			<polygon class="st2" points="45.4,28.4 44.8,27.3 45.4,26.3 46.6,26.3 47.3,27.3 46.6,28.4 			"/>
		</g>
		<g id="Ebene_1_00000088090821870966536950000004364880617379600558_">
			<polygon class="st2" points="42.9,27.6 42.3,26.5 42.9,25.5 44.1,25.4 44.8,26.5 44.1,27.5 			"/>
		</g>
		<g id="Ebene_1_00000129193601446100642080000012953122917340027579_">
			<polygon class="st2" points="44.7,25.8 44.1,24.7 44.7,23.7 45.9,23.7 46.5,24.7 45.9,25.8 			"/>
		</g>
		<g id="Ebene_1_00000112613374429150645280000002458206314881093002_">
			<polygon class="st2" points="46.1,24.7 45.5,23.7 46.1,22.6 47.4,22.6 48,23.7 47.4,24.7 			"/>
		</g>
		<g id="Ebene_1_00000127764553090517328690000010455716672297181569_">
			<polygon class="st2" points="48.1,24.7 47.5,23.7 48.1,22.6 49.4,22.6 50,23.7 49.4,24.7 			"/>
		</g>
		<g id="Ebene_1_00000039835336530355939490000017133567765294341784_">
			<polygon class="st2" points="50.1,24.7 49.5,23.7 50.1,22.6 51.4,22.6 52,23.7 51.4,24.7 			"/>
		</g>
		<g id="Ebene_1_00000059997861979741843600000017841043827482349241_">
			<polygon class="st2" points="54.4,25.4 53.8,24.4 54.4,23.3 55.6,23.3 56.3,24.4 55.6,25.4 			"/>
		</g>
		<g id="Ebene_1_00000099645498891008796540000011026214775279440829_">
			<polygon class="st2" points="57.9,26.8 57.2,25.8 57.9,24.7 59.1,24.7 59.7,25.8 59.1,26.8 			"/>
		</g>
		<g id="Ebene_1_00000103226202860143403490000011765215918770941827_">
			<polygon class="st2" points="39.7,31.7 39.1,30.7 39.7,29.6 41,29.6 41.6,30.7 41,31.7 			"/>
		</g>
		<g id="Ebene_1_00000164511414946683808640000016452663625469209530_">
			<polygon class="st2" points="38.5,30.7 37.9,29.6 38.5,28.6 39.7,28.6 40.4,29.6 39.7,30.7 			"/>
		</g>
		<g id="Ebene_1_00000017487989136874461230000007463077966213826717_">
			<polygon class="st2" points="37.3,29.2 36.7,28.1 37.3,27.1 38.5,27.1 39.1,28.1 38.5,29.2 			"/>
		</g>
		<g id="Ebene_1_00000056427459310299060790000014927629656237159072_">
			<polygon class="st2" points="36,27.6 35.4,26.5 36,25.5 37.3,25.4 37.9,26.5 37.3,27.5 			"/>
		</g>
		<g id="Ebene_1_00000066480682732240352380000011853291935334417033_">
			<polygon class="st2" points="36.5,24.7 35.9,23.7 36.5,22.6 37.8,22.6 38.4,23.7 37.8,24.7 			"/>
		</g>
		<g id="Ebene_1_00000056400045912529000020000010440915325685900173_">
			<polygon class="st2" points="38.3,20.7 37.7,19.7 38.3,18.6 39.5,18.6 40.1,19.7 39.5,20.7 			"/>
		</g>
		<g id="Ebene_1_00000034789591314868843150000017966709949173910178_">
			<polygon class="st2" points="41.2,17.3 40.6,16.3 41.2,15.2 42.4,15.2 43.1,16.3 42.4,17.3 			"/>
		</g>
		<g id="Ebene_1_00000181048560828999807170000009578249877401796779_">
			<polygon class="st2" points="46.1,15.8 45.5,14.8 46.1,13.7 47.4,13.7 48,14.8 47.4,15.8 			"/>
		</g>
		<g id="Ebene_1_00000171708872966738294210000003056025930972620931_">
			<polygon class="st2" points="53.9,18 53.3,16.9 53.9,15.9 55.1,15.8 55.7,16.9 55.1,18 			"/>
		</g>
		<g id="Ebene_1_00000046313110424932445540000012239260740134721692_">
			<polygon class="st2" points="41.2,28.6 40.6,27.6 41.2,26.5 42.4,26.5 43.1,27.5 42.4,28.6 			"/>
		</g>
		<g id="Ebene_1_00000074408773476217230450000015015028209683905215_">
			<polygon class="st2" points="40.6,25.4 39.9,24.4 40.6,23.3 41.8,23.3 42.4,24.4 41.8,25.4 			"/>
		</g>
		<g id="Ebene_1_00000031183952139528627750000005219013532749535129_">
			<polygon class="st2" points="43.7,21.8 43.1,20.7 43.7,19.7 44.9,19.7 45.5,20.7 44.9,21.8 			"/>
		</g>
		<g id="Ebene_1_00000152245081260423000760000003929811283278434184_">
			<polygon class="st2" points="48.6,21.1 48,20.1 48.6,19 49.8,19 50.5,20.1 49.8,21.1 			"/>
		</g>
		<g id="Ebene_1_00000181796631807087238060000001285377379054778301_">
			<polygon class="st2" points="58.8,23.1 58.2,22 58.8,21 60.1,21 60.7,22 60.1,23.1 			"/>
		</g>
		<g id="Ebene_1_00000161612590573352661630000010395068832085724605_">
			<polygon class="st2" points="60.8,27.2 60.2,26.2 60.8,25.1 62,25.1 62.7,26.2 62,27.2 			"/>
		</g>
		<g id="Ebene_1_00000075851474736236225810000011539241775781202606_">
			<polygon class="st2" points="47.4,28.6 46.8,27.6 47.4,26.5 48.6,26.5 49.2,27.5 48.6,28.6 			"/>
		</g>
		<g id="Ebene_1_00000089531925610003349060000006638189853507715719_">
			<polygon class="st2" points="49.3,28.9 48.7,27.9 49.3,26.8 50.6,26.8 51.2,27.9 50.6,28.9 			"/>
		</g>
		<g id="Ebene_1_00000183212008732470228120000007532306257626400908_">
			<polygon class="st2" points="51.6,29.2 51,28.1 51.6,27.1 52.8,27.1 53.4,28.1 52.8,29.2 			"/>
		</g>
		<g id="Ebene_1_00000093162417494826218490000009964604438353994159_">
			<polygon class="st2" points="53.5,29.4 52.9,28.4 53.5,27.3 54.8,27.3 55.4,28.4 54.8,29.4 			"/>
		</g>
		<g id="Ebene_1_00000116205044123357042490000005058288889716970140_">
			<polygon class="st2" points="57.6,30.8 57,29.8 57.6,28.7 58.8,28.7 59.4,29.8 58.8,30.8 			"/>
		</g>
		<g id="Ebene_1_00000144326609721714444480000004228354698173204373_">
			<polygon class="st2" points="61.9,32.3 61.3,31.3 61.9,30.2 63.1,30.2 63.8,31.3 63.1,32.3 			"/>
		</g>
		<g id="Ebene_1_00000183208077657096202070000013693010673397876898_">
			<polygon class="st2" points="66.6,36 66,34.9 66.6,33.9 67.8,33.9 68.4,34.9 67.8,36 			"/>
		</g>
		<g id="Ebene_1_00000176002469092216092510000003081798358392792495_">
			<polygon class="st2" points="41.7,38.1 41.1,37 41.7,36 43,36 43.6,37 43,38.1 			"/>
		</g>
	</g>
	<g id="Ebene_1_00000080896337474152202370000007418436009886244752_">
		<polygon class="st3" points="58.2,27.7 54.5,20.9 58.2,14.2 65.6,14.2 69.3,20.9 65.6,27.7 		"/>
	</g>
	<g id="Ebene_1_00000077320560478294647840000007404993614832330670_">
		<polygon class="st4" points="52.7,40.5 55.7,38.8 58.7,40.5 58.7,43.9 55.7,45.6 52.7,43.9 		"/>
	</g>
	<g id="Ebene_1_00000055667255202870268030000016467383680293313212_">
		<polygon class="st4" points="41.3,40 44.3,38.2 47.3,40 47.3,43.5 44.3,45.2 41.3,43.5 		"/>
	</g>
	<path class="st5" d="M42,41c-0.5,1.4,0.5,3.3,1.9,3.4c1,0.1,2-0.7,2.3-1.6c0.5-1.5-0.7-3.3-2.1-3.4C43.1,39.4,42.3,40.2,42,41z"/>
	<path class="st6" d="M42.1,41c-0.4,1.1,0.4,2.5,1.4,2.6c0.7,0.1,1.4-0.5,1.7-1.2c0.4-1.1-0.5-2.5-1.6-2.6
		C42.9,39.8,42.3,40.3,42.1,41z"/>
	<path d="M42.9,39.8c0.7-0.1,1.6,1.4,1.2,2.3c-0.1,0.3-0.4,0.6-0.7,0.6c-0.6,0.1-1.1-0.5-1.3-1C41.8,40.9,42.3,39.9,42.9,39.8z"/>
	<path class="st7" d="M41.2,40.8C41.2,40.8,41.2,40.8,41.2,40.8c0,0-0.1,0-0.5-0.5c-0.2-0.3-0.3-0.4-0.3-0.4c-0.2-0.6,2.1-2.6,4-2.1
		c0.5,0.1,1,0.5,2,1.2c0.8,0.6,1.5,1.2,1.5,1.3c-0.1,0.1-1-0.5-1.9-1.1c-0.9-0.6-1.1-0.9-1.6-0.9c-0.2,0-0.3,0.1-1.4,0.7
		c-1.1,0.6-1.5,0.8-1.5,1.1C41.3,40.3,41.3,40.8,41.2,40.8z"/>
	<path class="st5" d="M53.3,41.2c-0.5,1.4,0.5,3.3,1.9,3.4c1,0.1,2-0.7,2.3-1.6c0.5-1.5-0.7-3.3-2.1-3.4
		C54.5,39.7,53.6,40.4,53.3,41.2z"/>
	<path class="st6" d="M53.4,41.2c-0.4,1.1,0.4,2.5,1.4,2.6c0.7,0.1,1.4-0.5,1.7-1.2c0.4-1.1-0.5-2.5-1.6-2.6
		C54.3,40.1,53.6,40.6,53.4,41.2z"/>
	<path d="M54.2,40.1c0.7-0.1,1.6,1.4,1.2,2.3c-0.1,0.3-0.4,0.6-0.7,0.6c-0.6,0.1-1.1-0.5-1.3-1C53.1,41.2,53.7,40.1,54.2,40.1z"/>
	<g id="Ebene_1_00000033367673050473923450000010658416413597282463_">
		<polygon class="st8" points="42,39.9 42.8,39.4 43.6,39.9 43.6,40.8 42.8,41.2 42,40.8 		"/>
	</g>
	<g id="Ebene_1_00000035514672560888587490000013862623225973138364_">
		<polygon class="st8" points="53.6,40.2 54.4,39.7 55.2,40.2 55.2,41.1 54.4,41.5 53.6,41.1 		"/>
	</g>
	<g id="Ebene_1_00000088116189014325581710000011121221905271166360_">
		<polygon class="st8" points="43.8,41 44.3,40.7 44.8,41 44.8,41.5 44.3,41.8 43.8,41.5 		"/>
	</g>
	<g id="Ebene_1_00000033360894988293432560000010296819548119508104_">
		<polygon class="st8" points="55.2,41.4 55.7,41.1 56.2,41.4 56.2,42 55.7,42.2 55.2,42 		"/>
	</g>
	<path class="st7" d="M58.8,41.3C58.9,41.3,58.9,41.3,58.8,41.3c0,0,0.1,0,0.5-0.5c0.2-0.3,0.3-0.4,0.3-0.4c0.2-0.6-2.1-2.6-4-2.1
		c-0.5,0.1-1,0.5-2,1.2c-0.8,0.6-1.5,1.2-1.5,1.3c0.1,0.1,1-0.5,1.9-1.1c0.9-0.6,1.1-0.9,1.6-0.9c0.2,0,0.3,0.1,1.4,0.7
		c1.1,0.6,1.5,0.8,1.5,1.1C58.7,40.8,58.7,41.2,58.8,41.3z"/>
</g>
<g>
	<g id="Ebene_1_00000099623006735257224860000003137545322037346479_">
		<path class="st9" d="M45.1,92.1c2-2.3,4-4.7,6-7l5.3,7.2L51,99.4C49,97,47,94.5,45.1,92.1z"/>
	</g>
	<path class="st10" d="M28.3,52.5c1.5-0.7,4.1,2.4,6.3,4.3c13,11.1,39.7,1.1,40.6,4.4c0.4,1.3-3.9,2.7-7.5,9.5
		c-0.3,0.6-0.2,0.4-0.9,1.8c-3,6.2-4.5,9.4-6.6,11.7c-1.6,1.8-4.8,5.4-9.2,5.5c-4.4,0.1-7.7-3.4-10.2-6c-2.7-2.8-4-5.6-5.3-8.2
		c-0.3-0.6-0.3-0.6-0.6-1.4c-2.7-5.7-4.6-7.8-5.9-10.5C26.9,59.3,26.6,53.4,28.3,52.5z"/>
	<g id="Ebene_1_00000116235747154254189310000008121806349337032620_">
		<polygon class="st3" points="34.9,66 33.4,63.5 34.9,61 37.8,61 39.3,63.5 37.8,66 		"/>
	</g>
	<path class="st0" d="M25.2,58c-0.7,0.1-1,4.1-0.3,7.9c0.5,2.5,0.7,3.8,1.8,4.9c2.9,2.8,8.6,1,11.7,0c1.9-0.6,4.6-1.7,4.4-2.2
		c-0.1-0.4-1.7-0.4-2.5-0.3c-2,0.2-2.9,0.8-4.5,1.3c-0.5,0.2-4.7,1.5-6.7-0.3c-0.9-0.8-0.7-1.5-1.3-4.3C27.3,62.2,25.9,57.9,25.2,58
		z"/>
	<path class="st0" d="M75.1,60.2c0.7,0.1,1,4.1,0.3,7.9c-0.5,2.5-0.7,3.8-1.8,4.9c-2.9,2.8-8.6,1-11.7,0c-1.9-0.6-4.6-1.7-4.4-2.2
		c0.1-0.4,1.7-0.4,2.5-0.3c2,0.2,2.9,0.8,4.5,1.3c0.5,0.2,4.7,1.5,6.7-0.3c0.9-0.8,0.7-1.5,1.3-4.3C73,64.4,74.3,60.1,75.1,60.2z"/>
	<g id="Ebene_1_00000160190417832981560060000011840294816162990733_">
		<path class="st9" d="M21.1,58.6l7.2-6.5c0.8,3.2,1.7,6.3,2.5,9.5C27.6,60.6,24.3,59.6,21.1,58.6z"/>
	</g>
	<g id="Ebene_1_00000114060175449389357320000017487431319685654414_">
		<path class="st9" d="M69.2,63.4l8.4-4.8c0.2,3.3,0.3,6.6,0.5,9.8C75.1,66.7,72.1,65.1,69.2,63.4z"/>
	</g>
</g>
<path class="st11" d="M82.4,52.1"/>
<path d="M48.8,45.7c-0.3,0-0.6,1.4-0.3,1.6c0.2,0.1,0.8-0.3,0.7-0.9C49.3,46.1,49,45.7,48.8,45.7z"/>
<path class="st5" d="M44.1,51.6C44.1,51.6,44.1,51.6,44.1,51.6c0,0,0.5,0.4,1.2,0.5c0.9,0.1,1.1-0.6,2.1-0.8c1-0.2,1.1,0.4,2.5,0.4
	c1,0,0.9-0.4,1.7-0.3c1.3,0.1,1.6,1,2.8,0.8c0.6-0.1,1.1-0.4,1.1-0.4c0,0-0.3,0.4-0.8,0.6c-0.8,0.2-1.7-0.3-2.7-0.5
	c-0.1,0-0.3,0-0.5,0c-0.4,0.1-0.5,0.3-1.5,0.3c-1.3,0-1.7-0.4-2.3-0.4c-0.2,0-0.3,0-0.6,0.1c-1,0.2-1.1,0.4-1.5,0.4
	C44.8,52.2,44.1,51.7,44.1,51.6z"/>
<path class="st5" d="M47.6,52.8c0,0,0.9,0.2,2.2,0.2c1.2,0,2-0.1,2-0.1s-0.9,0.1-2,0.1C48.6,53,47.6,52.8,47.6,52.8z"/>
</svg>
