<?xml version="1.0" encoding="utf-8"?>
<!-- Generator: Adobe Illustrator 26.0.3, SVG Export Plug-In . SVG Version: 6.00 Build 0)  -->
<svg version="1.1" id="Background" xmlns="http://www.w3.org/2000/svg" xmlns:xlink="http://www.w3.org/1999/xlink" x="0px" y="0px"
	 viewBox="0 0 1920 1080" style="enable-background:new 0 0 1920 1080;" xml:space="preserve">
<style type="text/css">
	.st0{fill:#0A0035;}
	.st1{fill:#FFFFAF;stroke:#FFFFFF;stroke-width:0.25;stroke-miterlimit:10;}
	.st2{opacity:0.3;}
	.st3{fill:#FFFFFF;stroke:#000000;stroke-width:5;stroke-miterlimit:10;}
</style>
<path id="Boden" class="st0" d="M-0.1,0c434,0,868,0,1302.1,0c206,0,412,0,617.9,0c0,360,0,720,0,1080H-0.1V0z"/>
<path class="st1" d="M464.3,88.9c-2.2-0.4-2,20.3-11.4,34.5c-12.9,19.6-37.2,16.7-37.1,18.7c0.1,2.2,26.7-6.6,37.8,10.8
	c6.6,10.5,5.2,26.6,7.8,26.6c2.9,0.1,1.6-19.7,10.7-29.6c8.7-9.4,21.8-4,22.1-6.9c0.4-3.1-15.4-3.3-23.5-17.7
	C462.4,110.7,466.6,89.3,464.3,88.9z"/>
<path class="st1" d="M1410.7,174.5c-2.2-0.4-2,20.3-11.4,34.5c-12.9,19.6-37.2,16.7-37.1,18.7c0.1,2.2,26.7-6.6,37.8,10.8
	c6.6,10.5,5.2,26.6,7.8,26.6c2.9,0.1,1.6-19.7,10.7-29.6c8.7-9.4,21.8-4,22.1-6.9c0.4-3.1-15.4-3.3-23.5-17.7
	C1408.8,196.3,1413,174.9,1410.7,174.5z"/>
<path class="st1" d="M620,714.3c-4.4-0.5-4,25.7-22.5,43.6c-25.4,24.7-73.4,21.1-73.1,23.7c0.3,2.7,52.7-8.4,74.5,13.7
	c13.1,13.3,10.3,33.6,15.5,33.7c5.7,0.1,3.2-25,21.1-37.4c17.2-11.9,42.9-5.1,43.6-8.7c0.7-3.9-30.3-4.2-46.4-22.4
	C616.3,741.8,624.6,714.8,620,714.3z"/>
<path class="st1" d="M868.2,327.9c-0.2-2.3-20.2,2.8-36.2-3c-22-7.9-25-32.2-26.9-31.6c-2.1,0.6,12.7,24.4-1.7,39.3
	c-8.6,8.9-24.6,11.3-24,13.9c0.6,2.8,19.6-3.1,31.3,3.4c11.2,6.3,9,20.2,11.9,19.9c3.1-0.4-0.4-15.7,11.7-27
	C846.6,331.2,868.4,330.2,868.2,327.9z"/>
<path class="st1" d="M1593.2,851.2c-2.2-0.4-2,20.3-11.4,34.5c-12.9,19.6-37.2,16.7-37.1,18.7c0.1,2.2,26.7-6.6,37.8,10.8
	c6.6,10.5,5.2,26.6,7.8,26.6c2.9,0.1,1.6-19.7,10.7-29.6c8.7-9.4,21.8-4,22.1-6.9c0.4-3.1-15.4-3.3-23.5-17.8
	C1591.3,873,1595.5,851.6,1593.2,851.2z"/>
<path class="st1" d="M1073.4,874.2c-1.9-0.3-1.8,16-9.9,27.1c-11.2,15.4-32.3,13.1-32.1,14.7c0.1,1.7,23.2-5.2,32.8,8.5
	c5.8,8.3,4.5,20.9,6.8,20.9c2.5,0,1.4-15.5,9.3-23.3c7.6-7.4,18.9-3.2,19.2-5.4c0.3-2.4-13.3-2.6-20.4-14
	C1071.7,891.3,1075.4,874.5,1073.4,874.2z"/>
<path class="st1" d="M1105.5,529.3c-1.7,2,12,11.2,15.2,26.8c4.3,21.4-13.8,43.6-12.4,44.4c1.5,0.8,13.5-28.9,32.4-31.6
	c11.4-1.6,21,7,22.8,4.5c2-2.8-12-10.5-12.4-23.8c-0.4-12.7,11.9-22.9,10.2-24.5c-1.8-1.7-12.4,13.4-27.4,14.7
	C1118.6,541.1,1107.3,527.3,1105.5,529.3z"/>
<path class="st1" d="M1506,725.8c-0.1-1.4-10.5,1.2-19.1-2.7c-11.7-5.4-13.9-20.5-14.9-20.2c-1.1,0.3,7.3,15.4,0.1,24.2
	c-4.3,5.3-12.6,6.4-12.3,8c0.4,1.8,10.2-1.4,16.5,2.9c6,4.1,5.2,12.7,6.7,12.6c1.6-0.2-0.6-9.7,5.5-16.4
	C1494.8,727.3,1506.2,727.3,1506,725.8z"/>
<path class="st1" d="M830.7,831c-0.1-1.4-11.5,1.5-20.8-2.1c-12.7-5-14.6-19.8-15.7-19.5c-1.2,0.4,7.5,14.9-0.6,23.8
	c-4.9,5.3-14,6.7-13.6,8.2c0.4,1.7,11.2-1.7,17.9,2.4c6.5,3.9,5.4,12.4,7,12.2c1.8-0.2-0.4-9.6,6.5-16.3
	C818.4,832.8,830.9,832.5,830.7,831z"/>
<path class="st1" d="M1701.2,368.7c-0.1-1.4-10.7,1.3-19.3-2.6c-11.9-5.4-14-20.4-15-20.1c-1.1,0.4,7.3,15.3,0,24.2
	c-4.4,5.3-12.8,6.5-12.4,8c0.4,1.7,10.3-1.5,16.7,2.8c6.1,4.1,5.2,12.7,6.8,12.5c1.6-0.2-0.6-9.7,5.6-16.4
	C1689.8,370.2,1701.3,370.1,1701.2,368.7z"/>
<path class="st1" d="M321.7,919.3c-0.1-1.4-10.7,1.3-19.3-2.6c-11.9-5.4-14-20.4-15-20.1c-1.1,0.4,7.3,15.3,0,24.2
	c-4.4,5.3-12.8,6.5-12.4,8c0.4,1.7,10.3-1.5,16.7,2.8c6.1,4.1,5.2,12.7,6.8,12.5c1.6-0.2-0.6-9.7,5.6-16.4
	C310.3,920.9,321.8,920.8,321.7,919.3z"/>
<path class="st1" d="M1132.3,53.9c-0.1-1.4-10.7,1.3-19.3-2.6c-11.9-5.4-14-20.4-15-20.1c-1.1,0.4,7.3,15.3,0,24.2
	c-4.4,5.3-12.8,6.5-12.4,8c0.4,1.7,10.3-1.5,16.7,2.8c6.1,4.1,5.2,12.7,6.8,12.5c1.6-0.2-0.6-9.7,5.6-16.4
	C1121,55.4,1132.5,55.3,1132.3,53.9z"/>
<path class="st1" d="M173.9,485.7c-0.1-1.4-10.7,1.3-19.3-2.6c-11.9-5.4-14-20.4-15-20.1c-1.1,0.4,7.3,15.3,0,24.2
	c-4.4,5.3-12.8,6.5-12.4,8c0.4,1.7,10.3-1.5,16.7,2.8c6.1,4.1,5.2,12.7,6.8,12.5c1.6-0.2-0.6-9.7,5.6-16.4
	C162.6,487.3,174.1,487.1,173.9,485.7z"/>
<g id="Adern_00000005947651541785902080000012084823895880745147_" class="st2">
	<path class="st3" d="M1019.9,811.1c-39.9,10.8-70.7-4.5-81-9c-59.9-26-191.5-15.2-447-20.2c-309.1-6-488.6-28.9-489-13.4
		c-0.2,7.4,40.7,18.1,66,24.6c153.3,39.9,193.7-3.1,320,29.1c73.3,18.8,83.3,39.4,144,40.3c52.9,0.9,58.5-14.6,132-15.7
		c23.1-0.4,27.5,1.1,130,9c79.5,6,83.1,6.5,92,6.7c70.7,2.5,106,3.8,138-4.5c59.6-15.5,78.4-41,126-26.9c22.4,6.7,23.9,14.1,54,26.9
		c49.4,21.1,85.8,13.2,118,17.9c125,17.9,188.2,26.7,221,15.7c38.6-12.8,56.7-29.1,121-47.1c29.4-8.3,18.7-2.2,86-15.7
		c77.3-15.5,88.7-22.4,112-6.7c25.4,17,48.4,49.5,53,35.9c2.6-7.6-2.2-24.6-4-31.4c-9.3-33.6-25.9-45.5-35-51.5
		c-30.7-20.2-50.7-0.2-85,9c-36.5,9.6-30.9-8.5-87-6.7c-19.1,0.7-64.8,4.3-120,31.4c-51.1,25.1-41.8,36.7-76,49.3
		c-47.5,17.3-87.3,2.9-157-22.4c-32.6-11.9-28.9-13.7-61-24.6c-49.6-17-86.6-22.4-118-26.9c-47.6-6.7-71.9-9.9-93-2.2
		C1053.1,791.8,1046.3,803.9,1019.9,811.1z"/>
	<path class="st3" d="M1041.4,502.6c-24.9-10.3-44.1,4.3-50.5,8.5c-37.4,24.8-119.5,14.6-278.9,19.3
		c-192.8,5.8-304.8,27.6-305.1,12.8c-0.1-7,25.4-17.3,41.2-23.6c95.6-38.1,120.8,3,199.6-27.8c45.7-17.9,52-37.6,89.8-38.5
		c33-0.9,36.5,13.9,82.3,14.9c14.4,0.4,17.2-1,81.1-8.5c49.6-5.8,51.8-6.3,57.4-6.4c44.1-2.4,66.1-3.6,86.1,4.3
		c37.2,14.8,48.9,39.1,78.6,25.7c14-6.4,14.9-13.4,33.7-25.7c30.8-20.2,53.5-12.7,73.6-17.2c78-17.2,117.4-25.5,137.9-14.9
		c24.1,12.2,35.4,27.8,75.5,44.9c18.3,7.9,11.7,2.1,53.7,14.9c48.2,14.8,55.3,21.3,69.9,6.4c15.8-16.3,30.2-47.3,33.1-34.3
		c1.6,7.3-1.4,23.6-2.5,30c-5.8,32.1-16.2,43.4-21.8,49.3c-19.2,19.3-31.6,0.1-53-8.5c-22.8-9.3-19.3,8.2-54.3,6.4
		c-11.9-0.6-40.4-4-74.9-30c-31.9-24-26.1-35.1-47.4-47.2c-29.6-16.4-54.5-2.8-97.9,21.3c-20.3,11.3-18,13-38.1,23.6
		c-30.9,16.3-54,21.3-73.6,25.7c-29.7,6.4-44.9,9.4-58,2.1C1062.2,521.1,1057.9,509.5,1041.4,502.6z"/>
	<path class="st3" d="M1099.9,851.7c4.9-5.9,31.5,44.3,79,70.6c38,21.1,72.3,17.1,141,9.2c59.5-6.8,59.6-15.6,115-20.9
		c34.2-3.3,64.5-1.7,125,1.3c104.4,5.2,90.6,11.6,131,9.2c49.9-3.1,76.5-13.3,122,1.3c26.9,8.6,52.9,23.5,52,28.8
		c-0.9,5-25.5,2-73-3.9c-33.6-4.2-33.5-5.4-45-5.2c-30.9,0.3-38.7,9.2-66,10.5c-19.2,0.9-18.7-3.3-57-9.2c-30.6-4.7-52.8-5.4-91-6.5
		c-35.8-1-53.7-1.6-69,1.3c-28.9,5.6-32,13.1-69,24.8c-9.2,2.9-40.6,12.4-82,15.7c-24.4,2-45.6,0-88-3.9c-13.6-1.3-27.5-2.9-44-11.8
		c-13.2-7.2-22.6-16.1-29-22.2c-17.7-17-28.3-34.3-32-40.5C1112.1,886.8,1096.1,856.3,1099.9,851.7z"/>
	<path class="st3" d="M1886.4,713.9c-3.1,5.2-20.2-39.2-50.7-62.5c-24.4-18.6-46.4-15.2-90.6-8.1c-38.2,6-38.3,13.8-73.9,18.5
		c-22,2.9-41.4,1.5-80.3-1.2c-67.1-4.6-58.2-10.3-84.2-8.1c-32.1,2.8-49.1,11.8-78.4-1.2c-17.3-7.6-34-20.8-33.4-25.5
		c0.6-4.4,16.4-1.7,46.9,3.5c21.6,3.7,21.5,4.7,28.9,4.6c19.8-0.2,24.9-8.1,42.4-9.3c12.3-0.8,12,2.9,36.6,8.1
		c19.7,4.2,33.9,4.7,58.5,5.8c23,0.9,34.5,1.4,44.3-1.2c18.6-5,20.6-11.6,44.3-22c5.9-2.5,26.1-11,52.7-13.9
		c15.7-1.7,29.3,0,56.5,3.5c8.7,1.2,17.7,2.5,28.3,10.4c8.5,6.4,14.5,14.2,18.6,19.7c11.4,15,18.2,30.3,20.6,35.9
		C1878.6,682.9,1888.9,709.8,1886.4,713.9z"/>
	<path class="st3" d="M27.9,1066.5c16.4-27.4,46.2-33.2,83-37.2c58-6.2,62.6-0.1,117-5c40.5-3.6,81.3-10.9,97-13.6
		c41.2-7.3,40.4-9.2,55-9.9c49.7-2.7,65.2,18,105,23.6c53,7.4,52.4-25.5,134-37.2c30.1-4.3,20.1,1.6,128,0c33.2-0.5,56-0.9,88-2.5
		c60.1-3.1,65.8-6.3,98-5c43.2,1.7,64.8,2.6,92,16.1c27.9,13.8,32,26,59,33.5c20.9,5.7,32.6,2.4,65,0c20.3-1.5,53.6-3.8,87,0
		c65.6,7.4,79.2,32.9,121,19.8c18.2-5.7,31.7-15.5,35-9.9c3.9,6.7-8.5,34-27,40.9c-15.9,6-23.1-8.2-58-18.6c-22-6.6-39.8-7.2-51-7.4
		c-19.7-0.5-27.4,2.2-51,5c-15.2,1.7-47.9,5.6-84,2.5c-13.4-1.1-40.3-4.3-73-14.9c-46.2-15-48.9-27-79-29.8
		c-28.1-2.6-26.5,7.8-65,7.4c-32.1-0.4-36.4-7.6-71-7.4c-25.7,0.1-25,4.1-54,5c-31.7,0.9-33.8-3.8-72-5c-14-0.4-41.3-0.6-75,3.7
		c-21,2.7-36.4,6.2-53,9.9c-75,17-72.1,27.3-94,23.6c-35-6.1-42.7-32.4-80-29.8c-6.5,0.5-6,1.2-32,5c-22.3,3.2-33,4.1-50,6.2
		c-33.9,4.1-30.7,5.3-66,9.9c-44,5.7-45.1,3.5-69,8.7c-19.7,4.3-23.4,6.8-37,7.4c-21.8,1-26.9-4.8-47-2.5
		c-13.9,1.6-24.2,5.8-37,11.2c-28.8,11.9-42.4,24.8-46,19.8C18.1,1086.2,23.2,1074.3,27.9,1066.5z"/>
	<path class="st3" d="M16.4,709.3c9-35.1,25.3-42.6,45.4-47.7c31.7-7.9,34.2-0.2,64-6.4c22.2-4.6,44.5-14,53.1-17.5
		c22.5-9.4,22.1-11.8,30.1-12.7c27.2-3.5,35.7,23,57.4,30.2c29,9.5,28.7-32.7,73.3-47.7c16.5-5.6,11,2.1,70,0
		c18.2-0.6,30.6-1.1,48.1-3.2c32.9-4,36-8.1,53.6-6.4c23.6,2.2,35.4,3.3,50.3,20.7c15.3,17.6,17.5,33.4,32.3,42.9
		c11.4,7.3,17.8,3,35.6,0c11.1-1.9,29.3-4.9,47.6,0c35.9,9.5,43.3,42.1,66.2,25.4c10-7.3,17.3-19.9,19.1-12.7
		c2.1,8.6-4.7,43.5-14.8,52.4c-8.7,7.6-12.6-10.5-31.7-23.8c-12-8.4-21.8-9.2-27.9-9.5c-10.8-0.6-15,2.9-27.9,6.4
		c-8.3,2.2-26.2,7.2-46,3.2c-7.3-1.4-22-5.6-39.9-19.1c-25.3-19.2-26.8-34.6-43.2-38.1c-15.4-3.3-14.5,10-35.6,9.5
		c-17.6-0.5-19.9-9.7-38.8-9.5c-14.1,0.2-13.7,5.2-29.5,6.4c-17.3,1.1-18.5-4.9-39.4-6.4c-7.7-0.5-22.6-0.8-41,4.8
		c-11.5,3.5-19.9,7.9-29,12.7c-41,21.8-39.4,35-51.4,30.2c-19.1-7.8-23.4-41.5-43.8-38.1c-3.6,0.6-3.3,1.6-17.5,6.4
		c-12.2,4.1-18.1,5.2-27.4,7.9c-18.5,5.2-16.8,6.8-36.1,12.7c-24.1,7.3-24.7,4.4-37.7,11.1c-10.8,5.6-12.8,8.7-20.2,9.5
		c-11.9,1.3-14.7-6.2-25.7-3.2c-7.6,2.1-13.2,7.5-20.2,14.3c-15.8,15.3-23.2,31.8-25.2,25.4C11.1,734.6,13.8,719.3,16.4,709.3z"/>
	<path class="st3" d="M904.8,363.6c39.9-10.5,70.7,4.4,81,8.7c59.9,25.3,191.5,14.9,447,19.7c309.1,5.9,488.6,28.2,489,13.1
		c0.2-7.2-40.7-17.7-66-24c-153.3-38.9-193.7,3.1-320-28.4c-73.3-18.3-83.3-38.4-144-39.3c-52.9-0.9-58.5,14.2-132,15.3
		c-23.1,0.4-27.5-1.1-130-8.7c-79.5-5.9-83.1-6.3-92-6.6c-70.7-2.4-106-3.7-138,4.4c-59.6,15.1-78.4,40-126,26.2
		c-22.4-6.6-23.9-13.8-54-26.2c-49.4-20.5-85.8-12.9-118-17.5c-125-17.5-188.2-26-221-15.3c-38.6,12.4-56.7,28.4-121,45.9
		c-29.4,8.1-18.7,2.2-86,15.3c-77.3,15.1-88.7,21.8-112,6.6c-25.4-16.6-48.4-48.3-53-34.9c-2.6,7.4,2.2,24,4,30.6
		c9.3,32.8,25.9,44.3,35,50.2c30.7,19.7,50.7,0.2,85-8.7c36.5-9.4,30.9,8.3,87,6.6c19.1-0.7,64.8-4.1,120-30.6
		c51.1-24.5,41.8-35.8,76-48c47.5-16.8,87.3-2.8,157,21.8c32.6,11.6,28.9,13.3,61,24c49.6,16.6,86.6,21.8,118,26.2
		c47.6,6.6,71.9,9.6,93,2.2C871.6,382.4,878.4,370.6,904.8,363.6z"/>
	<path class="st3" d="M12.1,218.3c2.8,28.5,57.2,9.3,57.2,9.3c50.7-17.9,106.7-27.6,143.8-26.1c62,2.7,60,36.7,108.4,24.3
		c36.4-9.3,52.4-32.3,83.5-13c16.4,10.2,27,25.9,52.7,35.4c6.4,2.4,20.6,7.1,42.9,5.5c52.1-3.3,58.4-34,99.4-35.4
		c32.7-1.1,30.1,18.3,70.8,18.6c27.4,0.2,49.5-8.4,70-16.8c53.3-21.7,51.4-38.9,73.8-35.4c38.4,6.2,46,58.1,78.3,48.6
		c23.2-6.6,21.8-34.2,48.2-54.1c39.6-29.6,50.4,26.7,115.2,24.3c34.6-1.3,40.7-17.7,73-9.3c14.2,3.8,26,10.2,45.9,7.5
		c23.9-3.3,23.6-15,38.4-13c29.4,4,31.5,50.2,60.2,54.1c19.3,2.7,24.8-17.5,44.4-5.5c13.8,8.4,13.7,20.1,26.3,26.1
		c18.2,8.6,21.2-14.6,45.9-16.8c10.4-0.9,27.9,1.5,45.9,9.3c9.3,4.2,17.2,8.8,21.1-1.8c3.5-9.5,3.4-30.5-0.8-41.1
		c-7.6-19.2-20.9,15-39.9-1.8c-8.4-7.5-11.7-19.7-22.6-22.3c-6.2-1.8-11,0.7-13.5,1.8c-17.8,8.6-21.5,34.9-30.1,29.8
		c-1.4-0.7-6.5-14.1-16.6-41.1c-7-18.6-10.2-27.2-14.3-26.1c-2.8,0.7-3.8,5.5-7.5,15c-2.6,6.6-13.2,32.7-23.3,33.6
		c-5.9,0.7-10.4-7.7-13.5-13c-19.1-32.5-47.3-53.7-67.7-54.1c-17.2-0.2-16.6,14.6-33.9,11.3c-18.9-3.8-23.5-22.1-38.4-24.3
		c-18.3-2.4-21.7,24.3-43.7,41.1c-26,19.9-50.3,4.9-82.8-15c-29-17.7-30.6-30.5-47.4-29.8c-24.7,1.1-29,29.2-52.7,37.3
		c-30.1,10.4-37.6-29.8-73-39.1c-29.1-7.7-29.8,17.9-79.8,35.4c-22.1,7.7-19.9,2-101.6,7.5c-46.2,3.1-69.4,4.6-81.3,9.3
		c-31.6,12.6-51,51-72.3,26.1c-7.6-9.1-11.9-21-26-34.5c-5.9-5.5-16.3-14.1-31.2-17.7c-30.7-7.5-37.9,16.4-66.2,16.8
		c-26.4,0.4-27.5-20.3-56.8-25.2c-24.2-4-37.7,7.7-61,18.6c-20.5,9.5-67.2,10.4-160.7,12.2c-18.6,0.4-37.3,8.6-55.7,1.8
		c-9.3-3.3-28.2-12.4-30.9,1.8c-0.9,4.9,0.7,9.1,0.8,26.1C12.9,209.2,11.7,214.3,12.1,218.3z"/>
	<path class="st3" d="M1912.3,47.5c-2.8-16.2-57.2-5.3-57.2-5.3C1804.4,52.4,1748.4,58,1711.3,57c-62-1.5-60-20.8-108.4-13.8
		c-36.4,5.3-52.4,18.3-83.5,7.4c-16.4-5.8-27-14.7-52.7-20.1c-6.4-1.4-20.6-4-42.9-3.1c-52.1,1.9-58.4,19.3-99.4,20.1
		c-32.7,0.6-30.1-10.4-70.8-10.5c-27.4-0.1-49.5,4.8-70,9.5c-53.3,12.3-51.4,22.1-73.8,20.1c-38.4-3.5-46-33-78.3-27.6
		c-23.2,3.8-21.8,19.4-48.2,30.7c-39.6,16.8-50.4-15.2-115.2-13.8c-34.6,0.8-40.7,10-73,5.3c-14.2-2.1-26-5.8-45.9-4.3
		c-23.9,1.9-23.6,8.5-38.4,7.4c-29.4-2.3-31.5-28.5-60.2-30.7c-19.3-1.5-24.8,9.9-44.4,3.1c-13.8-4.8-13.7-11.4-26.3-14.8
		c-18.2-4.9-21.2,8.3-45.9,9.5c-10.4,0.5-27.9-0.9-45.9-5.3c-9.3-2.4-17.2-5-21.1,1c-3.5,5.4-3.4,17.3,0.8,23.3
		c7.6,10.9,20.9-8.5,39.9,1c8.4,4.3,11.7,11.2,22.6,12.7c6.2,1,11-0.4,13.5-1c17.8-4.9,21.5-19.8,30.1-16.9c1.4,0.4,6.5,8,16.6,23.3
		c7,10.5,10.2,15.4,14.3,14.8c2.8-0.4,3.8-3.1,7.5-8.5c2.6-3.8,13.2-18.6,23.3-19.1c5.9-0.4,10.4,4.4,13.5,7.4
		c19.1,18.4,47.3,30.5,67.7,30.7c17.2,0.1,16.6-8.3,33.9-6.4c18.9,2.1,23.5,12.5,38.4,13.8c18.3,1.4,21.7-13.8,43.7-23.3
		c26-11.3,50.3-2.8,82.8,8.5c29,10,30.6,17.3,47.4,16.9c24.7-0.6,29-16.5,52.7-21.2c30.1-5.9,37.6,16.9,73,22.2
		c29.1,4.4,29.8-10.2,79.8-20.1c22.1-4.4,19.9-1.1,101.6-4.3c46.2-1.8,69.4-2.6,81.3-5.3c31.6-7.1,51-29,72.3-14.8
		c7.6,5.1,11.9,11.9,26,19.6c5.9,3.1,16.3,8,31.2,10c30.7,4.3,37.9-9.3,66.2-9.5c26.4-0.3,27.5,11.5,56.8,14.3
		c24.2,2.3,37.7-4.4,61-10.5c20.5-5.4,67.2-5.9,160.7-6.9c18.6-0.3,37.3-4.9,55.7-1c9.3,1.9,28.2,7,30.9-1c0.9-2.8-0.7-5.1-0.8-14.8
		C1911.5,52.6,1912.7,49.9,1912.3,47.5z"/>
</g>
</svg>
