<?xml version="1.0" encoding="utf-8"?>
<!-- Generator: Adobe Illustrator 26.0.3, SVG Export Plug-In . SVG Version: 6.00 Build 0)  -->
<svg version="1.1" id="Ebene_1" xmlns="http://www.w3.org/2000/svg" xmlns:xlink="http://www.w3.org/1999/xlink" x="0px" y="0px"
	 viewBox="0 0 1920 360" style="enable-background:new 0 0 1920 360;" xml:space="preserve">
<style type="text/css">
	.st0{fill:#0A0035;}
	.st1{fill:#FFFFFF;stroke:#000000;stroke-width:4;stroke-miterlimit:10;}
	.st2{fill:#603726;stroke:#000000;stroke-width:5;stroke-miterlimit:10;}
	.st3{fill:#F5FFC9;stroke:#000000;stroke-miterlimit:10;}
	.st4{opacity:0.2;fill:#F5FFC9;stroke:#000000;stroke-miterlimit:10;}
	.st5{fill:#8C6239;stroke:#000000;stroke-width:3;stroke-miterlimit:10;}
	.st6{fill:#A67C52;stroke:#000000;stroke-miterlimit:10;}
	.st7{fill:#A67C52;stroke:#000000;stroke-width:0.75;stroke-miterlimit:10;}
	.st8{fill:#754C24;stroke:#000000;stroke-width:0.75;stroke-miterlimit:10;}
	.st9{fill:#754C24;stroke:#000000;stroke-miterlimit:10;}
	.st10{fill:#603813;stroke:#000000;stroke-width:0.75;stroke-miterlimit:10;}
	.st11{fill:#FFFFFF;stroke:#000000;stroke-width:0.75;stroke-miterlimit:10;}
	.st12{fill:#01796F;stroke:#000000;stroke-miterlimit:10;}
	.st13{fill:#FFFFFF;stroke:#000000;stroke-miterlimit:10;}
	.st14{fill:#815438;stroke:#000000;stroke-miterlimit:10;}
	.st15{fill:#E90006;stroke:#000000;stroke-miterlimit:10;}
	.st16{fill:#EDD4C5;stroke:#000000;stroke-miterlimit:10;}
	.st17{fill:#FF3573;stroke:#000000;stroke-miterlimit:10;}
	.st18{fill:#FFFFFF;stroke:#000000;stroke-width:0.5;stroke-miterlimit:10;}
	.st19{stroke:#000000;stroke-miterlimit:10;}
	.st20{fill:#624A2E;stroke:#000000;stroke-miterlimit:10;}
</style>
<rect y="-0.2" class="st0" width="1922" height="233.4"/>
<path class="st1" d="M-1.7,186.9c321,0,642,0,963,0c414.8,0,957,0,957,0s0,0,0,0.1c6,62,3.6,67.6,1,70.9c-7.5,9.7-22.8,9.3-37,9
	c-29.6-0.7-34.5-17.8-57-14c-25.1,4.2-32.5,20.9-49,17c-20.1-4.8-21.1-32.7-38-34c-14.7-1.1-17.2,19.9-37,24
	c-15.9,3.3-21.7-8.7-64-25c-17.3-6.7-25.9-10-36-11c-27-2.7-34.4,8.8-60,6c-21.3-2.3-22.3-10.9-41-13c-24.2-2.7-32,10.7-61,20
	c-56.6,18.2-116.2-4.2-129-9c-19.6-7.4-20.6-11.2-34-13c-33.6-4.5-48.8,16.8-82,21c-30,3.8-37.4-10.9-75-19
	c-44.4-9.5-54.5,6.7-133,16c-14.5,1.7-58.3,2.5-146,4c-79.2,1.4-84.4,0.4-103,5c-36.4,8.9-53.1,21.5-83,16
	c-26.6-4.9-26.3-17.3-55-26c-35.3-10.7-48,4.3-100,5c-46,0.6-46.8-10.9-99-13c-27.6-1.1-28.5,2.1-98,9c-58.3,5.8-95.7,9.6-145,9
	c-31.9-0.4-36.3-2.1-74-2c-39.3,0.2-85,2.3-85,2C-1.7,241.9-1.7,241.9-1.7,186.9z"/>
<path class="st2" d="M-1.7,261.9c3.7,15.3,76,5,76,5c67.4-9.6,141.8-14.9,191-14c82.4,1.4,79.7,19.6,144,13c48.4-5,69.6-17.3,111-7
	c21.8,5.4,35.9,13.8,70,19c8.5,1.3,27.4,3.8,57,3c69.2-1.8,77.6-18.2,132-19c43.4-0.6,40,9.8,94,10c36.4,0.1,65.7-4.5,93-9
	c70.8-11.6,68.3-20.9,98-19c51,3.3,61.1,31.1,104,26c30.8-3.6,28.9-18.4,64-29c52.6-15.9,67,14.3,153,13c46-0.7,54.1-9.5,97-5
	c18.9,2,34.5,5.5,61,4c31.7-1.8,31.4-8.1,51-7c39,2.1,41.9,26.9,80,29c25.7,1.4,33-9.4,59-3c18.3,4.5,18.2,10.8,35,14
	c24.2,4.6,28.2-7.8,61-9c13.8-0.5,37.1,0.8,61,5c12.4,2.2,22.8,4.7,28-1c4.6-5.1,4.5-16.3-1-22c-10.1-10.3-27.8,8.1-53-1
	c-11.2-4-15.5-10.5-30-12c-8.2-0.9-14.6,0.3-18,1c-23.6,4.6-28.6,18.7-40,16c-1.8-0.4-8.6-7.6-22-22c-9.3-10-13.6-14.6-19-14
	c-3.7,0.4-5,3-10,8c-3.5,3.5-17.6,17.5-31,18c-7.9,0.3-13.8-4.1-18-7c-25.4-17.4-62.8-28.8-90-29c-22.9-0.1-22.1,7.8-45,6
	c-25.1-2-31.2-11.9-51-13c-24.3-1.3-28.8,13-58,22c-34.5,10.6-66.8,2.6-110-8c-38.5-9.5-40.6-16.4-63-16c-32.8,0.6-38.5,15.6-70,20
	c-40,5.6-49.9-16-97-21c-38.7-4.1-39.6,9.6-106,19c-29.3,4.1-26.5,1.1-135,4c-61.4,1.7-92.2,2.5-108,5c-42,6.7-67.8,27.4-96,14
	c-10.1-4.8-15.8-11.3-34.5-18.5c-7.8-3-21.7-7.6-41.5-9.5c-40.8-4-50.4,8.8-88,9c-35.1,0.2-36.6-10.9-75.5-13.5
	c-32.2-2.1-50.1,4.2-81,10c-27.3,5.1-89.3,5.6-213.5,6.5c-24.7,0.2-49.6,4.6-74,1c-12.3-1.8-37.5-6.6-41,1c-1.2,2.6,0.9,4.9,1,14
	C-0.6,257-2.2,259.7-1.7,261.9z"/>
<path class="st3" d="M921.2-4.2c12.5,24,29.4,45.3,50.1,62.5c100.5,78.9,270.4,45,340.4-62.5"/>
<path class="st4" d="M408.2-4.2c-21.2,69.6-24.2,140,9.6,191.1c77.9,117.6,278.7,22.8,771.5,41c375.6,13.9,527.9,78.9,599.1-15.9
	c40.3-53.6,37.3-135.5,12.2-215.7"/>
<g id="Baum">
	<path class="st5" d="M455.7,155.5c-13.8-16.3-21.3-25.2-21.5-37.4c-0.2-8,3-14.4-1-18c-2.9-2.6-6.3-0.8-10-2
		c-12.6-4.1-19.6-40.3-7-67c1.8-3.8,6.2-10.9,15-25c1.3-2.1,2.4-3.9,3.4-5.4c-0.4,0-0.8,0-1.2-0.1c-3.2-0.2-6.4-0.3-9.7-0.4
		c-2,2.6-4.2,5.3-6.5,7.9c-4.9,5.7-9.4,10.2-12,9c-1.8-0.8-2.1-4.2-2-7c0.1-3.5,0.6-6.8,1.4-10.1c-4.5,0.1-9,0.4-13.6,0.4
		c-5.4,0.1-10.8-0.3-16.2-0.6c8.8,28,13,43.2,6.2,49.3c-11.1,10.1-32.8-14.2-72-11c-31.5,2.5-58.2,21.4-57,25c0.8,2.6,16.9-0.3,21-1
		c14-2.5,23.4-6.7,27-8c22.9-8.5,63,3.5,77,28c6.5,11.3,5,28.2,2,62c-0.6,7-1.5,12.3-2.5,16.5c-2.2,9.8-2.6,14.8-3.5,17.3
		c-6.5,16.5-30.1,20.7-29.5,22.8c0.5,1.8,17.2-2.3,28.4-4.1c48-8.1,87,8.5,89.5,1.2c1.2-3.6-7.9-9.2-6.5-11.3
		c1.4-2.2,12.4,3.1,20.1,5.9c28.5,10.6,56.6,5.4,56.9,3c0.3-2.6-32.4-0.8-59.9-23.1C465,166.5,459.9,160.4,455.7,155.5z"/>
	<path class="st6" d="M425.4,101.6c-2.2-0.3-3.8,1.8-4,2c-1.5,2-1.5,5,0,7c1.6,2.2,5.1,3.4,7,2c2.1-1.6,1.2-5.3,1-6
		C429.3,106,428.3,102,425.4,101.6z"/>
	<path class="st7" d="M438.8,137.6c-2.9-4.6-7.5-12.1-6-20c0.4-1.9,1.3-4.8,1-9c-0.2-2.8-0.4-5.2-2-7c-2.7-3-6.5-1.2-11-3
		c-4.6-1.9-6.7-6.2-9-11c-4.7-9.8-4.4-19.1-4-28c0.2-4.6,0.6-11.5,3-20c2.5-8.6,5.6-13.7,17-32c1.6-2.6,3.1-4.9,4.4-7
		c-1-0.1-1.9-0.1-2.8-0.1c-2.2,2.9-4.7,6.3-7.6,10.2c-9,12.1-12,16-12,16c-8.9,11.9-8.9,11.8-9,12c-7.4,12.5-6.2,26.5-5,39
		c1,10.6,3.3,18.3,5,24c3.5,11.6,6,19.8,13,28c5.7,6.7,11.7,10.3,18,14c9.2,5.5,19.2,9.3,20,8C452.5,150.4,444.8,147.2,438.8,137.6z
		"/>
	<path class="st6" d="M402,0c-1.5,0-3.1,0.1-4.6,0.2c-0.2,1.7-0.2,3.5,0.1,5.3c0.6,5.8,3,11.2,4,11C402.6,16.3,400.6,9.4,402,0z"/>
	<path class="st8" d="M378.6,153.3c0.6-5,1.3-12,2.1-20.6c0.8-11.1,1.3-16.6,1-21.8c-0.1-1-1.1-17.5-9.3-30.9
		c-13.1-21.5-38.4-25.2-38.1-26.3c0.3-0.9,15.4-0.7,28.8,9.2c37.1,27.4,31.3,108.1,27.8,108.8c-0.7,0.1-1.3-3.1-6.2-10.3
		C382.6,157.9,380.3,155.1,378.6,153.3z"/>
	<path class="st9" d="M379.4,0.2c-2.1-0.1-4.2-0.2-6.4-0.3c2.2,7.5,4.3,15.1,6.5,22.6c0.3,1.1,1.6,5.4,2,11c0.3,3.5,0.1,5.9,0,7
		c-0.4,3.9-1.2,5.9-1,6c0.3,0.1,4.1-7.3,5-17c0.2-1.6,0.4-4.8,0-9C384.7,13.1,382.5,7.4,379.4,0.2z"/>
	<path class="st10" d="M425.4,102.6c-1.5,0.4-2.3,3-2,5c0.4,2.9,3.2,5.5,5,5c1.4-0.4,2-2.5,2-4C430.4,105.3,427.3,102.1,425.4,102.6
		z"/>
	<path class="st11" d="M251.3,62.7c0.5,0.8,12.2-9.6,32-15.1c11.7-3.3,21.8-3.6,27.3-3.6c8.1,0.1,14.1,1.2,18.7,2
		c21.9,4,28.2,10.7,41.5,8.1c5.6-1.1,10.5-3.4,10.4-4.1c-0.2-0.9-7.9,1.4-17.2,0.6c-10.2-0.9-13.8-4.6-24.3-8.2
		c-13.2-4.5-24.5-4.5-29.6-4.4c-19.1,0.3-33,6.8-37.6,9.1C259.5,53.4,250.8,62,251.3,62.7z"/>
	<path class="st11" d="M412.1,11.4c-0.8-0.6-6.4,7.1-9.1,5.7c-1.4-0.7-1.1-3.3-1.8-3.3c-1,0-3,4.6-1.2,6.5c1.4,1.5,4.4,0.5,5,0.3
		C410.4,18.8,412.8,11.9,412.1,11.4z"/>
	<path class="st11" d="M422.5,100.6c0.3,1-0.4,2-1.1,3c-0.9,1.2-1.8,2.5-3.3,2.6c-1.6,0.2-3.4-1-3.9-2.4c-0.6-2,1.4-4,0.9-4.4
		c-0.5-0.4-2.1,0.8-2.1,0.9c0.1,0.1,3.1-2.3,6.5-1.7C419.8,98.7,422.1,99.1,422.5,100.6z"/>
</g>
<g>
	<path class="st12" d="M1337.6,28.1c-6.2,9.4-13.8,11.2-20.9,25c-1.8,3.2-3.8,7.6-2.4,9.1c3.8,3.8,25.9-15.3,29.1-12.1
		c2.1,2.1-5.6,11.5-17.6,31.5c-12.6,20.6-15.6,28.8-14.4,29.4c1.8,1.2,11.5-15.6,26.5-16.5c1.8,0,5.6-0.3,7.1,2.1
		c2.9,4.4-4.7,14.4-8.5,19.1c-16.5,21.2-33.2,27.3-31.7,32.6c1.5,4.7,15.9,4.4,17.6,4.4c20.3-0.6,22.9-11.5,39.7-14.1
		c21.2-3.2,30.9,12.1,55.3,5.6c1.5-0.3,10.6-2.9,10.6-5.9c0-3.8-15.9-4.1-34.1-14.4c-7.3-4.4-17.6-10.3-17-17.3
		c0.6-6.2,8.8-10.9,15.3-12.6c12.3-3.2,22,3.8,23.5,1.8c1.5-2.4-8.8-11.8-18.8-19.4c-17.9-13.8-30.6-18.8-29.7-21.5
		c1.2-4.1,32.3,4.4,33.8,0.3c0.3-1.2-0.9-2.9-20.6-15c-19.7-12.1-24.1-13.5-28.2-20.3c-5.9-9.4-4.7-19.1-6.5-19.1
		C1342.9,0.8,1346.2,15.2,1337.6,28.1z"/>
	<path class="st13" d="M1318,52.8c-0.9-1.2,3.8-5,15.6-19.4c5.9-7.3,7.9-10,9.1-13.8c2.6-7.6,1.8-13.8,2.9-13.8
		c1.5-0.3,1.5,7.1,6.2,14.1c2.6,4.1,5,5.6,21.8,16.8c12.3,7.9,18.5,12.1,17.9,12.9c-0.3,0.3-1.2,0-1.8,0c-8.2-1.8-30.6-7.3-37.9-8.2
		C1333.8,39.3,1319.4,55.2,1318,52.8z"/>
	<path class="st13" d="M1313.8,104.2c-1.5-1.2,7.6-10,17-28.5c2.9-5.9,4.7-10.3,9.1-11.5c4.7-1.2,7.9,2.6,16.5,2.4
		c4.1,0,6.8-0.9,8.2-1.2c16.8-3.5,52.3,26.2,50.6,28.5c-0.9,1.2-8.2-8.2-22.3-8.8s-21.8,8.5-31.7,3.8c-5.3-2.4-4.4-5.6-8.8-7.1
		C1337.6,76.9,1316.2,106.3,1313.8,104.2z"/>
	<path class="st13" d="M1313.2,138.9c-0.6-1.2,4.4-3.2,12.9-11.2s8.2-10,14.1-13.8c2.1-1.2,9.1-5.9,18.5-5.9
		c7.1,0,11.2,2.9,21.8,8.5c21.8,12.1,32.9,15.3,32.3,17.1c-0.6,2.1-16.2-1.5-17.6-1.8c-18.5-4.1-23.2-10-33.8-8.5
		c-4.4,0.6-3.8,1.5-14.7,6.2C1331.8,136,1314.4,141,1313.2,138.9z"/>
	<path class="st14" d="M1351.5,46c1.2-0.6,2.9,1.2,4.1,2.4c1.2,1.5,2.4,2.9,4.7,8.8c1.5,4.1,2.4,6.2,1.8,7.1
		c-1.8,3.8-11.8,3.8-13.8,0.3c-0.9-1.5,0.6-2.6,1.5-8.2C1350.9,49.9,1350,46.6,1351.5,46z"/>
	<path class="st14" d="M1347.1,193.9c-0.3-0.6,8.5-1.8,13.2-7.6c9.7-12.9-10-36.2-1.2-45.6c4.1-4.4,12.9-4.1,18.5-1.2
		c9.4,5,5.9,16.2,14.1,27c13.8,18.8,46.2,16.5,45.9,19.7c-0.3,1.5-6.2,2.1-10,2.4c-6.2,0.6-10.9,0-12.6-0.3
		c-13.8-2.1-25.3-6.8-25.3-6.2c20.2,13.4,24.5,17.2,24.1,17.9c-0.5,0.9-8.7-3.6-24.7-7.9c-4.9-1.3-7.9-2.3-11.5-2.6
		C1360.6,187.7,1347.3,194.8,1347.1,193.9z"/>
	<path class="st14" d="M1348.5,86.3c-0.9,0.6,0.9,3.2,2.4,10.3c1.2,5.3,0.9,6.8,2.4,7.9c2.1,1.5,3.8,0,9.4,0.3
		c5.9,0.3,7.9,2.4,9.1,1.2c1.5-1.8-0.9-7.6-5-10.6c-1.8-1.2-2.6-1.2-5.6-2.4C1352.9,90.1,1350,85.4,1348.5,86.3z"/>
</g>
<g>
	<path class="st12" d="M1453.4-0.4c-1.8,0-0.6,9.7-6.5,19.1c-4.1,6.8-8.5,8.2-28.2,20.3c-19.7,12.1-20.9,13.8-20.6,15
		c1.5,4.1,32.6-4.4,33.8-0.3c0.9,2.6-11.8,7.6-29.7,21.5c-10,7.6-20.3,17.1-18.8,19.4c1.5,2.1,11.2-5,23.5-1.8
		c6.5,1.8,14.7,6.5,15.3,12.6c0.6,7.1-9.7,12.9-17.1,17.3c-18.2,10.3-34.1,10.6-34.1,14.4c0,2.9,9.1,5.6,10.6,5.9
		c24.4,6.5,34.1-8.8,55.3-5.6c16.8,2.6,19.4,13.5,39.7,14.1c1.8,0,16.2,0.3,17.6-4.4c1.5-5.3-15.3-11.5-31.7-32.6
		c-3.8-4.7-11.5-14.7-8.5-19.1c1.5-2.4,5.3-2.1,7.1-2.1c15,0.9,24.7,17.6,26.5,16.5c1.2-0.6-1.8-8.8-14.4-29.4
		c-12.1-20-19.7-29.4-17.6-31.5c3.2-3.2,25.3,15.9,29.1,12.1c1.5-1.5-0.6-5.9-2.4-9.1c-7.1-13.8-14.7-15.6-20.9-25
		C1452.8,14,1456.1-0.4,1453.4-0.4z"/>
	<path class="st13" d="M1447.3,40.1c-7.3,0.9-29.7,6.5-37.9,8.2c-0.6,0-1.5,0.3-1.8,0c-0.6-0.9,5.6-5,17.9-12.9
		c16.8-11.2,19.1-12.6,21.8-16.8c4.7-7.1,4.7-14.4,6.2-14.1c1.2,0,0.3,6.2,2.9,13.8c1.2,3.8,3.2,6.5,9.1,13.8
		c11.8,14.4,16.5,18.2,15.6,19.4C1479.6,54,1465.2,38.1,1447.3,40.1z"/>
	<path class="st13" d="M1446.7,80.7c-4.4,1.5-3.5,4.7-8.8,7.1c-10,4.7-17.6-4.4-31.7-3.8c-14.1,0.6-21.5,10-22.3,8.8
		c-1.8-2.4,33.8-32,50.6-28.5c1.5,0.3,4.1,1.2,8.2,1.2c8.5,0.3,11.8-3.5,16.5-2.4c4.4,1.2,6.2,5.6,9.1,11.5
		c9.4,18.5,18.5,27.3,17.1,28.5C1482.8,105.1,1461.4,75.7,1446.7,80.7z"/>
	<path class="st13" d="M1452.3,128.3c-10.9-4.7-10.3-5.6-14.7-6.2c-10.6-1.5-15.3,4.4-33.8,8.5c-1.5,0.3-17.1,3.8-17.6,1.8
		c-0.6-1.8,10.6-5,32.3-17.1c10.6-5.6,14.7-8.5,21.8-8.5c9.4,0,16.5,4.7,18.5,5.9c5.9,3.8,5.6,5.9,14.1,13.8s13.5,10,12.9,11.2
		C1484.6,139.8,1467.2,134.8,1452.3,128.3z"/>
	<path class="st14" d="M1449.3,55.1c0.9,5.6,2.4,6.8,1.5,8.2c-2.1,3.5-12.1,3.5-13.8-0.3c-0.6-0.9,0.3-2.9,1.8-7.1
		c2.4-5.9,3.5-7.3,4.7-8.8c1.2-1.2,2.9-2.9,4.1-2.4C1449,45.4,1448.1,48.7,1449.3,55.1z"/>
	<path class="st14" d="M1428.4,192.4c-6.4,2.1-6.9,4.2-14.7,7.6c-15.3,6.8-31.7,6.7-32.1,5c-0.1-0.5,1.2-1.7,8.1-4.2
		c2.1-0.1,6.7-0.7,11.1-4c7.6-5.6,8.3-14.5,8.4-15.9c-1.6,9.8-5.3,14-8.4,15.9c-5.4,3.3-10.8,1.3-27.6,2.2
		c-4.5,0.2-8.2,0.6-10.7,0.9c28.9-10.2,40-23.7,44.6-34.6c4.4-10.3,4.6-22.2,14.1-27c5.7-2.9,14.5-3.2,18.5,1.2
		c6.1,6.7-3.9,18.3,0.1,33.4c2.5,9.6,9.4,16,14.7,20C1448.2,190.9,1438.6,189.1,1428.4,192.4z"/>
	<path class="st14" d="M1437.8,91.9c-2.9,1.2-3.8,1.2-5.6,2.4c-4.1,2.9-6.5,8.8-5,10.6c1.2,1.2,3.2-0.9,9.1-1.2
		c5.6-0.3,7.3,1.2,9.4-0.3c1.5-1.2,1.2-2.6,2.4-7.9c1.5-7.1,3.2-9.7,2.4-10.3C1449,84.2,1446.1,88.9,1437.8,91.9z"/>
</g>
<g>
	<path class="st15" d="M645.7,188.1c0,2.1,20.6,2.1,23.5,11.5c1.5,4.7-2.1,9.1,0.3,11.2c1.8,1.5,6.2,0.6,8.2-1.8
		c2.6-3.2,0.3-7.9,2.6-9.1c1.2-0.6,3.2,0.3,3.5,0.6c3.5,1.8,2.6,6.2,5.6,7.6c1.8,0.9,4.7,0.6,6.2-0.9c2.6-2.4,0-5.9,1.5-9.7
		c2.4-6.8,14.7-7.1,14.7-8.5C711.5,185.4,645.7,185.1,645.7,188.1z"/>
	<path class="st15" d="M722.7,176.3c-14.7,23.5-72.3,22.3-85.8-3.8c-8.8-17.6,3.8-42.9,19.4-55.6c4.4-3.5,15.9-12.9,30.3-10.6
		c9.4,1.5,15.6,7.6,19.7,11.8C719.2,131.3,733.6,158.7,722.7,176.3z"/>
	<path class="st13" d="M711.8,178.7c-18.8,9.4-48.5,9.4-66.1-1.8c-5-2.9-10.9-7.9-13.5-6.2c-1.8,1.2-1.5,5.3-0.6,7.6
		c5.3,15,47,13.2,58.8,12.9c30.6-1.2,35.3-8.8,36.2-10.9c1.2-2.1,2.1-5.9,0.6-7.3C724.7,171,717.7,176,711.8,178.7z"/>
	<path class="st13" d="M679.5,128.4c-0.9,0.3,1.8,8.2,2.9,12.3c1.8,6.2,2.4,6.5,3.2,9.7c2.1,7.6,2.4,14.1,2.4,20.6
		c0.3,9.1-0.9,14.4-0.3,14.4c0.9,0.3,3.2-6.5,4.1-14.1c0,0,1.8-13.8-4.1-28.8c-1.5-4.1-3.2-7.3-4.4-9.1
		C681.8,130.7,680.4,128.4,679.5,128.4z"/>
	<path class="st16" d="M651,104.3c1.5,13.8,15.3,20.3,16.2,20.9c10,4.7,24.4,4.1,33.2-5c10.3-10.6,8.5-27.6-0.6-37.3
		c-0.3-0.3-10-10.3-23.8-8.5C661.2,76.4,649.5,90.2,651,104.3z"/>
	<path class="st16" d="M701.2,94.6c1.8,2.6,10,2.1,12.3-2.1c0.6-1.2,1.2-2.9,0.3-4.4c-1.5-2.4-5.9-3.2-9.1-1.5
		C701.5,88.4,699.8,92.8,701.2,94.6z"/>
	<path class="st16" d="M655.1,95.5c-1.8,2.6-10,2.1-12.3-2.1c-0.6-1.2-1.2-2.9-0.3-4.4c1.5-2.4,5.9-3.2,9.1-1.5
		C654.8,89.3,656.2,93.4,655.1,95.5z"/>
	<path class="st15" d="M713.9,133.1c-1.2-0.6-2.6-2.1-2.6-10.9c0-3.5,0.3-19.7,5.3-20.6c1.8-0.3,2.1,1.2,5.6,2.4
		c5.3,1.8,7.6-0.6,9.4,0.6c4.1,2.9-0.9,22-12.1,27.9C715.9,134.3,714.5,133.7,713.9,133.1z"/>
	<path class="st13" d="M725,100.2c-4.7-0.3-6.8-4.7-9.4-3.8c-1.5,0.3-2.4,2.4-2.4,3.8c0.3,3.5,5.9,5.6,9.1,6.2
		c5,0.9,12.1-0.3,13.5-4.1c0.6-1.2,0.6-3.2-0.6-4.1C733.3,96.6,730,101,725,100.2z"/>
	<path class="st13" d="M695.9,109c-4.4,2.1-8.2-6.5-18.2-7.3c-10.9-1.2-17.3,7.9-21.5,5.3c-5-3.2,2.6-18.2,0-19.4
		c-2.1-1.2-10.6,9.4-13.5,21.8c-2.4,9.4,0.3,12.3,0.9,13.2c1.8,2.1,4.7,3.2,6.8,2.4c1.5-0.6,1.5-2.1,3.2-5.9
		c2.1-4.1,4.4-6.5,4.4-6.5s-9.4,8.8-7.3,15.9c1.5,5.6,9.7,9.1,13.5,7.1c4.1-2.6,2.6-12.6,2.9-12.6s-2.1,11.8,2.9,15.3
		c2.9,2.1,8.8,1.2,11.5-1.8c3.2-3.5,2.1-9.7,2.6-9.7c0.6,0-0.6,6.5,2.6,9.1c2.9,2.6,9.7,1.8,13.2-1.8c5.3-5,3.5-15.3,3.8-15.3
		c0.3,0-1.5,9.1,1.8,10.9c2.6,1.5,8.8-2.4,10.9-7.6c1.2-3.5,0.6-6.5-2.6-14.4c-5-12.6-9.1-22.3-11.8-21.8
		C698.3,86.6,703,106.6,695.9,109z"/>
	<path class="st15" d="M643.9,124.3c1.2,0.6,2.6,2.1,2.6,10.9c0,3.5-0.3,19.7-5.3,20.6c-1.8,0.3-2.1-1.2-5.6-2.4
		c-5.3-1.8-7.6,0.6-9.4-0.6c-4.1-2.9,0.9-22,12.1-27.9C641.8,123.1,643.3,123.7,643.9,124.3z"/>
	<path class="st13" d="M632.7,157.2c4.7,0.3,6.8,4.7,9.4,3.8c1.5-0.3,2.4-2.4,2.4-3.8c-0.3-3.5-5.9-5.6-9.1-6.2
		c-5-0.9-12.1,0.3-13.5,4.1c-0.6,1.2-0.6,3.2,0.6,4.1C624.5,160.7,627.7,156.3,632.7,157.2z"/>
	<path class="st15" d="M641.5,168.7c0,1.5,0,3.2-0.9,3.8c-1.2,0.9-3.2-0.6-4.4-1.8c-1.8-2.1-1.8-4.4-2.1-4.4
		c-0.6,0,1.8,8.5-1.2,10.6c-1.8,1.2-5.6-0.3-7.3-2.6c-1.5-2.4-1.2-5-0.6-9.4c0.6-3.5,0.9-5,2.1-6.2c2.6-2.6,8.8-2.4,12.1,0.9
		C641.5,162.2,641.5,165.4,641.5,168.7z"/>
	<path class="st17" d="M676.2,105.8c-4.7-0.9-7.3-2.6-8.2-1.5c-1.2,1.5,0.3,5.3,2.1,7.6c3.2,4.4,9.7,8.2,14.7,4.7
		c3.5-2.4,5.6-8.2,4.1-10.3C687.4,104,683.9,107.5,676.2,105.8z"/>
	<path class="st13" d="M680.1,99c-3.2,1.5-5-1.2-8.8-0.6c-3.2,0.6-2.9,2.6-7.3,5c-4.4,2.4-7.9,1.8-8.2,2.9c0,1.5,3.8,3.2,6.8,3.8
		c1.5,0.3,8.2,1.8,12.1-1.8c2.4-2.4,1.5-5.9,3.2-6.2c1.8-0.3,2.6,3.5,7.3,6.5c1.5,0.9,5,3.2,8.5,2.1c4.4-1.2,7.1-6.5,5.9-8.2
		c-1.2-1.8-4.7,0.6-8.8-1.5c-3.5-1.8-3.8-5-6.2-5C682.7,96.1,682.4,97.8,680.1,99z"/>
	<path class="st18" d="M680.1,85.2c-0.3,2.4,1.5,4.4,3.5,5c2.4,0.6,5-0.3,5.9-2.1c1.5-2.6-1.5-7.1-4.7-7.1
		C682.7,81.4,680.4,82.8,680.1,85.2z"/>
	<path class="st18" d="M669.2,84c-0.3,2.4,1.5,4.4,3.5,5c2.4,0.6,5-0.3,5.9-2.1c1.5-2.6-1.5-7.1-4.7-7.1
		C671.8,79.9,669.8,81.6,669.2,84z"/>
	<path class="st15" d="M657.7,65.8c6.8-4.7,11.8-7.1,12.1-6.8c0.3,0.6-15.9,10-14.4,14.1c1.2,2.6,8.2,0,25.9,0.9
		c13.2,0.6,21.5,2.4,23.8-1.5c0.9-1.8,0.3-3.5,0-5c-2.4-9.1-14.4-14.7-23.8-16.2c-12.9-2.1-22.9,3.5-24.7,4.7
		c-15,8.5-19.7,25.6-18.2,26.5C639.5,83.4,644.5,75.2,657.7,65.8z"/>
	<path class="st15" d="M673.3,93.7c0.3,1.8,3.2,3.8,5.9,3.2c2.9-0.6,4.7-3.2,4.4-5.9c0-1.2-0.6-2.6-2.1-3.2
		C678.3,86.6,673,90.8,673.3,93.7z"/>
	<path class="st13" d="M708.9,79c-0.6-6.5-15.3-11.8-27.6-12.1c-10.6-0.3-26.2,3.2-28.8,12.1c-0.6,2.1-0.9,5.9,1.2,7.3
		c5,3.2,14.4-12.1,27.6-10.9c10.9,0.9,15.9,12.6,22.6,10C706.5,84.6,708.9,81.6,708.9,79z"/>
	<path class="st13" d="M631.6,82.5c0,2.1,1.2,4.4,3.2,5c2.6,0.6,5.3-2.1,5.6-4.7c0-2.4-2.1-5.3-4.4-5.3
		C633.6,77.5,631.8,80.5,631.6,82.5z"/>
	<path class="st19" d="M675.4,147.8c0.6,1.8,2.6,2.6,4.4,1.8c1.5-0.6,2.1-2.4,1.5-3.8c-0.6-1.2-1.8-2.1-3.2-1.8
		C676.2,144.3,674.8,146.3,675.4,147.8z"/>
	<path class="st19" d="M676.5,157.2c0,2.4,3.5,4.1,5.9,3.2c1.2-0.3,2.1-1.8,2.1-2.9c0-1.8-1.8-3.5-3.8-3.5
		C678.6,154,676.8,155.7,676.5,157.2z"/>
	<path class="st19" d="M677.7,171.6c0,2.4,2.6,4.7,4.7,4.1c1.8-0.3,2.6-2.6,2.6-4.4c0-1.5-0.9-3.2-2.4-3.8
		C680.6,166.9,677.7,169,677.7,171.6z"/>
	<path class="st19" d="M682.1,88.4c0.6,0.6,1.8,0.3,2.4-0.6c0.6-1.2-0.9-2.6-1.5-2.6C682.1,85.2,681.2,87.8,682.1,88.4z"/>
	<path class="st19" d="M676.2,88.4c-0.6,0.6-1.8,0.3-2.4-0.6c-0.6-1.2,0.9-2.6,1.5-2.6C676.2,85.2,677.1,87.8,676.2,88.4z"/>
	<path class="st13" d="M688.3,79c0.6,2.4,7.6,6.5,10.9,5.9c0.9,0,1.8-0.6,1.5-1.8c-0.3-1.8-3.8-4.7-7.1-5.6
		C690.3,76.6,687.7,77.5,688.3,79z"/>
	<path class="st13" d="M670.1,78.4c-0.6,2.4-7.6,6.5-10.9,5.9c-0.9,0-1.8-0.6-1.5-1.8c0.3-1.8,3.8-4.7,7.1-5.6
		C668,76.1,670.9,76.9,670.1,78.4z"/>
	<path class="st15" d="M716.2,88.7c0-1.5,0-3.2,0.9-3.8c1.2-0.9,3.2,0.6,4.4,1.8c1.8,2.1,1.8,4.4,2.1,4.4c0.6,0-1.8-8.5,1.2-10.6
		c1.8-1.2,5.6,0.3,7.3,2.6c1.5,2.4,1.2,5,0.6,9.4c-0.6,3.5-0.9,5-2.1,6.2c-2.6,2.6-8.8,2.4-12.1-0.9
		C715.9,95.2,715.9,91.9,716.2,88.7z"/>
	<path class="st20" d="M669.5,210.7c-0.6,0.9-3.8-0.9-5.3,0.6c-0.9,1.2-0.3,3.5,0.3,4.7c2.4,4.7,10.6,7.1,13.8,4.1
		c1.5-1.2,1.5-3.5,1.5-7.9c0.3-4.4,0.3-6.5-1.2-7.9c-2.9-3.5-10.9-2.1-11.8,0.3C666.2,206.6,670.4,209.2,669.5,210.7z"/>
	<path class="st20" d="M695,208.9c0.6,0.9,3.8-0.9,5.3,0.6c0.9,1.2,0.3,3.5-0.3,4.7c-2.4,4.7-10.6,7.1-13.8,4.1
		c-1.5-1.2-1.5-3.5-1.5-7.9c-0.3-4.4-0.3-6.5,1.2-7.9c2.9-3.5,10.9-2.1,11.8,0.3C698.3,204.8,694.2,207.5,695,208.9z"/>
</g>
<g>
	<path class="st12" d="M118.2,28.1c-6.2,9.4-13.8,11.2-20.9,25c-1.8,3.2-3.8,7.6-2.4,9.1c3.8,3.8,25.9-15.3,29.1-12.1
		c2.1,2.1-5.6,11.5-17.6,31.5C93.8,102.2,90.8,110.4,92,111c1.8,1.2,11.5-15.6,26.5-16.5c1.8,0,5.6-0.3,7.1,2.1
		c2.9,4.4-4.7,14.4-8.5,19.1c-16.5,21.2-33.2,27.3-31.7,32.6c1.5,4.7,15.9,4.4,17.6,4.4c20.3-0.6,22.9-11.5,39.7-14.1
		c21.2-3.2,30.9,12.1,55.3,5.6c1.5-0.3,10.6-2.9,10.6-5.9c0-3.8-15.9-4.1-34.1-14.4c-7.3-4.4-17.6-10.3-17.1-17.3
		c0.6-6.2,8.8-10.9,15.3-12.6c12.3-3.2,22,3.8,23.5,1.8c1.5-2.4-8.8-11.8-18.8-19.4c-17.9-13.8-30.6-18.8-29.7-21.5
		c1.2-4.1,32.3,4.4,33.8,0.3c0.3-1.2-0.9-2.9-20.6-15s-24.1-13.5-28.2-20.3c-5.9-9.4-4.7-19.1-6.5-19.1
		C123.5,0.8,126.7,15.2,118.2,28.1z"/>
	<path class="st13" d="M98.5,52.8c-0.9-1.2,3.8-5,15.6-19.4c5.9-7.3,7.9-10,9.1-13.8c2.6-7.6,1.8-13.8,2.9-13.8
		c1.5-0.3,1.5,7.1,6.2,14.1c2.6,4.1,5,5.6,21.8,16.8c12.3,7.9,18.5,12.1,17.9,12.9c-0.3,0.3-1.2,0-1.8,0c-8.2-1.8-30.6-7.3-37.9-8.2
		C114.4,39.3,100,55.2,98.5,52.8z"/>
	<path class="st13" d="M94.4,104.2c-1.5-1.2,7.6-10,17.1-28.5c2.9-5.9,4.7-10.3,9.1-11.5c4.7-1.2,7.9,2.6,16.5,2.4
		c4.1,0,6.8-0.9,8.2-1.2c16.8-3.5,52.3,26.2,50.6,28.5c-0.9,1.2-8.2-8.2-22.3-8.8s-21.8,8.5-31.7,3.8c-5.3-2.4-4.4-5.6-8.8-7.1
		C118.2,76.9,96.7,106.3,94.4,104.2z"/>
	<path class="st13" d="M93.8,138.9c-0.6-1.2,4.4-3.2,12.9-11.2s8.2-10,14.1-13.8c2.1-1.2,9.1-5.9,18.5-5.9c7.1,0,11.2,2.9,21.8,8.5
		c21.8,12.1,32.9,15.3,32.3,17.1c-0.6,2.1-16.2-1.5-17.6-1.8c-18.5-4.1-23.2-10-33.8-8.5c-4.4,0.6-3.8,1.5-14.7,6.2
		C112.3,136,95,141,93.8,138.9z"/>
	<path class="st14" d="M132,46c1.2-0.6,2.9,1.2,4.1,2.4c1.2,1.5,2.4,2.9,4.7,8.8c1.5,4.1,2.4,6.2,1.8,7.1
		c-1.8,3.8-11.8,3.8-13.8,0.3c-0.9-1.5,0.6-2.6,1.5-8.2C131.4,49.9,130.5,46.6,132,46z"/>
	<path class="st14" d="M127.6,193.9c-0.3-0.6,8.5-1.8,13.2-7.6c9.7-12.9-10-36.2-1.2-45.6c4.1-4.4,12.9-4.1,18.5-1.2
		c9.4,5,5.9,16.2,14.1,27c13.8,18.8,46.2,16.5,45.9,19.7c-0.3,1.5-6.2,2.1-10,2.4c-6.2,0.6-10.9,0-12.6-0.3
		c-13.8-2.1-25.3-6.8-25.3-6.2c-0.3,0.6,14.7,7.1,20.6,13.2c1.8,2.1,3.5,4.7,3.5,4.7c2.6,3.5,4.1,5.6,3.5,6.2
		c-1.2,1.2-11.2-8.8-28.2-14.1c-2.9-0.9-6.5-2.1-11.5-2.6C141.1,187.7,127.9,194.8,127.6,193.9z"/>
	<path class="st14" d="M129.1,86.3c-0.9,0.6,0.9,3.2,2.4,10.3c1.2,5.3,0.9,6.8,2.4,7.9c2.1,1.5,3.8,0,9.4,0.3
		c5.9,0.3,7.9,2.4,9.1,1.2c1.5-1.8-0.9-7.6-5-10.6c-1.8-1.2-2.6-1.2-5.6-2.4C133.5,90.1,130.5,85.4,129.1,86.3z"/>
</g>
<g>
	<path class="st12" d="M1278,28.8c-7,8.8-14.8,9.8-23.2,22.9c-2.1,3.1-4.5,7.2-3.2,8.8c3.4,4.2,27.2-12.7,30.1-9.2
		c1.9,2.2-6.7,10.9-20.6,29.6c-14.5,19.3-18.3,27.2-17.1,27.9c1.6,1.3,12.9-14.4,27.9-13.9c1.8,0.2,5.6,0.2,6.8,2.7
		c2.5,4.7-6.1,13.9-10.3,18.2c-18.4,19.5-35.7,24-34.7,29.5c1,4.8,15.4,5.9,17.1,6.1c20.2,1.3,23.9-9.2,40.9-10.3
		c21.4-1.2,29.6,14.9,54.5,10.8c1.5-0.2,10.8-1.9,11.1-4.8c0.4-3.8-15.4-5.6-32.6-17.6c-6.9-5.1-16.6-11.9-15.3-18.9
		c1.2-6.1,9.8-10,16.4-11.1c12.6-2,21.6,5.9,23.2,4c1.7-2.2-7.7-12.5-16.9-21.1c-16.5-15.5-28.6-21.6-27.5-24.2
		c1.6-4,31.8,7.5,33.6,3.5c0.4-1.1-0.6-3-19.1-16.9c-18.5-13.9-22.7-15.8-26.2-22.9c-5-9.9-2.9-19.5-4.6-19.6
		C1285.9,2.1,1287.7,16.7,1278,28.8z"/>
	<path class="st13" d="M1256.1,51.5c-0.8-1.3,4.3-4.6,17.4-17.8c6.6-6.8,8.9-9.2,10.4-12.9c3.4-7.4,3.1-13.6,4.2-13.5
		c1.5-0.2,0.8,7.2,4.8,14.6c2.2,4.3,4.4,6,20.1,18.8c11.5,9.1,17.3,13.8,16.6,14.6c-0.3,0.3-1.2-0.1-1.8-0.2
		c-8-2.5-29.7-10.2-37-11.8C1273.2,39.6,1257.3,54,1256.1,51.5z"/>
	<path class="st13" d="M1247.1,102.3c-1.4-1.3,8.6-9.2,19.7-26.8c3.5-5.6,5.7-9.8,10.2-10.5c4.8-0.7,7.6,3.4,16.2,3.9
		c4.1,0.4,6.8-0.2,8.3-0.4c17-1.9,49.6,31,47.6,33.2c-1,1.1-7.4-9-21.4-10.9c-14-1.9-22.5,6.4-32,0.8c-5-2.8-3.9-6-8.1-7.9
		C1273.4,77.4,1249.2,104.6,1247.1,102.3z"/>
	<path class="st13" d="M1243.2,136.8c-0.5-1.2,4.7-2.8,13.9-9.9c9.2-7.1,9.1-9.2,15.4-12.4c2.2-1,9.6-5,19-4.1
		c7,0.7,10.8,4,20.8,10.6c20.5,14.1,31.3,18.4,30.6,20.1c-0.8,2-16-3-17.4-3.4c-18-5.9-22.2-12.2-32.8-11.7
		c-4.4,0.2-3.9,1.1-15.2,4.7C1261.9,135.6,1244.1,139,1243.2,136.8z"/>
	<path class="st14" d="M1290.1,48c1.2-0.5,2.8,1.5,3.9,2.7c1,1.6,2.1,3.2,3.8,9.2c1.1,4.2,1.8,6.4,1.1,7.2c-2.1,3.6-12.1,2.7-13.8-1
		c-0.7-1.5,0.8-2.6,2.2-8.1C1289.1,51.7,1288.5,48.4,1290.1,48z"/>
	<path class="st14" d="M1271.6,194.7c-0.2-0.6,8.7-0.9,13.9-6.3c10.9-12-6.5-36.9,3.2-45.5c4.5-4,13.3-2.9,18.5,0.6
		c8.9,5.9,4.3,16.7,11.5,28.3c12,20,44.4,20.8,43.8,24c-0.4,1.4-6.3,1.5-10.2,1.4c-6.2,0-10.8-1-12.6-1.5
		c-13.6-3.4-24.5-9.1-24.6-8.6c-0.3,0.6,14,8.4,19.2,15.1c1.6,2.2,3.1,5,3.1,5c2.3,3.8,3.6,6,2.9,6.5c-1.3,1.1-10.3-9.8-26.7-16.7
		c-2.8-1.2-6.2-2.7-11.2-3.7C1285.6,189.9,1271.8,195.6,1271.6,194.7z"/>
	<path class="st14" d="M1283.3,87.8c-0.9,0.5,0.6,3.3,1.4,10.5c0.7,5.4,0.2,6.8,1.6,8.1c1.9,1.7,3.8,0.4,9.3,1.2
		c5.8,0.9,7.7,3.1,9,2c1.6-1.6-0.1-7.7-4-11c-1.6-1.3-2.5-1.4-5.3-2.9C1287.3,92,1284.8,87,1283.3,87.8z"/>
</g>
</svg>
