<?xml version="1.0" encoding="utf-8"?>
<!-- Generator: Adobe Illustrator 26.0.3, SVG Export Plug-In . SVG Version: 6.00 Build 0)  -->
<svg version="1.1" xmlns="http://www.w3.org/2000/svg" xmlns:xlink="http://www.w3.org/1999/xlink" x="0px" y="0px"
	 viewBox="0 0 100 100" style="enable-background:new 0 0 100 100;" xml:space="preserve">
<style type="text/css">
	.st0{fill:#8C6239;}
	.st1{fill:#925F36;stroke:#6F6F6E;stroke-width:10;stroke-miterlimit:10;}
	.st2{fill:#925F36;stroke:#7E4E24;stroke-width:10;stroke-miterlimit:10;}
	.st3{fill:#925F36;stroke:#996633;stroke-width:10;stroke-miterlimit:10;}
	.st4{fill:#925F36;stroke:#3C3C3B;stroke-width:10;stroke-miterlimit:10;}
	.st5{fill:#925F36;stroke:#CABA9F;stroke-width:10;stroke-miterlimit:10;}
</style>
<g id="Ebene_2">
	<rect class="st0" width="100" height="100"/>
</g>
<g id="Ebene_1">
	<polygon class="st1" points="10.49,11.15 7.74,11.3 6.24,8.98 7.49,6.51 10.24,6.36 11.74,8.68 	"/>
	<polygon class="st1" points="60.94,52.4 58.19,52.55 56.69,50.23 57.94,47.76 60.69,47.61 62.19,49.94 	"/>
	<polygon class="st2" points="35.48,32.14 32.87,31.24 32.35,28.52 34.43,26.71 37.04,27.61 37.56,30.33 	"/>
	<polygon class="st2" points="31.14,70.97 28.39,71.12 26.89,68.8 28.14,66.33 30.89,66.18 32.39,68.5 	"/>
	<polygon class="st2" points="63.21,73.81 60.46,73.95 58.96,71.63 60.21,69.17 62.96,69.02 64.46,71.34 	"/>
	<polygon class="st1" points="11.68,34.07 11.78,34.12 11.78,34.24 11.68,34.3 11.58,34.24 11.58,34.12 	"/>
	<polygon class="st1" points="63.42,32.33 63.38,32.17 63.5,32.05 63.66,32.09 63.7,32.25 63.58,32.37 	"/>
	<polygon class="st1" points="84.94,71.6 84.99,71.76 84.87,71.88 84.71,71.84 84.67,71.68 84.79,71.56 	"/>
	<polygon class="st2" points="14.8,85.48 14.86,85.38 14.97,85.38 15.03,85.48 14.97,85.58 14.86,85.58 	"/>
	<polygon class="st2" points="51.3,13.64 51.16,13.43 51.27,13.19 51.53,13.18 51.67,13.39 51.56,13.63 	"/>
	<polygon class="st2" points="42.17,52.87 41.82,52.79 41.7,52.44 41.94,52.17 42.3,52.24 42.42,52.59 	"/>
	<polygon class="st2" points="81.33,45.67 81.25,46.03 80.91,46.15 80.63,45.9 80.71,45.54 81.05,45.43 	"/>
	<polygon class="st3" points="44.02,38.94 43.96,39.04 43.85,39.04 43.79,38.94 43.85,38.84 43.96,38.84 	"/>
	<polygon class="st3" points="77.92,92.65 77.9,92.65 77.89,92.67 77.9,92.68 77.92,92.68 77.93,92.67 	"/>
	<polygon class="st3" points="34.97,16.64 34.95,16.64 34.94,16.66 34.95,16.68 34.97,16.68 34.97,16.66 	"/>
	<polygon class="st3" points="6.67,45.09 6.65,45.09 6.64,45.11 6.65,45.13 6.67,45.13 6.68,45.11 	"/>
	<polygon class="st3" points="20.35,64.11 20.34,64.11 20.33,64.12 20.34,64.14 20.35,64.14 20.36,64.12 	"/>
	<polygon class="st3" points="67.25,78.1 67.23,78.1 67.22,78.12 67.23,78.14 67.25,78.14 67.26,78.12 	"/>
	<polygon class="st3" points="73.06,59.11 73.04,59.11 73.03,59.12 73.04,59.14 73.06,59.14 73.07,59.12 	"/>
	<polygon class="st3" points="6.61,25.68 6.59,25.68 6.58,25.7 6.59,25.72 6.61,25.72 6.62,25.7 	"/>
	<polygon class="st3" points="33.97,87.68 33.97,87.68 33.97,87.68 33.97,87.68 33.97,87.68 33.98,87.68 	"/>
	<polygon class="st3" points="8.8,81.41 8.79,81.41 8.79,81.41 8.79,81.42 8.8,81.42 8.8,81.41 	"/>
	<polygon class="st2" points="82.13,8.54 82.49,8.61 82.61,8.96 82.37,9.23 82.01,9.16 81.89,8.81 	"/>
	<polygon class="st2" points="10.53,58.09 10.05,58.22 9.71,57.87 9.84,57.39 10.31,57.27 10.66,57.61 	"/>
	<polygon class="st2" points="92.26,64.17 91.86,63.93 91.86,63.47 92.26,63.24 92.66,63.47 92.66,63.93 	"/>
	<polygon class="st2" points="91.37,89.42 90.5,89.32 90.15,88.51 90.68,87.8 91.55,87.9 91.9,88.71 	"/>
	<polygon class="st2" points="93.92,28.03 93.6,28.12 93.37,27.88 93.45,27.57 93.77,27.48 94,27.71 	"/>
	<polygon class="st1" points="61.92,6.1 61.51,6.13 61.28,5.78 61.46,5.4 61.88,5.38 62.11,5.72 	"/>
	<polygon class="st1" points="56.26,92.44 55.99,92.68 55.64,92.57 55.57,92.21 55.84,91.96 56.19,92.08 	"/>
	<polygon class="st1" points="90.57,38.94 90.39,39.24 90.05,39.24 89.87,38.94 90.05,38.64 90.39,38.64 	"/>
	<polygon class="st4" points="33.05,40.68 32.33,40.53 32.1,39.84 32.59,39.29 33.3,39.44 33.53,40.13 	"/>
	<polygon class="st4" points="5.8,67.73 5.9,67.79 5.89,67.91 5.79,67.96 5.69,67.9 5.7,67.78 	"/>
	<polygon class="st4" points="72.77,39.06 71.66,39.36 70.86,38.54 71.15,37.43 72.26,37.14 73.06,37.95 	"/>
	<polygon class="st4" points="5.1,94.41 5,94.35 5,94.24 5.1,94.18 5.2,94.24 5.2,94.35 	"/>
	<polygon class="st4" points="29.01,5.05 29.38,5.8 28.91,6.5 28.08,6.45 27.71,5.7 28.18,5 	"/>
	<polygon class="st4" points="93.64,6.38 93.4,7.04 92.7,7.16 92.26,6.61 92.5,5.95 93.2,5.84 	"/>
	<polygon class="st5" points="42.87,94.3 42.46,95 41.65,95 41.25,94.3 41.65,93.59 42.46,93.59 	"/>
	<polygon class="st5" points="88.94,55.28 85.7,55.81 83.62,53.26 84.78,50.17 88.02,49.64 90.1,52.19 	"/>
	<polygon class="st5" points="42.44,59.23 41.94,58.94 41.94,58.36 42.44,58.07 42.94,58.36 42.94,58.94 	"/>
	<polygon class="st5" points="39.17,5.75 38.88,6.25 38.3,6.25 38.02,5.75 38.3,5.25 38.88,5.25 	"/>
	<polygon class="st5" points="85.02,29.42 83.33,29.11 82.76,27.49 83.87,26.18 85.56,26.48 86.13,28.11 	"/>
	<polygon class="st5" points="21.25,93.43 20.45,92.97 20.45,92.04 21.25,91.58 22.05,92.04 22.05,92.97 	"/>
	<polygon class="st2" points="46.89,83.32 45.91,83.4 45.35,82.59 45.77,81.7 46.75,81.62 47.31,82.43 	"/>
	<polygon class="st2" points="69.32,8.88 69.03,9.39 68.45,9.39 68.16,8.88 68.45,8.38 69.03,8.38 	"/>
</g>
</svg>
