<?xml version="1.0" encoding="utf-8"?>
<!-- Generator: Adobe Illustrator 26.0.3, SVG Export Plug-In . SVG Version: 6.00 Build 0)  -->
<svg version="1.1" xmlns="http://www.w3.org/2000/svg" xmlns:xlink="http://www.w3.org/1999/xlink" x="0px" y="0px"
	 viewBox="0 0 100 100" style="enable-background:new 0 0 100 100;" xml:space="preserve">
<style type="text/css">
	.st0{fill:url(#SVGID_1_);}
	.st1{fill:#8C6239;}
	.st2{fill:#925F36;stroke:#7E4E24;stroke-width:10;stroke-miterlimit:10;}
	.st3{fill:#925F36;stroke:#6F6F6E;stroke-width:10;stroke-miterlimit:10;}
	.st4{fill:#925F36;stroke:#996633;stroke-width:10;stroke-miterlimit:10;}
	.st5{fill:#925F36;stroke:#3C3C3B;stroke-width:10;stroke-miterlimit:10;}
	.st6{fill:#925F36;stroke:#CABA9F;stroke-width:10;stroke-miterlimit:10;}
</style>
<g id="Ebene_1">
	<linearGradient id="SVGID_1_" gradientUnits="userSpaceOnUse" x1="50.1068" y1="28.4554" x2="49.6581" y2="-30.176">
		<stop  offset="1.246007e-07" style="stop-color:#6EC9EC"/>
		<stop  offset="0.0849" style="stop-color:#69C8EC"/>
		<stop  offset="0.1849" style="stop-color:#5BC4EB"/>
		<stop  offset="0.2925" style="stop-color:#43BDE9"/>
		<stop  offset="0.4047" style="stop-color:#22B4E7"/>
		<stop  offset="0.4929" style="stop-color:#03ACE5"/>
	</linearGradient>
	<rect class="st0" width="100" height="29"/>
	<rect y="29" class="st1" width="100" height="71"/>
</g>
<g id="Ebene_2">
	<polygon class="st2" points="43.24,85.35 40.32,84.4 39.73,81.56 42.07,79.67 45,80.62 45.58,83.46 	"/>
	<polygon class="st3" points="7.51,86.36 7.62,86.42 7.62,86.54 7.51,86.6 7.4,86.54 7.4,86.42 	"/>
	<polygon class="st3" points="79.65,90.54 79.6,90.37 79.73,90.25 79.91,90.3 79.95,90.46 79.82,90.58 	"/>
	<polygon class="st2" points="52.02,65.03 51.86,64.8 51.99,64.56 52.28,64.54 52.44,64.77 52.31,65.01 	"/>
	<polygon class="st2" points="94.76,35.48 94.68,35.85 94.29,35.98 93.98,35.72 94.06,35.35 94.45,35.22 	"/>
	<polygon class="st4" points="58.84,92.45 58.78,92.55 58.65,92.55 58.59,92.45 58.65,92.34 58.78,92.34 	"/>
	<polygon class="st4" points="59.73,72.52 59.7,72.52 59.69,72.54 59.7,72.56 59.73,72.56 59.74,72.54 	"/>
	<polygon class="st4" points="33.67,68.16 33.65,68.16 33.64,68.18 33.65,68.19 33.67,68.19 33.68,68.18 	"/>
	<polygon class="st4" points="94.29,83.01 94.27,83.01 94.26,83.02 94.27,83.04 94.29,83.04 94.3,83.02 	"/>
	<polygon class="st4" points="6.81,82.83 6.79,82.83 6.78,82.84 6.79,82.86 6.81,82.86 6.82,82.84 	"/>
	<polygon class="st4" points="13.23,94.83 13.21,94.83 13.2,94.84 13.21,94.86 13.23,94.86 13.24,94.84 	"/>
	<polygon class="st2" points="80.67,49.69 81.07,49.77 81.2,50.13 80.93,50.42 80.53,50.34 80.4,49.98 	"/>
	<polygon class="st2" points="43.11,56.42 42.77,56.24 42.77,55.87 43.11,55.69 43.45,55.87 43.45,56.24 	"/>
	<polygon class="st3" points="71.96,35.15 71.49,35.18 71.23,34.81 71.44,34.42 71.91,34.39 72.17,34.76 	"/>
	<polygon class="st3" points="67.2,69.15 67.22,68.88 67.48,68.75 67.72,68.9 67.7,69.17 67.45,69.3 	"/>
	<polygon class="st3" points="22.43,78.39 21.64,78.94 20.73,78.58 20.62,77.66 21.41,77.11 22.32,77.47 	"/>
	<polygon class="st3" points="53.64,47.81 53.53,47.75 53.53,47.63 53.64,47.57 53.75,47.63 53.75,47.75 	"/>
	<polygon class="st5" points="93.21,61.54 93.42,61.23 93.81,61.25 93.99,61.58 93.78,61.88 93.39,61.86 	"/>
	<polygon class="st5" points="37.52,94.27 36.71,94.11 36.45,93.39 37,92.81 37.8,92.97 38.06,93.69 	"/>
	<polygon class="st5" points="26.97,56.06 27.39,56.84 26.87,57.57 25.94,57.51 25.52,56.73 26.04,56 	"/>
	<polygon class="st6" points="84.83,78.63 84.6,78.51 84.6,78.27 84.83,78.15 85.05,78.27 85.05,78.51 	"/>
	<polygon class="st6" points="6.01,68.33 6.49,68.03 7.01,68.27 7.04,68.81 6.56,69.11 6.04,68.87 	"/>
	<polygon class="st6" points="38.39,35.78 38.07,36.31 37.42,36.31 37.1,35.78 37.42,35.26 38.07,35.26 	"/>
	<polygon class="st6" points="80.46,41.18 79.56,40.69 79.56,39.72 80.46,39.24 81.35,39.72 81.35,40.69 	"/>
	<polygon class="st6" points="13.07,41.3 9.21,42.44 6.23,39.89 7.1,36.21 10.95,35.06 13.93,37.61 	"/>
	<polygon class="st6" points="71.91,50.51 70.01,50.19 69.37,48.49 70.62,47.12 72.51,47.44 73.16,49.14 	"/>
	<polygon class="st2" points="71.66,86.75 70.58,87.29 69.54,86.68 69.59,85.54 70.67,85 71.7,85.61 	"/>
	<polygon class="st2" points="12.22,47.86 11.42,49.09 9.88,49.05 9.15,47.79 9.95,46.57 11.48,46.6 	"/>
	<polygon class="st2" points="92.62,93.69 92.17,92.75 92.82,91.92 93.91,92.03 94.36,92.97 93.71,93.8 	"/>
	<polygon class="st2" points="46.26,37.06 45.94,37.58 45.29,37.58 44.97,37.06 45.29,36.53 45.94,36.53 	"/>
</g>
</svg>
