<?xml version="1.0" encoding="utf-8"?>
<!-- Generator: Adobe Illustrator 26.0.3, SVG Export Plug-In . SVG Version: 6.00 Build 0)  -->
<svg version="1.1" id="Ebene_1" xmlns="http://www.w3.org/2000/svg" xmlns:xlink="http://www.w3.org/1999/xlink" x="0px" y="0px"
	 viewBox="0 0 100 100" style="enable-background:new 0 0 100 100;" xml:space="preserve">
<style type="text/css">
	.st0{fill:#8A3C8F;stroke:#000000;stroke-width:2;stroke-miterlimit:10;}
	.st1{fill:#9F8769;stroke:#000000;stroke-width:0.5;stroke-miterlimit:10;}
	.st2{fill:#DB8F00;stroke:#000000;stroke-width:0.5;stroke-miterlimit:10;}
	.st3{fill:#DB6500;stroke:#000000;stroke-width:0.5;stroke-miterlimit:10;}
	.st4{fill:#C78F55;stroke:#000000;stroke-width:0.5;stroke-miterlimit:10;}
	.st5{fill:#493127;stroke:#000000;stroke-width:0.25;stroke-miterlimit:10;}
	.st6{fill:#5D4135;stroke:#000000;stroke-width:0.25;stroke-miterlimit:10;}
	.st7{fill:#E41C1C;stroke:#000000;stroke-miterlimit:10;}
	.st8{fill:#FF5F64;stroke:#000000;stroke-width:0.5;stroke-miterlimit:10;}
	.st9{fill:#FFFFFF;stroke:#000000;stroke-width:0.75;stroke-miterlimit:10;}
</style>
<g id="Ebene_1_00000009555231547046583080000011892253992037278349_">
	<g id="Ebene_2_00000037695081456361326870000000537167486581588369_">
	</g>
	<g id="Ebene_1_00000061445211855329728190000003209767103334527892_">
		<polygon class="st0" points="8,25.8 50,1.6 92,25.8 92,74.3 50,98.6 8,74.3 		"/>
	</g>
	<path class="st1" d="M62.1,86.1"/>
	<path class="st2" d="M36.8,13.4c-2.2-1-4,2.5-10.8,6.2c-7,3.8-10.2,3-12.7,6.7c-1.9,2.8-2.6,6.9-1,8.3c2.2,1.9,8.1-1,10.8-2.7
		c4.3-2.7,4-4.5,8-6.4s5.9-0.8,7.4-2.7C40.6,20.2,39.4,14.6,36.8,13.4z"/>
	<path class="st2" d="M55.2,34.2c-2.7-1.7-8.2,0.9-11,4.7c-4.4,6.1-1.9,15.6,0.4,16c2.4,0.4,4.8-9,7.3-8.6
		c2.9,0.5,0.4,14.3,5.6,16.6c3.9,1.7,9.6-4,10.4-4.7c4.2-4.2,7.3-11.7,4.7-14.8c-2.9-3.5-11.1,1.1-14.8-3.3
		C55.9,37.8,57.1,35.4,55.2,34.2z"/>
	<path class="st2" d="M60.4,11c-4-0.5-10.3,7.1-8.9,12.4c1.5,5.6,11,7.6,10.5,11.9c-0.2,1.3-1.2,1.9-0.7,2.7c0.7,1.3,4-0.2,8.9,0.2
		c5.2,0.4,6.8,2.5,8.4,1.3c1.9-1.4,2-5.9,0-8.7c-2.5-3.5-6.3-1.8-9.5-5.5c-2.1-2.5-0.9-4-3.6-8.6C64,13.9,62.5,11.3,60.4,11z"/>
	<path class="st2" d="M14,70.7c-0.7,3.5,7.7,9.7,16.6,11.6c5.6,1.2,8.7,0,11.7,2.8c3.2,3,2.3,6.7,4.9,7.6c3,1,8-2.5,9.3-7.1
		c1.4-5-1.8-10.8-5.8-12.2c-5.4-1.8-10,5.2-15,2.8c-2.3-1.1-1.5-2.8-4.9-5.5c-0.9-0.7-5.7-4.6-11.6-3.3C18.1,67.8,14.4,68.6,14,70.7
		z"/>
	<path class="st3" d="M13.1,38.2c1.1-1.5,2.9-2,6.5-2.8c3.4-0.8,5.8-1.4,7.1-0.2c1.2,1.1,0.9,3.2,0.4,6.4C27,43,25.6,51.9,22.7,52.1
		c-1.9,0.1-2.8-3.8-4.1-3.6c-2.5,0.4-0.9,14.1-4.3,15c-1.3,0.3-3.2-1.3-4-3.1c-1.6-3.6,2.1-5.9,2.7-12.4
		C13.4,42.6,11.3,40.6,13.1,38.2z"/>
	<path class="st4" d="M35,27.9c-2.4-0.4-4.8,1.2-5.5,3.4c0,0.1-0.7,2.3,0.6,3.8c2.1,2.5,8.1,1.5,9-1.3C39.9,31.8,38.1,28.4,35,27.9z
		"/>
	<path class="st2" d="M71.5,20.7c0.2,1.8,0.3,2.6,0.7,3.3c1.1,1.8,3.6,2.1,7.3,2.5c2.9,0.3,5.1,0.6,5.3-0.1c0.3-0.9-2.4-2-7.8-6.5
		c-3.1-2.5-4.6-4-5.3-3.6C70.9,16.6,71.2,18.3,71.5,20.7z"/>
	<path class="st3" d="M76.5,57.8c-0.5-1.3-1.2-3.4-1.5-5.9c-0.1-1-1-8.5,1.5-9.5c1.4-0.5,3.2,1,3.8,1.6c1.3,1.1,3,3.3,3.8,8.9
		c0.9,6,0.1,11.7-0.6,11.7c-1.1,0-2.6-10.9-3.6-10.8c-0.6,0.1-0.2,3.7-1.8,4.3C77.7,58.4,77,58.1,76.5,57.8z"/>
	<path class="st3" d="M46.7,6.4c-3.7,2.8-5.6,4.1-5.9,4.9c-1.7,3.8,2.5,6.8,0.6,11.4c-0.7,1.8-1.6,1.9-1.9,3.7
		c-0.4,2.2,0.1,5.3,2.4,7c3.5,2.5,9.2,0,10.1-2.8c0.7-2.3-2.3-3.3-2.8-7.1c-0.7-5.2,4.4-7,4.2-13.5c-0.1-2-0.7-5.1-2.4-5.6
		C50.1,4.2,49.4,4.5,46.7,6.4z"/>
	<path class="st3" d="M29.6,38.6c0.4-0.4,2-0.6,5.2-1c3.5-0.4,3.8-0.4,4.2-0.2c1.3,0.9,0.6,3.1,0.4,8c-0.2,5.3-0.3,8,1.1,9.5
		c2.2,2.2,6.3,0.6,6.9,2.2c0.5,1.4-2.1,3.5-2.3,3.7c-3.4,2.7-9.2,3.3-12,0.7c-1.7-1.6-1.2-3.5-2.8-4c-1.7-0.5-2.6,1.4-5.6,1.8
		c-2.3,0.3-5.4-0.5-5.9-2.2c-0.3-1,0.2-2.2,0.9-3c1.4-1.4,3-0.6,5.3-1.5c2.5-0.9,4.6-3.4,5.2-5.8C31,43,28,40.3,29.6,38.6z"/>
	<path class="st4" d="M50.3,61c-5.2-0.7-11.5,8.3-9.9,10.7c1.3,2,7.4-2.4,12.4,0.9c3,1.9,2.9,4.8,5.3,5.2c2.8,0.4,5.6-3.2,6.8-5.6
		c1.2-2.6,2.1-6.8,0.3-8.2c-1.8-1.3-4.1,1.8-8.2,1C53.5,64.3,53.1,61.3,50.3,61z"/>
	<path class="st4" d="M60.8,80.5c-0.2,0.3-2.2,2.7-1.5,5.5c0.3,1.2,1.3,3,2.8,3.3c0.9,0.1,1.8-0.3,5-3.8c3.3-3.6,4.9-5.4,4.6-6.2
		C71,77.3,64,76.8,60.8,80.5z"/>
	<path class="st3" d="M69.1,65.4c-0.2-0.8-0.5-2.6,0.3-4.6c0.3-0.8,1.2-3.1,2.7-3.3c1.5-0.1,2.1,2.3,5.8,5.2c1,0.8,1.8,1.2,2.7,1.8
		c4.6,2.8,6.5,2.4,7.4,4.2c1.1,2-0.3,4.6-0.4,4.9c-0.5,0.8-1.2,1.7-5.2,3.7c-3.9,1.9-5.8,2.9-7.1,2.7c-3.6-0.6-5.7-4.9-6.4-7.7
		C68.1,69.2,68.7,66.7,69.1,65.4z"/>
	<path class="st4" d="M84.2,31c-0.6,0.4-2,1.7-1.3,8.3c0.6,6.7,3,14.9,4.6,14.7c1.3-0.2,2.2-6,1.9-10.4c-0.2-4.1-1.4-6.7,0.2-9.8
		c0.4-0.7,0.9-1.4,0.6-2.1C89.6,30.4,86.1,29.7,84.2,31z"/>
	<path class="st3" d="M19.3,60.4c1.3-0.5,1.7,0.2,4.6,0.3c3.8,0.2,4.3-0.9,6.1-0.2c2.1,0.8,1.7,2.5,4.3,3.8c2.2,1.2,3.3,0.4,4.3,1.5
		c1.7,1.9,0.6,6.9-1.3,7.4c-2.5,0.7-4.1-6.9-10.2-8.4c-5.3-1.4-9.6,2.8-10.8,1.2C15.3,64.8,16.9,61.3,19.3,60.4z"/>
	<path class="st5" d="M44.2,11.2c-1.1,0.2-1.9,0.9-2.1,1.9c-0.3,1.4,1,2.6,1.2,2.5c0.2-0.1-0.5-1.3,0.1-2.1c0.3-0.5,0.8-0.4,1-0.9
		C44.7,12.1,44.5,11.6,44.2,11.2z"/>
	<path class="st5" d="M47.1,8.3c-0.2,0.3-0.5,0.6-0.4,1c0,0.6,0.7,1.1,1,1.3c0.8,0.5,2.4,1,3,0.2c0.4-0.4,0.4-1.3,0-1.6
		c-0.6-0.4-1.8,0.6-2.2,0.3c-0.3-0.4,1.3-2,1-2.4C49.3,6.8,47.9,7.3,47.1,8.3z"/>
	<path class="st5" d="M46.6,15.7c-0.8,0.1-1.3,1.2-1.3,2.1c0.1,0.9,0.8,2,1.6,1.9c0.8-0.1,1.5-1.2,1.3-2.2
		C48.2,16.6,47.4,15.6,46.6,15.7z"/>
	<path class="st5" d="M41.9,26c-0.5,0.5-0.5,1.2-0.5,1.8c0,0.8,0.3,2.1,0.8,2.2c0.4,0,1-0.6,1-1.2c0-0.6-0.8-0.7-0.9-1.3
		c-0.1-0.9,1.4-1.6,1.3-1.9C43.4,25.4,42.5,25.5,41.9,26z"/>
	<path class="st5" d="M46.9,27.2c-0.3-0.1-1.5,1-1.3,2.3c0.1,0.6,0.5,1,0.9,1.3c0.4,0.4,1.3,1.2,2.2,0.8c0.8-0.3,1.2-1.5,0.9-2
		c-0.5-0.6-2.1,0.3-2.7-0.4C46.4,28.5,47.1,27.3,46.9,27.2z"/>
	<path class="st5" d="M44.7,21.6c-0.1,0.2,0.2,0.3,0.4,0.8c0.2,0.5,0.2,1.1,0.1,1.5c-0.2,0.9-1,1-0.9,1.4c0.1,0.5,1.5,0.8,2.3,0.2
		c0.6-0.5,0.6-1.3,0.6-1.9c0-0.5,0-1.6-0.7-2.1C45.9,21.1,44.9,21.2,44.7,21.6z"/>
	<path class="st5" d="M34.9,16.3c-0.1,0-1,0.3-1.3,1.1c-0.2,0.8,0.2,1.7,0.7,1.8c0.4,0.1,0.5-0.7,1.3-1c0.9-0.4,1.6,0,1.8-0.3
		s-0.4-1.1-1-1.4C36.2,16.4,35.6,16.1,34.9,16.3z"/>
	<path class="st5" d="M14.9,26.2c-0.7,0.3-0.9,1.1-1.3,2.2c-0.2,0.9-0.5,1.7-0.1,1.9c0.4,0.3,1.8-0.3,2.1-1.3c0.2-0.6-0.1-1,0.1-1.6
		c0.3-0.7,1.2-0.8,1.1-1C16.8,26.2,15.7,25.8,14.9,26.2z"/>
	<path class="st5" d="M14.1,32.4c0.1,0.5,0.7,0.8,1.1,0.8c0.9,0.1,1.9-0.7,1.8-1.3c-0.1-0.5-0.9-1-1.6-0.9
		C14.8,31.1,14,31.8,14.1,32.4z"/>
	<path class="st5" d="M18.5,27.2c-0.1,0.1-1.2,1-0.8,1.9c0.2,0.4,0.6,0.7,1,0.7c0.8,0.1,1.5-0.7,1.7-1.4c0.1-0.5,0-1.4-0.5-1.6
		C19.4,26.5,18.7,27,18.5,27.2z"/>
	<path class="st5" d="M26.6,20.8c-0.2-0.2-0.8,0.3-2.1,0.9c-1.5,0.6-2.3,0.6-2.3,0.9c0,0.4,1,0.8,1.9,0.8c1.4,0,2.2-1.3,2.2-1.3
		C26.5,21.7,26.8,21,26.6,20.8z"/>
	<path class="st5" d="M31.7,21.9c-0.4-0.1-0.6,0.1-2.3,1.6c-1.5,1.3-1.6,1.5-1.6,1.6c0,0.1,0.2,0.2,1.7-0.2c2.1-0.5,3.2-0.8,3.3-1.4
		C33,22.8,32.4,22,31.7,21.9z"/>
	<path class="st5" d="M23.6,27.9c0,0.1-0.7,0.9-0.4,1.2c0.2,0.3,1.3,0,2-0.5c0.7-0.5,1.4-1.5,1.1-1.9C25.9,26.4,24.4,26.9,23.6,27.9
		z"/>
	<path class="st5" d="M31,40.2c-0.4,0.5-0.6,1.3-0.1,2c0.5,0.7,1.5,0.9,1.9,0.5c0.3-0.3,0.1-0.7,0.4-1.5c0.3-0.7,0.8-0.8,0.7-1
		C33.9,39.7,31.9,39.2,31,40.2z"/>
	<path class="st5" d="M36.4,44.3c-0.6-0.2-1.9,1.3-1.6,2.4c0.1,0.4,0.5,0.9,0.9,0.9c0.6,0,1-0.8,1.2-1.3
		C37.2,45.4,36.9,44.4,36.4,44.3z"/>
	<path class="st5" d="M21.2,55.3c-0.6,0.2-1,1-0.7,1.6c0.4,1,2.6,1,3.6,0.8c1.2-0.2,2.3-0.7,2.3-0.9c0-0.2-1.4,0.2-2.9-0.4
		C22.2,56,21.8,55.1,21.2,55.3z"/>
	<path class="st5" d="M26.2,54.2c0.1,0.4,1.1,0.7,1.9,0.5c2.1-0.3,3.3-3.3,3-3.6c-0.1-0.1-0.3,0.1-2.2,1.3
		C26.8,53.6,26.2,53.8,26.2,54.2z"/>
	<path class="st5" d="M36.1,51c-1-0.2-1.9,0.8-1.8,1.6c0,0.5,0.4,1,0.8,1.2c0.8,0.4,2.2,0,2.4-1C37.6,52.1,37,51.2,36.1,51z"/>
	<path class="st5" d="M32.5,56.8c-0.3,0.1-0.3,2,0.5,2.4c0.8,0.4,1.7-0.9,2.9-0.4c0.8,0.3,1,1.2,1.5,1.1c0.4-0.1,0.8-1,0.6-1.6
		c-0.3-1-1.8-1.5-2.8-1.2c-0.8,0.2-0.9,0.9-1.5,0.8C33,57.8,32.7,56.8,32.5,56.8z"/>
	<path class="st5" d="M40.3,57c-0.2,0-0.8,1-0.5,1.7c0.3,0.7,1.5,0.7,2.2,0.7c1.5,0,3.2-0.4,3.2-0.9c0-0.4-1.4-0.9-2.7-0.7
		c-1,0.2-1.6,0.7-2,0.4C40.1,58,40.4,57.1,40.3,57z"/>
	<path class="st5" d="M42.7,68.1c-1.1,0.7-1.6,2.3-1.2,2.7c0.3,0.3,0.9-0.5,2.4-0.6c1.2-0.1,1.6,0.3,2.2-0.1
		c0.8-0.4,1.1-1.6,0.9-1.8c-0.3-0.3-1.7,1.1-2.4,0.7c-0.4-0.3-0.2-0.9-0.7-1.2C43.5,67.5,42.8,68,42.7,68.1z"/>
	<path class="st5" d="M45.8,63.4c-0.7,0.3-1.1,1.3-0.8,1.9c0.2,0.4,0.8,0.4,1.4,0.4c0.5,0,1.7-0.1,2.7-1c0.5-0.5,1-1.2,0.9-1.4
		c-0.2-0.2-0.9,0.6-2.2,0.6C46.8,63.8,46.5,63.2,45.8,63.4z"/>
	<path class="st5" d="M58,72.1c-0.7,0.4-1,1.6-0.5,2.4c0.5,0.7,1.6,0.7,2.2,0.5c0.7-0.2,1.5-0.9,1.5-1.6C61,72.4,59.1,71.3,58,72.1z
		"/>
	<path class="st5" d="M60.2,69.1c-0.3-0.1-1.3-0.3-1.6,0.1c-0.3,0.4,0.2,1.4,0.9,1.9c0.8,0.6,2,0.8,2.7,0.3c0.6-0.5,0.5-1.3,1-1.5
		c0.6-0.2,1,0.5,1.4,0.4c0.7-0.2,1.1-1.9,0.3-2.7c-0.4-0.5-1.1-0.4-2-0.4c-0.7,0-1.1,0-1.4,0.3c-0.6,0.6,0,1.7-0.4,1.9
		C60.9,69.4,60.8,69.2,60.2,69.1z"/>
	<path class="st5" d="M51.8,66.3c-0.8,0.7-1.1,1.1-1.1,1.6c0,0.7,0.6,1.4,1.1,1.4c0.7,0,0.9-1.2,1.6-1.1c0.6,0.1,0.7,1.1,1.1,1
		c0.3,0,0.7-0.8,0.5-1.3c-0.2-0.6-0.8-0.5-1.2-1.1c-0.4-0.7,0-1.4-0.3-1.6C53.2,65,52.4,65.8,51.8,66.3z"/>
	<path class="st5" d="M53.7,70.6c-0.2,0.4,0.1,0.8,0.3,1c0.5,0.5,1.3,0.5,1.8,0.2c0.5-0.3,0.8-1,0.6-1.4
		C56.1,69.7,54,69.8,53.7,70.6z"/>
	<path class="st5" d="M56.5,66.8c-0.1,0.3,0.5,0.9,1.1,1c1,0.1,1.8-1.2,1.6-1.5c-0.1-0.1-0.3,0-1.6,0.2
		C56.8,66.7,56.6,66.7,56.5,66.8z"/>
	<path class="st5" d="M60.7,84.1c-0.3,0.2-0.4,1.1,0,1.6c0.4,0.6,1.1,0.7,1.3,0.7c0.6,0,1.4-0.2,1.4-0.6c0-0.1,0-0.2-1.1-1
		C61.4,84.2,61,83.9,60.7,84.1z"/>
	<path class="st5" d="M63.2,81c-0.6,0.3-1.6,1.1-1.4,1.6c0.1,0.3,0.8,0.5,1.3,0.4c0.8-0.2,1-0.9,1.6-0.9c0.6,0,0.8,0.9,1.3,0.9
		c0.4-0.1,0.9-1.1,0.5-1.8c-0.3-0.5-1-0.6-1.4-0.6C64.2,80.5,63.5,80.9,63.2,81z"/>
	<path class="st5" d="M67.8,79.5c-0.2,0.2,0.2,0.8,0.7,1.1c0.8,0.4,1.8,0,1.8-0.3c0-0.2-0.3-0.3-1-0.5C68.7,79.5,68,79.3,67.8,79.5z
		"/>
	<path class="st5" d="M76.9,51"/>
	<path class="st5" d="M76.7,53.5c-0.2,1.1,0.2,2.3,0.6,2.4c0.4,0,0.8-1.1,1-1.6c0.3-0.8,0.7-2.5,0.2-2.7
		C78.1,51.3,77,52.3,76.7,53.5z"/>
	<path class="st5" d="M75.9,46.2c-0.5,0.2-0.7,1.4-0.3,1.8c0.3,0.3,0.7,0,2,0.2c0.6,0.1,0.9,0.2,1.1,0.1c0.4-0.3,0.5-1.1,0.2-1.4
		c-0.3-0.3-0.6,0-1.4-0.2C76.6,46.6,76.3,46.1,75.9,46.2z"/>
	<path class="st5" d="M77.3,43.3c-0.3,0.2-0.3,1-0.1,1.5c0.2,0.3,0.6,0.8,1.2,0.7c0.4-0.1,0.8-0.4,0.8-0.8
		C79.3,43.8,77.9,42.9,77.3,43.3z"/>
	<path class="st5" d="M83.6,61.2c-0.3,0.1-0.9-1.7-1.2-2.9c-0.2-1-0.6-2.5,0-2.9c0.3-0.2,1,0,1.3,0.4c0.4,0.5,0.3,1,0.2,2.6
		C83.7,60.6,83.7,61.2,83.6,61.2z"/>
	<path class="st5" d="M80.9,49.8c-0.3,0.3-0.4,1.1,0,1.6c0.3,0.4,0.8,0.6,1.3,0.4c0.6-0.2,0.8-0.8,0.7-1.3
		C82.8,49.7,81.4,49.3,80.9,49.8z"/>
	<path class="st5" d="M73.8,21.2c-0.2,0.8,0.3,1.5,0.4,1.8c0.7,1,1.8,1.6,3,1.6c0.9,0,1.9-0.3,1.9-0.7c0-0.1-0.1-0.3-2.2-1.3
		c-1.2-0.6-1.4-0.7-1.7-1c-0.5-0.6-0.6-1.2-0.9-1.2C74.2,20.4,73.9,20.9,73.8,21.2z"/>
	<path class="st6" d="M43.9,45.4c0.2,0.6,0.3,1.4,0.1,2.2c-0.3,1.1-1.1,1.7-0.9,2c0.2,0.3,1.1,0.2,1.6-0.4c0.5-0.5,0.2-1,0.8-2.1
		c0.4-0.7,0.8-0.9,0.7-1.2C46.2,45.7,45.7,45.4,43.9,45.4z"/>
	<path class="st6" d="M45.3,41c-0.2,0.4-0.5,1-0.2,1.3c0.3,0.4,1.2,0.4,1.8,0c0.7-0.5,0.3-1.6,0.8-1.8c0.6-0.2,1.4,1.3,2,1
		c0.5-0.2,0.7-1.4,0.2-2.2c-0.5-0.8-1.5-0.8-1.7-0.8C46.4,38.6,45.5,40.5,45.3,41z"/>
	<path class="st6" d="M54.7,43.6c-0.4,0-0.9,1-1,2c0,0.4-0.1,1.6,0.5,1.9c0.5,0.3,1.3-0.1,1.7-0.4c0.8-0.7,0.6-1.4,1.1-1.7
		c1-0.5,2.5,1.7,3.4,1.3c0.6-0.3,0.8-2,0-2.9c-0.6-0.6-1.5-0.7-2.2-0.6c-1.5,0.3-2.1,2-2.7,1.8C55,44.8,55.1,43.7,54.7,43.6z"/>
	<path class="st6" d="M55.4,53.1c-1.2,1.2,0.7,5.4,1.6,5.3c0.8-0.1,0.7-3.9,1.4-3.9c0.5,0,0.6,2,2.1,2.7c0.9,0.4,2.3,0.3,3-0.6
		c0.7-1.1,0-2.8-0.6-2.9c-0.4-0.1-0.7,0.7-1.2,0.6c-0.5-0.1-0.6-0.8-1.6-2.3c-0.7-1.2-1-1.3-1.1-1.3c-0.5,0-0.5,1-1.5,1.7
		C56.6,53.1,55.9,52.6,55.4,53.1z"/>
	<path class="st6" d="M65.1,47.4c-0.7,0.3-1.6,1-1.5,1.7c0.2,0.8,1.7,1,1.9,1c0.4,0,1.2,0.1,1.8-0.4c0.5-0.5,0.6-1.4,0.2-1.9
		C66.9,47,65.7,47.2,65.1,47.4z"/>
	<path class="st6" d="M66.2,44.6c0.1,0.3,0.8,0.6,1.4,0.5c0.7-0.1,0.8-0.7,1.2-0.6c0.5,0.1,0.8,1,0.9,1.7c0.1,1.1-0.5,1.7-0.2,2
		c0.2,0.2,0.8,0.2,1.2-0.1c0.7-0.6-0.1-1.9,0.6-2.4c0.3-0.2,0.6,0,0.8-0.3c0.3-0.4-0.1-1.5-0.6-1.6c-0.5-0.1-0.7,0.7-1.3,0.7
		c-0.7,0-0.9-0.8-1.7-1C67.4,43.2,66.2,44.1,66.2,44.6z"/>
	<path class="st6" d="M17.2,39.7c-0.9-0.1-1.7,0.5-1.9,0.7c-0.8,0.7-1.4,2.1-0.9,2.7c0.4,0.5,1.4,0.4,2.1,0c0.8-0.5,0.8-1.3,1.2-1.3
		c0.5,0,0.6,1.2,1.4,1.4c0.8,0.2,1.6-1,1.7-1c0.8-1,0.4-1.8,1-2.2c0.8-0.5,2.1,0.8,2.5,0.4c0.5-0.4,0-2.6-1.6-3.3
		c-0.7-0.3-1.7-0.4-2.2,0.2c-0.4,0.4-0.1,0.8-0.6,1.8c-0.2,0.5-0.5,1-1,1.2C18.4,40.4,18.1,39.8,17.2,39.7z"/>
	<path class="st6" d="M21.4,46c-0.1,0.8-0.5,0.8-0.6,1.7c-0.1,0.4-0.2,1.1,0.2,1.6c0.5,0.7,1.9,0.7,2.4,0.2c0.6-0.6,0-1.3,0.7-2.2
		c0.5-0.7,1.2-0.6,1.4-1.1c0.1-0.5-0.4-1.4-1-1.5c-0.9-0.2-1.7,1.2-1.9,1c-0.3-0.2,1.5-2.7,0.9-3.3c-0.3-0.3-0.9-0.1-1-0.1
		c-0.9,0.2-1.4,1.2-1.4,2C21.1,45.1,21.5,45.2,21.4,46z"/>
	<path class="st6" d="M14.4,53c-0.5,0-0.5,1.1-1.6,3.7c-0.3,0.7-0.5,1.2-0.3,1.6c0.3,0.5,1,0.7,1.6,0.5c0.8-0.2,1.1-1.1,1.3-1.6
		c0.4-1.3,0-2.4-0.1-2.8C15,53.7,14.8,53,14.4,53z"/>
	<path class="st6" d="M31.6,32.4c-0.5,0.3-0.8,1.1-0.6,1.6s1,0.5,1.4,0.5c1,0,1.2-0.4,2.2-0.4c0.8,0,0.9,0.2,1.4,0.1
		c0.7-0.2,1.4-1,1.2-1.5c-0.1-0.4-0.8-0.5-1.3-0.4c-0.7,0.1-1,0.7-1.3,0.6c-0.4-0.2,0.8-2.4,0-3.1c-0.4-0.4-1.2-0.4-1.6,0
		c-0.5,0.6,0.8,2.2,0.3,2.7C33.1,32.7,32.3,32,31.6,32.4z"/>
	<path class="st6" d="M57.2,16.4c-2.2,0-3.5,2.9-3.9,4.3c-0.6,1.9-0.2,3.7,0,3.7c0.2,0,0.3-1.6,1.3-1.9c0.7-0.2,1.4,0.5,1.8,0.2
		c0.5-0.4-0.5-1.8,0.1-2.4c0.3-0.3,0.7-0.1,1.6-0.3c0.9-0.2,2.1-0.8,2.2-1.5C60.3,17.6,58.7,16.3,57.2,16.4z"/>
	<path class="st6" d="M60.7,15c-0.3,0.2,0.4,1,0.6,2.7c0.1,0.7,0.2,2.4-0.7,3.1c-0.7,0.6-1.5,0-2.2,0.7c-0.6,0.6-0.6,1.8,0,2.4
		c0.7,0.6,2,0.1,2.7-0.4c1-0.8,1.3-2,1.7-3.6c0.3-1.3,0.5-2,0.2-2.9C62.6,15.5,61.1,14.7,60.7,15z"/>
	<path class="st6" d="M56.7,24.6c-0.6,0.3-0.8,0.2-0.9,0.4c-0.3,0.5,0.2,1.8,1.2,2.1c0.8,0.3,1.2-0.2,1.7,0.1
		c0.6,0.4,0.1,1.3,0.7,2.4c0.5,0.8,1.3,1,1.6,1.1c0.9,0.2,1.6,0,2.4-0.3c1-0.4,2.8-1.1,2.8-2.1c0-1-1.6-2-2.5-1.7
		c-0.5,0.1-0.5,0.5-1.2,0.9c-0.3,0.2-0.9,0.4-1.4,0.2c-0.5-0.2-0.4-0.9-1.2-2c-0.3-0.4-0.5-0.6-0.7-0.7c-0.5-0.5-1-0.9-1.5-0.9
		C57.4,24.1,57.4,24.3,56.7,24.6z"/>
	<path class="st6" d="M66,34.2c-0.7,1-1.8,1-1.8,1.7c0,0.3,0.1,0.7,0.4,0.9c0.7,0.5,1.5-0.4,3-0.4c1.4,0.1,1.8,0.8,2.6,0.5
		c0.7-0.3,1.2-1.3,1-1.7c-0.3-0.6-1.8,0-2.4-0.8c-0.2-0.3-0.1-0.5-0.4-1c-0.4-0.5-1.1-1-1.6-0.8C66.3,32.8,66.5,33.4,66,34.2z"/>
	<path class="st6" d="M69,27.1c-0.5,0.2-0.8,0.9-0.7,1.6c0.1,0.9,1.1,1.6,1.6,1.5c0.5-0.1,0.4-0.8,0.9-1c0.9-0.4,2.2,1.5,2.8,1.1
		c0.4-0.2,0.4-1.5-0.2-2.1c-0.6-0.5-1.1,0.1-2.3-0.2C69.9,27.7,69.6,26.9,69,27.1z"/>
	<path class="st6" d="M72.1,32.4c-0.4,0.4-0.3,1.3,0,1.9c0.6,1.2,1.9,0.9,3.3,2.3c0.8,0.8,0.9,1.4,1.3,1.4c0.6,0,1.3-1.6,0.8-2.4
		c-0.4-0.7-1.3-0.3-2.2-1.3c-0.7-0.7-0.4-1.1-1.1-1.6C73.5,32.3,72.5,32,72.1,32.4z"/>
	<path class="st6" d="M86.2,32.3c-0.4,0-0.4-0.6-0.7-0.6c-0.5,0-0.7,1.6-0.7,1.7c-0.1,0.6-0.2,1.5,0.2,1.7c0.5,0.3,1.7-0.9,1.8-0.7
		c0.1,0.1-1,0.9-1.1,2.1c-0.1,0.9,0.3,1.8,0.7,1.8c0.5,0,0.4-1.6,1.7-3.6c0.7-1.2,1.3-1.5,1.2-2.2C89,31.7,88,31,87.3,31.2
		C86.8,31.5,86.7,32.3,86.2,32.3z"/>
	<path class="st6" d="M84.4,40.1c-1,0.6-0.7,2.9,0.1,3.2c0.4,0.2,0.9-0.3,1.5-0.7c0.5-0.4,1.2-0.9,1.1-1.4
		C87,40.4,85.3,39.5,84.4,40.1z"/>
	<path class="st6" d="M86.7,45.2c-0.8,0.2-0.8,1.9-0.8,2.3c0,1.7,0.8,3.2,1.1,3.1c0.2,0,0-0.8,0.6-1.8c0.5-0.9,1.1-0.9,1.2-1.5
		C88.9,46.4,87.5,44.9,86.7,45.2z"/>
	<path class="st6" d="M71.8,61.3c-0.3,0-0.4,0.8-0.8,2.3c-0.5,1.9-0.9,2.6-0.7,2.7c0.2,0.1,0.6-0.4,1.7-1c1.1-0.6,1.3-0.4,2.3-1
		c0.7-0.4,1.5-0.9,1.5-1.6c0-0.8-1.2-1.6-1.9-1.3c-0.6,0.2-0.6,1-1,1C72.5,62.5,72.2,61.3,71.8,61.3z"/>
	<path class="st6" d="M70.5,69.1c-0.9,0.7-0.8,2.8-0.1,3.1c0.7,0.3,2-1.2,2.6-2.2c0.7-1.1,0.6-1.8,0.6-2c-0.1-0.8-0.5-1.5-0.7-1.5
		c-0.3,0-0.1,1.3-1,2C71.4,69,71,68.7,70.5,69.1z"/>
	<path class="st6" d="M76.4,66c-0.1,0.1-1,1.2-0.7,1.8c0.2,0.4,0.9,0.4,1.4,0.3c1-0.2,1.1-1.1,1.8-1.2c0.7-0.1,1.1,0.6,1.5,0.4
		c0.5-0.2,0.7-1.3,0.2-1.9c-0.6-0.9-2.3-0.4-2.7-0.3C77.8,65.1,77,65.3,76.4,66z"/>
	<path class="st6" d="M73,71.8c-1,1-1.3,1.2-1.5,1.8c-0.2,0.8,0.1,1.5,0.3,1.8c0.7,1.5,2.3,2.4,2.4,2.2c0.2-0.2-1.5-2-1.1-2.5
		c0.3-0.4,1.3,0.4,2.2-0.1c0.8-0.4,1.3-1.6,1-1.9c-0.4-0.5-2.2,0.4-2.3,0.2c-0.1-0.2,2-0.9,2.1-2.1c0-0.7-0.6-1.4-1.1-1.4
		C74.5,69.8,74.4,70.4,73,71.8z"/>
	<path class="st6" d="M80.8,69.7c-1.5,1.1-2.6,1.1-2.8,2c-0.1,0.3-0.1,0.8,0.2,1c0.6,0.4,2.2-1.6,2.9-1.2c0.6,0.3-0.1,2.1,0.6,2.6
		c0.6,0.4,1.8-0.1,2.1-0.8c0.3-0.9-1.2-1.8-0.9-2.6c0.2-0.5,0.8-0.3,1.7-1c0.6-0.4,1.3-1.2,1.1-1.7c-0.2-0.5-1.6-0.5-2.7-0.1
		C81.9,68.3,82.1,68.8,80.8,69.7z"/>
	<path class="st6" d="M77.4,74.8c-0.9-0.1-1.6,1.6-1.7,1.9c-0.3,0.7-0.6,1.3-0.3,1.6c0.2,0.2,0.7,0,3.7-1.2c1.2-0.5,1.6-0.7,1.8-1.1
		c0.2-0.7-0.4-1.8-1-1.8c-0.6,0-0.8,1.1-1.5,1.1C78,75.4,77.9,74.8,77.4,74.8z"/>
	<path class="st6" d="M18.7,61.8c-0.4,0.3-0.5,0.8-0.7,1c-0.2,0.5-0.5,1.1-0.2,1.3c0.4,0.4,1.5-0.8,3.5-0.9c1.7-0.1,2.7,0.8,3.2,0.2
		c0.3-0.3,0.3-0.9,0.1-1.3c-0.3-0.5-0.9-0.4-3.3-0.6C19.8,61.6,19.2,61.4,18.7,61.8z"/>
	<path class="st6" d="M27.8,62.7c-0.2,0.6,0.3,1.2,0.4,1.3c0.8,0.9,2.6,0.9,3,0.2c0.3-0.5-0.2-1.6-1.1-2C29.2,61.8,28,62,27.8,62.7z
		"/>
	<path class="st6" d="M32.5,67.8c0.2,0.4,0.6,0.4,2.7,1c1.9,0.5,2.3,0.7,2.5,0.4c0.4-0.4-0.1-1.7-0.8-2.4c-0.8-0.8-2.3-1.4-3.4-0.7
		C32.9,66.4,32.3,67.2,32.5,67.8z"/>
	<path class="st6" d="M16.7,70.7c-0.3,0.1-0.4,1.1,0,2.1c0.4,1,1.1,1.1,2.1,2c1.8,1.6,1.8,2.9,2.5,2.9c0.8-0.1,1.6-1.8,1.3-3.1
		c-0.1-0.4-0.6-0.9-1.6-2.1C20,71.2,19.7,71,19.3,71c-0.6,0-0.8,0.7-1.4,0.6C17.2,71.6,17,70.7,16.7,70.7z"/>
	<path class="st6" d="M28.8,71c-1.1,0.2-1.4,2.5-1.6,3.6c0,0.3-0.4,2.5,0.1,2.7c0.5,0.2,1.2-1.9,2.4-1.9c1.4,0,2.3,2.9,2.7,2.7
		c0.4-0.1,0.2-2.5-1-4.6C31,72.8,29.9,70.8,28.8,71z"/>
	<path class="st6" d="M29.1,78.4c-0.3,0.2-0.2,0.9-0.1,1.3c0.5,1.4,2.6,1.7,2.7,1.7c1.9,0.2,2.3-1,3.9-0.8c2,0.2,2.6,2.1,3.6,1.7
		c0.9-0.3,1.5-2.2,0.9-3.1s-2.3-0.8-3.7-0.7c-2.8,0.3-3.5,1.4-5.1,0.9C30.2,79.1,29.5,78.2,29.1,78.4z"/>
	<path class="st6" d="M44,77.6c1-1.3,1.4-1.9,2.3-2.2c1.2-0.4,2.3-0.1,3,0.2c0.8,0.3,2,0.6,2.4,1.7c0.2,0.5,0.4,1.4,0.1,1.6
		c-0.6,0.4-1.9-1.5-4.2-1.6c-0.5,0-1.4,0-1.9,0.5c-1.1,1.1,0.1,3.3-0.8,4c-0.7,0.5-2.2,0.1-2.6-0.7C42,80.3,42.7,79.3,44,77.6z"/>
	<path class="st6" d="M48.7,83.5c-1.9,0.9-3.1,0.8-3.3,1.6c-0.2,0.6,0.4,0.8,1.1,2.2c0.8,1.6,0.7,2.7,1,2.7c0.5,0,0.8-2.9,1.6-3
		c0.7-0.1,1,1.9,2.2,2.1c0.8,0.1,1.7-0.6,2.1-1.3c0.6-1,0.5-2.4-0.2-3c-1.1-0.8-3.2,1-3.6,0.4c-0.5-0.6,2.1-3.3,1.8-3.6
		C51.4,81.6,50.5,82.6,48.7,83.5z"/>
	<path class="st6" d="M47.8,79.8c-0.7,0.5-1.1,1.7-0.7,2.2c0.5,0.5,1.6,0.1,2.2-0.2c0.6-0.3,1.6-1.1,1.4-1.6
		C50.5,79.5,48.8,79.1,47.8,79.8z"/>
</g>
<path class="st7" d="M53.9,5.9C47.6,4.6,40.1,7,36.1,12.5c-6.6,9.1,1.1,20.4,2,21.7c1,1.5,7.9,11.2,16.4,9.2
	c8.4-1.9,13.5-14.1,11.9-23.3C66.2,19.1,64.1,8,53.9,5.9z"/>
<path class="st8" d="M48,7.8c-3.7,2.9-2.1,12.2,1.8,17.6c0.6,0.8,4.8,6.9,8.8,5.7c4.2-1.2,7.1-10.1,4.5-16.3C60.4,8.2,51.6,5,48,7.8
	z"/>
<path class="st9" d="M89.8,52.4c-1-0.8-3.4-0.1-4,0.1c-3.8,1-9.2,0.5-15-0.1c-3.3-0.3-12.1-1.2-15.9-5.9c-0.7-0.8-1.9-2.6-1.5-2.8
	c0.4-0.2,2,0.9,3.1,1.6c3.7,2.6,4,3.8,6.1,4.3c0.3,0.1,2.3,0.4,4-0.5c0.4-0.2,1.2-0.8,1.6-1.7c0-0.1,0.6-1.3-0.1-2.5
	c-1-1.7-3.8-2.1-6.9-2.5c-1.9-0.3-3.2-0.5-5-0.2c-1.1,0.1-2.2,0.4-4,0.5c-0.9,0-1.7,0-2.1,0c-6-0.3-9.9-1.5-13.7-0.5
	c-2.7,0.7-5.3,2.5-5,3.8c0.4,1.5,4.6,2.1,7.4,2c3.2-0.1,5.8-1.1,6.5-1.4c3.5-1.5,4.9-3.5,6.3-3c0.6,0.2,1.1,0.9,1.1,1.5
	c-0.2,3.1-13.8,4.9-15.1,5c-6.1,0.8-6.2,0-14.5,0.9c-4.9,0.5-13,1.6-13.8,4.1c0,0.1-0.3,0.9,0.1,1.1c0.5,0.3,2-0.9,2.4-1.2
	c3.3-2.5,10.5-2.8,23.9-3.3c1,0,2.7-0.1,5-0.5c0.9-0.2,3.1-0.6,6-1.6c4.4-1.6,5.7-2.9,6.6-2.4c0.7,0.4,0.4,1.6-0.1,4.6
	c-1,5.3-0.6,4.9-1.1,6.8c-1.1,4.4-3.5,8.8-8.4,17.5c-2.2,4-2.7,8.5-5,12.4c-0.2,0.3-0.9,1.5-0.3,2c0.2,0.3,0.7,0.4,1.1,0.3
	c1.1-0.2,1.2-2,1.5-3.5c0.1-0.3,0.9-2.2,2.4-6.1c0.9-2.2,2.1-4.6,4.6-9.3c3.2-6.1,2.8-5.1,3.3-6.3c1.8-4.3,3.2-7.6,3.4-11.9
	c0.1-1.6,0-3.7,0.9-3.9c0.6-0.1,1.2,0.6,1.6,1c1.8,1.7,5.2,2.1,12,3c3.3,0.4,5.7,0.5,10.6,0.8c3.7,0.2,0.2-0.1,8.5-0.6
	c0.5,0,1.6-0.1,1.9-0.6C90.3,53,90.1,52.6,89.8,52.4z M60.9,43.7c2.5,0.5,5.6,1.2,5.8,2.4c0.1,1.1-2,2.5-3.5,2.3
	c-1.5-0.2-1.4-1.8-3.8-3.4c-1.9-1.3-3.7-1.4-3.6-1.7C55.8,43,58.4,43.2,60.9,43.7z M44.9,45.1c-2.7,0.9-4,1.3-5.1,1.4
	c-2.7,0.2-6-0.6-6.1-1.6c-0.1-1,2.8-2.3,5.5-2.3c1.6,0,1.8,0.5,4.5,0.8c2.6,0.3,4.2,0.1,4.3,0.4C48,43.9,47.9,44.1,44.9,45.1z"/>
</svg>
