<?xml version="1.0" encoding="utf-8"?>
<!-- Generator: Adobe Illustrator 26.0.3, SVG Export Plug-In . SVG Version: 6.00 Build 0)  -->
<svg version="1.1" id="Ebene_1" xmlns="http://www.w3.org/2000/svg" xmlns:xlink="http://www.w3.org/1999/xlink" x="0px" y="0px"
	 viewBox="0 0 1920 360" style="enable-background:new 0 0 1920 360;" xml:space="preserve">
<style type="text/css">
	.st0{fill:#2682AA;stroke:#000000;stroke-miterlimit:10;}
	.st1{opacity:0.25;fill:#FFDCFF;enable-background:new    ;}
	.st2{opacity:0.5;fill:#FFDC85;enable-background:new    ;}
	.st3{opacity:0.75;fill:#FFDC7B;enable-background:new    ;}
	.st4{fill:#FFDC69;}
	.st5{fill:#8C6239;stroke:#000000;stroke-width:3;stroke-miterlimit:10;}
	.st6{fill:#39B54A;stroke:#000000;stroke-width:0.75;stroke-miterlimit:10;}
	.st7{stroke:#000000;stroke-width:0.75;stroke-miterlimit:10;}
	.st8{fill:#009245;stroke:#000000;stroke-width:0.75;stroke-miterlimit:10;}
	.st9{fill:#006837;stroke:#000000;stroke-width:0.75;stroke-miterlimit:10;}
	.st10{fill:#00DCFF;stroke:#000000;stroke-width:0.75;stroke-miterlimit:10;}
	.st11{fill:#A67C52;stroke:#000000;stroke-miterlimit:10;}
	.st12{fill:#A67C52;stroke:#000000;stroke-width:0.75;stroke-miterlimit:10;}
	.st13{fill:#754C24;stroke:#000000;stroke-width:0.75;stroke-miterlimit:10;}
	.st14{fill:#754C24;stroke:#000000;stroke-miterlimit:10;}
	.st15{fill:#603813;stroke:#000000;stroke-width:0.75;stroke-miterlimit:10;}
	.st16{fill:#39B54A;stroke:#000000;stroke-width:4;stroke-miterlimit:10;}
	.st17{fill:#55B261;stroke:#000000;stroke-width:4;stroke-miterlimit:10;}
	.st18{fill:#603726;stroke:#000000;stroke-width:5;stroke-miterlimit:10;}
</style>
<rect y="-0.2" class="st0" width="1922" height="233.4"/>
<g id="Sonne">
	<path class="st1" d="M1788.8,1.4h-528c-6.3,18.3-12.7,44.2-12,75.1c1,46,17.8,98.7,48.2,145.6c23.2,1.8,46.1,7.2,69.1,11
		c12.6,2.1,25.4,3.5,38.1,3.5c13.3,0,26.2-2.2,39.2-4.6c12.6-2.4,25.3-4.9,38.1-6.3c13-1.5,26.2-1.2,39.2-0.3
		c13.2,0.9,26.3,2.5,39.4,3.9c12.3,1.4,24.7,2.1,37,3.3c21.5,2.2,41.9,7.6,60.4,18.9c23.1-1.3,46.2,1.1,69.3,1.7
		c44.8-53.7,69.9-120.6,72.2-176.8C1800,47.3,1795.1,21.8,1788.8,1.4z"/>
	<path class="st2" d="M1728.4,21.1c-2.3-8.3-4.7-15-6.6-19.7h-397c-1.7,4.3-4,10.6-6.2,18.3c0,0-7.8,27.8-7.8,57.3
		c0,62.9,27.3,119.4,70.7,158.3c7.5,0.8,15.1,1.4,22.7,1.3c13.3,0,26.2-2.2,39.2-4.6c12.6-2.4,25.3-4.9,38.1-6.3
		c13-1.5,26.2-1.2,39.2-0.3c13.2,0.9,26.3,2.5,39.4,3.9c12.3,1.4,24.7,2.1,37,3.3c18.8,1.9,36.6,6.2,53.2,14.9
		c52-38.7,85.6-100.7,85.6-170.5C1735.8,48.3,1728.4,21.1,1728.4,21.1z"/>
	<path class="st3" d="M1442.6,232.1c0.2,0,0.5-0.1,0.7-0.1c12.6-2.4,25.3-4.9,38.1-6.3c13-1.5,26.2-1.2,39.2-0.3
		c13.2,0.9,26.3,2.5,39.4,3.9c12.3,1.4,24.7,2.1,37,3.3c1.3,0.1,2.7,0.3,4,0.4c57.4-28.7,96.8-88.1,96.8-156.6
		c0-26.6-7.7-51.7-7.7-51.7c-3-9.7-6.4-17.6-9.3-23.5c-105.3,0.1-210.7,0.1-316,0.1c-3.1,6.4-6.7,15-9.9,25.5c0,0-7.1,24.1-7.1,49.6
		C1347.8,144.2,1386.3,203,1442.6,232.1z"/>
	<g>
		<path class="st4" d="M1499.2,224.6c7.1-0.1,14.3,0.2,21.4,0.7c3.6,0.2,7.3,0.5,10.9,0.9c78.7-4.5,141.3-69.9,141.3-149.7
			c0-22-6.3-43.1-6.3-43.1c-4-13.6-9.3-24.3-13.7-32h-260c-4.4,7.7-9.7,18.5-13.7,32.1c0,0-6.3,21.1-6.3,43
			C1372.8,151.3,1427.6,213.3,1499.2,224.6z"/>
	</g>
</g>
<g id="Baum">
	<path class="st5" d="M468,167.1c-17.5-18.4-37.7-31.4-36-49c0.5-5.5,3.4-14-1-18c-2.9-2.6-6.3-0.8-10-2c-12.6-4.1-19.6-40.3-7-67
		c1.8-3.8,6.2-10.9,15-25c1.3-2.1,2.4-3.9,3.4-5.4c-0.4,0-0.8,0-1.2-0.1c-3.2-0.2-6.4-0.3-9.7-0.4c-2,2.6-4.2,5.3-6.5,7.9
		c-4.9,5.7-9.4,10.2-12,9c-1.8-0.8-2.1-4.2-2-7c0.1-3.5,0.6-6.8,1.4-10.1c-4.5,0.1-9,0.4-13.6,0.4c-5.4,0.1-10.8-0.3-16.2-0.6
		c8.8,28,13,43.2,6.2,49.3c-11.1,10.1-32.8-14.2-72-11c-31.5,2.5-58.2,21.4-57,25c0.8,2.6,16.9-0.3,21-1c14-2.5,23.4-6.7,27-8
		c22.9-8.5,63,3.5,77,28c6.5,11.3,5,28.2,2,62c-2.3,25.8-8.6,29.3-5,37c13.6,29.3,106.7,22.9,110.6,5.1
		C483,184.2,482.6,182.4,468,167.1z"/>
	<g>
		<g>
			<g>
				<path class="st6" d="M234.8,1.4c-0.2,0.4-0.5,0.7-0.8,1.1l4.7,8.2h9.4l4.7-8.2c-0.3-0.4-0.7-0.7-1-1.1
					C246.1,1.4,240.5,1.4,234.8,1.4z"/>
				<path class="st7" d="M251.5,1.3l0.7,1.2l-4.4,7.8H239l-4.4-7.7l0.8-1.4c-0.4,0-0.8,0-1.2,0l-0.8,1.4l5,8.7h10l5-8.7l-0.6-1.2
					C252.4,1.4,252,1.3,251.5,1.3z"/>
			</g>
			<g>
				<polygon class="st6" points="231.8,19.5 227.1,11.3 231.8,3.2 241.2,3.2 245.9,11.3 241.2,19.5 				"/>
				<path class="st7" d="M240.9,3.7l4.4,7.7l-4.4,7.7h-8.8l-4.4-7.7l4.4-7.7L240.9,3.7 M241.6,2.7h-10l-5,8.7l5,8.7h10l5-8.7
					L241.6,2.7L241.6,2.7z"/>
			</g>
			<g>
				<polygon class="st6" points="258.8,49.5 254.1,41.3 258.8,33.2 268.3,33.2 272.9,41.3 268.3,49.5 				"/>
				<path class="st7" d="M267.9,33.7l4.4,7.7l-4.4,7.7h-8.8l-4.4-7.7l4.4-7.7H267.9 M268.6,32.7h-10l-5,8.7l5,8.7h10l5-8.7
					L268.6,32.7L268.6,32.7z"/>
			</g>
			<g>
				<polygon class="st6" points="211.8,73.5 207.1,65.3 211.8,57.2 221.2,57.2 225.9,65.3 221.2,73.5 				"/>
				<path class="st7" d="M220.9,57.7l4.4,7.7l-4.4,7.7h-8.8l-4.4-7.7l4.4-7.7H220.9 M221.6,56.7h-10l-5,8.7l5,8.7h10l5-8.7
					L221.6,56.7L221.6,56.7z"/>
			</g>
			<g>
				<polygon class="st6" points="262.8,88.5 258.2,80.3 262.8,72.2 272.3,72.2 276.9,80.3 272.3,88.5 				"/>
				<path class="st7" d="M271.9,72.7l4.4,7.7l-4.4,7.7h-8.8l-4.3-7.7l4.4-7.7H271.9 M272.6,71.7h-10l-5,8.7l5,8.7h10l5-8.7
					L272.6,71.7L272.6,71.7z"/>
			</g>
			<g>
				<polygon class="st6" points="296.8,24.5 292.2,16.3 296.8,8.2 306.2,8.2 310.9,16.3 306.2,24.5 				"/>
				<path class="st7" d="M305.9,8.7l4.4,7.7l-4.4,7.7h-8.8l-4.3-7.7l4.4-7.7L305.9,8.7 M306.6,7.7h-10l-5,8.7l5,8.7h10l5-8.7
					L306.6,7.7L306.6,7.7z"/>
			</g>
			<g>
				<polygon class="st6" points="289.8,64.5 285.2,56.3 289.8,48.2 299.2,48.2 303.9,56.3 299.2,64.5 				"/>
				<path class="st7" d="M298.9,48.7l4.4,7.7l-4.4,7.7h-8.8l-4.3-7.7l4.4-7.7L298.9,48.7 M299.6,47.7h-10l-5,8.7l5,8.7h10l5-8.7
					L299.6,47.7L299.6,47.7z"/>
			</g>
			<g>
				<polygon class="st6" points="209.8,40.5 205.1,32.3 209.8,24.2 219.2,24.2 223.9,32.3 219.2,40.5 				"/>
				<path class="st7" d="M218.9,24.7l4.4,7.7l-4.4,7.7h-8.8l-4.4-7.7l4.4-7.7H218.9 M219.6,23.7h-10l-5,8.7l5,8.7h10l5-8.7
					L219.6,23.7L219.6,23.7z"/>
			</g>
			<g>
				<polygon class="st6" points="238.8,63.5 234.1,55.3 238.8,47.2 248.2,47.2 252.9,55.3 248.2,63.5 				"/>
				<path class="st7" d="M247.9,47.7l4.4,7.7l-4.4,7.7h-8.8l-4.4-7.7l4.4-7.7H247.9 M248.6,46.7h-10l-5,8.7l5,8.7h10l5-8.7
					L248.6,46.7L248.6,46.7z"/>
			</g>
			<g>
				<polygon class="st6" points="284.8,24.5 280.2,16.3 284.8,8.2 294.2,8.2 298.9,16.3 294.2,24.5 				"/>
				<path class="st7" d="M293.9,8.7l4.4,7.7l-4.4,7.7h-8.8l-4.3-7.7l4.4-7.7L293.9,8.7 M294.6,7.7h-10l-5,8.7l5,8.7h10l5-8.7
					L294.6,7.7L294.6,7.7z"/>
			</g>
			<g>
				<polygon class="st6" points="255.8,76.5 251.1,68.3 255.8,60.2 265.3,60.2 269.9,68.3 265.3,76.5 				"/>
				<path class="st7" d="M264.9,60.7l4.4,7.7l-4.4,7.7h-8.8l-4.4-7.7l4.4-7.7H264.9 M265.6,59.7h-10l-5,8.7l5,8.7h10l5-8.7
					L265.6,59.7L265.6,59.7z"/>
			</g>
			<g>
				<polygon class="st6" points="231.8,37.5 227.1,29.3 231.8,21.2 241.2,21.2 245.9,29.3 241.2,37.5 				"/>
				<path class="st7" d="M240.9,21.7l4.4,7.7l-4.4,7.7h-8.8l-4.4-7.7l4.4-7.7H240.9 M241.6,20.7h-10l-5,8.7l5,8.7h10l5-8.7
					L241.6,20.7L241.6,20.7z"/>
			</g>
			<g>
				<polygon class="st6" points="255.8,37.5 251.1,29.3 255.8,21.2 265.3,21.2 269.9,29.3 265.3,37.5 				"/>
				<path class="st7" d="M264.9,21.7l4.4,7.7l-4.4,7.7h-8.8l-4.4-7.7l4.4-7.7H264.9 M265.6,20.7h-10l-5,8.7l5,8.7h10l5-8.7
					L265.6,20.7L265.6,20.7z"/>
			</g>
			<g>
				<polygon class="st8" points="270.8,69.5 266.2,61.3 270.8,53.2 280.3,53.2 284.9,61.3 280.3,69.5 				"/>
				<path class="st7" d="M279.9,53.7l4.4,7.7l-4.4,7.7h-8.8l-4.3-7.7l4.4-7.7L279.9,53.7 M280.6,52.7h-10l-5,8.7l5,8.7h10l5-8.7
					L280.6,52.7L280.6,52.7z"/>
			</g>
			<g>
				<polygon class="st8" points="219.8,52.5 215.1,44.3 219.8,36.2 229.2,36.2 233.9,44.3 229.2,52.5 				"/>
				<path class="st7" d="M228.9,36.7l4.4,7.7l-4.4,7.7h-8.8l-4.4-7.7l4.4-7.7H228.9 M229.6,35.7h-10l-5,8.7l5,8.7h10l5-8.7
					L229.6,35.7L229.6,35.7z"/>
			</g>
			<g>
				<polygon class="st8" points="245.8,49.5 241.1,41.3 245.8,33.2 255.3,33.2 259.9,41.3 255.3,49.5 				"/>
				<path class="st7" d="M254.9,33.7l4.4,7.7l-4.4,7.7h-8.8l-4.4-7.7l4.4-7.7H254.9 M255.6,32.7h-10l-5,8.7l5,8.7h10l5-8.7
					L255.6,32.7L255.6,32.7z"/>
			</g>
			<g>
				<polygon class="st8" points="284.8,50.5 280.2,42.3 284.8,34.2 294.2,34.2 298.9,42.3 294.2,50.5 				"/>
				<path class="st7" d="M293.9,34.7l4.4,7.7l-4.4,7.7h-8.8l-4.3-7.7l4.4-7.7H293.9 M294.6,33.7h-10l-5,8.7l5,8.7h10l5-8.7
					L294.6,33.7L294.6,33.7z"/>
			</g>
			<g>
				<polygon class="st8" points="221.8,85.5 217.1,77.3 221.8,69.2 231.2,69.2 235.9,77.3 231.2,85.5 				"/>
				<path class="st7" d="M230.9,69.7l4.4,7.7l-4.4,7.7h-8.8l-4.4-7.7l4.4-7.7H230.9 M231.6,68.7h-10l-5,8.7l5,8.7h10l5-8.7
					L231.6,68.7L231.6,68.7z"/>
			</g>
			<g>
				<polygon class="st8" points="204.8,28.5 200.1,20.3 204.8,12.2 214.2,12.2 218.9,20.3 214.2,28.5 				"/>
				<path class="st7" d="M213.9,12.7l4.4,7.7l-4.4,7.7h-8.8l-4.4-7.7l4.4-7.7L213.9,12.7 M214.6,11.7h-10l-5,8.7l5,8.7h10l5-8.7
					L214.6,11.7L214.6,11.7z"/>
			</g>
			<g>
				<polygon class="st8" points="265.8,28.5 261.2,20.3 265.8,12.2 275.3,12.2 279.9,20.3 275.3,28.5 				"/>
				<path class="st7" d="M274.9,12.7l4.4,7.7l-4.4,7.7h-8.8l-4.3-7.7l4.4-7.7L274.9,12.7 M275.6,11.7h-10l-5,8.7l5,8.7h10l5-8.7
					L275.6,11.7L275.6,11.7z"/>
			</g>
			<g>
				<polygon class="st8" points="221.8,28.5 217.1,20.3 221.8,12.2 231.2,12.2 235.9,20.3 231.2,28.5 				"/>
				<path class="st7" d="M230.9,12.7l4.4,7.7l-4.4,7.7h-8.8l-4.4-7.7l4.4-7.7L230.9,12.7 M231.6,11.7h-10l-5,8.7l5,8.7h10l5-8.7
					L231.6,11.7L231.6,11.7z"/>
			</g>
			<g>
				<polygon class="st8" points="250.8,69.5 246.1,61.3 250.8,53.2 260.3,53.2 264.9,61.3 260.3,69.5 				"/>
				<path class="st7" d="M259.9,53.7l4.4,7.7l-4.4,7.7h-8.8l-4.4-7.7l4.4-7.7L259.9,53.7 M260.6,52.7h-10l-5,8.7l5,8.7h10l5-8.7
					L260.6,52.7L260.6,52.7z"/>
			</g>
			<g>
				<path class="st8" d="M250.8,1.4c-0.3,0-0.7,0-1,0c1,2,2,4,3,6.1h9.4c1.2-2,2.4-4,3.5-6.1C260.8,1.4,255.8,1.4,250.8,1.4z"/>
				<path class="st7" d="M264.8,1.4c-0.9,1.9-1.9,3.8-2.8,5.7h-8.8c-1.1-1.9-2.2-3.8-3.3-5.7c-0.3,0-0.7,0-1,0
					c1.2,2.2,2.5,4.4,3.8,6.7h10c1.1-2.2,2.2-4.4,3.2-6.7C265.5,1.4,265.1,1.4,264.8,1.4z"/>
			</g>
			<g>
				<polygon class="st8" points="299.8,73.5 295.2,65.3 299.8,57.2 309.2,57.2 313.9,65.3 309.2,73.5 				"/>
				<path class="st7" d="M308.9,57.7l4.4,7.7l-4.4,7.7h-8.8l-4.3-7.7l4.4-7.7H308.9 M309.6,56.7h-10l-5,8.7l5,8.7h10l5-8.7
					L309.6,56.7L309.6,56.7z"/>
			</g>
			<g>
				<polygon class="st8" points="248.8,97.5 244.1,89.3 248.8,81.2 258.3,81.2 262.9,89.3 258.3,97.5 				"/>
				<path class="st7" d="M257.9,81.7l4.4,7.7l-4.4,7.7h-8.8l-4.4-7.7l4.4-7.7H257.9 M258.6,80.7h-10l-5,8.7l5,8.7h10l5-8.7
					L258.6,80.7L258.6,80.7z"/>
			</g>
			<g>
				<polygon class="st8" points="270.8,49.5 266.2,41.3 270.8,33.2 280.3,33.2 284.9,41.3 280.3,49.5 				"/>
				<path class="st7" d="M279.9,33.7l4.4,7.7l-4.4,7.7h-8.8l-4.3-7.7l4.4-7.7H279.9 M280.6,32.7h-10l-5,8.7l5,8.7h10l5-8.7
					L280.6,32.7L280.6,32.7z"/>
			</g>
			<g>
				<polygon class="st8" points="245.8,22.5 241.1,14.3 245.8,6.2 255.3,6.2 259.9,14.3 255.3,22.5 				"/>
				<path class="st7" d="M254.9,6.7l4.4,7.7l-4.4,7.7h-8.8l-4.4-7.7l4.4-7.7L254.9,6.7 M255.6,5.7h-10l-5,8.7l5,8.7h10l5-8.7
					L255.6,5.7L255.6,5.7z"/>
			</g>
			<g>
				<path class="st8" d="M210.8,1.4c-1.2,2.3-2.4,4.6-3.7,6.9l4.7,8.2h9.4l4.7-8.2L222,1.5c-1.7,0-3.5,0-5.2-0.1
					C214.8,1.4,212.8,1.4,210.8,1.4z"/>
				<path class="st7" d="M221.4,1.5l3.9,6.8l-4.4,7.7h-8.8l-4.3-7.6l4-7.1c-0.3-0.1-0.7-0.2-1-0.3l-4.2,7.4l5,8.7h10l5-8.7l-4-7
					C222.2,1.4,221.8,1.5,221.4,1.5z"/>
			</g>
			<g>
				<polygon class="st8" points="201.8,64.5 197.1,56.3 201.8,48.2 211.2,48.2 215.9,56.3 211.2,64.5 				"/>
				<path class="st7" d="M210.9,48.7l4.4,7.7l-4.4,7.7h-8.8l-4.4-7.7l4.4-7.7L210.9,48.7 M211.6,47.7h-10l-5,8.7l5,8.7h10l5-8.7
					L211.6,47.7L211.6,47.7z"/>
			</g>
			<g>
				<path class="st8" d="M284.8,1.4c-0.9,1.3-1.8,2.6-2.7,3.9l4.7,8.2h9.4l4.7-8.2c-0.7-1.3-1.4-2.6-2.2-3.9
					C294.1,1.4,289.5,1.4,284.8,1.4z"/>
				<path class="st7" d="M298.8,1.4c0.5,1.3,1,2.6,1.5,4l-4.4,7.7h-8.8l-4.3-7.7c0.7-1.3,1.4-2.6,2-4c-0.3,0-0.7,0-1,0
					c-0.8,1.3-1.5,2.6-2.2,4l5,8.7h10l5-8.7c-0.6-1.3-1.2-2.6-1.8-4C299.5,1.4,299.1,1.4,298.8,1.4z"/>
			</g>
			<g>
				<polygon class="st8" points="306.8,50.5 302.2,42.3 306.8,34.2 316.2,34.2 320.9,42.3 316.2,50.5 				"/>
				<path class="st7" d="M315.9,34.7l4.4,7.7l-4.4,7.7h-8.8l-4.3-7.7l4.4-7.7H315.9 M316.6,33.7h-10l-5,8.7l5,8.7h10l5-8.7
					L316.6,33.7L316.6,33.7z"/>
			</g>
			<g>
				<polygon class="st8" points="284.8,97.5 280.2,89.3 284.8,81.2 294.2,81.2 298.9,89.3 294.2,97.5 				"/>
				<path class="st7" d="M293.9,81.7l4.4,7.7l-4.4,7.7h-8.8l-4.3-7.7l4.4-7.7H293.9 M294.6,80.7h-10l-5,8.7l5,8.7h10l5-8.7
					L294.6,80.7L294.6,80.7z"/>
			</g>
			<g>
				<polygon class="st9" points="275.8,91.5 271.2,83.3 275.8,75.2 285.3,75.2 289.9,83.3 285.3,91.5 				"/>
				<path class="st7" d="M284.9,75.7l4.4,7.7l-4.4,7.7h-8.8l-4.3-7.7l4.4-7.7H284.9 M285.6,74.7h-10l-5,8.7l5,8.7h10l5-8.7
					L285.6,74.7L285.6,74.7z"/>
			</g>
			<g>
				<polygon class="st9" points="233.8,89.5 229.1,81.3 233.8,73.2 243.2,73.2 247.9,81.3 243.2,89.5 				"/>
				<path class="st7" d="M242.9,73.7l4.4,7.7l-4.4,7.7h-8.8l-4.4-7.7l4.4-7.7H242.9 M243.6,72.7h-10l-5,8.7l5,8.7h10l5-8.7
					L243.6,72.7L243.6,72.7z"/>
			</g>
			<g>
				<polygon class="st9" points="223.8,70.5 219.1,62.3 223.8,54.2 233.2,54.2 237.9,62.3 233.2,70.5 				"/>
				<path class="st7" d="M232.9,54.7l4.4,7.7l-4.4,7.7h-8.8l-4.4-7.7l4.4-7.7L232.9,54.7 M233.6,53.7h-10l-5,8.7l5,8.7h10l5-8.7
					L233.6,53.7L233.6,53.7z"/>
			</g>
			<g>
				<polygon class="st9" points="232.8,50.5 228.1,42.3 232.8,34.2 242.2,34.2 246.9,42.3 242.2,50.5 				"/>
				<path class="st7" d="M241.9,34.7l4.4,7.7l-4.4,7.7h-8.8l-4.4-7.7l4.4-7.7H241.9 M242.6,33.7h-10l-5,8.7l5,8.7h10l5-8.7
					L242.6,33.7L242.6,33.7z"/>
			</g>
			<g>
				<polygon class="st9" points="246.8,35.5 242.1,27.3 246.8,19.2 256.3,19.2 260.9,27.3 256.3,35.5 				"/>
				<path class="st7" d="M255.9,19.7l4.4,7.7l-4.4,7.7h-8.8l-4.4-7.7l4.4-7.7H255.9 M256.6,18.7h-10l-5,8.7l5,8.7h10l5-8.7
					L256.6,18.7L256.6,18.7z"/>
			</g>
			<g>
				<polygon class="st9" points="193.8,50.5 189.1,42.3 193.8,34.2 203.2,34.2 207.9,42.3 203.2,50.5 				"/>
				<path class="st7" d="M202.9,34.7l4.4,7.7l-4.4,7.7h-8.8l-4.4-7.7l4.4-7.7H202.9 M203.6,33.7h-10l-5,8.7l5,8.7h10l5-8.7
					L203.6,33.7L203.6,33.7z"/>
			</g>
			<g>
				<polygon class="st9" points="279.8,35.5 275.2,27.3 279.8,19.2 289.3,19.2 293.9,27.3 289.3,35.5 				"/>
				<path class="st7" d="M288.9,19.7l4.4,7.7l-4.4,7.7h-8.8l-4.3-7.7l4.4-7.7H288.9 M289.6,18.7h-10l-5,8.7l5,8.7h10l5-8.7
					L289.6,18.7L289.6,18.7z"/>
			</g>
			<g>
				<polygon class="st9" points="292.8,85.5 288.2,77.3 292.8,69.2 302.2,69.2 306.9,77.3 302.2,85.5 				"/>
				<path class="st7" d="M301.9,69.7l4.4,7.7l-4.4,7.7h-8.8l-4.3-7.7l4.4-7.7H301.9 M302.6,68.7h-10l-5,8.7l5,8.7h10l5-8.7
					L302.6,68.7L302.6,68.7z"/>
			</g>
			<g>
				<path class="st9" d="M268.8,1.4c-0.2,0.3-0.4,0.6-0.7,0.9l4.7,8.2h9.4l4.7-8.2c-0.4-0.3-0.8-0.6-1.2-0.9
					C280.1,1.4,274.5,1.4,268.8,1.4z"/>
				<path class="st7" d="M285.8,1.4c0.2,0.3,0.4,0.6,0.5,1l-4.4,7.7h-8.8c-1.5-2.6-2.9-5.1-4.4-7.7c0-0.3,0-0.6,0-1
					c-0.3,0-0.7,0-1,0c-0.1,0.3-0.2,0.6-0.2,1l5,8.7h10l5-8.7c-0.2-0.3-0.5-0.6-0.8-1C286.5,1.4,286.1,1.4,285.8,1.4z"/>
			</g>
			<g>
				<polygon class="st9" points="256.8,55.5 252.1,47.3 256.8,39.2 266.3,39.2 270.9,47.3 266.3,55.5 				"/>
				<path class="st7" d="M265.9,39.7l4.4,7.7l-4.4,7.7h-8.8l-4.4-7.7l4.4-7.7H265.9 M266.6,38.7h-10l-5,8.7l5,8.7h10l5-8.7
					L266.6,38.7L266.6,38.7z"/>
			</g>
			<g>
				<polygon class="st9" points="199.8,23.5 195.1,15.3 199.8,7.2 209.2,7.2 213.9,15.3 209.2,23.5 				"/>
				<path class="st7" d="M208.9,7.7l4.4,7.7l-4.4,7.7h-8.8l-4.4-7.7l4.4-7.7L208.9,7.7 M209.6,6.7h-10l-5,8.7l5,8.7h10l5-8.7
					L209.6,6.7L209.6,6.7z"/>
			</g>
			<g>
				<polygon class="st9" points="299.8,37.5 295.2,29.3 299.8,21.2 309.2,21.2 313.9,29.3 309.2,37.5 				"/>
				<path class="st7" d="M308.9,21.7l4.4,7.7l-4.4,7.7h-8.8l-4.3-7.7l4.4-7.7H308.9 M309.6,20.7h-10l-5,8.7l5,8.7h10l5-8.7
					L309.6,20.7L309.6,20.7z"/>
			</g>
			<g>
				<polygon class="st9" points="312.8,64.5 308.2,56.3 312.8,48.2 322.2,48.2 326.9,56.3 322.2,64.5 				"/>
				<path class="st7" d="M321.9,48.7l4.4,7.7l-4.4,7.7h-8.8l-4.3-7.7l4.4-7.7L321.9,48.7 M322.6,47.7h-10l-5,8.7l5,8.7h10l5-8.7
					L322.6,47.7L322.6,47.7z"/>
			</g>
			<path class="st10" d="M210.8,1.4"/>
		</g>
	</g>
	<path class="st11" d="M425.4,101.6c-2.2-0.3-3.8,1.8-4,2c-1.5,2-1.5,5,0,7c1.6,2.2,5.1,3.4,7,2c2.1-1.6,1.2-5.3,1-6
		C429.3,106,428.3,102,425.4,101.6z"/>
	<path class="st12" d="M437.5,137.6c-2.9-4.6-7.5-12.1-6-20c0.4-1.9,1.3-4.8,1-9c-0.2-2.8-0.4-5.2-2-7c-2.7-3-6.5-1.2-11-3
		c-4.6-1.9-6.7-6.2-9-11c-4.7-9.8-4.4-19.1-4-28c0.2-4.6,0.6-11.5,3-20c2.5-8.6,5.6-13.7,17-32c1.6-2.6,3.1-4.9,4.4-7
		c-1-0.1-1.9-0.1-2.8-0.1c-2.2,2.9-4.7,6.3-7.6,10.2c-9,12.1-12,16-12,16c-8.9,11.9-8.9,11.8-9,12c-7.4,12.5-6.2,26.5-5,39
		c1,10.6,3.3,18.3,5,24c3.5,11.6,6,19.8,13,28c5.7,6.7,11.7,10.3,18,14c9.2,5.5,19.2,9.3,20,8C451.2,150.4,443.5,147.2,437.5,137.6z
		"/>
	<path class="st11" d="M402,0c-1.5,0-3.1,0.1-4.6,0.2c-0.2,1.7-0.2,3.5,0.1,5.3c0.6,5.8,3,11.2,4,11C402.6,16.3,400.6,9.4,402,0z"/>
	<path class="st13" d="M377.4,140.6c0.6-4.4,1.3-10.5,2-18c0.8-9.7,1.3-14.5,1-19c-0.1-0.9-1.1-15.3-9-27c-12.7-18.8-37.3-22-37-23
		c0.3-0.8,15-0.6,28,8c36.1,23.9,30.4,94.4,27,95c-0.7,0.1-1.3-2.7-6-9C381.2,144.6,379,142.2,377.4,140.6z"/>
	<path class="st14" d="M379.4,0.2c-2.1-0.1-4.2-0.2-6.4-0.3c2.2,7.5,4.3,15.1,6.5,22.6c0.3,1.1,1.6,5.4,2,11c0.3,3.5,0.1,5.9,0,7
		c-0.4,3.9-1.2,5.9-1,6c0.3,0.1,4.1-7.3,5-17c0.2-1.6,0.4-4.8,0-9C384.7,13.1,382.5,7.4,379.4,0.2z"/>
	<path class="st15" d="M425.4,102.6c-1.5,0.4-2.3,3-2,5c0.4,2.9,3.2,5.5,5,5c1.4-0.4,2-2.5,2-4C430.4,105.3,427.3,102.1,425.4,102.6
		z"/>
</g>
<path class="st16" d="M-1.7,186.9c321,0,642,0,963,0c414.8,0,957,0,957,0s0,0,0,0.1c6,62,3.6,67.6,1,70.9c-7.5,9.7-22.8,9.3-37,9
	c-29.6-0.7-34.5-17.8-57-14c-25.1,4.2-32.5,20.9-49,17c-20.1-4.8-21.1-32.7-38-34c-14.7-1.1-17.2,19.9-37,24
	c-15.9,3.3-21.7-8.7-64-25c-17.3-6.7-25.9-10-36-11c-27-2.7-34.4,8.8-60,6c-21.3-2.3-22.3-10.9-41-13c-24.2-2.7-32,10.7-61,20
	c-56.6,18.2-116.2-4.2-129-9c-19.6-7.4-20.6-11.2-34-13c-33.6-4.5-48.8,16.8-82,21c-30,3.8-37.4-10.9-75-19
	c-44.4-9.5-54.5,6.7-133,16c-14.5,1.7-58.3,2.5-146,4c-79.2,1.4-84.4,0.4-103,5c-36.4,8.9-53.1,21.5-83,16
	c-26.6-4.9-26.3-17.3-55-26c-35.3-10.7-48,4.3-100,5c-46,0.6-46.8-10.9-99-13c-27.6-1.1-28.5,2.1-98,9c-58.3,5.8-95.7,9.6-145,9
	c-31.9-0.4-36.3-2.1-74-2c-39.3,0.2-85,2.3-85,2C-1.7,241.9-1.7,241.9-1.7,186.9z"/>
<g id="Gras">
	<g id="HGras">
		<path class="st17" d="M559,181.3c1.6,3.6,11.2,4.6,16.6,1.5c19.5-11.3-4.1-83.2-4.9-83c-0.6,0.1,16.7,44.6-2.9,67.9
			C564.1,172,557.4,177.7,559,181.3z"/>
		<path class="st17" d="M560.7,102.4c-0.1,0-14.2,77.7,9.3,88.4c4,1.8,9.8,2.1,11.7-0.5c3.6-4.9-9.9-16.6-17.6-34.2
			C552.1,128.7,560.7,102.4,560.7,102.4z"/>
		<path class="st17" d="M706.2,193.9c-1.6-0.7-0.8-3.5-2-10.7c-1.3-8.1-3-9.2-2-12.2c1.6-4.6,6.2-3.9,8.3-8.3
			c2.1-4.5-1.2-7.9-2.9-16.1c-2.4-11.5,0.7-21.5,1.5-21.5c0.7,0-0.9,8.4,2.9,19.1c2.8,7.8,5.3,8,5.4,12.7c0.1,8-7.4,9.6-7.3,17.6
			c0.1,6.4,5,8.6,3.4,13.7C712.4,191.8,708.2,194.7,706.2,193.9z"/>
		<path class="st17" d="M872.9,97.8c-0.4,0,1.6,10.3-1,23c-8.9,43.6-61.4,62.8-56,75.2c1.6,3.6,7.3,5.1,11,4.4
			c7-1.3,9.1-10.9,14.7-21.4c10.2-19.3,18.8-16.7,27-31.8C880.7,124.8,873.5,97.8,872.9,97.8z"/>
		<path class="st17" d="M655,126c-0.8-1-17.6,5.6-20,18.1c-1.5,7.6,3.9,9.9,5.9,22c2.7,16.7-5.1,27.2-1.5,29.3
			c3.7,2.2,14.9-6.9,13.7-12.2c-0.6-2.5-3.7-2.5-5.9-6.4c-2-3.5-1-6.5-1-10.7c0-10-5.7-11.9-5.9-19.1C640.1,135,655.7,127,655,126z"
			/>
		<path class="st17" d="M647.8,177.3c-1,1-3,2.7-5.4,4.4c-4.7,3.2-6.7,3.1-7.3,4.9c-1.3,3.6,4.3,10.9,8.8,10.3
			c3.1-0.4,4.7-4.5,7.3-11.2c2.3-5.8,3-10.1,3.9-14.2c3.6-16.7,6-16.3,6.4-24.4c0.5-10.8-3.2-20.2-4.4-20c-0.6,0.1-0.6,2.5-1.5,19.1
			c-0.5,9.5-0.7,12.2-1.5,16.1C652.2,172.4,649.3,175.9,647.8,177.3z"/>
		<path class="st17" d="M587,156.3c-0.1,0.9-0.4,3.5,0.5,3.9c1.7,0.8,6.6-5.7,9.3-10.7c7.3-13.5,5.1-28.7,3.9-28.8
			c-1.1-0.1,1.3,14.1-7.3,23.9C591.8,146.3,587.8,150.3,587,156.3z"/>
		<path class="st17" d="M590.3,126c-0.6,0.2,2.4,9.6,1.5,21.1c-2.3,27.6-25.4,41-21.5,51.2c1.4,3.7,5.8,5.3,8.8,4.8
			c10.4-1.5,17.5-28.8,16.6-50.6C595.1,138.2,591,125.8,590.3,126z"/>
		<path class="st17" d="M540.9,119c0.5,0.1,0.1,3.2,0,9.6c-0.3,35.7,12.2,59.4,6.3,64.3c-1.9,1.6-4.6,0.3-5.2,0
			c-1.9-0.9-6-4.2-7.3-21.9C532.5,144.1,539.4,118.6,540.9,119z"/>
		<path class="st17" d="M553.3,130.9c-1.3-0.2-5.5,10.5-3.4,21.5c1,5.5,3.9,12.5,5.9,12.2c0.9-0.1,1.3-1.6,1.5-2
			c1-3.1-1.9-5.1-2.4-10.3c-0.1-1.3-0.1-2,0-3.4C555.1,143.1,554.7,131,553.3,130.9z"/>
		<path class="st17" d="M585.6,119.2c-0.7,0.4,5.2,7.1,3.4,14.7c-0.5,2.3-1.3,2.4-2,5.4c-1.2,5.1-0.5,10.9,1,11.2
			c1.1,0.2,2.6-2.7,3.4-4.4c1-2.1,3.7-7.5,2.4-14.2C592.4,123.9,586.2,118.8,585.6,119.2z"/>
		<path class="st17" d="M1371.8,160.1c4,3.5,12.2,2.6,14.7-1c2.4-3.5-2.3-8-2.9-18.1c-0.4-7.1,1.4-12.5,2.4-15.6
			c3.8-11.4,11.3-18.4,15.1-22c6.1-5.7,7.3-4.5,10.7-8.8c8-9.9,7.6-23.6,6.4-23.9c-0.9-0.2-1.9,6.4-6.4,14.7
			c-9.3,17.1-20.5,17-31.3,30.8C1368.8,131.2,1364.6,153.8,1371.8,160.1z"/>
		<path class="st17" d="M1335.4,80.1c-1.5,2.4-4.6,7.2-4.9,13.2c-0.4,8.2,4.8,12.4,7.8,18.6c10.6,21.4-12.8,47.5-3.4,55.7
			c2.4,2.1,6,2.2,8.3,1.5c10.2-3.2,16-28.8,8.8-48.9c-5.3-14.7-14.2-17.4-13.7-29.3c0.6-12,10.2-20.3,8.8-21.5
			C1346.2,68.5,1339.8,73.3,1335.4,80.1z"/>
		<path class="st17" d="M1223.7,185.9c-4.2,3.2-14.2-0.2-17.7-6.4c-3.6-6.6,3-11.4,6.2-27.4c3.3-17.1-2-23.1,3.7-40
			c2-6,5-12,5.9-11.7c1.1,0.3-1.4,8.9-2.3,20.3c-0.8,9.4-0.1,16.1,1.3,28.3C1223.6,175.1,1227.8,182.7,1223.7,185.9z"/>
		<path class="st17" d="M1220.9,107.6c-1.5-1-7.3,3.7-11.9,10c-16.9,23.1-13.3,61.1,0.5,68.6c0.7,0.4,4.6,2.5,7.3,1
			c3.7-2.2,3-10.3,1.5-15.6c-1.8-6.3-5.2-9.3-7.1-12.2C1200.5,142.8,1224.5,110,1220.9,107.6z"/>
		<path class="st17" d="M1380.4,103c-0.1,0.2,0,0.1-0.2,0.5c-1.7,4.5-4.5,12.9-6.1,22.4c-1.8,10.4-3.6,21.3,0.5,23.4
			c2.1,1.1,5.7-0.2,7.3-2.4c3-4.3-2.3-10.4-3.4-18.6c-1.1-8,4.3-8.8,8.8-25.4c2.3-8.6,2.1-12,2-13.2c-1-10.2-7.9-17.7-9.3-17.1
			C1378.1,73.5,1386,87.7,1380.4,103z"/>
		<path class="st17" d="M1355.7,147c4.3,1.5,10.3-2.1,13.2-6.4c8.8-13.1-13.3-30.8-5.9-53.2c2.5-7.4,7.7-14,5.9-15.6
			c-1.3-1.1-5.5,0.8-8.3,3.4c-10.9,10.2-6.2,36.2-5.4,41c0.6,3.6,1.6,7.6,0,12.2c-1.7,4.9-4.9,6.2-4.9,10.3
			C1350.4,142.2,1352.6,145.9,1355.7,147z"/>
		<path class="st17" d="M809.3,208.6c7.6-3,3.1-23.7,5.5-67.9c0.8-15.3,1.6-16.8,1.5-27.3c-0.2-17.2-0.4-45.1-14-51.9
			c-3.9-2-9.3-2.4-10-1c-0.8,1.7,5.8,5.7,9,8.7c19.1,18.2,2.3,82.1-5.1,110.4c-1.2,4.7-4.4,16.6,1.6,23.8
			C800.3,206.4,805.5,210.2,809.3,208.6z"/>
		<path class="st17" d="M685,195.1c-18.2,1.1-49.9-83.6-25.4-108.4c4.2-4.3,11.8-8.5,13.7-6.8c2.4,2.2-7.2,11.7-11.2,26.9
			c-4.5,17-2.2,42.1,12.2,55.2c9.6,8.7,19.7,7.9,21.5,15.6C697.3,184.6,691.1,194.7,685,195.1z"/>
		<path class="st17" d="M724.3,114.3c-1.7-2.1-18.8,3.5-26.4,16.6c-13.4,23.3,7.1,63.8,20,63.5c5.3-0.1,10.9-7.1,9.8-11.2
			c-1.3-4.9-11.2-2.3-17.6-8.8c-8.7-8.9-4.4-28.1,0.5-39.1C716.6,121.8,725.6,115.9,724.3,114.3z"/>
		<path class="st17" d="M998.2,62c2.5-0.6,17.3,31.8,14.7,72.3c-1.1,17.3-6.3,49.2-17.6,50.8c-4.2,0.6-9.2-3.1-10.7-7.3
			c-2.8-7.9,6.6-17.5,10.3-22C1019.6,125.2,994.8,62.8,998.2,62z"/>
		<path class="st17" d="M973.7,65.2c-2.7-0.5-13.7,21.9-12.2,48.4c1.1,18.7,7.9,30.6,20.5,52.8c6.6,11.6,12.4,19,21.5,21.5
			c5.1,1.4,12.3,1.5,13.7-1.5c1.7-3.7-6.6-9.7-16.6-21c0,0-9.6-10.8-19.5-27.4C961.9,106.2,977.3,65.9,973.7,65.2z"/>
		<path class="st17" d="M1394.8,171.4c6.9-2.9,7.2-13.3,9.8-36.1c4.2-37.1,7.3-43.5,4.4-60.6c-2-11.5-5.9-23.7-7.8-23.4
			c-2.2,0.3,1.3,17.3-0.5,38.6c-3.8,44.8-28.1,69.9-18.1,79.6C1385.8,172.6,1391.3,172.8,1394.8,171.4z"/>
		<path class="st17" d="M332.8,195.4c-4.4,2-14.3-0.9-17.2-5.6c-3.1-5,4-8,8.4-19.3c4.7-12.1-0.2-16.7,6.9-28.5
			c2.5-4.2,6-8.3,6.9-8.1c1.1,0.3-2.1,6.3-3.9,14.4c-1.5,6.7-1.3,11.6-1,20.4C333.5,187.7,337.2,193.4,332.8,195.4z"/>
		<path class="st17" d="M639.2,93.9c-2.7-0.9-35.7,62.1-15.1,87.4c2.6,3.3,7.5,7.6,10.3,6.4c5-2.3-2-21.1-2.4-46.4
			C631.4,111.4,640.6,94.4,639.2,93.9z"/>
		<path class="st17" d="M635.3,60c-2.1-1.1-19.3,18.2-27.8,45.9c-10.5,34.1-6.1,75.1,6.4,78.6c3.6,1,8.3-0.9,10.3-3.9
			c3.7-5.6-2.5-14.1-5.9-23.9c-4-11.6-2.3-21.7,1-42c1.6-9.8,3.6-17.2,5.1-22.6C630.3,71,636.4,60.6,635.3,60z"/>
		<path class="st17" d="M697,107.4c-22.7,27.6-18.4,78.1-6.4,81.6c2.6,0.7,5.6-0.7,7.3-2.4c5.2-5.5-1.1-16.5-3.4-27.8
			c-6.1-29.5,15.3-55.9,11.2-58.1C703.6,99.4,697.6,106.7,697,107.4z"/>
		<path class="st17" d="M1381.6,50.2c-3.3-0.6-34.2,115.9-18.6,122.1c2.5,1,5.6-1.1,6.8-2c11.1-7.6,6.1-29.7,4.9-52.8
			C1372.5,76.3,1383.2,50.5,1381.6,50.2z"/>
		<path class="st17" d="M1412.9,66.2c-1.5-0.7-51.7,78.4-35.2,94.3c3.2,3.1,9.2,4.1,12.2,2c5.9-4.3-3.6-19,1-40.1
			c0.6-2.7,0.9-3,6.4-16.6C1407.9,79.4,1413.2,66.3,1412.9,66.2z"/>
		<path class="st17" d="M705.3,88.8c2.4-1.1,23.1,25.7,28.3,62c2.5,17,3.4,48.5-8.8,53.2c-5.4,2.1-13.5-1-15.6-5.9
			c-2.4-5.3,3.2-10.9,6.8-19.5c4.5-10.5,3.4-20.2,1-39.1C712.9,107,703.5,89.6,705.3,88.8z"/>
		<path class="st17" d="M736.6,81.9c3.2,0.1,6.2,35.6,1.5,72.8c-2.7,21.1-6.3,49.1-19.5,52.3c-7.8,1.9-18.7-4.9-18.6-9.8
			c0.1-3.3,5.2-4.7,9.3-7.3c13.4-8.5,13.8-27.9,17.6-57.2C729,116,733.5,81.9,736.6,81.9z"/>
		<path class="st17" d="M693.9,192.9c12.7-15.4,7.8-30.4,14.2-63c5-25.5,14.1-47.4,16.1-46.9c2.4,0.6-10.7,32.4-10.3,80.6
			c0.2,21.9,3.1,35.3-5.9,43.8c-10.7,10.2-31.8,7.5-33.2,2.5C673.8,206.2,684.7,204,693.9,192.9z"/>
		<path class="st17" d="M1459.8,77.5c-1.6-0.7-11.5,14.8-17.1,33.7c-5.6,18.8-7.5,43.6-0.5,46.4c2.8,1.1,6.5-1.5,7.8-2.4
			c5.1-3.7,6.9-10.4,6.4-15.6c-0.7-7.3-5.4-7.5-7.3-14.7c-1.7-6.4,1.1-9.6,5.9-25.4C1456.6,93.8,1461.4,78.2,1459.8,77.5z"/>
		<path class="st17" d="M1430,155.3c2.5,2.2,8.2,1.8,11.7-1c8.4-6.7-2.3-22.6,0-50.8c1.5-18.1,7.4-30.5,5.4-31.3
			c-1.7-0.7-7.1,8.5-10.3,15.6c-1.2,2.8-4.4,10.5-5.9,22.5c-1.8,14.2,1.4,14.3-0.5,28.3C1429.3,148,1427.3,152.9,1430,155.3z"/>
		<path class="st17" d="M640.3,114.9c-0.6,0.2,2.4,9.6,1.5,21.1c-2.3,27.6-25.4,41-21.5,51.2c1.4,3.7,5.8,5.3,8.8,4.8
			c10.4-1.5,17.5-28.8,16.6-50.6C645.1,127.1,641,114.7,640.3,114.9z"/>
		<path class="st17" d="M1418.2,127.5c-0.1,0.9-0.4,3.5,0.5,3.9c1.7,0.8,6.6-5.7,9.3-10.7c7.3-13.5,5.1-28.7,3.9-28.8
			c-1.1-0.1,1.3,14.1-7.3,23.9C1422.9,117.6,1418.9,121.6,1418.2,127.5z"/>
		<path class="st17" d="M546.6,197.4c-7.6-3-3.1-23.7-5.5-67.9c-0.8-15.3-1.6-16.8-1.5-27.3c0.2-17.2,0.4-45.1,14-51.9
			c4.3-2.1,9.7-2,10-1c0.4,1.1-6.6,3.2-10.5,6.2c-21.2,16.4,2.8,98.5,5.4,107c2.1,6.9,6.6,21.4-0.4,29.8
			C555.6,195.2,550.4,198.9,546.6,197.4z"/>
		<path class="st17" d="M595.3,191.3c0.8,0.2,2.4,0.4,4.9,0c7.1-1.2,14.4-6.4,14.8-11.9c0.4-4.8-4.7-6-8.4-11.9
			c-4-6.6-2.4-12.8,0.5-22.8c4.6-16.2,13-25.9,11.8-26.3c-1.1-0.4-9.4,7.3-15.3,17.6c-5.2,9.2-11.9,20.8-5.9,32
			c2.9,5.3,7.8,9,5.4,11.6c-2.9,3.2-12.6,0.4-14.8,3.5C586.6,185.2,590.1,190.2,595.3,191.3z"/>
		<path class="st17" d="M676,125.5c1.5,1.7,4.7,5.2,4.9,9.5c0.4,5.9-4.8,8.9-7.9,13.3c-10.6,15.4,12.9,34.2,3.4,40
			c-2.4,1.5-6,1.6-8.4,1.1c-10.3-2.3-16.1-20.7-8.9-35.1c5.3-10.5,14.4-12.5,13.8-21.1c-0.6-8.6-10.3-14.6-8.9-15.5
			C665.1,117.2,671.5,120.5,676,125.5z"/>
		<path class="st17" d="M579.9,157.4c1.3,1.8,3.4,5,5.9,17.2c4,19.6,1.1,23.3-1.5,25.3c-1.9,1.4-5.4,3.2-7.4,2.5
			c-3.6-1.3-0.1-9.4,1-16.9c3-21.7-15.3-37.7-11.8-39C568.2,145.7,575.6,151.6,579.9,157.4z"/>
		<path class="st17" d="M601.4,165.8c0.1,0.1,0,0.1,0.2,0.4c1.7,3.2,4.6,9.3,6.2,16.1c1.8,7.5,3.6,15.3-0.5,16.9
			c-2.1,0.8-5.8-0.1-7.4-1.8c-3.1-3.1,2.3-7.5,3.4-13.3c1.1-5.8-4.3-6.3-8.9-18.3c-2.3-6.2-2.1-8.7-2-9.5c1-7.3,8-12.7,9.4-12.3
			C603.7,144.6,595.8,154.8,601.4,165.8z"/>
		<path class="st17" d="M1348.2,99.8c7.2,27.1,12.2,34.7,13.8,56.2c0.7,8.7,0.4,14.8-5.4,19c-5.5,4-15.2,5.6-17.7,3.5
			c-2.4-2,2.4-6.6,5.9-12.3c8.3-13.5,5.2-26.8,3-36.9c-3.3-14.3-10.9-22.8-7.9-36.2c0.3-1.4,1.3-5.9,3-6
			C1344.9,87.1,1346.9,94.9,1348.2,99.8z"/>
		<path class="st17" d="M569.6,130.3c1.5-0.5,52.1,56.4,35.5,67.8c-3.2,2.2-9.3,3-12.3,1.4c-6-3.1,3.6-13.7-1-28.8
			c-0.6-1.9-0.9-2.2-6.4-11.9C574.6,139.9,569.3,130.5,569.6,130.3z"/>
		<path class="st17" d="M568.3,147.4c0.6,0.1-2.4,6.9-1.5,15.2c2.3,19.8,25.7,29.5,21.7,36.8c-1.4,2.7-5.8,3.8-8.9,3.5
			c-10.5-1.1-17.7-20.7-16.8-36.4C563.4,156.2,567.6,147.3,568.3,147.4z"/>
		<path class="st17" d="M667,174.2c-0.6,0.1,2.4,6.9,1.5,15.2c-2.3,19.8-25.7,29.5-21.7,36.8c1.4,2.7,5.8,3.8,8.9,3.5
			c10.5-1.1,17.7-20.7,16.8-36.4C671.8,182.9,667.7,174.1,667,174.2z"/>
		<path class="st17" d="M1415.4,183.8c7.7-2.1,3.1-17.1,5.5-48.8c0.8-11,1.6-12.1,1.5-19.6c-0.2-12.4-0.4-32.4-14.1-37.4
			c-3.9-1.4-9.4-1.7-10.1-0.7c-0.8,1.2,5.8,3.9,9,6.3c12.8,9.4,1.3,32.5-8,74.3c-1.3,5.9-3.4,16.1,4.5,22.2
			C1404.4,180.4,1410.6,185.1,1415.4,183.8z"/>
		<path class="st17" d="M633.9,178.6c-10.1,25.4,7.6,55.4,18.1,53.2c2.3-0.5,4.3-2.4,5.1-4.1c2.5-5.3-5.5-9.9-10.6-16.2
			c-13.2-16.3-3.8-40.4-7.6-40.3C636.9,171.3,634.2,178,633.9,178.6z"/>
		<path class="st17" d="M18.1,189c0.8,0.2,2.4,0.4,4.9,0c7.1-1.2,14.4-6.4,14.8-11.9c0.4-4.8-4.7-6-8.4-11.9
			c-4-6.6-2.4-12.8,0.5-22.8c4.6-16.2,13-25.9,11.8-26.3c-1.1-0.4-9.4,7.3-15.3,17.6c-5.2,9.2-11.9,20.8-5.9,32
			c2.9,5.3,7.8,9,5.4,11.6c-2.9,3.2-12.6,0.4-14.8,3.5C9.4,183,12.9,187.9,18.1,189z"/>
		<path class="st17" d="M59.9,187.6c-4,2.5-12.3,1.8-14.8-0.7c-2.4-2.5,2.3-5.7,3-13c0.4-5.1-1.4-9-2.5-11.2
			c-3.9-8.2-11.4-13.2-15.3-15.8c-6.2-4.1-7.4-3.3-10.8-6.3c-8-7.1-7.7-17-6.4-17.2c0.9-0.2,1.9,4.6,6.4,10.5
			c9.4,12.3,20.6,12.2,31.5,22.1C63,166.9,67.2,183.1,59.9,187.6z"/>
		<path class="st17" d="M104.8,127.2c1.5,1.7,4.7,5.2,4.9,9.5c0.4,5.9-4.8,8.9-7.9,13.3c-10.6,15.4,12.9,34.2,3.4,40
			c-2.4,1.5-6,1.6-8.4,1.1c-10.3-2.3-16.1-20.7-8.9-35.1c5.3-10.5,14.4-12.5,13.8-21.1s-10.3-14.6-8.9-15.5
			C93.9,118.9,100.3,122.3,104.8,127.2z"/>
		<path class="st17" d="M275.7,204.5c2.5,1,5.6-1.7,6.2-2.1c1.1-0.9,5.8-5.3,3.7-19.7c-3.7-25.2-21.1-31.2-18.7-46.7
			c1.7-11.1,12.1-17.5,11.4-18.1s-14.1,6.6-15.6,18.7c-1.3,10.8,6,14.5,9.4,32.5C275.7,188.2,270.4,202.5,275.7,204.5z"/>
		<path class="st17" d="M252.5,195.7c4.4,2,14.3-0.9,17.2-5.6c3.1-5-4-8-8.4-19.3c-4.7-12.1,0.2-16.7-6.9-28.5
			c-2.5-4.2-6-8.3-6.9-8.1c-1.1,0.3,2.1,6.3,3.9,14.4c1.5,6.7,1.3,11.6,1,20.4C251.7,187.9,248.1,193.7,252.5,195.7z"/>
		<path class="st17" d="M264.7,135.9c-1.4-1.2-8.8,4.7-13.8,11.7c-1.8,2.6-4.1,6.4-6.4,13.7c-3,9.4-8.9,28.1-2,33.6
			c4.1,3.2,12.4,1.5,14.3-2.5c1.9-4-3.7-7.9-5.9-15.3C245.4,158.7,267.2,138.1,264.7,135.9z"/>
		<path class="st17" d="M74.2,142.4c1.6-1.8,15.8,2.3,25.6,11.6c11.1,10.5,17.1,27.9,8.9,38.2c-2.9,3.6-9.3,8.5-14.8,7.1
			c-4.1-1.1-7.2-5.5-6.4-9.1c1.3-5.8,11.9-5.2,14.8-10.4C108.6,168.7,71.3,145.7,74.2,142.4z"/>
		<path class="st17" d="M76.2,189.8c-4.4,1.1-10.4-1.5-13.3-4.6c-8.9-9.4,13.5-22.1,5.9-38.3c-2.5-5.3-7.8-10.1-5.9-11.2
			c1.3-0.8,5.5,0.5,8.4,2.5c11,7.3,6.3,26,5.4,29.5c-0.7,2.6-1.7,5.5,0,8.8c1.8,3.5,4.9,4.5,4.9,7.4C81.6,186.2,79.3,189,76.2,189.8
			z"/>
		<path class="st17" d="M434.8,110.2c-2.5-0.4-17.4,22.8-14.8,52c1.1,12.5,6.3,35.4,17.7,36.5c4.3,0.4,9.3-2.2,10.8-5.3
			c2.8-5.7-6.7-12.6-10.3-15.8C413.2,155.7,438.2,110.8,434.8,110.2z"/>
		<path class="st17" d="M420.3,97.7c2.7-0.4,13.8,15.8,12.3,34.8c-1.1,13.4-8,22-20.7,37.9c-6.7,8.3-12.5,13.7-21.7,15.5
			c-5.2,1-12.4,1.1-13.8-1.1c-1.7-2.6,6.6-7,16.8-15.1c0,0,9.7-7.8,19.7-19.7C432.1,127.2,416.6,98.2,420.3,97.7z"/>
		<path class="st17" d="M51.1,118.2c3.3-0.4,34.5,83.3,18.7,87.8c-2.5,0.7-5.6-0.8-6.9-1.4c-11.2-5.4-6.2-21.3-4.9-37.9
			C60.2,136.9,49.5,118.4,51.1,118.2z"/>
		<path class="st17" d="M2.4,142.1c1.5-0.5,52.1,56.4,35.5,67.8c-3.2,2.2-9.3,3-12.3,1.4c-6-3.1,3.6-13.7-1-28.8
			c-0.6-1.9-0.9-2.2-6.4-11.9C7.4,151.7,2.1,142.2,2.4,142.1z"/>
		<path class="st17" d="M44.1,156.2c0.6,0.1-2.4,6.9-1.5,15.2c2.3,19.8,25.7,29.5,21.7,36.8c-1.4,2.7-5.8,3.8-8.9,3.5
			c-10.5-1.2-17.7-20.8-16.8-36.4C39.2,164.9,43.3,156.1,44.1,156.2z"/>
		<path class="st17" d="M72.6,171.7c-0.1,0.6-0.5,2.5,0.5,2.8c1.7,0.5,6.6-4.1,9.4-7.7c7.3-9.7,5.1-20.6,3.9-20.7s1.3,10.2-7.4,17.2
			C77.4,164.6,73.4,167.4,72.6,171.7z"/>
		<path class="st17" d="M93.4,165.2c-10.7,25.1,6.2,55.6,16.7,53.7c2.3-0.4,4.3-2.3,5.2-4c2.7-5.2-5.2-10-10.2-16.4
			c-12.8-16.6-2.7-40.5-6.6-40.5C96.5,157.9,93.7,164.5,93.4,165.2z"/>
		<path class="st17" d="M691.9,186.4c0.7,0.6,4,3.1,2.6,4.8c-1.5,1.8-7.6,2.2-9.8,1.9c-17.6-1.8-15.3-61.6-11.9-61.7
			C675.7,131.4,680.6,177.4,691.9,186.4z"/>
		<path class="st17" d="M69,176.7c-0.5,0.1,2.1,4.7,1.3,10.4c-2,13.6-22.2,20.2-18.7,25.3c1.2,1.8,5,2.6,7.7,2.4
			c9.1-0.8,15.3-14.2,14.5-25C73.1,182.7,69.6,176.6,69,176.7z"/>
		<path class="st17" d="M519.3,186.4c4,2.5,12.3,1.8,14.8-0.7c2.4-2.5-2.3-5.7-3-13c-0.4-5.1,1.4-9,2.5-11.2
			c3.9-8.2,11.4-13.2,15.3-15.8c6.2-4.1,7.4-3.3,10.8-6.3c8-7.1,7.7-17,6.4-17.2c-0.9-0.2-1.9,4.6-6.4,10.5
			c-9.4,12.3-20.6,12.2-31.5,22.1C516.2,165.6,512,181.9,519.3,186.4z"/>
		<path class="st17" d="M474.5,126c-1.5,1.7-4.7,5.2-4.9,9.5c-0.4,5.9,4.8,8.9,7.9,13.3c10.6,15.4-12.9,34.2-3.4,40
			c2.4,1.5,6,1.6,8.4,1.1c10.3-2.3,16.1-20.7,8.9-35.1c-5.3-10.5-14.4-12.5-13.8-21.1s10.3-14.6,8.9-15.5
			C485.4,117.7,479,121.1,474.5,126z"/>
		<path class="st17" d="M321.5,134.7c1.4-1.2,8.8,4.7,13.8,11.7c1.8,2.6,4.1,6.4,6.4,13.7c3,9.4,8.9,28.1,2,33.6
			c-4.1,3.2-12.4,1.5-14.3-2.5s3.7-7.9,5.9-15.3C340.8,157.5,319,136.8,321.5,134.7z"/>
		<path class="st17" d="M487.4,131.2c-1.6-2.2-15.9,2.8-25.9,14.1c-11.2,12.7-17.3,33.7-9,46.2c2.9,4.4,9.4,10.3,14.9,8.5
			c4.1-1.3,7.3-6.7,6.5-11c-1.3-7-12-6.3-14.9-12.5C452.7,163,490.4,135.2,487.4,131.2z"/>
		<path class="st17" d="M497.1,191.5c4.4,1.1,10.4-1.5,13.3-4.6c8.9-9.4-13.5-22.1-5.9-38.3c2.5-5.3,7.8-10.1,5.9-11.2
			c-1.3-0.8-5.5,0.5-8.4,2.5c-11,7.3-6.3,26-5.4,29.5c0.7,2.6,1.7,5.5,0,8.8c-1.8,3.5-4.9,4.5-4.9,7.4
			C491.7,188,493.9,190.7,497.1,191.5z"/>
		<path class="st17" d="M133.5,116c2.5-0.4,17.4,22.8,14.8,52c-1.1,12.5-6.3,35.4-17.7,36.5c-4.3,0.4-9.3-2.2-10.8-5.3
			c-2.8-5.7,6.7-12.6,10.3-15.8C155.1,161.4,130,116.5,133.5,116z"/>
		<path class="st17" d="M133,125.5c-2.7-0.4-13.8,15.8-12.3,34.8c1.1,13.4,8,22,20.7,37.9c6.7,8.3,12.5,13.7,21.7,15.5
			c5.2,1,12.4,1.1,13.8-1.1c1.7-2.6-6.6-7-16.8-15.1c0,0-9.7-7.8-19.7-19.7C121.1,154.9,136.6,126,133,125.5z"/>
		<path class="st17" d="M528.2,105.9c-3.3-0.4-34.5,83.3-18.7,87.8c2.5,0.7,5.6-0.8,6.9-1.4c11.2-5.4,6.2-21.3,4.9-37.9
			C519,124.7,529.8,106.2,528.2,105.9z"/>
		<path class="st17" d="M493.5,140.7c0.6,0.1-2.4,6.9-1.5,15.2c2.3,19.8,25.7,29.5,21.7,36.8c-1.4,2.7-5.8,3.8-8.9,3.5
			c-10.5-1.1-17.7-20.7-16.8-36.4C488.7,149.4,492.8,140.6,493.5,140.7z"/>
		<path class="st17" d="M463.7,135.1c19.7,19,15.9,53.6,5.5,56c-2.2,0.5-4.9-0.5-6.3-1.7c-4.5-3.8,0.9-11.3,3-19.1
			c5.3-20.3-13.2-38.3-9.7-39.9C457.9,129.6,463.1,134.6,463.7,135.1z"/>
		<path class="st17" d="M162.6,182.8c0.8,0.2,2.4,0.4,4.9,0c7.1-1.2,14.4-6.4,14.8-11.9c0.4-4.8-4.7-6-8.4-11.9
			c-4-6.6-2.4-12.8,0.5-22.8c4.6-16.2,13-25.9,11.8-26.3c-1.1-0.4-9.4,7.3-15.3,17.6c-5.2,9.2-11.9,20.8-5.9,32
			c2.9,5.3,7.8,9,5.4,11.6c-2.9,3.2-12.6,0.4-14.8,3.5C154,176.8,157.5,181.7,162.6,182.8z"/>
		<path class="st17" d="M203.5,187.4c-4,2.5-12.3,1.8-14.8-0.7c-2.4-2.5,2.3-5.7,3-13c0.4-5.1-1.4-9-2.5-11.2
			c-3.9-8.2-11.4-13.2-15.3-15.8c-6.2-4.1-7.4-3.3-10.8-6.3c-8-7.1-7.7-17-6.4-17.2c0.9-0.2,1.9,4.6,6.4,10.5
			c9.4,12.3,20.6,12.2,31.5,22.1C206.6,166.6,210.8,182.9,203.5,187.4z"/>
		<path class="st17" d="M242.3,124c1.5,1.7,4.7,5.2,4.9,9.5c0.4,5.9-4.8,8.9-7.9,13.3c-10.6,15.4,12.9,34.2,3.4,40
			c-2.4,1.5-6,1.6-8.4,1.1c-10.3-2.3-16.1-20.7-8.9-35.1c5.3-10.5,14.4-12.5,13.8-21.1c-0.6-8.6-10.3-14.6-8.9-15.5
			C231.4,115.7,237.8,119.1,242.3,124z"/>
		<path class="st17" d="M396.4,185.9c2.4,1.3,5.8-0.9,6.4-1.3c1.2-0.8,6.5-4.5,6.4-19.1c-0.3-25.5-16.7-33.8-12.2-48.9
			c3.2-10.8,14.3-15.7,13.8-16.4c-0.6-0.7-14.8,4.6-18,16.4c-2.8,10.5,4,15.1,4.9,33.4C398.6,169.8,391.5,183.2,396.4,185.9z"/>
		<path class="st17" d="M393,190.4c4.4,2,14.3-0.9,17.2-5.6c3.1-5-4-8-8.4-19.3c-4.7-12.1,0.2-16.7-6.9-28.5c-2.5-4.2-6-8.3-6.9-8.1
			c-1.1,0.3,2.1,6.3,3.9,14.4c1.5,6.7,1.3,11.6,1,20.4C392.3,182.7,388.6,188.4,393,190.4z"/>
		<path class="st17" d="M407.3,131.7c-1.4-1.2-8.8,4.7-13.8,11.7c-1.8,2.6-4.1,6.4-6.4,13.7c-3,9.4-8.9,28.1-2,33.6
			c4.1,3.2,12.4,1.5,14.3-2.5s-3.7-7.9-5.9-15.3C388,154.5,409.8,133.8,407.3,131.7z"/>
		<path class="st17" d="M183.8,153.3c0.1,0.1,0,0.1,0.2,0.4c1.7,3.2,4.6,9.3,6.2,16.1c1.8,7.5,3.6,15.3-0.5,16.9
			c-2.1,0.8-5.8-0.1-7.4-1.8c-3.1-3.1,2.3-7.5,3.4-13.3c1.1-5.8-4.3-6.3-8.9-18.3c-2.3-6.2-2.1-8.7-2-9.5c1-7.3,8-12.7,9.4-12.3
			C186.1,132.1,178.1,142.3,183.8,153.3z"/>
		<path class="st17" d="M220.7,183.5c-4.4,1.1-10.4-1.5-13.3-4.6c-8.9-9.4,13.5-22.1,5.9-38.3c-2.5-5.3-7.8-10.1-5.9-11.2
			c1.3-0.8,5.5,0.5,8.4,2.5c11,7.3,6.3,26,5.4,29.5c-0.7,2.6-1.7,5.5,0,8.8c1.8,3.5,4.9,4.5,4.9,7.4
			C226.1,180,223.9,182.7,220.7,183.5z"/>
		<path class="st17" d="M195.6,110.9c3.3-0.4,34.5,83.3,18.7,87.8c-2.5,0.7-5.6-0.8-6.9-1.4c-11.2-5.4-6.2-21.3-4.9-37.9
			C204.8,129.7,194,111.2,195.6,110.9z"/>
		<path class="st17" d="M136.9,119.9c1.5-0.5,52.1,56.4,35.5,67.8c-3.2,2.2-9.3,3-12.3,1.4c-6-3.1,3.6-13.7-1-28.8
			c-0.6-1.9-0.9-2.2-6.4-11.9C142,129.4,136.6,120,136.9,119.9z"/>
		<path class="st17" d="M124.6,205.5c-2.5,1.6-8.3,1.3-11.8-0.7c-8.4-4.9,2.3-16.2,0-36.5c-1.5-13-7.4-21.9-5.4-22.5
			c1.8-0.5,7.2,6.1,10.3,11.2c1.2,2,4.4,7.6,5.9,16.2c1.8,10.2-1.4,10.3,0.5,20.4C125.4,200.2,127.4,203.7,124.6,205.5z"/>
		<path class="st17" d="M153.6,136.9c0.6,0.1-2.4,6.9-1.5,15.2c2.3,19.8,25.7,29.5,21.7,36.8c-1.4,2.7-5.8,3.8-8.9,3.5
			c-10.5-1.1-17.7-20.7-16.8-36.4C148.8,145.7,152.9,136.8,153.6,136.9z"/>
		<path class="st17" d="M220.3,148.7c-0.6,0.1,2.4,6.9,1.5,15.2c-2.3,19.8-25.7,29.5-21.7,36.8c1.4,2.7,5.8,3.8,8.9,3.5
			c10.5-1.1,17.7-20.7,16.8-36.4C225.1,157.4,221,148.6,220.3,148.7z"/>
		<path class="st17" d="M659.4,177.8c-1.3-0.7-6.3,2.5-10.3,6.9c-14.6,15.9-11.5,41.9,0.5,47c0.6,0.3,4,1.7,6.3,0.7
			c3.2-1.5,2.6-7.1,1.3-10.7c-1.6-4.3-4.5-6.4-6.1-8.4C641.7,201.8,662.5,179.4,659.4,177.8z"/>
		<path class="st17" d="M164.7,207c-0.7,0.8-4,4.2-2.5,6.7s7.5,3,9.7,2.7c17.4-2.5,15.2-85.7,11.8-85.8
			C180.7,130.5,175.8,194.5,164.7,207z"/>
		<path class="st17" d="M242.1,147.1c-19.7,19-15.9,53.6-5.5,56c2.2,0.5,4.9-0.5,6.3-1.7c4.5-3.8-0.9-11.3-3-19.1
			c-5.3-20.3,13.2-38.3,9.7-39.9C247.9,141.6,242.7,146.6,242.1,147.1z"/>
		<path class="st17" d="M186.4,166.7c-0.7,0-1.7,8.8-0.4,17.8c0.4,3,0.9,4.2,1.7,4.4c1.4,0.2,4.1-2.8,4.2-6c0.2-3.3-2.4-4.1-4.2-9
			C186,169.5,186.8,166.7,186.4,166.7z"/>
		<path class="st17" d="M145.8,183.9c1.1,1.2,2.9,3.4,5.1,11.8c3.5,13.4,1,16-1.3,17.3c-1.7,1-4.6,2.2-6.4,1.7
			c-3.1-0.9,0-6.4,0.9-11.6c2.6-14.9-13.2-25.8-10.2-26.7C135.7,175.9,142.1,179.9,145.8,183.9z"/>
		<path class="st17" d="M362.2,188.8c-0.8,0.2-2.4,0.4-4.9,0c-7.1-1.2-14.4-6.4-14.8-11.9c-0.4-4.8,4.7-6,8.4-11.9
			c4-6.6,2.4-12.8-0.5-22.8c-4.6-16.2-13-25.9-11.8-26.3c1.1-0.4,9.4,7.3,15.3,17.6c5.2,9.2,11.9,20.8,5.9,32
			c-2.9,5.3-7.8,9-5.4,11.6c2.9,3.2,12.6,0.4,14.8,3.5C370.8,182.8,367.3,187.7,362.2,188.8z"/>
		<path class="st17" d="M309.3,190.4c4,2.5,12.3,1.8,14.8-0.7c2.4-2.5-2.3-5.7-3-13c-0.4-5.1,1.4-9,2.5-11.2
			c3.9-8.2,11.4-13.2,15.3-15.8c6.2-4.1,7.4-3.3,10.8-6.3c8-7.1,7.7-17,6.4-17.2c-0.9-0.2-1.9,4.6-6.4,10.5
			c-9.4,12.3-20.6,12.2-31.5,22.1C306.2,169.6,302,185.9,309.3,190.4z"/>
		<path class="st17" d="M261.5,149c-1.5,1.7-4.7,5.2-4.9,9.5c-0.4,5.9,4.8,8.9,7.9,13.3c10.6,15.4-12.9,34.2-3.4,40
			c2.4,1.5,6,1.6,8.4,1.1c10.3-2.3,16.1-20.7,8.9-35.1c-5.3-10.5-14.4-12.5-13.8-21.1s10.3-14.6,8.9-15.5
			C272.4,140.7,266,144.1,261.5,149z"/>
		<path class="st17" d="M113.4,216.9c-2.4,1.3-5.8-0.9-6.4-1.3c-1.2-0.8-6.5-4.5-6.4-19.1c0.3-25.5,16.7-33.8,12.2-48.9
			c-3.2-10.8-14.3-15.7-13.8-16.4c0.6-0.7,14.8,4.6,18,16.4c2.8,10.5-4,15.1-4.9,33.4C111.2,200.8,118.3,214.2,113.4,216.9z"/>
		<path class="st17" d="M372.6,142.9c-1.3,1.8-3.4,5-5.9,17.2c-4,19.6-1.1,23.3,1.5,25.3c1.9,1.4,5.4,3.2,7.4,2.5
			c3.6-1.3,0.1-9.4-1-16.9c-3-21.7,15.3-37.7,11.8-39C384.2,131.2,376.9,137.1,372.6,142.9z"/>
		<path class="st17" d="M344,161.3c-0.1,0.1,0,0.1-0.2,0.4c-1.7,3.2-4.6,9.3-6.2,16.1c-1.8,7.5-3.6,15.3,0.5,16.9
			c2.1,0.8,5.8-0.1,7.4-1.8c3.1-3.1-2.3-7.5-3.4-13.3s4.3-6.3,8.9-18.3c2.3-6.2,2.1-8.7,2-9.5c-1-7.3-8-12.7-9.4-12.3
			C341.7,140.1,349.7,150.3,344,161.3z"/>
		<path class="st17" d="M289.1,191.5c4.4,1.1,10.4-1.5,13.3-4.6c8.9-9.4-13.5-22.1-5.9-38.3c2.5-5.3,7.8-10.1,5.9-11.2
			c-1.3-0.8-5.5,0.5-8.4,2.5c-11,7.3-6.3,26-5.4,29.5c0.7,2.6,1.7,5.5,0,8.8c-1.8,3.5-4.9,4.5-4.9,7.4
			C283.7,188,285.9,190.7,289.1,191.5z"/>
		<path class="st17" d="M313.2,115.9c-3.3-0.4-34.5,83.3-18.7,87.8c2.5,0.7,5.6-0.8,6.9-1.4c11.2-5.4,6.2-21.3,4.9-37.9
			C304,134.7,314.8,116.2,313.2,115.9z"/>
		<path class="st17" d="M381.9,124.9c-1.5-0.5-52.1,56.4-35.5,67.8c3.2,2.2,9.3,3,12.3,1.4c6-3.1-3.6-13.7,1-28.8
			c0.6-1.9,0.9-2.2,6.4-11.9C376.8,134.4,382.2,125,381.9,124.9z"/>
		<path class="st17" d="M159.2,216.5c2.5,1.6,8.3,1.3,11.8-0.7c8.4-4.9-2.3-16.2,0-36.5c1.5-13,7.4-21.9,5.4-22.5
			c-1.8-0.5-7.2,6.1-10.3,11.2c-1.2,2-4.4,7.6-5.9,16.2c-1.8,10.2,1.4,10.3-0.5,20.4C158.4,211.2,156.4,214.7,159.2,216.5z"/>
		<path class="st17" d="M362.2,147.9c-0.6,0.1,2.4,6.9,1.5,15.2c-2.3,19.8-25.7,29.5-21.7,36.8c1.4,2.7,5.8,3.8,8.9,3.5
			c10.5-1.1,17.7-20.7,16.8-36.4C367,156.7,362.9,147.8,362.2,147.9z"/>
		<path class="st17" d="M330.1,195c0.7,0.8,4,4.2,2.5,6.7s-7.5,3-9.7,2.7c-17.4-2.5-15.2-85.7-11.8-85.8
			C314.1,118.5,319,182.5,330.1,195z"/>
		<path class="st17" d="M286.3,158.2c14.2,23.3,1.9,55.9-8.8,55.5c-2.3-0.1-4.6-1.7-5.7-3.2c-3.4-4.8,3.7-10.7,7.7-17.7
			c10.3-18.3-3.1-40.4,0.7-41C282.1,151.4,285.9,157.5,286.3,158.2z"/>
		<path class="st17" d="M379,157.9c-1.1,1.2-2.9,3.4-5.1,11.8c-3.5,13.4-1,16,1.3,17.3c1.7,1,4.6,2.2,6.4,1.7
			c3.1-0.9,0-6.4-0.9-11.6c-2.6-14.9,13.2-25.8,10.2-26.7C389.1,149.9,382.8,153.9,379,157.9z"/>
		<path class="st17" d="M312.3,171.5c0.5,0.1-2.1,4.7-1.3,10.4c2,13.6,22.2,20.2,18.7,25.3c-1.2,1.8-5,2.6-7.7,2.4
			c-9.1-0.8-15.3-14.2-14.5-25C308.1,177.5,311.7,171.4,312.3,171.5z"/>
		<path class="st17" d="M461.4,115c-2.5-0.4-17.4,22.8-14.8,52c1.1,12.5,6.3,35.4,17.7,36.5c4.3,0.4,9.3-2.2,10.8-5.3
			c2.8-5.7-6.7-12.6-10.3-15.8C439.7,160.4,464.8,115.5,461.4,115z"/>
		<path class="st17" d="M441.4,154.8c3.4,21.2-16.3,43.2-27.1,42.3c-4.7-0.4-8.8-5.2-9-9.1c-0.2-3.6,2.8-6.3,6.2-9.5
			c0,0,9-8.5,15.8-16.4c14-16.3-38.6-52.7-34.9-54.8c2.1-1.2,22.1,8.8,36.1,24.8C433.7,137.9,439.9,145,441.4,154.8z"/>
		<path class="st17" d="M129.3,162.7c-0.6,0.1,2.4,6.9,1.5,15.2c-2.3,19.8-25.7,29.5-21.7,36.8c1.4,2.7,5.8,3.8,8.9,3.5
			c10.5-1.1,17.7-20.7,16.8-36.4C134.1,171.4,130,162.6,129.3,162.7z"/>
		<path class="st17" d="M8.3,222.6c-6.6-2-2.7-16.3-4.7-46.6c-0.7-10.5-1.4-11.5-1.3-18.7c0.1-11.8,0.3-30.9,12.1-35.6
			c3.4-1.3,8.1-1.7,8.6-0.7c0.6,1.1-4.9,3.7-7.8,6c-10.9,8.9-1.1,31,6.9,70.9c1.1,5.6,2.9,15.4-3.9,21.2
			C17.8,219.5,12.5,223.9,8.3,222.6z"/>
		<path class="st17" d="M233.6,177.4c1.3-0.5,6.3,1.8,10.4,4.9c14.8,11.4,11.6,30.1-0.5,33.8c-0.6,0.2-4,1.2-6.3,0.5
			c-3.2-1.1-2.6-5.1-1.3-7.7c1.6-3.1,4.5-4.6,6.2-6C251.4,194.7,230.4,178.6,233.6,177.4z"/>
		<path class="st17" d="M696.4,214.1c0.7,0.6,4,3.1,2.6,4.8c-1.5,1.8-7.6,2.2-9.8,1.9c-17.6-1.8-15.3-61.6-11.9-61.7
			C680.2,159.1,685.2,205.1,696.4,214.1z"/>
		<path class="st17" d="M1536,89c-1.5,2.4-4.6,7.2-4.9,13.2c-0.4,8.2,4.8,12.4,7.8,18.6c10.6,21.4-12.8,47.5-3.4,55.7
			c2.4,2.1,6,2.2,8.3,1.5c10.2-3.2,16-28.8,8.8-48.9c-5.3-14.7-14.2-17.4-13.7-29.3c0.6-12,10.2-20.3,8.8-21.5
			C1546.7,77.4,1540.4,82.1,1536,89z"/>
		<path class="st17" d="M1595.4,180.2c6.9-2.9,7.2-13.3,9.8-36.1c4.2-37.1,7.3-43.5,4.4-60.6c-2-11.5-5.9-23.7-7.8-23.4
			c-2.2,0.3,1.3,17.3-0.5,38.6c-3.8,44.8-28.1,69.9-18.1,79.6C1586.4,181.4,1591.9,181.7,1595.4,180.2z"/>
		<path class="st17" d="M1582.2,59.1c-3.3-0.6-34.2,115.9-18.6,122.1c2.5,1,5.6-1.1,6.8-2c11.1-7.6,6.1-29.7,4.9-52.8
			C1573.1,85.1,1583.8,59.4,1582.2,59.1z"/>
		<path class="st17" d="M1616.5,57c2.5-0.6,17.3,31.8,14.7,72.3c-1.1,17.3-6.3,49.2-17.6,50.8c-4.2,0.6-9.2-3.1-10.7-7.3
			c-2.8-7.9,6.6-17.5,10.3-22C1637.9,120.3,1613.1,57.8,1616.5,57z"/>
		<path class="st17" d="M1592,60.2c-2.7-0.5-13.7,21.9-12.2,48.4c1.1,18.7,7.9,30.6,20.5,52.8c6.6,11.6,12.4,19,21.5,21.5
			c5.1,1.4,12.3,1.5,13.7-1.5c1.7-3.7-6.6-9.7-16.6-21c0,0-9.6-10.8-19.5-27.4C1580.2,101.2,1595.6,60.9,1592,60.2z"/>
		<path class="st17" d="M1634.1,195.2c7.7-2.1,3.1-17.1,5.5-48.8c0.8-11,1.6-12.1,1.5-19.6c-0.2-12.4-0.4-32.4-14.1-37.4
			c-3.9-1.4-9.4-1.7-10.1-0.7c-0.7,1.1,5.4,3.1,9,6.3c14,12.2,8.9,54.1-1.9,79.8c-1.5,3.5-5.2,11.7-1.6,16.7
			C1624.8,194.8,1630.1,196.3,1634.1,195.2z"/>
		<path class="st17" d="M1558.5,180.6c7.6-3,3.1-23.7,5.5-67.9c0.8-15.3,1.6-16.8,1.5-27.3c-0.2-17.2-0.4-45.1-14-51.9
			c-3.9-2-9.3-2.4-10-1c-0.8,1.7,5.8,5.7,9,8.7c19.1,18.2,2.3,82.1-5.1,110.4c-1.2,4.7-4.4,16.6,1.6,23.8
			C1549.5,178.4,1554.6,182.1,1558.5,180.6z"/>
		<path class="st17" d="M1479.8,49.9c3.2,0.1,6.2,35.6,1.5,72.8c-2.7,21.1-6.3,49.1-19.5,52.3c-7.8,1.9-18.7-4.9-18.6-9.8
			c0.1-3.3,5.2-4.7,9.3-7.3c13.4-8.5,13.8-27.9,17.6-57.2C1472.2,83.9,1476.6,49.8,1479.8,49.9z"/>
		<path class="st17" d="M1457.1,176.9c-18.3,0.8-50.3-60.1-25.6-78c4.3-3.1,11.9-6.1,13.8-4.9c2.4,1.5-7.3,8.4-11.3,19.3
			c-4.6,12.3-2.2,30.2,12.3,39.7c9.7,6.3,19.9,5.7,21.7,11.2C1469.6,169.3,1463.3,176.6,1457.1,176.9z"/>
		<path class="st17" d="M1466.4,179.9c-2.2,1.5-7.1,1.3-10.1-0.7c-7.2-4.6,2-15.5,0-34.8c-1.3-12.4-6.4-20.9-4.6-21.4
			c1.5-0.5,6.2,5.8,8.9,10.7c1,1.9,3.8,7.2,5.1,15.4c1.5,9.7-1.2,9.8,0.4,19.4C1467,174.9,1468.7,178.2,1466.4,179.9z"/>
		<path class="st17" d="M1829.7,122.1c-2.5-0.4-17.4,22.8-14.8,52c1.1,12.5,6.3,35.4,17.7,36.5c4.3,0.4,9.3-2.2,10.8-5.3
			c2.8-5.7-6.7-12.6-10.3-15.8C1808.1,167.6,1833.1,122.7,1829.7,122.1z"/>
		<path class="st17" d="M1815.2,109.6c2.7-0.4,13.8,15.8,12.3,34.8c-1.1,13.4-8,22-20.7,37.9c-6.7,8.3-12.5,13.7-21.7,15.5
			c-5.2,1-12.4,1.1-13.8-1.1c-1.7-2.6,6.6-7,16.8-15.1c0,0,9.7-7.8,19.7-19.7C1827,139.1,1811.5,110.1,1815.2,109.6z"/>
		<path class="st17" d="M1869.4,137.9c-1.5,1.7-4.7,5.2-4.9,9.5c-0.4,5.9,4.8,8.9,7.9,13.3c10.6,15.4-12.9,34.2-3.4,40
			c2.4,1.5,6,1.6,8.4,1.1c10.3-2.3,16.1-20.7,8.9-35.1c-5.3-10.5-14.4-12.5-13.8-21.1s10.3-14.6,8.9-15.5
			C1880.3,129.6,1873.8,132.9,1869.4,137.9z"/>
		<path class="st17" d="M1882.3,143.1c-1.6-2.2-15.9,2.8-25.9,14.1c-11.2,12.7-17.3,33.7-9,46.2c2.9,4.4,9.4,10.3,14.9,8.5
			c4.1-1.3,7.3-6.7,6.5-11c-1.3-7-12-6.3-14.9-12.5C1847.6,174.9,1885.3,147.1,1882.3,143.1z"/>
		<path class="st17" d="M1891.9,203.4c4.4,1.1,10.4-1.5,13.3-4.6c8.9-9.4-13.5-22.1-5.9-38.3c2.5-5.3,7.8-10.1,5.9-11.2
			c-1.3-0.8-5.5,0.5-8.4,2.5c-11,7.3-6.3,26-5.4,29.5c0.7,2.6,1.7,5.5,0,8.8c-1.8,3.5-4.9,4.5-4.9,7.4
			C1886.5,199.9,1888.8,202.6,1891.9,203.4z"/>
		<path class="st17" d="M1923.1,117.8c-3.3-0.4-34.5,83.3-18.7,87.8c2.5,0.7,5.6-0.8,6.9-1.4c11.2-5.4,6.2-21.3,4.9-37.9
			C1913.9,136.6,1924.6,118,1923.1,117.8z"/>
		<path class="st17" d="M1888.4,152.6c0.6,0.1-2.4,6.9-1.5,15.2c2.3,19.8,25.7,29.5,21.7,36.8c-1.4,2.7-5.8,3.8-8.9,3.5
			c-10.5-1.1-17.7-20.7-16.8-36.4C1883.5,161.3,1887.6,152.5,1888.4,152.6z"/>
		<path class="st17" d="M1858.5,147c19.7,19,15.9,53.6,5.5,56c-2.2,0.5-4.9-0.5-6.3-1.7c-4.5-3.8,0.9-11.3,3-19.1
			c5.3-20.3-13.2-38.3-9.7-39.9C1852.8,141.5,1858,146.5,1858.5,147z"/>
		<path class="st17" d="M1791.3,197.8c2.4,1.3,5.8-0.9,6.4-1.3c1.2-0.8,6.5-4.5,6.4-19.1c-0.3-25.5-16.7-33.8-12.2-48.9
			c3.2-10.8,14.3-15.7,13.8-16.4c-0.6-0.7-14.8,4.6-18,16.4c-2.8,10.5,4,15.1,4.9,33.4C1793.5,181.7,1786.4,195.1,1791.3,197.8z"/>
		<path class="st17" d="M1787.9,202.3c4.4,2,14.3-0.9,17.2-5.6c3.1-5-4-8-8.4-19.3c-4.7-12.1,0.2-16.7-6.9-28.5
			c-2.5-4.2-6-8.3-6.9-8.1c-1.1,0.3,2.1,6.3,3.9,14.4c1.5,6.7,1.3,11.6,1,20.4C1787.1,194.6,1783.5,200.3,1787.9,202.3z"/>
		<path class="st17" d="M1802.2,143.6c-1.4-1.2-8.8,4.7-13.8,11.7c-1.8,2.6-4.1,6.4-6.4,13.7c-3,9.4-8.9,28.1-2,33.6
			c4.1,3.2,12.4,1.5,14.3-2.5s-3.7-7.9-5.9-15.3C1782.9,166.4,1804.7,145.7,1802.2,143.6z"/>
		<path class="st17" d="M1773.9,169.8c-1.1,1.2-2.9,3.4-5.1,11.8c-3.5,13.4-1,16,1.3,17.3c1.7,1,4.6,2.2,6.4,1.7
			c3.1-0.9,0-6.4-0.9-11.6c-2.6-14.9,13.2-25.8,10.2-26.7C1784,161.8,1777.6,165.8,1773.9,169.8z"/>
		<path class="st17" d="M1856.2,126.9c-2.5-0.4-17.4,22.8-14.8,52c1.1,12.5,6.3,35.4,17.7,36.5c4.3,0.4,9.3-2.2,10.8-5.3
			c2.8-5.7-6.7-12.6-10.3-15.8C1834.6,172.3,1859.7,127.4,1856.2,126.9z"/>
		<path class="st17" d="M1839.3,174.7c3.4,21.2-16.3,43.2-27.1,42.3c-4.7-0.4-8.8-5.2-9-9.1c-0.2-3.6,2.8-6.3,6.2-9.5
			c0,0,9-8.5,15.8-16.4c14-16.3-38.6-52.7-34.9-54.8c2.1-1.2,22.1,8.8,36.1,24.8C1831.6,157.8,1837.7,164.9,1839.3,174.7z"/>
		<path class="st17" d="M1514.6,106.1c2.5-0.4,17.4,22.8,14.8,52c-1.1,12.5-6.3,35.4-17.7,36.5c-4.3,0.4-9.3-2.2-10.8-5.3
			c-2.8-5.7,6.7-12.6,10.3-15.8C1536.2,151.6,1511.2,106.7,1514.6,106.1z"/>
		<path class="st17" d="M1529.1,93.6c-2.7-0.4-13.8,15.8-12.3,34.8c1.1,13.4,8,22,20.7,37.9c6.7,8.3,12.5,13.7,21.7,15.5
			c5.2,1,12.4,1.1,13.8-1.1c1.7-2.6-6.6-7-16.8-15.1c0,0-9.7-7.8-19.7-19.7C1517.3,123.1,1532.8,94.1,1529.1,93.6z"/>
		<path class="st17" d="M1474.9,121.9c1.5,1.7,4.7,5.2,4.9,9.5c0.4,5.9-4.8,8.9-7.9,13.3c-10.6,15.4,12.9,34.2,3.4,40
			c-2.4,1.5-6,1.6-8.4,1.1c-10.3-2.3-16.1-20.7-8.9-35.1c5.3-10.5,14.4-12.5,13.8-21.1s-10.3-14.6-8.9-15.5
			C1464.1,113.6,1470.5,116.9,1474.9,121.9z"/>
		<path class="st17" d="M1462,127.1c1.6-2.2,15.9,2.8,25.9,14.1c11.2,12.7,17.3,33.7,9,46.2c-2.9,4.4-9.4,10.3-14.9,8.5
			c-4.1-1.3-7.3-6.7-6.5-11c1.3-7,12-6.3,14.9-12.5C1496.7,158.9,1459,131.1,1462,127.1z"/>
		<path class="st17" d="M1452.4,187.4c-4.4,1.1-10.4-1.5-13.3-4.6c-8.9-9.4,13.5-22.1,5.9-38.3c-2.5-5.3-7.8-10.1-5.9-11.2
			c1.3-0.8,5.5,0.5,8.4,2.5c11,7.3,6.3,26,5.4,29.5c-0.7,2.6-1.7,5.5,0,8.8c1.8,3.5,4.9,4.5,4.9,7.4
			C1457.8,183.9,1455.5,186.6,1452.4,187.4z"/>
		<path class="st17" d="M1421.2,101.8c3.3-0.4,34.5,83.3,18.7,87.8c-2.5,0.7-5.6-0.8-6.9-1.4c-11.2-5.4-6.2-21.3-4.9-37.9
			C1430.4,120.6,1419.7,102,1421.2,101.8z"/>
		<path class="st17" d="M1456,136.6c-0.6,0.1,2.4,6.9,1.5,15.2c-2.3,19.8-25.7,29.5-21.7,36.8c1.4,2.7,5.8,3.8,8.9,3.5
			c10.5-1.1,17.7-20.7,16.8-36.4C1460.8,145.3,1456.7,136.5,1456,136.6z"/>
		<path class="st17" d="M1485.8,131c-19.7,19-15.9,53.6-5.5,56c2.2,0.5,4.9-0.5,6.3-1.7c4.5-3.8-0.9-11.3-3-19.1
			c-5.3-20.3,13.2-38.3,9.7-39.9C1491.5,125.5,1486.3,130.5,1485.8,131z"/>
		<path class="st17" d="M1553,181.8c-2.4,1.3-5.8-0.9-6.4-1.3c-1.2-0.8-6.5-4.5-6.4-19.1c0.3-25.5,16.7-33.8,12.2-48.9
			c-3.2-10.8-14.3-15.7-13.8-16.4c0.6-0.7,14.8,4.6,18,16.4c2.8,10.5-4,15.1-4.9,33.4C1550.8,165.7,1557.9,179.1,1553,181.8z"/>
		<path class="st17" d="M1556.4,186.3c-4.4,2-14.3-0.9-17.2-5.6c-3.1-5,4-8,8.4-19.3c4.7-12.1-0.2-16.7,6.9-28.5
			c2.5-4.2,6-8.3,6.9-8.1c1.1,0.3-2.1,6.3-3.9,14.4c-1.5,6.7-1.3,11.6-1,20.4C1557.2,178.6,1560.8,184.3,1556.4,186.3z"/>
		<path class="st17" d="M1542.1,127.6c1.4-1.2,8.8,4.7,13.8,11.7c1.8,2.6,4.1,6.4,6.4,13.7c3,9.4,8.9,28.1,2,33.6
			c-4.1,3.2-12.4,1.5-14.3-2.5s3.7-7.9,5.9-15.3C1561.4,150.4,1539.6,129.7,1542.1,127.6z"/>
		<path class="st17" d="M1570.4,153.8c1.1,1.2,2.9,3.4,5.1,11.8c3.5,13.4,1,16-1.3,17.3c-1.7,1-4.6,2.2-6.4,1.7
			c-3.1-0.9,0-6.4,0.9-11.6c2.6-14.9-13.2-25.8-10.2-26.7C1560.3,145.8,1566.7,149.8,1570.4,153.8z"/>
		<path class="st17" d="M1488.1,110.9c2.5-0.4,17.4,22.8,14.8,52c-1.1,12.5-6.3,35.4-17.7,36.5c-4.3,0.4-9.3-2.2-10.8-5.3
			c-2.8-5.7,6.7-12.6,10.3-15.8C1509.7,156.3,1484.6,111.4,1488.1,110.9z"/>
		<path class="st17" d="M1505,158.7c-3.4,21.2,16.3,43.2,27.1,42.3c4.7-0.4,8.8-5.2,9-9.1c0.2-3.6-2.8-6.3-6.2-9.5
			c0,0-9-8.5-15.8-16.4c-14-16.3,38.6-52.7,34.9-54.8c-2.1-1.2-22.1,8.8-36.1,24.8C1512.7,141.8,1506.6,148.9,1505,158.7z"/>
		<path class="st17" d="M1787.1,140.6c-1.4-1.2-8.8,4.7-13.8,11.7c-1.8,2.6-4.1,6.4-6.4,13.7c-3,9.4-8.9,28.1-2,33.6
			c4.1,3.2,12.4,1.5,14.3-2.5s-3.7-7.9-5.9-15.3C1767.8,163.4,1789.6,142.8,1787.1,140.6z"/>
		<path class="st17" d="M1655.8,120.7c2.5-0.4,17.4,22.8,14.8,52c-1.1,12.5-6.3,35.4-17.7,36.5c-4.3,0.4-9.3-2.2-10.8-5.3
			c-2.8-5.7,6.7-12.6,10.3-15.8C1677.4,166.1,1652.4,121.2,1655.8,120.7z"/>
		<path class="st17" d="M1658.3,130.1c-2.7-0.4-13.8,15.8-12.3,34.8c1.1,13.4,8,22,20.7,37.9c6.7,8.3,12.5,13.7,21.7,15.5
			c5.2,1,12.4,1.1,13.8-1.1c1.7-2.6-6.6-7-16.8-15.1c0,0-9.7-7.8-19.7-19.7C1646.4,159.6,1661.9,130.7,1658.3,130.1z"/>
		<path class="st17" d="M1684.9,187.5c0.8,0.2,2.4,0.4,4.9,0c7.1-1.2,14.4-6.4,14.8-11.9c0.4-4.8-4.7-6-8.4-11.9
			c-4-6.6-2.4-12.8,0.5-22.8c4.6-16.2,13-25.9,11.8-26.3c-1.1-0.4-9.4,7.3-15.3,17.6c-5.2,9.2-11.9,20.8-5.9,32
			c2.9,5.3,7.8,9,5.4,11.6c-2.9,3.2-12.6,0.4-14.8,3.5C1676.3,181.5,1679.8,186.4,1684.9,187.5z"/>
		<path class="st17" d="M1725.8,192.1c-4,2.5-12.3,1.8-14.8-0.7c-2.4-2.5,2.3-5.7,3-13c0.4-5.1-1.4-9-2.5-11.2
			c-3.9-8.2-11.4-13.2-15.3-15.8c-6.2-4.1-7.4-3.3-10.8-6.3c-8-7.1-7.7-17-6.4-17.2c0.9-0.2,1.9,4.6,6.4,10.5
			c9.4,12.3,20.6,12.2,31.5,22.1C1728.9,171.3,1733.1,187.6,1725.8,192.1z"/>
		<path class="st17" d="M1764.7,128.7c1.5,1.7,4.7,5.2,4.9,9.5c0.4,5.9-4.8,8.9-7.9,13.3c-10.6,15.4,12.9,34.2,3.4,40
			c-2.4,1.5-6,1.6-8.4,1.1c-10.3-2.3-16.1-20.7-8.9-35.1c5.3-10.5,14.4-12.5,13.8-21.1s-10.3-14.6-8.9-15.5
			C1753.8,120.4,1760.2,123.8,1764.7,128.7z"/>
		<path class="st17" d="M1743.1,188.2c-4.4,1.1-10.4-1.5-13.3-4.6c-8.9-9.4,13.5-22.1,5.9-38.3c-2.5-5.3-7.8-10.1-5.9-11.2
			c1.3-0.8,5.5,0.5,8.4,2.5c11,7.3,6.3,26,5.4,29.5c-0.7,2.6-1.7,5.5,0,8.8c1.8,3.5,4.9,4.5,4.9,7.4
			C1748.5,184.7,1746.2,187.4,1743.1,188.2z"/>
		<path class="st17" d="M1718,115.6c3.3-0.4,34.5,83.3,18.7,87.8c-2.5,0.7-5.6-0.8-6.9-1.4c-11.2-5.4-6.2-21.3-4.9-37.9
			C1727.1,134.4,1716.4,115.9,1718,115.6z"/>
		<path class="st17" d="M1659.2,124.6c1.5-0.5,52.1,56.4,35.5,67.8c-3.2,2.2-9.3,3-12.3,1.4c-6-3.1,3.6-13.7-1-28.8
			c-0.6-1.9-0.9-2.2-6.4-11.9C1664.3,134.1,1658.9,124.7,1659.2,124.6z"/>
		<path class="st17" d="M1654,211.2c-2.5,1.6-8.3,1.3-11.8-0.7c-8.4-4.9,2.3-16.2,0-36.5c-1.5-13-7.4-21.9-5.4-22.5
			c1.8-0.5,7.2,6.1,10.3,11.2c1.2,2,4.4,7.6,5.9,16.2c1.8,10.2-1.4,10.3,0.5,20.4C1654.7,205.9,1656.8,209.4,1654,211.2z"/>
		<path class="st17" d="M1675.9,141.6c0.6,0.1-2.4,6.9-1.5,15.2c2.3,19.8,25.7,29.5,21.7,36.8c-1.4,2.7-5.8,3.8-8.9,3.5
			c-10.5-1.1-17.7-20.7-16.8-36.4C1671.1,150.4,1675.2,141.5,1675.9,141.6z"/>
		<path class="st17" d="M1742.7,153.4c-0.6,0.1,2.4,6.9,1.5,15.2c-2.3,19.8-25.7,29.5-21.7,36.8c1.4,2.7,5.8,3.8,8.9,3.5
			c10.5-1.1,17.7-20.7,16.8-36.4C1747.5,162.1,1743.4,153.3,1742.7,153.4z"/>
		<path class="st17" d="M1764.5,151.8c-19.7,19-15.9,53.6-5.5,56c2.2,0.5,4.9-0.5,6.3-1.7c4.5-3.8-0.9-11.3-3-19.1
			c-5.3-20.3,13.2-38.3,9.7-39.9C1770.2,146.3,1765,151.3,1764.5,151.8z"/>
		<path class="st17" d="M1678.2,230.4c2.4,1.8,8.2,2,11.8,0.2c8.8-4.2-1-16.4,2.9-36.4c2.5-12.9,9.1-21.3,7.2-22
			c-1.7-0.6-7.7,5.5-11.2,10.4c-1.4,1.9-5,7.2-7.2,15.6c-2.6,10,0.6,10.4-2.1,20.3C1677.9,225.1,1675.6,228.4,1678.2,230.4z"/>
		<path class="st17" d="M860.4,192.4c6-2,6.2-9.1,8.4-24.8c3.7-25.5,6.3-29.8,3.8-41.5c-1.7-7.9-5.1-16.3-6.8-16.1
			c-1.9,0.2,1.2,11.9-0.4,26.5c-3.3,30.7-24.3,47.9-15.6,54.6C852.7,193.2,857.4,193.4,860.4,192.4z"/>
	</g>
	<g id="VGras">
		<path class="st17" d="M1355.9,216.5c18.3,0.8,50.3-60.1,25.6-78c-4.3-3.1-11.9-6.1-13.8-4.9c-2.4,1.5,7.3,8.4,11.3,19.3
			c4.6,12.3,2.2,30.2-12.3,39.7c-9.7,6.3-19.9,5.7-21.7,11.2C1343.4,208.9,1349.7,216.2,1355.9,216.5z"/>
		<path class="st17" d="M1343.6,215.6c2.2,1.5,7.1,1.3,10.1-0.7c7.2-4.6-2-15.5,0-34.8c1.3-12.4,6.4-20.9,4.6-21.4
			c-1.5-0.5-6.2,5.8-8.9,10.7c-1,1.9-3.8,7.2-5.1,15.4c-1.5,9.7,1.2,9.8-0.4,19.4C1343,210.5,1341.3,213.9,1343.6,215.6z"/>
		<path class="st17" d="M724.4,219.3c2.2,1.5,7.1,1.3,10.1-0.7c7.2-4.6-2-15.5,0-34.8c1.3-12.4,6.4-20.9,4.6-21.4
			c-1.5-0.5-6.2,5.8-8.9,10.7c-1,1.9-3.8,7.2-5.1,15.4c-1.5,9.7,1.2,9.8-0.4,19.4C723.8,214.3,722.1,217.6,724.4,219.3z"/>
		<path class="st17" d="M890.6,145.2c0.4,0.5-6.3,3.6-11,10.5c-11.2,16.6,0.3,39.1-7.5,42.1c-2.8,1.1-6.9-0.9-9-3.1
			c-7.2-7.7,0.1-27.2,11-38.5C881.3,148.7,890.2,144.6,890.6,145.2z"/>
		<path class="st17" d="M1015.8,200.2c7.7-2.1,3.1-17.1,5.5-48.8c0.8-11,1.6-12.1,1.5-19.6c-0.2-12.4-0.4-32.4-14.1-37.4
			c-3.9-1.4-9.4-1.7-10.1-0.7c-0.7,1.1,5.4,3.1,9,6.3c14,12.2,8.9,54.1-1.9,79.8c-1.5,3.5-5.2,11.7-1.6,16.7
			C1006.5,199.8,1011.8,201.3,1015.8,200.2z"/>
		<path class="st17" d="M862.2,204c-2.2,1.5-7.1,1.3-10.1-0.7c-7.2-4.6,2-15.5,0-34.8c-1.3-12.4-6.4-20.9-4.6-21.4
			c1.5-0.5,6.2,5.8,8.9,10.7c1,1.9,3.8,7.2,5.1,15.4c1.5,9.7-1.2,9.8,0.4,19.4C862.9,198.9,864.6,202.3,862.2,204z"/>
		<path class="st17" d="M1014,149.2c-1.3-0.7-6.3,2.5-10.3,6.9c-14.6,15.9-11.5,41.9,0.5,47c0.6,0.3,4,1.7,6.3,0.7
			c3.2-1.5,2.6-7.1,1.3-10.7c-1.6-4.3-4.5-6.4-6.1-8.4C996.4,173.3,1017.2,150.9,1014,149.2z"/>
		<path class="st17" d="M1178.3,122.1c1.4-1.7,8.8,6.5,13.7,16.3c1.8,3.6,4.1,8.9,6.4,19.1c2.9,13.1,8.8,39.1,2,46.7
			c-4.1,4.5-12.3,2.1-14.2-3.5c-1.9-5.6,3.7-11,5.9-21.2C1197.4,153.7,1175.8,125,1178.3,122.1z"/>
		<path class="st17" d="M1185.9,171.5c19.8,13.6,16.1,38.5,5.5,40.2c-2.3,0.4-4.9-0.3-6.4-1.2c-4.5-2.7,0.9-8.1,3-13.7
			c5.3-14.6-13.3-27.6-9.8-28.7C1180.1,167.6,1185.3,171.1,1185.9,171.5z"/>
		<path class="st17" d="M1695,223.7c-0.7,0.8-4,4.2-2.5,6.7s7.5,3,9.7,2.7c17.4-2.5,15.2-85.7,11.8-85.8
			C1711,147.2,1706.1,211.2,1695,223.7z"/>
		<path class="st17" d="M1668.1,188.6c1.1,1.2,2.9,3.4,5.1,11.8c3.5,13.4,1,16-1.3,17.3c-1.7,1-4.6,2.2-6.4,1.7
			c-3.1-0.9,0-6.4,0.9-11.6c2.6-14.9-13.2-25.8-10.2-26.7C1658,180.6,1664.4,184.6,1668.1,188.6z"/>
		<path class="st17" d="M1772.9,206.1c1.3-0.5,6.3,1.8,10.4,4.9c14.8,11.4,11.6,30.1-0.5,33.8c-0.6,0.2-4,1.2-6.3,0.5
			c-3.2-1.1-2.6-5.1-1.3-7.7c1.6-3.1,4.5-4.6,6.2-6C1790.7,223.4,1769.8,207.3,1772.9,206.1z"/>
	</g>
</g>
<path class="st18" d="M-1.7,261.9c3.7,15.3,76,5,76,5c67.4-9.6,141.8-14.9,191-14c82.4,1.4,79.7,19.6,144,13c48.4-5,69.6-17.3,111-7
	c21.8,5.4,35.9,13.8,70,19c8.5,1.3,27.4,3.8,57,3c69.2-1.8,77.6-18.2,132-19c43.4-0.6,40,9.8,94,10c36.4,0.1,65.7-4.5,93-9
	c70.8-11.6,68.3-20.9,98-19c51,3.3,61.1,31.1,104,26c30.8-3.6,28.9-18.4,64-29c52.6-15.9,67,14.3,153,13c46-0.7,54.1-9.5,97-5
	c18.9,2,34.5,5.5,61,4c31.7-1.8,31.4-8.1,51-7c39,2.1,41.9,26.9,80,29c25.7,1.4,33-9.4,59-3c18.3,4.5,18.2,10.8,35,14
	c24.2,4.6,28.2-7.8,61-9c13.8-0.5,37.1,0.8,61,5c12.4,2.2,22.8,4.7,28-1c4.6-5.1,4.5-16.3-1-22c-10.1-10.3-27.8,8.1-53-1
	c-11.2-4-15.5-10.5-30-12c-8.2-0.9-14.6,0.3-18,1c-23.6,4.6-28.6,18.7-40,16c-1.8-0.4-8.6-7.6-22-22c-9.3-10-13.6-14.6-19-14
	c-3.7,0.4-5,3-10,8c-3.5,3.5-17.6,17.5-31,18c-7.9,0.3-13.8-4.1-18-7c-25.4-17.4-62.8-28.8-90-29c-22.9-0.1-22.1,7.8-45,6
	c-25.1-2-31.2-11.9-51-13c-24.3-1.3-28.8,13-58,22c-34.5,10.6-66.8,2.6-110-8c-38.5-9.5-40.6-16.4-63-16c-32.8,0.6-38.5,15.6-70,20
	c-40,5.6-49.9-16-97-21c-38.7-4.1-39.6,9.6-106,19c-29.3,4.1-26.5,1.1-135,4c-61.4,1.7-92.2,2.5-108,5c-42,6.7-67.8,27.4-96,14
	c-10.1-4.8-15.8-11.3-34.5-18.5c-7.8-3-21.7-7.6-41.5-9.5c-40.8-4-50.4,8.8-88,9c-35.1,0.2-36.6-10.9-75.5-13.5
	c-32.2-2.1-50.1,4.2-81,10c-27.3,5.1-89.3,5.6-213.5,6.5c-24.7,0.2-49.6,4.6-74,1c-12.3-1.8-37.5-6.6-41,1c-1.2,2.6,0.9,4.9,1,14
	C-0.6,257-2.2,259.7-1.7,261.9z"/>
<g id="Gras_00000169538738270670453630000008361171785044691120_">
	<g id="HGras_00000137119574004300889550000009264116229850862477_">
		<path class="st17" d="M1294.9,181.4c1.6,3.6,11.2,4.6,16.6,1.5c19.5-11.3-4.1-83.2-4.9-83c-0.6,0.1,16.7,44.6-2.9,67.9
			C1300,172.1,1293.3,177.8,1294.9,181.4z"/>
		<path class="st17" d="M1296.6,102.5c-0.1,0-14.2,77.7,9.3,88.4c4,1.8,9.8,2.1,11.7-0.5c3.6-4.9-9.9-16.6-17.6-34.2
			C1288,128.8,1296.6,102.5,1296.6,102.5z"/>
		<path class="st17" d="M1442.1,194c-1.6-0.7-0.8-3.5-2-10.7c-1.3-8.1-3-9.2-2-12.2c1.6-4.6,6.2-3.9,8.3-8.3
			c2.1-4.5-1.2-7.9-2.9-16.1c-2.4-11.5,0.7-21.5,1.5-21.5c0.7,0-0.9,8.4,2.9,19.1c2.8,7.8,5.3,8,5.4,12.7c0.1,8-7.4,9.6-7.3,17.6
			c0.1,6.4,5,8.6,3.4,13.7C1448.3,191.9,1444.1,194.8,1442.1,194z"/>
		<path class="st17" d="M1608.8,97.9c-0.4,0,1.6,10.3-1,23c-8.9,43.6-61.4,62.8-56,75.2c1.6,3.6,7.3,5.1,11,4.4
			c7-1.3,9.1-10.9,14.7-21.4c10.2-19.3,18.8-16.7,27-31.8C1616.6,124.9,1609.4,97.9,1608.8,97.9z"/>
		<path class="st17" d="M1390.9,126.1c-0.8-1-17.6,5.6-20,18.1c-1.5,7.6,3.9,9.9,5.9,22c2.7,16.7-5.1,27.2-1.5,29.3
			c3.7,2.2,14.9-6.9,13.7-12.2c-0.6-2.5-3.7-2.5-5.9-6.4c-2-3.5-1-6.5-1-10.7c0-10-5.7-11.9-5.9-19.1
			C1376,135.1,1391.6,127.1,1390.9,126.1z"/>
		<path class="st17" d="M1383.7,177.4c-1,1-3,2.7-5.4,4.4c-4.7,3.2-6.7,3.1-7.3,4.9c-1.3,3.6,4.3,10.9,8.8,10.3
			c3.1-0.4,4.7-4.5,7.3-11.2c2.3-5.8,3-10.1,3.9-14.2c3.6-16.7,6-16.3,6.4-24.4c0.5-10.8-3.2-20.2-4.4-20c-0.6,0.1-0.6,2.5-1.5,19.1
			c-0.5,9.5-0.7,12.2-1.5,16.1C1388.1,172.5,1385.2,176,1383.7,177.4z"/>
		<path class="st17" d="M1322.9,156.4c-0.1,0.9-0.4,3.5,0.5,3.9c1.7,0.8,6.6-5.7,9.3-10.7c7.3-13.5,5.1-28.7,3.9-28.8
			c-1.1-0.1,1.3,14.1-7.3,23.9C1327.7,146.4,1323.7,150.4,1322.9,156.4z"/>
		<path class="st17" d="M1326.2,126.1c-0.6,0.2,2.4,9.6,1.5,21.1c-2.3,27.6-25.4,41-21.5,51.2c1.4,3.7,5.8,5.3,8.8,4.8
			c10.4-1.5,17.5-28.8,16.6-50.6C1331,138.3,1326.9,125.9,1326.2,126.1z"/>
		<path class="st17" d="M1276.8,119.1c0.5,0.1,0.1,3.2,0,9.6c-0.3,35.7,12.2,59.4,6.3,64.3c-1.9,1.6-4.6,0.3-5.2,0
			c-1.9-0.9-6-4.2-7.3-21.9C1268.4,144.2,1275.3,118.7,1276.8,119.1z"/>
		<path class="st17" d="M1289.2,131c-1.3-0.2-5.5,10.5-3.4,21.5c1,5.5,3.9,12.5,5.9,12.2c0.9-0.1,1.3-1.6,1.5-2
			c1-3.1-1.9-5.1-2.4-10.3c-0.1-1.3-0.1-2,0-3.4C1291,143.2,1290.6,131.1,1289.2,131z"/>
		<path class="st17" d="M1321.5,119.3c-0.7,0.4,5.2,7.1,3.4,14.7c-0.5,2.3-1.3,2.4-2,5.4c-1.2,5.1-0.5,10.9,1,11.2
			c1.1,0.2,2.6-2.7,3.4-4.4c1-2.1,3.7-7.5,2.4-14.2C1328.3,124,1322.1,118.9,1321.5,119.3z"/>
		<path class="st17" d="M1545.2,208.7c7.6-3,3.1-23.7,5.5-67.9c0.8-15.3,1.6-16.8,1.5-27.3c-0.2-17.2-0.4-45.1-14-51.9
			c-3.9-2-9.3-2.4-10-1c-0.8,1.7,5.8,5.7,9,8.7c19.1,18.2,2.3,82.1-5.1,110.4c-1.2,4.7-4.4,16.6,1.6,23.8
			C1536.2,206.5,1541.4,210.3,1545.2,208.7z"/>
		<path class="st17" d="M1420.9,195.2c-18.2,1.1-49.9-83.6-25.4-108.4c4.2-4.3,11.8-8.5,13.7-6.8c2.4,2.2-7.2,11.7-11.2,26.9
			c-4.5,17-2.2,42.1,12.2,55.2c9.6,8.7,19.7,7.9,21.5,15.6C1433.2,184.7,1427,194.8,1420.9,195.2z"/>
		<path class="st17" d="M1460.2,114.4c-1.7-2.1-18.8,3.5-26.4,16.6c-13.4,23.3,7.1,63.8,20,63.5c5.3-0.1,10.9-7.1,9.8-11.2
			c-1.3-4.9-11.2-2.3-17.6-8.8c-8.7-8.9-4.4-28.1,0.5-39.1C1452.5,121.9,1461.5,116,1460.2,114.4z"/>
		<path class="st17" d="M1734.1,62.1c2.5-0.6,17.3,31.8,14.7,72.3c-1.1,17.3-6.3,49.2-17.6,50.8c-4.2,0.6-9.2-3.1-10.7-7.3
			c-2.8-7.9,6.6-17.5,10.3-22C1755.5,125.3,1730.7,62.9,1734.1,62.1z"/>
		<path class="st17" d="M1709.6,65.3c-2.7-0.5-13.7,21.9-12.2,48.4c1.1,18.7,7.9,30.6,20.5,52.8c6.6,11.6,12.4,19,21.5,21.5
			c5.1,1.4,12.3,1.5,13.7-1.5c1.7-3.7-6.6-9.7-16.6-21c0,0-9.6-10.8-19.5-27.4C1697.8,106.3,1713.2,66,1709.6,65.3z"/>
		<path class="st17" d="M1068.7,195.5c-4.4,2-14.3-0.9-17.2-5.6c-3.1-5,4-8,8.4-19.3c4.7-12.1-0.2-16.7,6.9-28.5
			c2.5-4.2,6-8.3,6.9-8.1c1.1,0.3-2.1,6.3-3.9,14.4c-1.5,6.7-1.3,11.6-1,20.4C1069.4,187.8,1073.1,193.5,1068.7,195.5z"/>
		<path class="st17" d="M1375.1,94c-2.7-0.9-35.7,62.1-15.1,87.4c2.6,3.3,7.5,7.6,10.3,6.4c5-2.3-2-21.1-2.4-46.4
			C1367.3,111.5,1376.5,94.5,1375.1,94z"/>
		<path class="st17" d="M1371.2,60.1c-2.1-1.1-19.3,18.2-27.8,45.9c-10.5,34.1-6.1,75.1,6.4,78.6c3.6,1,8.3-0.9,10.3-3.9
			c3.7-5.6-2.5-14.1-5.9-23.9c-4-11.6-2.3-21.7,1-42c1.6-9.8,3.6-17.2,5.1-22.6C1366.2,71.1,1372.3,60.7,1371.2,60.1z"/>
		<path class="st17" d="M1432.9,107.5c-22.7,27.6-18.4,78.1-6.4,81.6c2.6,0.7,5.6-0.7,7.3-2.4c5.2-5.5-1.1-16.5-3.4-27.8
			c-6.1-29.5,15.3-55.9,11.2-58.1C1439.5,99.5,1433.5,106.8,1432.9,107.5z"/>
		<path class="st17" d="M1441.2,88.9c2.4-1.1,23.1,25.7,28.3,62c2.5,17,3.4,48.5-8.8,53.2c-5.4,2.1-13.5-1-15.6-5.9
			c-2.4-5.3,3.2-10.9,6.8-19.5c4.5-10.5,3.4-20.2,1-39.1C1448.8,107.1,1439.4,89.7,1441.2,88.9z"/>
		<path class="st17" d="M1472.5,82c3.2,0.1,6.2,35.6,1.5,72.8c-2.7,21.1-6.3,49.1-19.5,52.3c-7.8,1.9-18.7-4.9-18.6-9.8
			c0.1-3.3,5.2-4.7,9.3-7.3c13.4-8.5,13.8-27.9,17.6-57.2C1464.9,116.1,1469.4,82,1472.5,82z"/>
		<path class="st17" d="M1429.8,193c12.7-15.4,7.8-30.4,14.2-63c5-25.5,14.1-47.4,16.1-46.9c2.4,0.6-10.7,32.4-10.3,80.6
			c0.2,21.9,3.1,35.3-5.9,43.8c-10.7,10.2-31.8,7.5-33.2,2.5C1409.7,206.3,1420.6,204.1,1429.8,193z"/>
		<path class="st17" d="M1376.2,115c-0.6,0.2,2.4,9.6,1.5,21.1c-2.3,27.6-25.4,41-21.5,51.2c1.4,3.7,5.8,5.3,8.8,4.8
			c10.4-1.5,17.5-28.8,16.6-50.6C1381,127.2,1376.9,114.8,1376.2,115z"/>
		<path class="st17" d="M1282.5,197.5c-7.6-3-3.1-23.7-5.5-67.9c-0.8-15.3-1.6-16.8-1.5-27.3c0.2-17.2,0.4-45.1,14-51.9
			c4.3-2.1,9.7-2,10-1c0.4,1.1-6.6,3.2-10.5,6.2c-21.2,16.4,2.8,98.5,5.4,107c2.1,6.9,6.6,21.4-0.4,29.8
			C1291.5,195.3,1286.3,199,1282.5,197.5z"/>
		<path class="st17" d="M1331.2,191.4c0.8,0.2,2.4,0.4,4.9,0c7.1-1.2,14.4-6.4,14.8-11.9c0.4-4.8-4.7-6-8.4-11.9
			c-4-6.6-2.4-12.8,0.5-22.8c4.6-16.2,13-25.9,11.8-26.3c-1.1-0.4-9.4,7.3-15.3,17.6c-5.2,9.2-11.9,20.8-5.9,32
			c2.9,5.3,7.8,9,5.4,11.6c-2.9,3.2-12.6,0.4-14.8,3.5C1322.5,185.3,1326,190.3,1331.2,191.4z"/>
		<path class="st17" d="M1411.9,125.6c1.5,1.7,4.7,5.2,4.9,9.5c0.4,5.9-4.8,8.9-7.9,13.3c-10.6,15.4,12.9,34.2,3.4,40
			c-2.4,1.5-6,1.6-8.4,1.1c-10.3-2.3-16.1-20.7-8.9-35.1c5.3-10.5,14.4-12.5,13.8-21.1s-10.3-14.6-8.9-15.5
			C1401,117.3,1407.4,120.6,1411.9,125.6z"/>
		<path class="st17" d="M1315.8,157.5c1.3,1.8,3.4,5,5.9,17.2c4,19.6,1.1,23.3-1.5,25.3c-1.9,1.4-5.4,3.2-7.4,2.5
			c-3.6-1.3-0.1-9.4,1-16.9c3-21.7-15.3-37.7-11.8-39C1304.1,145.8,1311.5,151.7,1315.8,157.5z"/>
		<path class="st17" d="M1337.3,165.9c0.1,0.1,0,0.1,0.2,0.4c1.7,3.2,4.6,9.3,6.2,16.1c1.8,7.5,3.6,15.3-0.5,16.9
			c-2.1,0.8-5.8-0.1-7.4-1.8c-3.1-3.1,2.3-7.5,3.4-13.3s-4.3-6.3-8.9-18.3c-2.3-6.2-2.1-8.7-2-9.5c1-7.3,8-12.7,9.4-12.3
			C1339.6,144.7,1331.7,154.9,1337.3,165.9z"/>
		<path class="st17" d="M1305.5,130.4c1.5-0.5,52.1,56.4,35.5,67.8c-3.2,2.2-9.3,3-12.3,1.4c-6-3.1,3.6-13.7-1-28.8
			c-0.6-1.9-0.9-2.2-6.4-11.9C1310.5,140,1305.2,130.6,1305.5,130.4z"/>
		<path class="st17" d="M1304.2,147.5c0.6,0.1-2.4,6.9-1.5,15.2c2.3,19.8,25.7,29.5,21.7,36.8c-1.4,2.7-5.8,3.8-8.9,3.5
			c-10.5-1.1-17.7-20.7-16.8-36.4C1299.3,156.3,1303.5,147.4,1304.2,147.5z"/>
		<path class="st17" d="M1402.9,174.3c-0.6,0.1,2.4,6.9,1.5,15.2c-2.3,19.8-25.7,29.5-21.7,36.8c1.4,2.7,5.8,3.8,8.9,3.5
			c10.5-1.1,17.7-20.7,16.8-36.4C1407.7,183,1403.6,174.2,1402.9,174.3z"/>
		<path class="st17" d="M1369.8,178.7c-10.1,25.4,7.6,55.4,18.1,53.2c2.3-0.5,4.3-2.4,5.1-4.1c2.5-5.3-5.5-9.9-10.6-16.2
			c-13.2-16.3-3.8-40.4-7.6-40.3C1372.8,171.4,1370.1,178.1,1369.8,178.7z"/>
		<path class="st17" d="M754,189.1c0.8,0.2,2.4,0.4,4.9,0c7.1-1.2,14.4-6.4,14.8-11.9c0.4-4.8-4.7-6-8.4-11.9
			c-4-6.6-2.4-12.8,0.5-22.8c4.6-16.2,13-25.9,11.8-26.3c-1.1-0.4-9.4,7.3-15.3,17.6c-5.2,9.2-11.9,20.8-5.9,32
			c2.9,5.3,7.8,9,5.4,11.6c-2.9,3.2-12.6,0.4-14.8,3.5C745.3,183.1,748.8,188,754,189.1z"/>
		<path class="st17" d="M795.8,187.7c-4,2.5-12.3,1.8-14.8-0.7c-2.4-2.5,2.3-5.7,3-13c0.4-5.1-1.4-9-2.5-11.2
			c-3.9-8.2-11.4-13.2-15.3-15.8c-6.2-4.1-7.4-3.3-10.8-6.3c-8-7.1-7.7-17-6.4-17.2c0.9-0.2,1.9,4.6,6.4,10.5
			c9.4,12.3,20.6,12.2,31.5,22.1C798.9,167,803.1,183.2,795.8,187.7z"/>
		<path class="st17" d="M840.7,127.3c1.5,1.7,4.7,5.2,4.9,9.5c0.4,5.9-4.8,8.9-7.9,13.3c-10.6,15.4,12.9,34.2,3.4,40
			c-2.4,1.5-6,1.6-8.4,1.1c-10.3-2.3-16.1-20.7-8.9-35.1c5.3-10.5,14.4-12.5,13.8-21.1c-0.6-8.6-10.3-14.6-8.9-15.5
			C829.8,119,836.2,122.4,840.7,127.3z"/>
		<path class="st17" d="M1011.6,204.6c2.5,1,5.6-1.7,6.2-2.1c1.1-0.9,5.8-5.3,3.7-19.7c-3.7-25.2-21.1-31.2-18.7-46.7
			c1.7-11.1,12.1-17.5,11.4-18.1s-14.1,6.6-15.6,18.7c-1.3,10.8,6,14.5,9.4,32.5C1011.6,188.3,1006.3,202.6,1011.6,204.6z"/>
		<path class="st17" d="M988.4,195.8c4.4,2,14.3-0.9,17.2-5.6c3.1-5-4-8-8.4-19.3c-4.7-12.1,0.2-16.7-6.9-28.5
			c-2.5-4.2-6-8.3-6.9-8.1c-1.1,0.3,2.1,6.3,3.9,14.4c1.5,6.7,1.3,11.6,1,20.4C987.6,188,984,193.8,988.4,195.8z"/>
		<path class="st17" d="M1000.6,136c-1.4-1.2-8.8,4.7-13.8,11.7c-1.8,2.6-4.1,6.4-6.4,13.7c-3,9.4-8.9,28.1-2,33.6
			c4.1,3.2,12.4,1.5,14.3-2.5c1.9-4-3.7-7.9-5.9-15.3C981.3,158.8,1003.1,138.2,1000.6,136z"/>
		<path class="st17" d="M810.1,142.5c1.6-1.8,15.8,2.3,25.6,11.6c11.1,10.5,17.1,27.9,8.9,38.2c-2.9,3.6-9.3,8.5-14.8,7.1
			c-4.1-1.1-7.2-5.5-6.4-9.1c1.3-5.8,11.9-5.2,14.8-10.4C844.5,168.8,807.2,145.8,810.1,142.5z"/>
		<path class="st17" d="M812.1,189.9c-4.4,1.1-10.4-1.5-13.3-4.6c-8.9-9.4,13.5-22.1,5.9-38.3c-2.5-5.3-7.8-10.1-5.9-11.2
			c1.3-0.8,5.5,0.5,8.4,2.5c11,7.3,6.3,26,5.4,29.5c-0.7,2.6-1.7,5.5,0,8.8c1.8,3.5,4.9,4.5,4.9,7.4
			C817.5,186.3,815.2,189.1,812.1,189.9z"/>
		<path class="st17" d="M1170.7,110.3c-2.5-0.4-17.4,22.8-14.8,52c1.1,12.5,6.3,35.4,17.7,36.5c4.3,0.4,9.3-2.2,10.8-5.3
			c2.8-5.7-6.7-12.6-10.3-15.8C1149.1,155.8,1174.1,110.9,1170.7,110.3z"/>
		<path class="st17" d="M1156.2,97.8c2.7-0.4,13.8,15.8,12.3,34.8c-1.1,13.4-8,22-20.7,37.9c-6.7,8.3-12.5,13.7-21.7,15.5
			c-5.2,1-12.4,1.1-13.8-1.1c-1.7-2.6,6.6-7,16.8-15.1c0,0,9.7-7.8,19.7-19.7C1168,127.3,1152.5,98.3,1156.2,97.8z"/>
		<path class="st17" d="M787,118.3c3.3-0.4,34.5,83.3,18.7,87.8c-2.5,0.7-5.6-0.8-6.9-1.4c-11.2-5.4-6.2-21.3-4.9-37.9
			C796.1,137,785.4,118.5,787,118.3z"/>
		<path class="st17" d="M738.3,142.2c1.5-0.5,52.1,56.4,35.5,67.8c-3.2,2.2-9.3,3-12.3,1.4c-6-3.1,3.6-13.7-1-28.8
			c-0.6-1.9-0.9-2.2-6.4-11.9C743.3,151.8,738,142.3,738.3,142.2z"/>
		<path class="st17" d="M780,156.3c0.6,0.1-2.4,6.9-1.5,15.2c2.3,19.8,25.7,29.5,21.7,36.8c-1.4,2.7-5.8,3.8-8.9,3.5
			c-10.5-1.2-17.7-20.8-16.8-36.4C775.1,165,779.2,156.2,780,156.3z"/>
		<path class="st17" d="M808.5,171.8c-0.1,0.6-0.5,2.5,0.5,2.8c1.7,0.5,6.6-4.1,9.4-7.7c7.3-9.7,5.1-20.6,3.9-20.7
			s1.3,10.2-7.4,17.2C813.3,164.7,809.3,167.5,808.5,171.8z"/>
		<path class="st17" d="M829.3,165.3c-10.7,25.1,6.2,55.6,16.7,53.7c2.3-0.4,4.3-2.3,5.2-4c2.7-5.2-5.2-10-10.2-16.4
			c-12.8-16.6-2.7-40.5-6.6-40.5C832.4,158,829.6,164.6,829.3,165.3z"/>
		<path class="st17" d="M1427.8,186.5c0.7,0.6,4,3.1,2.6,4.8c-1.5,1.8-7.6,2.2-9.8,1.9c-17.6-1.8-15.3-61.6-11.9-61.7
			C1411.6,131.5,1416.5,177.5,1427.8,186.5z"/>
		<path class="st17" d="M804.9,176.8c-0.5,0.1,2.1,4.7,1.3,10.4c-2,13.6-22.2,20.2-18.7,25.3c1.2,1.8,5,2.6,7.7,2.4
			c9.1-0.8,15.3-14.2,14.5-25C809,182.8,805.5,176.7,804.9,176.8z"/>
		<path class="st17" d="M1255.2,186.5c4,2.5,12.3,1.8,14.8-0.7c2.4-2.5-2.3-5.7-3-13c-0.4-5.1,1.4-9,2.5-11.2
			c3.9-8.2,11.4-13.2,15.3-15.8c6.2-4.1,7.4-3.3,10.8-6.3c8-7.1,7.7-17,6.4-17.2c-0.9-0.2-1.9,4.6-6.4,10.5
			c-9.4,12.3-20.6,12.2-31.5,22.1C1252.1,165.7,1247.9,182,1255.2,186.5z"/>
		<path class="st17" d="M1210.4,126.1c-1.5,1.7-4.7,5.2-4.9,9.5c-0.4,5.9,4.8,8.9,7.9,13.3c10.6,15.4-12.9,34.2-3.4,40
			c2.4,1.5,6,1.6,8.4,1.1c10.3-2.3,16.1-20.7,8.9-35.1c-5.3-10.5-14.4-12.5-13.8-21.1s10.3-14.6,8.9-15.5
			C1221.3,117.8,1214.9,121.2,1210.4,126.1z"/>
		<path class="st17" d="M1057.4,134.8c1.4-1.2,8.8,4.7,13.8,11.7c1.8,2.6,4.1,6.4,6.4,13.7c3,9.4,8.9,28.1,2,33.6
			c-4.1,3.2-12.4,1.5-14.3-2.5s3.7-7.9,5.9-15.3C1076.7,157.6,1054.9,136.9,1057.4,134.8z"/>
		<path class="st17" d="M1223.3,131.3c-1.6-2.2-15.9,2.8-25.9,14.1c-11.2,12.7-17.3,33.7-9,46.2c2.9,4.4,9.4,10.3,14.9,8.5
			c4.1-1.3,7.3-6.7,6.5-11c-1.3-7-12-6.3-14.9-12.5C1188.6,163.1,1226.3,135.3,1223.3,131.3z"/>
		<path class="st17" d="M1233,191.6c4.4,1.1,10.4-1.5,13.3-4.6c8.9-9.4-13.5-22.1-5.9-38.3c2.5-5.3,7.8-10.1,5.9-11.2
			c-1.3-0.8-5.5,0.5-8.4,2.5c-11,7.3-6.3,26-5.4,29.5c0.7,2.6,1.7,5.5,0,8.8c-1.8,3.5-4.9,4.5-4.9,7.4
			C1227.6,188.1,1229.8,190.8,1233,191.6z"/>
		<path class="st17" d="M869.4,116.1c2.5-0.4,17.4,22.8,14.8,52c-1.1,12.5-6.3,35.4-17.7,36.5c-4.3,0.4-9.3-2.2-10.8-5.3
			c-2.8-5.7,6.7-12.6,10.3-15.8C891,161.5,865.9,116.6,869.4,116.1z"/>
		<path class="st17" d="M868.9,125.6c-2.7-0.4-13.8,15.8-12.3,34.8c1.1,13.4,8,22,20.7,37.9c6.7,8.3,12.5,13.7,21.7,15.5
			c5.2,1,12.4,1.1,13.8-1.1c1.7-2.6-6.6-7-16.8-15.1c0,0-9.7-7.8-19.7-19.7C857,155,872.5,126.1,868.9,125.6z"/>
		<path class="st17" d="M1264.1,106c-3.3-0.4-34.5,83.3-18.7,87.8c2.5,0.7,5.6-0.8,6.9-1.4c11.2-5.4,6.2-21.3,4.9-37.9
			C1254.9,124.8,1265.7,106.3,1264.1,106z"/>
		<path class="st17" d="M1229.4,140.8c0.6,0.1-2.4,6.9-1.5,15.2c2.3,19.8,25.7,29.5,21.7,36.8c-1.4,2.7-5.8,3.8-8.9,3.5
			c-10.5-1.1-17.7-20.7-16.8-36.4C1224.6,149.5,1228.7,140.7,1229.4,140.8z"/>
		<path class="st17" d="M1199.6,135.2c19.7,19,15.9,53.6,5.5,56c-2.2,0.5-4.9-0.5-6.3-1.7c-4.5-3.8,0.9-11.3,3-19.1
			c5.3-20.3-13.2-38.3-9.7-39.9C1193.8,129.7,1199,134.7,1199.6,135.2z"/>
		<path class="st17" d="M898.5,182.9c0.8,0.2,2.4,0.4,4.9,0c7.1-1.2,14.4-6.4,14.8-11.9c0.4-4.8-4.7-6-8.4-11.9
			c-4-6.6-2.4-12.8,0.5-22.8c4.6-16.2,13-25.9,11.8-26.3c-1.1-0.4-9.4,7.3-15.3,17.6c-5.2,9.2-11.9,20.8-5.9,32
			c2.9,5.3,7.8,9,5.4,11.6c-2.9,3.2-12.6,0.4-14.8,3.5C889.9,176.9,893.4,181.8,898.5,182.9z"/>
		<path class="st17" d="M939.4,187.5c-4,2.5-12.3,1.8-14.8-0.7c-2.4-2.5,2.3-5.7,3-13c0.4-5.1-1.4-9-2.5-11.2
			c-3.9-8.2-11.4-13.2-15.3-15.8c-6.2-4.1-7.4-3.3-10.8-6.3c-8-7.1-7.7-17-6.4-17.2c0.9-0.2,1.9,4.6,6.4,10.5
			c9.4,12.3,20.6,12.2,31.5,22.1C942.5,166.7,946.7,183,939.4,187.5z"/>
		<path class="st17" d="M978.2,124.1c1.5,1.7,4.7,5.2,4.9,9.5c0.4,5.9-4.8,8.9-7.9,13.3c-10.6,15.4,12.9,34.2,3.4,40
			c-2.4,1.5-6,1.6-8.4,1.1c-10.3-2.3-16.1-20.7-8.9-35.1c5.3-10.5,14.4-12.5,13.8-21.1c-0.6-8.6-10.3-14.6-8.9-15.5
			C967.3,115.8,973.7,119.2,978.2,124.1z"/>
		<path class="st17" d="M1132.3,186c2.4,1.3,5.8-0.9,6.4-1.3c1.2-0.8,6.5-4.5,6.4-19.1c-0.3-25.5-16.7-33.8-12.2-48.9
			c3.2-10.8,14.3-15.7,13.8-16.4c-0.6-0.7-14.8,4.6-18,16.4c-2.8,10.5,4,15.1,4.9,33.4C1134.5,169.9,1127.4,183.3,1132.3,186z"/>
		<path class="st17" d="M1128.9,190.5c4.4,2,14.3-0.9,17.2-5.6c3.1-5-4-8-8.4-19.3c-4.7-12.1,0.2-16.7-6.9-28.5
			c-2.5-4.2-6-8.3-6.9-8.1c-1.1,0.3,2.1,6.3,3.9,14.4c1.5,6.7,1.3,11.6,1,20.4C1128.2,182.8,1124.5,188.5,1128.9,190.5z"/>
		<path class="st17" d="M1143.2,131.8c-1.4-1.2-8.8,4.7-13.8,11.7c-1.8,2.6-4.1,6.4-6.4,13.7c-3,9.4-8.9,28.1-2,33.6
			c4.1,3.2,12.4,1.5,14.3-2.5s-3.7-7.9-5.9-15.3C1123.9,154.6,1145.7,133.9,1143.2,131.8z"/>
		<path class="st17" d="M919.7,153.4c0.1,0.1,0,0.1,0.2,0.4c1.7,3.2,4.6,9.3,6.2,16.1c1.8,7.5,3.6,15.3-0.5,16.9
			c-2.1,0.8-5.8-0.1-7.4-1.8c-3.1-3.1,2.3-7.5,3.4-13.3s-4.3-6.3-8.9-18.3c-2.3-6.2-2.1-8.7-2-9.5c1-7.3,8-12.7,9.4-12.3
			C922,132.2,914,142.4,919.7,153.4z"/>
		<path class="st17" d="M956.6,183.6c-4.4,1.1-10.4-1.5-13.3-4.6c-8.9-9.4,13.5-22.1,5.9-38.3c-2.5-5.3-7.8-10.1-5.9-11.2
			c1.3-0.8,5.5,0.5,8.4,2.5c11,7.3,6.3,26,5.4,29.5c-0.7,2.6-1.7,5.5,0,8.8c1.8,3.5,4.9,4.5,4.9,7.4
			C962,180.1,959.8,182.8,956.6,183.6z"/>
		<path class="st17" d="M931.5,111c3.3-0.4,34.5,83.3,18.7,87.8c-2.5,0.7-5.6-0.8-6.9-1.4c-11.2-5.4-6.2-21.3-4.9-37.9
			C940.7,129.8,929.9,111.3,931.5,111z"/>
		<path class="st17" d="M872.8,120c1.5-0.5,52.1,56.4,35.5,67.8c-3.2,2.2-9.3,3-12.3,1.4c-6-3.1,3.6-13.7-1-28.8
			c-0.6-1.9-0.9-2.2-6.4-11.9C877.9,129.5,872.5,120.1,872.8,120z"/>
		<path class="st17" d="M860.5,205.6c-2.5,1.6-8.3,1.3-11.8-0.7c-8.4-4.9,2.3-16.2,0-36.5c-1.5-13-7.4-21.9-5.4-22.5
			c1.8-0.5,7.2,6.1,10.3,11.2c1.2,2,4.4,7.6,5.9,16.2c1.8,10.2-1.4,10.3,0.5,20.4C861.3,200.3,863.3,203.8,860.5,205.6z"/>
		<path class="st17" d="M889.5,137c0.6,0.1-2.4,6.9-1.5,15.2c2.3,19.8,25.7,29.5,21.7,36.8c-1.4,2.7-5.8,3.8-8.9,3.5
			c-10.5-1.1-17.7-20.7-16.8-36.4C884.7,145.8,888.8,136.9,889.5,137z"/>
		<path class="st17" d="M956.2,148.8c-0.6,0.1,2.4,6.9,1.5,15.2c-2.3,19.8-25.7,29.5-21.7,36.8c1.4,2.7,5.8,3.8,8.9,3.5
			c10.5-1.1,17.7-20.7,16.8-36.4C961,157.5,956.9,148.7,956.2,148.8z"/>
		<path class="st17" d="M1395.3,177.9c-1.3-0.7-6.3,2.5-10.3,6.9c-14.6,15.9-11.5,41.9,0.5,47c0.6,0.3,4,1.7,6.3,0.7
			c3.2-1.5,2.6-7.1,1.3-10.7c-1.6-4.3-4.5-6.4-6.1-8.4C1377.6,201.9,1398.4,179.5,1395.3,177.9z"/>
		<path class="st17" d="M900.6,207.1c-0.7,0.8-4,4.2-2.5,6.7s7.5,3,9.7,2.7c17.4-2.5,15.2-85.7,11.8-85.8
			C916.6,130.6,911.7,194.6,900.6,207.1z"/>
		<path class="st17" d="M978,147.2c-19.7,19-15.9,53.6-5.5,56c2.2,0.5,4.9-0.5,6.3-1.7c4.5-3.8-0.9-11.3-3-19.1
			c-5.3-20.3,13.2-38.3,9.7-39.9C983.8,141.7,978.6,146.7,978,147.2z"/>
		<path class="st17" d="M922.3,166.8c-0.7,0-1.7,8.8-0.4,17.8c0.4,3,0.9,4.2,1.7,4.4c1.4,0.2,4.1-2.8,4.2-6c0.2-3.3-2.4-4.1-4.2-9
			C921.9,169.6,922.7,166.8,922.3,166.8z"/>
		<path class="st17" d="M881.7,184c1.1,1.2,2.9,3.4,5.1,11.8c3.5,13.4,1,16-1.3,17.3c-1.7,1-4.6,2.2-6.4,1.7
			c-3.1-0.9,0-6.4,0.9-11.6c2.6-14.9-13.2-25.8-10.2-26.7C871.6,176,878,180,881.7,184z"/>
		<path class="st17" d="M1098.1,188.9c-0.8,0.2-2.4,0.4-4.9,0c-7.1-1.2-14.4-6.4-14.8-11.9c-0.4-4.8,4.7-6,8.4-11.9
			c4-6.6,2.4-12.8-0.5-22.8c-4.6-16.2-13-25.9-11.8-26.3c1.1-0.4,9.4,7.3,15.3,17.6c5.2,9.2,11.9,20.8,5.9,32
			c-2.9,5.3-7.8,9-5.4,11.6c2.9,3.2,12.6,0.4,14.8,3.5C1106.7,182.9,1103.2,187.8,1098.1,188.9z"/>
		<path class="st17" d="M1045.2,190.5c4,2.5,12.3,1.8,14.8-0.7c2.4-2.5-2.3-5.7-3-13c-0.4-5.1,1.4-9,2.5-11.2
			c3.9-8.2,11.4-13.2,15.3-15.8c6.2-4.1,7.4-3.3,10.8-6.3c8-7.1,7.7-17,6.4-17.2c-0.9-0.2-1.9,4.6-6.4,10.5
			c-9.4,12.3-20.6,12.2-31.5,22.1C1042.1,169.7,1037.9,186,1045.2,190.5z"/>
		<path class="st17" d="M997.4,149.1c-1.5,1.7-4.7,5.2-4.9,9.5c-0.4,5.9,4.8,8.9,7.9,13.3c10.6,15.4-12.9,34.2-3.4,40
			c2.4,1.5,6,1.6,8.4,1.1c10.3-2.3,16.1-20.7,8.9-35.1c-5.3-10.5-14.4-12.5-13.8-21.1c0.6-8.6,10.3-14.6,8.9-15.5
			C1008.3,140.8,1001.9,144.2,997.4,149.1z"/>
		<path class="st17" d="M849.3,217c-2.4,1.3-5.8-0.9-6.4-1.3c-1.2-0.8-6.5-4.5-6.4-19.1c0.3-25.5,16.7-33.8,12.2-48.9
			c-3.2-10.8-14.3-15.7-13.8-16.4c0.6-0.7,14.8,4.6,18,16.4c2.8,10.5-4,15.1-4.9,33.4C847.1,200.9,854.2,214.3,849.3,217z"/>
		<path class="st17" d="M1108.5,143c-1.3,1.8-3.4,5-5.9,17.2c-4,19.6-1.1,23.3,1.5,25.3c1.9,1.4,5.4,3.2,7.4,2.5
			c3.6-1.3,0.1-9.4-1-16.9c-3-21.7,15.3-37.7,11.8-39C1120.1,131.3,1112.8,137.2,1108.5,143z"/>
		<path class="st17" d="M1079.9,161.4c-0.1,0.1,0,0.1-0.2,0.4c-1.7,3.2-4.6,9.3-6.2,16.1c-1.8,7.5-3.6,15.3,0.5,16.9
			c2.1,0.8,5.8-0.1,7.4-1.8c3.1-3.1-2.3-7.5-3.4-13.3s4.3-6.3,8.9-18.3c2.3-6.2,2.1-8.7,2-9.5c-1-7.3-8-12.7-9.4-12.3
			C1077.6,140.2,1085.6,150.4,1079.9,161.4z"/>
		<path class="st17" d="M1025,191.6c4.4,1.1,10.4-1.5,13.3-4.6c8.9-9.4-13.5-22.1-5.9-38.3c2.5-5.3,7.8-10.1,5.9-11.2
			c-1.3-0.8-5.5,0.5-8.4,2.5c-11,7.3-6.3,26-5.4,29.5c0.7,2.6,1.7,5.5,0,8.8c-1.8,3.5-4.9,4.5-4.9,7.4
			C1019.6,188.1,1021.8,190.8,1025,191.6z"/>
		<path class="st17" d="M1049.1,116c-3.3-0.4-34.5,83.3-18.7,87.8c2.5,0.7,5.6-0.8,6.9-1.4c11.2-5.4,6.2-21.3,4.9-37.9
			C1039.9,134.8,1050.7,116.3,1049.1,116z"/>
		<path class="st17" d="M1117.8,125c-1.5-0.5-52.1,56.4-35.5,67.8c3.2,2.2,9.3,3,12.3,1.4c6-3.1-3.6-13.7,1-28.8
			c0.6-1.9,0.9-2.2,6.4-11.9C1112.7,134.5,1118.1,125.1,1117.8,125z"/>
		<path class="st17" d="M895.1,216.6c2.5,1.6,8.3,1.3,11.8-0.7c8.4-4.9-2.3-16.2,0-36.5c1.5-13,7.4-21.9,5.4-22.5
			c-1.8-0.5-7.2,6.1-10.3,11.2c-1.2,2-4.4,7.6-5.9,16.2c-1.8,10.2,1.4,10.3-0.5,20.4C894.3,211.3,892.3,214.8,895.1,216.6z"/>
		<path class="st17" d="M1098.1,148c-0.6,0.1,2.4,6.9,1.5,15.2c-2.3,19.8-25.7,29.5-21.7,36.8c1.4,2.7,5.8,3.8,8.9,3.5
			c10.5-1.1,17.7-20.7,16.8-36.4C1102.9,156.8,1098.8,147.9,1098.1,148z"/>
		<path class="st17" d="M1066,195.1c0.7,0.8,4,4.2,2.5,6.7s-7.5,3-9.7,2.7c-17.4-2.5-15.2-85.7-11.8-85.8
			C1050,118.6,1054.9,182.6,1066,195.1z"/>
		<path class="st17" d="M1022.2,158.3c14.2,23.3,1.9,55.9-8.8,55.5c-2.3-0.1-4.6-1.7-5.7-3.2c-3.4-4.8,3.7-10.7,7.7-17.7
			c10.3-18.3-3.1-40.4,0.7-41C1018,151.5,1021.8,157.6,1022.2,158.3z"/>
		<path class="st17" d="M1114.9,158c-1.1,1.2-2.9,3.4-5.1,11.8c-3.5,13.4-1,16,1.3,17.3c1.7,1,4.6,2.2,6.4,1.7
			c3.1-0.9,0-6.4-0.9-11.6c-2.6-14.9,13.2-25.8,10.2-26.7C1125,150,1118.7,154,1114.9,158z"/>
		<path class="st17" d="M1048.2,171.6c0.5,0.1-2.1,4.7-1.3,10.4c2,13.6,22.2,20.2,18.7,25.3c-1.2,1.8-5,2.6-7.7,2.4
			c-9.1-0.8-15.3-14.2-14.5-25C1044,177.6,1047.6,171.5,1048.2,171.6z"/>
		<path class="st17" d="M1197.3,115.1c-2.5-0.4-17.4,22.8-14.8,52c1.1,12.5,6.3,35.4,17.7,36.5c4.3,0.4,9.3-2.2,10.8-5.3
			c2.8-5.7-6.7-12.6-10.3-15.8C1175.6,160.5,1200.7,115.6,1197.3,115.1z"/>
		<path class="st17" d="M1180.3,162.9c3.4,21.2-16.3,43.2-27.1,42.3c-4.7-0.4-8.8-5.2-9-9.1c-0.2-3.6,2.8-6.3,6.2-9.5
			c0,0,9-8.5,15.8-16.4c14-16.3-38.6-52.7-34.9-54.8c2.1-1.2,22.1,8.8,36.1,24.8C1172.6,146,1178.8,153.1,1180.3,162.9z"/>
		<path class="st17" d="M865.2,162.8c-0.6,0.1,2.4,6.9,1.5,15.2c-2.3,19.8-25.7,29.5-21.7,36.8c1.4,2.7,5.8,3.8,8.9,3.5
			c10.5-1.1,17.7-20.7,16.8-36.4C870,171.5,865.9,162.7,865.2,162.8z"/>
		<path class="st17" d="M744.2,222.7c-6.6-2-2.7-16.3-4.7-46.6c-0.7-10.5-1.4-11.5-1.3-18.7c0.1-11.8,0.3-30.9,12.1-35.6
			c3.4-1.3,8.1-1.7,8.6-0.7c0.6,1.1-4.9,3.7-7.8,6c-10.9,8.9-1.1,31,6.9,70.9c1.1,5.6,2.9,15.4-3.9,21.2
			C753.7,219.6,748.4,224,744.2,222.7z"/>
		<path class="st17" d="M969.5,177.5c1.3-0.5,6.3,1.8,10.4,4.9c14.8,11.4,11.6,30.1-0.5,33.8c-0.6,0.2-4,1.2-6.3,0.5
			c-3.2-1.1-2.6-5.1-1.3-7.7c1.6-3.1,4.5-4.6,6.2-6C987.3,194.8,966.3,178.7,969.5,177.5z"/>
		<path class="st17" d="M1432.3,214.2c0.7,0.6,4,3.1,2.6,4.8c-1.5,1.8-7.6,2.2-9.8,1.9c-17.6-1.8-15.3-61.6-11.9-61.7
			C1416.1,159.2,1421.1,205.2,1432.3,214.2z"/>
		<path class="st17" d="M1596.3,192.5c6-2,6.2-9.1,8.4-24.8c3.7-25.5,6.3-29.8,3.8-41.5c-1.7-7.9-5.1-16.3-6.8-16.1
			c-1.9,0.2,1.2,11.9-0.4,26.5c-3.3,30.7-24.3,47.9-15.6,54.6C1588.6,193.3,1593.3,193.5,1596.3,192.5z"/>
	</g>
	<g id="VGras_00000047054685515397396010000016719532357477353344_">
		<path class="st17" d="M1460.3,219.4c2.2,1.5,7.1,1.3,10.1-0.7c7.2-4.6-2-15.5,0-34.8c1.3-12.4,6.4-20.9,4.6-21.4
			c-1.5-0.5-6.2,5.8-8.9,10.7c-1,1.9-3.8,7.2-5.1,15.4c-1.5,9.7,1.2,9.8-0.4,19.4C1459.7,214.4,1458,217.7,1460.3,219.4z"/>
		<path class="st17" d="M1626.5,145.3c0.4,0.5-6.3,3.6-11,10.5c-11.2,16.6,0.3,39.1-7.5,42.1c-2.8,1.1-6.9-0.9-9-3.1
			c-7.2-7.7,0.1-27.2,11-38.5C1617.2,148.8,1626.1,144.7,1626.5,145.3z"/>
		<path class="st17" d="M1751.7,200.3c7.7-2.1,3.1-17.1,5.5-48.8c0.8-11,1.6-12.1,1.5-19.6c-0.2-12.4-0.4-32.4-14.1-37.4
			c-3.9-1.4-9.4-1.7-10.1-0.7c-0.7,1.1,5.4,3.1,9,6.3c14,12.2,8.9,54.1-1.9,79.8c-1.5,3.5-5.2,11.7-1.6,16.7
			C1742.4,199.9,1747.7,201.4,1751.7,200.3z"/>
		<path class="st17" d="M1598.1,204.1c-2.2,1.5-7.1,1.3-10.1-0.7c-7.2-4.6,2-15.5,0-34.8c-1.3-12.4-6.4-20.9-4.6-21.4
			c1.5-0.5,6.2,5.8,8.9,10.7c1,1.9,3.8,7.2,5.1,15.4c1.5,9.7-1.2,9.8,0.4,19.4C1598.8,199,1600.5,202.4,1598.1,204.1z"/>
		<path class="st17" d="M1749.9,149.3c-1.3-0.7-6.3,2.5-10.3,6.9c-14.6,15.9-11.5,41.9,0.5,47c0.6,0.3,4,1.7,6.3,0.7
			c3.2-1.5,2.6-7.1,1.3-10.7c-1.6-4.3-4.5-6.4-6.1-8.4C1732.3,173.4,1753.1,151,1749.9,149.3z"/>
	</g>
</g>
</svg>
