<?xml version="1.0" encoding="utf-8"?><!-- Generator: Adobe Illustrator 26.0.3, SVG Export Plug-In . SVG Version: 6.00 Build 0)  --><svg version="1.1" id="Ebene_2_00000109015629924098340060000008336861892324566444_"	 xmlns="http://www.w3.org/2000/svg" xmlns:xlink="http://www.w3.org/1999/xlink" x="0px" y="0px" viewBox="0 0 100 100"	 style="enable-background:new 0 0 100 100;" xml:space="preserve"><style type="text/css">	.st0{fill:#612F19;stroke:#000000;stroke-width:2;stroke-miterlimit:10;}	.st1{fill:#5abcd8;stroke:#000000;stroke-miterlimit:10;}	.st2{fill:#8B8F8E;stroke:#000000;stroke-width:0.5;stroke-miterlimit:10;}	.st3{fill:#8B8F8E;stroke:#000000;stroke-width:0.5;stroke-miterlimit:10;}	.st4{fill:#EBB3C9;stroke:#000000;stroke-width:0.25;stroke-miterlimit:10;}	.st5{fill:#EBB3C9;stroke:#000000;stroke-width:0.25;stroke-miterlimit:10;}</style><path class="st0" d="M92,25.8L50,1.5L8,25.8v48.5c14,8,28,16.1,42,24.2c12.8-7.4,25.5-14.7,38.3-22.1c1.2-0.8,2.5-1.5,3.7-2.2V25.8z	"/><path class="st1" d="M74.3,84.5c-11.7,6.9-18.9,11.4-19.9,10.2c-0.7-0.7,2.4-2.9,3.8-7.8c1.5-5.2,0.2-9.8-0.7-12.7	c-1.3-4.5-2.3-4.2-8.1-14.4c-3.6-6.3-4.1-7.9-7-12c-2.3-3.3-2.4-2.8-5.9-7.3c-6.4-8.3-5.9-9.8-9.6-12.6c-4.5-3.5-7.7-3.1-8-5.2	c-0.2-1.1,0.4-3,11.9-10c1.3-0.8,14.9-9,15.9-7.6c0.4,0.7-2.6,2.1-3.2,5.6c-0.5,2.8,1.1,3.8,3.1,9.9c1.4,4.5,0.8,5,2.2,7.8	c0.6,1.1,3.4,6.7,6.4,6.5c3.2-0.2,6.4-6.9,6.2-13c-0.2-8-6.1-12.2-4.7-13.8c0.7-0.9,3.2-0.3,20.7,9.2c8.7,4.7,11.1,6.2,11.1,8.4	c0,0.7-0.3,2.4-11.5,9.5c-7.4,4.7-10.5,6-13,10.1c-1,1.6-2.5,4.2-2.2,7.4c0.4,4.2,3.9,6.9,8.7,10.4C76.1,67.2,82.2,71.5,89,76	C85.7,77.9,80.6,80.8,74.3,84.5z"/><path class="st2" d="M58.1,83.6c-0.1-2.5-1.9-2.9-4.4-8.8c-1.4-3.3-1.7-5.2-2.8-5.3c-1.4-0.1-2.8,3.4-3,3.8	c-0.8,1.9-0.2,2.5-1.1,4.2c-1.2,2.1-2.6,2.1-3.3,4c-0.5,1.3-0.3,2.5-0.1,3.3c0.7,3.7,3.9,5.7,4.7,6.2c1.2,0.7,2.4,1.1,3.2,1.3	C57.4,88.4,58,85.2,58.1,83.6z"/><path class="st2" d="M37,82.7c2.1-0.9,1.7-3.3,4.2-7.6c0.6-1,1.6-2.2,3.5-4.8c3.2-4.2,4-4.8,3.8-5.9c-0.4-2.3-5-4.1-7-2.7	c-1.4,1-0.3,2.9-1.8,4.4c-2.5,2.5-7.4-1-10.4,1.6c-1.7,1.4-1.4,3.5-3,3.9s-2.8-1.3-3.7-0.7c-0.8,0.5-0.8,2.6,0.1,3.8	c1.3,1.7,3.6,0.6,4.8,2.3c0.8,1.1,0,1.7,0.7,3c1.1,2.1,4.1,2.6,5.4,2.8C35.3,83.1,36.1,83.2,37,82.7z"/><path class="st3" d="M18,62.5c1.2-2.2,1.8-3.3,2.2-4.7c0.7-2.2,0.6-3.5,1.4-3.8c1-0.3,2.4,1.5,3.1,2.4c2.7,3.5,2,5.6,3.9,6.7	c2.1,1.2,4.8-0.5,5.1,0.2c0.3,0.6-1.6,1.9-2.7,2.7c-2,1.4-3.3,2.4-5.1,2.9c-3.3,0.7-3.8-1-6.1-0.1c-2.5,1-2.8,3.5-5.3,3.8	c-0.3,0-1.9,0.2-2.3-0.6C11.5,70.7,14.9,68.4,18,62.5z"/><path class="st3" d="M26.5,47.8c1-0.5,1.9,1,4.4,1.5c1.7,0.3,1.9-0.3,3.9-0.2c0.9,0,3.6,0.1,5.6,1.8c2.2,1.8,3.4,5.3,2.3,6.5	c-0.9,1-2.5-0.4-5.4,0.4c-2.6,0.8-3,2.5-4.5,2.2c-1.3-0.2-1.2-1.5-3.7-4.5c-1.9-2.3-2.9-2.6-3.3-4.2C25.5,50,25.6,48.2,26.5,47.8z"	/><path class="st2" d="M17.4,45.4c-0.6-0.1-2.3-0.3-3.7,0.7c-1.9,1.4-1.7,4-1.7,4.3c0.1,1.6,0.8,1.8,2,4.6s0.9,3.7,1.7,4	c1.5,0.5,4.2-2.1,5.4-4.7c0.7-1.3,1.7-3.5,0.7-5.7C20.7,46,17.7,45.5,17.4,45.4z"/><path class="st3" d="M12.9,35.3c-0.6-1.4,0-3.5,1-3.8c0.4-0.1,0.8,0,2.7,1.4c3.1,2.3,3.7,3.3,5.1,3.3c1.1,0,1.1-0.6,2.4-0.8	c1.5-0.2,2.6,0.3,5.7,2.1c5.8,3.4,6.1,4,6.2,4.7c0.2,1.3-0.6,2.9-1.8,3.4c-2.2,0.9-4.1-2.6-7.2-2c-1.7,0.3-1.6,1.4-3.5,2.1	c-3.8,1.3-9.1-1.3-9.6-4.1c-0.2-1.5,1.1-2.6,0.3-4.3C13.7,36.4,13.2,36.4,12.9,35.3z"/><path class="st3" d="M15.9,29.9c-0.7-1.2-1-3-0.2-3.8c0.9-0.8,2.9,0.1,5.8,1.4c3,1.4,5.4,2.5,5.3,4c0,1.3-1.7,2-1.8,2.1	c-1.8,0.8-3.7-0.1-5.8-1.2C17.6,31.6,16.6,31.1,15.9,29.9z"/><path class="st2" d="M49.9,24.9c0-0.4-0.1-1.1,0.2-1.4c0.6-0.6,1.8,0.4,3.6,0.5c2.4,0.1,3.3-1.3,4.2-0.7c1,0.7,1,3.5-0.3,4.5	c-1,0.8-1.8,0-3,0.7c-1.8,1-1.4,3.3-2.2,3.4C51.3,32,50.4,27.6,49.9,24.9z"/><path class="st2" d="M49.3,17.7c1,1,2.9,1.6,4,0.9c1.2-0.8,0.4-2.4,1.3-6.2c0.8-3.3,1.8-3.9,1.3-5.3c-0.7-1.9-3.1-2.9-5-3	c-0.8,0-2.5-0.1-3.4,1c-0.9,1.1-0.2,2.3,0.4,6.5C48.5,15.6,48.2,16.6,49.3,17.7z"/><path class="st2" d="M72.6,53.8c0.6-0.6,2.5,0,3.5,1.1c1.2,1.3,0.5,2.5,1.4,3.2c1.4,1,3.4-1.4,6.9-1c0.8,0.1,2.5,0.4,3.4,1.6	c0.9,1.3-0.1,2.4,0.4,5.4c0.4,2.2,1.1,2.4,1,4.2c0,0.5-0.1,2.9-1.6,3.5c-0.9,0.3-1.9-0.1-2.2-0.3c-1.8-0.9-1.7-2.5-3.3-4.5	c-1.2-1.5-1.5-0.9-3.9-3.1c-2.1-1.9-3.3-3.7-4-4.9C73.5,58,71.7,54.8,72.6,53.8z"/><path class="st2" d="M72.5,56.9c0.4-0.8-1.9-1.9-1.7-3.5c0.2-1.2,1.9-1.4,2-2.7c0.1-1.2-1.3-1.6-1.2-2.8c0.1-1.4,1.9-1.6,2.7-3.6	c0.5-1.2,0.5-3-0.4-3.6c-0.9-0.6-2.4,0.2-3.9,1.1c-1.7,1-4.4,2.5-5.4,5.6c-0.3,0.9-0.9,2.6-0.1,4c0.6,1.2,1.4,0.9,2.8,2.4	c1.5,1.6,1.3,2.7,2.6,3.3C70.9,57.6,72.3,57.5,72.5,56.9z"/><path class="st3" d="M78.1,54c1,0.8,2.2,0.5,3.8,0.3c3.6-0.4,4.5,0.6,5.4-0.2c0.7-0.6,0.3-1.5,0.2-4.4c-0.1-2.7-0.1-5,0.7-7.3	c0.9-2.6,2.2-3.7,1.7-5.3c-0.3-0.8-0.6-0.7-1.2-1.7c-1.4-2.5-0.4-5.1-0.9-5.3c-0.4-0.1-0.8,2.6-3,4.4c-2.3,1.8-4.6,1.2-5.2,2.8	c-0.4,1.2,0.7,1.8,0.4,3.3c-0.4,1.8-2.2,1.8-3.8,4.1c-0.4,0.5-2.1,3-1.3,5c0.2,0.5,0.3,0.4,2.4,3.3C77.7,53.6,77.8,53.7,78.1,54z"/><path class="st4" d="M50.1,88.2c1.7,0.6,2.5,1.5,2.7,1.3c0.2-0.2-0.1-1.3-0.9-1.9c-0.8-0.5-1.5-0.4-1.6-0.7	c-0.1-0.5,1.5-0.9,1.6-1.8c0-0.5-0.3-1-0.7-1.1c-0.5-0.1-0.9,0.5-1.2,1c-0.3,0.6-0.8,1.5-1,2.9C49.3,88,49.7,88.1,50.1,88.2z"/><path class="st4" d="M52.4,80.6c-0.1-0.4-0.4-0.8-0.8-0.7c-0.3,0.1-0.5,0.6-0.4,0.9c0.1,0.5,0.8,0.7,1.1,0.5	C52.5,81.1,52.5,80.7,52.4,80.6z"/><path class="st4" d="M55.3,84.2c1.2,1.3,1.4,1.4,1.5,1.3c0.3-0.1,0.1-0.8,0.1-1c-0.1-0.3-0.3-1.5-1.2-1.8c-0.5-0.2-1.2-0.1-1.3,0.2	C54.4,83.1,54.5,83.2,55.3,84.2z"/><path class="st4" d="M45.6,81.3c-0.4,1.2,0.3,2.1,0.4,2.2c0.7,0.9,2,1.3,2.3,0.9c0.3-0.2,0.1-0.9-0.2-1.3c-0.6-0.9-1.5-0.9-1.5-1.3	c0-0.5,1.6-0.5,1.8-1.3c0-0.3-0.2-0.7-0.4-0.8C47.4,79.3,45.9,80.1,45.6,81.3z"/><path class="st4" d="M52.7,76.8c0.4-1.4-0.4-2.5-0.6-2.7c-0.3-0.5-1.2-1.4-1.8-1.1c-0.3,0.1-0.5,0.6-0.4,1c0.1,0.8,0.9,0.8,1.4,1.6	c0.7,1.1,0,2.6,0.3,2.7C51.9,78.4,52.6,77.6,52.7,76.8z"/><path class="st4" d="M33.8,77.6c-0.6-0.6-1.6-1.1-2.2-0.6c-0.4,0.3-0.5,0.9-0.3,1.3c0.3,0.5,1.1,0.1,1.9,0.7	c0.6,0.5,0.5,1.2,0.7,1.2C34.2,80.2,34.5,78.6,33.8,77.6z"/><path class="st4" d="M35.6,72.1c-0.2-0.3-0.6-0.8-0.9-0.7c-0.5,0.1-0.6,1-0.7,1.9c0,0.8-0.1,1.4,0.2,1.6c0.3,0.2,0.7,0.1,0.7,0.1	C35.7,74.8,36.2,73.2,35.6,72.1z"/><path class="st4" d="M38.5,75.7c-0.1-0.6-0.7-1.2-1-1.1c-0.3,0.1-0.4,0.8-0.4,1c-0.1,0.7,0,1.6,0.4,1.7	C37.9,77.3,38.6,76.4,38.5,75.7z"/><path class="st4" d="M32,75c0-0.4-1.2-0.4-1.4-1c-0.2-0.7,0.8-1.3,0.6-1.6c-0.1-0.3-1.1-0.2-1.6,0.4c-0.4,0.5-0.3,1.4,0.1,1.9	s1,0.8,1.6,0.7C31.7,75.4,32.2,75.2,32,75z"/><path class="st4" d="M41.3,71.2c0.3-1,0.7-2,0.1-2.8c-0.4-0.5-1.2-1-2-0.7c-1,0.4-1.2,1.9-1,2c0.2,0.1,0.8-0.9,1.3-0.7	c0.4,0.2,0.5,0.8,0.7,1.6c0.2,1.2,0.1,2,0.3,2S41.3,71.9,41.3,71.2z"/><path class="st4" d="M44.8,66.4c0.3-0.9-0.2-2-0.7-2.1c-0.4,0-0.8,0.6-0.9,1c-0.3,0.9,0,2,0.5,2.1C44.1,67.5,44.6,66.9,44.8,66.4z"	/><path class="st5" d="M16.9,66.7c0.7-1,0.7-1.6,1.1-1.6s0.8,0.5,0.9,0.9c0.2,0.8-0.4,1.8-1.1,2.2c-0.8,0.5-1.9,0.4-2,0	C15.7,67.9,16.2,67.7,16.9,66.7z"/><path class="st5" d="M23.9,61.4c-0.3-0.2-1.1,0.3-1.2,0.1c-0.1-0.2,0.6-0.8,1.2-1.8c0.6-1.1,0.9-2.5,0.6-2.6c-0.1-0.1-0.3,0-1.7,1.7	c-1.8,2-1.9,2.4-1.8,2.7c0.1,1,1.5,1.9,2.3,1.5C23.9,62.8,24.2,61.8,23.9,61.4z"/><path class="st5" d="M27.9,64.5C28,63.8,27.4,63,27,63c-0.7,0-1.6,2.2-1.1,2.6C26.2,65.9,27.7,65.6,27.9,64.5z"/><path class="st5" d="M29.5,66.4c0.4,0.1,1.1-0.5,1-1c-0.1-0.3-0.4-0.6-0.8-0.5c-0.3,0-0.5,0.3-0.6,0.6S29.2,66.2,29.5,66.4z"/><path class="st4" d="M17.5,54.5c1.2-1.1,1.8-1.3,1.7-1.7c-0.1-0.4-0.8-0.6-1.3-0.6c-0.7,0-1.3,0.4-1.6,1c-0.5,0.9-0.2,2.1,0.2,2.2	C16.7,55.5,16.8,55.2,17.5,54.5z"/><path class="st4" d="M16.1,51.1c0.2-0.3,0.1-0.8-0.3-1c-0.3-0.1-0.7,0-0.9,0.2c-0.3,0.3-0.3,1.1,0.1,1.3	C15.3,51.8,15.9,51.5,16.1,51.1z"/><path class="st5" d="M18.1,39c0.1-0.2,0.4-0.7,0.3-1.9c-0.1-1.3-0.1-1.9-0.6-2.4c-0.7-0.6-1.9-0.6-2-0.4c0,0.2,1.1,0.5,1.3,1.4	c0.2,0.7-0.4,1-0.5,2.2c0,0.9,0.3,1.9,0.7,2C17.7,40,18.2,39.2,18.1,39z"/><path class="st5" d="M20.5,42.7c0.8,0.2,1.8-0.1,1.9-0.6c0-0.3-0.4-0.6-1.3-1.2c-0.9-0.6-1.3-0.9-1.6-0.7c-0.4,0.2-0.5,1-0.2,1.6	C19.6,42.5,20.2,42.7,20.5,42.7z"/><path class="st5" d="M22.8,36.9c-0.4-0.2-1,0.1-1.1,0.4c-0.1,0.6,1.3,1.6,1.7,1.3C23.7,38.4,23.6,37.1,22.8,36.9z"/><path class="st5" d="M26.7,40.3c0.7-0.3,1.2-0.9,1.3-1.6c0.1-0.5,0-1.3-0.4-1.5c-0.4-0.1-1,0.5-1.2,0.7c-0.6,0.8-1.1,2-0.7,2.4	C26,40.6,26.7,40.3,26.7,40.3z"/><path class="st5" d="M30,40c0-0.3-0.9-0.7-1.3-0.2c-0.4,0.3-0.3,0.9-0.1,1.1C29,41.1,30.1,40.3,30,40z"/><path class="st5" d="M32.8,42.8c0.7-0.2,1.2-1.1,1-1.6c-0.3-0.7-2.2-0.8-2.6-0.2c-0.2,0.3,0.1,1,0.4,1.3	C31.7,42.4,32.2,42.8,32.8,42.8z"/><path class="st5" d="M31.4,56.6c0.5,0.2,1-0.5,1.3-0.3c0.4,0.2,0.1,1.1,0.4,1.3c0.3,0.1,1.1-0.3,1.3-1c0.2-0.8-0.2-1.7-1-2	c-0.6-0.2-1.2,0-1.4,0.1s-1,0.4-1,1.1C31,56.1,31.2,56.5,31.4,56.6z"/><path class="st5" d="M30.8,52.6c0.2-0.6-0.4-1.6-1.3-1.7c-0.5,0-1,0.2-1.2,0.6c-0.2,0.7,0.7,1.8,1.6,1.7	C30.3,53.2,30.6,52.9,30.8,52.6z"/><path class="st5" d="M37.1,54.5c0.3-0.3,0.3-0.9,0-1.3c-0.4-0.6-1.4-0.6-1.6-0.2c-0.1,0.2,0.2,0.7,0.4,1	C36.3,54.3,36.9,54.6,37.1,54.5z"/><path class="st5" d="M40.1,54.2c-0.3-0.2-0.8-0.2-1,0c-0.3,0.4,0.4,1.4,0.7,1.4S40.5,54.6,40.1,54.2z"/><path class="st5" d="M18.4,27.1c-0.3-0.5-0.9-0.9-1.2-0.7C17,26.5,16.8,27,17,27.2l0,0c0.4,0.4,0.9,1.4,1.2,1.4	C18.4,28.6,18.7,27.7,18.4,27.1z"/><path class="st5" d="M24.2,29.6c0-0.3-0.8-0.6-1-0.7c-0.4-0.2-1.4-0.4-1.6,0c-0.2,0.3,0.2,1.2,0.9,1.4C23.3,30.6,24.2,30,24.2,29.6z	"/><path class="st4" d="M52.8,15.4c0.2-0.5-0.5-1-1-1.2c-0.4-0.1-1.1-0.2-1.3,0.1c-0.3,0.4,0.1,1.3,0.8,1.6	C52,16.2,52.8,15.9,52.8,15.4z"/><path class="st4" d="M51.3,10.1c-0.1-0.4-0.7-0.6-1-0.4c-0.4,0.3-0.2,1.4,0.2,1.5S51.6,10.6,51.3,10.1z"/><path class="st4" d="M52.4,10.6c0.3,0.4,1.9-0.2,1.9-0.8c0-0.2-0.3-0.2-0.7-0.7c-0.6-0.7-0.5-1.3-1-1.5c-0.4-0.1-0.9,0-1,0.2	c-0.2,0.4,1,1,1,2C52.6,10.3,52.3,10.6,52.4,10.6z"/><path class="st4" d="M50.7,6c0.2-0.4-0.1-1-0.6-1.3C49.2,4.2,48,5.1,48,5.5c0,0.3,1,0.5,1.3,0.6C49.7,6.2,50.5,6.3,50.7,6z"/><path class="st4" d="M69.5,52.4c-0.1-0.3-0.4-1.4-1.3-1.8c0,0-0.9-0.4-1.3,0c-0.3,0.4-0.1,1.2,0.3,1.6s0.7,0.1,1.3,0.5	c0.7,0.4,0.8,1.2,1,1.1C69.7,53.8,69.7,53.1,69.5,52.4z"/><path class="st4" d="M67.1,49c0.5-0.3,0.5-1.4-0.1-1.8c-0.3-0.2-0.8-0.2-1.1,0.1c-0.5,0.4-0.2,1.4,0.4,1.7	C66.3,49,66.7,49.2,67.1,49z"/><path class="st4" d="M70.9,49.9c0.4-0.3,0.1-1.2-0.4-1.8c-0.4-0.3-1-0.7-1.3-0.5c-0.3,0.2-0.2,1,0.1,1.5	C69.7,49.8,70.6,50.2,70.9,49.9z"/><path class="st4" d="M71.4,45.3c0.3-0.3,0.6-1,0.3-1.4c-0.4-0.4-1.2-0.3-1.6,0.1c-0.4,0.5-0.3,1.5,0.2,1.7	C70.7,45.9,71.2,45.6,71.4,45.3z"/><path class="st5" d="M79.4,43.4c0.6-0.3,1.5-0.3,2,0.2c0.7,0.7,0.4,2,0.1,2.1c-0.2,0.1-0.3-0.3-0.8-0.5c-0.9-0.3-1.7,0.6-2,0.3	C78.4,45.2,78.6,44,79.4,43.4z"/><path class="st5" d="M85.3,39.8c0.4-0.4,0-0.8,0.2-1.6c0.3-0.9,0.9-1,0.9-1.7s-0.5-1.4-0.9-1.4c-0.3,0-0.4,0.8-1,2.3	c-0.7,1.8-1.3,2.3-1,2.7C83.8,40.5,85,40.4,85.3,39.8z"/><path class="st5" d="M82.1,50.1c0.3-0.7,0-1.7-0.4-1.8c-0.4-0.1-0.9,0.6-1,0.8c-0.5,0.8-0.7,2-0.3,2.2C80.8,51.5,81.8,51,82.1,50.1z	"/><path class="st5" d="M85.2,50.6c0.4-0.3-0.3-1.1-0.2-2.5c0-1.8,1.2-3,1-3.1c-0.2-0.1-1.1,0.8-1.8,1.8c-0.7,1-1.4,1.9-1,2.8	C83.5,50.4,84.7,50.9,85.2,50.6z"/><path class="st4" d="M80.5,62.6c0.2-0.6-0.1-1.5-0.7-1.6c-0.4-0.1-0.8,0.1-1,0.4c-0.4,0.6-0.1,1.6,0.5,1.8	C79.8,63.3,80.3,63,80.5,62.6z"/><path class="st4" d="M83.6,63.1c0.4,0,0.3-0.9,1.1-1.8c0.7-0.8,1.5-0.8,1.5-1.1c0-0.3-0.9-0.6-1.7-0.4c-1,0.2-1.8,1.2-1.7,2.2	C82.9,62.6,83.3,63.2,83.6,63.1z"/><path class="st4" d="M86.7,67.6c0.5-0.3,0.6-1.2,0.3-1.6c-0.3-0.4-0.8,0-1.6-0.2c-1-0.3-1.4-1.2-1.6-1.1c-0.2,0.1,0.1,1.5,1.1,2.3	C85.1,67.2,86.1,68,86.7,67.6z"/><path class="st4" d="M76.1,56.8c-0.3-0.5-1.3-0.5-1.6-0.1c-0.2,0.3,0.1,0.9,0.1,1s0.3,0.6,0.7,0.6C75.8,58.3,76.3,57.3,76.1,56.8z"	/><path class="st4" d="M53.3,28.9c0.1-0.1,0.6-0.9,0.1-1.5c-0.4-0.5-1.1-0.5-1.5-0.2c-0.7,0.6-0.2,2.3,0.4,2.4	C52.7,29.6,53.1,29.1,53.3,28.9z"/><path class="st4" d="M56,26.7c1-0.7,1.1-2.5,0.8-2.6c-0.2-0.1-0.4,0.5-1.3,0.9c-0.6,0.3-0.9,0.2-1.1,0.5c-0.3,0.4-0.3,1.2,0.2,1.5	S55.9,26.8,56,26.7z"/></svg>