<?xml version="1.0" encoding="utf-8"?><!-- Generator: Adobe Illustrator 26.0.3, SVG Export Plug-In . SVG Version: 6.00 Build 0)  --><svg version="1.1" id="Ebene_2_00000126308112139821010380000011903406711838980787_"	 xmlns="http://www.w3.org/2000/svg" xmlns:xlink="http://www.w3.org/1999/xlink" x="0px" y="0px" viewBox="0 0 100 100"	 style="enable-background:new 0 0 100 100;" xml:space="preserve"><style type="text/css">	.st0{fill:#612F19;stroke:#000000;stroke-width:2;stroke-miterlimit:10;}	.st1{fill:#5abcd8;stroke:#000000;stroke-miterlimit:10;}	.st2{fill:#8B8F8E;stroke:#000000;stroke-width:0.5;stroke-miterlimit:10;}	.st3{fill:#DB93A6;stroke:#000000;stroke-width:0.25;stroke-miterlimit:10;}	.st4{fill:#8B8F8E;stroke:#000000;stroke-width:0.5;stroke-miterlimit:10;}	.st5{fill:#EBB3C9;stroke:#000000;stroke-width:0.25;stroke-miterlimit:10;}	.st6{fill:none;stroke:#000000;stroke-width:0.25;stroke-miterlimit:10;}</style><polygon class="st0" points="7.7,74.2 49.7,98.5 91.7,74.2 91.7,25.7 49.7,1.5 7.7,25.7 "/><path class="st1" d="M34.3,10.4c-6.9,3.7-10.4,5.5-10.5,6.9c-0.1,1.4,1.9,2.6,9.2,6.1c11.8,5.7,13.9,6.2,13.8,7.2	c-0.3,3.3-21.8,2.7-23.7,2.2c-0.3-0.1-1.5-0.5-3.2-0.7c-4-0.5-8.6-1.1-11,1.2c-1.6,1.5-1.3,3.4-1.3,10.9c0,12-0.5,15.2,1,15.8	c1.5,0.6,2.8-2.4,7.6-6.2c0.6-0.5,9.2-7.1,20.2-7.5c8.7-0.3,9.7,3.7,15.3,1.9c5.6-1.8,5.4-6.1,13.4-10.3c2.9-1.5,3-1,10-3.6	c9.9-3.7,14.9-5.5,15-7.9c0.1-1.4-1.3-2.5-12.6-8.6c-11-6-12.9-6.8-14.6-5.9C59,14.1,61.9,24,58.6,25c-1.7,0.5-4-1.6-5-3.4	c-1.3-2.2-0.8-4-0.9-7.1C52.6,11,51.8,3.2,49,2.4c-2.1-0.6-5.1,2.9-9,5C37.1,9,36.8,9,34.3,10.4z"/><g>	<path class="st2" d="M89,70.8c0.2-0.4,1.2-2.3,0.6-3.6c-0.6-1.1-1.7-0.6-3.2-1.9c-1.4-1.3-1.1-2.6-2.3-2.8		c-0.8-0.1-1.9,0.1-2.3,0.9c-0.4,0.9,0.7,1.6,0.5,3c-0.2,1.5-1.6,1.9-1.4,3c0.1,0.5,0.7,1,1.9,1.9c0.3,0.2,1.1,0.8,2.1,1.2		c0.4,0.2,0.7,0.3,1.1,0.3c0.4,0,0.8,0,1,0C87.5,72.5,88.4,71.9,89,70.8z"/>	<path class="st3" d="M86.1,70.5c-0.2-0.4,0.4-0.8,0.2-1.2c-0.1-0.2-0.6-0.3-0.8-0.2c-0.6,0.3-0.5,1.7,0,2c0.1,0.1,0.2,0,0.8,0		c0.6,0,1,0,1,0C87.2,71,86.3,71,86.1,70.5z"/>	<path class="st3" d="M87.9,67.4c-0.4-0.3-1-0.7-1.1-0.5c-0.1,0.1,0.3,0.3,0.8,1.2c0.1,0.2,0.2,0.4,0.4,0.4c0.2,0.1,0.5-0.1,0.6-0.2		C88.7,68,88.2,67.6,87.9,67.4z"/>	<path class="st3" d="M82.4,69.2c-0.3-0.5-0.3-1.3,0.1-1.6c0.2-0.2,0.5-0.3,0.7-0.1c0.3,0.3-0.2,1.1,0.1,1.4c0.2,0.2,0.6-0.2,0.9,0		c0.1,0.1,0.1,0.4,0,0.6C83.9,69.8,82.9,69.8,82.4,69.2z"/>	<path class="st3" d="M85.3,66.5c-0.2-0.1-0.7,0.2-0.7,0.5c0,0.2,0.4,0.5,0.6,0.4C85.5,67.2,85.5,66.6,85.3,66.5z"/>	<path class="st3" d="M85.1,64.4c-0.3-0.7-1.2-1.2-1.7-0.9c-0.2,0.2-0.4,0.5-0.3,0.7c0.2,0.3,0.9-0.1,1.1,0.2		c0.2,0.3-0.3,0.8-0.1,1.2c0.2,0.3,0.6,0.4,0.9,0.3C85.4,65.6,85.3,64.8,85.1,64.4z"/></g><g>	<path class="st4" d="M59.2,80.5c-1.2-0.5-1.1-1.5-2.7-2.9c-2-1.8-5-2.6-6.8-1.5c-0.8,0.6-1.6,1.7-1.2,2.3c0.4,0.9,2.1,0.3,3.1,1.5		c0.3,0.4,0.4,0.7,0.6,3c0.3,3.3,0.3,3.7,0.7,4.5c0.7,1.1,2,2.1,2.9,1.9c1-0.3,0.5-1.7,1.5-3c1.4-1.8,3.7-0.2,7.1-2		c1.8-1,1.8-1.7,1.8-1.9c-0.1-0.9-1.3-1.9-2.4-2.3C61.8,79.5,60.9,81.2,59.2,80.5z"/>	<path class="st5" d="M61.1,83c0.7-0.2,1.4,0.5,1.5,0.4c0.1-0.1-0.6-1.1-1.4-1.3c-0.8-0.2-1.7,0.4-1.6,0.8c0,0.3,0.4,0.6,0.7,0.6		C60.6,83.5,60.6,83.1,61.1,83z"/>	<path class="st5" d="M54.8,82.4c0,0.3,1.3,0.7,1.3,1.2c0,0.6-2,0.5-2,1.2c0,0.4,0.5,0.8,0.9,0.9c1.1,0.4,2.6-0.8,2.4-1.9		c-0.2-0.8-1.1-1.3-1.2-1.3C55.6,82.2,54.9,82.2,54.8,82.4z"/>	<path class="st5" d="M54.3,79.4c-0.6-0.4-1.4,0-1.6,0.6c-0.1,0.5,0,1.1,0.3,1.4c0.6,0.5,1.7-0.1,1.8-0.9		C54.9,80.1,54.7,79.6,54.3,79.4z"/>	<path class="st5" d="M51.2,77.2c-0.2,0.1-0.3,1,0.2,1.2c0.3,0.2,0.7,0,0.8-0.2C52.2,77.8,51.4,77.1,51.2,77.2z"/></g><g>	<path class="st4" d="M33.7,30.7c2.8-0.9,5.8,0.5,6.2-0.2c0.6-1.2-6.9-6.3-10.7-6.2c-1.3,0-1,0.6-2.5,0.7c-2.5,0-4.4-1.7-7.5-1.9		c-1.3-0.1-2.9,0.1-2.9,0.8c0,0.6,1.4,1.1,4,2.9c3.8,2.5,4.2,3.5,6.6,4.4c0.4,0.2,1.7,0.6,3.1,0.6C31.9,31.9,32.2,31.1,33.7,30.7z"		/>	<path class="st5" d="M27.2,30c0.4,0.3,1.2,0.4,1.6,0.2c0.6-0.3,0.3-1.2-0.6-1.8c-0.9-0.6-2.1-0.6-2.5-0.7c-1.1,0-2,0.4-1.8,0.7		c0.1,0.2,0.7,0.4,0.8,0.4c1,0.3,1.6-0.1,2,0.1C27.1,29.3,26.7,29.7,27.2,30z"/>	<path class="st5" d="M30.2,28.9c-0.5,0-1.4-0.8-1.5-1.4c0-0.1-0.1-0.4,0.2-0.4c0.4,0,1.6,0.7,1.7,1.3C30.7,28.7,30.6,29,30.2,28.9z		"/>	<path class="st5" d="M36.2,29.5c0.3-0.2,0.1-0.6-0.2-0.8c-0.4-0.4-1.3-0.7-1.6-0.6c-0.4,0.1-0.1,0.8,0.6,1.2		C35.3,29.5,35.9,29.7,36.2,29.5z"/>	<path class="st5" d="M22,25.9c-1.1-1.2-1.2-1.3-1.4-1.3c-0.3,0-0.5,0.3-0.4,0.7c0.3,0.9,2.5,1.8,2.7,1.7C22.9,27,22.9,26.9,22,25.9		z"/></g><path class="st6" d="M54.1,76.7"/><g>	<path class="st4" d="M68.9,43.3c0.5,3.7,3.5,5.8,4,6.1c1.4,0.9,1.6,0.5,3.2,1.4c2,1.2,2.3,2.2,5.3,5.3c3.4,3.5,4.2,3.3,4.5,3.2		c0.8-0.3,1.1-1.6,1.4-3.3c0.3-1.7,0.9-4.6-0.4-7.9c-0.6-1.5-1.3-3.4-3.2-4.6c-2.4-1.5-3.7-0.1-6.5-1.2c-4-1.6-4.4-6-6.1-5.8		C69.5,36.9,68.5,40.5,68.9,43.3z"/>	<path class="st5" d="M80.2,46.4c-0.1,0.2,0.9,0.6,1.4,1.8c0.5,1.2,0,2.3,0.3,2.4c0.4,0.2,1.6-1,1.4-2c-0.1-0.6-0.7-1-1.2-1.4		C81.3,46.5,80.3,46.2,80.2,46.4z"/>	<path class="st5" d="M72.1,47.2c-0.1,0.6,0.7,1.4,1.3,1.4c0.5,0,0.6-0.4,1.6-1.4c1.1-1.1,1.5-1.3,1.5-1.4		C76.2,45.3,72.2,45.9,72.1,47.2z"/>	<path class="st5" d="M73.1,43.1c-0.5,0-1,0.6-0.9,1.2c0.1,0.5,0.7,0.8,1.1,0.6c0.3-0.1,0.5-0.4,0.6-0.7		C74,43.7,73.6,43.1,73.1,43.1z"/>	<path class="st5" d="M72.3,40.5C72,39.6,70.5,39.4,70,40c-0.3,0.3-0.2,0.9,0,1.3c0.3,0.5,0.9,0.9,1.5,0.7		C72.2,41.7,72.5,41,72.3,40.5z"/>	<path class="st5" d="M77.1,50.7c0,0.6,1.5,1.3,1.9,0.9c0.3-0.3,0.2-1.5-0.5-1.8C77.8,49.6,77.1,50.2,77.1,50.7z"/>	<path class="st5" d="M85.2,53.9c-0.2,0.3-0.7,0-1.1,0.4c-0.5,0.5,0.2,1.3-0.3,2.1c-0.2,0.4-0.7,0.7-1.1,0.6c-0.5-0.1-0.9-1.2-0.6-2		c0.4-1,1.6-0.9,1.9-1.9c0.2-0.8-0.5-1.5-0.3-1.6C83.8,51.3,85.6,53.3,85.2,53.9z"/></g><g>	<path class="st2" d="M25.1,71.8c-0.2-1.8-0.9-1.9-3.6-6.4c-2.3-3.9-2.5-5.2-4.1-5.4c-1.8-0.2-3.9,1-5,2.3C9,66.1,12.7,71.8,13.5,73		c1.4,2.2,5.2,6.7,8.3,5.7C24.1,78,25.3,74.3,25.1,71.8z"/>	<path class="st3" d="M23,71.1c-0.2-0.6-0.9-1.1-1.7-0.9c-0.8,0.2-1.3,1-1.2,1.5c0.1,0.9,1.5,1.4,2.3,1C22.9,72.4,23.1,71.6,23,71.1		z"/>	<path class="st3" d="M19.2,65.6c0.9-1.5-1.6-3.6-2.2-3.3c-0.2,0.1-0.2,0.5-0.3,1.2c-0.1,1.7-0.3,2.9,0.4,3.1		C17.6,66.8,18.7,66.2,19.2,65.6z"/></g><g>	<path class="st2" d="M55.4,14.3c-0.3,1.3-1.6,1-1.8,2.1c-0.4,2,3,6,3.8,5.2c0.4-0.4-0.2-1.5,0.2-3.3c0.2-0.7,0.6-1.4,1.4-2.8		c1-1.8,1.2-1.8,1.3-2.2c0.3-2.1-2.4-6.1-4.2-5.2c-0.6,0.3-1.2,1.2-1.4,2.3C54.5,12.1,55.6,13,55.4,14.3z"/>	<path class="st3" d="M56.5,14.3c0.5,0.4,1.3,0.1,1.5-0.7c0.2-0.8-0.1-1.6-0.5-2c-0.4-0.5-1.1-0.8-1.4-0.4		C55.6,11.8,55.8,13.7,56.5,14.3z"/>	<path class="st3" d="M55.6,17.1c-0.1,1-0.6,1.4-0.5,1.7c0.1,0.3,0.9,0.3,1.4-0.3c0.3-0.4,0.5-1.2,0.5-1.2l0,0		c-0.2,0.5,0.6-1.1,0.4-1.7c-0.2-0.6-1.6-0.6-1.9,0.2C55.4,16.1,55.7,16.3,55.6,17.1z"/></g><g>	<path class="st4" d="M36.5,52.3c-1.2,0.7-0.8,2.2-1.6,4.7c-1.7,5.3-5.6,5.2-7.1,9.9c-1.2,4,0.4,7.7,0.7,8.2		c1.1,2.3,3.2,3.8,7.3,6.7c4.5,3.2,6.8,4.8,8.4,4.2c3-1.2,2.9-7.8,2.8-9.8c-0.1-6.5-2.7-7.1-3-14.3c-0.1-3.3,0.4-5-1-7		C41.6,52.8,38.3,51.3,36.5,52.3z"/>	<path class="st5" d="M36.9,61.5c0.9,0.5,3.2-0.3,3.3-2c0.2-1.7-2-3-3-2.7C35.9,57.2,35.7,60.8,36.9,61.5z"/>	<path class="st5" d="M39,68.8c0.6-0.4,0.3-2.9-0.9-3.1c-0.7-0.2-1.7,0.5-1.8,1.3C36.3,68.1,38.4,69.2,39,68.8z"/>	<path class="st5" d="M31.5,68.2c0,0.8,1.5,0.9,3.1,2.6c1.6,1.7,1.7,3.3,2.2,3.2c0.6-0.1,1.1-2.4,0.2-4.4c-0.1-0.1-1.3-2.8-3.3-2.7		C32.7,66.8,31.5,67.5,31.5,68.2z"/>	<path class="st5" d="M38.1,78.7c0.3,1.5,2.6,2.4,3.9,1.5c0.8-0.5,1.2-1.6,0.8-2.6c-0.4-1.2-1.8-1.9-3.1-1.6		C38.6,76.4,37.9,77.7,38.1,78.7z"/></g><g>	<path class="st4" d="M89.1,34.9c-0.7-0.2-1.1,1-2.2,1c-0.6,0-0.7-0.5-1.4-0.6c-1.1-0.2-1.4,0.7-2.5,0.6c-0.8-0.1-0.9-0.6-2.2-1		c-0.5-0.2-1.6-0.5-1.9-0.1c-0.4,0.4,0.1,1.3,0.4,1.9c0.7,1.2,2,3.8,4.6,4.1c0.2,0,1.6,0.2,2.7-0.5c0.8-0.5,0.5-0.8,1.8-2.2		c0.9-1,1.4-1.2,1.4-1.9C89.7,35.7,89.5,35,89.1,34.9z"/>	<path class="st5" d="M85.9,37.7c-0.2,0.3-0.4,0.7-0.2,1.1c0.1,0.2,0.5,0.4,0.7,0.3c0.3-0.1,0.4-0.5,0.6-1.1c0.1-0.5,0.3-1.1,0-1.2		C86.7,36.7,86.1,37.2,85.9,37.7z"/>	<path class="st5" d="M84.2,36.7c0.2-0.1,0.4-0.1,0.6,0c0.2,0.2,0.3,0.5,0.1,0.7c-0.2,0.2-0.7,0.1-0.8-0.1		C83.9,37.1,84,36.8,84.2,36.7z"/>	<path class="st5" d="M80.7,36.5c-0.2,0.2,0.2,0.9,0.5,0.9c0.3,0,0.6-0.4,0.5-0.6C81.6,36.4,80.9,36.3,80.7,36.5z"/>	<path class="st5" d="M84.7,38.9c0.3,0,0.6,0.6,0.5,0.9c-0.1,0.3-0.4,0.5-0.7,0.4c-0.3-0.1-0.5-0.7-0.3-1.1		C84.2,39.2,84.4,38.8,84.7,38.9z"/></g><g>	<path class="st2" d="M75.3,62.1c-0.3-2.9,0.4-4.3-0.9-4.5c-1.8-0.3-5.8,1.7-7,3.6c-1.1,1.7,1,2.1-0.1,3.9c-1.1,1.9-3.9,2.4-4.9,4.5		c-0.4,0.8,0,0.6-0.3,2.1c-0.6,2.3-1.8,3.3-1.3,3.6c0.6,0.4,2.6-0.7,5.9-2.1c7.2-3.1,8.7-2.7,9.9-4.1C78.1,67.4,75.8,66.8,75.3,62.1		z"/>	<path class="st3" d="M72.2,69.9c-0.7,0.2-2.2,0.6-2.3,0.4c-0.1-0.2,1.2-1,2.5-1.3c0.9-0.2,1.8-0.1,1.7,0.1		C74.1,69.4,72.5,69.9,72.2,69.9z"/>	<path class="st3" d="M69,67.7c-0.1-0.2,0.2-0.7,0.6-0.8c0.6-0.2,1.3,0.3,1.1,0.6C70.5,67.8,69.2,68,69,67.7z"/>	<path class="st3" d="M67.2,70.9c-0.9,0.1-1-0.8-1-0.9c-0.1-0.4,0.1-1,0.4-1.1c0.2-0.1,0.3,0.2,1,0.3c0.8,0.2,1.4,0,1.5,0.2		C69.2,69.7,68.1,70.8,67.2,70.9z"/>	<path class="st3" d="M72.9,65.6c0.3-0.2,0.9,0.1,1.2,0.4c0.3,0.3,0.5,0.7,0.2,0.9s-0.9,0-1.2-0.2C72.7,66.3,72.6,65.7,72.9,65.6z"		/>	<path class="st3" d="M72.9,62.2c-0.9-0.2-2.5,0.3-3,0.9c-0.4,0.5,0.2,1.1,0.7,1c0.5-0.1,0.6-0.7,1.2-0.9c0.9-0.3,1.5,0.7,1.8,0.5		C74,63.5,74,62.4,72.9,62.2z"/>	<path class="st3" d="M71.5,59.3c-0.4,0.1-0.9,0.7-0.7,1.1c0.2,0.5,1.4,0.3,1.7,0.1C72.9,60.1,72.1,59.1,71.5,59.3z"/></g><g>	<path class="st2" d="M52.3,62.2c0.7,0.8,1.7-0.1,4.3,0.7c2.8,0.8,3.3,2.4,4.7,2.2c1.7-0.3,3.3-2.9,3-4.9c-0.4-2.2-3.1-2.6-3.2-4.6		c0-1.5,1.4-2.1,1-3.1c-0.4-1-2.3-1.3-3.7-1.1C53.7,52.3,50.6,60.4,52.3,62.2z"/>	<path class="st3" d="M59,54.8c-0.6-0.3-1.4,0.3-1.7,0.8c-0.5,0.7-0.5,1.8-0.1,2.1c0.6,0.4,2.3-0.6,2.4-1.8		C59.6,55.5,59.4,54.9,59,54.8z"/>	<path class="st3" d="M56.7,60c-0.3-0.1-0.7,0.1-0.8,0.3c-0.2,0.4,0.3,1.1,0.8,1.1c0.3,0,0.6-0.4,0.6-0.8C57.2,60.3,57,60.1,56.7,60		z"/>	<path class="st3" d="M59.8,60.3c0.3,0.2,1,0,1.2-0.6c0.2-0.7-0.5-1.3-0.8-1.2C59.6,58.5,59.3,60,59.8,60.3z"/></g></svg>