<?xml version="1.0" encoding="utf-8"?><!-- Generator: Adobe Illustrator 26.0.3, SVG Export Plug-In . SVG Version: 6.00 Build 0)  --><svg version="1.1" id="Ebene_2" xmlns="http://www.w3.org/2000/svg" xmlns:xlink="http://www.w3.org/1999/xlink" x="0px" y="0px"	 viewBox="0 0 100 100" style="enable-background:new 0 0 100 100;" xml:space="preserve"><style type="text/css">	.st0{fill:#612F19;stroke:#000000;stroke-width:2;stroke-miterlimit:10;}	.st1{fill:#5abcd8;stroke:#000000;stroke-miterlimit:10;}	.st2{fill:#8B8F8E;stroke:#000000;stroke-width:0.5;stroke-miterlimit:10;}	.st3{fill:#8B8F8E;stroke:#000000;stroke-width:0.5;stroke-miterlimit:10;}	.st4{fill:#EBB3C9;stroke:#000000;stroke-width:0.25;stroke-miterlimit:10;}	.st5{fill:#EBB3C9;stroke:#000000;stroke-width:0.25;stroke-miterlimit:10;}	.st6{fill:none;stroke:#000000;stroke-width:0.25;stroke-miterlimit:10;}</style><polygon class="st0" points="92,25.75 50,1.5 8,25.75 8,74.25 50,98.5 92,74.25 "/><path class="st1" d="M13.2,22.74c4.04-0.72,10.39-1.14,15.69,2.37c3.02,2,3.39,3.64,9,12.78c7.27,11.84,8.96,11.89,10.78,17.67	c2.32,7.36-0.28,7.71,2.33,13.89c2.95,6.96,7.32,9.04,7.44,15.11c0.08,3.93-2.05,5.81-1,6.89c0.77,0.8,2.83,0.78,15.39-6.13	c12.62-6.94,13.78-8.7,13.5-9.54c-0.54-1.6-6.16,0.65-9.89-2.89c-2.26-2.14-1.23-3.81-3.78-6.56c-2.98-3.22-5.54-2.16-7.67-5.11	c-1.55-2.15-2.31-5.67-0.89-7.78c2.19-3.24,9.63-3.31,13.67-0.11c1.59,1.26,2.43,2.86,4.96,6.02c1.22,1.53,1.82,3.06,3.6,4.2	c0.85,0.55,2.54,1.63,3.78,1.22c1.98-0.65,2.47-4.99,1.89-19.22c-0.64-15.72-1.51-17.31-2.89-18c-3.02-1.51-7.84,1.61-15.67,6.67	c-5.66,3.66-7.35,5.71-11.44,6.11c-0.6,0.06-6.63,0.56-9.56-3.11c-1.79-2.25-1.14-4.46-1.67-9.11c-0.8-7.03-3.08-7.16-3.56-12.33	c-0.53-5.67,2.51-10.82,1.22-12.11c-1.59-1.59-9.02,3.55-16.24,8.11C24.28,16.77,17.59,20.44,13.2,22.74z"/><path class="st2" d="M15.44,27.89c-0.15,0.47-0.32,1.15-0.36,1.99c-0.04,0.8,0.05,1.5,0.25,2.34c0.5,2.21,1.37,3.95,1.67,4.56	c1.28,2.6,1.92,3.91,2.89,4.22c1.95,0.64,3.02-1.98,5.89-1.89c2.73,0.09,3.63,2.54,5.44,2c1.51-0.45,2.36-2.58,2.33-4.22	c-0.04-2.3-2.65-2.26-4.56-5.33c-2.01-3.25-0.63-5.31-2.56-6.78c-2.29-1.74-6.08-0.27-6.78,0C17.47,25.63,16.1,27.08,15.44,27.89z"	/><path class="st2" d="M15.56,46.44c-1.3,1.61,0.2,2.79,0.22,10.56c0.01,3.6-0.31,5.82,0.67,6.22c0.87,0.36,1.7-1.14,5-2.56	c2.05-0.88,2.14-0.47,3.11-1.11c2.63-1.72,1.65-4.48,3.89-6.22c2.19-1.71,4.17,0.1,6.22-1.56c2.25-1.81,2.7-6.26,1-7.78	c-1.28-1.15-3.05,0.05-8,0.89C19.79,46.22,17.23,44.38,15.56,46.44z"/><path class="st3" d="M18,68.33c-1.03,1.02-1.79,2.72-1.22,3.67c0.11,0.18,0.62,0.92,3.44,0.78c5.34-0.27,6.85-3.1,9.78-2.22	c2.03,0.61,2.53,2.34,3.89,2C35.12,72.25,36.01,70.5,36,69c-0.01-0.95-0.38-1.36-2.33-4.78c-1.38-2.42-1.53-2.8-1.44-3.33	c0.29-1.79,2.7-2.26,2.56-3.33c-0.11-0.85-1.73-1.52-3.11-1.56c-2.86-0.08-5.77,2.53-6.89,5.44c-0.89,2.33-0.01,3.22-1.11,4.44	C22.13,67.59,19.93,66.43,18,68.33z"/><path class="st3" d="M36.44,58.67c-0.68,1.01-0.76,2.07-0.78,2.44c-0.12,2.06,1.09,2.64,2.56,6.11c1.03,2.44,1.05,3.59,1.89,3.78	c0.93,0.21,2.08-0.94,2.67-1.89c1.41-2.29,0.01-4.15,1.44-6c0.86-1.11,1.59-0.73,2.33-1.67c2.15-2.71-0.88-9.64-2.89-9.56	c-1.22,0.05-0.91,2.63-3.67,4.44C38.54,57.3,37.37,57.29,36.44,58.67z"/><path class="st2" d="M26.67,74.78c-1,1.03-1.8,2.82-1.22,3.67c0.56,0.82,1.91,0.03,3.11,0.89c1.65,1.17,0.43,3.61,2,5.22	c1.42,1.46,4.46,1.57,5.67,0.33c1.03-1.05,0-2.34,0.89-5.11c0.81-2.54,2.11-2.85,1.89-3.89C38.46,73.36,29.99,71.37,26.67,74.78z"/><path class="st3" d="M45.89,66.56c-1.51,0.62,0.28,4.29-2.11,7.44c-1.63,2.15-3.41,1.71-4.56,4c-0.9,1.8-0.59,3.64-0.33,5.11	c0.56,3.25,2.35,5.23,3.44,6.44c1.07,1.18,1.87,2.07,2.67,1.89c0.27-0.06,0.98-0.34,2-4.67c0.91-3.86,0.62-4.77,1.67-6.67	c0.85-1.55,1.23-1.29,1.89-2.67c0.19-0.41,1.58-3.47,0.22-6.67C49.75,68.36,47.22,66.01,45.89,66.56z"/><path class="st2" d="M52.33,80.22c-1.77,0-2.97,3.73-3.33,5.44c-0.2,0.92-1.15,5.37,1.22,7.11c0.81,0.6,2.13,0.97,3,0.44	c0.78-0.47,0.69-1.36,1.22-4.33c0.63-3.48,1.01-3.68,0.78-4.89C54.89,82.31,53.66,80.22,52.33,80.22z"/><path class="st2" d="M67.22,55.78c-0.89,0.21-1.56,1.04-1.78,1.78c-0.66,2.29,2.62,5.34,4.33,4.89c0.38-0.1,0.36-0.29,1.77-1.67	c1.1-1.08,1.66-1.63,2.23-1.88c1.43-0.64,2.37,0.02,2.67-0.44c0.62-0.96-2.76-4.94-4.33-4.33c-0.9,0.34-0.6,1.94-1.67,2.33	C69.39,56.83,68.57,55.46,67.22,55.78z"/><path class="st3" d="M72.67,63.33c0.36,1.11,1.17,1.41,2.44,2.44c2.72,2.21,2.15,3.37,4.67,5.33c0.75,0.59,3.31,2.59,4.67,1.78	c0.72-0.43,0.78-1.77,0.89-4.44c0.1-2.44,0.14-3.68-0.44-4.78c-0.14-0.26-1.07-1.97-3-2.67c-2.29-0.83-3.41,0.7-6-0.22	c-1.24-0.44-1.69-1.05-2.33-0.78C72.66,60.37,72.25,62.06,72.67,63.33z"/><path class="st3" d="M53.89,27.89c-0.35,1.05,0.19,1.74,0.89,3.78c1,2.91,0.51,3.27,1.33,4.44c1.2,1.72,3.15,2.26,3.44,2.33	c3.71,0.97,6.88-2.14,8.44-3.67c0.75-0.73,1.87-1.85,1.56-2.67c-0.31-0.8-1.88-0.93-2.67-1c-2.04-0.17-2.38,0.59-3.56,0.22	c-1.57-0.49-1.51-2-3.11-2.33c-1.07-0.22-1.34,0.41-2.22,0.11c-1.54-0.52-1.54-2.71-2.56-2.78C54.79,26.29,54.13,27.15,53.89,27.89z	"/><path class="st2" d="M50,6.89c-0.46,0.97,0.73,1.6,1.56,4.22c0.89,2.81-0.04,3.44,0.78,7c0.39,1.7,0.89,2.82,1.67,4.56	c1.37,3.06,2.14,4.78,3.44,4.89c0.96,0.08,2.09-0.72,2.33-1.67c0.38-1.44-1.6-2.09-1.89-4.22c-0.2-1.51,0.57-2.82,2.11-5.44	c1.38-2.35,2-2.55,1.89-3.44c-0.18-1.36-1.69-1.42-4-4c-1.35-1.5-1.21-1.9-2.11-2.44C53.79,5.13,50.65,5.53,50,6.89z"/><path class="st3" d="M64.78,14.78c-0.93,0.52-1.19,1.23-2.67,3.78c-1.44,2.49-1.44,2.24-1.56,2.67c-0.6,2.2,0.48,4.69,2,6.22	c0.37,0.37,2.27,2.29,4.67,2.11c1.86-0.14,2.12-1.4,4-1.44c1.95-0.05,2.23,1.28,4.11,1.22c1.85-0.06,1.97-1.36,4.22-1.78	c2.25-0.41,3.26,0.67,4.22-0.11c0.93-0.76,0.92-2.52,0.44-3.67c-0.44-1.05-1.29-1.59-3-2.67c-0.67-0.43-1.55-0.98-2.78-1.44	c-3-1.14-3.67-0.05-5.67-0.89c-2.88-1.22-2.8-4.05-5.44-4.44C67.13,14.3,65.92,14.14,64.78,14.78z"/><path class="st4" d="M18.59,28.15c-0.11,0-0.12,0.76-0.37,1.93c-0.24,1.11-0.41,1.25-0.3,1.56c0.38,1,2.95,1.52,3.7,0.52	c0.36-0.48,0.35-1.37-0.07-1.7c-0.58-0.46-1.5,0.44-2.22,0C18.49,29.94,18.76,28.15,18.59,28.15z"/><path class="st4" d="M24.15,26.3c-0.34,0.05-0.63,0.59-0.59,1.04c0.04,0.42,0.35,0.67,0.67,0.96c1.46,1.32,1.8,2.11,2,2	c0.26-0.15-0.27-1.51-0.67-2.3C25.2,27.29,24.67,26.22,24.15,26.3z"/><path class="st4" d="M20.67,34.74c0.33-0.17,0.84-0.07,1.04,0.22c0.33,0.49-0.5,1.23-0.22,1.7c0.37,0.62,2.09-0.14,2.52,0.52	c0.24,0.36-0.02,1-0.37,1.33c-0.72,0.68-2.2,0.43-2.96-0.37C19.67,37.1,19.93,35.12,20.67,34.74z"/><path class="st4" d="M24.96,33.19c-0.25,0.4,0.07,1.16,0.52,1.26c0.55,0.12,1.22-0.76,1.04-1.19C26.34,32.84,25.27,32.7,24.96,33.19	z"/><path class="st4" d="M27.7,34.07c-0.4,0.47-0.29,1.46,0.22,1.85c0.69,0.53,1.77-0.32,2.22,0.15c0.49,0.51-0.46,1.81,0,2.22	c0.29,0.26,1.05,0.07,1.41-0.37c0.66-0.83,0.03-2.7-1.19-3.56C29.6,33.83,28.23,33.45,27.7,34.07z"/><path class="st4" d="M17.19,48.67c0.31-0.12,1.04,0.68,1.33,1.56c0.42,1.24,0.01,2.71-0.37,2.74c-0.4,0.03-0.82-1.55-0.96-2.22	C17.13,50.48,16.79,48.82,17.19,48.67z"/><path class="st4" d="M22.15,51.11c0.3-0.34,1.72,0.08,1.78,0.74c0.03,0.41-0.44,0.9-0.89,0.89C22.32,52.73,21.86,51.43,22.15,51.11z	"/><path class="st4" d="M20.3,53.41c0.43,0.02,0.44,0.62,1.33,1.26c0.69,0.49,1.17,0.49,1.19,0.74c0.02,0.34-0.84,0.71-1.56,0.81	c-0.25,0.03-1.8,0.25-2.22-0.59C18.61,54.77,19.63,53.37,20.3,53.41z"/><path class="st4" d="M22.07,48.67c-0.68-0.2-1.35-0.75-1.26-1.04c0.09-0.29,0.94-0.3,1.56-0.15c0.7,0.17,1.48,0.66,1.41,0.96	C23.71,48.75,22.8,48.88,22.07,48.67z"/><path class="st4" d="M26.3,46.96c-0.05,0.33,1.95,0.56,2.07,1.48c0.08,0.64-0.82,1.03-0.67,1.48c0.17,0.49,1.49,0.75,2.07,0.22	c0.67-0.61,0.35-2.26-0.59-3.04C28.09,46.21,26.34,46.66,26.3,46.96z"/><path class="st4" d="M32.37,46.81c-0.2,0.36,0.33,1.47,1.26,1.48c0.72,0.01,1.35-0.65,1.26-1.04C34.75,46.63,32.66,46.3,32.37,46.81	z"/><path class="st5" d="M24.52,69.41c0.37-0.21,0.6-0.75,0.44-1.04c-0.25-0.47-1.62-0.52-2.44,0.15c-0.89,0.71-0.93,2.07-0.74,2.15	c0.18,0.08,0.49-1.07,1.41-1.26C23.76,69.29,24.09,69.65,24.52,69.41z"/><path class="st5" d="M28.52,66.07c-0.07,0.08-0.87,1.13-0.52,2c0.5,1.21,3.03,1.52,4.07,0.44c0.4-0.41,0.71-1.14,0.44-1.48	c-0.51-0.66-2.8,0.65-3.19,0.07c-0.31-0.47,0.97-1.68,0.74-1.93C29.91,65.01,29.05,65.4,28.52,66.07z"/><path class="st5" d="M28.67,63.33c0.66,0.82,2.39,0.63,2.74-0.15c0.22-0.49-0.11-1.2-0.59-1.56c-0.71-0.53-1.9-0.41-2.3,0.3	C28.27,62.36,28.37,62.96,28.67,63.33z"/><path class="st5" d="M30.3,59.48c0.25,0.21,0.83,0.11,1.04-0.22c0.33-0.51-0.32-1.37-0.67-1.33C30.28,57.97,29.89,59.14,30.3,59.48z	"/><path class="st4" d="M29.7,78.44c1.1,0.69,3.08-0.28,3.11-1.04c0.02-0.56-1-1.17-1.93-1.19c-0.72-0.01-1.74,0.35-1.85,1.04	C28.96,77.73,29.33,78.21,29.7,78.44z"/><path class="st4" d="M35.41,79.33c0.32,0.32,0.87,0.26,1.11,0c0.36-0.4,0.05-1.31-0.44-1.41c-0.3-0.06-0.67,0.18-0.81,0.52	C35.14,78.72,35.16,79.09,35.41,79.33z"/><path class="st4" d="M31.7,80.52c-0.26,0.26-0.13,1.26,0.59,1.48c0.61,0.19,1.26-0.31,1.26-0.67C33.56,80.79,32.06,80.16,31.7,80.52	z"/><path class="st5" d="M38.44,61.85c0.1,0.36-0.76,0.65-0.89,1.48c-0.01,0.08-0.09,0.57,0.15,0.74c0.38,0.28,1.43-0.31,2-1.11	c0.2-0.28,0.81-1.14,0.44-2C39.8,60.15,38.7,59.63,38,60c-0.46,0.24-0.77,0.89-0.59,1.26C37.61,61.68,38.35,61.52,38.44,61.85z"/><path class="st5" d="M41.56,59.19c0.78,0.26,1.15,1.35,0.89,1.63c-0.15,0.16-0.51,0.05-0.67,0c-0.78-0.24-1.39-1.12-1.19-1.48	C40.73,59.09,41.22,59.08,41.56,59.19z"/><path class="st5" d="M42.67,55.78c0.14,0.59,0.94,0.99,1.33,0.74c0.34-0.21,0.39-0.91,0.07-1.33c-0.21-0.28-0.66-0.55-1.04-0.37	C42.69,54.99,42.59,55.45,42.67,55.78z"/><path class="st5" d="M39.26,65.26c-0.29,0.14-0.17,1.95,0.89,2.44c0.48,0.23,1.15,0.18,1.26-0.07c0.06-0.13-0.06-0.31-1.11-1.41	C39.38,65.27,39.31,65.23,39.26,65.26z"/><path class="st5" d="M42.15,80c-0.26,0.59-0.52,1.15-0.3,1.7c0.37,0.93,1.85,1.26,2.07,0.96c0.2-0.27-0.73-0.83-0.89-2.07	c-0.15-1.15,0.47-1.98,0.3-2.07C43.17,78.43,42.53,79.16,42.15,80z"/><path class="st6" d="M45.56,76.67"/><path class="st5" d="M46,76.22c0.02,0.16,0.47,0.08,1.85,0.44c1.24,0.33,1.57,0.58,1.93,0.37c0.5-0.29,0.73-1.26,0.37-1.7	C49.39,74.4,45.94,75.76,46,76.22z"/><path class="st5" d="M47.19,73.85c0.18,0.22,0.5,0.37,0.81,0.3c0.44-0.11,0.71-0.61,0.59-1.04c-0.14-0.52-0.84-0.79-1.26-0.52	C46.94,72.84,46.89,73.48,47.19,73.85z"/><path class="st5" d="M48,70.96c0.61-0.11,0.9-0.76,0.89-1.26c-0.01-0.39-0.21-0.91-0.59-1.04c-0.65-0.22-1.73,0.7-1.56,1.48	C46.85,70.62,47.41,71.07,48,70.96z"/><path class="st5" d="M46.3,80.44c-0.47,0.57,0.02,1.55,0.44,1.63c0.54,0.11,1.42-1.12,1.11-1.63C47.63,80.08,46.71,79.94,46.3,80.44	z"/><path class="st5" d="M43.04,84.15c0.15,0-0.05,0.88,0.52,1.41c0.68,0.63,1.61-0.02,2.37,0.59c0.58,0.47,0.8,1.48,0.44,1.85	c-0.24,0.25-0.75,0.25-1.11,0.07c-0.75-0.35-0.65-1.32-1.26-1.48c-0.46-0.12-0.74,0.36-1.04,0.22	C42.35,86.52,42.8,84.15,43.04,84.15z"/><path class="st4" d="M53.63,84c-0.5-0.11-1.14,0.52-1.04,1.11c0.07,0.39,0.45,0.78,0.89,0.74c0.47-0.04,0.74-0.55,0.74-0.96	C54.22,84.51,53.98,84.08,53.63,84z"/><path class="st4" d="M51.93,89.04c-0.32,0.29-0.06,1.03,0.3,2.07c0.17,0.49,0.25,0.73,0.37,0.74c0.39,0.03,1.31-1.82,0.59-2.59	C52.86,88.91,52.2,88.79,51.93,89.04z"/><path class="st4" d="M67.93,57.56c-0.32,0.45-0.07,1.25,0.37,1.7c0.34,0.35,1.03,0.74,1.63,0.44c0.65-0.32,0.83-1.27,0.52-1.85	C69.98,56.97,68.38,56.91,67.93,57.56z"/><path class="st4" d="M71.56,56.59c-0.64,0.36-0.6,2.08-0.07,2.3c0.45,0.19,1.74-0.86,1.33-0.59l0,0c0,0,0.64-0.31,0.96-0.67	c0.5-0.56,0.5-1.56,0.22-1.7c-0.25-0.12-0.52,0.52-1.33,0.67C72.08,56.7,71.86,56.42,71.56,56.59z"/><path class="st5" d="M75.7,62.44c-0.43,0.28-0.57,1.48,0.15,1.93c0.7,0.44,1.7-0.16,1.78-0.67C77.73,63.03,76.27,62.08,75.7,62.44z"	/><path class="st5" d="M79.93,65.11c-0.32-0.2-0.89-0.03-1.04,0.3c-0.24,0.51,0.6,1.37,0.96,1.26C80.21,66.56,80.42,65.42,79.93,65.11	z"/><path class="st5" d="M80.67,64.07c-0.63,0.78,0.04,2.01,0.07,2.07c0.51,0.9,1.57,1.38,1.78,1.19c0.17-0.17-0.43-0.67-0.59-1.78	c-0.16-1.08,0.24-1.7-0.07-1.93C81.58,63.43,80.97,63.69,80.67,64.07z"/><path class="st5" d="M82.44,69.11c-0.52,0.37-0.65,1.12-0.3,1.63c0.28,0.41,0.83,0.58,1.26,0.44c0.73-0.24,1.08-1.35,0.59-1.93	C83.66,68.86,82.95,68.75,82.44,69.11z"/><path class="st4" d="M54,8.81c-0.53,0.29-0.57,1.19-0.37,1.78c0.33,1,1.48,1.48,1.63,1.33c0.15-0.15-0.84-0.9-0.67-1.85	c0.11-0.58,0.58-0.83,0.44-1.11C54.91,8.7,54.36,8.62,54,8.81z"/><path class="st4" d="M55.26,13.48c-0.08,0.2,0.91,1.08,2.07,1.04c0.78-0.03,1.76-0.48,1.78-1.04c0.01-0.35-0.35-0.75-0.74-0.81	c-0.57-0.1-0.78,0.58-1.7,0.81C55.86,13.68,55.31,13.34,55.26,13.48z"/><path class="st4" d="M55.19,16.44c-0.74-0.33-1.12-0.49-1.26-0.37c-0.21,0.18,0.05,0.77,0.3,1.33c0.29,0.66,0.47,1.07,0.89,1.19	c0.25,0.07,0.54,0.01,0.74-0.15c0.45-0.36,0.38-1.21,0-1.63C55.74,16.69,55.56,16.61,55.19,16.44z"/><path class="st4" d="M55.78,22c-0.34,0.07-0.73,1.3-0.07,2c0.34,0.36,0.97,0.58,1.19,0.37C57.3,23.96,56.25,21.91,55.78,22z"/><path class="st5" d="M63.56,21.19c0.16-0.51,1.28-0.65,2.07-0.44c0.58,0.15,1.44,0.6,1.41,1.11c-0.03,0.53-1.02,1-1.85,0.89	C64.24,22.61,63.39,21.71,63.56,21.19z"/><path class="st5" d="M66.96,19.63c-0.02-0.37,0.54-0.66,0.81-0.81c1.17-0.63,2.7-0.32,3.56,0.52c0.13,0.13,0.67,0.66,0.52,1.04	c-0.17,0.43-1.15,0.39-1.7,0.37C68.89,20.69,67,20.29,66.96,19.63z"/><path class="st5" d="M69.7,23.78c-0.33,0.08-0.24,0.61-0.74,1.7c-0.62,1.37-1.38,1.87-1.19,2.15c0.16,0.24,0.9,0.16,1.33-0.22	c0.43-0.38,0.24-0.79,0.67-1.19c0.5-0.46,1.06-0.18,1.26-0.52C71.36,25.15,70.29,23.64,69.7,23.78z"/><path class="st5" d="M65.78,24.74c-0.25,0.13-0.32,0.75,0,1.11c0.42,0.47,1.24,0.21,1.33-0.07C67.24,25.4,66.17,24.53,65.78,24.74z"	/><path class="st5" d="M74.59,24.59c-0.04,0.44,0.68,0.97,1.33,1.11c1.36,0.3,2.3-1.1,3.11-0.67c0.64,0.34,0.39,1.39,0.96,1.56	c0.46,0.13,1.14-0.4,1.33-1.04c0.24-0.82-0.4-1.58-0.44-1.63C79.41,22.23,74.69,23.51,74.59,24.59z"/><path class="st5" d="M57.33,30.44c-0.36,0.04-0.49,1.09-0.59,1.93c-0.13,1.01-0.22,1.77,0.22,2.07c0.31,0.22,0.81,0.16,1.11-0.07	c0.5-0.38,0.38-1.19,0.3-1.78C58.23,31.62,57.73,30.4,57.33,30.44z"/><path class="st5" d="M61.04,32.96c-0.35,0.29-0.99,0.14-1.19-0.3c-0.17-0.39,0.04-0.91,0.44-1.04c0.31-0.1,0.64,0.06,0.81,0.3	C61.34,32.24,61.32,32.72,61.04,32.96z"/><path class="st5" d="M64.52,33.41c-0.27,0.36-0.05,1.11,0.37,1.26c0.54,0.2,1.31-0.61,1.19-1.04	C65.95,33.21,64.86,32.95,64.52,33.41z"/><path class="st5" d="M59.85,35.78c0.09,0.7-0.43,1.52-0.89,1.48c-0.36-0.03-0.67-0.56-0.67-1.04c0.01-0.68,0.69-1.3,1.11-1.19	C59.76,35.14,59.85,35.74,59.85,35.78z"/></svg>