<?xml version="1.0" encoding="utf-8"?><!-- Generator: Adobe Illustrator 26.0.3, SVG Export Plug-In . SVG Version: 6.00 Build 0)  --><svg version="1.1" id="Ebene_2" xmlns="http://www.w3.org/2000/svg" xmlns:xlink="http://www.w3.org/1999/xlink" x="0px" y="0px"	 viewBox="0 0 100 100" style="enable-background:new 0 0 100 100;" xml:space="preserve"><style type="text/css">	.st0{fill:#612F19;stroke:#000000;stroke-width:2;stroke-miterlimit:10;}	.st1{fill:#5abcd8;stroke:#000000;stroke-miterlimit:10;}	.st2{fill:#8B8F8E;stroke:#000000;stroke-width:0.5;stroke-miterlimit:10;}	.st3{fill:#8B8F8E;stroke:#000000;stroke-width:0.5;stroke-miterlimit:10;}	.st4{fill:#DB93A6;stroke:#000000;stroke-width:0.25;stroke-miterlimit:10;}	.st5{fill:#DB93A6;stroke:#000000;stroke-width:0.25;stroke-miterlimit:10;}</style><polygon class="st0" points="92,25.75 50,1.5 8,25.75 8,74.25 50,98.5 92,74.25 "/><path class="st1" d="M47.72,2.82c0.64,1.88,1.06,3.98,0.06,4.96c-1.06,1.04-2.74-0.09-4.22,0.89c-1.76,1.16-1.88,4.68-1,7.22	c0.95,2.75,2.87,3.74,5.67,6.11c7.01,5.95,5.22,8.51,10.11,11.33c4.8,2.77,6.07,0.06,12.89,3.11c5.35,2.4,6.91,5.12,9.89,4.33	c2.1-0.56,3.61-2.75,5.44-5.33c2.16-3.04,2.34-4.6,3-4.56c0.47,0.03,1.67,0.91,2.45,18.33c0.57,12.77,0.09,16.14-1.34,16.56	c-1.58,0.46-2.56-3.23-7-4.67c-3.82-1.24-4.91,0.73-8.67-0.33c-4.27-1.2-4.85-4.98-8.11-4.89c-0.51,0.02-1.99,0.15-4.44,2.56	c-3.04,2.98-4.01,5.94-6.33,12.44c-4.63,12.96-5.15,13.4-4.78,15.67c0.5,3.02,2.02,5.92,0.44,7.89c-0.82,1.03-2.08,1.29-2.89,1.44	c-4.12,0.79-7.83-1.88-11.92-4.91c-4.73-3.5-7.09-5.25-7.19-7.75c-0.1-2.54,2.04-3.03,4.78-7.44c2.79-4.5,1.92-6.07,4.89-13.67	c2.55-6.54,3.39-5.37,4.44-9.33c0.29-1.1,2.65-10.54-2.44-17.78c-0.71-1-2.47-2.6-6-5.78c0,0-3.38-3.05-7.56-5.67	c-1.01-0.63-2.12-1.15-3.67-1.67c-3.09-1.04-4.44-0.64-4.67-1.22c-0.56-1.45,7-5.68,15.2-10.37C40.24,7.17,44.71,4.57,47.72,2.82z"	/><path class="st2" d="M13.56,26.67c4.46-4.3,7.57-4.86,9.67-4.44c5.84,1.15,8.23,10.75,16.78,13.89c0.24,0.09,0.82,0.23,1.44,0.67	c2.35,1.63,2.54,5.14,2.67,8.33c0.17,4.35,0.27,6.76-1.22,9.22c-1.72,2.84-3.84,2.96-4.78,6c-0.53,1.73,0,2.21-0.22,4.56	c-0.3,3.26-1.62,5.58-3.22,8.33c-2.8,4.81-4.2,7.22-6.56,7.89c-4.3,1.23-9.98-3.37-12.78-8.22c-3.41-5.93-1.77-11.27-1.11-22.11	C14.58,44.91,14.69,36.69,13.56,26.67z"/><path class="st2" d="M50.56,4.33c2.05-1.56,7.52,3.87,15,8.67c11.54,7.41,17.53,6.68,20.11,13c0.32,0.78,1.86,4.56,0.22,8.44	c-0.14,0.32-2.13,4.88-5.44,5.11c-3.66,0.26-4.37-5.07-9.89-7c-4.7-1.65-6.31,1.48-10.67-0.11c-3.74-1.37-3.47-4-9.56-11.33	c-4.75-5.73-8.42-8.33-7.56-10.11c0.78-1.61,4.31-0.54,6.33-3.22C50.31,6.19,49.7,4.98,50.56,4.33z"/><path class="st3" d="M65.78,57c1.59-0.16,1.81,1.26,4.78,2.67c5.51,2.61,8.77-0.43,12.44,2.22c2.17,1.56,3.35,4.28,3.33,6.67	c-0.01,1.63-0.6,3.74-3.78,7c-4.39,4.5-7.49,4.79-14.22,8.67c-8.59,4.94-11.31,8.94-13.67,7.67c-1.94-1.05-1.84-4.7-1.78-7	c0.14-5.14,2.08-7.11,5.89-15.56C62.5,61.08,63.21,57.26,65.78,57z"/><path class="st4" d="M65.89,60.78c0.22,0.38,0.47,0.95,0.33,1.56c-0.31,1.41-2.43,1.8-2.33,2.56c0.07,0.51,1.09,0.75,1.22,0.78	c1.51,0.35,3.78-0.48,4-2.11c0.12-0.88-0.37-1.81-1.11-2.33C67.08,60.56,66.07,60.74,65.89,60.78z"/><path class="st4" d="M70.44,71.22c0.28-0.24,1.01,0.67,2.11,0.56c0.96-0.1,1.49-0.92,1.67-0.78c0.25,0.2-1.23,1.55-1,3.11	c0.18,1.22,1.27,1.74,1,2.33c-0.18,0.4-0.9,0.62-1.44,0.44c-0.78-0.25-0.7-1.16-1.78-3.78C70.56,72.05,70.23,71.41,70.44,71.22z"/><path class="st4" d="M76.89,64.56c-0.36,0.33,0.04,1.71,1,2.33c0.74,0.48,1.58,0.36,1.78,0.33c1.03-0.15,1.15-0.75,2.44-1.11	c0.83-0.23,1.27-0.12,1.33-0.33c0.09-0.32-0.77-1.05-1.78-1.22c-1.18-0.2-1.54,0.56-2.89,0.44C77.64,64.91,77.16,64.3,76.89,64.56z"	/><path class="st4" d="M79.89,70.67c-0.43,1.99-0.55,2.04-0.44,2.44c0.16,0.65,0.71,1.49,1.22,1.44c0.75-0.06,0.51-1.92,2-3.22	c0.98-0.86,2-0.84,2-1.33c0-0.43-0.77-0.94-1.44-0.89c-0.7,0.06-0.82,0.69-1.54,0.74c-0.66,0.04-0.96-0.48-1.35-0.29	C80.09,69.67,80.04,69.96,79.89,70.67z"/><path class="st4" d="M59.11,75.11c-0.48,2.64-0.03,3.22-0.56,4.11c-0.66,1.14-1.67,0.67-2.56,1.89c-1.04,1.43-0.75,3.56-0.33,3.67	c0.37,0.09,0.66-1.42,2.22-3.33c0.61-0.75,2.63-3.22,4.22-2.78c1.12,0.31,1.25,1.84,2,1.78c0.7-0.06,1.48-1.48,1.11-2.44	c-0.38-0.99-1.63-0.63-3.22-1.89c-1.46-1.16-1.8-2.58-2.33-2.44C59.48,73.72,59.33,73.95,59.11,75.11z"/><path class="st5" d="M23.33,69.56c0.81-0.66,2.32,1.25,4.56,1c1.77-0.2,2.78-1.61,3.22-1.22c0.28,0.24,0.15,1.01-0.22,1.56	c-0.95,1.39-3.04,0.65-3.78,1.89c-0.52,0.88,0.22,1.75-0.33,2.22c-0.39,0.33-0.91,0.01-2.89-0.44c-1.84-0.42-2.44-0.39-2.56-0.78	c-0.16-0.55,0.99-0.87,1.56-2.33C23.3,70.37,22.93,69.88,23.33,69.56z"/><path class="st5" d="M20.11,55.56c-0.22,0.34,0.68,0.87,0.89,2.11c0.2,1.2-0.4,2.14-0.22,2.22c0.26,0.12,1-2.2,2.67-2.56	c0.73-0.16,1.06,0.19,1.67-0.11c0.92-0.46,1.36-1.86,1-2.22c-0.37-0.37-1.26,0.67-3.11,0.78C21.39,55.87,20.35,55.18,20.11,55.56z"	/><path class="st5" d="M36.11,39.44c-0.35,0.13-0.34,0.97-0.33,1.56c0,0.38,0.01,0.87,0.22,1.56c0.51,1.68,1.85,3.29,2.22,3.11	c0.17-0.08,0-0.44-0.22-2.33c-0.19-1.64-0.16-2.11-0.56-2.78C37.1,39.97,36.47,39.31,36.11,39.44z"/><path class="st5" d="M39.56,51.44c-0.31,0.2-1.64,1.13-1.89,2.78c-0.02,0.16-0.27,1.97,0.67,2.44c0.52,0.26,1.23,0.02,1.67-0.33	c0.73-0.59,0.52-1.34,1-2.56c0.76-1.92,2.23-2.42,2-2.89C42.76,50.4,40.9,50.56,39.56,51.44z"/><path class="st5" d="M24.67,41.44c-0.18,0.5-0.3,0.84-0.56,0.89c-0.63,0.12-1.89-1.61-2-3.44c-0.12-2.13,1.41-2.85,0.89-4.22	c-0.49-1.32-2.13-1.3-2.33-2.67c-0.12-0.82,0.39-1.39,0-1.89c-0.41-0.52-1.26-0.27-1.33-0.56c-0.08-0.32,0.85-1.11,1.78-1	c0.95,0.11,1.2,1.08,1.89,1c0.78-0.09,1.14-1.4,1.33-1.33c0.28,0.1-1.14,2.66-0.22,4.67c0.63,1.38,1.85,1.36,2,2.56	c0.14,1.08-0.85,1.16-1.11,2.89C24.83,39.45,25.14,40.11,24.67,41.44z"/><path class="st5" d="M48.44,9.56c-0.27,0.09-1.36,0.49-1.78,1.56C46.32,12,46.65,12.83,47,13.67c0.54,1.3,1.99,3.74,3.22,3.44	c0.81-0.19,1.43-1.54,1.22-2.56c-0.19-0.94-0.96-0.99-1.11-1.89c-0.21-1.24,1.11-1.94,0.78-2.67C50.81,9.34,49.41,9.24,48.44,9.56z"	/><path class="st5" d="M59.56,13.44c-0.22,0.33,1.97,1.47,2,3.33c0.02,1.3-1.02,2.23-0.78,2.44c0.27,0.24,1.31-1.19,3.11-1.44	c1.56-0.22,2.61,0.61,2.78,0.33c0.22-0.37-1.59-1.94-3.44-3.11C61.54,13.94,59.75,13.16,59.56,13.44z"/><path class="st5" d="M68.44,23.89c-0.28,0.28,1.2,1.4,1.44,3.33c0.26,2.04-1.03,3.54-0.56,3.89c0.38,0.28,1.39-0.53,1.56-0.67	c1.4-1.12,2.51-3.29,1.78-4.44c-0.18-0.28-0.33-0.28-1.78-1C69.06,24.09,68.6,23.73,68.44,23.89z"/><path class="st5" d="M76.67,22.89c-0.22,0.28,0.85,1.02,0.78,2.22c-0.07,1.19-1.2,1.8-1,2.11c0.25,0.4,1.96-0.8,4.33-0.78	c2.1,0.02,3.44,1,3.56,0.78c0.18-0.35-3.45-2.46-4-2.78C77.14,22.59,76.75,22.78,76.67,22.89z"/><path class="st5" d="M81,33.22c-0.98,0.1-1.63,0.16-2,0.67c-0.59,0.81,0.05,2.09,0.22,2.44c0.41,0.82,1.29,1.85,1.78,1.67	c0.7-0.27-0.25-2.65,1-3.78c0.77-0.69,1.89-0.47,1.89-0.67C83.89,33.33,82.45,33.08,81,33.22z"/><path class="st5" d="M59.89,26c-0.01,0.62,1.21,0.69,1.56,1.67c0.39,1.1-0.76,2.11-0.44,2.44c0.36,0.37,2.43-0.27,2.89-1.78	c0.45-1.47-0.76-3.32-2.11-3.44C60.91,24.81,59.9,25.44,59.89,26z"/></svg>