<?xml version="1.0" encoding="utf-8"?><!-- Generator: Adobe Illustrator 26.0.3, SVG Export Plug-In . SVG Version: 6.00 Build 0)  --><svg version="1.1" id="Ebene_2_00000109015629924098340060000008336861892324566444_"	 xmlns="http://www.w3.org/2000/svg" xmlns:xlink="http://www.w3.org/1999/xlink" x="0px" y="0px" viewBox="0 0 100 100"	 style="enable-background:new 0 0 100 100;" xml:space="preserve"><style type="text/css">	.st0{fill:#612F19;stroke:#000000;stroke-width:2;stroke-miterlimit:10;}	.st1{fill:#5abcd8;stroke:#000000;stroke-miterlimit:10;}	.st2{fill:#8B8F8E;stroke:#000000;stroke-width:0.5;stroke-miterlimit:10;}	.st3{fill:#8B8F8E;stroke:#000000;stroke-width:0.5;stroke-miterlimit:10;}	.st4{fill:#EBB3C9;stroke:#000000;stroke-width:0.25;stroke-miterlimit:10;}	.st5{fill:#DB93A6;stroke:#000000;stroke-width:0.25;stroke-miterlimit:10;}</style><path class="st0" d="M8,74.2l42,24.2l42-24.2V25.8C78,17.7,64,9.6,50,1.5C37.2,8.9,24.5,16.2,11.7,23.6C10.5,24.3,9.2,25,8,25.8	V74.2z"/><path class="st1" d="M25.6,15.6c11.7-6.9,19-11.4,19.9-10.2c0.7,0.8-2.4,2.9-3.8,7.8c-1.5,5.2-0.1,9.9,0.7,12.7	c1.4,4.5,2.3,4.1,8.1,14.4c3.6,6.3,4,7.9,7,12c2.4,3.3,2.4,2.8,5.9,7.3c6.5,8.3,6,9.8,9.6,12.6c4.5,3.5,7.7,3.1,8,5.2	c0.2,1.1-0.3,3-11.9,10c-1.3,0.8-14.9,9-15.9,7.6c-0.4-0.6,2.6-2.1,3.2-5.6c0.5-2.9-1.1-3.8-3.1-9.9c-1.5-4.5-0.8-5.1-2.2-7.8	c-0.6-1.1-3.3-6.7-6.4-6.5c-3.2,0.2-6.4,6.9-6.2,13c0.2,8,6.1,12.2,4.7,13.8c-0.8,0.9-3.2,0.2-20.7-9.2C14,78,11.6,76.5,11.6,74.3	c0-0.8,0.3-2.5,11.5-9.5c7.5-4.7,10.5-6,13-10.1c1-1.6,2.6-4.2,2.2-7.4c-0.4-4.2-4-6.9-8.7-10.4C23.9,32.9,17.8,28.5,11,24	C14.3,22.1,19.4,19.2,25.6,15.6z"/><path class="st2" d="M42,16.2c0,2.5,1.8,2.9,4.4,8.8c1.4,3.3,1.7,5.3,2.8,5.3c1.5,0.1,2.9-3.4,3-3.8c0.8-1.9,0.2-2.5,1.1-4.1	c1.1-2.1,2.6-2.1,3.3-4c0.5-1.3,0.2-2.5,0.1-3.3c-0.7-3.7-3.9-5.7-4.7-6.2c-1.2-0.8-2.4-1.1-3.2-1.3C42.6,11.6,42,14.8,42,16.2z"/><path class="st2" d="M63,17.2c-2.1,0.9-1.7,3.3-4.2,7.6c-0.6,1-1.5,2.2-3.5,4.8c-3.2,4.3-4.1,4.8-3.8,5.9c0.5,2.3,5,4.1,7,2.7	c1.5-1,0.4-2.9,1.8-4.4c2.5-2.5,7.4,1,10.4-1.6c1.6-1.4,1.3-3.5,3-3.9c1.6-0.4,2.8,1.3,3.7,0.7c0.8-0.5,0.9-2.6-0.1-3.8	c-1.3-1.7-3.6-0.6-4.8-2.3c-0.7-1,0-1.6-0.7-3c-1.1-2.1-4.1-2.6-5.4-2.8C64.7,16.9,63.9,16.8,63,17.2z"/><path class="st3" d="M82,37.4c-1.2,2.2-1.8,3.3-2.2,4.7c-0.7,2.2-0.6,3.6-1.4,3.8c-1,0.3-2.4-1.5-3.1-2.4c-2.7-3.4-2-5.6-3.9-6.7	c-2.1-1.2-4.8,0.5-5.1-0.2c-0.2-0.6,1.6-1.9,2.7-2.7c2-1.4,3.3-2.4,5.1-2.8c3.2-0.8,3.8,1,6.1,0.1c2.5-1,2.8-3.5,5.3-3.8	c0.3,0,1.8-0.2,2.3,0.6C88.5,29.3,85.1,31.6,82,37.4z"/><path class="st3" d="M73.5,52.2c-0.9,0.5-1.8-1-4.4-1.5c-1.7-0.3-1.9,0.2-3.9,0.2c-1,0-3.6-0.2-5.6-1.8c-2.2-1.8-3.4-5.3-2.3-6.5	c0.9-1,2.5,0.5,5.4-0.4c2.6-0.8,3-2.4,4.5-2.2c1.3,0.2,1.2,1.6,3.7,4.5c1.9,2.2,2.8,2.5,3.3,4.2C74.5,50,74.4,51.8,73.5,52.2z"/><path class="st2" d="M82.5,54.6c0.6,0.1,2.3,0.4,3.7-0.7c1.9-1.4,1.7-4,1.7-4.3c-0.1-1.5-0.8-1.8-2-4.6c-1.2-2.8-0.9-3.7-1.7-4	c-1.5-0.6-4.2,2.1-5.4,4.7c-0.6,1.3-1.7,3.5-0.7,5.7C79.3,54,82.3,54.5,82.5,54.6z"/><path class="st3" d="M87.2,64.5c0.6,1.5,0,3.5-1,3.8c-0.4,0.1-0.8,0-2.7-1.4c-3.1-2.3-3.8-3.2-5.1-3.3c-1.1,0-1.1,0.6-2.4,0.8	c-1.5,0.3-2.6-0.3-5.7-2.1c-5.8-3.3-6.1-4-6.2-4.7c-0.1-1.3,0.6-2.9,1.8-3.4c2.2-0.9,4.1,2.6,7.2,2c1.7-0.3,1.6-1.4,3.5-2.1	c3.7-1.3,9.1,1.3,9.6,4.1c0.2,1.5-1.1,2.6-0.3,4.3C86.3,63.6,86.8,63.6,87.2,64.5z"/><path class="st3" d="M84.1,70.1c0.6,1.1,1,3,0.2,3.8c-0.9,0.8-2.9-0.1-5.8-1.4c-3-1.4-5.4-2.5-5.3-4c0-1.2,1.7-2,1.8-2.1	c1.8-0.8,3.8,0.1,5.8,1.2C82.4,68.4,83.4,68.9,84.1,70.1z"/><path class="st2" d="M50.2,75.1c0.1,0.4,0.2,1.1-0.2,1.4c-0.6,0.6-1.7-0.4-3.6-0.5c-2.4-0.2-3.3,1.3-4.2,0.7c-1-0.7-1-3.5,0.3-4.5	c0.9-0.7,1.8,0,3-0.7c1.7-1,1.4-3.3,2.2-3.4C48.7,68,49.6,72.4,50.2,75.1z"/><path class="st2" d="M50.7,82.3c-1-1-2.9-1.6-4-0.9c-1.2,0.8-0.5,2.4-1.3,6.2c-0.8,3.3-1.8,3.9-1.3,5.3c0.7,1.9,3.1,2.9,5,3	c0.8,0,2.5,0.1,3.4-1c0.9-1.1,0.2-2.3-0.4-6.5C51.5,84.4,51.8,83.4,50.7,82.3z"/><path class="st2" d="M27.5,46.1c-0.6,0.6-2.5,0-3.5-1.1c-1.2-1.3-0.5-2.5-1.4-3.2c-1.4-1-3.4,1.5-6.9,1c-0.8-0.1-2.5-0.3-3.4-1.6	c-1-1.3,0.1-2.4-0.4-5.4c-0.4-2.2-1.1-2.5-1-4.2c0-0.4,0.2-2.9,1.6-3.5c0.9-0.4,1.8,0.1,2.2,0.3c1.8,0.9,1.7,2.5,3.3,4.5	c1.2,1.5,1.6,1,3.9,3.1c2.1,1.9,3.3,3.7,4,4.9C26.5,42,28.3,45.2,27.5,46.1z"/><path class="st2" d="M27.4,43c-0.4,0.8,1.9,1.9,1.7,3.5c-0.2,1.3-1.9,1.4-2,2.7c-0.1,1.2,1.2,1.6,1.2,2.8c-0.1,1.5-1.9,1.6-2.7,3.6	c-0.5,1.3-0.4,3,0.4,3.6c0.9,0.6,2.4-0.2,3.9-1.1c1.7-1,4.4-2.5,5.4-5.6c0.3-0.9,0.8-2.6,0.1-4c-0.6-1.1-1.4-0.9-2.8-2.4	c-1.5-1.6-1.3-2.7-2.6-3.3C29.1,42.4,27.7,42.5,27.4,43z"/><path class="st3" d="M21.9,46.1c-1-0.8-2.3-0.5-3.8-0.3c-3.6,0.4-4.5-0.7-5.4,0.2c-0.7,0.7-0.3,1.5-0.2,4.4c0.1,2.7,0.1,4.9-0.7,7.3	c-0.9,2.5-2.2,3.6-1.7,5.3c0.3,0.8,0.6,0.7,1.2,1.7c1.4,2.5,0.4,5.2,0.9,5.3c0.5,0.1,0.8-2.6,3-4.4c2.3-1.8,4.6-1.2,5.2-2.8	c0.5-1.2-0.7-1.8-0.4-3.3c0.4-1.8,2.2-1.7,3.8-4.1c0.4-0.6,2.1-3,1.3-5c-0.2-0.6-0.4-0.4-2.4-3.3C22.3,46.4,22.2,46.3,21.9,46.1z"/><path class="st4" d="M49.8,11.8c-1.7-0.6-2.4-1.5-2.7-1.3c-0.2,0.2,0.1,1.2,0.9,1.9c0.7,0.6,1.5,0.4,1.6,0.7	c0.1,0.5-1.5,0.8-1.6,1.8c-0.1,0.5,0.3,1,0.7,1.1c0.4,0.1,0.9-0.6,1.2-1c0.4-0.6,0.9-1.5,1-2.9C50.7,12,50.3,11.9,49.8,11.8z"/><path class="st4" d="M47.6,19.5c0.1,0.4,0.4,0.8,0.8,0.7c0.3-0.1,0.5-0.5,0.4-0.9c-0.1-0.5-0.8-0.7-1.1-0.5	C47.5,18.9,47.5,19.3,47.6,19.5z"/><path class="st4" d="M44.7,15.8c-1.2-1.3-1.4-1.4-1.5-1.3c-0.2,0.1-0.1,0.9-0.1,1c0.1,0.3,0.3,1.5,1.2,1.8c0.5,0.2,1.1,0.1,1.3-0.2	C45.6,17,45.5,16.8,44.7,15.8z"/><path class="st4" d="M54.4,18.7c0.4-1.1-0.4-2.1-0.4-2.1c-0.7-0.9-2-1.2-2.3-0.9c-0.2,0.2,0,0.9,0.2,1.3c0.5,0.9,1.5,0.9,1.5,1.3	c0,0.5-1.6,0.5-1.8,1.3c-0.1,0.3,0.1,0.7,0.4,0.8C52.6,20.6,54.1,19.9,54.4,18.7z"/><path class="st4" d="M47.2,23.3c-0.4,1.3,0.4,2.5,0.6,2.7c0.4,0.5,1.3,1.4,1.8,1.1c0.3-0.2,0.5-0.6,0.4-1c-0.1-0.7-0.9-0.8-1.4-1.6	c-0.7-1.2,0-2.6-0.3-2.7C48.1,21.6,47.4,22.4,47.2,23.3z"/><path class="st4" d="M66.3,22.4c0.5,0.6,1.6,1,2.2,0.6c0.4-0.3,0.6-1,0.3-1.3c-0.3-0.5-1.2-0.1-1.9-0.7c-0.6-0.5-0.6-1.2-0.7-1.2	C65.8,19.8,65.5,21.4,66.3,22.4z"/><path class="st4" d="M64.4,27.8c0.2,0.3,0.6,0.7,0.9,0.7c0.4-0.1,0.5-0.9,0.7-1.9c0.1-0.7,0.2-1.3-0.2-1.6c-0.3-0.2-0.6-0.1-0.7-0.1	C64.3,25.2,63.8,26.8,64.4,27.8z"/><path class="st4" d="M61.6,24.4c0.1,0.6,0.6,1.2,1,1.1c0.3-0.1,0.4-0.8,0.4-1c0.1-0.7-0.1-1.6-0.4-1.7	C62.1,22.7,61.4,23.5,61.6,24.4z"/><path class="st4" d="M67.8,25c0,0.3,1.2,0.3,1.4,1c0.2,0.6-0.8,1.2-0.6,1.6c0.2,0.3,1.2,0.2,1.6-0.4c0.5-0.6,0.3-1.4-0.1-1.9	c-0.4-0.5-1-0.8-1.6-0.7C68.3,24.6,67.8,24.8,67.8,25z"/><path class="st4" d="M58.5,28.8c-0.3,1-0.7,2-0.1,2.8c0.4,0.6,1.2,1,2,0.7c1-0.4,1.2-1.9,1-2c-0.2-0.1-0.8,0.8-1.3,0.7	c-0.4-0.1-0.5-0.8-0.7-1.6c-0.2-1.2-0.1-2-0.3-2C59.1,27.4,58.7,28.1,58.5,28.8z"/><path class="st4" d="M55.3,33.5c-0.3,0.9,0.2,2,0.7,2.1c0.4,0,0.8-0.5,0.9-1c0.3-0.8,0-2-0.5-2.1C55.9,32.5,55.4,33.1,55.3,33.5z"/><path class="st5" d="M83.1,33.3c-0.7,1-0.7,1.6-1.1,1.6c-0.4,0-0.7-0.5-0.9-0.9c-0.2-0.8,0.3-1.8,1.1-2.2c0.8-0.5,1.9-0.4,2,0	C84.3,32.1,83.8,32.3,83.1,33.3z"/><path class="st5" d="M76.1,38.5c0.3,0.3,1.1-0.3,1.2-0.1c0.1,0.2-0.6,0.8-1.2,1.8c-0.6,1.1-0.9,2.5-0.6,2.6c0.1,0,0.3,0,1.7-1.7	c1.7-2,1.8-2.3,1.8-2.7c-0.1-1-1.5-1.8-2.3-1.5C76.1,37.2,75.8,38.2,76.1,38.5z"/><path class="st5" d="M72.2,35.5C72,36.2,72.6,37,73,37c0.7,0,1.6-2.2,1.1-2.6C73.8,34,72.3,34.4,72.2,35.5z"/><path class="st5" d="M70.5,33.7c-0.4-0.2-1.1,0.5-1,1c0.1,0.3,0.4,0.5,0.8,0.5c0.3,0,0.6-0.3,0.6-0.6C71,34.2,70.8,33.8,70.5,33.7z"	/><path class="st4" d="M82.5,45.4c-1.2,1.1-1.8,1.3-1.7,1.7c0.1,0.4,0.8,0.6,1.3,0.6c0.7,0,1.3-0.4,1.6-1c0.5-0.9,0.2-2.1-0.2-2.2	C83.3,44.5,83.2,44.8,82.5,45.4z"/><path class="st4" d="M83.9,48.9c-0.2,0.4-0.1,0.8,0.3,1c0.3,0.2,0.7,0,0.9-0.2c0.4-0.4,0.3-1.1-0.1-1.3	C84.7,48.2,84.1,48.5,83.9,48.9z"/><path class="st5" d="M81.8,60.9c-0.1,0.2-0.4,0.7-0.3,1.9c0.1,1.3,0.1,2,0.6,2.4c0.7,0.7,1.9,0.7,2,0.4c0.1-0.2-1-0.5-1.3-1.4	c-0.2-0.7,0.4-1.1,0.5-2.2c0.1-0.9-0.2-1.9-0.7-2C82.3,60,81.8,60.8,81.8,60.9z"/><path class="st5" d="M79.6,57.3c-0.8-0.2-1.9,0.1-1.9,0.6c0,0.3,0.4,0.6,1.3,1.2c0.9,0.6,1.3,0.9,1.6,0.7c0.4-0.2,0.4-1,0.2-1.6	C80.4,57.5,79.8,57.3,79.6,57.3z"/><path class="st5" d="M77.2,63.1c0.4,0.1,1-0.1,1.1-0.4c0.1-0.6-1.3-1.5-1.7-1.3C76.3,61.6,76.4,62.9,77.2,63.1z"/><path class="st5" d="M73.2,59.7c-0.7,0.2-1.1,0.9-1.3,1.6c-0.1,0.5,0,1.3,0.4,1.5c0.4,0.2,1-0.4,1.2-0.7c0.7-0.7,1.2-2,0.7-2.4	C74,59.4,73.3,59.7,73.2,59.7z"/><path class="st5" d="M70,60.1c0.1,0.3,0.9,0.6,1.3,0.2c0.3-0.3,0.3-1,0.1-1.1C71,58.9,69.9,59.7,70,60.1z"/><path class="st5" d="M67.3,57.2c-0.7,0.1-1.2,1-1,1.6c0.3,0.8,2.2,0.9,2.6,0.2c0.2-0.4-0.1-1-0.4-1.3C68.3,57.6,67.8,57.2,67.3,57.2	z"/><path class="st5" d="M68.6,43.4c-0.5-0.2-0.9,0.5-1.3,0.3c-0.4-0.2,0-1.1-0.4-1.3c-0.3-0.2-1,0.3-1.3,1c-0.2,0.8,0.2,1.7,1,2	c0.7,0.3,1.3,0,1.4-0.1c0.1-0.1,1-0.5,1-1.1C69,43.9,68.8,43.5,68.6,43.4z"/><path class="st5" d="M69.2,47.4C69,48,69.6,49,70.4,49.1c0.5,0,1-0.2,1.2-0.6c0.2-0.7-0.7-1.8-1.6-1.7	C69.7,46.8,69.4,47.1,69.2,47.4z"/><path class="st5" d="M62.8,45.6c-0.3,0.2-0.3,0.9,0,1.3c0.4,0.5,1.4,0.5,1.6,0.2c0.2-0.3-0.1-0.8-0.4-1	C63.7,45.7,63.1,45.4,62.8,45.6z"/><path class="st5" d="M59.9,45.8c0.3,0.2,0.8,0.2,1,0c0.3-0.4-0.3-1.5-0.7-1.4C59.9,44.4,59.5,45.4,59.9,45.8z"/><path class="st5" d="M81.6,73c0.3,0.5,0.9,0.8,1.2,0.7c0.2-0.1,0.4-0.6,0.2-0.8c0,0,0,0,0,0c-0.4-0.4-0.8-1.4-1.2-1.4	C81.6,71.4,81.3,72.3,81.6,73z"/><path class="st5" d="M75.8,70.4c0,0.4,0.8,0.7,1,0.7c0.5,0.2,1.4,0.4,1.6,0c0.2-0.4-0.2-1.2-0.9-1.4C76.7,69.4,75.8,70,75.8,70.4z"	/><path class="st4" d="M47.1,84.5c-0.1,0.5,0.5,1,1,1.2c0.4,0.2,1.1,0.3,1.3-0.1c0.3-0.4-0.1-1.3-0.8-1.6C48,83.8,47.2,84.1,47.1,84.5	z"/><path class="st4" d="M48.7,89.9c0.2,0.4,0.8,0.6,1,0.4c0.4-0.3,0.2-1.4-0.2-1.5C49.1,88.7,48.4,89.4,48.7,89.9z"/><path class="st4" d="M47.5,89.3c-0.3-0.4-1.9,0.2-1.9,0.8c0,0.2,0.3,0.2,0.7,0.7c0.7,0.7,0.5,1.3,1,1.5c0.3,0.2,0.8,0.1,1-0.2	c0.2-0.4-1-1-1-2C47.4,89.7,47.7,89.4,47.5,89.3z"/><path class="st4" d="M49.3,94.1c-0.2,0.3,0.1,1,0.6,1.3c0.8,0.5,2.1-0.4,2.1-0.8c0-0.4-1-0.5-1.3-0.6C50.3,93.8,49.5,93.7,49.3,94.1	z"/><path class="st4" d="M30.5,47.6c0.1,0.3,0.4,1.4,1.3,1.8c0.1,0,1,0.4,1.3,0c0.3-0.4,0.1-1.2-0.3-1.6c-0.4-0.4-0.7-0.2-1.3-0.5	c-0.7-0.5-0.8-1.2-1-1.1C30.3,46.2,30.3,46.9,30.5,47.6z"/><path class="st4" d="M33,51c-0.5,0.3-0.5,1.4,0.1,1.8c0.3,0.2,0.8,0.2,1.1-0.1c0.4-0.4,0.1-1.4-0.4-1.7C33.7,51,33.3,50.8,33,51z"/><path class="st4" d="M29.1,50.1c-0.3,0.3-0.1,1.2,0.4,1.8c0.3,0.4,1,0.7,1.3,0.5c0.3-0.2,0.2-1-0.1-1.5	C30.3,50.2,29.4,49.8,29.1,50.1z"/><path class="st4" d="M28.6,54.7c-0.3,0.3-0.6,1-0.3,1.4c0.3,0.4,1.1,0.4,1.6-0.1c0.5-0.5,0.3-1.5-0.2-1.7	C29.3,54.1,28.8,54.4,28.6,54.7z"/><path class="st5" d="M20.5,56.5c-0.6,0.4-1.5,0.4-2-0.2c-0.7-0.7-0.4-2-0.1-2.1c0.2-0.1,0.3,0.3,0.8,0.5c0.9,0.3,1.7-0.6,2-0.3	C21.6,54.8,21.4,56,20.5,56.5z"/><path class="st5" d="M14.6,60.2c-0.3,0.4,0.1,0.8-0.2,1.6c-0.2,0.9-0.9,1-0.9,1.7c0,0.7,0.5,1.4,0.9,1.4c0.4,0,0.4-0.8,1-2.3	c0.7-1.8,1.3-2.3,1-2.7C16.2,59.5,15,59.6,14.6,60.2z"/><path class="st5" d="M17.9,49.9c-0.3,0.8,0,1.8,0.4,1.8c0.4,0.1,0.9-0.7,1-0.8c0.5-0.8,0.7-2,0.3-2.2C19.2,48.5,18.2,49,17.9,49.9z"	/><path class="st5" d="M14.9,49.4c-0.4,0.3,0.3,1.1,0.2,2.5c-0.1,1.8-1.2,3-1,3.1c0.2,0.1,1.1-0.8,1.8-1.8c0.7-1,1.3-2,1-2.8	C16.5,49.6,15.3,49.1,14.9,49.4z"/><path class="st4" d="M19.6,37.5c-0.3,0.6,0.1,1.4,0.7,1.6c0.4,0.1,0.8-0.1,1-0.4c0.4-0.6,0.1-1.6-0.5-1.8	C20.2,36.7,19.7,37,19.6,37.5z"/><path class="st4" d="M16.4,36.8c-0.4,0-0.3,1-1.1,1.8c-0.7,0.8-1.5,0.8-1.5,1.1c0,0.3,0.9,0.6,1.7,0.4c1-0.2,1.8-1.2,1.7-2.2	C17.1,37.4,16.7,36.8,16.4,36.8z"/><path class="st4" d="M13.3,32.4c-0.5,0.3-0.7,1.3-0.3,1.6c0.3,0.3,0.8-0.1,1.6,0.2c1.1,0.3,1.4,1.2,1.6,1.1c0.2-0.1-0.1-1.5-1.1-2.3	C14.9,32.8,13.9,32,13.3,32.4z"/><path class="st4" d="M24,43.3c0.3,0.5,1.2,0.5,1.6,0.1c0.3-0.4,0-1-0.1-1c0-0.1-0.3-0.6-0.7-0.6C24.2,41.7,23.7,42.7,24,43.3z"/><path class="st4" d="M46.7,71.2c-0.1,0.1-0.5,0.9-0.1,1.5c0.4,0.4,1.1,0.5,1.5,0.2c0.7-0.6,0.2-2.2-0.4-2.4	C47.3,70.4,46.9,70.9,46.7,71.2z"/><path class="st4" d="M44,73.3c-1.1,0.7-1.1,2.5-0.7,2.7c0.2,0.1,0.4-0.4,1.3-0.9c0.6-0.3,0.9-0.2,1.1-0.5c0.3-0.4,0.2-1.2-0.2-1.5	C44.9,72.7,44.1,73.2,44,73.3z"/></svg>