<?xml version="1.0" encoding="utf-8"?><!-- Generator: Adobe Illustrator 26.0.3, SVG Export Plug-In . SVG Version: 6.00 Build 0)  --><svg version="1.1" id="Ebene_2_00000181767789207931491830000011781428836639403449_"	 xmlns="http://www.w3.org/2000/svg" xmlns:xlink="http://www.w3.org/1999/xlink" x="0px" y="0px" viewBox="0 0 100 100"	 style="enable-background:new 0 0 100 100;" xml:space="preserve"><style type="text/css">	.st0{fill:#612F19;stroke:#000000;stroke-width:2;stroke-miterlimit:10;}	.st1{fill:#5abcd8;stroke:#000000;stroke-miterlimit:10;}	.st2{fill:#8B8F8E;stroke:#000000;stroke-width:0.5;stroke-miterlimit:10;}	.st3{fill:#8B8F8E;stroke:#000000;stroke-width:0.5;stroke-miterlimit:10;}	.st4{fill:#EBB3C9;stroke:#000000;stroke-width:0.25;stroke-miterlimit:10;}	.st5{fill:#EBB3C9;stroke:#000000;stroke-width:0.25;stroke-miterlimit:10;}	.st6{fill:none;stroke:#000000;stroke-width:0.25;stroke-miterlimit:10;}</style><polygon class="st0" points="8.2,74.2 50.2,98.5 92.2,74.2 92.2,25.8 50.2,1.5 8.2,25.8 "/><path class="st1" d="M87,77.3c-4,0.7-10.4,1.1-15.7-2.4c-3-2-3.4-3.6-9-12.8c-7.3-11.8-9-11.9-10.8-17.7c-2.3-7.4,0.3-7.7-2.3-13.9	c-3-7-7.3-9-7.4-15.1c-0.1-3.9,2-5.8,1-6.9C42,7.8,40,7.8,27.4,14.7c-12.6,6.9-13.8,8.7-13.5,9.5c0.5,1.6,6.2-0.7,9.9,2.9	c2.3,2.1,1.2,3.8,3.8,6.6c3,3.2,5.5,2.2,7.7,5.1c1.5,2.2,2.3,5.7,0.9,7.8c-2.2,3.2-9.6,3.3-13.7,0.1c-1.6-1.3-2.4-2.9-5-6	c-1.2-1.5-1.8-3.1-3.6-4.2c-0.8-0.6-2.5-1.6-3.8-1.2c-2,0.7-2.5,5-1.9,19.2c0.6,15.7,1.5,17.3,2.9,18c3,1.5,7.8-1.6,15.7-6.7	c5.7-3.7,7.3-5.7,11.4-6.1c0.6-0.1,6.6-0.6,9.6,3.1c1.8,2.2,1.1,4.5,1.7,9.1c0.8,7,3.1,7.2,3.6,12.3c0.5,5.7-2.5,10.8-1.2,12.1	c1.6,1.6,9-3.6,16.2-8.1C75.9,83.2,82.6,79.6,87,77.3z"/><path class="st2" d="M84.8,72.1c0.2-0.5,0.3-1.2,0.4-2c0-0.8-0.1-1.5-0.2-2.3c-0.5-2.2-1.4-4-1.7-4.6c-1.3-2.6-1.9-3.9-2.9-4.2	c-1.9-0.6-3,2-5.9,1.9c-2.7-0.1-3.6-2.5-5.4-2c-1.5,0.5-2.4,2.6-2.3,4.2c0,2.3,2.7,2.3,4.6,5.3c2,3.2,0.6,5.3,2.6,6.8	c2.3,1.7,6.1,0.3,6.8,0C82.8,74.4,84.1,72.9,84.8,72.1z"/><path class="st2" d="M84.7,53.6C86,52,84.5,50.8,84.4,43c0-3.6,0.3-5.8-0.7-6.2c-0.9-0.4-1.7,1.1-5,2.6c-2.1,0.9-2.1,0.5-3.1,1.1	c-2.6,1.7-1.7,4.5-3.9,6.2c-2.2,1.7-4.2-0.1-6.2,1.6c-2.2,1.8-2.7,6.3-1,7.8c1.3,1.2,3,0,8-0.9C80.4,53.8,83,55.6,84.7,53.6z"/><path class="st3" d="M82.2,31.7c1-1,1.8-2.7,1.2-3.7c-0.1-0.2-0.6-0.9-3.4-0.8c-5.3,0.3-6.8,3.1-9.8,2.2c-2-0.6-2.5-2.3-3.9-2	c-1.2,0.3-2.1,2.1-2.1,3.6c0,0.9,0.4,1.4,2.3,4.8c1.4,2.4,1.5,2.8,1.4,3.3c-0.3,1.8-2.7,2.3-2.6,3.3c0.1,0.8,1.7,1.5,3.1,1.6	c2.9,0.1,5.8-2.5,6.9-5.4c0.9-2.3,0-3.2,1.1-4.4C78.1,32.4,80.3,33.6,82.2,31.7z"/><path class="st3" d="M63.8,41.3c0.7-1,0.8-2.1,0.8-2.4c0.1-2.1-1.1-2.6-2.6-6.1c-1-2.4-1-3.6-1.9-3.8c-0.9-0.2-2.1,0.9-2.7,1.9	c-1.4,2.3,0,4.2-1.4,6c-0.9,1.1-1.6,0.7-2.3,1.7c-2.2,2.7,0.9,9.6,2.9,9.6c1.2,0,0.9-2.6,3.7-4.4C61.7,42.7,62.9,42.7,63.8,41.3z"/><path class="st2" d="M73.6,25.2c1-1,1.8-2.8,1.2-3.7c-0.6-0.8-1.9,0-3.1-0.9c-1.7-1.2-0.4-3.6-2-5.2c-1.4-1.5-4.5-1.6-5.7-0.3	c-1,1.1,0,2.3-0.9,5.1c-0.8,2.5-2.1,2.8-1.9,3.9C61.8,26.6,70.2,28.6,73.6,25.2z"/><path class="st3" d="M54.3,33.4c1.5-0.6-0.3-4.3,2.1-7.4c1.6-2.2,3.4-1.7,4.6-4c0.9-1.8,0.6-3.6,0.3-5.1c-0.6-3.2-2.3-5.2-3.4-6.4	c-1.1-1.2-1.9-2.1-2.7-1.9c-0.3,0.1-1,0.3-2,4.7c-0.9,3.9-0.6,4.8-1.7,6.7c-0.8,1.6-1.2,1.3-1.9,2.7c-0.2,0.4-1.6,3.5-0.2,6.7	C50.5,31.6,53,34,54.3,33.4z"/><path class="st2" d="M47.9,19.8c1.8,0,3-3.7,3.3-5.4c0.2-0.9,1.2-5.4-1.2-7.1c-0.8-0.6-2.1-1-3-0.4c-0.8,0.5-0.7,1.4-1.2,4.3	c-0.6,3.5-1,3.7-0.8,4.9C45.3,17.7,46.6,19.8,47.9,19.8z"/><path class="st2" d="M33,44.2c0.9-0.2,1.6-1,1.8-1.8c0.7-2.3-2.6-5.3-4.3-4.9c-0.4,0.1-0.4,0.3-1.8,1.7c-1.1,1.1-1.7,1.6-2.2,1.9	c-1.4,0.6-2.4,0-2.7,0.4c-0.6,1,2.8,4.9,4.3,4.3c0.9-0.3,0.6-1.9,1.7-2.3C30.8,43.2,31.7,44.5,33,44.2z"/><path class="st3" d="M27.6,36.7c-0.4-1.1-1.2-1.4-2.4-2.4c-2.7-2.2-2.2-3.4-4.7-5.3c-0.8-0.6-3.3-2.6-4.7-1.8	c-0.7,0.4-0.8,1.8-0.9,4.4c-0.1,2.4-0.1,3.7,0.4,4.8c0.1,0.3,1.1,2,3,2.7c2.3,0.8,3.4-0.7,6,0.2c1.2,0.4,1.7,1,2.3,0.8	C27.6,39.6,28,37.9,27.6,36.7z"/><path class="st3" d="M46.3,72.1c0.3-1.1-0.2-1.7-0.9-3.8c-1-2.9-0.5-3.3-1.3-4.4c-1.2-1.7-3.2-2.3-3.4-2.3c-3.7-1-6.9,2.1-8.4,3.7	c-0.8,0.7-1.9,1.8-1.6,2.7c0.3,0.8,1.9,0.9,2.7,1c2,0.2,2.4-0.6,3.6-0.2c1.6,0.5,1.5,2,3.1,2.3c1.1,0.2,1.3-0.4,2.2-0.1	c1.5,0.5,1.5,2.7,2.6,2.8C45.4,73.7,46.1,72.8,46.3,72.1z"/><path class="st2" d="M50.2,93.1c0.5-1-0.7-1.6-1.6-4.2c-0.9-2.8,0-3.4-0.8-7c-0.4-1.7-0.9-2.8-1.7-4.6c-1.4-3.1-2.1-4.8-3.4-4.9	c-1-0.1-2.1,0.7-2.3,1.7c-0.4,1.4,1.6,2.1,1.9,4.2c0.2,1.5-0.6,2.8-2.1,5.4c-1.4,2.4-2,2.6-1.9,3.4c0.2,1.4,1.7,1.4,4,4	c1.3,1.5,1.2,1.9,2.1,2.4C46.4,94.9,49.6,94.5,50.2,93.1z"/><path class="st3" d="M35.4,85.2c0.9-0.5,1.2-1.2,2.7-3.8c1.4-2.5,1.4-2.2,1.6-2.7c0.6-2.2-0.5-4.7-2-6.2c-0.4-0.4-2.3-2.3-4.7-2.1	c-1.9,0.1-2.1,1.4-4,1.4c-1.9,0.1-2.2-1.3-4.1-1.2c-1.8,0.1-2,1.4-4.2,1.8c-2.2,0.4-3.3-0.7-4.2,0.1c-0.9,0.8-0.9,2.5-0.4,3.7	c0.4,1.1,1.3,1.6,3,2.7c0.7,0.4,1.6,1,2.8,1.4c3,1.1,3.7,0.1,5.7,0.9c2.9,1.2,2.8,4.1,5.4,4.4C33.1,85.7,34.3,85.9,35.4,85.2z"/><path class="st4" d="M81.6,71.8c0.1,0,0.1-0.8,0.4-1.9c0.2-1.1,0.4-1.2,0.3-1.6c-0.4-1-2.9-1.5-3.7-0.5c-0.4,0.5-0.4,1.4,0.1,1.7	c0.6,0.5,1.5-0.4,2.2,0C81.7,70.1,81.5,71.8,81.6,71.8z"/><path class="st4" d="M76.1,73.7c0.3-0.1,0.6-0.6,0.6-1c0-0.4-0.3-0.7-0.7-1c-1.5-1.3-1.8-2.1-2-2c-0.3,0.1,0.3,1.5,0.7,2.3	C75,72.7,75.6,73.8,76.1,73.7z"/><path class="st4" d="M79.6,65.3c-0.3,0.2-0.8,0.1-1-0.2c-0.3-0.5,0.5-1.2,0.2-1.7c-0.4-0.6-2.1,0.1-2.5-0.5c-0.2-0.4,0-1,0.4-1.3	c0.7-0.7,2.2-0.4,3,0.4C80.6,62.9,80.3,64.9,79.6,65.3z"/><path class="st4" d="M75.3,66.8c0.2-0.4-0.1-1.2-0.5-1.3c-0.6-0.1-1.2,0.8-1,1.2C73.9,67.2,75,67.3,75.3,66.8z"/><path class="st4" d="M72.5,65.9c0.4-0.5,0.3-1.5-0.2-1.8c-0.7-0.5-1.8,0.3-2.2-0.2c-0.5-0.5,0.5-1.8,0-2.2c-0.3-0.3-1-0.1-1.4,0.4	c-0.7,0.8,0,2.7,1.2,3.6C70.6,66.2,72,66.6,72.5,65.9z"/><path class="st4" d="M83,51.3c-0.3,0.1-1-0.7-1.3-1.6c-0.4-1.2,0-2.7,0.4-2.7c0.4,0,0.8,1.5,1,2.2C83.1,49.5,83.4,51.2,83,51.3z"/><path class="st4" d="M78.1,48.9c-0.3,0.3-1.7-0.1-1.8-0.7c0-0.4,0.4-0.9,0.9-0.9C77.9,47.3,78.4,48.6,78.1,48.9z"/><path class="st4" d="M79.9,46.6c-0.4,0-0.4-0.6-1.3-1.3c-0.7-0.5-1.2-0.5-1.2-0.7c0-0.3,0.8-0.7,1.6-0.8c0.2,0,1.8-0.2,2.2,0.6	C81.6,45.2,80.6,46.6,79.9,46.6z"/><path class="st4" d="M78.2,51.3c0.7,0.2,1.4,0.8,1.3,1c-0.1,0.3-0.9,0.3-1.6,0.2c-0.7-0.2-1.5-0.7-1.4-1	C76.5,51.2,77.4,51.1,78.2,51.3z"/><path class="st4" d="M73.9,53c0-0.3-2-0.6-2.1-1.5c-0.1-0.6,0.8-1,0.7-1.5c-0.2-0.5-1.5-0.8-2.1-0.2c-0.7,0.6-0.3,2.3,0.6,3	C72.1,53.8,73.9,53.3,73.9,53z"/><path class="st4" d="M67.9,53.2c0.2-0.4-0.3-1.5-1.3-1.5c-0.7,0-1.3,0.7-1.3,1C65.5,53.4,67.6,53.7,67.9,53.2z"/><path class="st5" d="M75.7,30.6c-0.4,0.2-0.6,0.8-0.4,1c0.2,0.5,1.6,0.5,2.4-0.2c0.9-0.7,0.9-2.1,0.7-2.2c-0.2-0.1-0.5,1.1-1.4,1.3	C76.5,30.7,76.1,30.3,75.7,30.6z"/><path class="st5" d="M71.7,33.9c0.1-0.1,0.9-1.1,0.5-2c-0.5-1.2-3-1.5-4.1-0.4c-0.4,0.4-0.7,1.1-0.4,1.5c0.5,0.7,2.8-0.7,3.2-0.1	c0.3,0.5-1,1.7-0.7,1.9C70.3,35,71.2,34.6,71.7,33.9z"/><path class="st5" d="M71.6,36.7c-0.7-0.8-2.4-0.6-2.7,0.2c-0.2,0.5,0.1,1.2,0.6,1.6c0.7,0.5,1.9,0.4,2.3-0.3	C72,37.6,71.9,37,71.6,36.7z"/><path class="st5" d="M69.9,40.5c-0.2-0.2-0.8-0.1-1,0.2c-0.3,0.5,0.3,1.4,0.7,1.3C69.9,42,70.3,40.9,69.9,40.5z"/><path class="st4" d="M70.5,21.6c-1.1-0.7-3.1,0.3-3.1,1c0,0.6,1,1.2,1.9,1.2c0.7,0,1.7-0.3,1.8-1C71.3,22.3,70.9,21.8,70.5,21.6z"/><path class="st4" d="M64.8,20.7c-0.3-0.3-0.9-0.3-1.1,0c-0.4,0.4,0,1.3,0.4,1.4c0.3,0.1,0.7-0.2,0.8-0.5	C65.1,21.3,65.1,20.9,64.8,20.7z"/><path class="st4" d="M68.5,19.5c0.3-0.3,0.1-1.3-0.6-1.5c-0.6-0.2-1.3,0.3-1.3,0.7C66.7,19.2,68.2,19.8,68.5,19.5z"/><path class="st5" d="M61.8,38.2c-0.1-0.4,0.8-0.7,0.9-1.5c0-0.1,0.1-0.6-0.2-0.7c-0.4-0.3-1.4,0.3-2,1.1c-0.2,0.3-0.8,1.1-0.4,2	c0.3,0.8,1.4,1.3,2.1,1c0.5-0.2,0.8-0.9,0.6-1.3C62.6,38.3,61.9,38.5,61.8,38.2z"/><path class="st5" d="M58.7,40.8c-0.8-0.3-1.2-1.3-0.9-1.6c0.2-0.2,0.5,0,0.7,0c0.8,0.2,1.4,1.1,1.2,1.5C59.5,40.9,59,40.9,58.7,40.8	z"/><path class="st5" d="M57.6,44.2c-0.1-0.6-0.9-1-1.3-0.7c-0.3,0.2-0.4,0.9-0.1,1.3c0.2,0.3,0.7,0.5,1,0.4	C57.5,45,57.6,44.5,57.6,44.2z"/><path class="st5" d="M61,34.7c0.3-0.1,0.2-1.9-0.9-2.4c-0.5-0.2-1.2-0.2-1.3,0.1c-0.1,0.1,0.1,0.3,1.1,1.4	C60.8,34.7,60.9,34.8,61,34.7z"/><path class="st5" d="M58.1,20c0.3-0.6,0.5-1.2,0.3-1.7c-0.4-0.9-1.8-1.3-2.1-1c-0.2,0.3,0.7,0.8,0.9,2.1c0.2,1.2-0.5,2-0.3,2.1	C57.1,21.6,57.7,20.8,58.1,20z"/><path class="st6" d="M54.7,23.3"/><path class="st5" d="M54.2,23.8c0-0.2-0.5-0.1-1.8-0.4c-1.2-0.3-1.6-0.6-1.9-0.4c-0.5,0.3-0.7,1.3-0.4,1.7	C50.8,25.6,54.3,24.2,54.2,23.8z"/><path class="st5" d="M53,26.2c-0.2-0.2-0.5-0.4-0.8-0.3c-0.4,0.1-0.7,0.6-0.6,1c0.1,0.5,0.8,0.8,1.3,0.5	C53.3,27.2,53.3,26.5,53,26.2z"/><path class="st5" d="M52.2,29c-0.6,0.1-0.9,0.8-0.9,1.3c0,0.4,0.2,0.9,0.6,1c0.7,0.2,1.7-0.7,1.6-1.5C53.4,29.4,52.8,28.9,52.2,29z"	/><path class="st5" d="M53.9,19.6c0.5-0.6,0-1.6-0.4-1.6c-0.5-0.1-1.4,1.1-1.1,1.6C52.6,19.9,53.5,20.1,53.9,19.6z"/><path class="st5" d="M57.2,15.8c-0.2,0,0-0.9-0.5-1.4c-0.7-0.6-1.6,0-2.4-0.6c-0.6-0.5-0.8-1.5-0.4-1.8c0.2-0.2,0.8-0.2,1.1-0.1	c0.8,0.3,0.7,1.3,1.3,1.5c0.5,0.1,0.7-0.4,1-0.2C57.9,13.5,57.4,15.8,57.2,15.8z"/><path class="st4" d="M46.6,16c0.5,0.1,1.1-0.5,1-1.1c-0.1-0.4-0.5-0.8-0.9-0.7c-0.5,0-0.7,0.6-0.7,1C46,15.5,46.2,15.9,46.6,16z"/><path class="st4" d="M48.3,11c0.3-0.3,0.1-1-0.3-2.1c-0.2-0.5-0.2-0.7-0.4-0.7c-0.4,0-1.3,1.8-0.6,2.6C47.4,11.1,48,11.2,48.3,11z"	/><path class="st4" d="M32.3,42.4c0.3-0.5,0.1-1.2-0.4-1.7c-0.3-0.3-1-0.7-1.6-0.4c-0.7,0.3-0.8,1.3-0.5,1.8	C30.2,43,31.8,43.1,32.3,42.4z"/><path class="st4" d="M28.7,43.4c0.6-0.4,0.6-2.1,0.1-2.3c-0.4-0.2-1.7,0.9-1.3,0.6l0,0c0,0-0.6,0.3-1,0.7c-0.5,0.6-0.5,1.6-0.2,1.7	c0.2,0.1,0.5-0.5,1.3-0.7C28.1,43.3,28.4,43.6,28.7,43.4z"/><path class="st5" d="M24.5,37.6c0.4-0.3,0.6-1.5-0.2-1.9c-0.7-0.4-1.7,0.2-1.8,0.7C22.5,37,24,37.9,24.5,37.6z"/><path class="st5" d="M20.3,34.9c0.3,0.2,0.9,0,1-0.3c0.2-0.5-0.6-1.4-1-1.3C20,33.4,19.8,34.6,20.3,34.9z"/><path class="st5" d="M19.6,35.9c0.6-0.8,0-2-0.1-2.1c-0.5-0.9-1.6-1.4-1.8-1.2c-0.2,0.2,0.4,0.7,0.6,1.8c0.2,1.1-0.2,1.7,0.1,1.9	C18.6,36.6,19.3,36.3,19.6,35.9z"/><path class="st5" d="M17.8,30.9c0.5-0.4,0.7-1.1,0.3-1.6c-0.3-0.4-0.8-0.6-1.3-0.4c-0.7,0.2-1.1,1.3-0.6,1.9	C16.6,31.1,17.3,31.2,17.8,30.9z"/><path class="st4" d="M46.2,91.2c0.5-0.3,0.6-1.2,0.4-1.8c-0.3-1-1.5-1.5-1.6-1.3c-0.2,0.1,0.8,0.9,0.7,1.8c-0.1,0.6-0.6,0.8-0.4,1.1	C45.3,91.3,45.9,91.4,46.2,91.2z"/><path class="st4" d="M45,86.5c0.1-0.2-0.9-1.1-2.1-1c-0.8,0-1.8,0.5-1.8,1c0,0.4,0.3,0.8,0.7,0.8c0.6,0.1,0.8-0.6,1.7-0.8	C44.4,86.3,44.9,86.7,45,86.5z"/><path class="st4" d="M45,83.6c0.7,0.3,1.1,0.5,1.3,0.4c0.2-0.2,0-0.8-0.3-1.3c-0.3-0.7-0.5-1.1-0.9-1.2c-0.2-0.1-0.5,0-0.7,0.2	c-0.5,0.4-0.4,1.2,0,1.6C44.5,83.3,44.7,83.4,45,83.6z"/><path class="st4" d="M44.4,78c0.3-0.1,0.7-1.3,0.1-2c-0.3-0.4-1-0.6-1.2-0.4C42.9,76,44,78.1,44.4,78z"/><path class="st5" d="M36.7,78.8c-0.2,0.5-1.3,0.7-2.1,0.4c-0.6-0.2-1.4-0.6-1.4-1.1c0-0.5,1-1,1.8-0.9C36,77.4,36.8,78.3,36.7,78.8z	"/><path class="st5" d="M33.3,80.4c0,0.4-0.5,0.7-0.8,0.8c-1.2,0.6-2.7,0.3-3.6-0.5c-0.1-0.1-0.7-0.7-0.5-1c0.2-0.4,1.2-0.4,1.7-0.4	C31.3,79.3,33.2,79.7,33.3,80.4z"/><path class="st5" d="M30.5,76.2c0.3-0.1,0.2-0.6,0.7-1.7c0.6-1.4,1.4-1.9,1.2-2.2c-0.2-0.2-0.9-0.2-1.3,0.2s-0.2,0.8-0.7,1.2	c-0.5,0.5-1.1,0.2-1.3,0.5C28.9,74.8,29.9,76.4,30.5,76.2z"/><path class="st5" d="M34.4,75.3c0.2-0.1,0.3-0.8,0-1.1c-0.4-0.5-1.2-0.2-1.3,0.1C33,74.6,34.1,75.5,34.4,75.3z"/><path class="st5" d="M25.6,75.4c0-0.4-0.7-1-1.3-1.1C22.9,74,22,75.4,21.2,75c-0.6-0.3-0.4-1.4-1-1.6c-0.5-0.1-1.1,0.4-1.3,1	c-0.2,0.8,0.4,1.6,0.4,1.6C20.8,77.8,25.5,76.5,25.6,75.4z"/><path class="st5" d="M42.9,69.6c0.4,0,0.5-1.1,0.6-1.9c0.1-1,0.2-1.8-0.2-2.1c-0.3-0.2-0.8-0.2-1.1,0.1c-0.5,0.4-0.4,1.2-0.3,1.8	C42,68.4,42.5,69.6,42.9,69.6z"/><path class="st5" d="M39.2,67c0.3-0.3,1-0.1,1.2,0.3c0.2,0.4,0,0.9-0.4,1c-0.3,0.1-0.6-0.1-0.8-0.3C38.9,67.8,38.9,67.3,39.2,67z"/><path class="st5" d="M35.7,66.6c0.3-0.4,0.1-1.1-0.4-1.3c-0.5-0.2-1.3,0.6-1.2,1C34.3,66.8,35.4,67,35.7,66.6z"/><path class="st5" d="M40.4,64.2c-0.1-0.7,0.4-1.5,0.9-1.5c0.4,0,0.7,0.6,0.7,1c0,0.7-0.7,1.3-1.1,1.2C40.5,64.9,40.4,64.3,40.4,64.2	z"/></svg>