<?xml version="1.0" encoding="utf-8"?><!-- Generator: Adobe Illustrator 26.0.3, SVG Export Plug-In . SVG Version: 6.00 Build 0)  --><svg version="1.1" id="Ebene_1" xmlns="http://www.w3.org/2000/svg" xmlns:xlink="http://www.w3.org/1999/xlink" x="0px" y="0px"	 viewBox="0 0 100 100" style="enable-background:new 0 0 100 100;" xml:space="preserve"><style type="text/css">	.st0{fill:#612F19;stroke:#000000;stroke-width:2;stroke-miterlimit:10;}	.st1{fill:#5abcd8;stroke:#000000;stroke-miterlimit:10;}	.st2{fill:#8B8F8E;stroke:#000000;stroke-width:0.5;stroke-miterlimit:10;}	.st3{fill:#EBB3C9;stroke:#000000;stroke-width:0.25;stroke-miterlimit:10;}	.st4{fill:#8B8F8E;stroke:#000000;stroke-width:0.5;stroke-miterlimit:10;}	.st5{fill:#EBB3C9;stroke:#000000;stroke-width:0.25;stroke-miterlimit:10;}</style><g id="Ebene_2_00000093860788734264317370000010671531211922489223_"></g><g id="Ebene_1_00000017510764199299988230000010460311392665681541_">	<polygon class="st0" points="8,25.8 50,1.6 92,25.8 92,74.3 50,98.6 8,74.3 	"/></g><path class="st1" d="M9.4,25.5c1.9-0.9,3.9,1.2,8,3.8c9.1,5.8,11.5,3.3,27,9.6C55.7,43.4,60,47,62.2,45c2.1-1.9,0.6-7.4-0.4-10.9	c-0.9-3-1.6-5.6-3.6-6.2c-3.1-1.1-6.9,3.8-7.7,3.1c-0.8-0.7,3.9-5.1,5.1-11.8C57,12,53.2,7.5,55.1,6c1.7-1.4,5.7,1.6,13.9,6.5	c16.2,9.7,19.4,9.2,21.8,14.1c0.5,1,0.5,6.7,0.6,18c0,11,0,12.3-1.1,14c-4,6.4-12.4,4.3-14.6,9.8c-1.8,4.6,3.4,7.5,1.7,12.3	c-1.4,3.8-5,3.4-14.9,9.6c-7.3,4.6-7.5,6.2-10.8,6.6c-4.3,0.5-5.9-1.9-15.8-7.3c-11.3-6.1-15.6-6.4-16.4-10.2	c-1-4.6,4.5-7.6,2.7-11.4c-0.4-0.7-0.8-1-9-6.6c-2.3-1.6-2.3-1.6-2.4-1.7c-3.6-3.2-3-8.4-2.8-16.1C8.4,30.1,7.3,26.5,9.4,25.5z"/><path class="st2" d="M51.9,8.5c-1.4-1-3.4-0.6-6.8,0.1c-6.7,1.4-13.3,5-12.9,6.4c0.3,1.1,4.3-0.6,6.8,1.5c3.8,3.1-0.1,10.7,2.4,11.8	c1.8,0.8,5.7-2.5,7.8-5.1C53.1,18.4,55,10.8,51.9,8.5z"/><path class="st2" d="M33.1,20.8c-2.2-1.2-5.6-1.5-8.4,0.2c-0.5,0.3-3.3,2-3.2,4.1c0.1,1.9,2.4,2.5,9.2,6c5.8,3,7.3,4.3,8.2,3.6	c1.6-1.2-1.1-6.7-2.1-8.9C35.5,23.1,34.8,21.7,33.1,20.8z"/><path class="st3" d="M40.1,12.8c-0.1-0.3,1.3-1.2,2.2-0.8s1.1,1.7,0.6,2.5c-0.4,0.7-1.2,1.2-1.5,1s0.8-1.5,0.3-2.2	C41.3,12.7,40.1,13,40.1,12.8z"/><path class="st3" d="M49.4,10.9c-1-0.2-2.5,0.4-2.8,1.2c-0.5,1.4,2.3,2.5,1.9,4.4c-0.3,1.4-1.9,2-1.7,2.3c0.2,0.4,2.6,0.1,3.9-1.5	c0.9-1.1,0.8-2.4,0.7-3.1C51.4,13.7,51.1,11.2,49.4,10.9z"/><path class="st3" d="M42.8,18.2c-0.7,0.3-0.9,2.5,0.1,3.4c1.2,1,3.4-0.1,3.7,0.5c0.3,0.7-2.2,2.3-2,2.6c0.1,0.2,1.5-0.3,2.7-1.2	c0.3-0.2,2.5-1.8,2.1-2.6c-0.2-0.6-1.5,0-3.3-0.7C43.9,19.5,43.4,17.9,42.8,18.2z"/><path class="st3" d="M31.4,22.7c-1.2-0.7-2.2-1.2-3.5-1.2c-0.5,0-2.1,0-2.4,0.7c-0.5,1.1,2.1,3.9,5.1,3.9c1.3,0,3-0.6,3.1-1.4	C33.9,24.1,32.9,23.5,31.4,22.7z"/><path class="st3" d="M35.5,30.2c-0.8-0.7-2-1.6-2.3-1.3c-0.3,0.2,0.1,1.2,0.3,1.5c1,2.3,3.6,3.9,4,3.5	C37.9,33.4,36.8,31.4,35.5,30.2z"/><path class="st2" d="M56.3,46.1c1.9-1.1,3.7-3.4,3.6-6.1c0-0.5-0.1-3.2-1.7-4.1c-1.5-0.8-3,0.7-8.7,4.1c-4.9,2.9-6.5,3.4-6.4,4.3	c0.2,1.6,5.6,2.1,7.8,2.3C53.5,46.8,54.9,46.9,56.3,46.1z"/><path class="st3" d="M55.6,44.1c1.1-0.6,1.9-1,2.5-2c0.2-0.4,0.9-1.5,0.5-2c-0.6-0.8-4-0.2-5.3,2c-0.6,1-0.9,2.4-0.3,2.9	C53.4,45.2,54.3,44.8,55.6,44.1z"/><path class="st3" d="M48.1,43.8c0.9-0.2,2.1-0.7,2.1-1.1c0-0.3-1-0.4-1.2-0.4c-2.2-0.2-4.6,0.9-4.5,1.4	C44.5,44.1,46.5,44.2,48.1,43.8z"/><path class="st2" d="M11.1,71.2c1,1,3.1,1.8,5.3,1.8c0.4,0,2.7,0,3.3-0.8c0.6-0.7-0.7-1.5-3.9-4.3c-2.7-2.5-3.2-3.3-4-3.2	c-1.3,0.1-1.4,2.7-1.5,3.8C10.4,69.8,10.4,70.5,11.1,71.2z"/><path class="st3" d="M12.6,67.2c0.2,0.4,0.7,1,1,1s0.3-0.5,0.3-0.6c0.1-1.1-1-2.3-1.4-2.2C12.1,65.4,12.2,66.4,12.6,67.2z"/><path class="st4" d="M83,70.2c1.4-1.1,2.5-1.9,3-3.3c0.2-0.5,0.8-2.1,0.1-2.6c-1.2-0.8-6.1,1.3-7.3,4.3c-0.5,1.4-0.4,3.2,0.5,3.5	S81.4,71.5,83,70.2z"/><path class="st5" d="M85.1,64.7c-0.6,0.1-1.8,0.4-3,1c-0.2,0.1-1.4,0.7-1.6,1s0.6,0.1,2.6-0.1c1.7-0.2,2.1-0.2,2.5-0.4	c0.7-0.3,0.4-0.9,0.2-1.1C85.6,64.8,85.5,64.7,85.1,64.7z"/><path class="st5" d="M80.4,69.8c0.3,0.2,0.9,0.3,1.4,0.1c0.1,0,0.6-0.2,0.7-0.5s-0.3-0.4-1.3-1c-0.9-0.5-1.1-0.7-1.2-0.7	c-0.3,0.1-0.1,1,0,1.3C80.1,69.4,80.2,69.6,80.4,69.8z"/></svg>