<?xml version="1.0" encoding="utf-8"?><!-- Generator: Adobe Illustrator 26.0.3, SVG Export Plug-In . SVG Version: 6.00 Build 0)  --><svg version="1.1" id="Ebene_2_00000074422167821747138070000012155992511794515371_"	 xmlns="http://www.w3.org/2000/svg" xmlns:xlink="http://www.w3.org/1999/xlink" x="0px" y="0px" viewBox="0 0 100 100"	 style="enable-background:new 0 0 100 100;" xml:space="preserve"><style type="text/css">	.st0{fill:#612F19;stroke:#000000;stroke-width:2;stroke-miterlimit:10;}	.st1{fill:#5abcd8;stroke:#000000;stroke-miterlimit:10;}	.st2{fill:#8B8F8E;stroke:#000000;stroke-width:0.5;stroke-miterlimit:10;}	.st3{fill:#8B8F8E;stroke:#000000;stroke-width:0.5;stroke-miterlimit:10;}	.st4{fill:#EBB3C9;stroke:#000000;stroke-width:0.25;stroke-miterlimit:10;}	.st5{fill:#EBB3C9;stroke:#000000;stroke-width:0.25;stroke-miterlimit:10;}</style><polygon class="st0" points="8,74.2 50,98.5 92,74.2 92,25.8 50,1.5 8,25.8 "/><path class="st1" d="M8,45.3c0.1,11.9,0.3,15.5,2.7,16.8c1.5,0.9,2.3-0.2,8.1-1c5.8-0.8,10.5-1.6,14.1,1c2.2,1.6,3.4,3.8,4,4.9	c1.5,2.7,0.9,3.5,2.5,7.1c1.4,3.2,2.1,3.1,3.3,6.2c0.9,2.3,1.5,4,1.3,6.1c-0.3,3.5-2.5,4.3-2.1,6.2c0.5,2.5,5.1,4.3,9,4.3	c5.1,0.1,6.3-2.8,15.7-8.1c7.3-4.1,14.5-6.9,14.6-9.9c0-0.3,0-1.3-0.6-1.8c-0.8-0.6-2.3,0.2-3,0.4c-2.8,1.2-5.9,0-12-2.4	c-3.3-1.3-5.4-2.1-7.8-4c-3.5-2.7-5.5-5.8-6.5-7.9c-2-3.9-1.1-4.9-2.5-7.8c-0.7-1.4-2.2-3.9-14.2-10.4c-5.4-2.9-7.1-3.5-12.9-6.5	C17.1,36.3,10.3,33.4,8,32C8,35.6,8,40.1,8,45.3z"/><path class="st2" d="M24.5,18.3c-0.4,0.1-2.8,0.9-5.6,2.8c-2.6,1.7-6.4,4.3-6.4,7.9c0,2.6,2.1,4.5,2.8,5c2.2,1.9,4.5,2.2,7.6,2.7	c12.1,1.9,13.7,3.5,15.7,1.8c2.3-2,2.4-6,1.9-8.3c-0.8-4.1-3.6-4.8-3.3-7.7c0.2-2.2,1.9-2,4.6-6.8c1.7-3.1,1.9-4.9,1.8-6.4	c-0.1-1.1-0.5-2.1-0.7-2.7C34.2,14.1,28.4,17,24.5,18.3z"/><path class="st2" d="M47.3,17.1c-3.7,4.1-5.5,6.2-5.5,8.7c0.1,5.2,7.1,8.4,7.4,8.6c7,3.2,15-0.4,19.4-4.3c4-3.6,6-8.4,5.2-9.2	c-1-0.9-5.7,4.8-10.2,3.4c-1.6-0.5-2.5-1.7-4.3-4c-3.7-4.8-3.5-7.9-5.5-8.3C52.2,11.7,50.6,13.5,47.3,17.1z"/><path class="st2" d="M82.2,26.9c-2.4,1.4-3.6,2.1-4,2.5c-3.9,3.6-4.1,6.6-7.3,8.1c-2.3,1.2-2.8-0.2-7.4,1c-2.6,0.7-6.3,1.6-7,4	c-0.5,1.7,1.1,2.3,1.6,5.3c0.8,4.3-1.7,6.2-0.4,8c1.4,2.1,6.3,2,9.6,0.2c3.2-1.8,2.3-3.7,5.9-6.4c3.7-2.7,6.2-1.8,7.7-4.4	c1.1-2-0.4-2.6,0.6-5.6c1.2-3.8,4.2-5.3,4.2-8.4c0-0.8-0.3-1.7-0.3-1.9c-0.3-1-0.7-2.6-1.7-2.8C83.1,26.3,82.7,26.6,82.2,26.9z"/><path class="st3" d="M47.7,39.9c-2.8,1.3-4.4-0.7-6.7,0.7c-1.4,0.9-2.4,2.7-2.1,4.2c0.4,1.6,2.3,1.5,5.3,3.6c4.1,2.8,5,5.9,6.5,5.5	c0.9-0.2,1.2-1.4,1.8-3.3c0.7-2.3,0.3-2.8,0.7-5.5c0.6-3.4,1.7-4.2,1-5.8c-0.4-1.1-1.5-2.2-2.7-2.2C50.1,37,49.8,38.9,47.7,39.9z"/><path class="st3" d="M74.3,53.4c-7.5,4.6-8.7,5.8-11.1,5.5c-2.7-0.3-3.4-2.2-6.2-1.9c-2.1,0.2-4.8,1.4-5.3,3.4c-0.5,1.7,1.2,3.3,4,7	c2.1,2.8,5.9,7.8,9.9,7.3c1.6-0.2,1.4-1,3.1-1.5c4.8-1.4,7.8,4.1,12.9,3.1c1.8-0.4,3.9-1.6,4.7-3.4c1.2-2.7-1.4-4.2-1.6-9	c-0.2-4.4,1.8-5.7,1-10.5c-0.3-1.9-0.5-3.4-1.6-4C82.7,48.5,80.8,49.4,74.3,53.4z"/><path class="st2" d="M22.6,68.7c-1.3-0.5-0.4-3.2-2.1-4.6c-1.9-1.6-6.5-0.9-8.6,1.9c-1.7,2.3-1.2,5.1-1,5.9c0.9,4,5.1,7,8.6,6.8	c2.7-0.2,3.9-2.2,5.8-1.5c1.5,0.6,1.5,2.1,2.8,4.2c2.5,4,7.8,6.8,9.9,5.5c1.7-1.1,1.2-4.7,1.2-5.2c-0.5-3.5-2.6-3.7-4-8	c-1-2.9-0.4-4-1.8-5.8c-0.4-0.5-1.9-2.4-4-2.5C26.2,65.2,24.3,69.3,22.6,68.7z"/><path class="st4" d="M79.7,32.6c-0.1,0.3-0.1,0.5-0.4,0.9c-0.5,0.8-1,0.8-1.1,1.2c-0.1,0.4,0.4,0.5,1,1.4c0.5,0.9,0.6,1.5,0.8,1.5	c0.3,0,0.5-0.7,0.5-1c0.2-0.9-0.1-1.3,0.2-2.2c0.2-0.6,0.4-0.8,0.4-0.9c0.3-0.3,0.6-0.3,0.7-0.5c0.2-0.2,0.3-0.7-0.2-1.8	C80.4,31.5,79.9,32.1,79.7,32.6z"/><path class="st4" d="M70.2,47c-0.5-0.3,0.2-1.5-0.2-1.8c-0.7-0.4-3.6,1.8-3.6,4.1c0,0.4,0.1,1,0.4,1.1c0.3,0.1,0.5-0.4,1.3-1	c0.5-0.3,0.9-0.7,1.3-0.5c0.3,0.1,0.3,0.6,0.7,0.8c0.4,0.2,0.8,0,1.1-0.2c0.3-0.1,1-0.5,1.9-2.2c0.5-0.8,1-1.7,0.7-1.9	C73.4,45,70.9,47.5,70.2,47z"/><path class="st4" d="M63.1,41.5c-1-0.3-2,0.3-2.7,0.8c-0.9,0.6-1.6,1-1.8,1.8c-0.3,1.1,0.4,2.5,1.5,2.9c0.8,0.3,1.8,0.2,1.9-0.2	c0.2-0.6-1.7-1.3-1.6-2c0.1-0.4,0.7-0.3,1.8-0.8c0.6-0.3,1.9-0.9,1.8-1.6C64.1,42,63.5,41.6,63.1,41.5z"/><path class="st4" d="M63.2,51.4c-0.1,0.7-0.9,0.7-1.6,1.7c-0.6,1-0.3,1.9-0.7,2c-0.6,0.2-2.1-1.5-1.7-2.4c0.2-0.5,0.9-0.3,1.7-1.1	c0.8-0.8,0.7-1.5,1.2-1.6C62.6,50,63.3,50.7,63.2,51.4z"/><path class="st5" d="M49.3,42.7c-0.9-0.8-2.7,0.3-2.8,0c-0.2-0.4,3.2-2.8,4-2.1c0.3,0.3,0,0.8,0.4,1.6c0.4,0.8,1.1,0.9,1,1.3	c0,0.6-1.2,1.2-1.8,0.9C49.6,44.2,49.9,43.3,49.3,42.7z"/><path class="st4" d="M67.7,24.8c-0.3,0.4-0.6,1-0.4,1.3c0.2,0.3,0.6,0.1,1.5,0.4c0.9,0.3,1.1,0.7,1.4,0.6c0.3-0.2,0.2-0.7,0.6-1.6	c0.5-0.9,1-1,1-1.3C71.6,23.7,68.8,23.4,67.7,24.8z"/><path class="st4" d="M61.7,28.2c-1.9-1.3-2.3-1.2-2.5-1.2c-0.4,0.2-0.8,0.6-0.8,1c0,0.9,1.4,1.5,1.6,1.6c1.4,0.6,3.1,0.4,3.3-0.1	C63.3,29.4,62.8,29,61.7,28.2z"/><path class="st4" d="M55,23.8c-0.1,0.8,0.8,1.3,1.5,1.5c0.7,0.1,1.4-0.1,1.5-0.4c0-0.2-0.5-0.3-0.8-0.8c-0.4-0.7,0-1.3-0.3-1.5	C56.4,22.3,55.1,22.9,55,23.8z"/><path class="st4" d="M52.3,16.5c-0.4-0.3-1.3,0.2-1.8,0.9c-0.6,0.8-0.7,2-0.2,2.4c0.4,0.3,0.8-0.1,1.7,0c1.2,0.2,1.7,1.1,1.9,0.9	c0.2-0.1,0-0.8-0.3-1.3c-0.3-0.5-0.6-0.5-0.9-1C52.1,17.6,52.7,16.8,52.3,16.5z"/><path class="st4" d="M47.5,22.7c-0.4,0.1-0.4,0.6-0.8,1.3c-0.7,1.1-1.9,1.2-1.8,1.5c0,0.3,1,0.3,1.7,0.2c0.5-0.1,1.4-0.2,1.8-1	c0.2-0.4,0.4-1.1,0-1.6C48.2,22.8,47.8,22.6,47.5,22.7z"/><path class="st5" d="M48.2,48.9c-1,0.5-2.2-0.3-2.4-0.1c-0.1,0.1,0.3,0.5,1.6,1.5c2,1.5,2.2,1.6,2.4,1.5c0.2-0.2-0.2-0.8-0.4-2.2	c-0.1-1.3,0.2-2.3,0-2.4C49.2,47.1,49.1,48.4,48.2,48.9z"/><path class="st5" d="M81.6,56.1c0,0.7-0.5,1-0.6,1.6c-0.3,1.2,0.8,2.4,0.7,2.5c-0.1,0-0.7-1.5-1.7-1.6c-0.5,0-0.8,0.3-1.2,0.1	c-0.5-0.2-0.6-0.8-0.6-1c-0.3-1.4,0.9-3.2,2-3.2c0.4,0,0.8,0.3,1,0.6C81.3,55.3,81.6,55.6,81.6,56.1z"/><path class="st5" d="M71.4,60.3c-1.2,0.2-1.9-0.6-2.3-0.2c-0.3,0.3-0.3,1.2,0.2,1.5c0.5,0.3,1.1-0.4,2-0.2c0.3,0.1,0.4,0.2,1.4,1.1	c1,0.8,1.5,1.3,1.6,1.2c0.2-0.1-0.6-0.9-0.7-2.2c-0.2-1.2,0.2-1.9-0.1-2.1C73.1,59.2,72.5,60.1,71.4,60.3z"/><path class="st5" d="M59,62.1c-1.2,0-1.2,0.1-1.8,0c-1.5-0.2-2.4-1.1-2.6-1c-0.1,0.1,0,0.3,0.7,1.2c0.6,0.9,0.9,1.3,1,1.5	c0.2,0.2,1.5,1.6,2.3,1.3c0.8-0.3,0.7-2,1.4-2.1c0.1,0,0.1,0,0.2,0c0.6,0.2,0.7,0.6,1,0.6c0.4,0,0.9-0.6,0.7-1	C61.9,62.1,60.5,62.1,59,62.1z"/><path class="st5" d="M78.6,66.8c0.5,2.4,0.4,2.4,0.6,2.8c0.8,1.7,2.5,2.3,2.3,2.5c-0.1,0.1-0.3,0-1.4-0.1c-1.8-0.3-1.6-0.2-2.1-0.3	c-1-0.3-2-0.5-2.5-1.3c-0.6-0.9,0-1.7-0.6-2.5c-0.6-0.8-1.7-0.6-1.8-1c0-0.3,0.6-0.8,1.2-0.8c1.6-0.1,3,2.6,3.3,2.5	c0.2-0.1-0.7-1.4-0.4-2.9c0.1-0.5,0.3-1.2,0.5-1.2C78.1,64.4,78.2,64.8,78.6,66.8z"/><path class="st5" d="M65.1,69.8c0-0.2,0.7-0.2,1.1-0.9c0.4-0.6,0.1-1,0.5-1.3c0.3-0.2,0.8-0.2,1.1-0.1c0.3,0.2,0.4,0.4,0.9,1.3	c0.7,1.2,0.8,1.4,0.7,1.6c-0.2,0.2-0.8-0.2-1.9-0.4C66.2,69.7,65.2,70,65.1,69.8z"/><path class="st4" d="M50.5,29.7c-0.1,0.5-0.7,0.5-1.8,1.3c-1,0.7-1.1,1.1-1.6,1c-0.9,0-1.4-1.4-1.5-1.6c-0.5-1.3-0.3-2.9,0.2-3	c0.5-0.1,0.8,1.6,1.8,1.6c0.8,0.1,1.2-1,1.9-0.9C50.2,28.3,50.6,29.1,50.5,29.7z"/><path class="st4" d="M38.5,13.2c-1.4,0.4-1.9-0.1-2.7,0.4c-0.9,0.5-1.4,1.6-1.2,1.9c0.1,0.2,0.5-0.1,1.7-0.4c1.3-0.4,2-0.6,2.7-0.3	c0.9,0.3,1.2,1.2,1.4,1c0.2-0.1-0.1-0.7,0.1-1.7c0.2-1.1,0.7-1.6,0.5-1.8C40.7,12.1,39.9,12.8,38.5,13.2z"/><path class="st4" d="M32.5,18.8c-1.7,0.4-3.1,1.8-2.9,2.4c0.2,0.5,1.4-0.1,2.8,0.7c0.7,0.4,0.9,0.8,1.2,0.7c0.3-0.2,0-0.9,0.3-2.1	c0.2-0.9,0.5-1.1,0.3-1.4C33.9,18.5,32.7,18.8,32.5,18.8z"/><path class="st4" d="M29.3,27.4c0.3,0.4,1.2,0.4,1.6-0.1c0.3-0.6-0.2-1.4-0.7-1.4C29.6,25.8,29,27,29.3,27.4z"/><path class="st4" d="M33.1,29.6c-0.6,0.2-0.3,1.3-1,2.1c-1.1,1.4-3.6,0.8-3.7,1.3c0,0.3,0.8,0.7,1.7,0.7c1.5,0.1,1.9-0.9,3-0.8	c1.8,0.1,2.7,3.3,3,3.2c0.2-0.1-0.2-1-0.6-3c-0.3-1.5-0.3-2.1-0.9-2.7C34.5,30.2,33.7,29.4,33.1,29.6z"/><path class="st4" d="M22,27.3c-0.2-0.3,0.3-0.8,1.3-2c1.4-1.9,1.7-2.8,2.1-2.7c0.3,0.1,0.2,0.6,0.6,2.1c0.3,1.2,0.5,1.4,0.7,2.3	c0,0.2,0.3,1.9-0.1,2.1c-0.3,0.1-0.6-1-1.7-1.5C23.5,27,22.3,27.8,22,27.3z"/><path class="st4" d="M18.5,28.8c-0.2,0.2,0.2,0.8,0.1,1.6c-0.2,1.3-1.7,2.1-1.6,2.1c0,0.1,1.8-1.7,2.8-1.3c0.7,0.3,0.6,1.6,1,1.6	c0.3,0,0.6-0.5,0.7-1c0.1-0.8-0.6-1.5-1.3-2.1C20,29.7,18.8,28.6,18.5,28.8z"/><path class="st4" d="M16.8,25.4c-0.9,0.2-2.5,1-2.7,2.4c-0.1,0.9,0.4,1.6,0.7,2.1c0.1,0.1,0.8,1.1,1.2,1c0.4-0.1,0-1.1,0.3-2.2	c0.5-1.9,2.3-2.7,2.1-3.2C18.3,25.1,16.9,25.4,16.8,25.4z"/><path class="st4" d="M28.4,71.3c0.2,0.5,1.1,0,2.1,0.7c1.3,1,0.9,2.9,1.6,3c0.4,0,0.9-0.6,0.9-1.2c-0.1-0.9-1.5-1-1.6-1.8	c0-0.5,0.4-0.6,1-2c0.1-0.3,0.2-0.7,0.2-1c-0.1-0.3-0.3-0.6-0.5-0.7C30.9,67.6,28,70.3,28.4,71.3z"/><path class="st4" d="M28.2,77.5c-0.2,1,0.3,2.2,1.2,2.3c0.5,0.1,1.2-0.3,1.3-0.7c0.1-0.6-0.8-0.8-1-1.8c-0.1-0.7,0.3-1.1,0.2-1.3	C29.6,75.8,28.5,76.5,28.2,77.5z"/><path class="st4" d="M31.9,81.6c-0.4,0.9,0.7,2,1.1,2.4c0.2,0.2,1.7,1.7,2.7,1.2c0.4-0.2,0.8-0.8,0.7-1.3s-0.6-0.4-0.9-0.9	c-0.5-0.8,0.2-1.5-0.2-2C34.8,80.4,32.4,80.5,31.9,81.6z"/><path class="st4" d="M18,73.8c0.2,0.3,1.2-0.3,1.6,0.2c0.3,0.4-0.4,1-0.1,1.6c0.3,0.7,1.9,0.9,2.2,0.4c0.2-0.3-0.1-0.7-0.6-2	c-0.6-1.8-0.5-2.4-0.9-2.6C19.4,71.1,17.7,73.4,18,73.8z"/><path class="st4" d="M22.5,70.8c-0.1,0.4,0.8,1.2,1.1,1c0.2-0.1,0.2-1.1-0.3-1.3C23,70.4,22.5,70.6,22.5,70.8z"/><path class="st4" d="M16,64c-0.8-0.3-1.8,0.2-1.8,0.7c0,0.5,0.8,0.5,1,1.3c0.3,0.9-0.5,1.5-0.2,2.1c0.3,0.6,1.4,0.8,2,0.4	c0.5-0.4,0.4-1.1,0.3-1.9C17.2,65.8,17,64.3,16,64z"/></svg>