<?xml version="1.0" encoding="utf-8"?>
<!-- Generator: Adobe Illustrator 26.0.3, SVG Export Plug-In . SVG Version: 6.00 Build 0)  -->
<svg version="1.1" id="Ebene_1" xmlns="http://www.w3.org/2000/svg" xmlns:xlink="http://www.w3.org/1999/xlink" x="0px" y="0px"
	 viewBox="0 0 100 100" style="enable-background:new 0 0 100 100;" xml:space="preserve">
<style type="text/css">
	.st0{fill:#0A0035;stroke:#000000;stroke-width:2;stroke-miterlimit:10;}
	.st1{fill:#0A0035;}
	.st2{fill:#FFFFFF;stroke:#000000;stroke-miterlimit:10;}
	.st3{fill:#85B432;stroke:#000000;stroke-width:0.5;stroke-miterlimit:10;}
	.st4{fill:#FFED59;stroke:#000000;stroke-width:0.75;stroke-miterlimit:10;}
	.st5{fill:#FFFFFF;stroke:#000000;stroke-width:0.5;stroke-miterlimit:10;}
	.st6{fill:#8A0003;stroke:#000000;stroke-miterlimit:10;}
	.st7{opacity:0.3;fill:#FFFFFF;}
</style>
<g id="Ebene_2_00000106115020321929722670000009173737682671299512_">
</g>
<g id="Ebene_1_00000153672420012526310020000002768640152473526447_">
	<polygon class="st0" points="8,25.4 50,1.2 92,25.5 92,74 50,98.2 8,73.9 	"/>
	<path class="st1" d="M110.9-0.8"/>
</g>
<path class="st2" d="M32.5,15.8c-0.3,0,0.7,6.4-2.1,8c-0.8,0.5-1.2,0.1-3.7,0.7C24.7,25,23,25.8,23,26c0.1,0.4,5.5-1.9,7.9,0.3
	c2,1.9,1.2,6.1,1.5,6.1c0.3,0-0.3-4.1,1.8-5.6c1.2-0.9,2.2-0.1,5.3-0.7c2.1-0.4,3.8-1.2,3.7-1.5c-0.1-0.4-5.4,1.9-8.3-0.3
	C31.9,21.9,32.8,15.8,32.5,15.8z"/>
<g>
	<path class="st3" d="M77,49.2c0.6,2.4-1.1,4.8,0.2,5.9c0.8,0.7,1.7-0.1,3.5,0.3c3,0.7,4.9,3.7,4.6,4.1c-0.3,0.4-3.4-1.5-3.5-1.4
		c-0.1,0.2,2.3,1.2,3.4,3.6c0.3,0.7,0.6,1.7,0.3,1.8c-0.4,0.2-2.2-1.9-2.3-1.8c-0.1,0.1,1.7,1.7,2,4.1c0.1,0.7,0.1,1.6-0.2,1.7
		c-0.6,0.2-2-3.2-2.3-3c-0.2,0.1,0.7,1.9,0.5,4.2c-0.2,1.7-1.1,3.4-1.7,3.4c-0.7-0.1-0.6-3.7-0.8-3.7c-0.1,0-0.1,0.9-0.1,1.1
		c0,0.8-0.4,2.8-5.3,6.2c-4.3,3-4.9,2-8.5,4.8c-0.8,0.6-1.6,1.4-3,1.7c-2.1,0.5-3.9-0.3-5.2-0.9c-6.8-3.1-10.3-4.7-12.2-7.1
		c-3.1-3.9-3.7-8.3-4.7-8.1c-0.8,0.2-0.7,2.8-1.4,2.8c-0.5,0-1.2-1.5-1.2-3c-0.1-2.1,0.9-3.8,0.8-3.8c-0.2-0.1-1.5,3-2.1,2.8
		c-0.4-0.1-0.7-1.6-0.2-2.9c0.4-1.1,1.1-1.6,1-1.8c-0.3-0.4-4,2.3-4.4,1.8c-0.3-0.4,1.2-2.6,3.5-4.2c1.3-0.9,2.5-1.3,2.5-1.5
		c-0.1-0.3-3.6,1.1-3.9,0.5c-0.3-0.6,2-3.2,5.3-4.1c2.1-0.5,2.6,0.1,3.9-0.5c2.8-1.2,2-4.9,4.2-7.5c3.2-3.8,10.4-2.7,14.4-2
		C66.5,42.9,75.8,44.4,77,49.2z"/>
	<path d="M47.6,60.8c0.3-0.2,0.2-3.1-1.8-3.9c-1.9-0.8-3.9,1-3.8,1.2c0.1,0.2,1.6-0.2,1.7,0.1c0.1,0.3-1.1,0.9-1,1
		c0.1,0.1,2.3-1.1,2.5-0.9c0.1,0.2-1.1,1-1.6,1.9c-1.9,3.6,6.8,11.5,7.9,12.4c4.2,3.8,10.3,7.8,11.5,6.7c0.3-0.3,0.2-0.9,0.1-1.2
		c-0.5-2.1-3.2-2.6-6.2-4.1C55,73.2,53.4,71.8,50,69c-5.7-4.8-5.7-6.4-5.6-7.1c0.1-0.9,0.8-2.1,1.6-2.1
		C46.8,59.7,47.3,60.9,47.6,60.8z"/>
	<path d="M75.5,62c-0.3-0.2-0.2-2.9,1.6-3.7c1.7-0.7,3.5,0.9,3.4,1.2c-0.1,0.2-1.4-0.2-1.5,0.1c-0.1,0.3,0.9,0.8,0.9,0.9
		c-0.1,0.1-2-1.1-2.2-0.8c-0.1,0.2,1,0.9,1.4,1.8c1.6,3.4-6.1,10.8-7,11.7c-3.7,3.5-9.2,7.3-10.1,6.3c-0.3-0.3-0.1-0.8-0.1-1.1
		c0.4-1.9,2.9-2.5,5.5-3.8c1.6-0.8,3.1-2.1,6-4.7c5-4.5,5.1-6,5-6.6c-0.1-0.9-0.7-1.9-1.4-2C76.1,61,75.7,62.1,75.5,62z"/>
	<path class="st4" d="M53.4,56.5c-0.7,0.2-1,1.5-1,2.4c0.1,1.6,1.4,3.1,2.9,3.6c0.1,0,2.6,0.8,3.6-0.7c0.5-0.8,0.5-2,0-2.7
		c-0.6-0.8-1.3-0.5-3.2-1.5C54.3,56.9,54,56.3,53.4,56.5z"/>
	<path class="st4" d="M70.1,56.5c0.7,0.2,1,1.5,1,2.4c-0.1,1.6-1.4,3.1-2.9,3.6c-0.1,0-2.6,0.8-3.6-0.7c-0.5-0.8-0.5-2,0-2.7
		c0.6-0.8,1.3-0.5,3.2-1.5C69.2,56.9,69.5,56.3,70.1,56.5z"/>
	<path d="M61.2,65.8c-0.8-0.5-1.9,0.1-2.3-0.5c-0.3-0.4,0.2-1.3,0.7-1.7c0.4-0.3,0.6-0.2,1.4-0.6c0.9-0.5,0.9-0.9,1.4-0.9
		c0.5,0,0.6,0.5,1.5,1c0.8,0.4,1.1,0.2,1.4,0.5c0.4,0.5,0.4,1.3,0,1.8c-0.5,0.5-1.2,0.1-1.8,0.5c-0.4,0.2-0.9,0.9-0.5,5.3
		c0.2,2.1,0,4.2,0.3,6.3c0,0.3,0.2,1.1-0.3,1.5c-0.3,0.3-0.9,0.3-1.2,0.1c-0.4-0.4-0.2-1.2-0.1-1.6c0,0,0-2.2,0.1-6.5
		C62,66.8,61.7,66.1,61.2,65.8z"/>
	<path d="M48.8,51.8c0.1,0,0.1,0.5,0.5,1.3c0.4,0.9,1.3,1.7,1.5,1.5c0.4-0.2-0.4-2.2-0.2-2.3c0.3-0.1,1.8,3.6,2.2,3.5
		c0.3-0.1-0.3-2,0.1-2.2c0.6-0.2,2.5,3.4,3.1,3.2c0.3-0.1,0-1,0.3-1.1c0.4-0.1,1,2.2,2.8,2.9c0.7,0.2,1.7,0.3,2-0.2
		c0.2-0.3,0.1-0.6-0.8-3.3c-0.1-0.2-0.4-1.2-0.3-1.2c0.1,0,0.7,1.7,1.4,1.7c0.2,0,0.4-0.2,0.8-0.7c0.5-0.5,0.7-0.9,1.2-1.5
		c0.4-0.5,0.6-0.7,0.6-0.7c0.2,0.1-2.3,3.9-1.2,5.1c0.4,0.5,1.4,0.5,2,0.3c0.9-0.3,1.2-1.2,1.5-1.8c0.5-1.3,0.2-1.7,0.7-2.6
		c0.6-0.9,1.7-1.4,1.8-1.2c0.1,0.1-0.6,0.7-0.5,1.7c0,0.1,0.1,0.8,0.5,1c0.6,0.2,1.1-0.9,2.7-1.7c1-0.5,2.1-0.7,2.3-0.4
		c0.1,0.2-0.2,0.4-0.1,0.8c0,0.4,0.3,0.7,0.5,0.9c0.7,0.8,1.5,0.8,1.5,1.1c0,0.2-0.5,0.4-0.9,0.4c-0.8,0-1.3-0.9-1.4-0.8
		c-0.1,0.1,0.9,1.5,0.8,1.6c-0.1,0.1-0.7-0.7-1.8-1c-0.2,0-1.3-0.3-1.9,0.3c-0.3,0.3-0.2,0.4-0.5,0.7c-0.5,0.6-1.3,0.4-2.2,0.7
		c-1.7,0.5-1.5,1.9-3.2,2.4c-0.8,0.2-0.8-0.2-2.2,0c-1.5,0.2-2,0.6-2.7,0.3c-0.6-0.2-0.6-0.6-1.1-1.2c-1.1-1.3-2.3-0.8-5.3-2
		c-0.5-0.2-1.6-0.6-2.8-1.5c-1.3-0.9-1.6-1.5-1.7-1.8C48.3,52.9,48.7,51.8,48.8,51.8z"/>
	<path d="M53.8,57.7c-0.3,0.6,0.1,1.5,0.8,1.6c0.6,0.1,1.2-0.2,1.4-0.8c0.1-0.6-0.2-1.1-0.7-1.4C54.7,56.9,54,57.1,53.8,57.7z"/>
	<path d="M67.7,57.6c-0.3,0.6,0.1,1.5,0.8,1.6c0.6,0.1,1.2-0.2,1.4-0.8c0.1-0.6-0.2-1.1-0.7-1.4C68.7,56.8,68,57.1,67.7,57.6z"/>
</g>
<path class="st5" d="M50.3,32.9c1,0.3,0.9,1.1,2,1.7c1.7,0.9,2.8-0.5,4.7,0.2c1.9,0.7,1.6,2.6,3.6,3.2c1.6,0.5,2.2-0.5,3.6,0.2
	c1.7,0.7,1.6,2.3,2.8,2.5c1.4,0.2,2-1.9,3.5-1.8c1.4,0.1,1.5,1.7,3.2,2c1.5,0.2,2.1-1,3.2-0.6c0.6,0.2,0.6,0.7,1.9,2.8
	c1,1.6,1.2,1.6,1.6,2.5c0.3,0.7,0.7,1.7,0.6,2.9c0,0.1-0.3,2.6-1.6,3c-1.2,0.4-2.3-1.5-3.4-1c-0.7,0.3-0.4,1.2-1.1,1.6
	c-1.2,0.6-2.5-1.6-4.2-1.2c-1.2,0.3-1.1,1.5-2.2,1.7c-1.3,0.2-1.9-1.6-3.8-1.8c-1.8-0.2-2.3,1.2-3.7,0.9c-1.9-0.4-1.8-3.2-3.7-3.6
	c-1.3-0.3-1.8,1-3.2,0.7c-1.8-0.4-1.7-2.5-3.5-3c-1.3-0.3-1.7,0.6-3.5,0.4c-0.4-0.1-2.2-0.3-2.9-1.7c-0.7-1.6,0.5-3.7,1.4-3.8
	c0.4,0,0.6,0.3,0.8,0.2c0.3-0.2-0.7-1.4-0.8-3c-0.1-1.6,0.8-2.9,1-3.1C47.5,33.7,49,32.5,50.3,32.9z"/>
<path class="st5" d="M81.1,46.3c-0.7,1.7-0.7,3.8-0.1,4c0.4,0.2,1-0.8,1.3-0.6c0.4,0.2-0.2,1.9-0.3,3.2c-0.4,4,3.7,8.1,4.7,7.6
	c0.7-0.3,0-3.1,0.4-3.2c0.6-0.1,1.6,3.7,2.5,3.6c0.7-0.1,1.2-2.6,1.2-4.8c0-3.4-1.3-6-0.9-6.1c0.3-0.1,0.9,1.2,1.3,1.1
	c0.5-0.2,0.5-3.6-1.3-4.8c-0.9-0.6-2.1-0.5-2.1-0.9c0-0.4,1.7-0.6,1.7-1c0.1-0.7-3.2-2.4-5.8-1.2C82.1,43.9,81.4,45.5,81.1,46.3z"/>
<path class="st6" d="M52.3,34.2c-0.4-1.2,1.3-3.5,4.7-8c0.6-0.8,3.2-4.6,7.4-8.6c1.3-1.3,2.4-2.2,4-2.3c1.8-0.1,3.1,1.1,4.4,2.1
	c2.2,1.8,2.5,3.1,4.8,6.3c2.3,3.1,2.5,2.7,4.8,5.9c2.4,3.3,3.5,4.9,3.6,6.5c0.1,2.9-1.9,3.7-1.7,7.5c0.1,1.5,0.4,2.6-0.1,2.9
	c-0.6,0.3-1.9-0.6-2.6-1.6c-0.6-0.8-0.8-1.5-1.1-2.6c-0.9-3.8-0.7-3.6-1-4.4c-1-2.3-2.7-1.8-5.3-4.8c-1.4-1.6-1-2-2.6-4.1
	c-2.1-2.8-4.3-4.2-4.4-4.1c-0.1,0.1,4.1,2.5,6.4,7.4c1.6,3.3,2,7.1,0.9,7.8c-0.8,0.4-1.6-1.1-3.5-0.9c-1.9,0.1-2.6,1.6-4.1,1.3
	c-0.8-0.2-1.3-0.8-1.6-1.1C62.3,36.2,53.2,37.2,52.3,34.2z"/>
<path class="st6" d="M24,62.3c-0.8,0.4-0.4,2.4-0.3,5.7c0.2,8.7-2.7,11.6-0.5,14.6c0.6,0.8,0.8,0.6,5.4,3.1c1.4,0.8,3.5,2,7.8,4.5
	c8.5,5,11.5,7.4,11.9,6.9c0.9-1-10.8-8.6-9.7-17.2c0.6-4.7,5-8.5,3.6-10c-0.6-0.6-1.3-0.2-3.5-0.3c-3.6-0.1-6.7-1.2-8.4-2.1
	C26.2,65.4,24.8,61.9,24,62.3z"/>
<path class="st3" d="M32.7,42.9c0.9,2.6-2.9,4.6-4,9.4c-0.2,0.9-0.6,2.7-0.1,4.8c0.9,3.7,4.5,7.5,8.1,7.1c0.5-0.1,2-0.2,3-1.4
	c2.7-3.3-2.4-10-0.3-11.8c0.4-0.4,1.4-0.3,3.4-0.1c1.8,0.2,4.5,0.4,6.7,1.3c5.9,2.3,8.1,8.7,9,8.2c0.5-0.3,0.1-2.4-0.7-4
	c-0.3-0.6-1.3-2.7-5.5-5.8c-3.5-2.5-5.7-3.1-5.6-4.5c0-0.7,0.7-1.4,1.3-1.5c1.2-0.2,2.4,1.4,3.2,2.3c2.4,3,5.9,6.3,8.6,7.7
	c4.5,2.1,9.3,1.1,9.3,0.8c0-0.2-2.9-0.1-6.4-1.5c-5.3-2.2-9-6.8-8.4-7.6c0.3-0.5,1.7,0.7,4.9,1.1c4.3,0.6,5.3-1.1,9.7-0.7
	c3.6,0.3,5.7,1.7,5.9,1.3c0.2-0.4-2-2.5-4.9-3.2c-2.4-0.6-3.3,0.2-7.7,0c-2.3-0.1-4.2-0.4-4.2-0.6c0-0.3,3.8,0.6,7.4-1.4
	c1.5-0.8,2.1-1.7,4.3-2.5c1.5-0.5,2.5-0.7,2.5-0.9c0-0.4-1.9-0.8-3.8-0.6c-2.5,0.3-2.9,1.5-5.4,2.4c-3.4,1.2-7.2,0.7-7.3-0.1
	c-0.1-0.2,0.3-0.4,1.5-1.5c1.3-1.2,1.9-1.8,2.2-2.5c0.6-1.6-0.3-3.8-0.9-3.8c-0.5,0-0.3,1.9-1.7,3.6c-0.3,0.4-1.5,1.8-3.4,2
	c-1.3,0.2-1.9-0.5-3.9-1.1c-1.2-0.4-3.2-1.1-5.1-0.8c-3.4,0.5-3.7,2.8-6.8,3c-2.2,0.1-4.1-0.9-4.4-0.3c-0.2,0.5,0.8,1.4,0.6,1.7
	c-0.3,0.4-2.1-0.8-2.3-0.4C31.3,41,32.4,41.8,32.7,42.9z"/>
<path class="st2" d="M28.4,51.5c-0.5-0.3-2.2,1.2-3.2,2.5c-0.5,0.7-1.4,1.8-1.9,3.6c0,0.1-0.5,2-0.1,3.9c0.8,4.1,4.5,6.4,5.7,7.2
	c0.8,0.5,8.2,5.2,13.5,1.4c2-1.5,3.5-4,3.4-6.7c0-5.4-5.7-8.9-6.5-8.4c-0.3,0.2,0.3,1.2,0.5,4.1c0.2,2.7-0.3,3.3-0.5,3.6
	c-0.9,1-2.3,1.1-2.8,1.1c-2.5,0-4.2-2.2-6.5-5c-1.7-2.1-1.9-3.1-2-3.4C27.8,53.3,28.9,51.8,28.4,51.5z"/>
<g>
	<path class="st7" d="M20.7,24.1c-0.8,1.8-0.7,2.6-1.8,3.4c-2.5,2.1-6-0.1-7.1,1.2c-1.3,1.6,1.7,7,5.6,10.8c3.9,3.8,8,5.3,12.9,7
		c4.1,1.5,10.5,3.7,11.6,2c1.2-1.9-4.4-7.9-7.7-10.9c-4-3.6-6.4-4.5-6.1-5.6c0.4-1.5,5.8-1.2,19.2-1.1c12.5,0.1,15.6,0,16.4-1.9
		c1-2.1-1.3-6-4.3-7.7c-3-1.6-5.2-0.2-16.8,1.7c-6.5,1.1-9.1,1.2-10.8-0.4c-2.1-2-1.1-4.9-2.8-5.6C26.9,16.3,22.6,20,20.7,24.1z"/>
	<path class="st7" d="M51,38.8c-0.2-1.3,11.1-4.5,23.1-3c4.3,0.6,9.2,1.3,10.6,4.6c1,2.4,0,5.7-2.1,7.6c-3,2.7-6.1,0.5-17.3,0.8
		c-7.2,0.2-10.8,0.3-14.7,2.1c-2.9,1.4-4.4,2.9-5.8,2.2c-2.3-1.1-2.9-7.6-0.1-10c2.2-1.9,4.9,0.3,12.1-0.2c4.9-0.4,9.5-1.8,9.4-2.6
		C66.1,38.9,51.2,40.2,51,38.8z"/>
	<path class="st7" d="M65.9,63.3c-0.1,0.6-4.6,0.3-8.9-0.4c-5.5-1-7.5-2.2-13.3-3.9c-2-0.6-7.9-2.3-15.2-3.1
		c-7.7-0.9-11.9-1.3-13.7,1.2c-1.6,2.3-1,6.4,1.2,8.4c2.3,2.2,6,1.7,12,0.9c6.3-0.8,7.8-2.2,10.4-1c2.9,1.3,2.5,3.7,5.2,6
		c3.5,3,8.3,2.4,17.2,1.2c7.7-1,11.6-1.5,15.8-4.3c4.4-3,9-8.5,7.7-11.2c-0.6-1.1-2.1-1.7-12.3-1.3c-10.3,0.3-17.7,0.6-17.9,2.1
		C53.9,59.9,66.1,62.3,65.9,63.3z"/>
	<path class="st7" d="M46.8,9.4c0.2-0.9,5.8-1,11.1,0.2c1.7,0.4,5.5,1.4,9.7,3.9c2.6,1.5,7.3,4.8,6.8,6c-0.5,1-4.4,0.2-7.2-0.4
		c-6.9-1.5-6.7-2.9-10.7-3.3c-3-0.4-6.7,0.1-14,1.1c-1.7,0.2-3.7,0.5-4.3-0.4c-0.7-1,0.1-3.1,1.6-4.1c1.6-1.2,4.2-0.9,7.4-0.6
		c1.2,0.1,2.2,0.3,2.3,0C49.6,11.3,46.6,10.2,46.8,9.4z"/>
	<path class="st7" d="M39.7,76.7c-3.5-2.6-7.2-2.6-8.7-0.9c-1.2,1.4-1,4.1,0.3,5.8c1.9,2.3,6,1.9,14.1,1.1c6.3-0.7,5.6-1.2,8.8-1.1
		c3,0.1,5.8,0.6,10.1-0.2c1.3-0.3,3.2-0.6,3.2-1.3c0.1-0.9-2.8-2-5-2.4c-2.3-0.5-3.5-0.3-9.1,0.1c-5.8,0.4-7.4,0.3-8.9,0.1
		C42.5,77.5,40.8,77,39.7,76.7z"/>
</g>
</svg>
