<?xml version="1.0" encoding="utf-8"?><!-- Generator: Adobe Illustrator 26.0.3, SVG Export Plug-In . SVG Version: 6.00 Build 0)  --><svg version="1.1" id="Ebene_1" xmlns="http://www.w3.org/2000/svg" xmlns:xlink="http://www.w3.org/1999/xlink" x="0px" y="0px"	 viewBox="0 0 100 100" style="enable-background:new 0 0 100 100;" xml:space="preserve"><style type="text/css">	.st0{fill:#ffffff;stroke:#000000;stroke-width:2;stroke-miterlimit:10;}	.st1{fill:#84d2ef;stroke:#000000;stroke-width:0.5;stroke-miterlimit:10;}	.st2{fill:#84d2ef;stroke:#000000;stroke-width:0.5;stroke-miterlimit:10;}	.st3{fill:#cfcfcf;stroke:#000000;stroke-width:0.25;stroke-miterlimit:10;}	.st4{fill:#cfcfcf;stroke:#000000;stroke-width:0.25;stroke-miterlimit:10;}</style><g id="Ebene_2_00000176025868192884506990000017183403244025845153_"></g><g id="Ebene_1_00000070081453494179332120000015518110432246800057_">	<polygon class="st0" points="8,25.79 49.97,1.57 91.97,25.84 92,74.34 50.03,98.57 8.03,74.29 	"/></g><path class="st1" d="M26.21,20.31C39.78,9.25,44.76,7.56,46.35,8.91c1.11,0.95-0.03,2.88,1.48,6.22c2.06,4.55,6.06,5.13,5.78,7.41	c-0.24,1.92-3.38,3.75-5.48,3.11c-2.47-0.75-2.6-4.6-4.15-4.59c-1.28,0.01-1.43,2.62-4.15,5.19c-1.7,1.61-4.28,3.07-5.19,2.37	c-1.15-0.89,1.2-4.6,0-5.63c-1.43-1.23-5.92,3.1-7.85,1.78C25.76,24.05,25.9,22.02,26.21,20.31z"/><path class="st2" d="M13.56,29.56c0.98-1.44,7.43,3.59,12.3,1.19c2.87-1.42,3.49-4.59,4.74-4.3c1.91,0.45,0.76,7.94,2.81,8.59	c2.46,0.78,5.85-9.4,10.37-9.04c2.5,0.2,4.78,3.56,4.89,6.52c0.24,6.48-9.96,10.83-12,11.7c-9.86,4.21-21.77,2.98-22.96-0.74	c-0.73-2.26,2.9-4.23,2.22-8.44C15.42,31.89,12.98,30.4,13.56,29.56z"/><path class="st2" d="M54.15,8.67c-1.28,0.6-2.54,1.87-2.81,3.41c-0.64,3.63,4.84,5.51,9.48,11.7c5.57,7.42,3.58,12.58,7.41,13.93	c4.59,1.62,12.62-3.97,12.59-9.33c-0.01-1.31-0.5-2.89-6.81-8.44C65.22,12.21,58.74,6.51,54.15,8.67z"/><path class="st2" d="M56.37,26.44c-1.41,0.29-1.19,2.04-3.56,6.07c-3.42,5.83-6.44,6.55-6.22,9.48c0.2,2.64,2.89,5.24,4.89,5.04	c2.25-0.23,2.38-3.87,5.04-4.44c2.74-0.59,4.63,2.85,6.37,2.07c1.72-0.76,1.58-4.88,1.19-7.26C63.14,31.77,59.09,25.88,56.37,26.44z	"/><path class="st1" d="M69.02,40.31c-1.43,2.01-0.58,5.26,0.74,7.11c2.99,4.21,10.78,4.55,15.26,1.04c4.69-3.68,4.09-10.27,3.85-12.89	c-0.3-3.25-1.54-7.39-2.96-7.41c-1.68-0.02-1.11,5.79-5.19,8.89C76.4,40.34,71.21,37.23,69.02,40.31z"/><path class="st2" d="M11.63,49.11c-1.42,0.72,4.67,9.69,1.19,16.15c-0.7,1.3-1.91,2.73-1.48,4.44c0.32,1.26,1.34,1.97,3.7,3.41	c4.97,3.02,7.46,4.52,8.15,4c1.12-0.86-1.03-3.33-1.19-8.89c-0.13-4.8,1.38-6.41,0-9.19c-0.58-1.17-1-1.18-4-4	C13.4,50.72,12.28,48.78,11.63,49.11z"/><path class="st1" d="M20.87,48.61c-0.76,0.73-1.29,2.03-1.04,3.26c0.72,3.46,7.06,3.42,7.56,6.37c0.27,1.6-1.52,2.05-2.67,4.89	c-1.1,2.72-1.65,7.78,1.48,10.37c3.2,2.65,8.98,1.67,10.37-0.89c1.15-2.13-1.55-3.79-2.52-9.63c-0.97-5.83,1.2-7.37-0.44-10.37	C31.19,48.17,23.5,46.1,20.87,48.61z"/><path class="st2" d="M43.04,45.7c-2.36-0.24-5.84,0.32-6.67,2.22c-1.1,2.54,3.43,5.41,2.37,9.78c-0.36,1.48-0.92,1.33-1.48,2.96	c-1.57,4.58,1.07,10.91,3.85,11.26c1.4,0.17,2.18-1.26,4.89-4.15c7.48-7.99,11.83-8.01,13.48-13.48c0.84-2.79,0.69-6.03-0.44-6.52	c-1.19-0.51-2.28,2.49-5.04,2.96C50.17,51.4,48.54,46.26,43.04,45.7z"/><path class="st1" d="M63.54,46.39c-1.34,0.63-0.35,3.31-1.19,6.52c-1.71,6.58-9.35,8.71-8.74,10.22c0.46,1.15,4.69-0.54,14.52-1.48	c4.86-0.46,7.12-0.37,8.15-2.07c1.2-2-0.04-5.27-1.63-7.11c-1.07-1.24-1.61-1.04-5.48-3.26C65.25,46.96,64.43,45.97,63.54,46.39z"/><path class="st2" d="M78.59,55.19c-1.09,1.9-0.73,2.91-0.59,11.85c0.1,6.53-0.06,7.79,1.04,8.59c2.16,1.57,7.16-0.14,9.19-3.41	c1.49-2.4,0.32-3.94,0-11.56c-0.3-7.13,0.57-9.33-0.89-10.22C85.3,49.2,80.63,51.63,78.59,55.19z"/><path class="st1" d="M27.09,77.79c-1.11,0.78-1.67,2.5-1.33,3.85c0.66,2.61,4.35,2.58,10.52,5.19c8.05,3.4,9.49,6.71,14.37,6.22	c2.9-0.29,5.66-1.78,5.63-2.96c-0.05-1.67-5.63-1.52-6.96-4.89c-0.87-2.21,1.08-3.39,0.44-6.07c-0.8-3.38-5.06-6.47-8.44-5.93	c-3.41,0.55-3.45,4.38-7.26,5.04C30.91,78.78,28.94,76.5,27.09,77.79z"/><path class="st2" d="M51.19,67.63c-1,0.39-4.01,1.56-4.15,3.41c-0.17,2.34,4.46,3.07,5.33,6.96c0.49,2.2-0.82,2.75-0.3,4.89	c0.76,3.1,4.42,5.68,7.85,5.78c2.12,0.06,2.87-0.87,7.85-3.85c7.31-4.37,10.56-5.28,10.37-6.81c-0.24-1.91-5.38-1.34-6.62-4.27	c-1.57-3.7,4.78-8.89,3.66-10.25c-1.02-1.23-5.6,3.82-13.19,4C57.67,67.58,55.31,66.03,51.19,67.63z"/><path class="st3" d="M37.19,14.44c-0.23,0.11-1.08,0.56-1.33,1.48c-0.16,0.56-0.08,1.27,0.15,1.33c0.26,0.07,0.42-0.73,1.26-1.26	c0.75-0.48,1.44-0.35,1.48-0.59C38.77,15.25,38.51,14.97,37.19,14.44z"/><path class="st3" d="M41.41,13.56c-0.52,0.41-0.92,1.24-0.59,1.93c0.29,0.61,1.1,0.96,1.41,0.74c0.36-0.25-0.22-1.1,0.22-1.78	C42.9,13.75,44,13.91,44,13.7C44,13.46,42.41,12.77,41.41,13.56z"/><path class="st3" d="M29.11,20.37c-0.16,0.27,0.02,0.74,0.3,0.96c0.59,0.47,1.79,0.02,2.44-0.67c0.87-0.91,0.84-2.31,0.67-2.37	c-0.17-0.06-0.32,1.2-1.33,1.7C30.27,20.45,29.37,19.93,29.11,20.37z"/><path class="st3" d="M37.33,20.81c-0.57,0.11-0.86,2.46-0.3,2.74c0.33,0.16,1.08-0.33,1.26-1.04C38.53,21.6,37.71,20.74,37.33,20.81	z"/><path class="st3" d="M45.78,19.19c-0.24,0.38,0.07,0.96,0.37,1.26c0.54,0.53,1.57,0.63,1.85,0.22c0.28-0.4-0.14-1.31-0.81-1.63	C46.75,18.83,46.03,18.79,45.78,19.19z"/><path class="st4" d="M18.15,33.33c-0.46,0.61-0.18,1.68,0.52,2.15c0.76,0.51,1.95,0.29,2.3-0.44c0.26-0.56-0.05-1.25-0.44-1.63	C19.88,32.8,18.66,32.67,18.15,33.33z"/><path class="st4" d="M28.3,32.67c-0.55,0.14-1.16,0.63-1.26,1.33c-0.12,0.89,0.64,1.76,1.26,1.78c0.42,0.01,0.49-0.38,1.26-0.74	c0.87-0.41,1.37-0.19,1.48-0.44C31.25,34.08,29.72,32.29,28.3,32.67z"/><path class="st4" d="M20.74,38.3c-0.8-0.03-1.39,0.74-1.85,1.33c-0.73,0.95-1.12,2.14-0.89,2.3c0.26,0.17,0.94-1.24,2.37-1.48	c1.21-0.2,1.97,0.59,2.22,0.3C22.94,40.34,22,38.34,20.74,38.3z"/><path class="st4" d="M28.81,39.26c-0.6-0.26-3.16,3.56-2.67,4.07c0.24,0.24,1.17-0.26,1.7-0.74C29.14,41.44,29.2,39.43,28.81,39.26z	"/><path class="st4" d="M42.59,30.22c0.96,0,2.02,0.87,2.15,2c0.16,1.33-1.03,2.43-2.22,2.59c-0.74,0.1-1.74-0.12-2.15-0.81	C39.62,32.74,40.96,30.22,42.59,30.22z"/><path class="st4" d="M37.48,38.44c-1.74,0.73-2.08,0.79-2.07,0.96c0.03,0.41,1.98,1.06,3.33,0.22c0.94-0.58,1.45-1.8,1.19-2.07	C39.76,37.38,39.37,37.65,37.48,38.44z"/><path class="st4" d="M14.87,55.35c-0.34,0.15,0.34,1.55,0.3,4c-0.02,1.18-0.2,1.96,0.07,2.07c0.28,0.11,0.63-0.63,1.56-1.41	c1.49-1.26,2.93-1.32,2.89-1.7c-0.04-0.35-1.2-0.16-2.52-0.89C15.64,56.57,15.2,55.21,14.87,55.35z"/><path class="st4" d="M19.83,61.5c-0.98-0.05-2.25,0.46-2.37,1.26c-0.11,0.75,0.85,1.41,1.7,2c0.56,0.38,0.84,0.58,1.19,0.52	c0.93-0.16,1.77-2.1,1.04-3.11C20.95,61.55,20.1,61.51,19.83,61.5z"/><path class="st4" d="M13.61,68.46c-0.27,0.98,0.85,1.9,1.41,1.78c0.73-0.16,1.17-2.21,0.52-2.67	C15.08,67.24,13.86,67.58,13.61,68.46z"/><path class="st4" d="M19.76,67.94c-0.22,0.09-0.07,0.53-0.47,1.3c-0.09,0.18-0.15,0.25-0.12,0.33c0.13,0.3,1.56,0.29,1.78-0.3	C21.16,68.7,20.12,67.79,19.76,67.94z"/><path class="st3" d="M27.93,66.59c-0.46,0.21-0.57,2.34,0.52,2.81c0.92,0.41,2.27-0.57,2.22-1.11c-0.03-0.3-0.47-0.31-1.7-1.11	C28.22,66.71,28.09,66.52,27.93,66.59z"/><path class="st3" d="M22.74,50.67c-0.31,0.28-0.72,0.01-0.96,0.22c-0.34,0.3-0.08,1.29,0.37,2c0.95,1.5,2.94,1.98,3.11,1.7	c0.16-0.25-1.31-0.94-1.26-2.07c0.04-0.82,0.84-1.04,0.89-2.07c0.02-0.42-0.07-1.15-0.52-1.33c-0.43-0.18-1.08,0.2-1.33,0.67	C22.83,50.17,22.99,50.44,22.74,50.67z"/><path class="st3" d="M30.22,52.96c-0.63,0.12-0.96,2.97-0.22,3.33c0.38,0.19,1.06-0.28,1.33-0.81	C31.9,54.36,30.71,52.87,30.22,52.96z"/><path class="st3" d="M30.37,61.33c-0.69,0.36-0.86,1.41-0.44,1.85c0.31,0.34,0.87,0.24,0.96,0.22c0.68-0.12,1.41-0.79,1.26-1.41	C32,61.39,31.05,60.98,30.37,61.33z"/><path class="st4" d="M48.44,40.59c-0.33-0.14-0.92,0.25-1.11,0.74c-0.05,0.12-0.18,0.53,0.59,1.93c0.09,0.17,1.01,1.82,1.26,1.7	c0.16-0.07-0.18-0.78-0.37-2.3C48.65,41.32,48.77,40.73,48.44,40.59z"/><path class="st4" d="M50.96,44.07c-0.51-0.49,1.77-4.28,2.67-4c0.4,0.12,0.52,1.05,0.37,1.7c-0.18,0.76-0.75,1.18-1.26,1.56	C52.37,43.6,51.25,44.35,50.96,44.07z"/><path class="st4" d="M55.93,31.26c-0.08-0.04-0.37,1.33-1.7,2.59c-0.96,0.91-1.88,1.21-1.85,1.85c0.02,0.36,0.33,0.77,0.67,0.81	C54.35,36.68,56.08,31.33,55.93,31.26z"/><path class="st4" d="M56,38.96c-0.39,0.61-0.05,1.5,0.37,1.63c0.64,0.2,1.83-1.25,1.56-1.78C57.72,38.41,56.48,38.21,56,38.96z"/><path class="st4" d="M58.89,32.3c-0.91-0.13-2.28,2.08-1.78,2.81c0.25,0.37,0.93,0.31,1.26,0.22c0.89-0.24,1.5-1.27,1.26-2.15	C59.61,33.12,59.39,32.37,58.89,32.3z"/><path class="st4" d="M61.78,38.67c-0.5,0.07-0.95,1.03-0.67,1.78c0.26,0.68,1.13,1.12,1.56,0.89c0.47-0.26,0.41-1.33,0-2	C62.61,39.24,62.22,38.61,61.78,38.67z"/><path class="st4" d="M40.06,48.61c-0.43,0.67-0.43,1.82,0.15,2.3c1.25,1.03,5.15-1.16,4.96-2.15C45,47.84,41.12,46.96,40.06,48.61z"	/><path class="st4" d="M39.91,62.09c-0.53,0.54-0.41,1.34-0.22,2.59c0.21,1.4,0.76,3.01,1.11,2.96c0.27-0.04,0.05-1.01,0.52-2.52	c0.58-1.89,1.56-2.47,1.26-3.04C42.24,61.48,40.64,61.34,39.91,62.09z"/><path class="st4" d="M46.43,54.76c-1.21,0.02-2.26,1.12-2.22,2.07c0.01,0.33,0.16,0.84,0.52,0.96c0.64,0.22,1.35-1.03,1.85-0.81	c0.47,0.2,0.12,1.4,0.52,1.56c0.42,0.17,1.65-0.85,1.56-2C48.57,55.5,47.45,54.74,46.43,54.76z"/><path class="st4" d="M54.21,52.83c-1.2,0.58-2.38,1.52-2.22,1.93c0.16,0.42,1.6-0.06,2,0.59c0.35,0.56-0.42,1.38-0.15,1.63	c0.28,0.26,1.6-0.24,1.93-1.19c0.31-0.9-0.52-1.46-0.22-2.3c0.39-1.09,2.19-1.24,2.15-1.41C57.65,51.93,55.96,51.98,54.21,52.83z"/><path class="st4" d="M50.28,58.31c-0.6-0.45-3.69,1.79-3.33,3.04c0.12,0.44,0.67,0.73,1.11,0.74c1.06,0.02,1.75-1.58,1.93-2	C50.12,59.76,50.63,58.58,50.28,58.31z"/><path class="st3" d="M64.44,50.74c-0.29,0.14-0.32,0.97,0,1.56c0.4,0.73,1.48,1.32,2.3,0.89c0.59-0.31,0.97-1.11,0.74-1.48	c-0.25-0.42-1.05,0.04-2.15-0.52C64.82,50.93,64.64,50.65,64.44,50.74z"/><path class="st3" d="M72.22,54.07c-0.87-0.12-2.01,1.19-1.93,2.44c0.11,1.53,2.02,2.45,2.3,2.22c0.22-0.19-0.68-1.05-0.37-2.07	c0.24-0.8,0.99-0.94,0.96-1.56C73.17,54.63,72.69,54.14,72.22,54.07z"/><path class="st3" d="M60.3,59.7c-2.09,1.24-3.13,1.87-3.04,2.15c0.15,0.45,2.19,0.11,2.89,0c1.46-0.24,3.97-0.65,4.15-1.78	c0.09-0.58-0.45-1.26-1.04-1.48C62.71,58.39,62.17,58.59,60.3,59.7z"/><path class="st3" d="M65.85,56.22c-0.29,0.38-0.4,1.04-0.07,1.33c0.34,0.3,0.96,0.03,1.04,0c0.69-0.3,1.2-1.16,0.96-1.56	C67.52,55.58,66.35,55.59,65.85,56.22z"/><path class="st3" d="M40.37,76.59c-0.47,0.32-1.21,1.03-1.04,1.56c0.2,0.61,1.62,0.79,2.67,0.44c1.18-0.39,2.24-1.56,2-2.15	C43.72,75.77,41.68,75.69,40.37,76.59z"/><path class="st3" d="M27.63,80.67c-0.3,0.6,0.11,1.61,0.67,1.78c0.7,0.21,1.26-1.05,2.07-0.89c0.87,0.17,0.75,1.72,1.7,2.07	c1.02,0.37,2.75-0.8,2.67-1.7c-0.07-0.77-1.44-1.2-2.37-1.48C30.84,79.97,28.16,79.62,27.63,80.67z"/><path class="st3" d="M39.11,83.41c-0.37,1.37-0.62,1.6-0.44,2c0.24,0.55,1.07,0.95,1.63,0.74c0.9-0.34,0.59-2.04,1.33-2.3	c0.92-0.31,2.1,2.06,2.81,1.78c0.57-0.22,0.8-2.15-0.07-3.11c-0.8-0.87-1.95-0.34-3.04-1.48c-0.48-0.5-0.64-1-0.96-0.96	c-0.08,0.01-0.31,0.07-0.74,1.33C39.34,82.26,39.36,82.5,39.11,83.41z"/><path class="st3" d="M44.67,88.74c-0.42,0.41-0.64,1.22-0.3,1.7c0.4,0.57,1.42,0.44,2,0.15c0.82-0.41,1.23-1.34,1.19-2.15	c-0.07-1.34-1.36-2.3-1.63-2.15c-0.25,0.14,0.44,1.23-0.07,1.85C45.53,88.53,45.1,88.32,44.67,88.74z"/><path class="st4" d="M51.98,69.5c-0.42,0.1-0.63,0.93-0.59,1.56c0.08,1.24,1.2,2.4,1.78,2.22c0.66-0.2,0.3-2.04,1.04-2.3	c0.74-0.25,1.56,1.42,2.3,1.19c0.59-0.19,1.07-1.61,0.37-2.52c-0.62-0.81-1.84-0.8-2.44-0.37c-0.54,0.38-0.47,1.02-0.89,1.11	C52.96,70.51,52.51,69.38,51.98,69.5z"/><path class="st4" d="M62.21,67.94c-1.12,0.69-1.65,2.39-1.11,3.04c0.62,0.74,2.55-0.05,3.33-0.37c0.88-0.36,2.01-0.82,2-1.41	C66.41,68.32,63.84,66.94,62.21,67.94z"/><path class="st4" d="M63.83,76.17c-0.29-0.54-4.02,0-4.37,1.78c-0.2,0.99,0.67,2.24,1.33,2.22c0.49-0.01,0.6-0.7,1.78-2.3	C63.51,76.61,63.94,76.37,63.83,76.17z"/><path class="st4" d="M69.54,79.2c-1.59-0.52-3.64,0.61-3.93,2c-0.11,0.52,0,1.25,0.37,1.41c0.57,0.24,1.11-1.13,2.52-1.48	c1.49-0.37,2.62,0.72,2.89,0.37C71.66,81.14,70.85,79.64,69.54,79.2z"/><path class="st4" d="M69.17,70.98c-0.46-0.26-2.81,1.67-2.3,2.89c0.38,0.9,2.29,1.32,3.33,0.44c1.05-0.88,0.84-2.74,0.44-2.89	c-0.34-0.12-0.92,0.97-1.26,0.81C69.09,72.1,69.44,71.13,69.17,70.98z"/><path class="st4" d="M54.5,81.79c-0.31,0.46,0.73,1.63,1.26,2.22c0.97,1.09,1.61,1.81,2.3,1.7c1.08-0.18,1.05-2.23,2.15-2.44	c1.14-0.22,2.06,1.82,2.67,1.56c0.54-0.24,0.64-2.23-0.44-3.26c-1.23-1.17-3.59-0.71-4.15,0.3c-0.41,0.74,0.15,1.76-0.07,1.85	c-0.27,0.11-0.77-1.39-2.15-1.93C55.52,81.58,54.71,81.48,54.5,81.79z"/><path class="st4" d="M54.74,10.74c-0.84,0.33-1.14,1.54-1.19,2.22c-0.05,0.89,0.26,2.13,0.81,2.22c0.88,0.14,1.5-2.7,2.74-2.67	c0.91,0.03,1.28,1.6,1.78,1.48c0.65-0.16,0.85-3.05-0.07-3.48c-0.46-0.22-0.78,0.37-1.93,0.44C55.73,11.04,55.41,10.47,54.74,10.74z	"/><path class="st4" d="M63.09,12.83c-0.58-0.3-2.06,0.72-2.15,1.93c-0.04,0.57,0.22,1.35,0.74,1.48c0.59,0.15,1.18-0.64,1.41-1.04	C63.57,14.35,63.59,13.08,63.09,12.83z"/><path class="st4" d="M67.83,33.57c-0.24,0.53,0.05,1.24,0.44,1.63c0.77,0.77,2.06,0.44,2.89,0.22c1-0.26,2.52-0.94,2.44-1.56	c-0.07-0.53-1.29-0.77-1.93-0.89C71.28,32.9,68.37,32.37,67.83,33.57z"/><path class="st4" d="M74.8,26.02c-1.13,0.47-2.01,1.74-1.7,2.3c0.29,0.52,1.62,0.43,2.52,0c0.95-0.45,1.89-1.5,1.63-2.07	C77,25.69,75.71,25.64,74.8,26.02z"/><path class="st4" d="M59.54,18.83c-0.19,0.29,1.6,1.17,3.04,3.48c1.07,1.72,1.12,2.9,1.63,2.89c0.59-0.01,1.37-1.65,0.96-2.96	c-0.29-0.94-1.08-1.39-2.52-2.22C61.49,19.35,59.72,18.54,59.54,18.83z"/><path class="st4" d="M67.98,18.98c-0.39,0.27-0.9,0.83-0.74,1.26c0.12,0.34,0.6,0.44,0.96,0.52c0.39,0.08,1.11,0.24,1.7-0.22	c0.45-0.35,0.81-1.04,0.59-1.48C70.2,18.44,68.81,18.41,67.98,18.98z"/><path class="st4" d="M66.65,27.87c-0.41,0.8,0,1.97,0.52,2.07c0.44,0.09,0.92-0.59,1.19-0.96c0.1-0.14,0.97-1.4,0.59-1.85	C68.59,26.71,67.12,26.94,66.65,27.87z"/><path class="st3" d="M74.81,42.37c-0.36-0.77-2.74-1.04-3.63,0.15c-0.64,0.86-0.38,2.29,0.07,2.44c0.43,0.15,0.9-0.87,1.63-0.74	c0.51,0.09,0.6,0.64,0.96,0.59c0.52-0.06,0.79-1.19,0.89-1.63C74.84,42.76,74.89,42.54,74.81,42.37z"/><path class="st3" d="M82.67,38.07c-1.04-0.19-2.44,0.97-2.3,1.7c0.09,0.46,0.83,0.85,1.41,0.74c0.61-0.12,0.63-0.72,1.19-0.89	c1.03-0.31,2.03,1.47,2.59,1.19c0.45-0.23,0.4-1.69-0.22-2.07c-0.35-0.21-0.61,0.07-1.33-0.07C83.27,38.52,83.18,38.17,82.67,38.07z	"/><path class="st3" d="M86.22,32.44c-0.09-0.06-0.74-0.45-1.04-0.22c-0.36,0.28-0.01,1.33,0.3,1.93c0.15,0.28,0.44,0.63,1.04,1.33	c0.81,0.96,0.9,0.98,0.96,0.96c0.3-0.11,0.13-1.44-0.22-2.44C86.87,32.89,86.39,32.55,86.22,32.44z"/><path class="st3" d="M75.7,46.74c-0.37,0.68-0.3,1.66,0.22,2.07c0.5,0.4,1.1,0,2.96-0.44c2.59-0.61,3.43-0.31,3.85-1.04	c0.45-0.77,0.08-2.09-0.52-2.3c-0.85-0.29-1.86,1.78-3.11,1.48c-0.51-0.12-0.49-0.5-1.11-0.67C77.3,45.67,76.18,45.85,75.7,46.74z"	/><path class="st4" d="M81.91,53.94c-0.95-0.35-2.47,0.93-2.3,2.07c0.08,0.54,0.55,1.05,1.11,1.19c0.88,0.2,1.84-0.56,2-1.48	C82.85,55.01,82.5,54.16,81.91,53.94z"/><path class="st4" d="M84.8,53.72c-0.48,0.5-0.42,1.28-0.3,2.81c0.1,1.19,0.22,2.63,0.59,2.67c0.35,0.04,0.98-1.12,0.96-2.3	c-0.02-1.24-0.76-1.77-0.44-2.52c0.32-0.75,1.31-0.85,1.26-1.04C86.81,53.14,85.48,53.01,84.8,53.72z"/><path class="st4" d="M80.13,62.83c-1.05,1.48,0.47,3.84,1.04,3.78c0.57-0.06,0.65-2.6,1.11-2.59c0.33,0.01,0.34,1.26,0.81,1.33	c0.46,0.07,1.32-1,1.11-2c-0.19-0.9-1.16-1.27-1.33-1.33C81.9,61.67,80.7,62.02,80.13,62.83z"/><path class="st4" d="M80.8,71.87c-0.37,0.49-0.81,1.44-0.44,2.07c0.44,0.76,1.76,0.66,2.59,0.59c1.08-0.08,2.17-0.46,2.15-0.74	c-0.02-0.31-1.37-0.2-1.56-0.81c-0.14-0.45,0.4-1.16,0.74-1.49c0.18-0.18,0.23-0.17,0.3-0.29c0.4-0.7-0.63-2.32-1.26-2.22	c-0.43,0.06-0.27,0.88-1.11,1.78C81.6,71.4,81.26,71.26,80.8,71.87z"/><path class="st4" d="M86.06,66.31c-0.26,0.94-0.48,1.77-0.15,2.59c0.08,0.21,0.25,0.6,0.67,0.81c0.05,0.02,0.5,0.25,0.96,0.07	c0.79-0.31,1.03-1.6,0.67-1.93c-0.37-0.33-1.31,0.43-1.56,0.15c-0.24-0.28,0.69-1.08,0.96-2.44c0.25-1.24-0.12-2.57-0.44-2.59	C86.99,62.97,86.68,64.08,86.06,66.31z"/><path class="st1" d="M20.98,22.02c1.48,0.26,2.92,1.27,3.67,2.78c0.77,1.54,0.99,3.95,0,4.56c-1.57,0.97-4.29-3.78-8.11-3.22	c-2.08,0.3-4.2,2.13-4.56,4.11c-0.46,2.53,2.2,3.86,1.56,6.22c-0.52,1.91-2.87,3.25-3.67,2.78c-0.57-0.34-0.15-1.48,0.11-4.56	c0.43-5.03-0.38-5.38,0.44-7c0.85-1.66,2.49-2.51,5.78-4.22C19.43,21.79,20.61,21.95,20.98,22.02z"/><path class="st3" d="M21.89,24.22c0.85,0.2,1.5,0.85,1.67,1.67c0.14,0.68-0.01,1.64-0.56,1.89c-1.05,0.47-3.48-1.74-3.11-2.78	C19.96,24.81,20.24,24.32,21.89,24.22z"/><path class="st3" d="M11.11,34.22c-0.64,0.24-0.67,2.62,0,2.89c0.43,0.17,1.38-0.42,1.44-1.33C12.63,34.76,11.55,34.06,11.11,34.22z	"/></svg>