<?xml version="1.0" encoding="utf-8"?>
<!-- Generator: Adobe Illustrator 26.0.3, SVG Export Plug-In . SVG Version: 6.00 Build 0)  -->
<svg version="1.1" id="Ebene_1" xmlns="http://www.w3.org/2000/svg" xmlns:xlink="http://www.w3.org/1999/xlink" x="0px" y="0px"
	 viewBox="0 0 100 100" style="enable-background:new 0 0 100 100;" xml:space="preserve">
<style type="text/css">
	.st0{fill:#0A0035;stroke:#000000;stroke-width:2;stroke-miterlimit:10;}
	.st1{fill:#3A004A;stroke:#000000;stroke-width:0.75;stroke-miterlimit:10;}
	.st2{fill:#FF0A11;stroke:#000000;stroke-width:0.75;stroke-miterlimit:10;}
	.st3{fill:#9F5900;stroke:#000000;stroke-width:2;stroke-miterlimit:10;}
	.st4{fill:#C015FF;stroke:#000000;stroke-width:0.75;stroke-miterlimit:9.9999;}
	.st5{fill:#13BB8A;stroke:#000000;stroke-width:0.75;stroke-miterlimit:10;}
	.st6{fill:#FFFFFF;stroke:#000000;stroke-miterlimit:10;}
	.st7{fill:#947D00;stroke:#000000;stroke-width:0.75;stroke-miterlimit:10;}
	.st8{fill:#13008A;stroke:#000000;stroke-width:0.75;stroke-miterlimit:10.0002;}
	.st9{fill:#AB7A22;stroke:#000000;stroke-miterlimit:10;}
	.st10{fill:#BF0005;stroke:#000000;stroke-miterlimit:10;}
	.st11{fill:#FFFFFF;stroke:#000000;stroke-width:0.75;stroke-miterlimit:10;}
	.st12{fill:#A36339;stroke:#000000;stroke-miterlimit:10;}
	.st13{fill:#8AC5FF;stroke:#000000;stroke-width:0.75;stroke-miterlimit:10;}
	.st14{fill:#00C911;stroke:#000000;stroke-width:0.75;stroke-miterlimit:10;}
</style>
<g id="Ebene_1_00000116207670979295719810000017278100620074370713_">
	<g id="Ebene_2_00000093860788734264317370000010671531211922489223_">
	</g>
	<g id="Ebene_1_00000017510764199299988230000010460311392665681541_">
		<polygon class="st0" points="8,25.8 50,1.6 92,25.8 92,74.3 50,98.6 8,74.3 		"/>
	</g>
	<polygon class="st1" points="42.1,36.2 30.5,33.3 31.8,12.8 43.3,15.8 	"/>
	<path class="st2" d="M37.2,14.4c-0.9,1.5-0.9,3.8-1.4,7.9c-0.9,7.3-2,10.9-1.4,11.8c0.3,0.4,0.8,0.1,1.1-0.4
		c1-1.5,0.7-4.8,1.7-11.2c0.8-5.1,1.7-8,1.3-8.8C38.2,13.2,37.6,13.7,37.2,14.4z"/>
	<path class="st2" d="M41.6,23.2c-1.2-1.3-2.3-1.3-4.6-2.1c-4-1.3-6.4-3-6.5-2.1c0,0.4,0.4,1.2,0.8,1.7c1.3,1.6,2.7,1.1,6.4,2.5
		c2.9,1.2,4.9,2.6,5,1.9C42.8,24.8,42.2,23.9,41.6,23.2z"/>
	<path class="st2" d="M36.2,13.1c-0.9-0.9-2-2.4-1.9-2.9s1.4,0.1,2.5,1.3c1,1.2,1.2,2.4,1.7,2.7c0.7,0.5,0.5-1.9,1.5-1.4
		c0.6,0.3,1.4,1.5,1.5,2.1c0.1,0.8-0.8,0.7-1,0.7s-0.5-0.1-1.8-0.9C37.4,14,36.8,13.6,36.2,13.1z"/>
	<path class="st3" d="M41.4,20.8"/>
	
		<rect x="22.1" y="21.8" transform="matrix(0.9123 -0.4095 0.4095 0.9123 -8.5246 13.8413)" class="st4" width="11.9" height="10.1"/>
	<path class="st2" d="M25.7,23.1c-0.3,0.9,0.4,1.7,1.4,3.4c1.7,2.9,1.8,4.7,2.7,4.7c0.4,0,0.8-0.4,0.9-0.7c0.5-1.1-1-2-2.2-4.7
		c-1-2.1-1.1-3.6-1.8-3.7C26.2,22.1,25.8,22.6,25.7,23.1z"/>
	<path class="st2" d="M32.6,24.8c-1.2-0.1-2.2,0.6-4.3,1.5c-3.7,1.7-6,2-5.9,2.7c0,0.3,0.5,0.6,1,0.7c1.4,0.3,2.5-1,5.9-2.3
		c2.7-1.1,4.6-1.3,4.6-1.9C33.9,25.1,33.2,24.9,32.6,24.8z"/>
	<path class="st2" d="M23.9,22.7c-1-0.1-2.2-0.7-2.2-1.2c0-0.6,1.5-1.2,2.7-0.9c1.1,0.3,1.3,1.4,1.9,1.3c0.8-0.2,0.5-2.4,1.5-2.8
		c0.6-0.2,1.6,0.2,1.7,0.8c0.2,0.7-0.8,1.5-1.1,1.7c-0.2,0.2-0.5,0.4-1.9,0.7C25.1,22.6,24.5,22.7,23.9,22.7z"/>
	<rect x="35" y="27.5" transform="matrix(0.2688 -0.9632 0.9632 0.2688 -2.9433 63.0264)" class="st5" width="10.1" height="11.9"/>
	<path class="st2" d="M40.6,29.1c-0.9,0.5-0.8,1.6-1.1,3.5c-0.6,3.3-1.7,4.8-1,5.3c0.3,0.3,0.8,0.2,1.2,0c1-0.5,0.5-2.2,1.3-5
		c0.6-2.3,1.5-3.5,1-4C41.7,28.7,41,28.8,40.6,29.1z"/>
	<path class="st2" d="M44.9,34.8c-0.9-0.9-2-1-4.3-1.6c-3.9-1-5.9-2.3-6.3-1.7c-0.2,0.3,0,0.8,0.3,1.2c0.9,1.1,2.6,0.8,6,2
		c2.8,0.9,4.4,1.9,4.7,1.5C45.7,35.9,45.3,35.2,44.9,34.8z"/>
	<path class="st6" d="M8.9,47c5.7-5.3,29.4,25.8,55.4,21.6c13.4-2.2,22-12.8,26.6-9.1c3,2.5,2.1,9.3-0.1,13.8
		c-2.8,5.5-7,6.3-19.8,13.2c-15.5,8.4-15.9,11-21.2,10.9c-5.7-0.1-5.8-2.9-20.4-10.8c-13.3-7.1-18-7.4-20.1-12.8
		c-0.8-2.1-0.3-2.6-0.4-14C8.6,48.3,8.1,47.8,8.9,47z"/>
	<path class="st2" d="M39.5,27.6c-0.7-0.7-1.3-2-0.9-2.3c0.4-0.4,1.9,0,2.6,1c0.6,1,0.1,1.9,0.6,2.2c0.7,0.4,1.9-1.6,3-1.2
		c0.6,0.2,1.1,1.2,0.8,1.7c-0.3,0.7-1.6,0.6-1.9,0.6c-0.3,0-0.7-0.1-2-0.7C40.6,28.3,39.9,28,39.5,27.6z"/>
	<rect x="42" y="19.3" transform="matrix(0.2688 -0.9632 0.9632 0.2688 10.0668 63.7934)" class="st7" width="10.1" height="11.9"/>
	<path class="st2" d="M47.6,20.9c-0.9,0.5-0.8,1.6-1.1,3.5c-0.6,3.3-1.7,4.8-1,5.3c0.3,0.3,0.8,0.2,1.2,0c1-0.5,0.5-2.2,1.3-5
		c0.6-2.3,1.5-3.5,1-4C48.6,20.5,48,20.7,47.6,20.9z"/>
	<path class="st2" d="M51.8,26.6c-0.9-0.9-2-1-4.3-1.6c-3.9-1-5.9-2.3-6.3-1.7c-0.2,0.3,0,0.8,0.3,1.2c0.9,1.1,2.6,0.8,6,2
		c2.8,0.9,4.4,1.9,4.7,1.5C52.6,27.7,52.3,27.1,51.8,26.6z"/>
	<path class="st2" d="M46.5,19.4c-0.7-0.7-1.3-2-0.9-2.3c0.4-0.4,1.9,0,2.6,1c0.6,1,0.1,1.9,0.6,2.2c0.7,0.4,1.9-1.6,3-1.2
		c0.6,0.2,1.1,1.2,0.8,1.7c-0.3,0.7-1.6,0.6-1.9,0.6c-0.3,0-0.7-0.1-2-0.7C47.5,20.2,46.9,19.9,46.5,19.4z"/>
	
		<rect x="51.3" y="19.7" transform="matrix(0.9526 -0.3043 0.3043 0.9526 -4.8099 18.5921)" class="st8" width="11.9" height="10.1"/>
	<path class="st2" d="M55.3,20.8c-0.4,0.9,0.2,1.8,1,3.5c1.3,3.1,1.2,4.9,2.1,5c0.4,0,0.8-0.3,1-0.6c0.6-1-0.7-2.1-1.7-4.9
		c-0.8-2.2-0.7-3.7-1.4-3.8C56,19.9,55.5,20.4,55.3,20.8z"/>
	<path class="st2" d="M62,23.2c-1.2-0.3-2.2,0.3-4.4,1c-3.8,1.3-6.2,1.3-6.2,2c0,0.3,0.5,0.6,0.9,0.8c1.4,0.4,2.6-0.7,6.1-1.7
		c2.8-0.8,4.7-0.8,4.8-1.3C63.3,23.7,62.6,23.4,62,23.2z"/>
	<path class="st2" d="M53.6,20.2c-1-0.2-2.1-0.9-2-1.5s1.6-1.1,2.7-0.6c1,0.4,1.2,1.5,1.7,1.5c0.8-0.1,0.7-2.4,1.8-2.6
		c0.6-0.2,1.5,0.4,1.6,1c0.1,0.8-1,1.4-1.2,1.5s-0.6,0.3-2,0.5C54.8,20.2,54.1,20.3,53.6,20.2z"/>
	<path class="st3" d="M15.8,29.1C15.1,31,25.2,33,27.2,40.2s-6.5,11-7.4,21.9c-0.7,8,2.9,17.5,9.9,22.1c5.1,3.3,11.4,2.6,23.7,1
		c15.7-2,23.6-3,26.5-7.7c5.9-9.4-2.7-29.8-15.4-36c-3.7-1.8-7.4-2.3-7.9-4.7c-0.9-5.2,15.1-11.6,14.5-13
		c-0.6-1.3-13.5,5.9-30.7,6.5C27.1,30.8,16.5,27.1,15.8,29.1z"/>
	<path class="st9" d="M32.1,48.9c-4.5,0.9-7.4,7.6-8.1,12.4c-1.7,11.8,9,23,11.9,21.9c1-0.4,0.7-2.2,1.3-8.3
		c0.9-8.3,1.4-12.7,3-15.8c5.7-10.6,26.9-7.9,27.1-11.9c0.1-1.7-3.5-3.2-5.7-3.8c-3.8-0.9-8.2,0.6-17,3.8c-1.6,0.6-3.2,1.2-5.5,1.5
		C35.3,49.3,34,48.5,32.1,48.9z"/>
	<path class="st10" d="M24.1,38.3c-0.4,0.9,1.7,2.6,3.1,3.6c6.8,4.6,17.1,2.7,22.5,0.3c1.8-0.8,3.2-1.7,6-2.4
		c3.2-0.7,5.3-0.3,5.9-1.5c0.5-1-0.3-2.8-1.5-3.7c-3.8-2.9-9.7,4.6-20.6,5.3C31.2,40.5,24.7,36.9,24.1,38.3z"/>
	<path class="st10" d="M47,43.4c0.1-0.6,1.4-1,2.2-1c4.2-0.3,8.8,7.5,14,16.5c0.2,0.4,0.9,1.6,2.1,3.2c0.4,0.5,0.8,1.1,1.3,1.8
		c2,2.6,3.5,4,3.6,4.7c0,0.1,0,0.1-0.1,0.2C69.7,70,67,70,66.7,70c-5.3,0-10.8-22.3-17.5-25C48.8,44.8,46.9,44.1,47,43.4z"/>
	<path class="st11" d="M61.3,26.5c5.3-1.5,7.8-2.4,8-2c0.2,0.5-5.3,4.1-12.1,6.3c-10.8,3.6-21.3,2.5-22.4,2.4
		c-1.9-0.1-3.3-0.4-6-0.4c-5.7,0.1-5.5,0-5.9,0c-3.1-0.5-5.8-2.8-5.5-3.5c0.3-0.7,3.3,0,7.4,0.6c3.4,0.5,12.3,1.7,21.1,0.4
		C49,30,53.1,28.8,61.3,26.5z"/>
	<path class="st6" d="M68,72.5c1.8-0.3,4-1.7,4-3.6c0-1.8-1.8-2.9-2-3c-2.9-1.8-8,0-8.3,2.1C61.4,70,64.8,73,68,72.5z"/>
	<path class="st12" d="M76,60c1.4-0.2,5.4,7.6,2.6,13.9c-1.8,4.1-5.6,5.7-9,7.1c-1.5,0.6-10.8,4.5-14.2,0.2c-1.1-1.4-1.8-4-0.8-5.6
		c2.4-3.7,11.8,2.9,17.1-1.3C76.9,70.5,74.3,60.2,76,60z"/>
	<path class="st12" d="M0.8,34.8"/>
	<path class="st12" d="M57.4,31.8c0.1,0.4-2.8,1.9-5.1,2.8c-4.3,1.7-7.6,1.9-12.9,2.3c-6.5,0.5-8.9,0-11-1c-0.4-0.2-3.1-1.4-2.9-2.1
		c0.3-1.2,8.4,1.5,19.1,0.4C51.9,33.4,57.3,31.2,57.4,31.8z"/>
	
		<rect x="79.9" y="45" transform="matrix(0.2688 -0.9632 0.9632 0.2688 13.0409 119.0773)" class="st13" width="10.1" height="11.9"/>
	<path class="st2" d="M85.5,46.6c-0.9,0.5-0.8,1.6-1.1,3.5c-0.6,3.3-1.7,4.8-1,5.3c0.3,0.3,0.8,0.2,1.2,0c1-0.5,0.5-2.2,1.3-5
		c0.6-2.3,1.5-3.5,1-4C86.6,46.2,85.9,46.3,85.5,46.6z"/>
	<path class="st2" d="M89.8,52.3c-0.9-0.9-2-1-4.3-1.6c-3.9-1-5.9-2.3-6.3-1.7c-0.2,0.3,0,0.8,0.3,1.2c0.9,1.1,2.6,0.8,6,2
		c2.8,0.9,4.4,1.9,4.7,1.5C90.6,53.4,90.2,52.8,89.8,52.3z"/>
	<path class="st2" d="M84.4,45.1c-0.7-0.7-1.3-2-0.9-2.3c0.4-0.4,1.9,0,2.6,1c0.6,1,0.1,1.9,0.6,2.2c0.7,0.4,1.9-1.6,3-1.2
		c0.6,0.2,1.1,1.2,0.8,1.7c-0.3,0.7-1.6,0.6-1.9,0.6s-0.7-0.1-2-0.7C85.5,45.8,84.8,45.5,84.4,45.1z"/>
	<polygon class="st14" points="60.5,84.6 53.8,95.3 33.6,87.5 40.3,76.8 	"/>
	<path class="st2" d="M38.2,82.6c1.1,1.3,3.3,2,7.1,3.7c6.7,3.1,9.7,5.3,10.8,5c0.5-0.1,0.3-0.7,0-1.2c-1.1-1.5-4.4-2.2-10.2-5
		c-4.7-2.3-7.1-4.1-8-4C37.4,81.2,37.7,82,38.2,82.6z"/>
	<path class="st2" d="M48,81.1c-1.6,0.7-2,1.8-3.4,3.7c-2.4,3.4-4.8,5.2-4,5.5c0.4,0.2,1.3,0,1.9-0.3c1.9-0.8,1.9-2.3,4.3-5.3
		c2-2.4,4-3.8,3.4-4.2C49.9,80.5,48.8,80.7,48,81.1z"/>
	<path class="st2" d="M36.7,83.1c-1.1,0.6-2.9,1.1-3.3,1c-0.5-0.2,0.5-1.3,2-1.9c1.4-0.6,2.6-0.4,3.1-0.8c0.7-0.5-1.6-1.1-0.9-1.8
		c0.4-0.5,1.8-0.9,2.5-0.8c0.8,0.1,0.4,1,0.3,1.2c-0.1,0.2-0.3,0.5-1.4,1.4C37.9,82.3,37.3,82.8,36.7,83.1z"/>
	<path class="st10" d="M48,43.1c-0.2-0.5,0.8-1.5,1.4-1.9c3.6-2.3,11.3,2.3,20.2,7.7c0.4,0.2,1.6,1,3.4,1.8c0.6,0.3,1.2,0.6,2,0.9
		c3,1.3,5,1.8,5.4,2.4c0,0.1,0.1,0.1,0.1,0.2c0.2,1.3-2.2,2.6-2.4,2.7c-4.6,2.5-20.3-14.4-27.4-13.6C50.3,43.4,48.3,43.7,48,43.1z"
		/>
	<path class="st6" d="M80.4,58.4c1.4-1.1,2.7-3.4,1.8-5c-0.8-1.6-3-1.7-3.2-1.7c-3.4-0.1-7,3.8-6.2,5.9
		C73.5,59.4,77.9,60.4,80.4,58.4z"/>
</g>
<path d="M156,25.9"/>
</svg>
