<?xml version="1.0" encoding="utf-8"?>
<!-- Generator: Adobe Illustrator 26.0.3, SVG Export Plug-In . SVG Version: 6.00 Build 0)  -->
<svg version="1.1" id="Ebene_1" xmlns="http://www.w3.org/2000/svg" xmlns:xlink="http://www.w3.org/1999/xlink" x="0px" y="0px"
	 viewBox="0 0 100 100" style="enable-background:new 0 0 100 100;" xml:space="preserve">
<style type="text/css">
	.st0{fill:#FFFFFF;stroke:#000000;stroke-width:2;stroke-miterlimit:10;}
	.st1{fill:#FF0000;}
	.st2{fill:#DF0012;stroke:#000000;stroke-width:2;stroke-miterlimit:10;}
	.st3{fill:#FFD727;stroke:#000000;stroke-width:2;stroke-miterlimit:10;}
	.st4{fill:#FFFF00;stroke:#000000;stroke-width:0.25;stroke-miterlimit:10;}
	.st5{fill:#BFC1CB;stroke:#FFE2B4;stroke-width:0.5;stroke-miterlimit:10;}
	.st6{stroke:#000000;stroke-width:0.75;stroke-miterlimit:10;}
	.st7{fill:#E90006;stroke:#000000;stroke-width:0.75;stroke-miterlimit:10;}
</style>
<g id="Ebene_1_00000017510764199299988230000010460311392665681541_">
	<path class="st0" d="M92,25.8L50,1.6L8,25.8v48.5l42,24.3l42-24.2V25.8z"/>
</g>
<path class="st1" d="M60.7,33.7"/>
<circle class="st2" cx="51" cy="64.3" r="25"/>
<path class="st3" d="M54,46.4H42V35.9c2,0,4,0,5.9,0c2,0,4,0,6.1,0C54,39.4,54,42.9,54,46.4z"/>
<path class="st4" d="M21.4,27.4c-0.1,0.5-1.1,0.5-1.2-0.2c-0.1-0.4,0.1-0.7,0.3-2c0.1-0.9,0.1-1.5,0.2-1.5c0.1,0,0,1,0.3,2.2
	C21.2,26.9,21.4,27.1,21.4,27.4z"/>
<path class="st4" d="M20.3,23.4c0,0.1-0.3,0.6-0.4,1.6c-0.2,1-0.1,1.5-0.3,1.7c-0.3,0.3-1.1-0.8-1-1.4c0-0.3,0.3-0.2,0.8-0.7
	C20,24.1,20.3,23.3,20.3,23.4z"/>
<path class="st4" d="M19.5,22.1c0,0.1-0.4,0.2-0.7,0.7c-0.4,0.7-0.3,1.5-0.5,1.4c-0.2,0-0.5-2.4-0.3-2.7c0.1-0.1,0.2,0.2,0.5,0.5
	C19.1,22.4,19.5,22.1,19.5,22.1z"/>
<path class="st5" d="M21.3,23.3c-2.3,0.1-4.1,3.9-4.4,3.7c-0.3-0.2,1.3-5.2,4-6"/>
<path class="st6" d="M21,21c0.3-0.1,0.6-0.1,0.9-0.1c2.5,0.1,4.1,3.7,4.3,4.1c1.7,4.1-0.5,7.7,0.7,8.4c1.2,0.7,3.4-2.3,7.1-4.3
	c7.2-3.9,17.3-2.4,18.2,0.6c0.8,2.5-5,6.4-5.2,6.2c-0.2-0.1,2.9-2.8,2.2-5.3c-0.3-1-1-1.6-1.2-1.8c-1-0.9-3.6-1.9-11.6,1.3
	c-7.9,3.2-11.6,6.8-12.7,5.8c-1.2-1.1,2.7-5.3,0.9-9.6c-0.1-0.3-1.2-2.8-3-3c-0.1,0-0.2,0-0.4,0"/>
<path class="st3" d="M38,52.1c-0.4,0.1,0.5,2.2-0.4,4.1c-1.5,3-6.2,3.1-6.1,4c0.1,0.7,3,0,4.9,1.8c2.2,2,1.3,5.8,2.1,5.9
	c0.9,0.1,1.1-4.5,4.1-6.1c2.4-1.3,5.4,0.1,5.5-0.3c0.1-0.4-3.8-0.9-6.7-3.9C39,55.2,38.5,51.9,38,52.1z"/>
<path class="st3" d="M60.8,67.5c-0.7,1.7-1.4,3.4-2.8,4.6c-3.2,2.6-8.3,1.2-8.3,1.6c0,0.4,4.4,0.1,6.5,2.8c1.7,2.1,1.2,5,1.8,5
	c0.6,0,0.2-3.1,2.1-4.6c2.2-1.8,5.8,0,6.4-1c0.4-0.8-1.7-1.9-3.1-4.4c-2.3-4.2-0.7-9.2-1-9.2C62.1,62.3,62,64.6,60.8,67.5z"/>
<path class="st7" d="M59.2,15.3c1.1-1.7,8.3-1.2,9.3,1c0.6,1.3-1.3,2.1-3.4,6.4c-1.4,2.8-1.8,4.7-2.2,4.7c-0.6-0.1,0.5-3.2-1-6.9
	C60.5,17.2,58.5,16.3,59.2,15.3z"/>
<path class="st7" d="M74.9,32c-0.2-0.2,1.7-1.6,3.1-4.3c1.4-2.8,0.9-4.3,2-4.7c1.9-0.8,5.8,2.4,5.3,4c-0.3,0.9-1.9,0.5-5,1.8
	C77,30.1,75.1,32.2,74.9,32z"/>
<path class="st7" d="M78.9,43c-0.1-0.2,2.8-0.3,5.3-1.7c2.9-1.5,3-3.5,3.9-3.4c1.6,0.1,2.7,6.1,0.8,6.6c-0.8,0.2-1.3-0.6-3.6-1.2
	C82,42.4,79,43.2,78.9,43z"/>
<path class="st4" d="M22.3,17.8c0.3-0.4,1.1,0.2,1,0.9c-0.1,0.4-0.4,0.5-1.2,1.6c-0.5,0.7-0.8,1.2-0.8,1.2c-0.1-0.1,0.4-0.9,0.7-2
	C22.2,18.4,22.1,18,22.3,17.8z"/>
<path class="st4" d="M21.8,22c0-0.1,0.4-0.3,0.9-1c0.5-0.7,0.6-1.1,0.8-1.2c0.3-0.1,0.5,1.1,0.3,1.5c-0.1,0.2-0.3,0-0.9,0.1
	C22.3,21.7,21.8,22.1,21.8,22z"/>
<path class="st4" d="M22,23.4c0-0.1,0.3,0.1,0.8-0.2c0.5-0.3,0.8-0.9,0.9-0.8c0.2,0.1-0.5,2.1-0.8,2.1c-0.1,0-0.1-0.3-0.2-0.6
	C22.4,23.4,22,23.4,22,23.4z"/>
<circle class="st7" cx="61.9" cy="32" r="2.5"/>
<circle class="st7" cx="71.6" cy="34.5" r="2.5"/>
<circle class="st7" cx="74.1" cy="44.5" r="2.5"/>
</svg>
