<?xml version="1.0" encoding="utf-8"?>
<!-- Generator: Adobe Illustrator 26.0.3, SVG Export Plug-In . SVG Version: 6.00 Build 0)  -->
<svg version="1.1" id="Ebene_1" xmlns="http://www.w3.org/2000/svg" xmlns:xlink="http://www.w3.org/1999/xlink" x="0px" y="0px"
	 viewBox="0 0 100 100" style="enable-background:new 0 0 100 100;" xml:space="preserve">
<style type="text/css">
	.st0{fill:#FFFFFF;stroke:#000000;stroke-width:2;stroke-miterlimit:10;}
	.st1{fill:#0A0035;stroke:#000000;stroke-miterlimit:10;}
	.st2{fill:#94000C;stroke:#CFBB12;stroke-width:0.75;stroke-miterlimit:10;}
	.st3{stroke:#CFBB12;stroke-width:0.25;stroke-miterlimit:10;}
	.st4{fill:none;stroke:#FFFFFF;stroke-miterlimit:10;}
	.st5{fill:none;stroke:#CFC924;stroke-miterlimit:10;}
	.st6{fill:#FFFFFF;stroke:#000000;stroke-width:0.75;stroke-miterlimit:10;}
	.st7{fill:#FFFFAF;stroke:#FFFFFF;stroke-width:0.25;stroke-miterlimit:10;}
	.st8{fill:#FFFFFF;stroke:#000000;stroke-miterlimit:10;}
	.st9{fill:#8AC5FF;stroke:#000000;stroke-width:0.75;stroke-miterlimit:10;}
	.st10{fill:#FF0A11;stroke:#000000;stroke-width:0.75;stroke-miterlimit:10;}
</style>
<g id="Ebene_1_00000009555231547046583080000011892253992037278349_">
	<g id="Ebene_2_00000037695081456361326870000000537167486581588369_">
	</g>
	<g id="Ebene_1_00000061445211855329728190000003209767103334527892_">
		<polygon class="st0" points="8,25.8 50,1.6 92,25.8 92,74.3 50,98.6 8,74.3 		"/>
	</g>
</g>
<path class="st1" d="M9,54.3c3.6,8.7,16.9,10.5,37.9,13.2c21.7,2.7,40.6,5.1,45.1-3.3c2.7-4.9-2.8-8-1.1-21.2
	c0.8-6.7,2.8-10.9,0.3-15.4c-0.5-0.9-1.1-2.6-6.5-5.5c-5.7-3-11.3-6.2-16.9-9.3C59.4,8.2,55.2,5.9,55,5.7C54.1,4.9,52.3,3,49.9,3
	c-2.1,0-3.7,1.4-4.3,2c-4,3.5-9.6,6.5-20.7,12.4c-3.6,1.9-7,4.3-10.7,6c-2,0.9-3.6,1.7-4.9,3.5c-1.9,2.7-1.5,6-1.3,7.6
	C9.5,47.7,7.1,49.8,9,54.3z"/>
<path class="st2" d="M82.6,49.4c0.9-0.4,2.6,0.3,3.3,1.4c1.4,2.3-2.9,4.8-3.8,11.6c-0.2,1.8,0,1.7-0.2,2.3c-1.4,3.6-9,4.8-33.5,4.1
	c-23.7-0.6-28.5-1.8-29.3-4.5c-1.2-4.1,7.3-7.9,6.2-15c-0.6-3.7-3.7-7.1-5.9-6.9c-2.6,0.3-3.6,5.7-4.3,5.5c-0.5-0.2-0.8-3.5,1.3-5.4
	c2-1.8,4.8-1.1,5-1.1c2.8,0.8,4,3.7,4.6,4.9c1.3,2.8,0.3,3.7,1.4,4.9c1.8,2,5.5,0.8,12.9,0.6c6.7-0.1,11.7-0.2,13.3,2.1
	c2,2.8-2.5,6.5-0.5,9c1.6,2,6,1.5,12.3,0.8c5.3-0.6,8-0.9,10.4-2.5c0.9-0.6,5.4-4,6-8.8C81.9,51.2,81.7,49.8,82.6,49.4z"/>
<path class="st3" d="M84.9,67.9c-0.4-0.3,0-2.1,1.1-2.4c0.6-0.2,1.4,0,1.9,0.5c0.9,1.2-0.5,3.9-1.3,4.9c-2.6,3.4-8.9,2.1-16.9,1.3
	c-10-1-20.1-0.5-30.1-0.8c-6.9-0.2-11.5-0.3-16.9-2.6c-2-0.8-4.6-2.2-4.9-2c-0.3,0.4,3.2,2.9,4.5,3.8c8.3,5.5,20.2,4.3,33.5,3.4
	c20.8-1.6,30.4,2,32.9-3c1-2,1.2-5.8-0.5-7c-1-0.7-2.7-0.4-3.7,0.5c-1.6,1.6-0.8,4.8,0.1,5c0.8,0.2,2.2-2,1.9-2.3
	C86.4,67.1,85.2,68.2,84.9,67.9z"/>
<path class="st4" d="M53.7,53.7c0.1-1.2,7.5,3.3,18.6,4.2c13,1.1,21.9-3.6,22-2.4c0.1,1-6.9,5.2-14.7,6.6
	c-7.1,1.3-12.2-0.2-13.3-0.6C59.5,59.5,53.5,54.8,53.7,53.7z"/>
<path class="st5" d="M119.2,5"/>
<path class="st6" d="M26,53.2c1.6-0.9,2.8,0,5.6,0.3c5.9,0.7,7.9-2.2,11.4-0.4c2.1,1,3.4,3,3.1,3.4c-0.3,0.4-2.2-1.1-5.4-1.7
	c-2.3-0.4-2.7,0.1-9.5,0.7c-3.7,0.3-4.1,0.2-5.1,0.7c-2.6,1.4-4.7,4.9-3.9,7.2c1.6,4.4,13.7,3.6,13.7,3.9c0,0.1-2.8,0-5.8-0.3
	c-2-0.2-3.3-0.4-5.9-0.9c-3-0.5-3.8-0.8-4.2-1.5c-0.6-1-0.2-2.1,0.1-3.1c0.6-1.7,1.4-2.2,3.1-4.6C25.2,54.3,25,53.8,26,53.2z"/>
<path class="st7" d="M63.8,14.4c-0.5-0.1-0.4,3-2.4,5.2c-2.7,2.9-7.7,2.5-7.7,2.8s5.6-1,7.9,1.6c1.4,1.6,1.1,4,1.6,4
	c0.6,0,0.3-3,2.2-4.4c1.8-1.4,4.5-0.6,4.6-1c0.1-0.5-3.2-0.5-4.9-2.7C63.4,17.7,64.3,14.5,63.8,14.4z"/>
<path class="st8" d="M117.4,18.9"/>
<path class="st6" d="M101.1,87.9"/>
<path class="st7" d="M35.7,61.8c-0.1,0-0.1,0.8-0.7,1.4c-0.7,0.8-2.1,0.7-2.1,0.8s1.5-0.3,2.2,0.4c0.4,0.4,0.3,1.1,0.4,1.1
	c0.2,0,0.1-0.8,0.6-1.2c0.5-0.4,1.2-0.2,1.3-0.3c0-0.1-0.9-0.1-1.3-0.7C35.6,62.7,35.8,61.9,35.7,61.8z"/>
<path class="st7" d="M27.6,60.5c-0.1,0-0.1,0.8-0.7,1.4c-0.7,0.8-2.1,0.7-2.1,0.8s1.5-0.3,2.2,0.4c0.4,0.4,0.3,1.1,0.4,1.1
	c0.2,0,0.1-0.8,0.6-1.2s1.2-0.2,1.3-0.3c0-0.1-0.9-0.1-1.3-0.7C27.4,61.4,27.7,60.5,27.6,60.5z"/>
<path class="st7" d="M32,56.2c-0.1,0-0.1,0.8-0.7,1.4c-0.7,0.8-2.1,0.7-2.1,0.8s1.5-0.3,2.2,0.4c0.4,0.4,0.3,1.1,0.4,1.1
	c0.2,0,0.1-0.8,0.6-1.2c0.5-0.4,1.2-0.2,1.3-0.3c0-0.1-0.9-0.1-1.3-0.7C31.9,57.1,32.2,56.2,32,56.2z"/>
<path class="st7" d="M79.2,62.4c-0.1,0-0.1,0.8-0.7,1.4c-0.7,0.8-2.1,0.7-2.1,0.8c0,0.1,1.5-0.3,2.2,0.4c0.4,0.4,0.3,1.1,0.4,1.1
	c0.2,0,0.1-0.8,0.6-1.2c0.5-0.4,1.2-0.2,1.3-0.3c0-0.1-0.9-0.1-1.3-0.7C79.1,63.2,79.3,62.4,79.2,62.4z"/>
<rect x="43.2" y="80.8" transform="matrix(0.2688 -0.9632 0.9632 0.2688 -48.2298 109.8771)" class="st9" width="10.1" height="11.9"/>
<path class="st10" d="M48.8,82.4c-0.9,0.5-0.8,1.6-1.1,3.5c-0.6,3.3-1.7,4.8-1,5.3c0.3,0.3,0.8,0.2,1.2,0c1-0.5,0.5-2.2,1.3-5
	c0.6-2.3,1.5-3.5,1-4C49.9,82,49.2,82.1,48.8,82.4z"/>
<path class="st10" d="M53.1,88.1c-0.9-0.9-2-1-4.3-1.6c-3.9-1-5.9-2.3-6.3-1.7c-0.2,0.3,0,0.8,0.3,1.2c0.9,1.1,2.6,0.8,6,2
	c2.8,0.9,4.4,1.9,4.7,1.5C53.9,89.2,53.5,88.6,53.1,88.1z"/>
<path class="st10" d="M47.7,80.9c-0.7-0.7-1.3-2-0.9-2.3c0.4-0.4,1.9,0,2.6,1c0.6,1,0.1,1.9,0.6,2.2c0.7,0.4,1.9-1.6,3-1.2
	c0.6,0.2,1.1,1.2,0.8,1.7c-0.3,0.7-1.6,0.6-1.9,0.6s-0.7-0.1-2-0.7C48.8,81.6,48.1,81.3,47.7,80.9z"/>
</svg>
