<?xml version="1.0" encoding="utf-8"?>
<!-- Generator: Adobe Illustrator 26.0.3, SVG Export Plug-In . SVG Version: 6.00 Build 0)  -->
<svg version="1.1" id="Ebene_1" xmlns="http://www.w3.org/2000/svg" xmlns:xlink="http://www.w3.org/1999/xlink" x="0px" y="0px"
	 viewBox="0 0 100 100" style="enable-background:new 0 0 100 100;" xml:space="preserve">
<style type="text/css">
	.st0{fill:#804122;stroke:#000000;stroke-width:2;stroke-miterlimit:10;}
	.st1{fill:#FFC600;}
	.st2{fill:#FFD700;}
	.st3{fill:#E6BE00;}
</style>
<g id="Ebene_2_00000093860788734264317370000010671531211922489223_">
</g>
<g id="Ebene_1_00000017510764199299988230000010460311392665681541_">
	<polygon class="st0" points="8,25.8 50,1.6 92,25.8 92,74.3 50,98.6 8,74.3 	"/>
</g>
<g>
	<g id="Ebene_1_00000140009915772017522300000016664586206789009556_">
		<path class="st1" d="M47.3,32.4l-3.9-11L32,19.3l-7.6,8.8l3.9,11l11.4,2.1L47.3,32.4z M39.5,40.4l-10.6-2l-3.6-10.2l7-8.2l10.6,2
			l3.6,10.2L39.5,40.4z"/>
		<path class="st2" d="M32.3,20l-7,8.2l3.6,10.2l10.6,2l7-8.2L42.9,22L32.3,20z M33,33.3l-4.2-0.8l-1.4-4.1l2.8-3.3l4.2,0.8l1.4,4.1
			C35.8,30,33,33.3,33,33.3z M41.8,35.2L39,38.5l-4.2-0.8l-1.4-4.1l2.8-3.3l4.2,0.8L41.8,35.2z M40.5,30.6l-4.2-0.8l-1.4-4.1
			l2.8-3.3l4.2,0.8l1.4,4.1L40.5,30.6z"/>
	</g>
	<path class="st3" d="M34.9,21.7c-0.6-0.3-1.1-0.1-1.6-0.6c-0.1-0.1-0.2-0.2-0.3-0.3c-0.3-0.1-0.7,0.2-0.8,0.5
		c-0.1,0.4,0.1,0.7,0.2,0.8c0.4,0.5,1.1,0.6,1.8,0.6c0.4,0,1.4,0.1,1.5-0.3C35.7,22.3,35.3,21.9,34.9,21.7z"/>
	<path class="st3" d="M34.3,23.7c-0.6-0.2-0.9,0.3-1.6,0.2c-0.1,0-0.4-0.1-0.7-0.3c-0.3-0.4-0.1-0.7-0.4-0.9
		c-0.4-0.3-1.6,0.2-1.9,1.1c-0.1,0.3-0.1,0.7,0,0.8c0.2,0.1,0.6-0.6,1.1-0.5c0.4,0,0.4,0.5,1,0.8c0.6,0.3,1.2,0.2,1.6,0.1
		c0.6-0.1,1.4-0.5,1.4-0.8C34.8,23.8,34.3,23.7,34.3,23.7z"/>
	<path class="st3" d="M44.2,27.6c-0.2-0.8-0.4-1-0.5-1.7c-0.1-0.7,0-0.7-0.1-1.4c-0.2-0.9-0.7-1.8-0.8-1.8c-0.1,0-0.1,0.3-0.1,0.5
		c0.1,0.5,0.4,0.6,0.5,1.1c0.1,0.3,0,0.4,0,0.9c0,0.3,0,0.6,0.3,1.5c0.3,1,0.9,2.7,1,2.6C44.6,29.4,44.4,28.4,44.2,27.6z"/>
	<path class="st3" d="M42.9,30.7c0.1-0.2,0.5,0,0.9-0.2c0.3-0.2,0.5-0.7,0.4-0.9c-0.1-0.1-0.3,0-0.7,0c-0.5,0-0.5-0.3-0.8-0.3
		c-0.4,0-0.9,0.6-1,1.2c-0.1,0.6,0.4,0.8,0.4,1.4c0,0.5-0.4,0.8-0.3,0.9c0.1,0.2,1.4-0.6,1.4-1.3C43.1,31.1,42.8,30.9,42.9,30.7z"/>
	<path class="st3" d="M45.3,32.4c0.2-0.5,0.4-0.5,0.5-0.8c0.1-0.5-0.2-1.1-0.5-1.1c-0.2,0-0.2,0.3-0.5,0.6c-0.3,0.2-0.6,0-0.7,0.2
		c-0.2,0.2,0.3,0.6,0.2,1c-0.1,0.5-1.2,0.4-1.3,0.8c-0.1,0.3,0.4,0.9,0.9,0.9c0.6,0.1,1-0.6,1.1-0.7C45.1,33,45,32.9,45.3,32.4z"/>
	<path class="st3" d="M32.1,34c0,0-0.1-0.1-0.4-0.2c-0.8-0.3-0.9-0.3-1-0.2c-0.2,0.1-0.4,0.3-0.3,0.4c0,0.2,0.4,0.2,0.4,0.3
		c0,0.1-0.6,0.1-0.7,0.4c-0.1,0.2,0.1,0.6,0.3,0.7c0.4,0.1,0.6-0.6,1-0.6c0.3,0.1,0.3,0.8,0.5,0.8c0.2,0,0.3-0.4,0.4-0.7
		C32.3,34.7,32.4,34.3,32.1,34z"/>
	<path class="st3" d="M33.7,36.3c-0.3-0.6-0.5-1-0.6-0.9c-0.2,0,0,0.6-0.3,0.9c-0.3,0.3-0.9,0.1-1.1,0c-0.5-0.1-0.6-0.4-0.8-0.3
		c-0.3,0.1-0.4,0.6-0.3,0.9c0.1,0.3,0.5,0.4,0.5,0.4c0.5,0.1,0.7-0.2,1-0.1c0.1,0.1,0.1,0.2,0.3,0.4c0.2,0.2,0.5,0.7,0.8,0.6
		c0.4,0,0.7-0.6,0.7-1.1C34,37,34,36.9,33.7,36.3z"/>
	<path class="st3" d="M29.7,33.7c0.3-0.4,0.4-0.4,0.4-0.5C30,33,29.1,33.5,28.5,33c-0.2-0.2-0.1-0.2-0.6-1.2
		c-0.3-0.6-0.4-0.9-0.5-0.8c-0.2,0-0.1,0.8,0,1.4c0.1,0.4,0.2,0.8,0.5,1.3c0.3,0.4,0.5,0.4,0.5,0.7c0.1,0.5-0.2,0.8,0,1
		c0.1,0.1,0.4,0.1,0.6-0.1c0.2-0.1,0.1-0.3,0.3-0.7C29.3,34.4,29.4,34.1,29.7,33.7z"/>
	<path class="st3" d="M28.1,26.2c-0.4-0.2-1.2,0.4-1.1,0.7c0,0.2,0.3,0.3,0.6,0.4c0.3,0,0.7-0.2,0.8-0.6
		C28.4,26.5,28.3,26.3,28.1,26.2z"/>
	<path class="st3" d="M26.8,29.4c-0.4-0.7,0.1-1.4-0.1-1.5c-0.1-0.1-0.4,0.1-0.5,0.4c-0.1,0.2-0.1,0.4-0.1,0.5
		c0,0.3,0.2,0.4,0.3,0.7c0.2,0.6,0.1,1,0.2,1c0.1,0.1,0.5-0.2,0.5-0.5C27.1,29.7,27,29.7,26.8,29.4z"/>
	<path class="st3" d="M38.7,38.8c-0.1-0.1-0.3,0-0.7,0c-0.2,0-0.4-0.1-0.6-0.1c-0.4-0.1-0.5-0.2-0.8-0.3c-0.3-0.1-0.9-0.2-1,0
		c-0.1,0.2,0.1,0.5,0.4,0.6c0.3,0.1,0.5-0.1,0.9,0c0.3,0.1,0.3,0.2,0.8,0.4c0.2,0.1,0.8,0.3,1.1,0.1C38.8,39.3,38.8,39,38.7,38.8z"
		/>
	<path class="st3" d="M41.4,36.6c-0.2-0.1-0.6,0.2-0.6,0.5c0,0.1,0,0.3,0.1,0.4c0.2,0.1,0.6-0.1,0.7-0.4
		C41.7,36.9,41.6,36.6,41.4,36.6z"/>
	<path class="st3" d="M40.9,38.3c-0.1-0.2-0.6-0.3-0.9-0.2c0,0-0.4,0.2-0.4,0.5c0,0.3,0.3,0.5,0.6,0.5C40.5,39.1,41,38.6,40.9,38.3z
		"/>
	<path class="st3" d="M43.7,34.5c-0.1-0.1-0.6,0.6-1,0.4c-0.2-0.1-0.2-0.7-0.3-0.7c-0.1,0-0.2,0.2-0.3,0.5c0,0.4,0.2,0.5,0.3,1
		c0,0.3,0,0.4,0,0.4c0.1,0,0.3-0.4,0.8-1.1C43.6,34.8,43.8,34.5,43.7,34.5z"/>
	<path class="st3" d="M39.6,21.8c-0.4-0.2-0.6,0-1.3-0.1c-0.6-0.1-0.7-0.3-1-0.2c-0.2,0.1-0.4,0.3-0.7,0.7c-0.3,0.3-0.7,0.9-0.6,1
		c0.1,0.1,0.7-0.1,1.2-0.6c0.4-0.3,0.4-0.5,0.6-0.6c0.4-0.1,0.7,0.4,1.4,0.5c0.3,0,0.8,0,0.8-0.2C40,22.1,39.8,21.9,39.6,21.8z"/>
	<path class="st3" d="M41.3,22c0,0-0.5-0.1-0.7,0.1c0,0.1,0,0.2,0,0.3c0.1,0.1,0.2,0.1,0.6,0.1c0.7,0,0.7,0,0.7-0.1
		C42,22.3,41.7,22.1,41.3,22z"/>
	<path class="st3" d="M30.3,37.2c-0.3-0.5,0-1.1-0.2-1.2c-0.2-0.2-0.8,0.1-1,0.5c-0.1,0.2-0.1,0.4,0,0.8c0.1,0.4,0.1,0.7,0.3,0.9
		c0.6,0.5,1.8,0,1.8-0.3C31.2,37.6,30.6,37.7,30.3,37.2z"/>
	<path class="st3" d="M34.9,38.2c-0.1-0.1-0.3,0.3-0.8,0.3c-0.2,0-0.3,0-0.8-0.1c-0.4,0-0.6,0-0.6,0c-0.1,0.1,1,0.9,1.7,0.5
		C34.8,38.8,35,38.3,34.9,38.2z"/>
	<polygon class="st1" points="40.4,30.1 42.9,27.2 41.6,23.6 37.8,22.9 35.3,25.8 36.6,29.4 	"/>
	<polygon class="st1" points="32.8,32.9 35.3,29.9 34,26.3 30.3,25.6 27.8,28.5 29,32.1 	"/>
	<polygon class="st1" points="38.8,38 41.3,35.1 40.1,31.5 36.3,30.7 33.8,33.7 35.1,37.3 	"/>
	<path class="st2" d="M35.7,26.6c0.2-0.3,0.8,0.2,1.3-0.1c0.2-0.2,0.1-0.3,0.5-0.7c0.4-0.5,0.8-0.5,0.9-0.8c0-0.3-0.2-0.4-0.1-0.7
		c0.1-0.3,0.3-0.3,0.4-0.5c0.1-0.3-0.5-0.6-0.4-0.7c0-0.1,0.3-0.1,1.1,0.1c1.2,0.3,1.3,0.4,1.3,0.5c0,0.3-1,0.4-1,1.1
		c0,0.1,0,0.1,0,0.3c-0.1,0.7-1,0.9-0.9,1.2c0,0.3,0.7,0.4,2,1c0.9,0.4,1.1,0.6,1.1,0.8c0,0.1-0.1,0.2-0.6,0.8
		c-0.4,0.5-0.4,0.6-0.5,0.6c-0.4,0-0.3-1.2-1.2-1.8c-0.4-0.2-0.8-0.4-0.9-0.2c-0.1,0.1,0.2,0.4,0.1,0.8c-0.1,0.3-0.4,0.3-0.4,0.6
		c-0.1,0.4,0.9,0.9,0.8,1c0,0.1-0.4-0.1-1-0.2c-0.5-0.1-0.8,0-0.9-0.2c-0.1-0.1,0-0.3,0.1-0.5c0.4-1,0.7-1.2,0.5-1.4
		c-0.1-0.2-0.6-0.2-0.9,0.1c-0.2,0.2-0.3,0.4-0.3,0.4c-0.1,0.2-0.2,0.2-0.2,0.2c-0.1,0-0.2-0.2-0.4-0.9
		C35.7,26.7,35.6,26.7,35.7,26.6z"/>
	<path class="st2" d="M32.3,28.1c-0.5,0.2-0.8,0.9-0.7,1.2c0.2,0.4,1.1,0,1.5,0.5c0.3,0.3,0.1,0.7,0.4,0.9c0.4,0.2,1-0.2,1-0.1
		c0.1,0.1-0.3,0.4-0.9,1.2c-0.3,0.4-0.5,0.6-0.6,0.6c-0.1-0.1,0-0.5-0.2-0.9c-0.2-0.2-0.3-0.3-0.9-0.4c-0.4-0.2-1-0.4-1.5-0.7
		c-0.3-0.2-0.9-0.6-0.8-1.1c0-0.2,0.2-0.2,0.4-0.5c0.4-0.6,0.2-1,0.5-1.3c0.2-0.2,0.4-0.2,1.3-0.3c1.6-0.1,2-0.3,2.3,0
		c0.2,0.1,0.2,0.3,0.4,0.7c0.1,0.3,0.5,1.1,0.3,1.3C34.5,29.4,33.3,27.8,32.3,28.1z"/>
	<path class="st2" d="M37,31.1c-0.2,0.1-0.2,0.5-0.1,0.7s0.3,0.2,0.3,0.5c0,0.2-0.1,0.2-0.2,0.5c-0.1,0.3,0,0.4-0.1,0.4
		c-0.1,0.1-0.7-0.2-1-0.6c-0.3-0.4-0.2-0.8-0.3-0.8c-0.1,0-0.2,0.2-0.5,0.6c-0.3,0.3-0.4,0.4-0.5,0.6c-0.1,0.2-0.1,0.5,0,0.7
		c0.2,0.2,0.5-0.2,0.9-0.1c0.3,0.1,0.6,0.4,0.7,0.7c0.1,0.3,0,0.8-0.2,1c-0.5,0.2-1.3-0.8-1.6-0.7c-0.1,0.1,0,0.5,0.3,1.4
		c0.3,1,0.5,1.1,0.5,1.2c0.1,0.1,0.2,0.1,1.2,0.4c0.9,0.2,1.2,0.3,1.4,0.1c0.1-0.1,0.2-0.2,0.2-0.4c0-0.3-0.5-0.3-0.5-0.6
		c0-0.2,0.4-0.3,0.5-0.7c0-0.1,0.1-0.3,0-0.6c-0.1-0.3-0.5-0.4-0.5-0.5c0-0.1,0.4-0.2,0.7,0c0.8,0.3,0.7,1.7,1.3,1.9
		c0.4,0.1,0.8-0.5,0.9-0.6c0.2-0.2,0.4-0.5,0.3-0.8c-0.1-0.5-1-0.5-1-0.8s1-0.1,1.2-0.6c0.1-0.1,0-0.4-0.2-0.9
		c-0.3-0.7-0.3-0.7-0.4-0.7c-0.2,0-0.2,0.5-0.4,0.5c-0.2,0-0.3-0.2-0.5-0.1c-0.2,0-0.2,0.2-0.3,0.4c-0.3,0.3-0.9,0.3-1,0.1
		c-0.2-0.3,0.2-1.2,0.8-1.4c0.1-0.1,0.4-0.1,0.5-0.3c0.1-0.1-0.1-0.3-0.1-0.3c-0.2-0.2-0.5-0.1-1.1-0.2C37.4,31.1,37.2,30.9,37,31.1
		z"/>
</g>
<g>
	<g id="Ebene_1_00000025433894077510129090000001127977392566699146_">
		<path class="st1" d="M70.2,40.9l3.4-11.1l-7.9-8.5l-11.4,2.6l-3.5,11.1l7.9,8.5L70.2,40.9z M59.2,42.6l-7.3-7.9L55,24.4L65.5,22
			l7.3,7.9l-3.2,10.3L59.2,42.6z"/>
		<path class="st2" d="M65.5,22L55,24.4l-3.2,10.3l7.3,7.9l10.5-2.4l3.2-10.3L65.5,22z M58.2,33.1l-2.9-3.2l1.3-4.1l4.2-1l2.9,3.2
			l-1.3,4.1C62.4,32.1,58.2,33.1,58.2,33.1z M64.1,39.8l-4.2,1L57,37.6l1.3-4.1l4.2-1l2.9,3.2L64.1,39.8z M65.8,35.4l-2.9-3.2
			l1.3-4.1l4.2-1l2.9,3.2l-1.3,4.1L65.8,35.4z"/>
	</g>
	<path class="st3" d="M66.6,24.9c-0.3-0.6-0.8-0.8-0.9-1.4c0-0.2,0-0.3-0.1-0.4c-0.2-0.2-0.7-0.3-1-0.1c-0.3,0.2-0.4,0.6-0.4,0.8
		c0,0.7,0.6,1.1,1,1.6c0.3,0.3,1.1,0.9,1.4,0.7C66.9,25.8,66.8,25.3,66.6,24.9z"/>
	<path class="st3" d="M65,26.1c-0.4-0.5-1-0.3-1.4-0.8c-0.1-0.1-0.3-0.3-0.3-0.7c0-0.5,0.3-0.7,0.3-0.9c-0.1-0.5-1.4-0.8-2.2-0.3
		c-0.3,0.2-0.6,0.5-0.5,0.6c0.1,0.2,0.8-0.1,1.2,0.2c0.3,0.3,0.1,0.6,0.3,1.2c0.3,0.6,0.9,0.9,1.2,1c0.6,0.2,1.5,0.5,1.6,0.2
		C65.3,26.5,65,26.1,65,26.1z"/>
	<path class="st3" d="M70.6,35.2c0.3-0.8,0.3-1,0.6-1.6c0.3-0.6,0.5-0.6,0.7-1.1c0.4-0.9,0.5-1.8,0.4-1.9c-0.1,0-0.3,0.2-0.4,0.4
		c-0.2,0.4-0.1,0.7-0.3,1.1c-0.1,0.3-0.2,0.3-0.5,0.7c-0.2,0.2-0.3,0.5-0.7,1.4c-0.4,0.9-0.9,2.6-0.8,2.7
		C69.8,36.9,70.3,35.9,70.6,35.2z"/>
	<path class="st3" d="M67.7,36.9c0.2-0.1,0.4,0.3,0.8,0.3c0.4,0,0.8-0.3,0.8-0.5c0-0.1-0.2-0.1-0.5-0.4c-0.3-0.3-0.3-0.5-0.5-0.7
		c-0.4-0.3-1.1-0.1-1.5,0.3c-0.4,0.4-0.1,0.9-0.6,1.4c-0.4,0.4-0.7,0.4-0.7,0.5c0,0.2,1.5,0.4,1.9-0.2
		C67.6,37.3,67.5,36.9,67.7,36.9z"/>
	<path class="st3" d="M68.5,39.6c0.5-0.2,0.6-0.1,0.8-0.3c0.4-0.3,0.4-1,0.3-1.1c-0.1-0.1-0.3,0.2-0.7,0.1c-0.4,0-0.5-0.3-0.7-0.3
		c-0.3,0.1-0.1,0.7-0.5,0.9c-0.4,0.3-1.2-0.4-1.5-0.1c-0.3,0.2-0.2,0.9,0.2,1.3c0.5,0.4,1.2,0.1,1.3,0.1
		C68.1,40,68.1,39.9,68.5,39.6z"/>
	<path class="st3" d="M57,33.1c0,0,0-0.1-0.2-0.4c-0.4-0.7-0.5-0.8-0.6-0.8c-0.2-0.1-0.5,0-0.5,0.1c-0.1,0.2,0.2,0.4,0.2,0.5
		c-0.1,0.1-0.5-0.2-0.8-0.1c-0.2,0.1-0.3,0.5-0.2,0.7c0.2,0.3,0.9-0.1,1.1,0.1c0.2,0.2-0.3,0.8-0.1,1c0.1,0.1,0.5-0.2,0.7-0.4
		C56.8,33.8,57.1,33.5,57,33.1z"/>
	<path class="st3" d="M56.9,35.9c0.1-0.7,0.2-1.1,0.1-1.1c-0.1-0.1-0.3,0.5-0.7,0.5c-0.4,0-0.8-0.5-0.9-0.6
		c-0.3-0.4-0.3-0.7-0.5-0.8c-0.3-0.1-0.7,0.2-0.8,0.6c-0.1,0.3,0.2,0.6,0.2,0.6c0.3,0.4,0.7,0.2,0.9,0.5c0.1,0.1,0,0.2,0,0.5
		c0,0.3,0,0.8,0.3,1c0.3,0.2,0.9-0.1,1.2-0.4C56.8,36.6,56.8,36.5,56.9,35.9z"/>
	<path class="st3" d="M55.3,31.4c0.4-0.1,0.6-0.1,0.7-0.2c0.1-0.2-1-0.4-1.2-1.2c-0.1-0.2,0-0.3,0.2-1.3c0.1-0.6,0.2-0.9,0.1-1
		c-0.1-0.1-0.5,0.5-0.8,1.1c-0.1,0.3-0.3,0.8-0.4,1.4c0,0.5,0.1,0.6,0,0.9c-0.2,0.4-0.6,0.5-0.6,0.7c0,0.2,0.3,0.3,0.5,0.3
		c0.2,0,0.3-0.1,0.6-0.4C54.5,31.7,54.8,31.5,55.3,31.4z"/>
	<path class="st3" d="M58.5,24.4c-0.2-0.4-1.2-0.4-1.3-0.1c-0.1,0.2,0.1,0.5,0.2,0.6c0.2,0.2,0.7,0.3,1,0
		C58.6,24.8,58.6,24.6,58.5,24.4z"/>
	<path class="st3" d="M55.6,26.2c0.1-0.7,0.9-1.1,0.8-1.3c-0.1-0.1-0.4-0.1-0.6,0c-0.2,0.1-0.3,0.2-0.4,0.3
		c-0.2,0.3-0.1,0.4-0.2,0.8c-0.2,0.6-0.5,0.8-0.5,0.9c0.1,0.1,0.5,0.1,0.7-0.2C55.6,26.7,55.5,26.5,55.6,26.2z"/>
	<path class="st3" d="M59.4,40.9c0-0.2-0.2-0.2-0.5-0.4c-0.2-0.1-0.3-0.3-0.4-0.4c-0.3-0.4-0.3-0.5-0.5-0.8
		c-0.2-0.3-0.6-0.7-0.8-0.6C57,38.7,57,39,57.1,39.3c0.1,0.3,0.4,0.2,0.7,0.5c0.2,0.3,0.1,0.4,0.4,0.8c0.1,0.2,0.4,0.7,0.8,0.7
		C59.3,41.3,59.5,41.1,59.4,40.9z"/>
	<path class="st3" d="M63,40.7c-0.1-0.2-0.6-0.2-0.8,0c-0.1,0.1-0.2,0.2-0.2,0.4c0.1,0.2,0.6,0.3,0.8,0.1C63,41.1,63.1,40.9,63,40.7
		z"/>
	<path class="st3" d="M61.5,41.8c0.1-0.2-0.2-0.6-0.6-0.7c0,0-0.4-0.1-0.6,0.1c-0.2,0.2-0.1,0.6,0.1,0.7
		C60.7,42.2,61.4,42,61.5,41.8z"/>
	<path class="st3" d="M66.1,40.4c0-0.1-0.8,0.1-1-0.2c-0.1-0.2,0.2-0.6,0.2-0.7c-0.1-0.1-0.3,0.1-0.5,0.3c-0.3,0.3-0.1,0.5-0.4,1
		C64.1,40.9,64,41,64,41c0,0.1,0.5-0.1,1.3-0.4C65.7,40.5,66.1,40.5,66.1,40.4z"/>
	<path class="st3" d="M70.4,27.7c-0.2-0.4-0.5-0.4-0.9-0.9c-0.4-0.4-0.4-0.6-0.6-0.7c-0.2-0.1-0.5,0-1,0.1c-0.4,0.1-1.1,0.3-1.1,0.4
		s0.7,0.3,1.3,0.3c0.5,0,0.6-0.2,0.8-0.1c0.4,0.2,0.3,0.7,0.8,1.2c0.2,0.2,0.6,0.5,0.8,0.3C70.5,28.3,70.5,27.9,70.4,27.7z"/>
	<path class="st3" d="M71.6,28.9c0,0-0.4-0.4-0.6-0.3c-0.1,0-0.2,0.2-0.2,0.3c0,0.1,0.1,0.2,0.4,0.4c0.5,0.4,0.6,0.4,0.6,0.4
		C71.9,29.6,71.8,29.2,71.6,28.9z"/>
	<path class="st3" d="M53.7,34.6c0-0.6,0.6-0.8,0.6-1.1c-0.1-0.3-0.7-0.4-1.1-0.2c-0.2,0.1-0.3,0.3-0.5,0.6
		c-0.2,0.4-0.3,0.6-0.3,0.9c0.1,0.7,1.5,1.1,1.6,0.9C54.2,35.4,53.6,35.1,53.7,34.6z"/>
	<path class="st3" d="M56.8,38.1c0-0.1-0.4,0-0.9-0.2c-0.2-0.1-0.2-0.2-0.6-0.5C55,37.1,54.8,37,54.8,37c-0.1,0.1,0.3,1.3,1.1,1.4
		C56.3,38.5,56.8,38.2,56.8,38.1z"/>
	<polygon class="st1" points="66,34.9 69.7,34 70.9,30.4 68.3,27.5 64.5,28.4 63.4,32.1 	"/>
	<polygon class="st1" points="58.3,32.6 62,31.7 63.2,28.1 60.6,25.2 56.8,26.1 55.7,29.8 	"/>
	<polygon class="st1" points="60.1,40.3 63.8,39.4 64.9,35.8 62.3,32.9 58.6,33.8 57.4,37.5 	"/>
	<path class="st2" d="M64.3,29.2c0.3-0.1,0.5,0.6,1.1,0.7c0.3,0,0.3-0.2,0.8-0.3c0.7-0.1,1,0.1,1.2-0.2c0.2-0.2,0.1-0.4,0.3-0.6
		c0.2-0.2,0.4,0,0.6-0.2c0.2-0.2,0-0.7,0.1-0.8c0.1,0,0.3,0.1,0.8,0.8c0.8,1,0.8,1.1,0.8,1.2c-0.1,0.3-1-0.2-1.5,0.3
		c-0.1,0.1,0,0.1-0.2,0.2c-0.4,0.5-1.3,0.1-1.5,0.4c-0.2,0.3,0.3,0.7,1,2.1c0.4,0.9,0.5,1.1,0.4,1.3c-0.1,0.1-0.2,0.1-1,0.3
		c-0.6,0.2-0.7,0.2-0.7,0.1c-0.3-0.2,0.4-1.1,0.1-2.1c-0.1-0.4-0.4-0.8-0.6-0.7c-0.2,0-0.1,0.4-0.4,0.7c-0.3,0.2-0.5,0-0.7,0.2
		c-0.3,0.3,0.2,1.3,0.1,1.3c-0.1,0-0.2-0.3-0.7-0.8c-0.4-0.4-0.7-0.5-0.6-0.7c0-0.1,0.1-0.2,0.3-0.3c0.9-0.6,1.3-0.6,1.3-0.8
		c0-0.2-0.4-0.5-0.8-0.5c-0.2,0-0.4,0.1-0.5,0.2c-0.2,0.1-0.3,0.1-0.3,0c-0.1-0.1,0-0.3,0.2-0.9C64.2,29.4,64.2,29.3,64.3,29.2z"/>
	<path class="st2" d="M60.7,28.5c-0.5-0.2-1.2,0.2-1.3,0.5c-0.1,0.4,0.9,0.6,0.9,1.3c0,0.4-0.3,0.6-0.2,0.9c0.2,0.4,0.9,0.4,0.9,0.6
		c0,0.1-0.5,0.1-1.5,0.4c-0.5,0.1-0.7,0.2-0.8,0.1c-0.1-0.1,0.4-0.4,0.4-0.9c0-0.3-0.1-0.4-0.4-0.9c-0.2-0.4-0.6-0.9-0.8-1.5
		c-0.1-0.3-0.3-1,0-1.4c0.1-0.2,0.3-0.1,0.6-0.2c0.7-0.2,0.7-0.7,1.1-0.7c0.3-0.1,0.4,0.1,1.2,0.6c1.4,0.8,1.8,0.9,1.9,1.4
		c0,0.2,0,0.4-0.1,0.8c-0.1,0.3-0.3,1.2-0.6,1.2C61.7,30.8,61.7,28.8,60.7,28.5z"/>
	<path class="st2" d="M62.7,33.6c-0.2,0-0.4,0.3-0.5,0.5s0.1,0.4,0,0.6c-0.1,0.1-0.2,0.1-0.5,0.3c-0.2,0.2-0.2,0.3-0.3,0.3
		c-0.2,0-0.4-0.5-0.4-1.1c0-0.5,0.3-0.8,0.2-0.9c-0.1-0.1-0.3,0.1-0.7,0.2c-0.4,0.1-0.6,0-0.8,0.2c-0.2,0.1-0.4,0.3-0.4,0.6
		c0.1,0.3,0.5,0.1,0.8,0.5c0.2,0.3,0.2,0.7,0.1,1c-0.1,0.3-0.5,0.7-0.8,0.6c-0.5-0.1-0.6-1.5-0.9-1.5c-0.2,0-0.3,0.4-0.6,1.2
		c-0.3,1-0.3,1.2-0.3,1.3c0,0.2,0.1,0.2,0.7,1c0.6,0.7,0.8,1,1,0.9c0.1,0,0.3-0.1,0.3-0.2c0.1-0.3-0.2-0.6-0.1-0.8
		c0.1-0.2,0.4,0,0.8-0.2c0,0,0.3-0.2,0.4-0.5c0.1-0.3-0.2-0.6-0.1-0.7c0.1-0.1,0.4,0.1,0.6,0.4c0.5,0.8-0.5,1.8-0.1,2.2
		c0.3,0.3,0.9,0.1,1.1,0.1c0.3-0.1,0.6-0.2,0.7-0.4c0.2-0.5-0.5-1.1-0.4-1.2c0.1-0.2,0.9,0.5,1.3,0.3c0.1-0.1,0.2-0.3,0.4-0.9
		c0.2-0.7,0.1-0.8,0.1-0.8c-0.1-0.1-0.4,0.3-0.7,0.2c-0.2-0.1-0.1-0.3-0.3-0.4c-0.1-0.1-0.3,0.1-0.5,0.1c-0.4,0.1-0.9-0.3-0.9-0.5
		c0-0.3,0.9-0.9,1.5-0.7c0.2,0,0.4,0.2,0.5,0.1c0.1-0.1,0.1-0.3,0.1-0.3c0-0.3-0.3-0.4-0.8-0.8C63,33.9,62.9,33.6,62.7,33.6z"/>
</g>
<g>
	<g id="Ebene_1_00000124150183354955332360000007290980165542913719_">
		<path class="st1" d="M60.5,56.2L63.7,45l-8-8.4l-11.3,2.8l-3.3,11.2l8,8.4L60.5,56.2z M49.5,58.2L42,50.4l3-10.4l10.5-2.6l7.5,7.8
			l-3,10.4L49.5,58.2z"/>
		<path class="st2" d="M55.5,37.4L45.1,40l-3,10.4l7.5,7.8L60,55.6l3-10.4L55.5,37.4z M48.4,48.6l-3-3.1l1.2-4.2l4.2-1l3,3.1
			l-1.2,4.2C52.5,47.6,48.4,48.6,48.4,48.6z M54.4,55.2l-4.2,1l-3-3.1l1.2-4.2l4.2-1l3,3.1L54.4,55.2z M56,50.8l-3-3.1l1.2-4.2
			l4.2-1l3,3.1l-1.2,4.2L56,50.8z"/>
	</g>
	<path class="st3" d="M56.7,40.3c-0.3-0.6-0.9-0.8-1-1.4c0-0.2,0-0.3-0.1-0.4c-0.2-0.2-0.7-0.3-1-0.1c-0.3,0.2-0.4,0.7-0.4,0.8
		c0,0.7,0.6,1.1,1.1,1.5c0.3,0.2,1.1,0.9,1.4,0.7C56.9,41.2,56.8,40.7,56.7,40.3z"/>
	<path class="st3" d="M55,41.6c-0.4-0.5-1-0.3-1.4-0.8c-0.1-0.1-0.3-0.3-0.3-0.7c0-0.5,0.3-0.7,0.2-0.9c-0.1-0.5-1.4-0.8-2.2-0.2
		c-0.3,0.2-0.5,0.5-0.5,0.7c0.1,0.2,0.8-0.1,1.2,0.2c0.3,0.3,0.1,0.6,0.4,1.2c0.3,0.6,0.9,0.8,1.3,1c0.6,0.2,1.5,0.4,1.6,0.1
		C55.4,42,55.1,41.6,55,41.6z"/>
	<path class="st3" d="M60.8,50.5c0.3-0.8,0.3-1,0.6-1.7c0.3-0.6,0.4-0.6,0.7-1.2c0.4-0.9,0.5-1.9,0.3-1.9c-0.1,0-0.3,0.2-0.4,0.4
		c-0.2,0.4-0.1,0.7-0.2,1.1c-0.1,0.3-0.2,0.4-0.5,0.7c-0.2,0.2-0.3,0.5-0.6,1.4c-0.3,0.9-0.9,2.7-0.7,2.7
		C60,52.2,60.5,51.3,60.8,50.5z"/>
	<path class="st3" d="M57.9,52.2c0.2-0.1,0.4,0.3,0.8,0.3c0.4,0,0.8-0.3,0.8-0.5c0-0.1-0.2-0.1-0.5-0.4c-0.3-0.3-0.3-0.5-0.5-0.7
		c-0.4-0.3-1.1-0.1-1.5,0.4c-0.4,0.4-0.1,0.9-0.6,1.4c-0.3,0.4-0.7,0.4-0.7,0.5c0,0.2,1.5,0.4,1.9-0.2
		C57.8,52.7,57.7,52.3,57.9,52.2z"/>
	<path class="st3" d="M58.8,55c0.5-0.2,0.6-0.1,0.8-0.4c0.4-0.3,0.4-1,0.2-1.1c-0.1-0.1-0.3,0.2-0.7,0.2c-0.4,0-0.5-0.3-0.7-0.3
		c-0.3,0.1-0.1,0.7-0.4,0.9c-0.4,0.3-1.2-0.4-1.5-0.1c-0.3,0.2-0.2,0.9,0.2,1.3c0.5,0.4,1.2,0.1,1.3,0.1
		C58.4,55.4,58.4,55.2,58.8,55z"/>
	<path class="st3" d="M47.2,48.7c0,0,0-0.1-0.2-0.4c-0.4-0.7-0.6-0.8-0.6-0.8c-0.2-0.1-0.5,0-0.5,0.1c-0.1,0.2,0.2,0.4,0.2,0.5
		c-0.1,0.1-0.5-0.2-0.8,0c-0.2,0.1-0.3,0.5-0.1,0.7c0.2,0.3,0.9-0.1,1.1,0.1c0.2,0.2-0.3,0.9-0.1,1c0.1,0.1,0.5-0.2,0.7-0.4
		C47,49.4,47.3,49,47.2,48.7z"/>
	<path class="st3" d="M47.2,51.5c0.1-0.7,0.2-1.1,0.1-1.1c-0.1-0.1-0.3,0.5-0.7,0.5c-0.4,0.1-0.8-0.5-0.9-0.6
		c-0.3-0.4-0.3-0.7-0.5-0.8c-0.3-0.1-0.7,0.2-0.8,0.6c0,0.3,0.2,0.6,0.2,0.6c0.3,0.3,0.7,0.2,0.9,0.5c0.1,0.1,0,0.2,0,0.5
		c0,0.3,0,0.8,0.3,1c0.3,0.2,0.9-0.1,1.2-0.5C47,52.2,47.1,52.1,47.2,51.5z"/>
	<path class="st3" d="M45.4,47c0.4-0.2,0.6-0.1,0.6-0.2c0.1-0.2-1-0.4-1.2-1.1c-0.1-0.2,0-0.3,0.2-1.3c0.1-0.6,0.2-0.9,0.1-1
		c-0.1-0.1-0.5,0.6-0.8,1.1c-0.1,0.3-0.3,0.8-0.3,1.4c0,0.5,0.1,0.6,0,0.9c-0.2,0.4-0.6,0.5-0.6,0.8c0,0.2,0.3,0.3,0.5,0.3
		c0.2,0,0.3-0.1,0.6-0.4C44.7,47.4,45,47.2,45.4,47z"/>
	<path class="st3" d="M48.6,39.9c-0.2-0.4-1.2-0.4-1.3,0c-0.1,0.2,0.1,0.5,0.3,0.6c0.2,0.2,0.7,0.3,1,0
		C48.6,40.4,48.6,40.1,48.6,39.9z"/>
	<path class="st3" d="M45.6,41.8c0.1-0.7,0.9-1.1,0.8-1.3c-0.1-0.1-0.4-0.1-0.6,0c-0.2,0.1-0.3,0.2-0.4,0.3
		c-0.2,0.3-0.1,0.4-0.2,0.8c-0.1,0.6-0.5,0.8-0.4,0.9c0.1,0.1,0.5,0.1,0.7-0.2C45.7,42.3,45.6,42.1,45.6,41.8z"/>
	<path class="st3" d="M49.7,56.4c0-0.2-0.2-0.2-0.5-0.4c-0.2-0.1-0.3-0.3-0.4-0.4c-0.3-0.4-0.3-0.5-0.5-0.8
		c-0.2-0.3-0.6-0.7-0.8-0.6c-0.2,0.1-0.2,0.4-0.1,0.7c0.1,0.3,0.4,0.2,0.7,0.5c0.2,0.3,0.1,0.4,0.4,0.8c0.1,0.2,0.5,0.7,0.8,0.7
		C49.6,56.9,49.8,56.6,49.7,56.4z"/>
	<path class="st3" d="M53.3,56.2c-0.1-0.2-0.6-0.2-0.8,0.1c-0.1,0.1-0.2,0.2-0.1,0.4c0.1,0.2,0.6,0.3,0.8,0.1
		C53.3,56.6,53.4,56.3,53.3,56.2z"/>
	<path class="st3" d="M51.8,57.2c0.1-0.2-0.2-0.6-0.6-0.7c0,0-0.4-0.1-0.6,0.2c-0.2,0.2-0.1,0.6,0.2,0.7
		C51.1,57.7,51.7,57.5,51.8,57.2z"/>
	<path class="st3" d="M56.4,55.8c0-0.1-0.8,0.1-1-0.2c-0.1-0.2,0.2-0.7,0.1-0.7c-0.1-0.1-0.3,0.1-0.5,0.3c-0.2,0.3-0.1,0.5-0.4,1
		c-0.1,0.2-0.3,0.3-0.2,0.4c0,0.1,0.5-0.1,1.3-0.4C56.1,56,56.4,55.9,56.4,55.8z"/>
	<path class="st3" d="M60.5,43.1c-0.2-0.4-0.5-0.4-1-0.9c-0.4-0.4-0.4-0.6-0.6-0.7c-0.2-0.1-0.5,0-1,0.1c-0.4,0.1-1.1,0.3-1.1,0.4
		s0.7,0.3,1.3,0.2c0.5,0,0.6-0.2,0.8-0.1c0.4,0.1,0.3,0.7,0.8,1.2c0.2,0.2,0.6,0.4,0.8,0.3C60.6,43.6,60.6,43.3,60.5,43.1z"/>
	<path class="st3" d="M61.7,44.3c0,0-0.4-0.4-0.6-0.3c-0.1,0-0.2,0.2-0.2,0.3c0,0.1,0.1,0.2,0.4,0.4C61.9,45,61.9,45,62,45
		C62.1,45,62,44.5,61.7,44.3z"/>
	<path class="st3" d="M43.9,50.2c0-0.6,0.6-0.8,0.5-1.1c-0.1-0.3-0.7-0.4-1.1-0.2c-0.2,0.1-0.3,0.3-0.5,0.6
		c-0.2,0.4-0.3,0.6-0.2,0.9c0.2,0.7,1.5,1.1,1.6,0.8C44.4,51.1,43.9,50.8,43.9,50.2z"/>
	<path class="st3" d="M47,53.7c0-0.1-0.4,0-0.9-0.2c-0.2-0.1-0.2-0.2-0.6-0.5c-0.3-0.2-0.5-0.4-0.5-0.3c-0.1,0.1,0.3,1.3,1.1,1.4
		C46.6,54.1,47.1,53.8,47,53.7z"/>
	<polygon class="st1" points="56.2,50.3 59.9,49.4 61,45.7 58.4,42.9 54.6,43.8 53.5,47.5 	"/>
	<polygon class="st1" points="48.5,48.1 52.2,47.2 53.3,43.5 50.6,40.8 46.9,41.7 45.8,45.3 	"/>
	<polygon class="st1" points="50.4,55.8 54.1,54.9 55.2,51.2 52.5,48.4 48.8,49.3 47.7,53 	"/>
	<path class="st2" d="M54.4,44.7c0.3-0.1,0.5,0.6,1.1,0.7c0.3,0,0.3-0.2,0.8-0.3c0.7-0.2,1,0.1,1.2-0.2c0.2-0.2,0.1-0.4,0.3-0.6
		s0.4,0,0.6-0.2c0.2-0.2,0-0.7,0.1-0.8c0.1,0,0.3,0.1,0.8,0.7c0.8,1,0.8,1.1,0.8,1.1c-0.1,0.3-1-0.2-1.5,0.3c-0.1,0.1,0,0.1-0.1,0.2
		c-0.4,0.5-1.3,0.1-1.5,0.4c-0.2,0.3,0.3,0.7,1,2c0.5,0.9,0.5,1.1,0.4,1.3c-0.1,0.1-0.2,0.1-1,0.3c-0.6,0.2-0.7,0.2-0.7,0.2
		c-0.3-0.2,0.4-1.1,0.1-2.1c-0.1-0.4-0.4-0.8-0.6-0.7c-0.2,0-0.1,0.4-0.4,0.7c-0.3,0.2-0.5,0-0.7,0.2c-0.3,0.3,0.2,1.3,0.1,1.3
		c-0.1,0-0.2-0.3-0.7-0.8c-0.4-0.4-0.7-0.5-0.6-0.7c0-0.1,0.1-0.2,0.3-0.4c0.8-0.6,1.3-0.6,1.3-0.8c0-0.3-0.4-0.5-0.8-0.5
		c-0.2,0-0.4,0.2-0.5,0.2c-0.2,0.1-0.3,0.1-0.3,0.1c-0.1-0.1,0-0.3,0.2-0.9C54.3,44.8,54.4,44.7,54.4,44.7z"/>
	<path class="st2" d="M50.8,44c-0.5-0.1-1.2,0.2-1.2,0.6c0,0.4,0.9,0.6,0.9,1.3c0,0.4-0.3,0.6-0.2,0.9c0.2,0.4,0.9,0.4,0.9,0.6
		c0,0.1-0.5,0.1-1.5,0.4c-0.5,0.1-0.7,0.2-0.8,0.1c-0.1-0.1,0.3-0.4,0.4-0.9c0-0.3-0.1-0.4-0.4-0.9c-0.2-0.4-0.6-0.9-0.8-1.5
		c-0.1-0.3-0.3-1,0-1.4c0.1-0.2,0.3-0.1,0.6-0.2c0.7-0.3,0.7-0.7,1.1-0.7c0.3-0.1,0.4,0.1,1.2,0.5c1.4,0.8,1.8,0.9,1.9,1.4
		c0.1,0.2,0,0.4-0.1,0.8c-0.1,0.3-0.3,1.2-0.5,1.2C51.9,46.3,51.8,44.3,50.8,44z"/>
	<path class="st2" d="M52.9,49.1c-0.2,0-0.4,0.3-0.5,0.5c-0.1,0.3,0.1,0.4,0,0.6c-0.1,0.1-0.2,0.1-0.5,0.3c-0.2,0.2-0.2,0.3-0.3,0.3
		c-0.2,0-0.5-0.5-0.4-1.1c0-0.5,0.3-0.8,0.2-0.9c-0.1-0.1-0.3,0.1-0.7,0.2c-0.4,0.1-0.6,0-0.8,0.2c-0.2,0.1-0.4,0.4-0.4,0.6
		c0.1,0.3,0.5,0.1,0.8,0.5c0.2,0.3,0.2,0.7,0.1,1C50.3,51.6,50,52,49.7,52c-0.5-0.1-0.6-1.5-0.9-1.5c-0.2,0-0.3,0.4-0.6,1.3
		c-0.3,1-0.3,1.2-0.3,1.3c0,0.2,0.1,0.2,0.8,1c0.6,0.7,0.8,0.9,1.1,0.9c0.1,0,0.3-0.1,0.3-0.2c0.1-0.3-0.2-0.6-0.1-0.8
		c0.1-0.2,0.4,0,0.8-0.2c0,0,0.3-0.2,0.4-0.5c0.1-0.3-0.2-0.6-0.1-0.7s0.4,0.1,0.6,0.4c0.5,0.7-0.5,1.8-0.1,2.2
		c0.3,0.3,0.9,0.1,1.1,0.1c0.3-0.1,0.6-0.2,0.7-0.4c0.2-0.5-0.5-1.1-0.4-1.2s0.9,0.5,1.3,0.3c0.1-0.1,0.2-0.3,0.3-0.9
		c0.2-0.7,0.1-0.8,0.1-0.8c-0.1-0.1-0.4,0.3-0.7,0.2c-0.2-0.1-0.1-0.3-0.3-0.4c-0.1-0.1-0.3,0.1-0.5,0.1c-0.4,0.1-0.9-0.2-0.9-0.5
		c0-0.3,0.8-0.9,1.5-0.7c0.2,0,0.4,0.2,0.5,0c0.1-0.1,0.1-0.3,0.1-0.3c0-0.3-0.3-0.4-0.8-0.8C53.2,49.4,53.1,49.1,52.9,49.1z"/>
</g>
<g>
	<g id="Ebene_1_00000071552398786751020300000000458245266059488652_">
		<path class="st1" d="M77.5,46.1l-3.9-11L62.2,33l-7.6,8.8l3.9,11l11.4,2.1L77.5,46.1z M69.7,54.1l-10.6-2l-3.6-10.2l7-8.2l10.6,2
			l3.6,10.2L69.7,54.1z"/>
		<path class="st2" d="M62.5,33.7l-7,8.2l3.6,10.2l10.6,2l7-8.2l-3.6-10.2L62.5,33.7z M63.2,47L59,46.2l-1.4-4.1l2.8-3.3l4.2,0.8
			l1.4,4.1C66,43.7,63.2,47,63.2,47z M72,48.8l-2.8,3.3l-4.2-0.8l-1.4-4.1l2.8-3.3l4.2,0.8L72,48.8z M70.7,44.2l-4.2-0.8L65,39.4
			l2.8-3.3l4.2,0.8l1.4,4.1L70.7,44.2z"/>
	</g>
	<path class="st3" d="M65.1,35.4c-0.6-0.3-1.1-0.1-1.6-0.6c-0.1-0.1-0.2-0.2-0.3-0.3c-0.3-0.1-0.7,0.2-0.8,0.5
		c-0.1,0.4,0.1,0.7,0.2,0.8c0.4,0.5,1.1,0.6,1.8,0.6c0.4,0,1.4,0.1,1.5-0.3C65.9,36,65.5,35.6,65.1,35.4z"/>
	<path class="st3" d="M64.5,37.4c-0.6-0.2-0.9,0.3-1.6,0.2c-0.1,0-0.4-0.1-0.7-0.3c-0.3-0.4-0.1-0.7-0.4-0.9
		c-0.4-0.3-1.6,0.2-1.9,1.1c-0.1,0.3-0.1,0.7,0,0.8c0.2,0.1,0.6-0.6,1.1-0.5c0.4,0,0.4,0.5,1,0.8c0.6,0.3,1.2,0.2,1.6,0.1
		c0.6-0.1,1.4-0.5,1.4-0.8C65,37.5,64.6,37.4,64.5,37.4z"/>
	<path class="st3" d="M74.4,41.2c-0.2-0.8-0.4-1-0.5-1.7c-0.1-0.7,0-0.7-0.1-1.4c-0.2-0.9-0.7-1.8-0.8-1.8c-0.1,0-0.1,0.3-0.1,0.5
		c0.1,0.5,0.4,0.6,0.5,1.1c0.1,0.3,0,0.4,0,0.9c0,0.3,0,0.6,0.3,1.5c0.3,1,0.9,2.7,1,2.6C74.8,43.1,74.6,42.1,74.4,41.2z"/>
	<path class="st3" d="M73.1,44.3c0.1-0.2,0.5,0,0.9-0.2c0.3-0.2,0.5-0.7,0.4-0.9c-0.1-0.1-0.3,0-0.7,0c-0.5,0-0.5-0.3-0.8-0.3
		c-0.4,0-0.9,0.6-1,1.2c-0.1,0.6,0.4,0.8,0.4,1.4c0,0.5-0.4,0.8-0.3,0.9c0.1,0.2,1.4-0.6,1.4-1.3C73.3,44.8,73,44.5,73.1,44.3z"/>
	<path class="st3" d="M75.5,46c0.2-0.5,0.4-0.5,0.5-0.8c0.1-0.5-0.2-1.1-0.5-1.1c-0.2,0-0.2,0.3-0.5,0.5c-0.3,0.2-0.6,0-0.7,0.2
		c-0.2,0.2,0.3,0.6,0.2,1c-0.1,0.5-1.2,0.4-1.3,0.8c-0.1,0.3,0.4,0.9,0.9,0.9c0.6,0.1,1-0.6,1.1-0.7C75.3,46.7,75.2,46.5,75.5,46z"
		/>
	<path class="st3" d="M62.3,47.7c0,0-0.1-0.1-0.4-0.2c-0.8-0.3-0.9-0.3-1-0.2c-0.2,0.1-0.4,0.3-0.3,0.4c0,0.2,0.4,0.2,0.4,0.3
		c0,0.1-0.6,0.1-0.7,0.4c-0.1,0.2,0.1,0.6,0.3,0.7c0.4,0.1,0.6-0.6,1-0.6c0.3,0.1,0.3,0.8,0.5,0.8c0.2,0,0.3-0.4,0.4-0.7
		C62.5,48.4,62.6,48,62.3,47.7z"/>
	<path class="st3" d="M63.9,50c-0.3-0.6-0.5-1-0.6-0.9c-0.2,0,0,0.6-0.3,0.9s-0.9,0.1-1.1,0c-0.5-0.1-0.6-0.4-0.8-0.3
		c-0.3,0.1-0.4,0.6-0.3,0.9c0.1,0.3,0.5,0.4,0.5,0.4c0.5,0.1,0.7-0.2,1-0.1c0.1,0.1,0.1,0.2,0.3,0.4c0.2,0.2,0.5,0.7,0.8,0.6
		c0.4,0,0.7-0.6,0.7-1.1C64.2,50.7,64.2,50.6,63.9,50z"/>
	<path class="st3" d="M59.9,47.4c0.3-0.4,0.4-0.4,0.4-0.5c-0.1-0.2-1.1,0.2-1.6-0.2c-0.2-0.2-0.1-0.2-0.6-1.2
		c-0.3-0.6-0.4-0.9-0.5-0.8c-0.2,0-0.1,0.8,0,1.4c0.1,0.4,0.2,0.8,0.5,1.3c0.3,0.4,0.5,0.4,0.5,0.7c0.1,0.5-0.2,0.8,0,1
		c0.1,0.1,0.4,0.1,0.6-0.1c0.2-0.1,0.1-0.3,0.3-0.7C59.5,48.1,59.6,47.7,59.9,47.4z"/>
	<path class="st3" d="M58.3,39.8c-0.4-0.2-1.2,0.4-1.1,0.7c0,0.2,0.3,0.3,0.6,0.4c0.3,0,0.7-0.2,0.8-0.6
		C58.6,40.1,58.5,39.9,58.3,39.8z"/>
	<path class="st3" d="M57,43.1c-0.4-0.7,0.1-1.4-0.1-1.5c-0.1-0.1-0.4,0.1-0.5,0.4c-0.1,0.2-0.1,0.4-0.1,0.5c0,0.3,0.2,0.4,0.3,0.7
		c0.2,0.6,0.1,1,0.2,1c0.1,0.1,0.5-0.2,0.5-0.5C57.3,43.4,57.2,43.3,57,43.1z"/>
	<path class="st3" d="M68.9,52.5c-0.1-0.1-0.3,0-0.7,0c-0.2,0-0.4-0.1-0.6-0.1c-0.4-0.1-0.5-0.2-0.8-0.3c-0.3-0.1-0.9-0.2-1,0
		c-0.1,0.2,0.1,0.5,0.4,0.6c0.3,0.1,0.5-0.1,0.9,0c0.3,0.1,0.3,0.2,0.8,0.4c0.2,0.1,0.8,0.3,1.1,0.1C69,52.9,69,52.6,68.9,52.5z"/>
	<path class="st3" d="M71.7,50.2c-0.2-0.1-0.6,0.2-0.6,0.5c0,0.1,0,0.3,0.1,0.4c0.2,0.1,0.6-0.1,0.7-0.4
		C71.9,50.6,71.8,50.3,71.7,50.2z"/>
	<path class="st3" d="M71.1,52c-0.1-0.2-0.6-0.3-0.9-0.2c0,0-0.4,0.2-0.4,0.5c0,0.3,0.3,0.5,0.6,0.5C70.7,52.8,71.2,52.3,71.1,52z"
		/>
	<path class="st3" d="M73.9,48.2c-0.1-0.1-0.6,0.6-1,0.4c-0.2-0.1-0.2-0.7-0.3-0.7c-0.1,0-0.2,0.2-0.3,0.5c0,0.4,0.2,0.5,0.3,1
		c0,0.3,0,0.4,0,0.4c0.1,0,0.3-0.4,0.8-1.1C73.8,48.4,74,48.2,73.9,48.2z"/>
	<path class="st3" d="M69.8,35.4c-0.4-0.2-0.6,0-1.3-0.1c-0.6-0.1-0.7-0.3-1-0.2c-0.2,0.1-0.4,0.3-0.7,0.7c-0.3,0.3-0.7,0.9-0.6,1
		c0.1,0.1,0.7-0.1,1.2-0.6c0.4-0.3,0.4-0.5,0.6-0.6c0.4-0.1,0.7,0.4,1.4,0.5c0.3,0,0.8,0,0.8-0.2C70.2,35.7,70,35.5,69.8,35.4z"/>
	<path class="st3" d="M71.5,35.6c0,0-0.5-0.1-0.7,0.1c0,0.1,0,0.2,0,0.3c0.1,0.1,0.2,0.1,0.6,0.1c0.7,0,0.7,0,0.7-0.1
		C72.2,36,71.9,35.7,71.5,35.6z"/>
	<path class="st3" d="M60.5,50.9c-0.3-0.5,0-1.1-0.2-1.2c-0.2-0.2-0.8,0.1-1,0.5c-0.1,0.2-0.1,0.4,0,0.8c0.1,0.4,0.1,0.7,0.3,0.9
		c0.6,0.5,1.8,0,1.8-0.3C61.4,51.3,60.8,51.3,60.5,50.9z"/>
	<path class="st3" d="M65.1,51.9c-0.1-0.1-0.3,0.3-0.8,0.3c-0.2,0-0.3,0-0.8-0.1c-0.4,0-0.6,0-0.6,0c-0.1,0.1,1,0.9,1.7,0.5
		C65,52.5,65.2,51.9,65.1,51.9z"/>
	<polygon class="st1" points="70.6,43.8 73.1,40.9 71.8,37.2 68,36.5 65.5,39.4 66.8,43.1 	"/>
	<polygon class="st1" points="63,46.5 65.5,43.6 64.2,40 60.5,39.3 58,42.2 59.3,45.8 	"/>
	<polygon class="st1" points="69,51.6 71.5,48.7 70.3,45.1 66.5,44.4 64,47.3 65.3,50.9 	"/>
	<path class="st2" d="M65.9,40.2c0.2-0.3,0.8,0.2,1.3-0.1c0.2-0.2,0.1-0.3,0.5-0.7c0.4-0.5,0.8-0.5,0.9-0.8c0-0.3-0.2-0.4-0.1-0.7
		c0.1-0.3,0.3-0.3,0.4-0.5c0.1-0.3-0.5-0.6-0.4-0.7c0-0.1,0.3-0.1,1.1,0.1c1.2,0.3,1.3,0.4,1.3,0.5c0,0.3-1,0.4-1,1.1
		c0,0.1,0,0.1,0,0.3c-0.1,0.7-1,0.9-0.9,1.2c0,0.3,0.7,0.4,2,1c0.9,0.4,1.1,0.6,1.1,0.8c0,0.1-0.1,0.2-0.6,0.8
		c-0.4,0.5-0.4,0.6-0.5,0.6c-0.4,0-0.3-1.2-1.2-1.8c-0.4-0.2-0.8-0.4-0.9-0.2c-0.1,0.1,0.2,0.4,0.1,0.8c-0.1,0.3-0.4,0.3-0.4,0.6
		c-0.1,0.4,0.9,0.9,0.8,1c0,0.1-0.4-0.1-1-0.2c-0.5-0.1-0.8,0-0.9-0.2c-0.1-0.1,0-0.3,0.1-0.5c0.4-1,0.7-1.2,0.5-1.4
		c-0.1-0.2-0.6-0.2-0.9,0.1c-0.2,0.2-0.3,0.4-0.3,0.4c-0.1,0.2-0.2,0.2-0.2,0.2c-0.1,0-0.2-0.2-0.4-0.9
		C65.9,40.4,65.8,40.3,65.9,40.2z"/>
	<path class="st2" d="M62.5,41.8C62,42,61.7,42.7,61.8,43c0.2,0.4,1.1,0,1.5,0.5c0.3,0.3,0.1,0.7,0.4,0.9c0.4,0.2,1-0.2,1-0.1
		c0.1,0.1-0.3,0.4-0.9,1.2c-0.3,0.4-0.5,0.6-0.6,0.6c-0.1-0.1,0-0.5-0.2-0.9c-0.2-0.2-0.3-0.3-0.9-0.4c-0.4-0.2-1-0.4-1.5-0.7
		c-0.3-0.2-0.9-0.6-0.8-1.1c0-0.2,0.2-0.2,0.4-0.5c0.4-0.6,0.2-1,0.5-1.3c0.2-0.2,0.4-0.2,1.3-0.3c1.6-0.1,2-0.3,2.3,0
		c0.2,0.1,0.2,0.3,0.4,0.7c0.1,0.3,0.5,1.1,0.3,1.3C64.7,43,63.5,41.4,62.5,41.8z"/>
	<path class="st2" d="M67.2,44.7c-0.2,0.1-0.2,0.5-0.1,0.7c0.1,0.2,0.3,0.2,0.3,0.5c0,0.2-0.1,0.2-0.2,0.5c-0.1,0.3,0,0.4-0.1,0.4
		c-0.1,0.1-0.7-0.2-1-0.6c-0.3-0.4-0.2-0.8-0.3-0.8c-0.1,0-0.2,0.2-0.5,0.6c-0.3,0.3-0.4,0.4-0.5,0.6c-0.1,0.2-0.1,0.5,0,0.7
		c0.2,0.2,0.5-0.2,0.9-0.1c0.3,0.1,0.6,0.4,0.7,0.7c0.1,0.3,0,0.8-0.2,1c-0.5,0.2-1.3-0.8-1.6-0.7c-0.1,0.1,0,0.5,0.3,1.4
		c0.3,1,0.5,1.1,0.5,1.2c0.1,0.1,0.2,0.1,1.2,0.4c0.9,0.2,1.2,0.3,1.4,0.1c0.1-0.1,0.2-0.2,0.2-0.4c0-0.3-0.5-0.3-0.5-0.6
		c0-0.2,0.4-0.3,0.5-0.7c0-0.1,0.1-0.3,0-0.6c-0.1-0.3-0.5-0.4-0.5-0.5c0-0.1,0.4-0.2,0.7,0c0.8,0.3,0.7,1.7,1.3,1.9
		c0.4,0.1,0.8-0.5,0.9-0.6c0.2-0.2,0.4-0.5,0.3-0.8c-0.1-0.5-1-0.5-1-0.8s1-0.1,1.2-0.6c0.1-0.1,0-0.4-0.2-0.9
		c-0.3-0.7-0.3-0.7-0.4-0.7c-0.2,0-0.2,0.5-0.4,0.5c-0.2,0-0.3-0.2-0.5-0.1c-0.2,0-0.2,0.2-0.3,0.4c-0.3,0.3-0.9,0.3-1,0.1
		c-0.2-0.3,0.2-1.2,0.8-1.4c0.1-0.1,0.4-0.1,0.5-0.3c0.1-0.1-0.1-0.3-0.1-0.3c-0.2-0.2-0.5-0.1-1.1-0.2
		C67.6,44.8,67.4,44.6,67.2,44.7z"/>
</g>
<g>
	<g id="Ebene_1_00000075854395455217719000000003472913446954590885_">
		<path class="st1" d="M57.6,40.7l-3.9-11l-11.4-2.1l-7.6,8.8l3.9,11L50,49.6L57.6,40.7z M49.8,48.7l-10.6-2l-3.6-10.2l7-8.2l10.6,2
			l3.6,10.2L49.8,48.7z"/>
		<path class="st2" d="M42.6,28.3l-7,8.2l3.6,10.2l10.6,2l7-8.2l-3.6-10.2L42.6,28.3z M43.3,41.6L39,40.8l-1.4-4.1l2.8-3.3l4.2,0.8
			l1.4,4.1C46.1,38.3,43.3,41.6,43.3,41.6z M52.1,43.5l-2.8,3.3L45,46l-1.4-4.1l2.8-3.3l4.2,0.8L52.1,43.5z M50.8,38.9l-4.2-0.8
			L45.1,34l2.8-3.3l4.2,0.8l1.4,4.1L50.8,38.9z"/>
	</g>
	<path class="st3" d="M45.2,30c-0.6-0.3-1.1-0.1-1.6-0.6c-0.1-0.1-0.2-0.2-0.3-0.3c-0.3-0.1-0.7,0.2-0.8,0.5
		c-0.1,0.4,0.1,0.7,0.2,0.8c0.4,0.5,1.1,0.6,1.8,0.6c0.4,0,1.4,0.1,1.5-0.3C45.9,30.6,45.5,30.2,45.2,30z"/>
	<path class="st3" d="M44.6,32c-0.6-0.2-0.9,0.3-1.6,0.2c-0.1,0-0.4-0.1-0.7-0.3c-0.3-0.4-0.1-0.7-0.4-0.9c-0.4-0.3-1.6,0.2-1.9,1.1
		c-0.1,0.3-0.1,0.7,0,0.8c0.2,0.1,0.6-0.6,1.1-0.5c0.4,0,0.4,0.5,1,0.8c0.6,0.3,1.2,0.2,1.6,0.1c0.6-0.1,1.4-0.5,1.4-0.8
		C45.1,32.1,44.6,32,44.6,32z"/>
	<path class="st3" d="M54.5,35.9c-0.2-0.8-0.4-1-0.5-1.7s0-0.7-0.1-1.4c-0.2-0.9-0.7-1.8-0.8-1.8c-0.1,0-0.1,0.3-0.1,0.5
		c0.1,0.5,0.4,0.6,0.5,1.1c0.1,0.3,0,0.4,0,0.9c0,0.3,0,0.6,0.3,1.5c0.3,1,0.9,2.7,1,2.6C54.9,37.7,54.7,36.7,54.5,35.9z"/>
	<path class="st3" d="M53.2,39c0.1-0.2,0.5,0,0.9-0.2c0.3-0.2,0.5-0.7,0.4-0.9c-0.1-0.1-0.3,0-0.7,0c-0.5,0-0.5-0.3-0.8-0.3
		c-0.4,0-0.9,0.6-1,1.2c-0.1,0.6,0.4,0.8,0.4,1.4c0,0.5-0.4,0.8-0.3,0.9c0.1,0.2,1.4-0.6,1.4-1.3C53.4,39.4,53,39.2,53.2,39z"/>
	<path class="st3" d="M55.5,40.7c0.2-0.5,0.4-0.5,0.5-0.8c0.1-0.5-0.2-1.1-0.5-1.1c-0.2,0-0.2,0.3-0.5,0.6s-0.6,0-0.7,0.2
		c-0.2,0.2,0.3,0.6,0.2,1c-0.1,0.5-1.2,0.4-1.3,0.8c-0.1,0.3,0.4,0.9,0.9,0.9c0.6,0.1,1-0.6,1.1-0.7C55.4,41.3,55.3,41.2,55.5,40.7z
		"/>
	<path class="st3" d="M42.4,42.3c0,0-0.1-0.1-0.4-0.2c-0.8-0.3-0.9-0.3-1-0.2c-0.2,0.1-0.4,0.3-0.3,0.4c0,0.2,0.4,0.2,0.4,0.3
		c0,0.1-0.6,0.1-0.7,0.4c-0.1,0.2,0.1,0.6,0.3,0.7c0.4,0.1,0.6-0.6,1-0.6c0.3,0.1,0.3,0.8,0.5,0.8c0.2,0,0.3-0.4,0.4-0.7
		C42.6,43,42.7,42.6,42.4,42.3z"/>
	<path class="st3" d="M44,44.6c-0.3-0.6-0.5-1-0.6-0.9c-0.2,0,0,0.6-0.3,0.9s-0.9,0.1-1.1,0c-0.5-0.1-0.6-0.4-0.8-0.3
		c-0.3,0.1-0.4,0.6-0.3,0.9c0.1,0.3,0.5,0.4,0.5,0.4c0.5,0.1,0.7-0.2,1-0.1c0.1,0.1,0.1,0.2,0.3,0.4c0.2,0.2,0.5,0.7,0.8,0.6
		c0.4,0,0.7-0.6,0.7-1.1C44.3,45.3,44.3,45.2,44,44.6z"/>
	<path class="st3" d="M40,42c0.3-0.4,0.4-0.4,0.4-0.5c-0.1-0.2-1.1,0.2-1.6-0.2c-0.2-0.2-0.1-0.2-0.6-1.2c-0.3-0.6-0.4-0.9-0.5-0.8
		c-0.2,0-0.1,0.8,0,1.4c0.1,0.4,0.2,0.8,0.5,1.3c0.3,0.4,0.5,0.4,0.5,0.7c0.1,0.5-0.2,0.8,0,1c0.1,0.1,0.4,0.1,0.6-0.1
		c0.2-0.1,0.1-0.3,0.3-0.7C39.6,42.7,39.7,42.4,40,42z"/>
	<path class="st3" d="M38.4,34.5c-0.4-0.2-1.2,0.4-1.1,0.7c0,0.2,0.3,0.3,0.6,0.4c0.3,0,0.7-0.2,0.8-0.6
		C38.7,34.8,38.6,34.5,38.4,34.5z"/>
	<path class="st3" d="M37.1,37.7c-0.4-0.7,0.1-1.4-0.1-1.5c-0.1-0.1-0.4,0.1-0.5,0.4c-0.1,0.2-0.1,0.4-0.1,0.5
		c0,0.3,0.2,0.4,0.3,0.7c0.2,0.6,0.1,1,0.2,1s0.5-0.2,0.5-0.5C37.4,38,37.3,38,37.1,37.7z"/>
	<path class="st3" d="M49,47.1c-0.1-0.1-0.3,0-0.7,0c-0.2,0-0.4-0.1-0.6-0.1c-0.4-0.1-0.5-0.2-0.8-0.3s-0.9-0.2-1,0
		c-0.1,0.2,0.1,0.5,0.4,0.6c0.3,0.1,0.5-0.1,0.9,0c0.3,0.1,0.3,0.2,0.8,0.4c0.2,0.1,0.8,0.3,1.1,0.1C49.1,47.6,49.1,47.3,49,47.1z"
		/>
	<path class="st3" d="M51.7,44.9c-0.2-0.1-0.6,0.2-0.6,0.5c0,0.1,0,0.3,0.1,0.4c0.2,0.1,0.6-0.1,0.7-0.4
		C52,45.2,51.9,44.9,51.7,44.9z"/>
	<path class="st3" d="M51.1,46.6c-0.1-0.2-0.6-0.3-0.9-0.2c0,0-0.4,0.2-0.4,0.5c0,0.3,0.3,0.5,0.6,0.5
		C50.8,47.4,51.2,46.9,51.1,46.6z"/>
	<path class="st3" d="M54,42.8c-0.1-0.1-0.6,0.6-1,0.4c-0.2-0.1-0.2-0.7-0.3-0.7c-0.1,0-0.2,0.2-0.3,0.5c0,0.4,0.2,0.5,0.3,1
		c0,0.3,0,0.4,0,0.4c0.1,0,0.3-0.4,0.8-1.1C53.8,43.1,54,42.8,54,42.8z"/>
	<path class="st3" d="M49.9,30c-0.4-0.2-0.6,0-1.3-0.1c-0.6-0.1-0.7-0.3-1-0.2c-0.2,0.1-0.4,0.3-0.7,0.7c-0.3,0.3-0.7,0.9-0.6,1
		c0.1,0.1,0.7-0.1,1.2-0.6c0.4-0.3,0.4-0.5,0.6-0.6c0.4-0.1,0.7,0.4,1.4,0.5c0.3,0,0.8,0,0.8-0.2C50.3,30.4,50.1,30.2,49.9,30z"/>
	<path class="st3" d="M51.6,30.3c0,0-0.5-0.1-0.7,0.1c0,0.1,0,0.2,0,0.3c0.1,0.1,0.2,0.1,0.6,0.1c0.7,0,0.7,0,0.7-0.1
		C52.3,30.6,51.9,30.4,51.6,30.3z"/>
	<path class="st3" d="M40.6,45.5c-0.3-0.5,0-1.1-0.2-1.2c-0.2-0.2-0.8,0.1-1,0.5c-0.1,0.2-0.1,0.4,0,0.8c0.1,0.4,0.1,0.7,0.3,0.9
		c0.5,0.5,1.8,0,1.8-0.3C41.5,45.9,40.9,46,40.6,45.5z"/>
	<path class="st3" d="M45.2,46.5c-0.1-0.1-0.3,0.3-0.8,0.3c-0.2,0-0.3,0-0.8-0.1c-0.4,0-0.6,0-0.6,0c-0.1,0.1,1,0.9,1.7,0.5
		C45.1,47.1,45.2,46.6,45.2,46.5z"/>
	<polygon class="st1" points="50.7,38.4 53.1,35.5 51.9,31.9 48.1,31.2 45.6,34.1 46.9,37.7 	"/>
	<polygon class="st1" points="43.1,41.2 45.6,38.2 44.3,34.6 40.5,33.9 38.1,36.8 39.3,40.4 	"/>
	<polygon class="st1" points="49.1,46.3 51.6,43.4 50.3,39.8 46.5,39 44.1,42 45.3,45.6 	"/>
	<path class="st2" d="M45.9,34.9c0.2-0.3,0.8,0.2,1.3-0.1c0.2-0.2,0.1-0.3,0.5-0.7c0.4-0.5,0.8-0.5,0.9-0.8c0-0.3-0.2-0.4-0.1-0.7
		c0.1-0.3,0.3-0.3,0.4-0.5c0.1-0.3-0.5-0.6-0.4-0.7c0-0.1,0.3-0.1,1.1,0.1c1.2,0.3,1.3,0.4,1.3,0.5c0,0.3-1,0.4-1,1.1
		c0,0.1,0,0.1,0,0.3c-0.1,0.7-1,0.9-0.9,1.2c0,0.3,0.7,0.4,2,1c0.9,0.4,1.1,0.6,1.1,0.8c0,0.1-0.1,0.2-0.6,0.8
		c-0.4,0.5-0.4,0.6-0.5,0.6c-0.4,0-0.3-1.2-1.2-1.8c-0.4-0.2-0.8-0.4-0.9-0.2c-0.1,0.1,0.2,0.4,0.1,0.8c-0.1,0.3-0.4,0.3-0.4,0.6
		c-0.1,0.4,0.9,0.9,0.8,1c0,0.1-0.4-0.1-1-0.2c-0.5-0.1-0.8,0-0.9-0.2c-0.1-0.1,0-0.3,0.1-0.5c0.4-1,0.7-1.2,0.5-1.4
		c-0.1-0.2-0.6-0.2-0.9,0.1c-0.2,0.2-0.3,0.4-0.3,0.4c-0.1,0.2-0.2,0.2-0.2,0.2c-0.1,0-0.2-0.2-0.4-0.9C45.9,35,45.9,35,45.9,34.9z"
		/>
	<path class="st2" d="M42.6,36.4c-0.5,0.2-0.8,0.9-0.7,1.2c0.2,0.4,1.1,0,1.5,0.5c0.3,0.3,0.1,0.7,0.4,0.9c0.4,0.2,1-0.2,1-0.1
		c0.1,0.1-0.3,0.4-0.9,1.2c-0.3,0.4-0.5,0.6-0.6,0.6c-0.1-0.1,0-0.5-0.2-0.9c-0.2-0.2-0.3-0.3-0.9-0.4c-0.4-0.2-1-0.4-1.5-0.7
		c-0.3-0.2-0.9-0.6-0.8-1.1c0-0.2,0.2-0.2,0.4-0.5c0.4-0.6,0.2-1,0.5-1.3c0.2-0.2,0.4-0.2,1.3-0.3c1.6-0.1,2-0.3,2.3,0
		c0.2,0.1,0.2,0.3,0.4,0.7c0.1,0.3,0.5,1.1,0.3,1.3C44.8,37.7,43.6,36.1,42.6,36.4z"/>
	<path class="st2" d="M47.3,39.4c-0.2,0.1-0.2,0.5-0.1,0.7c0.1,0.2,0.3,0.2,0.3,0.5c0,0.2-0.1,0.2-0.2,0.5c-0.1,0.3,0,0.4-0.1,0.4
		c-0.1,0.1-0.7-0.2-1-0.6c-0.3-0.4-0.2-0.8-0.3-0.8c-0.1,0-0.2,0.2-0.5,0.6C45.2,41,45,41,44.9,41.3c-0.1,0.2-0.1,0.5,0,0.7
		c0.2,0.2,0.5-0.2,0.9-0.1c0.3,0.1,0.6,0.4,0.7,0.7c0.1,0.3,0,0.8-0.2,1c-0.5,0.2-1.3-0.8-1.6-0.7c-0.1,0.1,0,0.5,0.3,1.4
		c0.3,1,0.5,1.1,0.5,1.2c0.1,0.1,0.2,0.1,1.2,0.4c0.9,0.2,1.2,0.3,1.4,0.1c0.1-0.1,0.2-0.2,0.2-0.4c0-0.3-0.5-0.3-0.5-0.6
		c0-0.2,0.4-0.3,0.5-0.7c0-0.1,0.1-0.3,0-0.6c-0.1-0.3-0.5-0.4-0.5-0.5c0-0.1,0.4-0.2,0.7,0c0.8,0.3,0.7,1.7,1.3,1.9
		c0.4,0.1,0.8-0.5,0.9-0.6c0.2-0.2,0.4-0.5,0.3-0.8c-0.1-0.5-1-0.5-1-0.8c0-0.2,1-0.1,1.2-0.6c0.1-0.1,0-0.4-0.2-0.9
		c-0.3-0.7-0.3-0.7-0.4-0.7c-0.2,0-0.2,0.5-0.4,0.5c-0.2,0-0.3-0.2-0.5-0.1c-0.2,0-0.2,0.2-0.3,0.4c-0.3,0.3-0.9,0.3-1,0.1
		c-0.2-0.3,0.2-1.2,0.8-1.4c0.1-0.1,0.4-0.1,0.5-0.3c0.1-0.1-0.1-0.3-0.1-0.3c-0.2-0.2-0.5-0.1-1.1-0.2
		C47.7,39.4,47.4,39.2,47.3,39.4z"/>
</g>
<g>
	<g id="Ebene_1_00000153680117325244856530000007088512864191450279_">
		<path class="st1" d="M38.8,83.3l6-10l-5.6-10.2l-11.6-0.2l-6,10l5.6,10.2L38.8,83.3z M27.7,82.4l-5.2-9.4l5.6-9.3l10.8,0.2
			l5.2,9.4l-5.6,9.3L27.7,82.4z"/>
		<path class="st2" d="M38.8,63.8L28,63.6l-5.6,9.3l5.2,9.4l10.8,0.2l5.6-9.3L38.8,63.8z M29,72.8l-2.1-3.8l2.2-3.7l4.3,0.1l2.1,3.8
			l-2.2,3.7C33.3,72.9,29,72.8,29,72.8z M33.2,80.8l-4.3-0.1L26.8,77l2.2-3.7l4.3,0.1l2.1,3.8L33.2,80.8z M35.9,76.9l-2.1-3.8
			l2.2-3.7l4.3,0.1l2.1,3.8L40.3,77L35.9,76.9z"/>
	</g>
	<path class="st3" d="M39.2,66.9c-0.1-0.7-0.6-0.9-0.6-1.6c0-0.2,0.1-0.3,0-0.4c-0.1-0.3-0.6-0.4-0.9-0.3c-0.4,0.1-0.5,0.5-0.5,0.7
		c-0.2,0.6,0.3,1.2,0.6,1.8c0.2,0.3,0.8,1.1,1.2,1C39.2,67.9,39.2,67.3,39.2,66.9z"/>
	<path class="st3" d="M37.3,67.7c-0.3-0.6-0.9-0.5-1.2-1.1c-0.1-0.1-0.2-0.4-0.2-0.7c0.1-0.5,0.5-0.6,0.5-0.9c0-0.5-1.2-1.1-2.1-0.8
		c-0.3,0.1-0.7,0.3-0.6,0.5c0,0.2,0.8,0.1,1.1,0.5c0.2,0.3-0.1,0.6,0.1,1.2c0.1,0.7,0.7,1,1,1.3c0.5,0.4,1.3,0.8,1.5,0.6
		C37.5,68.2,37.3,67.7,37.3,67.7z"/>
	<path class="st3" d="M40.6,77.8c0.5-0.7,0.5-0.9,1-1.4s0.6-0.5,1-0.9c0.6-0.7,1-1.7,0.8-1.8c-0.1,0-0.3,0.1-0.5,0.3
		c-0.3,0.4-0.3,0.7-0.5,1c-0.2,0.3-0.3,0.3-0.7,0.6c-0.2,0.2-0.4,0.4-1,1.2c-0.6,0.8-1.5,2.4-1.4,2.4C39.4,79.3,40.1,78.5,40.6,77.8
		z"/>
	<path class="st3" d="M37.3,78.8c0.2,0,0.3,0.4,0.7,0.5c0.4,0.1,0.9-0.1,0.9-0.3c0-0.1-0.2-0.2-0.4-0.5c-0.3-0.4-0.1-0.6-0.3-0.8
		c-0.3-0.3-1.1-0.4-1.5,0c-0.5,0.3-0.3,0.8-0.9,1.2c-0.4,0.3-0.8,0.2-0.8,0.3c0,0.2,1.3,0.7,1.9,0.3C37.1,79.2,37.1,78.8,37.3,78.8z
		"/>
	<path class="st3" d="M37.5,81.7c0.5-0.1,0.6,0,0.9-0.1c0.4-0.2,0.7-0.9,0.5-1c-0.1-0.1-0.4,0.1-0.7,0s-0.4-0.5-0.6-0.4
		c-0.3,0-0.3,0.6-0.7,0.8c-0.5,0.2-1-0.7-1.5-0.5c-0.3,0.1-0.4,0.9-0.1,1.3c0.4,0.5,1.1,0.4,1.2,0.4C37,82,37,81.8,37.5,81.7z"/>
	<path class="st3" d="M27.9,72.6c0,0,0-0.1-0.1-0.4c-0.3-0.8-0.3-0.9-0.4-0.9c-0.2-0.1-0.5-0.1-0.5,0c-0.1,0.1,0.1,0.4,0.1,0.5
		c-0.1,0.1-0.5-0.3-0.8-0.3c-0.2,0.1-0.4,0.4-0.3,0.7c0.2,0.3,0.9,0.1,1,0.4c0.1,0.3-0.5,0.8-0.3,0.9c0.1,0.1,0.5,0,0.8-0.2
		C27.5,73.2,27.9,73,27.9,72.6z"/>
	<path class="st3" d="M27.1,75.3c0.3-0.6,0.4-1,0.3-1.1c-0.1-0.1-0.4,0.4-0.8,0.3c-0.4-0.1-0.6-0.7-0.7-0.8
		c-0.2-0.5-0.1-0.7-0.3-0.9c-0.2-0.1-0.7,0-0.9,0.4c-0.1,0.3,0,0.6,0,0.6c0.2,0.4,0.6,0.4,0.7,0.7c0,0.1-0.1,0.2-0.1,0.5
		c-0.1,0.3-0.2,0.8,0.1,1.1c0.3,0.3,0.9,0.2,1.3-0.1C26.8,76,26.9,75.9,27.1,75.3z"/>
	<path class="st3" d="M26.6,70.6c0.5,0,0.6,0.1,0.7,0c0.1-0.2-0.9-0.7-0.9-1.4c0-0.2,0.1-0.3,0.5-1.2c0.3-0.6,0.4-0.9,0.3-0.9
		c-0.1-0.1-0.7,0.4-1,0.9c-0.2,0.3-0.5,0.7-0.7,1.2c-0.1,0.5,0,0.6-0.2,0.9c-0.3,0.4-0.7,0.3-0.8,0.6c0,0.2,0.2,0.4,0.4,0.4
		c0.2,0.1,0.3-0.1,0.7-0.2C25.8,70.7,26.1,70.6,26.6,70.6z"/>
	<path class="st3" d="M31.4,64.5c-0.1-0.5-1-0.6-1.3-0.4c-0.1,0.2,0,0.5,0.1,0.7c0.2,0.3,0.6,0.4,0.9,0.3
		C31.4,64.9,31.5,64.7,31.4,64.5z"/>
	<path class="st3" d="M28.1,65.6c0.3-0.7,1.2-0.8,1.1-1c0-0.1-0.4-0.2-0.6-0.2c-0.2,0-0.4,0.2-0.4,0.2C28,64.8,28,65,27.8,65.3
		c-0.3,0.5-0.7,0.7-0.7,0.8c0,0.1,0.5,0.2,0.7,0C28,66,28,65.9,28.1,65.6z"/>
	<path class="st3" d="M28.4,80.7c0-0.2-0.2-0.2-0.4-0.5c-0.1-0.2-0.2-0.3-0.3-0.5c-0.2-0.4-0.1-0.5-0.3-0.9S27,78,26.7,78
		c-0.2,0-0.3,0.4-0.2,0.6c0.1,0.3,0.4,0.3,0.6,0.7c0.2,0.3,0,0.4,0.2,0.9c0,0.2,0.3,0.8,0.6,0.9C28.1,81.1,28.4,80.9,28.4,80.7z"/>
	<path class="st3" d="M31.9,81.4c-0.1-0.2-0.5-0.3-0.8-0.2c-0.1,0.1-0.3,0.2-0.2,0.4c0,0.2,0.5,0.4,0.8,0.3
		C31.8,81.8,31.9,81.6,31.9,81.4z"/>
	<path class="st3" d="M30.2,82.1c0.1-0.2-0.1-0.6-0.4-0.8c0,0-0.4-0.2-0.6,0c-0.2,0.2-0.2,0.5,0,0.7C29.3,82.3,30,82.3,30.2,82.1z"
		/>
	<path class="st3" d="M34.9,81.9c0-0.1-0.8-0.1-0.9-0.5c-0.1-0.3,0.4-0.6,0.3-0.7c0-0.1-0.3,0-0.6,0.1c-0.3,0.2-0.2,0.5-0.6,0.9
		c-0.2,0.2-0.3,0.2-0.3,0.3c0,0.1,0.5,0,1.4,0C34.6,81.9,34.9,81.9,34.9,81.9z"/>
	<path class="st3" d="M42.2,70.6c-0.1-0.4-0.4-0.5-0.7-1.1c-0.3-0.5-0.2-0.7-0.4-0.9c-0.2-0.1-0.5-0.2-1-0.2c-0.5,0-1.1,0-1.1,0.1
		c0,0.1,0.6,0.5,1.2,0.5c0.5,0.1,0.6,0,0.8,0.1c0.4,0.2,0.1,0.8,0.5,1.4c0.2,0.3,0.5,0.6,0.7,0.5C42.1,71.1,42.2,70.8,42.2,70.6z"/>
	<path class="st3" d="M43,72c0,0-0.3-0.5-0.5-0.4c-0.1,0-0.2,0.1-0.2,0.2c0,0.1,0,0.2,0.3,0.5c0.4,0.5,0.5,0.5,0.5,0.5
		C43.2,72.8,43.2,72.3,43,72z"/>
	<path class="st3" d="M24.3,73.3c0.2-0.6,0.8-0.7,0.8-1c0-0.3-0.6-0.6-1-0.5c-0.2,0-0.4,0.2-0.6,0.5c-0.3,0.3-0.5,0.5-0.5,0.8
		c0,0.7,1.2,1.4,1.4,1.2C24.6,74.2,24.1,73.8,24.3,73.3z"/>
	<path class="st3" d="M26.4,77.4c0-0.1-0.4-0.1-0.8-0.4c-0.2-0.2-0.2-0.2-0.4-0.7c-0.2-0.3-0.4-0.5-0.4-0.5c-0.1,0,0,1.3,0.7,1.6
		C25.9,77.7,26.4,77.5,26.4,77.4z"/>
	<polygon class="st1" points="36.2,76.5 40,76.5 42,73.2 40.1,69.9 36.3,69.8 34.3,73.1 	"/>
	<polygon class="st1" points="29.3,72.4 33.1,72.5 35.1,69.2 33.2,65.8 29.4,65.8 27.4,69 	"/>
	<polygon class="st1" points="29.1,80.3 33,80.4 34.9,77.1 33.1,73.7 29.2,73.7 27.3,77 	"/>
	<path class="st2" d="M35.9,70.6c0.3,0,0.4,0.8,0.9,0.9c0.3,0.1,0.3-0.1,0.8-0.1c0.7,0,0.9,0.3,1.2,0.1c0.2-0.1,0.2-0.4,0.4-0.5
		c0.3-0.1,0.4,0.1,0.6,0c0.3-0.2,0.2-0.7,0.3-0.7c0.1,0,0.3,0.2,0.6,0.9c0.6,1.2,0.5,1.3,0.5,1.3c-0.2,0.2-1-0.4-1.5-0.1
		c-0.1,0.1-0.1,0.1-0.2,0.2c-0.5,0.4-1.3-0.2-1.5,0c-0.2,0.2,0.1,0.8,0.5,2.2c0.2,0.9,0.2,1.2,0,1.4c-0.1,0.1-0.2,0.1-1,0.1
		c-0.6,0-0.7,0-0.7,0c-0.2-0.3,0.7-1,0.6-2c0-0.4-0.2-0.8-0.4-0.8c-0.2,0-0.2,0.4-0.6,0.5c-0.3,0.1-0.5-0.1-0.7,0
		c-0.4,0.2-0.1,1.3-0.2,1.3c-0.1,0-0.1-0.4-0.5-0.9c-0.3-0.5-0.5-0.7-0.4-0.9c0-0.1,0.2-0.2,0.4-0.3c1-0.3,1.4-0.3,1.4-0.5
		c0.1-0.2-0.3-0.6-0.6-0.7c-0.2-0.1-0.5,0-0.5,0.1c-0.2,0-0.3,0-0.3,0c-0.1-0.1,0.1-0.3,0.4-0.9C35.8,70.7,35.8,70.6,35.9,70.6z"/>
	<path class="st2" d="M32.6,69c-0.5-0.3-1.2-0.1-1.3,0.2c-0.2,0.4,0.7,0.8,0.6,1.5c-0.1,0.4-0.4,0.5-0.4,0.9
		c0.1,0.5,0.8,0.6,0.7,0.8c0,0.1-0.5,0-1.5,0c-0.5,0-0.8,0-0.8-0.1c0-0.1,0.4-0.3,0.6-0.8c0.1-0.3,0-0.4-0.2-0.9
		c-0.1-0.4-0.3-1-0.4-1.7c0-0.3-0.1-1.1,0.3-1.3c0.2-0.1,0.3,0,0.6-0.1c0.7-0.1,0.8-0.5,1.3-0.4c0.3,0,0.4,0.2,1,0.8
		c1.1,1.1,1.5,1.3,1.5,1.8c0,0.2-0.1,0.4-0.3,0.7c-0.1,0.3-0.5,1.1-0.8,1C33,71.5,33.5,69.5,32.6,69z"/>
	<path class="st2" d="M33.3,74.5c-0.2,0-0.5,0.2-0.6,0.4c-0.1,0.2,0,0.4-0.2,0.5c-0.1,0.1-0.2,0-0.5,0.2c-0.3,0.1-0.3,0.3-0.4,0.2
		c-0.2-0.1-0.3-0.6-0.1-1.1c0.2-0.5,0.5-0.7,0.4-0.8c-0.1-0.1-0.3,0-0.8,0c-0.5,0-0.6-0.1-0.8,0c-0.2,0.1-0.5,0.2-0.5,0.4
		c0,0.3,0.5,0.2,0.7,0.7c0.1,0.3,0,0.7-0.2,1c-0.2,0.3-0.6,0.5-0.9,0.4c-0.5-0.2-0.2-1.6-0.5-1.6c-0.2-0.1-0.4,0.3-0.9,1.1
		c-0.5,0.9-0.6,1.1-0.6,1.2c0,0.2,0,0.2,0.5,1.2c0.4,0.8,0.5,1.1,0.8,1.1c0.1,0,0.3,0,0.4-0.1c0.2-0.2-0.1-0.6,0.1-0.8
		c0.2-0.2,0.4,0.1,0.8,0c0,0,0.3-0.1,0.5-0.4c0.1-0.3,0-0.6,0-0.7c0.1,0,0.4,0.2,0.5,0.5c0.3,0.8-0.9,1.6-0.6,2.1
		c0.2,0.3,0.9,0.3,1.1,0.3c0.3,0,0.6,0,0.8-0.2c0.3-0.4-0.2-1.2-0.1-1.3c0.2-0.1,0.7,0.7,1.2,0.6c0.1,0,0.3-0.3,0.6-0.8
		c0.3-0.6,0.3-0.7,0.3-0.7c-0.1-0.1-0.5,0.2-0.7,0c-0.1-0.1,0-0.3-0.2-0.4c-0.1-0.1-0.3,0-0.5,0c-0.4,0-0.8-0.5-0.8-0.7
		c0.1-0.3,1-0.6,1.6-0.3c0.1,0.1,0.3,0.2,0.5,0.2c0.1,0,0.2-0.3,0.2-0.3c0.1-0.3-0.2-0.5-0.6-1C33.5,74.8,33.5,74.5,33.3,74.5z"/>
</g>
<g>
	<g id="Ebene_1_00000017511348390448669810000014398174182686797964_">
		<path class="st1" d="M42.1,55.3l2-11.5l-8.9-7.5l-10.9,4l-2.1,11.5l8.9,7.5L42.1,55.3z M31.4,58.4l-8.3-7L25,40.8l10.2-3.7l8.3,7
			l-1.9,10.6L31.4,58.4z"/>
		<path class="st2" d="M35.1,37.1L25,40.8l-1.9,10.6l8.3,7l10.2-3.7l1.9-10.6L35.1,37.1z M29.2,49l-3.3-2.8l0.8-4.3l4.1-1.5l3.3,2.8
			l-0.8,4.3C33.3,47.6,29.2,49,29.2,49z M35.9,55l-4.1,1.5l-3.3-2.8l0.8-4.3l4.1-1.5l3.3,2.8L35.9,55z M37.1,50.4l-3.3-2.8l0.8-4.3
			l4.1-1.5l3.3,2.8l-0.8,4.3L37.1,50.4z"/>
	</g>
	<path class="st3" d="M36.6,39.9c-0.4-0.6-0.9-0.7-1.1-1.3c0-0.2,0-0.3-0.1-0.4c-0.2-0.2-0.7-0.2-1,0c-0.3,0.3-0.3,0.7-0.3,0.8
		c0.1,0.7,0.7,1.1,1.2,1.4c0.3,0.2,1.2,0.8,1.4,0.5C36.9,40.8,36.8,40.2,36.6,39.9z"/>
	<path class="st3" d="M35.1,41.3c-0.5-0.5-1-0.2-1.5-0.6c-0.1-0.1-0.3-0.3-0.4-0.6c-0.1-0.5,0.3-0.7,0.1-1c-0.2-0.4-1.5-0.6-2.2,0
		c-0.3,0.2-0.5,0.6-0.4,0.7c0.1,0.2,0.8-0.2,1.2,0.1c0.3,0.2,0.1,0.6,0.5,1.1c0.4,0.6,1,0.7,1.4,0.9c0.6,0.2,1.5,0.3,1.6,0
		C35.5,41.7,35.1,41.3,35.1,41.3z"/>
	<path class="st3" d="M41.8,49.6c0.2-0.8,0.2-1,0.4-1.7c0.2-0.7,0.4-0.6,0.6-1.2c0.3-0.9,0.3-1.9,0.1-1.9c-0.1,0-0.3,0.2-0.3,0.4
		c-0.2,0.5,0,0.7-0.1,1.2c-0.1,0.3-0.2,0.4-0.4,0.8c-0.1,0.2-0.3,0.6-0.5,1.5c-0.2,1-0.6,2.7-0.4,2.8C41.2,51.4,41.6,50.4,41.8,49.6
		z"/>
	<path class="st3" d="M39.1,51.6c0.2-0.1,0.4,0.3,0.8,0.2c0.4,0,0.8-0.4,0.7-0.6c0-0.1-0.2-0.1-0.6-0.3c-0.4-0.3-0.3-0.5-0.6-0.6
		c-0.4-0.2-1.1,0-1.4,0.5c-0.3,0.5,0,0.9-0.4,1.4c-0.3,0.4-0.7,0.5-0.7,0.6c0.1,0.2,1.5,0.2,1.9-0.4C39.1,52.1,38.9,51.7,39.1,51.6z
		"/>
	<path class="st3" d="M40.3,54.3c0.4-0.3,0.6-0.2,0.8-0.4c0.3-0.4,0.3-1,0.1-1.1c-0.2-0.1-0.3,0.2-0.7,0.2c-0.4,0-0.6-0.3-0.8-0.2
		c-0.3,0.1,0,0.7-0.3,1c-0.4,0.4-1.2-0.3-1.5,0.1c-0.2,0.2-0.1,1,0.3,1.2c0.5,0.4,1.2,0,1.3-0.1C39.9,54.7,39.8,54.6,40.3,54.3z"/>
	<path class="st3" d="M28.1,49.2c0,0,0-0.1-0.2-0.4c-0.5-0.6-0.6-0.7-0.7-0.7c-0.2,0-0.5,0-0.5,0.2c0,0.2,0.3,0.4,0.2,0.4
		c-0.1,0.1-0.5-0.2-0.8,0c-0.2,0.1-0.3,0.6-0.1,0.7c0.3,0.3,0.9-0.2,1.1,0c0.2,0.2-0.2,0.9,0,1c0.1,0.1,0.5-0.2,0.7-0.5
		C27.9,49.9,28.2,49.6,28.1,49.2z"/>
	<path class="st3" d="M28.3,52c0-0.7,0-1.1-0.1-1.1c-0.1,0-0.2,0.5-0.6,0.6c-0.4,0.1-0.8-0.4-0.9-0.5c-0.4-0.4-0.3-0.7-0.6-0.7
		c-0.3-0.1-0.7,0.3-0.7,0.7c0,0.3,0.2,0.5,0.2,0.6c0.3,0.3,0.7,0.1,0.9,0.4c0.1,0.1,0,0.2,0.1,0.5c0,0.3,0.1,0.8,0.4,1
		c0.3,0.2,0.9-0.2,1.1-0.6C28.2,52.8,28.3,52.7,28.3,52z"/>
	<path class="st3" d="M26.1,47.8c0.4-0.2,0.6-0.2,0.6-0.3c0-0.2-1-0.3-1.3-1c-0.1-0.2,0-0.3,0.1-1.4c0.1-0.6,0.1-0.9,0-1
		c-0.1,0-0.5,0.6-0.7,1.2c-0.1,0.3-0.2,0.8-0.2,1.4c0.1,0.5,0.2,0.6,0.1,0.9c-0.1,0.5-0.6,0.6-0.5,0.8c0.1,0.2,0.3,0.3,0.5,0.2
		c0.2,0,0.2-0.2,0.6-0.4C25.4,48.2,25.7,47.9,26.1,47.8z"/>
	<path class="st3" d="M28.5,40.4c-0.3-0.4-1.2-0.2-1.3,0.1c-0.1,0.2,0.1,0.5,0.3,0.6c0.3,0.2,0.7,0.2,1-0.1
		C28.6,40.8,28.6,40.5,28.5,40.4z"/>
	<path class="st3" d="M25.8,42.6c0-0.7,0.8-1.2,0.7-1.4c-0.1-0.1-0.4-0.1-0.6,0.1c-0.2,0.1-0.3,0.3-0.3,0.4c-0.1,0.3,0,0.4-0.1,0.8
		c-0.1,0.6-0.4,0.9-0.3,1c0.1,0.1,0.5,0,0.7-0.2C25.9,43,25.8,42.9,25.8,42.6z"/>
	<path class="st3" d="M31.4,56.6c-0.1-0.2-0.2-0.1-0.6-0.3c-0.2-0.1-0.3-0.2-0.4-0.4c-0.3-0.3-0.3-0.4-0.6-0.7
		c-0.2-0.3-0.7-0.6-0.9-0.5c-0.1,0.1-0.1,0.4,0,0.7c0.2,0.3,0.4,0.2,0.8,0.4c0.3,0.2,0.2,0.4,0.5,0.8c0.1,0.1,0.5,0.7,0.9,0.6
		C31.3,57.1,31.5,56.8,31.4,56.6z"/>
	<path class="st3" d="M34.9,56c-0.1-0.2-0.6-0.1-0.8,0.1c-0.1,0.1-0.2,0.3-0.1,0.4c0.1,0.2,0.6,0.2,0.8,0C35,56.5,35,56.2,34.9,56z"
		/>
	<path class="st3" d="M33.5,57.3c0-0.2-0.3-0.6-0.7-0.6c0,0-0.4,0-0.6,0.2c-0.1,0.2,0,0.6,0.2,0.7C32.9,57.8,33.5,57.6,33.5,57.3z"
		/>
	<path class="st3" d="M37.9,55.4c0-0.1-0.8,0.2-1-0.1c-0.2-0.2,0.2-0.7,0.1-0.7c-0.1-0.1-0.3,0.1-0.5,0.3c-0.2,0.3-0.1,0.6-0.3,1
		c-0.1,0.2-0.2,0.3-0.2,0.4c0.1,0.1,0.5-0.2,1.3-0.5C37.6,55.5,38,55.4,37.9,55.4z"/>
	<path class="st3" d="M40.7,42.2c-0.2-0.4-0.5-0.3-1-0.7c-0.4-0.4-0.4-0.6-0.7-0.7c-0.3-0.1-0.5,0-1,0.2c-0.4,0.2-1,0.4-1,0.5
		s0.7,0.2,1.3,0.1c0.5-0.1,0.5-0.2,0.8-0.2c0.4,0.1,0.4,0.7,1,1.1c0.2,0.2,0.7,0.4,0.8,0.2C40.9,42.7,40.8,42.4,40.7,42.2z"/>
	<path class="st3" d="M42,43.3c0,0-0.4-0.4-0.6-0.2c-0.1,0.1-0.1,0.2-0.1,0.3c0,0.1,0.1,0.2,0.5,0.4c0.6,0.3,0.6,0.3,0.6,0.3
		C42.4,43.9,42.3,43.5,42,43.3z"/>
	<path class="st3" d="M24.9,51.1c0-0.6,0.5-0.9,0.4-1.2c-0.1-0.3-0.7-0.3-1.1-0.1c-0.2,0.1-0.3,0.3-0.4,0.7
		c-0.1,0.4-0.2,0.7-0.2,0.9c0.2,0.7,1.6,0.9,1.7,0.7C25.5,51.9,25,51.7,24.9,51.1z"/>
	<path class="st3" d="M28.4,54.2c0-0.1-0.4,0.1-0.9-0.1c-0.2-0.1-0.2-0.2-0.6-0.5c-0.3-0.2-0.5-0.3-0.6-0.3
		c-0.1,0.1,0.4,1.2,1.2,1.3C28,54.7,28.5,54.3,28.4,54.2z"/>
	<polygon class="st1" points="37.2,49.9 40.8,48.6 41.5,44.8 38.5,42.3 34.9,43.6 34.2,47.4 	"/>
	<polygon class="st1" points="29.3,48.5 32.9,47.2 33.6,43.4 30.6,41 27,42.3 26.3,46.1 	"/>
	<polygon class="st1" points="32,56 35.6,54.7 36.2,50.9 33.3,48.4 29.7,49.7 29,53.5 	"/>
	<path class="st2" d="M34.8,44.5c0.3-0.1,0.6,0.6,1.2,0.5c0.3,0,0.3-0.2,0.8-0.4c0.6-0.2,1,0,1.2-0.3c0.2-0.2,0-0.4,0.2-0.6
		s0.4-0.1,0.6-0.3c0.2-0.3-0.1-0.7,0-0.8c0.1-0.1,0.3,0.1,0.9,0.6c0.9,0.9,0.9,1,0.9,1c-0.1,0.3-1-0.1-1.4,0.4
		c-0.1,0.1,0,0.1-0.1,0.2c-0.4,0.5-1.3,0.3-1.4,0.6c-0.1,0.3,0.4,0.7,1.3,1.9c0.5,0.8,0.6,1.1,0.5,1.3c-0.1,0.1-0.2,0.1-0.9,0.4
		c-0.6,0.2-0.6,0.3-0.7,0.2c-0.3-0.2,0.3-1.2-0.2-2.1c-0.2-0.4-0.5-0.7-0.7-0.6c-0.2,0.1,0,0.4-0.3,0.7c-0.2,0.2-0.5,0.1-0.7,0.3
		c-0.3,0.4,0.3,1.2,0.2,1.3c-0.1,0-0.3-0.3-0.8-0.7c-0.4-0.3-0.7-0.4-0.7-0.7c0-0.1,0.1-0.2,0.3-0.4c0.8-0.7,1.2-0.8,1.2-1
		c0-0.3-0.5-0.5-0.8-0.4c-0.2,0-0.4,0.2-0.5,0.2c-0.2,0.1-0.2,0.1-0.3,0.1c-0.1-0.1,0-0.3,0.1-1C34.7,44.6,34.8,44.5,34.8,44.5z"/>
	<path class="st2" d="M31.1,44.2c-0.5-0.1-1.2,0.3-1.2,0.7c0,0.4,0.9,0.5,1.1,1.2c0.1,0.4-0.2,0.6-0.1,0.9c0.2,0.4,0.9,0.3,0.9,0.5
		c0,0.1-0.5,0.2-1.4,0.6c-0.4,0.2-0.7,0.3-0.8,0.2c-0.1-0.1,0.3-0.4,0.3-0.9c0-0.3-0.2-0.4-0.5-0.8c-0.3-0.3-0.7-0.8-1-1.4
		c-0.1-0.3-0.4-1-0.2-1.3c0.1-0.2,0.2-0.1,0.6-0.3c0.6-0.3,0.6-0.7,1-0.9c0.2-0.1,0.4,0,1.3,0.4c1.5,0.7,1.9,0.7,2,1.1
		c0.1,0.2,0,0.4,0,0.8c0,0.3-0.1,1.2-0.4,1.2C32.4,46.3,32.2,44.4,31.1,44.2z"/>
	<path class="st2" d="M33.8,49c-0.2,0.1-0.4,0.3-0.4,0.6c0,0.3,0.1,0.4,0.1,0.6c-0.1,0.2-0.2,0.1-0.4,0.3c-0.2,0.2-0.2,0.3-0.3,0.4
		c-0.2,0-0.5-0.5-0.5-1c0-0.5,0.2-0.8,0.1-0.9c-0.1-0.1-0.2,0.1-0.7,0.3c-0.4,0.2-0.6,0.1-0.8,0.3c-0.2,0.1-0.4,0.4-0.3,0.6
		c0.1,0.2,0.5,0.1,0.9,0.4c0.2,0.2,0.3,0.7,0.2,1c-0.1,0.3-0.4,0.7-0.7,0.7c-0.5,0-0.7-1.4-1.1-1.4c-0.2,0-0.3,0.5-0.4,1.3
		c-0.2,1-0.2,1.2-0.1,1.3c0.1,0.2,0.1,0.2,0.9,0.9c0.7,0.6,0.9,0.9,1.2,0.8c0.1,0,0.3-0.1,0.3-0.2c0.1-0.3-0.3-0.5-0.2-0.8
		c0.1-0.2,0.4-0.1,0.8-0.3c0,0,0.3-0.2,0.3-0.5c0-0.3-0.3-0.6-0.2-0.6s0.4,0,0.6,0.3c0.6,0.7-0.3,1.8,0.2,2.2c0.3,0.3,0.9,0,1.1-0.1
		c0.2-0.1,0.6-0.2,0.7-0.5c0.1-0.5-0.6-1-0.5-1.2c0.1-0.2,0.9,0.4,1.3,0.1c0.1-0.1,0.2-0.4,0.2-0.9c0.1-0.7,0-0.8,0-0.8
		c-0.2-0.1-0.4,0.3-0.6,0.3c-0.2-0.1-0.2-0.3-0.3-0.3c-0.1,0-0.3,0.1-0.5,0.2c-0.4,0.1-0.9-0.1-1-0.4c0-0.3,0.8-1,1.4-0.8
		c0.2,0,0.4,0.1,0.5,0c0.1-0.1,0.1-0.3,0.1-0.3c-0.1-0.3-0.4-0.4-0.9-0.7C34.1,49.3,34,49,33.8,49z"/>
</g>
<g>
	<g id="Ebene_1_00000180365651749209925100000011172361945436377486_">
		<path class="st1" d="M68.3,65.2l-3.9-11L53,52.1l-7.6,8.8l3.9,11L60.7,74L68.3,65.2z M60.5,73.2l-10.6-2L46.3,61l7-8.2l10.6,2
			L67.5,65L60.5,73.2z"/>
		<path class="st2" d="M53.3,52.8l-7,8.2l3.6,10.2l10.6,2l7-8.2l-3.6-10.2L53.3,52.8z M54,66.1l-4.2-0.8l-1.4-4.1l2.8-3.3l4.2,0.8
			l1.4,4.1C56.8,62.8,54,66.1,54,66.1z M62.8,67.9L60,71.2l-4.2-0.8l-1.4-4.1l2.8-3.3l4.2,0.8L62.8,67.9z M61.5,63.4l-4.2-0.8
			l-1.4-4.1l2.8-3.3l4.2,0.8l1.4,4.1L61.5,63.4z"/>
	</g>
	<path class="st3" d="M55.9,54.5c-0.6-0.3-1.1-0.1-1.6-0.6c-0.1-0.1-0.2-0.2-0.3-0.3c-0.3-0.1-0.7,0.2-0.8,0.5
		c-0.1,0.4,0.1,0.7,0.2,0.8c0.4,0.5,1.1,0.6,1.8,0.6c0.4,0,1.4,0.1,1.5-0.3C56.7,55.1,56.3,54.7,55.9,54.5z"/>
	<path class="st3" d="M55.3,56.5c-0.6-0.2-0.9,0.3-1.6,0.2c-0.1,0-0.4-0.1-0.7-0.3c-0.3-0.4-0.1-0.7-0.4-0.9
		c-0.4-0.3-1.6,0.2-1.9,1.1c-0.1,0.3-0.1,0.7,0,0.8c0.2,0.1,0.6-0.6,1.1-0.5c0.4,0,0.4,0.5,1,0.8c0.6,0.3,1.2,0.2,1.6,0.1
		c0.6-0.1,1.4-0.5,1.4-0.8C55.8,56.6,55.4,56.5,55.3,56.5z"/>
	<path class="st3" d="M65.2,60.4c-0.2-0.8-0.4-1-0.5-1.7c-0.1-0.7,0-0.7-0.1-1.4c-0.2-0.9-0.7-1.8-0.8-1.8c-0.1,0-0.1,0.3-0.1,0.5
		c0.1,0.5,0.4,0.6,0.5,1.1c0.1,0.3,0,0.4,0,0.9c0,0.3,0,0.6,0.3,1.5c0.3,1,0.9,2.7,1,2.6C65.6,62.2,65.4,61.2,65.2,60.4z"/>
	<path class="st3" d="M63.9,63.5c0.1-0.2,0.5,0,0.9-0.2c0.3-0.2,0.5-0.7,0.4-0.9c-0.1-0.1-0.3,0-0.7,0c-0.5,0-0.5-0.3-0.8-0.3
		c-0.4,0-0.9,0.6-1,1.2C62.6,63.8,63,64,63,64.7c0,0.5-0.4,0.8-0.3,0.9c0.1,0.2,1.4-0.6,1.4-1.3C64.1,63.9,63.8,63.6,63.9,63.5z"/>
	<path class="st3" d="M66.3,65.2c0.2-0.5,0.4-0.5,0.5-0.8c0.1-0.5-0.2-1.1-0.5-1.1c-0.2,0-0.2,0.3-0.5,0.5c-0.3,0.2-0.6,0-0.7,0.2
		c-0.2,0.2,0.3,0.6,0.2,1c-0.1,0.5-1.2,0.4-1.3,0.8c-0.1,0.3,0.4,0.9,0.9,0.9c0.6,0.1,1-0.6,1.1-0.7C66.1,65.8,66,65.7,66.3,65.2z"
		/>
	<path class="st3" d="M53.1,66.8c0,0-0.1-0.1-0.4-0.2c-0.8-0.3-0.9-0.3-1-0.2c-0.2,0.1-0.4,0.3-0.3,0.4c0,0.2,0.4,0.2,0.4,0.3
		c0,0.1-0.6,0.1-0.7,0.4c-0.1,0.2,0.1,0.6,0.3,0.7c0.4,0.1,0.6-0.6,1-0.6c0.3,0.1,0.3,0.8,0.5,0.8c0.2,0,0.3-0.4,0.4-0.7
		C53.3,67.5,53.4,67.1,53.1,66.8z"/>
	<path class="st3" d="M54.7,69.1c-0.3-0.6-0.5-1-0.6-0.9c-0.2,0,0,0.6-0.3,0.9c-0.3,0.3-0.9,0.1-1.1,0c-0.5-0.1-0.6-0.4-0.8-0.3
		c-0.3,0.1-0.4,0.6-0.3,0.9c0.1,0.3,0.5,0.4,0.5,0.4c0.5,0.1,0.7-0.2,1-0.1c0.1,0.1,0.1,0.2,0.3,0.4c0.2,0.2,0.5,0.7,0.8,0.6
		c0.4,0,0.7-0.6,0.7-1.1C55,69.8,55,69.7,54.7,69.1z"/>
	<path class="st3" d="M50.7,66.5c0.3-0.4,0.4-0.4,0.4-0.5c-0.1-0.2-1.1,0.2-1.6-0.2c-0.2-0.2-0.1-0.2-0.6-1.2
		c-0.3-0.6-0.4-0.9-0.5-0.8c-0.2,0-0.1,0.8,0,1.4c0.1,0.4,0.2,0.8,0.5,1.3c0.3,0.4,0.5,0.4,0.5,0.7c0.1,0.5-0.2,0.8,0,1
		c0.1,0.1,0.4,0.1,0.6-0.1c0.2-0.1,0.1-0.3,0.3-0.7C50.3,67.2,50.4,66.9,50.7,66.5z"/>
	<path class="st3" d="M49.1,58.9c-0.4-0.2-1.2,0.4-1.1,0.7c0,0.2,0.3,0.3,0.6,0.4c0.3,0,0.7-0.2,0.8-0.6
		C49.4,59.3,49.3,59,49.1,58.9z"/>
	<path class="st3" d="M47.9,62.2c-0.4-0.7,0.1-1.4-0.1-1.5c-0.1-0.1-0.4,0.1-0.5,0.4c-0.1,0.2-0.1,0.4-0.1,0.5
		c0,0.3,0.2,0.4,0.3,0.7c0.2,0.6,0.1,1,0.2,1s0.5-0.2,0.5-0.5C48.1,62.5,48,62.4,47.9,62.2z"/>
	<path class="st3" d="M59.7,71.6c-0.1-0.1-0.3,0-0.7,0c-0.2,0-0.4-0.1-0.6-0.1c-0.4-0.1-0.5-0.2-0.8-0.3c-0.3-0.1-0.9-0.2-1,0
		c-0.1,0.2,0.1,0.5,0.4,0.6c0.3,0.1,0.5-0.1,0.9,0c0.3,0.1,0.3,0.2,0.8,0.4c0.2,0.1,0.8,0.3,1.1,0.1C59.8,72.1,59.8,71.7,59.7,71.6z
		"/>
	<path class="st3" d="M62.5,69.4c-0.2-0.1-0.6,0.2-0.6,0.5c0,0.1,0,0.3,0.1,0.4c0.2,0.1,0.6-0.1,0.7-0.4
		C62.7,69.7,62.6,69.4,62.5,69.4z"/>
	<path class="st3" d="M61.9,71.1c-0.1-0.2-0.6-0.3-0.9-0.2c0,0-0.4,0.2-0.4,0.5c0,0.3,0.3,0.5,0.5,0.5C61.5,71.9,62,71.4,61.9,71.1z
		"/>
	<path class="st3" d="M64.7,67.3c-0.1-0.1-0.6,0.6-1,0.4c-0.2-0.1-0.2-0.7-0.3-0.7c-0.1,0-0.2,0.2-0.3,0.5c0,0.4,0.2,0.5,0.3,1
		c0,0.3,0,0.4,0,0.4c0.1,0,0.3-0.4,0.8-1.1C64.6,67.6,64.8,67.3,64.7,67.3z"/>
	<path class="st3" d="M60.6,54.5c-0.4-0.2-0.6,0-1.3-0.1c-0.6-0.1-0.7-0.3-1-0.2c-0.2,0.1-0.4,0.3-0.7,0.7c-0.3,0.3-0.7,0.9-0.6,1
		c0.1,0.1,0.7-0.1,1.2-0.6c0.4-0.3,0.4-0.5,0.6-0.6c0.4-0.1,0.7,0.4,1.4,0.5c0.3,0,0.8,0,0.8-0.2C61,54.9,60.8,54.6,60.6,54.5z"/>
	<path class="st3" d="M62.3,54.8c0,0-0.5-0.1-0.7,0.1c0,0.1,0,0.2,0,0.3c0.1,0.1,0.2,0.1,0.6,0.1c0.7,0,0.7,0,0.7-0.1
		C63,55.1,62.7,54.8,62.3,54.8z"/>
	<path class="st3" d="M51.3,70c-0.3-0.5,0-1.1-0.2-1.2c-0.2-0.2-0.8,0.1-1,0.5c-0.1,0.2-0.1,0.4,0,0.8c0.1,0.4,0.1,0.7,0.3,0.9
		c0.5,0.5,1.8,0,1.8-0.3C52.2,70.4,51.6,70.5,51.3,70z"/>
	<path class="st3" d="M55.9,71c-0.1-0.1-0.3,0.3-0.8,0.3c-0.2,0-0.3,0-0.8-0.1c-0.4,0-0.6,0-0.6,0c-0.1,0.1,1,0.9,1.7,0.5
		C55.8,71.6,56,71.1,55.9,71z"/>
	<polygon class="st1" points="61.4,62.9 63.9,60 62.6,56.4 58.8,55.6 56.3,58.6 57.6,62.2 	"/>
	<polygon class="st1" points="53.8,65.6 56.3,62.7 55,59.1 51.3,58.4 48.8,61.3 50.1,64.9 	"/>
	<polygon class="st1" points="59.8,70.8 62.3,67.8 61.1,64.2 57.3,63.5 54.8,66.4 56.1,70.1 	"/>
	<path class="st2" d="M56.7,59.4c0.2-0.3,0.8,0.2,1.3-0.1c0.2-0.2,0.1-0.3,0.5-0.7c0.4-0.5,0.8-0.5,0.9-0.8c0-0.3-0.2-0.4-0.1-0.7
		c0.1-0.3,0.3-0.3,0.4-0.5c0.1-0.3-0.5-0.6-0.4-0.7c0-0.1,0.3-0.1,1.1,0.1c1.2,0.3,1.3,0.4,1.3,0.5c0,0.3-1,0.4-1,1.1
		c0,0.1,0,0.1,0,0.3c-0.1,0.7-1,0.9-0.9,1.2c0,0.3,0.7,0.4,2,1c0.9,0.4,1.1,0.6,1.1,0.8c0,0.1-0.1,0.2-0.6,0.8
		c-0.4,0.5-0.4,0.6-0.5,0.6c-0.4,0-0.3-1.2-1.2-1.8c-0.4-0.2-0.8-0.4-0.9-0.2c-0.1,0.1,0.2,0.4,0.1,0.8c-0.1,0.3-0.4,0.3-0.4,0.6
		c-0.1,0.4,0.9,0.9,0.8,1c0,0.1-0.4-0.1-1-0.2c-0.5-0.1-0.8,0-0.9-0.2c-0.1-0.1,0-0.3,0.1-0.5c0.4-1,0.7-1.2,0.5-1.4
		c-0.1-0.2-0.6-0.2-0.9,0.1c-0.2,0.2-0.3,0.4-0.3,0.4c-0.1,0.2-0.2,0.2-0.2,0.2c-0.1,0-0.2-0.2-0.4-0.9
		C56.7,59.5,56.6,59.4,56.7,59.4z"/>
	<path class="st2" d="M53.3,60.9c-0.5,0.2-0.8,0.9-0.7,1.2c0.2,0.4,1.1,0,1.5,0.5c0.3,0.3,0.1,0.7,0.4,0.9c0.4,0.2,1-0.2,1-0.1
		c0.1,0.1-0.3,0.4-0.9,1.2c-0.3,0.4-0.5,0.6-0.6,0.6c-0.1-0.1,0-0.5-0.2-0.9C53.7,64,53.5,64,53,63.8c-0.4-0.2-1-0.4-1.5-0.7
		c-0.3-0.2-0.9-0.6-0.8-1.1c0-0.2,0.2-0.2,0.4-0.5c0.4-0.6,0.2-1,0.5-1.3c0.2-0.2,0.4-0.2,1.3-0.3c1.6-0.1,2-0.3,2.3,0
		c0.2,0.1,0.2,0.3,0.4,0.7c0.1,0.3,0.5,1.1,0.3,1.3C55.5,62.1,54.3,60.6,53.3,60.9z"/>
	<path class="st2" d="M58,63.8c-0.2,0.1-0.2,0.5-0.1,0.7s0.3,0.2,0.3,0.5c0,0.2-0.1,0.2-0.2,0.5c-0.1,0.3,0,0.4-0.1,0.4
		c-0.1,0.1-0.7-0.2-1-0.6c-0.3-0.4-0.2-0.8-0.3-0.8c-0.1,0-0.2,0.2-0.5,0.6c-0.3,0.3-0.4,0.4-0.5,0.6c-0.1,0.2-0.1,0.5,0,0.7
		c0.2,0.2,0.5-0.2,0.9-0.1c0.3,0.1,0.6,0.4,0.7,0.7c0.1,0.3,0,0.8-0.2,1c-0.5,0.2-1.3-0.8-1.6-0.7c-0.1,0.1,0,0.5,0.3,1.4
		c0.3,1,0.5,1.1,0.5,1.2c0.1,0.1,0.2,0.1,1.2,0.4c0.9,0.2,1.2,0.3,1.4,0.1C59,70.3,59,70.2,59,70c0-0.3-0.5-0.3-0.5-0.6
		c0-0.2,0.4-0.3,0.5-0.7c0-0.1,0.1-0.3,0-0.6c-0.1-0.3-0.5-0.4-0.5-0.5c0-0.1,0.4-0.2,0.7,0c0.8,0.3,0.7,1.7,1.3,1.9
		c0.4,0.1,0.8-0.5,0.9-0.6c0.2-0.2,0.4-0.5,0.3-0.8c-0.1-0.5-1-0.5-1-0.8c0-0.2,1-0.1,1.2-0.6c0.1-0.1,0-0.4-0.2-0.9
		c-0.3-0.7-0.3-0.7-0.4-0.7c-0.2,0-0.2,0.5-0.4,0.5c-0.2,0-0.3-0.2-0.5-0.1c-0.2,0-0.2,0.2-0.3,0.4c-0.3,0.3-0.9,0.3-1,0.1
		c-0.2-0.3,0.2-1.2,0.8-1.4c0.1-0.1,0.4-0.1,0.5-0.3c0.1-0.1-0.1-0.3-0.1-0.3c-0.2-0.2-0.5-0.1-1.1-0.2C58.4,63.9,58.2,63.7,58,63.8
		z"/>
</g>
</svg>
