<?xml version="1.0" encoding="utf-8"?>
<!-- Generator: Adobe Illustrator 26.0.3, SVG Export Plug-In . SVG Version: 6.00 Build 0)  -->
<svg version="1.1" id="Ebene_1" xmlns="http://www.w3.org/2000/svg" xmlns:xlink="http://www.w3.org/1999/xlink" x="0px" y="0px"
	 viewBox="0 0 100 100" style="enable-background:new 0 0 100 100;" xml:space="preserve">
<style type="text/css">
	.st0{fill:#DF0000;stroke:#000000;stroke-miterlimit:10;}
	.st1{fill:#D70000;stroke:#000000;stroke-miterlimit:10;}
</style>
<g id="Ebene_2_00000093860788734264317370000010671531211922489223_">
</g>
<path class="st0" d="M50.4,82.9C27.9,82.4,6.8,45.4,15,32.3c8.5-13.5,47.3-0.4,48.8-6.3c0.8-3.3-11.2-10.9-24-11.6
	c-8.4-0.4-23,1.9-25.3,9.3c-5,16.2,53,42.7,48,54.9C60.6,83.1,51.7,82.9,50.4,82.9z"/>
<path class="st1" d="M50.2,8.4c-0.7,1.6,20.2,8.3,19.6,16.2C69,33.2,43.7,36.6,44,37.8c0.4,1.6,48.5-2.7,49.1-12.4
	C93.7,16.1,51.2,6.1,50.2,8.4z"/>
</svg>
