<?xml version="1.0" encoding="utf-8"?>
<!-- Generator: Adobe Illustrator 26.0.3, SVG Export Plug-In . SVG Version: 6.00 Build 0)  -->
<svg version="1.1" id="Ebene_1" xmlns="http://www.w3.org/2000/svg" xmlns:xlink="http://www.w3.org/1999/xlink" x="0px" y="0px"
	 viewBox="0 0 100 100" style="enable-background:new 0 0 100 100;" xml:space="preserve">
<style type="text/css">
	.st0{fill:#FFFFFF;stroke:#000000;stroke-miterlimit:10;}
</style>
<g id="Ebene_2_00000093860788734264317370000010671531211922489223_">
</g>
<circle class="st0" cx="50" cy="50" r="25"/>
<rect x="47.4" y="31.8" transform="matrix(0.971 -0.239 0.239 0.971 -8.2603 12.7104)" class="st0" width="1.7" height="17.3"/>
<rect x="53.3" y="54.5" transform="matrix(0.866 0.5 -0.5 0.866 35.2243 -20.9373)" class="st0" width="6.8" height="1.5"/>
<rect x="70.1" y="50.9" class="st0" width="4.1" height="1.5"/>
<rect x="25.7" y="50.9" class="st0" width="4.1" height="1.5"/>
<rect x="48.8" y="27.1" transform="matrix(6.123234e-17 -1 1 6.123234e-17 23.014 78.6526)" class="st0" width="4.1" height="1.5"/>
<rect x="48.8" y="71.4" transform="matrix(6.123234e-17 -1 1 6.123234e-17 -21.3474 123.014)" class="st0" width="4.1" height="1.5"/>
<rect x="50.5" y="50.9" transform="matrix(0.866 0.5 -0.5 0.866 32.6948 -18.7053)" class="st0" width="1.5" height="1.5"/>
</svg>
