<?xml version="1.0" encoding="UTF-8" standalone="no" ?>
<!DOCTYPE svg PUBLIC "-//W3C//DTD SVG 1.1//EN" "http://www.w3.org/Graphics/SVG/1.1/DTD/svg11.dtd">
<svg xmlns="http://www.w3.org/2000/svg" xmlns:xlink="http://www.w3.org/1999/xlink" version="1.1" width="640" height="480" viewBox="0 0 640 480" xml:space="preserve">
<desc>Created with Fabric.js 3.6.6</desc>
<defs>
</defs>
<g transform="matrix(1 0 0 1 300.97 239.65)"  >
<path style="stroke: rgb(255,0,0); stroke-opacity: 0; stroke-width: 1; stroke-dasharray: none; stroke-linecap: butt; stroke-dashoffset: 0; stroke-linejoin: miter; stroke-miterlimit: 10; fill: rgb(248,32,32); fill-rule: nonzero; opacity: 1;"  transform=" translate(-51.97, -45.65)" d="M 35.2 86.8 C 23.1 85.2 11.9 73.6 9.6 60.7 C 6.3 42.4 21.7 28.5 26.3 24.3 C 41.4 10.8 62.3 8.1 78.1 12.8 c 5.9 1.8 15.1 4.5 18.7 12.4 c 6.2 14 -10 32.8 -11.8 32 c -1.2 -0.5 5.5 -9.8 3.3 -21.8 C 85.8 21.7 72.6 10.5 59.2 6.3 c -1.3 -0.4 -25.4 -7.6 -42 8.2 c -2.2 2.1 -9.3 9.1 -11.1 20.3 C 3.2 54 18.3 72.6 33.4 78.3 c 9.9 3.7 19.1 1.7 19.3 3.6 C 53 83.7 44.1 87.9 35.2 86.8 z" stroke-linecap="round" />
</g>
<g transform="matrix(1 0 0 1 327.92 252.45)"  >
<path style="stroke: rgb(255,0,0); stroke-opacity: 0; stroke-width: 1; stroke-dasharray: none; stroke-linecap: butt; stroke-dashoffset: 0; stroke-linejoin: miter; stroke-miterlimit: 10; fill: rgb(236,0,0); fill-rule: nonzero; opacity: 1;"  transform=" translate(-82.92, -60.45)" d="M 98.2 59.1 C 97.5 58 84.1 67.9 79.5 64 c -4.9 -4.3 4.2 -21.4 3.4 -21.7 C 81.7 41.8 63 73.3 68.7 78 C 74.1 82.5 99.1 60.7 98.2 59.1 z" stroke-linecap="round" />
</g>
</svg>