<?xml version="1.0" encoding="utf-8"?>
<!-- Generator: Adobe Illustrator 26.0.3, SVG Export Plug-In . SVG Version: 6.00 Build 0)  -->
<svg version="1.1" id="Ebene_1" xmlns="http://www.w3.org/2000/svg" xmlns:xlink="http://www.w3.org/1999/xlink" x="0px" y="0px"
	 viewBox="0 0 100 100" style="enable-background:new 0 0 100 100;" xml:space="preserve">
<style type="text/css">
	.st0{stroke:#FFFFFF;stroke-width:2;stroke-miterlimit:10;}
	.st1{stroke:#000000;stroke-width:2;stroke-miterlimit:10;}
</style>
<g id="Ebene_2_00000093860788734264317370000010671531211922489223_">
</g>
<g id="Ebene_1_00000017510764199299988230000010460311392665681541_">
	<polygon class="st0" points="43.8,5.8 50.1,2.6 56.4,5.8 56.4,12.4 50.1,15.6 43.8,12.4 	"/>
</g>
<path class="st0" d="M79.1,87.2c-6.8,1.2-16.6,2.4-28.5,2.4S28.8,88.4,22,87.2c0,0.9,0,1.9,0,2.8c7.4,1,17.4,2,29.2,1.9
	C62.4,92,71.9,91,79.1,90C79.1,89.1,79.1,88.2,79.1,87.2z"/>
<path class="st0" d="M50.1,19.8c-5.1,5.6-12.2,14.7-17,27.5c-3.9,10.5-4.9,19.9-5,26.4c5.4-1.7,14.1-3.7,24.8-3.3
	c7.9,0.3,14.4,1.8,19,3.3c-0.7-7.6-2.5-18-7.4-29.6C60.2,33.8,54.7,25.6,50.1,19.8z"/>
<path class="st1" d="M35,48.9"/>
<path class="st0" d="M90,48.8c-4.3,1.6-10.7,4.6-16.9,10c-5.2,4.5-8.4,9-10.4,12.3c3.3,0.4,8.3,1.5,13.7,4.3c3.9,2,6.8,4.4,8.8,6.2
	c1.9-4,4.1-9.8,5.1-16.9C91,58.3,90.6,52.9,90,48.8z"/>
<path class="st0" d="M11.8,48.8c4.3,1.6,10.7,4.6,16.9,10c5.2,4.5,8.4,9,10.4,12.3c-3.3,0.4-8.3,1.5-13.7,4.3
	c-3.9,2-6.8,4.4-8.8,6.2c-1.9-4-4.1-9.8-5.1-16.9C10.7,58.3,11.1,52.9,11.8,48.8z"/>
<g id="Ebene_1_00000034809283180655894840000015559818171371054475_">
	<polygon class="st0" points="4.8,41.1 6.8,38.8 10,39.3 11.1,42 9.1,44.2 5.9,43.8 	"/>
</g>
<g id="Ebene_1_00000013177979414690649600000010244485264854012299_">
	<polygon class="st0" points="96.4,43.8 93.2,44.2 91.2,42 92.3,39.3 95.5,38.8 97.5,41.1 	"/>
</g>
</svg>
