<?xml version="1.0" encoding="utf-8"?>
<!-- Generator: Adobe Illustrator 26.0.3, SVG Export Plug-In . SVG Version: 6.00 Build 0)  -->
<svg version="1.1" id="Ebene_1" xmlns="http://www.w3.org/2000/svg" xmlns:xlink="http://www.w3.org/1999/xlink" x="0px" y="0px"
	 viewBox="0 0 100 100" style="enable-background:new 0 0 100 100;" xml:space="preserve">
<style type="text/css">
	.st0{fill:#FFFFFF;stroke:#000000;stroke-width:2;stroke-miterlimit:10;}
	.st1{fill:#FFC600;}
	.st2{fill:#FFD700;}
	.st3{fill:#E6BE00;}
	.st4{fill:#6C0074;stroke:#000000;stroke-miterlimit:10;}
	.st5{fill:#B40014;stroke:#000000;stroke-width:0.25;stroke-miterlimit:10;}
	.st6{fill:#940068;stroke:#000000;stroke-width:2;stroke-miterlimit:10;}
	.st7{fill:#B40014;}
	.st8{fill:#B40014;stroke:#000000;stroke-miterlimit:10;}
</style>
<g id="Ebene_1_00000009555231547046583080000011892253992037278349_">
	<g id="Ebene_2_00000037695081456361326870000000537167486581588369_">
	</g>
	<g id="Ebene_1_00000061445211855329728190000003209767103334527892_">
		<polygon class="st0" points="8,25.8 50,1.6 92,25.8 92,74.3 50,98.6 8,74.3 		"/>
	</g>
</g>
<g>
	<g id="Ebene_1_00000140009915772017522300000016664586206789009556_">
		<path class="st1" d="M78.1,48.9l-7-19.8l-20.5-3.8L37,41.2l7,19.7l20.5,3.8L78.1,48.9z M64.1,63.3l-19-3.6l-6.5-18.3l12.6-14.7
			l19,3.6l6.5,18.3L64.1,63.3z"/>
		<path class="st2" d="M51.2,26.7L38.6,41.4l6.5,18.3l19,3.6l12.6-14.7l-6.5-18.3L51.2,26.7z M52.4,50.5l-7.5-1.4l-2.5-7.4l5-5.9
			l7.5,1.4l2.5,7.4L52.4,50.5z M68.3,53.9l-5,5.9l-7.5-1.4L53.3,51l5-5.9l7.5,1.4L68.3,53.9z M65.9,45.7l-7.5-1.4l-2.5-7.4l5-5.9
			l7.5,1.4l2.5,7.4L65.9,45.7z"/>
	</g>
	<path class="st3" d="M55.9,29.7c-1.1-0.5-2-0.2-2.9-1.1c-0.2-0.2-0.4-0.4-0.5-0.5c-0.5-0.2-1.3,0.4-1.4,0.9
		c-0.2,0.7,0.2,1.3,0.4,1.4c0.7,0.9,2,1.1,3.2,1.1c0.7,0,2.5,0.2,2.7-0.5C57.3,30.8,56.6,30.1,55.9,29.7z"/>
	<path class="st3" d="M54.8,33.3c-1.1-0.4-1.6,0.5-2.9,0.4c-0.2,0-0.7-0.2-1.3-0.5c-0.5-0.7-0.2-1.3-0.7-1.6c-0.7-0.5-2.9,0.4-3.4,2
		c-0.2,0.5-0.2,1.3,0,1.4c0.4,0.2,1.1-1.1,2-0.9c0.7,0,0.7,0.9,1.8,1.4s2.2,0.4,2.9,0.2c1.1-0.2,2.5-0.9,2.5-1.4
		C55.7,33.5,54.8,33.3,54.8,33.3z"/>
	<path class="st3" d="M72.6,40.3c-0.4-1.4-0.7-1.8-0.9-3.1c-0.2-1.3,0-1.3-0.2-2.5c-0.4-1.6-1.3-3.2-1.4-3.2c-0.2,0-0.2,0.5-0.2,0.9
		c0.2,0.9,0.7,1.1,0.9,2c0.2,0.5,0,0.7,0,1.6c0,0.5,0,1.1,0.5,2.7c0.5,1.8,1.6,4.8,1.8,4.7C73.3,43.5,72.9,41.7,72.6,40.3z"/>
	<path class="st3" d="M70.2,45.9c0.2-0.4,0.9,0,1.6-0.4c0.5-0.4,0.9-1.3,0.7-1.6c-0.2-0.2-0.5,0-1.3,0c-0.9,0-0.9-0.5-1.4-0.5
		c-0.7,0-1.6,1.1-1.8,2.2c-0.2,1.1,0.7,1.4,0.7,2.5c0,0.9-0.7,1.4-0.5,1.6c0.2,0.4,2.5-1.1,2.5-2.3C70.6,46.6,70,46.2,70.2,45.9z"/>
	<path class="st3" d="M74.5,48.9c0.4-0.9,0.7-0.9,0.9-1.4c0.2-0.9-0.4-2-0.9-2c-0.4,0-0.4,0.5-0.9,1.1c-0.5,0.4-1.1,0-1.3,0.4
		c-0.4,0.4,0.5,1.1,0.4,1.8c-0.2,0.9-2.2,0.7-2.3,1.4c-0.2,0.5,0.7,1.6,1.6,1.6c1.1,0.2,1.8-1.1,2-1.3C74.2,50,74,49.8,74.5,48.9z"
		/>
	<path class="st3" d="M50.8,51.8c0,0-0.2-0.2-0.7-0.4c-1.4-0.5-1.6-0.5-1.8-0.4c-0.4,0.2-0.7,0.5-0.5,0.7c0,0.4,0.7,0.4,0.7,0.5
		s-1.1,0.2-1.3,0.7c-0.2,0.4,0.2,1.1,0.5,1.3c0.7,0.2,1.1-1.1,1.8-1.1c0.5,0.2,0.5,1.4,0.9,1.4s0.5-0.7,0.7-1.3
		C51.2,53,51.4,52.3,50.8,51.8z"/>
	<path class="st3" d="M53.7,55.9c-0.5-1.1-0.9-1.8-1.1-1.6c-0.4,0,0,1.1-0.5,1.6s-1.6,0.2-2,0c-0.9-0.2-1.1-0.7-1.4-0.5
		c-0.5,0.2-0.7,1.1-0.5,1.6s0.9,0.7,0.9,0.7c0.9,0.2,1.3-0.4,1.8-0.2c0.2,0.2,0.2,0.4,0.5,0.7s0.9,1.3,1.4,1.1c0.7,0,1.3-1.1,1.3-2
		C54.2,57.2,54.2,57,53.7,55.9z"/>
	<path class="st3" d="M46.5,51.3c0.5-0.7,0.7-0.7,0.7-0.9C47,50,45.4,50.9,44.3,50c-0.4-0.4-0.2-0.4-1.1-2.2
		c-0.5-1.1-0.7-1.6-0.9-1.4c-0.4,0-0.2,1.4,0,2.5c0.2,0.7,0.4,1.4,0.9,2.3c0.5,0.7,0.9,0.7,0.9,1.3c0.2,0.9-0.4,1.4,0,1.8
		c0.2,0.2,0.7,0.2,1.1-0.2c0.4-0.2,0.2-0.5,0.5-1.3C45.8,52.5,46,52,46.5,51.3z"/>
	<path class="st3" d="M43.6,37.8c-0.7-0.4-2.2,0.7-2,1.3c0,0.4,0.5,0.5,1.1,0.7c0.5,0,1.3-0.4,1.4-1.1C44.2,38.3,44,38,43.6,37.8z"
		/>
	<path class="st3" d="M41.3,43.5c-0.7-1.3,0.2-2.5-0.2-2.7c-0.2-0.2-0.7,0.2-0.9,0.7C40,41.9,40,42.2,40,42.4c0,0.5,0.4,0.7,0.5,1.3
		c0.4,1.1,0.2,1.8,0.4,1.8c0.2,0.2,0.9-0.4,0.9-0.9C41.9,44.1,41.7,44.1,41.3,43.5z"/>
	<path class="st3" d="M62.7,60.4c-0.2-0.2-0.5,0-1.3,0c-0.4,0-0.7-0.2-1.1-0.2c-0.7-0.2-0.9-0.4-1.4-0.5s-1.6-0.4-1.8,0
		s0.2,0.9,0.7,1.1c0.5,0.2,0.9-0.2,1.6,0c0.5,0.2,0.5,0.4,1.4,0.7c0.4,0.2,1.4,0.5,2,0.2C62.9,61.3,62.9,60.8,62.7,60.4z"/>
	<path class="st3" d="M67.5,56.5c-0.4-0.2-1.1,0.4-1.1,0.9c0,0.2,0,0.5,0.2,0.7c0.4,0.2,1.1-0.2,1.3-0.7
		C68.1,57,67.9,56.5,67.5,56.5z"/>
	<path class="st3" d="M66.6,59.5c-0.2-0.4-1.1-0.5-1.6-0.4c0,0-0.7,0.4-0.7,0.9s0.5,0.9,1.1,0.9C65.9,60.9,66.8,60,66.6,59.5z"/>
	<path class="st3" d="M71.7,52.7c-0.2-0.2-1.1,1.1-1.8,0.7c-0.4-0.2-0.4-1.3-0.5-1.3S69,52.5,68.9,53c0,0.7,0.4,0.9,0.5,1.8
		c0,0.5,0,0.7,0,0.7c0.2,0,0.5-0.7,1.4-2C71.5,53.2,71.8,52.7,71.7,52.7z"/>
	<path class="st3" d="M64.3,29.9c-0.7-0.4-1.1,0-2.3-0.2c-1.1-0.2-1.3-0.5-1.8-0.4c-0.4,0.2-0.7,0.5-1.3,1.3
		c-0.5,0.5-1.3,1.6-1.1,1.8s1.3-0.2,2.2-1.1c0.7-0.5,0.7-0.9,1.1-1.1c0.7-0.2,1.3,0.7,2.5,0.9c0.5,0,1.4,0,1.4-0.4
		C65,30.4,64.7,30.1,64.3,29.9z"/>
	<path class="st3" d="M67.4,30.2c0,0-0.9-0.2-1.3,0.2c0,0.2,0,0.4,0,0.5c0.2,0.2,0.4,0.2,1.1,0.2c1.3,0,1.3,0,1.3-0.2
		C68.6,30.8,68.1,30.4,67.4,30.2z"/>
	<path class="st3" d="M47.6,57.5c-0.5-0.9,0-2-0.4-2.2c-0.4-0.4-1.4,0.2-1.8,0.9c-0.2,0.4-0.2,0.7,0,1.4s0.2,1.3,0.5,1.6
		c1.1,0.9,3.2,0,3.2-0.5C49.2,58.3,48.1,58.4,47.6,57.5z"/>
	<path class="st3" d="M55.9,59.3c-0.2-0.2-0.5,0.5-1.4,0.5c-0.4,0-0.5,0-1.4-0.2c-0.7,0-1.1,0-1.1,0c-0.2,0.2,1.8,1.6,3.1,0.9
		C55.7,60.4,56,59.5,55.9,59.3z"/>
	<polygon class="st1" points="65.7,44.8 70.2,39.6 67.9,33.1 61.1,31.9 56.6,37.1 58.9,43.5 	"/>
	<polygon class="st1" points="52.1,49.8 56.6,44.4 54.2,38 47.6,36.7 43.1,41.9 45.3,48.4 	"/>
	<polygon class="st1" points="62.9,59 67.4,53.8 65.2,47.3 58.4,45.9 53.9,51.3 56.2,57.7 	"/>
	<path class="st2" d="M57.3,38.5c0.4-0.5,1.4,0.4,2.3-0.2c0.4-0.4,0.2-0.5,0.9-1.3c0.7-0.9,1.4-0.9,1.6-1.4c0-0.5-0.4-0.7-0.2-1.3
		c0.2-0.5,0.5-0.5,0.7-0.9c0.2-0.5-0.9-1.1-0.7-1.3c0-0.2,0.5-0.2,2,0.2c2.2,0.5,2.3,0.7,2.3,0.9c0,0.5-1.8,0.7-1.8,2
		c0,0.2,0,0.2,0,0.5c-0.2,1.3-1.8,1.6-1.6,2.2c0,0.5,1.3,0.7,3.6,1.8c1.6,0.7,2,1.1,2,1.4c0,0.2-0.2,0.4-1.1,1.4
		c-0.7,0.9-0.7,1.1-0.9,1.1c-0.7,0-0.5-2.2-2.2-3.2c-0.7-0.4-1.4-0.7-1.6-0.4c-0.2,0.2,0.4,0.7,0.2,1.4c-0.2,0.5-0.7,0.5-0.7,1.1
		c-0.2,0.7,1.6,1.6,1.4,1.8c0,0.2-0.7-0.2-1.8-0.4c-0.9-0.2-1.4,0-1.6-0.4c-0.2-0.2,0-0.5,0.2-0.9c0.7-1.8,1.3-2.2,0.9-2.5
		c-0.2-0.4-1.1-0.4-1.6,0.2c-0.4,0.4-0.5,0.7-0.5,0.7c-0.2,0.4-0.4,0.4-0.4,0.4c-0.2,0-0.4-0.4-0.7-1.6
		C57.3,38.7,57.1,38.7,57.3,38.5z"/>
	<path class="st2" d="M51.2,41.2c-0.9,0.4-1.4,1.6-1.3,2.2c0.4,0.7,2,0,2.7,0.9c0.5,0.5,0.2,1.3,0.7,1.6c0.7,0.4,1.8-0.4,1.8-0.2
		c0.2,0.2-0.5,0.7-1.6,2.2c-0.5,0.7-0.9,1-1.1,1c-0.2-0.2,0-0.9-0.4-1.6c-0.4-0.4-0.5-0.5-1.6-0.7c-0.7-0.4-1.8-0.7-2.7-1.3
		c-0.5-0.4-1.6-1.1-1.4-2c0-0.4,0.4-0.4,0.7-0.9c0.7-1.1,0.4-1.8,0.9-2.3c0.4-0.4,0.7-0.4,2.3-0.5c2.9-0.2,3.6-0.5,4.1,0
		c0.4,0.2,0.4,0.5,0.7,1.3c0.2,0.5,0.9,2,0.5,2.3S53,40.7,51.2,41.2z"/>
	<path class="st2" d="M59.6,46.6c-0.4,0.2-0.4,0.9-0.2,1.3c0.2,0.4,0.5,0.4,0.5,0.9c0,0.4-0.2,0.4-0.4,0.9s0,0.7-0.2,0.7
		c-0.2,0.2-1.3-0.4-1.8-1.1c-0.5-0.7-0.4-1.4-0.5-1.4c-0.2,0-0.4,0.4-0.9,1.1c-0.5,0.5-0.7,0.7-0.9,1.1c-0.2,0.4-0.2,0.9,0,1.3
		c0.4,0.4,0.9-0.4,1.6-0.2c0.5,0.2,1.1,0.7,1.3,1.3c0.2,0.5,0,1.4-0.4,1.8c-0.9,0.4-2.3-1.4-2.9-1.3c-0.2,0.2,0,0.9,0.5,2.5
		c0.5,1.8,0.9,2,0.9,2.2c0.2,0.2,0.4,0.2,2.2,0.7c1.6,0.4,2.2,0.5,2.5,0.2c0.2-0.2,0.4-0.4,0.4-0.7c0-0.5-0.9-0.5-0.9-1.1
		c0-0.4,0.7-0.5,0.9-1.3c0-0.2,0.2-0.5,0-1.1s-0.9-0.7-0.9-0.9s0.7-0.4,1.3,0c1.4,0.5,1.3,3.1,2.3,3.4c0.7,0.2,1.4-0.9,1.6-1.1
		c0.4-0.4,0.7-0.9,0.5-1.4c-0.2-0.9-1.8-0.9-1.8-1.4s1.8-0.2,2.2-1.1c0.2-0.2,0-0.7-0.4-1.6c-0.4-1.4-0.4-1.4-0.5-1.4
		c-0.4,0-0.4,0.9-0.7,0.9c-0.3,0-0.5-0.4-0.9-0.2c-0.4,0-0.4,0.4-0.5,0.7c-0.5,0.5-1.6,0.5-1.8,0.2c-0.4-0.5,0.4-2.2,1.4-2.5
		c0.2-0.2,0.7-0.2,0.9-0.5c0.2-0.2-0.2-0.5-0.2-0.5c-0.4-0.4-0.9-0.2-2-0.4C60.3,46.6,60,46.2,59.6,46.6z"/>
</g>
<rect x="26.9" y="46.7" class="st4" width="61.3" height="30"/>
<rect x="24.7" y="59.6" class="st5" width="63.6" height="2.2"/>
<rect x="-5.3" y="41.3" transform="matrix(0.2413 -0.9705 0.9705 0.2413 -22.2554 62.0505)" class="st6" width="67.8" height="8"/>
<path class="st7" d="M57.8,56.8c-1,0-2,0-3,0c0,6.6,0,13.2,0,19.9h3V56.8z"/>
<path class="st8" d="M28.1,38.4c1-3.6-2.7-8.6-4.7-8.2c-1.9,0.3-3.4,5.9-2.2,10.4c0.9,3.6,3,4.6,2.8,7.8c0,0.5-0.3,4-3.1,5.1
	c-2.3,0.9-5.4-0.4-5.8-2c-0.4-1.5,1.8-3.3,6.2-6.9C26.1,40.7,27.6,40.4,28.1,38.4z"/>
<path class="st7" d="M54.7,57.9c0.3,0.5,2.9-0.1,3-1.1c0-0.2-0.1-0.4,0-0.7c0.1-0.6,0.5-1.1,0.7-1.1c0.5,0.1,0.1,3.9-0.1,5.8
	c-0.6,10.7-0.9,16.1,1.7,18.5c1.9,1.8,5.3,2.7,7,1.4c0.6-0.4,1.2-1.2,1-1.9c-0.5-1.4-4.4,0.1-6.6-1.7c-0.9-0.7-1.5-2-0.7-15.7
	c0,0,0.2-2.9-1.1-7c-0.5-1.6-0.9-2.3-1.4-2.4c-1.3-0.2-2.9,3-3.1,3.4c-0.1,0.2-0.4,0.8-0.4,1.3c0,0.1,0,0.3,0,0.6
	C54.7,57.8,54.7,57.9,54.7,57.9z"/>
</svg>
