<?xml version="1.0" encoding="utf-8"?>
<!-- Generator: Adobe Illustrator 26.0.3, SVG Export Plug-In . SVG Version: 6.00 Build 0)  -->
<svg version="1.1" xmlns="http://www.w3.org/2000/svg" xmlns:xlink="http://www.w3.org/1999/xlink" x="0px" y="0px"
	 viewBox="0 0 100 100" style="enable-background:new 0 0 100 100;" xml:space="preserve">
<style type="text/css">
	.st0{fill:#603726;stroke:#000000;stroke-width:2;stroke-miterlimit:10;}
	.st1{fill:#9F8769;stroke:#000000;stroke-width:0.5;stroke-miterlimit:10;}
	.st2{fill:#5D4135;stroke:#000000;stroke-width:0.5;stroke-miterlimit:10;}
	.st3{fill:#493127;stroke:#000000;stroke-width:0.5;stroke-miterlimit:10;}
	.st4{fill:#493127;stroke:#000000;stroke-width:0.25;stroke-miterlimit:10;}
	.st5{fill:#5D4135;stroke:#000000;stroke-width:0.25;stroke-miterlimit:10;}
	.st6{fill:#83533A;stroke:#000000;stroke-miterlimit:10;}
	.st7{fill:#855B3A;stroke:#000000;stroke-width:0.5;stroke-miterlimit:10;}
	.st8{fill:#3B733A;stroke:#000000;stroke-miterlimit:10;}
	.st9{fill:#3B873A;stroke:#000000;stroke-width:0.5;stroke-miterlimit:10;}
	.st10{fill:#9F6D36;stroke:#000000;stroke-width:0.75;stroke-miterlimit:10;}
</style>
<g id="Ebene_1">
	<g id="Ebene_2_00000037695081456361326870000000537167486581588369_">
	</g>
	<g id="Ebene_1_00000061445211855329728190000003209767103334527892_">
		<polygon class="st0" points="8,25.79 49.97,1.57 91.97,25.84 92,74.34 50.03,98.57 8.03,74.29 		"/>
	</g>
	<path class="st1" d="M62.07,86.07"/>
	<path class="st2" d="M36.81,13.41c-2.17-0.97-3.96,2.48-10.81,6.22c-7.05,3.84-10.2,2.95-12.74,6.67c-1.91,2.8-2.59,6.94-1.04,8.3
		c2.19,1.91,8.09-0.95,10.81-2.67c4.26-2.69,4.02-4.53,8-6.37c3.98-1.84,5.92-0.78,7.41-2.67C40.56,20.2,39.38,14.55,36.81,13.41z"
		/>
	<path class="st3" d="M55.19,34.15c-2.67-1.67-8.2,0.88-10.96,4.74c-4.38,6.11-1.88,15.63,0.44,16c2.41,0.39,4.81-9.05,7.26-8.59
		c2.93,0.54,0.41,14.27,5.63,16.59c3.89,1.73,9.62-3.97,10.37-4.74c4.16-4.24,7.31-11.71,4.74-14.81
		c-2.92-3.53-11.09,1.13-14.81-3.26C55.92,37.79,57.14,35.36,55.19,34.15z"/>
	<path class="st3" d="M60.37,11.04c-4.03-0.53-10.3,7.1-8.89,12.44C52.96,29.09,62.5,31.06,62,35.33c-0.15,1.3-1.15,1.92-0.74,2.67
		c0.71,1.31,3.97-0.23,8.89,0.15c5.18,0.4,6.83,2.5,8.44,1.33c1.88-1.36,2-5.88,0-8.74c-2.48-3.55-6.31-1.81-9.48-5.48
		c-2.14-2.47-0.9-3.95-3.56-8.59C63.96,13.87,62.5,11.32,60.37,11.04z"/>
	<path class="st3" d="M14,70.74c-0.66,3.46,7.73,9.69,16.59,11.56c5.64,1.19,8.67,0.02,11.7,2.81c3.24,2.98,2.33,6.65,4.89,7.56
		c2.96,1.04,8.05-2.47,9.33-7.11c1.38-4.99-1.78-10.8-5.78-12.15c-5.36-1.8-10.01,5.16-14.96,2.81c-2.34-1.11-1.5-2.75-4.89-5.48
		c-0.86-0.69-5.73-4.62-11.56-3.26C18.13,67.76,14.41,68.63,14,70.74z"/>
	<path class="st3" d="M13.11,38.15c1.15-1.51,2.94-1.95,6.52-2.81c3.39-0.82,5.76-1.4,7.11-0.15c1.22,1.14,0.94,3.17,0.44,6.37
		c-0.23,1.47-1.6,10.37-4.44,10.52c-1.9,0.1-2.78-3.78-4.15-3.56c-2.55,0.42-0.92,14.07-4.3,14.96c-1.34,0.35-3.22-1.35-4-3.11
		c-1.6-3.61,2.11-5.87,2.67-12.44C13.41,42.6,11.28,40.56,13.11,38.15z"/>
	<path class="st3" d="M35.04,27.93c-2.4-0.37-4.81,1.19-5.48,3.41c-0.03,0.1-0.68,2.34,0.59,3.85c2.09,2.48,8.09,1.49,9.04-1.33
		C39.86,31.83,38.11,28.4,35.04,27.93z"/>
	<path class="st2" d="M71.48,20.67c0.23,1.76,0.35,2.65,0.74,3.26c1.14,1.79,3.55,2.1,7.26,2.52c2.93,0.33,5.05,0.57,5.33-0.15
		c0.34-0.86-2.38-2.05-7.85-6.52c-3.05-2.49-4.55-4.03-5.33-3.56C70.95,16.63,71.17,18.32,71.48,20.67z"/>
	<path class="st2" d="M76.52,57.85c-0.52-1.35-1.17-3.39-1.48-5.93c-0.12-0.97-1.04-8.48,1.48-9.48c1.36-0.54,3.16,1.03,3.85,1.63
		c1.29,1.13,3.03,3.26,3.85,8.89c0.87,5.95,0.12,11.69-0.59,11.7c-1.13,0.03-2.6-10.93-3.56-10.81c-0.55,0.07-0.18,3.66-1.78,4.3
		C77.7,58.38,77.03,58.14,76.52,57.85z"/>
	<path class="st2" d="M46.74,6.44c-3.73,2.76-5.59,4.13-5.93,4.89c-1.71,3.81,2.45,6.77,0.59,11.41c-0.72,1.8-1.56,1.87-1.93,3.7
		c-0.43,2.17,0.09,5.34,2.37,6.96c3.49,2.49,9.19,0.03,10.07-2.81c0.73-2.34-2.32-3.26-2.81-7.11c-0.67-5.19,4.4-7.02,4.15-13.48
		c-0.08-2.02-0.7-5.13-2.37-5.63C50.14,4.15,49.36,4.5,46.74,6.44z"/>
	<path class="st2" d="M29.56,38.59c0.37-0.42,1.98-0.63,5.19-1.04c3.48-0.44,3.82-0.38,4.15-0.15c1.27,0.9,0.6,3.1,0.38,8.01
		c-0.24,5.35-0.33,8.05,1.1,9.47c2.25,2.24,6.33,0.63,6.94,2.25c0.52,1.38-2.1,3.48-2.35,3.68c-3.4,2.72-9.24,3.35-12,0.74
		c-1.69-1.6-1.24-3.48-2.81-4c-1.67-0.55-2.63,1.42-5.63,1.78c-2.31,0.28-5.35-0.45-5.93-2.22c-0.33-1.02,0.2-2.24,0.89-2.96
		c1.37-1.44,3.05-0.64,5.33-1.48c2.53-0.94,4.55-3.44,5.19-5.78C31.05,42.99,28.05,40.31,29.56,38.59z"/>
	<path class="st2" d="M50.3,60.96c-5.15-0.65-11.47,8.35-9.93,10.67c1.32,1.98,7.41-2.38,12.44,0.89c3,1.95,2.9,4.85,5.33,5.19
		c2.82,0.39,5.63-3.15,6.81-5.63c1.24-2.6,2.06-6.85,0.3-8.15c-1.76-1.29-4.11,1.81-8.15,1.04C53.47,64.27,53.1,61.32,50.3,60.96z"
		/>
	<path class="st2" d="M60.81,80.52c-0.25,0.3-2.23,2.69-1.48,5.48c0.32,1.21,1.3,3.03,2.81,3.26c0.89,0.13,1.81-0.31,5.04-3.85
		c3.29-3.61,4.93-5.42,4.59-6.22C70.98,77.28,63.96,76.83,60.81,80.52z"/>
	<path class="st3" d="M69.11,65.41c-0.18-0.78-0.48-2.59,0.3-4.59c0.32-0.83,1.22-3.13,2.67-3.26c1.53-0.14,2.08,2.3,5.78,5.19
		c0.98,0.77,1.76,1.24,2.67,1.78c4.6,2.76,6.47,2.36,7.41,4.15c1.06,2.03-0.27,4.56-0.44,4.89c-0.46,0.84-1.21,1.74-5.19,3.7
		c-3.89,1.92-5.83,2.88-7.11,2.67c-3.56-0.6-5.69-4.95-6.37-7.7C68.08,69.23,68.7,66.68,69.11,65.41z"/>
	<path class="st3" d="M84.22,31.04c-0.57,0.4-1.97,1.68-1.33,8.3c0.64,6.72,2.99,14.88,4.59,14.67c1.32-0.17,2.18-5.96,1.93-10.37
		c-0.23-4.1-1.42-6.74,0.15-9.78c0.37-0.71,0.86-1.39,0.59-2.07C89.6,30.37,86.08,29.73,84.22,31.04z"/>
	<path class="st3" d="M19.33,60.37c1.26-0.48,1.7,0.16,4.59,0.3c3.81,0.18,4.3-0.86,6.07-0.15c2.13,0.85,1.74,2.48,4.3,3.85
		c2.21,1.18,3.33,0.42,4.3,1.48c1.71,1.88,0.63,6.87-1.33,7.41c-2.55,0.7-4.08-6.86-10.22-8.44c-5.26-1.36-9.61,2.77-10.81,1.19
		C15.31,64.8,16.93,61.28,19.33,60.37z"/>
	<path class="st4" d="M44.22,11.19c-1.06,0.21-1.88,0.95-2.07,1.85c-0.29,1.38,0.98,2.61,1.19,2.52c0.19-0.08-0.5-1.27,0.07-2.07
		c0.33-0.47,0.82-0.42,1.04-0.89C44.65,12.15,44.45,11.6,44.22,11.19z"/>
	<path class="st4" d="M47.11,8.3c-0.21,0.26-0.47,0.6-0.44,1.04c0.04,0.65,0.71,1.06,1.04,1.26c0.84,0.52,2.42,0.97,3.04,0.22
		c0.36-0.44,0.37-1.27,0-1.56c-0.58-0.45-1.85,0.62-2.15,0.3c-0.35-0.38,1.3-2.04,0.96-2.44C49.29,6.79,47.89,7.32,47.11,8.3z"/>
	<path class="st4" d="M46.59,15.7c-0.82,0.1-1.32,1.21-1.26,2.07c0.06,0.94,0.81,1.98,1.63,1.93c0.84-0.06,1.46-1.25,1.33-2.22
		C48.18,16.59,47.42,15.61,46.59,15.7z"/>
	<path class="st4" d="M41.93,26c-0.53,0.5-0.52,1.22-0.52,1.78c0.01,0.82,0.26,2.15,0.81,2.22c0.42,0.05,1.01-0.62,0.96-1.19
		c-0.05-0.6-0.8-0.68-0.89-1.26c-0.14-0.88,1.42-1.6,1.26-1.93C43.44,25.4,42.5,25.45,41.93,26z"/>
	<path class="st4" d="M46.89,27.19c-0.26-0.13-1.54,1.05-1.33,2.3c0.1,0.64,0.55,1.04,0.89,1.33c0.42,0.37,1.34,1.19,2.22,0.81
		c0.81-0.34,1.23-1.52,0.89-2c-0.46-0.63-2.06,0.28-2.67-0.44C46.36,28.55,47.13,27.31,46.89,27.19z"/>
	<path class="st4" d="M44.74,21.56c-0.07,0.19,0.22,0.31,0.42,0.83c0.21,0.51,0.2,1.06,0.09,1.47c-0.24,0.89-0.98,1.05-0.89,1.41
		c0.12,0.46,1.51,0.84,2.3,0.22c0.59-0.46,0.59-1.27,0.59-1.85c0-0.51,0-1.57-0.74-2.07C45.87,21.11,44.86,21.24,44.74,21.56z"/>
	<path class="st4" d="M34.89,16.3c-0.13,0.04-1.01,0.3-1.26,1.11c-0.23,0.77,0.21,1.72,0.67,1.78c0.41,0.06,0.5-0.66,1.33-1.04
		c0.89-0.41,1.6,0.03,1.78-0.3c0.18-0.33-0.38-1.07-1.04-1.41C36.23,16.37,35.62,16.08,34.89,16.3z"/>
	<path class="st4" d="M14.89,26.22c-0.72,0.34-0.95,1.15-1.26,2.22c-0.24,0.85-0.48,1.68-0.15,1.93c0.42,0.31,1.75-0.32,2.07-1.26
		c0.21-0.62-0.15-0.96,0.15-1.56c0.35-0.71,1.15-0.76,1.11-1.04C16.77,26.21,15.7,25.84,14.89,26.22z"/>
	<path class="st4" d="M14.15,32.44c0.09,0.47,0.67,0.76,1.11,0.81c0.91,0.11,1.94-0.68,1.85-1.33c-0.07-0.53-0.86-0.96-1.56-0.89
		C14.79,31.11,14.03,31.82,14.15,32.44z"/>
	<path class="st4" d="M18.52,27.19c-0.08,0.07-1.17,0.97-0.81,1.85c0.17,0.43,0.62,0.69,1.04,0.74c0.81,0.09,1.53-0.66,1.7-1.41
		c0.13-0.55,0.02-1.39-0.52-1.63C19.38,26.49,18.72,27.02,18.52,27.19z"/>
	<path class="st4" d="M26.59,20.81c-0.23-0.2-0.79,0.34-2.07,0.89c-1.47,0.63-2.27,0.58-2.3,0.89c-0.03,0.35,0.95,0.83,1.85,0.81
		c1.41-0.03,2.18-1.27,2.22-1.33C26.52,21.71,26.81,21.01,26.59,20.81z"/>
	<path class="st4" d="M31.7,21.85c-0.35-0.06-0.63,0.09-2.3,1.56c-1.47,1.3-1.62,1.51-1.56,1.63c0.04,0.08,0.21,0.16,1.7-0.22
		c2.13-0.55,3.2-0.82,3.33-1.41C33.02,22.81,32.38,21.96,31.7,21.85z"/>
	<path class="st4" d="M23.56,27.93c-0.05,0.07-0.68,0.88-0.44,1.19c0.24,0.31,1.29,0.02,2-0.52c0.74-0.55,1.35-1.54,1.11-1.85
		C25.93,26.38,24.38,26.88,23.56,27.93z"/>
	<path class="st4" d="M31.04,40.22c-0.41,0.48-0.6,1.35-0.15,2c0.48,0.68,1.51,0.86,1.93,0.52c0.34-0.28,0.06-0.72,0.44-1.48
		c0.35-0.69,0.8-0.79,0.74-1.04C33.88,39.73,31.9,39.21,31.04,40.22z"/>
	<path class="st4" d="M36.44,44.3c-0.62-0.15-1.87,1.27-1.56,2.37c0.11,0.4,0.46,0.86,0.89,0.89c0.59,0.03,1.05-0.78,1.19-1.33
		C37.16,45.44,36.91,44.41,36.44,44.3z"/>
	<path class="st4" d="M21.19,55.33c-0.56,0.17-0.96,1.05-0.74,1.63c0.38,1.01,2.6,0.96,3.63,0.81c1.23-0.17,2.34-0.67,2.3-0.89
		c-0.04-0.24-1.35,0.24-2.89-0.37C22.18,56,21.81,55.14,21.19,55.33z"/>
	<path class="st4" d="M26.22,54.15c0.07,0.39,1.08,0.66,1.93,0.52c2.13-0.35,3.32-3.31,2.96-3.63c-0.12-0.1-0.34,0.12-2.22,1.26
		C26.79,53.56,26.17,53.82,26.22,54.15z"/>
	<path class="st4" d="M36.07,51.04c-0.98-0.15-1.89,0.76-1.85,1.63c0.03,0.52,0.39,0.98,0.81,1.19c0.84,0.42,2.15-0.02,2.37-0.96
		C37.59,52.1,36.95,51.17,36.07,51.04z"/>
	<path class="st4" d="M32.52,56.81c-0.28,0.09-0.34,2,0.52,2.44c0.81,0.42,1.72-0.86,2.89-0.44c0.85,0.3,1.01,1.2,1.48,1.11
		c0.44-0.09,0.79-0.97,0.59-1.63c-0.3-0.98-1.8-1.52-2.81-1.19c-0.75,0.25-0.93,0.88-1.48,0.81C32.99,57.85,32.74,56.75,32.52,56.81
		z"/>
	<path class="st4" d="M40.3,57.04c-0.16-0.04-0.85,1-0.52,1.7c0.33,0.69,1.47,0.72,2.22,0.74c1.48,0.04,3.2-0.44,3.19-0.89
		c-0.01-0.39-1.39-0.93-2.67-0.74c-1.03,0.16-1.62,0.73-2,0.44C40.12,57.99,40.44,57.07,40.3,57.04z"/>
	<path class="st4" d="M42.67,68.07c-1.08,0.71-1.6,2.29-1.19,2.67c0.32,0.29,0.91-0.46,2.44-0.59c1.18-0.1,1.58,0.28,2.22-0.07
		c0.8-0.44,1.13-1.55,0.89-1.78c-0.34-0.31-1.74,1.13-2.44,0.67c-0.41-0.27-0.21-0.95-0.67-1.19
		C43.47,67.54,42.83,67.97,42.67,68.07z"/>
	<path class="st4" d="M45.85,63.41c-0.69,0.27-1.14,1.33-0.81,1.85c0.24,0.38,0.83,0.37,1.41,0.37c0.48,0,1.7-0.09,2.74-1.04
		c0.54-0.49,1.04-1.22,0.89-1.41c-0.17-0.21-0.92,0.59-2.15,0.59C46.84,63.78,46.49,63.15,45.85,63.41z"/>
	<path class="st4" d="M58,72.07c-0.67,0.45-1.04,1.61-0.52,2.37c0.51,0.74,1.56,0.7,2.15,0.52c0.72-0.22,1.52-0.88,1.48-1.56
		C61.05,72.39,59.09,71.34,58,72.07z"/>
	<path class="st4" d="M60.15,69.11c-0.29-0.06-1.28-0.28-1.56,0.07c-0.29,0.37,0.19,1.38,0.89,1.93c0.75,0.59,1.97,0.81,2.67,0.3
		c0.64-0.47,0.47-1.29,1.04-1.48c0.56-0.19,0.96,0.53,1.44,0.36c0.66-0.23,1.06-1.94,0.33-2.73c-0.43-0.46-1.11-0.45-2-0.44
		c-0.73,0.01-1.13,0.01-1.41,0.3c-0.56,0.58-0.01,1.68-0.44,1.93C60.92,69.44,60.76,69.25,60.15,69.11z"/>
	<path class="st4" d="M51.85,66.3c-0.75,0.73-1.12,1.1-1.11,1.63c0.01,0.67,0.58,1.4,1.11,1.41c0.68,0.01,0.94-1.17,1.56-1.11
		c0.56,0.05,0.7,1.08,1.11,1.04c0.34-0.03,0.7-0.78,0.52-1.33c-0.19-0.57-0.81-0.47-1.19-1.11c-0.43-0.73,0.02-1.45-0.3-1.63
		C53.19,64.98,52.38,65.77,51.85,66.3z"/>
	<path class="st4" d="M53.7,70.59c-0.15,0.36,0.08,0.8,0.3,1.04c0.46,0.5,1.29,0.54,1.85,0.15c0.48-0.33,0.81-1.02,0.59-1.41
		C56.07,69.69,54.03,69.79,53.7,70.59z"/>
	<path class="st4" d="M56.52,66.81c-0.1,0.29,0.48,0.91,1.11,0.96c0.97,0.08,1.81-1.2,1.63-1.48c-0.07-0.11-0.27,0-1.63,0.22
		C56.79,66.66,56.57,66.66,56.52,66.81z"/>
	<path class="st4" d="M60.74,84.07c-0.35,0.2-0.38,1.06,0,1.63c0.41,0.61,1.14,0.66,1.26,0.67c0.61,0.04,1.37-0.23,1.41-0.59
		c0.01-0.08-0.01-0.25-1.11-0.96C61.41,84.24,60.96,83.95,60.74,84.07z"/>
	<path class="st4" d="M63.19,81.04c-0.61,0.34-1.57,1.09-1.41,1.56c0.12,0.33,0.8,0.48,1.33,0.37c0.83-0.17,0.98-0.92,1.56-0.89
		c0.64,0.03,0.82,0.95,1.26,0.89c0.45-0.07,0.9-1.13,0.52-1.78c-0.29-0.5-0.96-0.55-1.41-0.59C64.15,80.52,63.47,80.88,63.19,81.04z
		"/>
	<path class="st4" d="M67.85,79.48c-0.15,0.21,0.17,0.83,0.67,1.11c0.76,0.42,1.84-0.02,1.85-0.3c0.01-0.16-0.33-0.28-0.96-0.52
		C68.72,79.52,68.01,79.26,67.85,79.48z"/>
	<path class="st4" d="M76.89,51.04"/>
	<path class="st4" d="M76.74,53.48c-0.25,1.09,0.18,2.34,0.59,2.37c0.41,0.03,0.79-1.12,0.96-1.63c0.28-0.85,0.67-2.53,0.22-2.74
		C78.12,51.29,77.02,52.28,76.74,53.48z"/>
	<path class="st4" d="M75.93,46.22c-0.52,0.22-0.73,1.42-0.3,1.85c0.32,0.32,0.72-0.04,2,0.15c0.64,0.1,0.86,0.23,1.11,0.07
		c0.41-0.26,0.54-1.07,0.22-1.41c-0.26-0.27-0.6-0.01-1.41-0.15C76.57,46.57,76.32,46.06,75.93,46.22z"/>
	<path class="st4" d="M77.33,43.26c-0.34,0.21-0.35,0.97-0.07,1.48c0.18,0.33,0.62,0.83,1.19,0.74c0.41-0.07,0.77-0.44,0.81-0.81
		C79.35,43.83,77.86,42.94,77.33,43.26z"/>
	<path class="st4" d="M83.56,61.19c-0.34,0.06-0.92-1.71-1.19-2.89c-0.24-1.05-0.57-2.54,0-2.89c0.35-0.21,0.99,0.05,1.33,0.44
		c0.4,0.46,0.28,1.01,0.15,2.59C83.66,60.63,83.74,61.15,83.56,61.19z"/>
	<path class="st4" d="M80.89,49.78c-0.35,0.33-0.4,1.07,0,1.56c0.3,0.37,0.84,0.56,1.33,0.37c0.55-0.21,0.84-0.81,0.74-1.26
		C82.79,49.66,81.44,49.26,80.89,49.78z"/>
	<path class="st4" d="M73.85,21.19c-0.2,0.8,0.27,1.52,0.44,1.78c0.65,0.99,1.84,1.62,3.04,1.63c0.86,0.01,1.9-0.29,1.93-0.67
		c0.01-0.15-0.14-0.29-2.22-1.33c-1.16-0.58-1.4-0.69-1.7-1.04c-0.51-0.6-0.58-1.19-0.89-1.19C74.17,20.37,73.93,20.85,73.85,21.19z
		"/>
	<path class="st5" d="M43.93,45.41c0.17,0.58,0.3,1.37,0.07,2.22c-0.31,1.14-1.09,1.71-0.89,2c0.19,0.26,1.1,0.15,1.63-0.37
		c0.54-0.53,0.24-1.04,0.81-2.07c0.42-0.74,0.81-0.9,0.74-1.19C46.22,45.72,45.73,45.44,43.93,45.41z"/>
	<path class="st5" d="M45.26,40.96c-0.2,0.42-0.47,0.98-0.22,1.33c0.29,0.42,1.25,0.43,1.78,0c0.68-0.55,0.34-1.58,0.81-1.78
		c0.6-0.24,1.42,1.26,2,1.04c0.46-0.17,0.66-1.37,0.15-2.15c-0.52-0.79-1.55-0.81-1.7-0.81C46.39,38.59,45.45,40.55,45.26,40.96z"/>
	<path class="st5" d="M54.74,43.63c-0.38-0.04-0.88,1.01-0.96,2c-0.03,0.41-0.13,1.57,0.52,1.93c0.54,0.29,1.3-0.11,1.7-0.44
		c0.81-0.67,0.57-1.42,1.11-1.7c1-0.52,2.53,1.7,3.41,1.26c0.63-0.32,0.83-1.98,0-2.89c-0.59-0.64-1.54-0.74-2.22-0.59
		c-1.52,0.34-2.07,1.99-2.74,1.78C55.02,44.79,55.13,43.67,54.74,43.63z"/>
	<path class="st5" d="M55.41,53.11c-1.15,1.15,0.74,5.4,1.63,5.26c0.81-0.13,0.66-3.88,1.41-3.93c0.55-0.04,0.61,2.05,2.07,2.74
		c0.91,0.43,2.35,0.33,2.96-0.59c0.71-1.06,0.04-2.77-0.59-2.89c-0.44-0.08-0.67,0.66-1.19,0.59c-0.49-0.06-0.64-0.75-1.56-2.3
		c-0.74-1.25-0.96-1.33-1.11-1.33c-0.52,0-0.54,1.01-1.48,1.7C56.62,53.06,55.91,52.61,55.41,53.11z"/>
	<path class="st5" d="M65.11,47.41c-0.71,0.27-1.62,1-1.48,1.7c0.17,0.84,1.7,1.02,1.85,1.04c0.44,0.05,1.24,0.13,1.78-0.44
		c0.47-0.5,0.6-1.36,0.22-1.93C66.95,46.98,65.71,47.18,65.11,47.41z"/>
	<path class="st5" d="M66.22,44.59c0.05,0.34,0.8,0.63,1.41,0.52c0.65-0.12,0.79-0.65,1.19-0.59c0.48,0.08,0.84,0.96,0.89,1.7
		c0.07,1.08-0.52,1.67-0.22,2c0.23,0.25,0.85,0.23,1.19-0.07c0.66-0.59-0.07-1.94,0.59-2.44c0.31-0.24,0.61-0.04,0.81-0.3
		c0.33-0.43-0.06-1.52-0.59-1.63c-0.47-0.1-0.68,0.65-1.33,0.67c-0.71,0.02-0.87-0.84-1.7-1.04C67.43,43.17,66.15,44.11,66.22,44.59
		z"/>
	<path class="st5" d="M17.19,39.7c-0.92-0.08-1.66,0.5-1.85,0.67c-0.82,0.7-1.39,2.08-0.89,2.67c0.4,0.46,1.43,0.42,2.07,0
		c0.75-0.48,0.76-1.32,1.19-1.33c0.53-0.02,0.64,1.24,1.41,1.41c0.79,0.17,1.64-0.95,1.7-1.04c0.75-1,0.39-1.8,0.96-2.15
		c0.82-0.5,2.06,0.83,2.52,0.44c0.48-0.41-0.05-2.59-1.56-3.26c-0.68-0.3-1.72-0.37-2.22,0.15c-0.38,0.4-0.13,0.81-0.59,1.78
		c-0.25,0.53-0.49,1.05-0.96,1.19C18.37,40.4,18.08,39.78,17.19,39.7z"/>
	<path class="st5" d="M21.41,46c-0.08,0.75-0.46,0.83-0.59,1.7c-0.06,0.4-0.16,1.08,0.22,1.56c0.54,0.66,1.86,0.71,2.44,0.15
		c0.58-0.56,0.03-1.32,0.67-2.15c0.54-0.7,1.25-0.56,1.41-1.11c0.15-0.55-0.37-1.37-0.96-1.48c-0.87-0.17-1.71,1.19-1.93,1.04
		c-0.29-0.21,1.5-2.66,0.89-3.33c-0.27-0.3-0.9-0.11-1.04-0.07c-0.86,0.25-1.36,1.21-1.41,2C21.06,45.09,21.49,45.19,21.41,46z"/>
	<path class="st5" d="M14.37,52.96c-0.46,0-0.47,1.09-1.56,3.7c-0.29,0.7-0.51,1.15-0.3,1.56c0.26,0.49,1.04,0.69,1.63,0.52
		c0.79-0.24,1.09-1.12,1.26-1.63c0.42-1.26,0.02-2.36-0.15-2.81C15.04,53.71,14.75,52.96,14.37,52.96z"/>
	<path class="st5" d="M31.63,32.44c-0.52,0.3-0.84,1.08-0.59,1.56c0.25,0.48,1.03,0.51,1.41,0.52c0.99,0.03,1.16-0.42,2.22-0.44
		c0.79-0.02,0.9,0.23,1.41,0.07c0.73-0.23,1.37-1.02,1.19-1.48c-0.14-0.36-0.78-0.51-1.26-0.44c-0.74,0.1-1.04,0.7-1.26,0.59
		c-0.41-0.21,0.75-2.36,0-3.11c-0.39-0.39-1.25-0.37-1.56,0c-0.53,0.65,0.78,2.19,0.3,2.67C33.14,32.72,32.35,32.03,31.63,32.44z"/>
	<path class="st5" d="M57.19,16.37c-2.15,0.05-3.49,2.86-3.93,4.3c-0.57,1.9-0.25,3.67,0,3.7c0.24,0.03,0.32-1.61,1.26-1.93
		c0.74-0.25,1.42,0.51,1.78,0.22c0.46-0.37-0.48-1.75,0.07-2.37c0.29-0.33,0.69-0.11,1.56-0.3c0.86-0.19,2.12-0.77,2.22-1.48
		C60.27,17.64,58.69,16.33,57.19,16.37z"/>
	<path class="st5" d="M60.74,14.96c-0.27,0.21,0.43,1,0.59,2.67c0.07,0.74,0.23,2.38-0.67,3.11c-0.74,0.6-1.54,0.04-2.15,0.67
		c-0.57,0.59-0.6,1.84,0,2.37c0.7,0.63,2.05,0.06,2.74-0.44c1.05-0.77,1.33-1.96,1.7-3.56c0.31-1.31,0.48-2.04,0.15-2.89
		C62.58,15.53,61.07,14.7,60.74,14.96z"/>
	<path class="st5" d="M56.67,24.59c-0.63,0.27-0.77,0.2-0.89,0.37c-0.32,0.47,0.24,1.76,1.19,2.15c0.77,0.31,1.22-0.2,1.7,0.15
		c0.61,0.43,0.07,1.34,0.74,2.37c0.5,0.77,1.31,1.04,1.56,1.11c0.87,0.25,1.61-0.01,2.37-0.3c1.04-0.39,2.84-1.07,2.81-2.15
		c-0.03-1-1.62-2.01-2.52-1.7c-0.45,0.15-0.48,0.55-1.19,0.89c-0.33,0.16-0.93,0.44-1.41,0.22c-0.55-0.25-0.38-0.91-1.19-2
		c-0.27-0.36-0.51-0.59-0.67-0.74c-0.55-0.52-0.98-0.92-1.48-0.89C57.38,24.1,57.39,24.28,56.67,24.59z"/>
	<path class="st5" d="M66,34.22c-0.69,1.03-1.76,0.97-1.85,1.7c-0.04,0.32,0.11,0.69,0.37,0.89c0.65,0.51,1.48-0.44,3.04-0.37
		c1.37,0.06,1.79,0.85,2.59,0.52c0.72-0.3,1.21-1.26,0.96-1.7c-0.33-0.6-1.83,0.02-2.44-0.81c-0.24-0.33-0.07-0.51-0.37-0.96
		c-0.36-0.53-1.08-1-1.56-0.81C66.29,32.85,66.52,33.44,66,34.22z"/>
	<path class="st5" d="M69.04,27.11c-0.52,0.17-0.81,0.94-0.74,1.56c0.11,0.92,1.05,1.62,1.63,1.48c0.49-0.12,0.41-0.76,0.92-0.98
		c0.95-0.4,2.2,1.46,2.79,1.13c0.42-0.24,0.41-1.55-0.22-2.07c-0.56-0.45-1.11,0.09-2.3-0.22C69.92,27.69,69.63,26.92,69.04,27.11z"
		/>
	<path class="st5" d="M72.07,32.44c-0.43,0.39-0.32,1.3,0,1.93c0.64,1.23,1.88,0.86,3.26,2.3c0.78,0.82,0.86,1.44,1.26,1.41
		c0.61-0.05,1.3-1.59,0.81-2.44c-0.41-0.73-1.32-0.34-2.22-1.26c-0.65-0.66-0.44-1.12-1.11-1.63C73.5,32.31,72.53,32.03,72.07,32.44
		z"/>
	<path class="st5" d="M86.22,32.3c-0.36-0.02-0.45-0.61-0.74-0.59c-0.48,0.02-0.72,1.6-0.74,1.7c-0.09,0.62-0.22,1.48,0.15,1.7
		c0.53,0.31,1.72-0.88,1.85-0.74c0.11,0.13-0.96,0.89-1.11,2.07c-0.11,0.87,0.3,1.84,0.67,1.85c0.47,0.02,0.39-1.58,1.7-3.63
		c0.74-1.16,1.31-1.5,1.19-2.15c-0.15-0.79-1.21-1.47-1.85-1.26C86.75,31.45,86.66,32.32,86.22,32.3z"/>
	<path class="st5" d="M84.44,40.07c-1,0.64-0.66,2.89,0.07,3.19c0.4,0.16,0.95-0.26,1.48-0.67c0.54-0.42,1.16-0.89,1.11-1.41
		C87.04,40.37,85.33,39.51,84.44,40.07z"/>
	<path class="st5" d="M86.67,45.19c-0.77,0.25-0.81,1.93-0.81,2.3c-0.03,1.65,0.76,3.17,1.11,3.11c0.25-0.04,0.03-0.8,0.59-1.78
		c0.52-0.9,1.08-0.92,1.19-1.48C88.91,46.36,87.49,44.92,86.67,45.19z"/>
	<path class="st5" d="M71.85,61.33c-0.32,0.02-0.42,0.84-0.81,2.3c-0.5,1.85-0.9,2.59-0.67,2.74c0.21,0.14,0.59-0.44,1.7-1.04
		c1.05-0.57,1.35-0.4,2.3-0.96c0.72-0.44,1.5-0.9,1.48-1.56c-0.02-0.81-1.25-1.58-1.93-1.33c-0.55,0.2-0.57,1.02-0.96,1.04
		C72.47,62.54,72.24,61.3,71.85,61.33z"/>
	<path class="st5" d="M70.52,69.11c-0.87,0.71-0.78,2.8-0.07,3.11c0.71,0.32,2.02-1.2,2.59-2.15c0.65-1.07,0.61-1.81,0.59-2
		c-0.07-0.75-0.46-1.51-0.74-1.48c-0.35,0.04-0.1,1.34-0.96,2C71.39,69.01,70.98,68.74,70.52,69.11z"/>
	<path class="st5" d="M76.44,66c-0.06,0.07-1.04,1.18-0.67,1.78c0.24,0.37,0.92,0.41,1.41,0.3c0.97-0.24,1.05-1.1,1.85-1.19
		c0.72-0.08,1.05,0.57,1.48,0.37c0.48-0.23,0.66-1.32,0.22-1.93c-0.63-0.87-2.3-0.4-2.67-0.3C77.77,65.12,77.04,65.34,76.44,66z"/>
	<path class="st5" d="M73.04,71.85c-0.97,1.03-1.32,1.15-1.48,1.78c-0.2,0.77,0.12,1.46,0.3,1.85c0.7,1.54,2.26,2.4,2.44,2.22
		c0.22-0.22-1.52-2-1.11-2.52c0.29-0.37,1.28,0.4,2.22-0.07c0.82-0.4,1.26-1.55,0.96-1.93c-0.4-0.51-2.2,0.37-2.3,0.15
		c-0.1-0.23,2-0.92,2.07-2.07c0.04-0.65-0.55-1.37-1.11-1.41C74.5,69.82,74.36,70.44,73.04,71.85z"/>
	<path class="st5" d="M80.81,69.7c-1.5,1.1-2.56,1.08-2.81,2c-0.09,0.31-0.1,0.8,0.15,0.96c0.61,0.41,2.17-1.58,2.89-1.19
		c0.63,0.35-0.14,2.1,0.59,2.59c0.56,0.38,1.84-0.09,2.07-0.81c0.3-0.92-1.23-1.8-0.89-2.59c0.21-0.47,0.81-0.29,1.7-0.96
		c0.57-0.43,1.31-1.25,1.11-1.7c-0.22-0.51-1.64-0.54-2.74-0.07C81.91,68.34,82.05,68.79,80.81,69.7z"/>
	<path class="st5" d="M77.41,74.81c-0.86-0.06-1.58,1.64-1.7,1.93c-0.29,0.68-0.57,1.34-0.3,1.63c0.24,0.25,0.71,0.04,3.7-1.19
		c1.23-0.5,1.64-0.67,1.78-1.11c0.23-0.74-0.42-1.76-0.96-1.78c-0.58-0.01-0.8,1.12-1.48,1.11C77.97,75.4,77.89,74.85,77.41,74.81z"
		/>
	<path class="st5" d="M18.74,61.85c-0.36,0.3-0.55,0.75-0.67,1.04c-0.19,0.46-0.45,1.08-0.22,1.33c0.37,0.42,1.55-0.8,3.48-0.89
		c1.69-0.08,2.66,0.77,3.19,0.22c0.29-0.3,0.3-0.89,0.07-1.26c-0.3-0.5-0.86-0.38-3.26-0.59C19.79,61.56,19.24,61.44,18.74,61.85z"
		/>
	<path class="st5" d="M27.78,62.67c-0.22,0.57,0.34,1.22,0.37,1.26c0.8,0.9,2.59,0.9,2.96,0.22c0.29-0.54-0.25-1.62-1.11-2
		C29.19,61.79,28.03,62.01,27.78,62.67z"/>
	<path class="st5" d="M32.52,67.78c0.16,0.43,0.64,0.44,2.67,0.96c1.89,0.49,2.28,0.69,2.52,0.44c0.4-0.42-0.06-1.69-0.81-2.44
		c-0.81-0.81-2.31-1.41-3.41-0.74C32.86,66.38,32.3,67.21,32.52,67.78z"/>
	<path class="st5" d="M16.74,70.74c-0.28,0.09-0.41,1.14,0,2.07c0.42,0.96,1.08,1.06,2.15,2c1.79,1.57,1.8,2.95,2.52,2.89
		c0.78-0.06,1.59-1.77,1.26-3.11c-0.09-0.37-0.58-0.94-1.56-2.07c-1.11-1.29-1.42-1.49-1.78-1.48c-0.62,0.02-0.82,0.66-1.41,0.59
		C17.25,71.55,17.01,70.66,16.74,70.74z"/>
	<path class="st5" d="M28.81,71.04c-1.07,0.19-1.44,2.48-1.63,3.63c-0.04,0.26-0.39,2.48,0.15,2.67c0.54,0.19,1.18-1.89,2.37-1.93
		c1.42-0.04,2.3,2.9,2.74,2.74c0.38-0.14,0.16-2.48-1.04-4.59C31.01,72.85,29.88,70.85,28.81,71.04z"/>
	<path class="st5" d="M29.11,78.44c-0.31,0.21-0.25,0.88-0.07,1.33c0.54,1.41,2.63,1.69,2.74,1.7c1.89,0.23,2.26-0.99,3.93-0.81
		c1.97,0.21,2.59,2.05,3.63,1.7c0.93-0.31,1.51-2.16,0.89-3.11c-0.62-0.95-2.3-0.8-3.7-0.67c-2.8,0.26-3.49,1.39-5.11,0.89
		C30.2,79.11,29.54,78.16,29.11,78.44z"/>
	<path class="st5" d="M44,77.63c0.95-1.26,1.44-1.9,2.3-2.22c1.19-0.44,2.3-0.09,3.04,0.15c0.81,0.26,1.95,0.62,2.44,1.7
		c0.22,0.49,0.43,1.37,0.07,1.63c-0.59,0.42-1.87-1.52-4.15-1.56c-0.53-0.01-1.36-0.02-1.93,0.52c-1.14,1.11,0.13,3.27-0.81,4
		c-0.68,0.52-2.2,0.08-2.59-0.74C41.99,80.32,42.73,79.33,44,77.63z"/>
	<path class="st5" d="M48.67,83.48c-1.94,0.94-3.06,0.83-3.26,1.56c-0.15,0.55,0.43,0.79,1.11,2.22c0.76,1.6,0.7,2.73,1.04,2.74
		c0.54,0.02,0.76-2.88,1.63-2.96c0.72-0.07,0.99,1.88,2.22,2.07c0.84,0.13,1.68-0.61,2.07-1.26c0.59-0.99,0.55-2.45-0.15-2.96
		c-1.07-0.79-3.22,0.96-3.63,0.44c-0.47-0.59,2.13-3.27,1.85-3.56C51.38,81.61,50.45,82.61,48.67,83.48z"/>
	<path class="st5" d="M47.78,79.78c-0.74,0.53-1.1,1.72-0.67,2.22c0.46,0.53,1.64,0.11,2.15-0.15c0.63-0.32,1.56-1.06,1.41-1.63
		C50.49,79.54,48.79,79.05,47.78,79.78z"/>
</g>
<g id="Ebene_2">
	<path class="st6" d="M12.78,58.91c1.94,5.62,12.61,8.9,14.52,9.48c3.53,1.08,10.04,3,18.52,1.78c3.05-0.44,7.77-1.17,12.89-4.3
		c6.51-3.97,9.23-9.1,11.7-13.78c0.39-0.73,1.58-3.05,0.89-3.7c-0.7-0.66-2.52,1.12-5.04,1.19c-2.95,0.07-4.91-2.27-6.81-3.85
		c-3.42-2.84-6.95-3.44-13.63-4.59c-15.26-2.63-27.73,5.6-30.81,9.04c-0.74,0.83-2.45,2.72-2.67,5.48
		C12.33,55.65,12.2,57.25,12.78,58.91z"/>
	<path class="st7" d="M26.41,65.13c-0.8,1.02-12.69-3.71-12.59-9.19c0.13-7.2,21.12-12.77,21.48-12c0.07,0.15-3.91,1.61-8.89,5.63
		c-3.1,2.51-4.66,3.8-5.04,5.78C20.46,60.15,27.04,64.32,26.41,65.13z"/>
	<path class="st7" d="M24.48,55.5c0.41-1.47,1.65-1.82,5.78-4.59c6.3-4.23,5.38-4.74,7.99-5.83c3.99-1.67,10.16-2.14,14.23,0.8
		c1.88,1.36,1.98,2.47,5.04,4.59c2.98,2.07,4.24,1.94,4.74,3.11c1.14,2.67-3.44,7.93-8.3,10.81c-6.66,3.95-16.29,4.88-23.26,0.3
		C27.64,62.67,23.62,58.62,24.48,55.5z"/>
	<path class="st8" d="M50.55,17.28c-0.94,4.63-1.45,7.14-3.26,9.63c-0.36,0.49-0.66,0.84-0.76,0.95c-3.05,3.51-9.41,6.97-12.87,4.83
		c-3.03-1.87-3.09-7.56-2.07-11.26C34.36,11.35,48.02,5.71,51,8.39C52.15,9.43,51.61,12.05,50.55,17.28z"/>
	<path class="st8" d="M71.15,47.21c-0.24,0.75,0.39,1.85,1.19,2.07c1.04,0.29,2.17-0.98,2.71-1.59c2.89-3.25,4.15-12.51,0.25-21.22
		c-2.04-4.55-4.77-7.35-8-10.67c-4.78-4.91-8.11-6.34-9.33-6.81c-3.12-1.22-7.53-2.07-7.98-1.1c-0.27,0.59,0.86,1.98,1.46,1.84
		c0.3-0.07,0.3-0.47,0.59-0.74c0.9-0.84,3.51,0.56,3.79,0.71c14.31,7.86,17.84,17.06,17.84,17.06c3.26,8.49,2.26,18.09-0.56,19.23
		C72.6,46.2,71.4,46.4,71.15,47.21z"/>
	<path class="st9" d="M46.7,9.58c-1.88-1.26-6.95,2.69-9.78,6.37c-2.7,3.51-5.71,9.84-3.26,13.48c0.28,0.41,0.95,1.41,2.07,1.63
		c3.7,0.73,7.91-7.8,8.44-8.89C45.95,18.58,48.83,11.01,46.7,9.58z"/>
	<path class="st10" d="M71.15,49.74c-0.03-0.84-0.38-1.4-0.22-1.49c0.25-0.14,0.81,1.16,1.73,1.31c1.06,0.17,1.57-1.52,3.08-2.5
		c1.42-0.92,2.93-0.72,4.67-0.59c6.87,0.52,11.65-0.34,11.69,0.15c0.02,0.24-1.18,0.56-2.95,1.04c-0.51,0.14-1.37,0.37-2.3,0.51
		c-2.15,0.32-2.88-0.11-6-0.21c-2.07-0.07-3.1-0.1-3.93,0.22c-0.61,0.24-1.61,1.17-3.63,3.04c-0.37,0.34-0.81,0.76-0.81,1.33
		c0,0.72,0.69,1.25,0.89,1.41c2.15,1.75,5.27,8.28,6.59,12.07c0.62,1.79,1.41,4.12,1.41,7.26c0,1.64-0.03,3.73-1.19,5.93
		c-1.5,2.85-4.19,4.57-4.46,4.32c-0.25-0.23,1.62-2.08,2.72-4.07c5.02-9.15-4.22-25.35-7.29-24.77c-0.71,0.14-1.31,1.21-1.93,2.3
		c-0.6,1.07-0.81,1.96-1.19,3.63c-0.43,1.94-0.57,3.49-0.67,4.59c-0.08,0.98-0.11,1.7-0.15,2.74c-0.18,5.24-0.1,5.54-0.19,6.66
		c-0.02,0.27-0.35,3.89-1.96,6.9c-2.2,4.11-6.18,5.94-8.67,7.04c-9.73,4.3-20.06,2.26-20.07,1.77c-0.01-0.33,4.75-0.79,8.07-1.11
		c2.07-0.2,2.75-0.21,3.7-0.3c2.44-0.23,9.34-0.87,13.63-5.19c3.69-3.72,4.58-9.3,3.64-9.86c-0.62-0.38-1.79,1.62-5.42,3.49
		c-2.48,1.28-4.63,1.73-5.93,2c-3.21,0.66-5.66,0.51-8.74,0.3c-3.69-0.25-6.38-0.78-9.11-1.33c-6.1-1.23-10.54-2.72-12.07-3.26
		c-2.3-0.8-4.59-1.61-7.48-3.04c-4.77-2.36-8.64-5.16-8.49-5.41c0.13-0.23,3.4,1.72,10.2,4.74c4.9,2.18,7.35,3.27,10.59,4.22
		c4.71,1.37,8.49,1.79,12.52,2.23c3.87,0.42,6.14,0.43,7.85,0.37c2.72-0.1,4.73-0.19,7.27-1.08c0.59-0.21,3-1.08,5.55-3.07
		c1.27-0.99,2.08-1.63,2.74-2.81c0.7-1.27,0.83-2.44,1.07-4.67c0.22-2,0.02-2.11,0.26-3.99c0.16-1.26,0.31-2.52,0.86-4.06
		c0.68-1.95,1.72-3.59,2.05-4.12c0.33-0.52,0.79-1.19,1.32-2.26C71.08,50.74,71.16,50.19,71.15,49.74z"/>
	<path class="st1" d="M90.11,72.25c-0.08,0.22-3.54-0.32-6.81-2.59c-1.49-1.03-2.85-1.98-3.33-3.63c-0.22-0.75-0.17-1.34-0.67-2.44
		c-0.59-1.31-1.38-2.07-1.25-2.19c0.11-0.1,0.77,0.35,1.29,0.85c0.59,0.57,0.94,1.15,1.52,2.23c0.5,0.93,0.74,1.39,1.04,2.04
		C83.3,69.6,90.22,71.93,90.11,72.25z"/>
	<path class="st1" d="M73.96,77.95c0.18-1.34,0.58-2.3,0.96-3.19c2.14-4.94,2.42-4.8,2.74-6.22c0.62-2.76-0.07-5,0.2-5.04
		c0.15-0.02,0.41,0.83,0.92,2.52c0.4,1.35,0.61,2.03,0.6,2.37c-0.04,1.34-0.98,1.77-2.23,3.63c-1.1,1.65-1.58,3.15-2,4.44
		c-0.85,2.65-0.83,4.53-1.04,4.52C73.93,80.98,73.76,79.5,73.96,77.95z"/>
	<path class="st1" d="M59.91,75.52c-0.92,0.53-1.48,0.85-1.98,1.03c-2.08,0.73-4.25-0.67-5.66-1.36
		c-5.54-2.74-11.39-0.78-11.41-1.23c-0.02-0.36,3.67-1.62,7.85-0.89c3.86,0.67,4.55,2.41,7.78,2.37c3.46-0.05,6.06-2.09,6.18-1.84
		C62.76,73.79,60.9,74.94,59.91,75.52z"/>
	<path class="st1" d="M67.25,67.2c-0.21,0.4-0.03,0.55-0.07,1.93c-0.03,0.96-0.13,1.54-0.05,1.56c0.12,0.03,0.22-1.27,1.2-2.29
		c0.45-0.47,0.62-0.4,1-0.75c1.18-1.1,0.38-2.6,1.16-4.72c0.67-1.8,1.95-2.63,1.76-2.82c-0.16-0.17-1.25,0.43-2,1.33
		c-0.82,1-1.04,2.16-1.1,2.48c-0.2,1.14,0.12,1.4-0.24,1.97C68.43,66.67,67.64,66.42,67.25,67.2z"/>
	<path class="st1" d="M40.44,79.11c0.05-0.1,0.64,0.16,1.8,0.25c0.55,0.05,0.59,0,0.9,0.04c0.96,0.13,1.52,0.69,2.07,1.06
		c0.79,0.53,1.52,0.65,2.96,0.89c2.55,0.42,4.4-0.32,4.44-0.15c0.04,0.16-1.48,0.78-3.19,1.04c-1.06,0.16-2.02,0.31-3.19,0
		c-1.24-0.33-1.77-0.91-2.07-0.67c-0.41,0.33,0.45,1.44,0.22,3.19c-0.14,1.08-0.64,1.96-0.81,1.93c-0.22-0.05,0.11-1.47-0.21-3.69
		c-0.12-0.82-0.18-1.23-0.39-1.65C42.19,79.78,40.37,79.28,40.44,79.11z"/>
	<path class="st1" d="M79.8,46.42c0.06,0.15,0.58,0.17,1.64,0.19c0.74,0.02,1.11,0.03,1.26-0.02c0.8-0.26,1.16-1.16,1.85-2.94
		c0.36-0.92,0.54-1.38,0.67-2.07c0.23-1.23,0-1.59,0.37-2.07c0.44-0.58,1-0.41,2.15-0.96c0.69-0.33,1.09-0.68,1.88-1.38
		c1.51-1.32,2.55-2.76,2.46-2.84c-0.1-0.09-1.35,1.51-3.75,2.74c-1.11,0.57-1.85,0.93-2.59,0.67c-1.17-0.42-1.03-1.93-2.15-2.3
		c-1.2-0.39-2.73,0.88-2.63,1.16c0.09,0.25,1.46-0.49,2.48,0.18c1.02,0.66,1.03,2.3,1.04,2.96c0.02,2.3-1.31,3.94-1.48,4.15
		C81.59,45.57,79.66,46.05,79.8,46.42z"/>
	<path class="st1" d="M18.92,71.62c-0.7-0.42-0.85-0.97-1.54-2.06c-0.55-0.87-0.93-1.48-1.44-1.94c-1.03-0.94-1.91-0.69-4.4-1.35
		c-1.62-0.44-3.46-1.13-3.41-1.31c0.04-0.17,1.7,0.34,6.31,1.17c0.89,0.16,1.48,0.26,2.08,0.72c0.98,0.76,0.82,1.58,1.98,2.66
		c0.63,0.59,0.74,0.41,1.67,1.15c1.33,1.05,2.21,2.3,2.08,2.44c-0.09,0.1-0.62-0.48-1.86-0.97C19.5,71.76,19.4,71.91,18.92,71.62z"
		/>
	<path class="st1" d="M29.65,76.77c0.12-0.14,0.53,0.16,1.45,0.39c1.03,0.26,1.48,0.13,1.6,0.4c0.17,0.36-0.46,1-0.82,1.36
		c-1.12,1.11-1.86,1.24-2.52,1.78c-1.85,1.51-1.18,4.68-1.57,4.69c-0.32,0.01-1.25-2.14-0.43-3.88c0.84-1.78,3.04-2.12,2.96-3.33
		C30.29,77.46,29.49,76.97,29.65,76.77z"/>
	<path class="st1" d="M63.04,84.29c-1.4,1.73-2.12,1.78-3.08,3.36c-0.4,0.65-0.62,1.22-0.72,1.46c-0.33,0.87-0.39,1.46-0.48,1.91
		c-0.46,2.15-2.22,3.36-2.08,3.49c0.13,0.13,1.78-0.79,3.06-2.6c1.56-2.2,0.72-3.09,2.27-4.88c0.89-1.02,1.71-1.36,2.25-2.72
		c0.33-0.82,0.46-1.79,0.26-1.88C64.32,82.36,63.97,83.15,63.04,84.29z"/>
</g>
</svg>
