<?xml version="1.0" encoding="utf-8"?>
<!-- Generator: Adobe Illustrator 26.0.3, SVG Export Plug-In . SVG Version: 6.00 Build 0)  -->
<svg version="1.1" id="Ebene_1" xmlns="http://www.w3.org/2000/svg" xmlns:xlink="http://www.w3.org/1999/xlink" x="0px" y="0px"
	 viewBox="0 0 100 100" style="enable-background:new 0 0 100 100;" xml:space="preserve">
<style type="text/css">
	.st0{opacity:0;stroke:#000000;stroke-width:2;stroke-miterlimit:10;}
	.st1{stroke:#000000;stroke-width:2;stroke-miterlimit:10;}
</style>
<g id="Ebene_2_00000093860788734264317370000010671531211922489223_">
</g>
<polygon class="st0" points="92,74.2 92,25.8 50,1.5 8,25.8 8,74.2 50,98.5 "/>
<path class="st1" d="M29.9,43.2c-0.5-0.5,5.9-5.4,16.4-17.6c2.9-3.3,7-8.2,12.2-7.9c0.3,0,1.5,0.1,2.6,0.6c6.7,3,1.2,19.8,2.5,48
	c0.3,6.4,1.8,18.3-3.3,20.9c-0.6,0.3-1.7,0.8-2.7,0.4c-4.4-1.8-1.5-19.4,0.7-53.5c0.2-3.4,0.4-10.6-1.6-11.1c-1-0.3-2.2,1.4-2.7,2
	C47.8,33.3,30.7,44.1,29.9,43.2z"/>
</svg>
