<?xml version="1.0" encoding="utf-8"?>
<!-- Generator: Adobe Illustrator 26.0.3, SVG Export Plug-In . SVG Version: 6.00 Build 0)  -->
<svg version="1.1" id="Ebene_1" xmlns="http://www.w3.org/2000/svg" xmlns:xlink="http://www.w3.org/1999/xlink" x="0px" y="0px"
	 viewBox="0 0 100 100" style="enable-background:new 0 0 100 100;" xml:space="preserve">
<style type="text/css">
	.st0{fill-opacity:0;}
	.st1{stroke:#000000;stroke-width:2;stroke-miterlimit:10;}
</style>
<g id="Ebene_2_00000093860788734264317370000010671531211922489223_">
</g>
<path class="st0" d="M92,74.2V25.8L50,1.5L8,25.8v48.4l42,24.3c3.3-1.9,6.5-3.8,9.8-5.7C70.5,86.6,81.3,80.4,92,74.2z"/>
<path class="st1" d="M30.3,28.2c1.3-6.8,7.9-12.6,14.9-13.2c7.8-0.7,15.1,5.1,18,11c9.6,19.9-22.8,58.6-32.6,54.9
	c-5.6-2.1-6.3-19-0.9-22.1C36,55.2,46.6,72.9,65.4,72c9-0.4,15.3-4.9,15.7-4.1c0.4,1-8.6,9.7-19.6,9.5c-14.8-0.2-24-15.5-28.3-12.4
	c-2,1.4-2,6.2-0.4,7.3c1.5,1,4.6-1.2,6.1-2.3C50.3,61.7,64,36.3,55.9,26.1c-1.3-1.7-3.8-3.2-6.7-3.9c-3.7-0.8-8,0.2-10.8,2.7
	c-5.6,4.9-3.6,14.1-5.2,14.2C32,39.3,29.2,33.7,30.3,28.2z"/>
</svg>
