<?xml version="1.0" encoding="utf-8"?>
<!-- Generator: Adobe Illustrator 26.0.3, SVG Export Plug-In . SVG Version: 6.00 Build 0)  -->
<svg version="1.1" id="Ebene_1" xmlns="http://www.w3.org/2000/svg" xmlns:xlink="http://www.w3.org/1999/xlink" x="0px" y="0px"
	 viewBox="0 0 100 100" style="enable-background:new 0 0 100 100;" xml:space="preserve">
<style type="text/css">
	.st0{fill-opacity:0;}
	.st1{stroke:#000000;stroke-width:2;stroke-miterlimit:10;}
</style>
<g id="Ebene_2_00000093860788734264317370000010671531211922489223_">
</g>
<polygon class="st0" points="92,74.2 92,25.8 50,1.5 8,25.8 8,74.2 50,98.5 "/>
<path class="st1" d="M22.7,34.9c-0.4-0.4,11.1-24.1,30.9-24.4c8.9-0.1,21.9,4.4,24.1,14.3c1.6,7.2-2.8,15.4-8.7,19
	C62,47.9,54,45.3,53.5,47.4c-0.5,1.9,6.2,3.6,12.4,9.4c4.5,4.2,12.6,14.1,9.8,21.6C73.1,85.3,62.1,88,54,87.3
	c-20.1-1.7-33.1-25-32.9-25.2c0.2-0.2,6.7,11.2,20.1,15.1c11.4,3.3,25.1,0.4,26.2-4.5c1.7-7.9-30.1-19.3-28-25.5
	c0.5-1.4,2.3-1.5,5.5-2.5C56.1,41.2,68,31.8,67.1,26c-0.7-4.7-9.9-8.6-18-8.2C33.2,18.5,23.1,35.2,22.7,34.9z"/>
</svg>
