<svg id="eHQoUPChlBN1" xmlns="http://www.w3.org/2000/svg" xmlns:xlink="http://www.w3.org/1999/xlink" viewBox="0 0 100 100" shape-rendering="geometricPrecision" text-rendering="geometricPrecision"><path d="M31.724601,22.322151c4.340861-4.408861,2.959685-3.604425,6.634847,0s-4.153621,30.355807,0,34.42948s9.353162,2.287388,11.64055,0-1.52398-15.564419,0-17.21474s2.768689-1.877997,4.498268-.358641-2.171219,15.507415,0,17.573381s15.34071-1.602304,17.03542,0s1.545692,5.751742,0,7.352129-13.710709-1.752652-15.421538,0s1.446355,12.028327,0,13.628336-4.546287,1.481479-6.11215,0s2.745936-10.93736,0-13.628336-12.62402,5.452817-18.275397,0-4.340862-37.372749,0-41.781609Z" transform="translate(.000002 0.000001)" stroke="#3f5787" stroke-width="0.5"/></svg>
