<svg id="ekUE9BwFy0X1" xmlns="http://www.w3.org/2000/svg" xmlns:xlink="http://www.w3.org/1999/xlink" viewBox="0 0 100 100" shape-rendering="geometricPrecision" text-rendering="geometricPrecision"><path d="M26.524314,14.43206c-8.111799,8.030418-9.673972,24.527223-4.84165,29.408516s7.304457,7.124225,10.938533,6.159422s6.057573-5.77117,9.324656-7.235344s11.194687-2.223994,14.704256,1.075922s3.660574,12.741048,2.331162,17.21474-3.905123,8.07716-8.981274,10.400572-20.110801-3.364882-23.475683,0-4.22754,4.069228,0,8.248729s24.791351,3.170793,31.381033-.35864s8.537318-8.52489,10.400572-15.242218s4.402264-22.109814-1.613882-27.973954-29.980044,4.354083-34.07084,0-4.247834-8.610674,0-12.731735s30.11325,3.802451,34.07084,0s5.502872-3.611897.358641-8.96601-32.414565-8.030419-40.526364,0Z" transform="translate(.000005 0.000002)" stroke="#3f5787" stroke-width="0.5"/></svg>
