<svg id="egsXHOj9uZx1" xmlns="http://www.w3.org/2000/svg" xmlns:xlink="http://www.w3.org/1999/xlink" viewBox="0 0 100 100" shape-rendering="geometricPrecision" text-rendering="geometricPrecision"><path d="M23.65519,18.377106c12.229719-12.229719,43.214259-1.857722,47.699178,0s7.894471,7.015048.179319,10.938533-28.858141-4.170042-34.429481,1.613882-4.899619,14.305586-.17932,19.070479s20.548006-1.812261,25.64279,0s8.06941,6.572312,8.06941,6.572312L55.753508,65.359001c0,0-15.434959-3.214343-18.649302,0s-3.214343,8.441471,0,11.655814s16.354248,2.295054,18.649302,0q2.295055-2.295055,0-11.655814l14.883578-8.786689c0,0,1.746807,15.890399,0,20.442503s-1.084556,5.85522-8.06941,8.96601-27.614736,11.29775-38.912486,0-12.229719-55.374,0-67.603719Z" transform="translate(.000001 0.000002)" stroke="#3f5787" stroke-width="0.5"/></svg>
