<svg id="ea1kCrjKXfz1" xmlns="http://www.w3.org/2000/svg" xmlns:xlink="http://www.w3.org/1999/xlink" viewBox="0 0 100 100" shape-rendering="geometricPrecision" text-rendering="geometricPrecision"><path d="M24.372472,17.301185c6.299644-5.047877,34.863142-8.863872,41.064329-.896601s-11.070399,19.926505-6.993492,25.284147s15.789702-2.859601,18.649303,0s2.8596,5.451666,0,8.311266-13.140199-5.509104-18.649303,0s4.91949,28.371534,0,33.291024-8.090189,4.841198-13.090375,0s4.078861-28.300146-1.075921-33.291024-12.102793,2.422145-14.524938,0-2.403126-5.90814,0-8.311266s11.528781,2.775108,14.345617,0s3.86054-8.277881.179321-12.014454-19.65062,4.214748-22.952988,0-3.251197-7.325214,3.048447-12.373092Z" transform="translate(.000003 0.000003)" stroke="#3f5787" stroke-width="0.5"/></svg>
