<?xml version="1.0" encoding="utf-8"?>
<!-- Generator: Adobe Illustrator 26.0.3, SVG Export Plug-In . SVG Version: 6.00 Build 0)  -->
<svg version="1.1" xmlns="http://www.w3.org/2000/svg" xmlns:xlink="http://www.w3.org/1999/xlink" x="0px" y="0px"
	 viewBox="0 0 100 100" style="enable-background:new 0 0 100 100;" xml:space="preserve">
<style type="text/css">
	.st0{fill:#603726;stroke:#000000;stroke-width:2;stroke-miterlimit:10;}
	.st1{fill:#5D4135;stroke:#000000;stroke-width:0.5;stroke-miterlimit:10;}
	.st2{fill:#493127;stroke:#000000;stroke-width:0.5;stroke-miterlimit:10;}
	.st3{fill:#493127;stroke:#000000;stroke-width:0.25;stroke-miterlimit:10;}
	.st4{fill:#5D4135;stroke:#000000;stroke-width:0.25;stroke-miterlimit:10;}
	.st5{fill:#9B9991;stroke:#000000;stroke-miterlimit:10;}
	.st6{fill:#8B8F8D;stroke:#000000;stroke-miterlimit:10;}
	.st7{fill:#E3DFD3;stroke:#000000;stroke-miterlimit:10;}
</style>
<g id="Ebene_1">
	<g id="Ebene_1_00000070081453494179332120000015518110432246800057_">
		<path class="st0" d="M91.9,25.8l-42-24.3l-42,24.2l0,48.5l42,24.3l42-24.2L91.9,25.8z M17.3,41.5c-0.8-0.6-0.6-1.8-0.6-2
			c0.2-1.5,1.7-2.5,3.2-2.8c2-0.3,4.2,0.7,4.3,1.8C24.4,40.2,19,42.7,17.3,41.5z M52,44.6c-4,2.4-11.5,1-13.8-3
			c-0.1-0.2-1.5-2.8-0.2-4.9c1.3-2.1,4-1.4,8.7-3.3c4.7-1.9,4.4-3.5,9-5.3c3.7-1.4,8.3-2,8.9-0.9c0.7,1.2-4,3-7.8,8.7
			C53.6,40.8,54.7,43,52,44.6z M59.6,36.2c1.8-4.3,6-8.2,10.7-8.6c0.6-0.1,2.9-0.2,3.7,0.8c0.7,0.9-0.1,2-1.3,4.8
			c-2.4,5.4-1.7,5.9-3.4,7.7c-1.7,1.8-3.7,2.7-5,3.2c-2.2,0.9-3.5,1.5-4.5,1C57.9,44.2,58.3,39.5,59.6,36.2z M74.1,72.1
			c-0.6,0.4-2.6,1.7-5.4,1.7c-4.1-0.1-8.5-3.1-8.2-5.8c0.3-2.8,5.5-4.2,8.5-4.5c0.6-0.1,7.1-0.6,8.5,2.3C78.3,68,76,70.8,74.1,72.1z
			 M81.6,38.9c-1,2.9-0.7,2.9-1.3,3.7c-1.7,2.3-3.8,1.9-5.4,4.2c-1.1,1.5-0.8,2.5-1.6,2.8c-1.3,0.4-4-1.3-4.5-3.4
			c-0.7-2.7,2.6-3.7,5-8.8c2.2-4.8,1.1-7.4,3.2-8.2c2.2-0.9,6,1.1,6.8,3.5C84.1,34.1,83.1,34.6,81.6,38.9z"/>
		<path class="st0" d="M68.9,63.5c-2.9,0.3-8.1,1.7-8.5,4.5c-0.3,2.7,4.1,5.7,8.2,5.8c2.8,0.1,4.8-1.2,5.4-1.7
			c1.9-1.3,4.2-4.1,3.3-6.3C76,62.9,69.5,63.5,68.9,63.5z"/>
		<path class="st0" d="M76.9,29.3c-2,0.8-1,3.4-3.2,8.2c-2.3,5.1-5.6,6.2-5,8.8c0.5,2.1,3.2,3.8,4.5,3.4c0.9-0.3,0.5-1.3,1.6-2.8
			c1.7-2.4,3.8-2,5.4-4.2c0.6-0.8,0.3-0.8,1.3-3.7c1.5-4.3,2.5-4.8,2.1-6.1C82.9,30.3,79.1,28.4,76.9,29.3z"/>
		<path class="st0" d="M72.7,33.2c1.2-2.8,1.9-3.9,1.3-4.8c-0.8-1.1-3.1-0.9-3.7-0.8c-4.7,0.4-8.9,4.3-10.7,8.6
			c-1.4,3.3-1.8,8,0.2,8.9c1,0.5,2.4-0.1,4.5-1c1.3-0.6,3.3-1.4,5-3.2C71,39.1,70.3,38.6,72.7,33.2z"/>
		<path class="st0" d="M64.6,27.2c-0.6-1.1-5.3-0.4-8.9,0.9c-4.7,1.7-4.3,3.4-9,5.3c-4.7,1.9-7.4,1.2-8.7,3.3
			c-1.3,2.1,0.1,4.7,0.2,4.9c2.3,4,9.8,5.4,13.8,3c2.8-1.6,1.6-3.8,4.9-8.7C60.6,30.2,65.3,28.4,64.6,27.2z"/>
		<path class="st0" d="M20,36.7c-1.5,0.3-3,1.3-3.2,2.8c0,0.2-0.2,1.4,0.6,2c1.7,1.2,7.1-1.3,7-3C24.2,37.4,22,36.4,20,36.7z"/>
	</g>
	<path class="st1" d="M43.9,21c1.5,0,1.7,3.8,4.1,4.6c2.1,0.6,5.2-1.2,5.5-3.1c0.3-2.3-3.7-2.9-5.8-7.4c-1.5-3.3-0.4-5.3-1.5-6.2
		c-1.6-1.4-6.6,0.3-20.1,11.4c-0.3,1.7-0.5,3.7,0.6,4.5c1.9,1.3,6.4-3,7.8-1.8c1.2,1-1.1,4.7,0,5.6c0.9,0.7,3.5-0.8,5.2-2.4
		C42.5,23.6,42.6,21,43.9,21z"/>
	<path class="st2" d="M37.9,36.7c1.3-2.1,4-1.4,8.7-3.3c0.8-0.3,1.4-0.6,2-0.9c0,0,0,0,0,0c-0.1-3-2.4-6.3-4.9-6.5
		c-4.5-0.4-7.9,9.8-10.4,9c-2-0.6-0.9-8.1-2.8-8.6c-1.2-0.3-1.9,2.9-4.7,4.3c-4.9,2.4-11.3-2.6-12.3-1.2c-0.6,0.8,1.9,2.3,2.4,5.5
		c0.7,4.2-3,6.2-2.2,8.4c1.2,3.7,13.1,5,23,0.7c0.5-0.2,1.5-0.6,2.6-1.2c-0.4-0.4-0.8-0.9-1.1-1.3C38.1,41.4,36.6,38.8,37.9,36.7z
		 M17.3,41.5c-0.8-0.6-0.6-1.8-0.6-2c0.2-1.5,1.7-2.5,3.2-2.8c2-0.3,4.2,0.7,4.3,1.8C24.4,40.2,19,42.7,17.3,41.5z"/>
	<path class="st2" d="M48.6,32.5c-0.5,0.3-1.2,0.6-2,0.9c-4.7,1.9-7.4,1.2-8.7,3.3c-1.3,2.1,0.1,4.7,0.2,4.9
		c0.3,0.5,0.6,0.9,1.1,1.3C42.9,41.1,48.7,37.4,48.6,32.5z"/>
	<path class="st2" d="M20,36.7c-1.5,0.3-3,1.3-3.2,2.8c0,0.2-0.2,1.4,0.6,2c1.7,1.2,7.1-1.3,7-3C24.2,37.4,22,36.4,20,36.7z"/>
	<path class="st2" d="M76.9,29.3c1-0.4,2.4-0.2,3.7,0.4c0.1-0.5,0.2-0.9,0.2-1.4c0-1.3-0.5-2.9-6.8-8.4C65.1,12.1,58.7,6.4,54.1,8.6
		c-1.3,0.6-2.5,1.9-2.8,3.4c-0.6,3.6,4.8,5.5,9.5,11.7c0.8,1,1.4,2,1.9,3c1,0,1.7,0.2,1.9,0.5c0.2,0.4-0.2,0.9-0.9,1.6
		c0.2,0.5,0.4,0.9,0.5,1.4c1.8-1.4,3.9-2.4,6-2.5c0.6-0.1,2.9-0.2,3.7,0.8c0.7,0.9-0.1,2-1.3,4.8c-1,2.2-1.4,3.6-1.8,4.6
		c1-0.1,2-0.5,3-0.9C75.8,32.5,74.9,30,76.9,29.3z"/>
	<path class="st2" d="M80.6,29.7c-1.3-0.6-2.7-0.8-3.7-0.4c-1.9,0.8-1.1,3.2-2.9,7.6C77,35.5,79.9,32.6,80.6,29.7z"/>
	<path class="st2" d="M70.9,37.8c0.3-1,0.8-2.4,1.8-4.6c1.2-2.8,1.9-3.9,1.3-4.8c-0.8-1.1-3.1-0.9-3.7-0.8c-2.2,0.2-4.3,1.1-6,2.5
		c1.4,3.9,1.3,6.6,3.9,7.5C69,37.9,69.9,38,70.9,37.8z"/>
	<path class="st2" d="M64.6,27.2c-0.2-0.4-0.9-0.5-1.9-0.5c0.4,0.7,0.7,1.4,1,2.1C64.4,28.1,64.8,27.6,64.6,27.2z"/>
	<path class="st2" d="M56.3,26.4c-0.8,0.2-1.1,0.8-1.7,2.2c0.3-0.1,0.7-0.3,1-0.4c1-0.4,2-0.7,3-0.9C57.9,26.6,57,26.2,56.3,26.4z"
		/>
	<path class="st2" d="M59.6,36.2c0.6-1.5,1.5-2.9,2.6-4.2c-0.2-0.5-0.5-1-0.7-1.4c-1.4,1.3-3.1,2.9-4.7,5.3
		c-3.2,4.9-2.1,7.1-4.9,8.7c-1,0.6-2.2,0.9-3.5,1.1c0.9,0.9,2,1.4,2.9,1.3c2.2-0.2,2.4-3.9,5-4.4c0.8-0.2,1.5,0,2.1,0.3
		C58.3,40.9,58.8,38.3,59.6,36.2z"/>
	<path class="st2" d="M62.8,44.6c1.7-0.8,1.6-4.9,1.2-7.3c-0.3-1.8-0.9-3.7-1.7-5.3c-1.1,1.3-2,2.7-2.6,4.2
		c-0.9,2.1-1.3,4.7-1.1,6.6C60.2,43.5,61.6,45.2,62.8,44.6z"/>
	<path class="st2" d="M61.5,30.6c-0.9-1.4-1.8-2.6-2.8-3.4c-1,0.2-2.1,0.6-3,0.9c-0.4,0.1-0.7,0.3-1,0.4c-0.4,0.9-0.9,2.2-1.9,3.9
		c-3.4,5.8-6.4,6.5-6.2,9.5c0.1,1.4,0.9,2.8,1.9,3.8c1.3-0.1,2.5-0.5,3.5-1.1c2.8-1.6,1.6-3.8,4.9-8.7
		C58.4,33.6,60.1,31.9,61.5,30.6z"/>
	<path class="st1" d="M88.8,35.5c-0.3-3.2-1.5-7.4-3-7.4c-1,0-1.2,2.2-2.2,4.6c0,0,0,0.1,0,0.1c0.4,1.3-0.6,1.8-2.1,6.1
		c-1,2.9-0.7,2.9-1.3,3.7c-1.7,2.3-3.8,1.9-5.4,4.2c-1.1,1.5-0.8,2.5-1.6,2.8c-0.2,0.1-0.5,0.1-0.8,0c3.7,1.8,9,1.4,12.4-1.3
		C89.6,44.7,89,38.1,88.8,35.5z"/>
	<path class="st1" d="M70.5,39.1c-0.3,0.7-0.5,1.1-1.2,1.8c-0.3,0.4-0.7,0.7-1,1c-0.2,1.2,0,2.4,0.4,3.6c0.1-1.9,2.4-3.2,4.4-6.7
		C72.1,38.7,71.3,38.8,70.5,39.1z"/>
	<path class="st1" d="M73.3,49.7c0.9-0.3,0.5-1.3,1.6-2.8c1.7-2.4,3.8-2,5.4-4.2c0.6-0.8,0.3-0.8,1.3-3.7c1.5-4.3,2.5-4.8,2.1-6.1
		c0,0,0-0.1,0-0.1c-0.6,1.5-1.5,3.1-3,4.3c-2.5,1.9-5.2,1.7-7.6,1.7c-2,3.6-4.3,4.8-4.4,6.7c0.3,0.7,0.6,1.4,1,1.9
		c0.7,1,1.7,1.8,2.8,2.3C72.8,49.7,73.1,49.7,73.3,49.7z"/>
	<path class="st1" d="M70.5,39.1c-0.6,0.2-1.2,0.6-1.6,1.2c-0.3,0.5-0.5,1-0.6,1.6c0.4-0.3,0.7-0.6,1-1C70,40.2,70.3,39.7,70.5,39.1
		z"/>
	<path class="st2" d="M11.6,49c-1.4,0.7,4.7,9.7,1.2,16.2c-0.7,1.3-1.9,2.7-1.5,4.4c0.3,1.3,1.3,2,3.7,3.4c5,3,7.5,4.5,8.1,4
		c1.1-0.9-1-3.3-1.2-8.9c-0.1-4.8,1.4-6.4,0-9.2c-0.6-1.2-1-1.2-4-4C13.3,50.7,12.2,48.7,11.6,49z"/>
	<path class="st1" d="M20.8,48.5c-0.8,0.7-1.3,2-1,3.3c0.7,3.5,7.1,3.4,7.6,6.4c0.3,1.6-1.5,2-2.7,4.9c-1.1,2.7-1.6,7.8,1.5,10.4
		c3.2,2.7,9,1.7,10.4-0.9c1.2-2.1-1.5-3.8-2.5-9.6c-1-5.8,1.2-7.4-0.4-10.4C31.1,48.1,23.4,46,20.8,48.5z"/>
	<path class="st2" d="M59,47.7c-1.2-0.5-2.3,2.5-5,3c-3.8,0.7-5.5-4.5-11-5c-2.4-0.2-5.8,0.3-6.7,2.2c-1.1,2.5,3.4,5.4,2.4,9.8
		c-0.4,1.5-0.9,1.3-1.5,3c-1.6,4.6,1.1,10.9,3.9,11.3c1.4,0.2,2.2-1.3,4.9-4.1c7.5-8,11.8-8,13.5-13.5C60.2,51.4,60.1,48.2,59,47.7z
		"/>
	<path class="st1" d="M76.2,59.5c1.2-2,0-5.3-1.6-7.1c-1.1-1.2-1.6-1-5.5-3.3c-3.9-2.2-4.7-3.2-5.6-2.8c-1.3,0.6-0.3,3.3-1.2,6.5
		c-1.7,6.6-9.3,8.7-8.7,10.2c0.5,1.2,4.7-0.5,14.5-1.5C72.9,61.1,75.2,61.2,76.2,59.5z"/>
	<path class="st2" d="M88.2,60.6c-0.3-7.1,0.6-9.3-0.9-10.2c-2-1.2-6.7,1.2-8.8,4.8C77.4,57,77.8,58,77.9,67c0.1,6.5-0.1,7.8,1,8.6
		c2.2,1.6,7.2-0.1,9.2-3.4C89.6,69.8,88.5,68.2,88.2,60.6z"/>
	<path class="st1" d="M27,77.7c-1.1,0.8-1.7,2.5-1.3,3.8c0.7,2.6,4.4,2.6,10.5,5.2c8,3.4,9.5,6.7,14.4,6.2c2.9-0.3,5.7-1.8,5.6-3
		c0-1.7-5.6-1.5-7-4.9c-0.9-2.2,1.1-3.4,0.4-6.1c-0.8-3.4-5.1-6.5-8.4-5.9c-3.4,0.6-3.5,4.4-7.3,5C30.8,78.7,28.9,76.4,27,77.7z"/>
	<path class="st2" d="M75.1,63.4c-0.3-0.4-0.9-0.2-1.7,0.2c0.6,0.1,1.3,0.3,1.8,0.5C75.3,63.8,75.2,63.6,75.1,63.4z"/>
	<path class="st2" d="M71.4,73.7c0-0.1,0-0.2-0.1-0.3c-0.8,0.2-1.7,0.4-2.7,0.4c-4.1-0.1-8.5-3.1-8.2-5.8c0-0.2,0.1-0.4,0.2-0.6
		c-3.5-0.2-5.8-1.3-9.5,0.2c-1,0.4-4,1.6-4.1,3.4c-0.2,2.3,4.5,3.1,5.3,7c0.5,2.2-0.8,2.8-0.3,4.9c0.8,3.1,4.4,5.7,7.9,5.8
		c2.1,0.1,2.9-0.9,7.8-3.8c7.3-4.4,10.6-5.3,10.4-6.8C77.8,76,72.7,76.6,71.4,73.7z"/>
	<path class="st2" d="M68.7,73.8c1,0,1.9-0.1,2.7-0.4c-1-3.2,3.4-7.4,3.8-9.3c-0.6-0.2-1.2-0.4-1.8-0.5c-2.1,1-6,3.6-11.5,3.8
		c-0.5,0-0.9,0-1.3,0c-0.1,0.2-0.1,0.4-0.2,0.6C60.1,70.7,64.5,73.7,68.7,73.8z"/>
	<path class="st3" d="M37.1,14.4c-0.2,0.1-1.1,0.6-1.3,1.5c-0.2,0.6-0.1,1.3,0.2,1.3c0.3,0.1,0.4-0.7,1.3-1.3
		c0.8-0.5,1.4-0.4,1.5-0.6C38.7,15.2,38.4,14.9,37.1,14.4z"/>
	<path class="st3" d="M41.3,13.5c-0.5,0.4-0.9,1.2-0.6,1.9c0.3,0.6,1.1,1,1.4,0.7c0.4-0.2-0.2-1.1,0.2-1.8c0.5-0.7,1.5-0.5,1.5-0.8
		C43.9,13.4,42.3,12.7,41.3,13.5z"/>
	<path class="st3" d="M29,20.3c-0.2,0.3,0,0.7,0.3,1c0.6,0.5,1.8,0,2.4-0.7c0.9-0.9,0.8-2.3,0.7-2.4s-0.3,1.2-1.3,1.7
		C30.2,20.4,29.3,19.9,29,20.3z"/>
	<path class="st3" d="M37.3,20.7c-0.6,0.1-0.9,2.5-0.3,2.7c0.3,0.2,1.1-0.3,1.3-1C38.5,21.5,37.6,20.7,37.3,20.7z"/>
	<path class="st3" d="M45.7,19.1c-0.2,0.4,0.1,1,0.4,1.3c0.5,0.5,1.6,0.6,1.8,0.2c0.3-0.4-0.1-1.3-0.8-1.6
		C46.7,18.8,46,18.7,45.7,19.1z"/>
	<path class="st4" d="M18.1,33.3c-0.5,0.6-0.2,1.7,0.5,2.2c0.8,0.5,2,0.3,2.3-0.4c0.3-0.6,0-1.2-0.4-1.6
		C19.8,32.7,18.6,32.6,18.1,33.3z"/>
	<path class="st4" d="M28.2,32.6c-0.5,0.1-1.2,0.6-1.3,1.3c-0.1,0.9,0.6,1.8,1.3,1.8c0.4,0,0.5-0.4,1.3-0.7c0.9-0.4,1.4-0.2,1.5-0.4
		C31.2,34,29.6,32.2,28.2,32.6z"/>
	<path class="st4" d="M22.5,40.7c0,0,0-0.1,0.1-0.2c-0.1,0.1-0.2,0.1-0.3,0.2C22.3,40.8,22.4,40.8,22.5,40.7z"/>
	<path class="st4" d="M17.9,41.9c0.1,0,0.1,0,0.2-0.1c-0.1,0-0.2,0-0.3-0.1C17.9,41.8,17.9,41.8,17.9,41.9z"/>
	<path class="st4" d="M20.7,38.2c-0.8,0-1.4,0.7-1.9,1.3c-0.6,0.8-1,1.8-0.9,2.2c0.1,0,0.2,0,0.3,0.1c0.4-0.3,1-1.2,2.2-1.4
		c0.9-0.1,1.5,0.2,1.9,0.3c0.1-0.1,0.2-0.1,0.3-0.2C22.7,39.9,21.8,38.3,20.7,38.2z"/>
	<path class="st4" d="M28.7,39.2c-0.6-0.3-3.2,3.6-2.7,4.1c0.2,0.2,1.2-0.3,1.7-0.7C29.1,41.4,29.1,39.4,28.7,39.2z"/>
	<path class="st4" d="M44.7,32.2c-0.1-1.1-1.2-2-2.2-2c-1.6,0-3,2.5-2.2,3.8c0.4,0.6,1.2,0.8,1.9,0.8c0.3-0.1,0.6-0.1,1-0.2
		C44.1,34.1,44.8,33.2,44.7,32.2z"/>
	<path class="st4" d="M43.2,34.5c-0.3,0.1-0.7,0.2-1,0.2c0.1,0,0.2,0,0.3,0C42.7,34.7,42.9,34.6,43.2,34.5z"/>
	<path class="st4" d="M37.4,38.4C37.4,38.4,37.4,38.4,37.4,38.4c-1.7,0.7-2.1,0.8-2.1,1c0,0.3,1.1,0.7,2.2,0.6
		C37.4,39.5,37.4,38.9,37.4,38.4z"/>
	<path class="st4" d="M39.9,37.5c-0.2-0.2-0.6,0.1-2.4,0.9c0,0.6,0,1.1,0.1,1.6c0.4,0,0.8-0.2,1.1-0.4C39.6,39,40.1,37.8,39.9,37.5z
		"/>
	<path class="st4" d="M14.8,55.3c-0.3,0.2,0.3,1.5,0.3,4c0,1.2-0.2,2,0.1,2.1c0.3,0.1,0.6-0.6,1.6-1.4c1.5-1.3,2.9-1.3,2.9-1.7
		c0-0.3-1.2-0.2-2.5-0.9C15.6,56.5,15.1,55.1,14.8,55.3z"/>
	<path class="st4" d="M19.8,61.4c-1,0-2.2,0.5-2.4,1.3c-0.1,0.8,0.9,1.4,1.7,2c0.6,0.4,0.8,0.6,1.2,0.5c0.9-0.2,1.8-2.1,1-3.1
		C20.9,61.5,20,61.4,19.8,61.4z"/>
	<path class="st4" d="M13.5,68.4c-0.3,1,0.9,1.9,1.4,1.8c0.7-0.2,1.2-2.2,0.5-2.7C15,67.2,13.8,67.5,13.5,68.4z"/>
	<path class="st4" d="M19.7,67.9c-0.2,0.1-0.1,0.5-0.5,1.3c-0.1,0.2-0.1,0.2-0.1,0.3c0.1,0.3,1.6,0.3,1.8-0.3
		C21.1,68.6,20,67.7,19.7,67.9z"/>
	<path class="st3" d="M27.9,66.5c-0.5,0.2-0.6,2.3,0.5,2.8c0.9,0.4,2.3-0.6,2.2-1.1c0-0.3-0.5-0.3-1.7-1.1
		C28.1,66.6,28,66.4,27.9,66.5z"/>
	<path class="st3" d="M22.7,50.6c-0.3,0.3-0.7,0-1,0.2c-0.3,0.3-0.1,1.3,0.4,2c1,1.5,2.9,2,3.1,1.7c0.2-0.2-1.3-0.9-1.3-2.1
		c0-0.8,0.8-1,0.9-2.1c0-0.4-0.1-1.2-0.5-1.3c-0.4-0.2-1.1,0.2-1.3,0.7C22.8,50.1,22.9,50.4,22.7,50.6z"/>
	<path class="st3" d="M30.1,52.9c-0.6,0.1-1,3-0.2,3.3c0.4,0.2,1.1-0.3,1.3-0.8C31.8,54.3,30.6,52.8,30.1,52.9z"/>
	<path class="st3" d="M30.3,61.3c-0.7,0.4-0.9,1.4-0.4,1.8c0.3,0.3,0.9,0.2,1,0.2c0.7-0.1,1.4-0.8,1.3-1.4
		C31.9,61.3,31,60.9,30.3,61.3z"/>
	<path class="st4" d="M48.4,40.5c-0.3-0.1-0.9,0.2-1.1,0.7c0,0.1-0.2,0.5,0.6,1.9c0.1,0.2,1,1.8,1.3,1.7c0.2-0.1-0.2-0.8-0.4-2.3
		C48.6,41.2,48.7,40.7,48.4,40.5z"/>
	<path class="st4" d="M53.6,40c-0.9-0.3-3.2,3.5-2.7,4c0.3,0.3,1.4-0.5,1.8-0.7c0.5-0.4,1.1-0.8,1.3-1.6C54.1,41,54,40.1,53.6,40z"
		/>
	<path class="st4" d="M54.2,33.8c-1,0.9-1.9,1.2-1.9,1.9c0,0.4,0.3,0.8,0.7,0.8c1.3,0.2,3-5.2,2.9-5.2
		C55.8,31.2,55.5,32.5,54.2,33.8z"/>
	<path class="st4" d="M55.9,38.9c-0.4,0.6-0.1,1.5,0.4,1.6c0.6,0.2,1.8-1.2,1.6-1.8C57.6,38.3,56.4,38.1,55.9,38.9z"/>
	<path class="st4" d="M59.6,33.1c0,0-0.1-0.2-0.2-0.4c-0.7,0.7-1.4,1.6-2.1,2.5c0.3,0.1,0.8,0.1,1,0C59.2,35,59.8,34,59.6,33.1z"/>
	<path class="st4" d="M58.8,32.2c-0.9-0.1-2.3,2.1-1.8,2.8c0.1,0.1,0.2,0.2,0.3,0.2c0.7-1,1.4-1.8,2.1-2.5
		C59.3,32.5,59.1,32.3,58.8,32.2z"/>
	<path class="st4" d="M61.7,38.6c-0.5,0.1-1,1-0.7,1.8c0.3,0.7,1.1,1.1,1.6,0.9c0.5-0.3,0.4-1.3,0-2C62.5,39.2,62.1,38.5,61.7,38.6z
		"/>
	<path class="st4" d="M40,48.5c-0.4,0.7-0.4,1.8,0.2,2.3c1.2,1,5.2-1.2,5-2.2C44.9,47.8,41,46.9,40,48.5z"/>
	<path class="st4" d="M39.8,62c-0.5,0.5-0.4,1.3-0.2,2.6c0.2,1.4,0.8,3,1.1,3c0.3,0,0-1,0.5-2.5c0.6-1.9,1.6-2.5,1.3-3
		C42.2,61.4,40.6,61.3,39.8,62z"/>
	<path class="st4" d="M46.4,54.7c-1.2,0-2.3,1.1-2.2,2.1c0,0.3,0.2,0.8,0.5,1c0.6,0.2,1.3-1,1.8-0.8c0.5,0.2,0.1,1.4,0.5,1.6
		c0.4,0.2,1.7-0.8,1.6-2C48.5,55.4,47.4,54.7,46.4,54.7z"/>
	<path class="st4" d="M54.1,52.8c-1.2,0.6-2.4,1.5-2.2,1.9c0.2,0.4,1.6-0.1,2,0.6c0.3,0.6-0.4,1.4-0.2,1.6c0.3,0.3,1.6-0.2,1.9-1.2
		c0.3-0.9-0.5-1.5-0.2-2.3c0.4-1.1,2.2-1.2,2.2-1.4C57.6,51.9,55.9,51.9,54.1,52.8z"/>
	<path class="st4" d="M50.2,58.2c-0.6-0.5-3.7,1.8-3.3,3C47,61.7,47.5,62,48,62c1.1,0,1.8-1.6,1.9-2C50,59.7,50.6,58.5,50.2,58.2z"
		/>
	<path class="st3" d="M64.4,50.7c-0.3,0.1-0.3,1,0,1.6c0.4,0.7,1.5,1.3,2.3,0.9c0.6-0.3,1-1.1,0.7-1.5c-0.2-0.4-1.1,0-2.2-0.5
		C64.7,50.9,64.6,50.6,64.4,50.7z"/>
	<path class="st3" d="M72.1,54c-0.9-0.1-2,1.2-1.9,2.4c0.1,1.5,2,2.5,2.3,2.2c0.2-0.2-0.7-1-0.4-2.1c0.2-0.8,1-0.9,1-1.6
		C73.1,54.6,72.6,54.1,72.1,54z"/>
	<path class="st3" d="M60.2,59.6c-2.1,1.2-3.1,1.9-3,2.2c0.2,0.5,2.2,0.1,2.9,0c1.5-0.2,4-0.7,4.1-1.8c0.1-0.6-0.5-1.3-1-1.5
		C62.6,58.3,62.1,58.5,60.2,59.6z"/>
	<path class="st3" d="M65.8,56.2c-0.3,0.4-0.4,1-0.1,1.3c0.3,0.3,1,0,1,0c0.7-0.3,1.2-1.2,1-1.6C67.4,55.5,66.3,55.5,65.8,56.2z"/>
	<path class="st3" d="M40.3,76.5c-0.5,0.3-1.2,1-1,1.6c0.2,0.6,1.6,0.8,2.7,0.4c1.2-0.4,2.2-1.6,2-2.2
		C43.6,75.7,41.6,75.6,40.3,76.5z"/>
	<path class="st3" d="M27.6,80.6c-0.3,0.6,0.1,1.6,0.7,1.8c0.7,0.2,1.3-1.1,2.1-0.9c0.9,0.2,0.8,1.7,1.7,2.1c1,0.4,2.8-0.8,2.7-1.7
		c-0.1-0.8-1.4-1.2-2.4-1.5C30.8,79.9,28.1,79.6,27.6,80.6z"/>
	<path class="st3" d="M39,83.3c-0.4,1.4-0.6,1.6-0.4,2c0.2,0.6,1.1,0.9,1.6,0.7c0.9-0.3,0.6-2,1.3-2.3c0.9-0.3,2.1,2.1,2.8,1.8
		c0.6-0.2,0.8-2.2-0.1-3.1c-0.8-0.9-2-0.3-3-1.5c-0.5-0.5-0.6-1-1-1c-0.1,0-0.3,0.1-0.7,1.3C39.3,82.2,39.3,82.4,39,83.3z"/>
	<path class="st3" d="M44.6,88.7c-0.4,0.4-0.6,1.2-0.3,1.7c0.4,0.6,1.4,0.4,2,0.2c0.8-0.4,1.2-1.3,1.2-2.2c-0.1-1.3-1.4-2.3-1.6-2.2
		c-0.2,0.1,0.4,1.2-0.1,1.8C45.5,88.5,45,88.2,44.6,88.7z"/>
	<path class="st4" d="M51.9,69.4c-0.4,0.1-0.6,0.9-0.6,1.6c0.1,1.2,1.2,2.4,1.8,2.2c0.7-0.2,0.3-2,1-2.3c0.7-0.2,1.6,1.4,2.3,1.2
		c0.6-0.2,1.1-1.6,0.4-2.5c-0.6-0.8-1.8-0.8-2.4-0.4c-0.5,0.4-0.5,1-0.9,1.1C52.9,70.4,52.4,69.3,51.9,69.4z"/>
	<path class="st4" d="M60.9,69.8c-0.1,0.5-0.1,0.9,0.2,1.1c0.2,0.3,0.6,0.3,1,0.3C61.6,70.8,61.1,70.3,60.9,69.8z"/>
	<path class="st4" d="M66.4,69.1c0-0.9-2.6-2.3-4.2-1.3c-0.7,0.4-1.1,1.2-1.3,1.9c0.3,0.5,0.7,1,1.2,1.4c0.8-0.1,1.8-0.5,2.3-0.7
		C65.2,70.2,66.4,69.7,66.4,69.1z"/>
	<path class="st4" d="M63.8,76.1c-0.3-0.5-4,0-4.4,1.8c-0.2,1,0.7,2.2,1.3,2.2c0.5,0,0.6-0.7,1.8-2.3C63.4,76.5,63.9,76.3,63.8,76.1
		z"/>
	<path class="st4" d="M69.5,79.1c-1.6-0.5-3.6,0.6-3.9,2c-0.1,0.5,0,1.2,0.4,1.4c0.6,0.2,1.1-1.1,2.5-1.5c1.5-0.4,2.6,0.7,2.9,0.4
		C71.6,81.1,70.8,79.6,69.5,79.1z"/>
	<path class="st4" d="M66.7,73.5c0,0.1,0,0.2,0.1,0.3c0.4,0.9,2.3,1.3,3.3,0.4c0.2-0.2,0.4-0.4,0.5-0.6c-0.6,0.1-1.2,0.2-1.9,0.2
		C68,73.8,67.4,73.7,66.7,73.5z"/>
	<path class="st4" d="M70.6,71.3c-0.3-0.1-0.9,1-1.3,0.8c-0.3-0.1,0.1-1.1-0.2-1.2c-0.4-0.2-2.5,1.4-2.4,2.6
		c0.6,0.1,1.3,0.2,1.9,0.3c0.7,0,1.4,0,1.9-0.2C71.1,72.7,70.9,71.5,70.6,71.3z"/>
	<path class="st4" d="M54.4,81.7c-0.3,0.5,0.7,1.6,1.3,2.2c1,1.1,1.6,1.8,2.3,1.7c1.1-0.2,1-2.2,2.2-2.4c1.1-0.2,2.1,1.8,2.7,1.6
		c0.5-0.2,0.6-2.2-0.4-3.3c-1.2-1.2-3.6-0.7-4.2,0.3c-0.4,0.7,0.2,1.8-0.1,1.8c-0.3,0.1-0.8-1.4-2.2-1.9
		C55.4,81.5,54.6,81.4,54.4,81.7z"/>
	<path class="st4" d="M54.7,10.7c-0.8,0.3-1.1,1.5-1.2,2.2c0,0.9,0.3,2.1,0.8,2.2c0.9,0.1,1.5-2.7,2.7-2.7c0.9,0,1.3,1.6,1.8,1.5
		c0.7-0.2,0.8-3.1-0.1-3.5c-0.5-0.2-0.8,0.4-1.9,0.4C55.7,11,55.3,10.4,54.7,10.7z"/>
	<path class="st4" d="M63,12.8c-0.6-0.3-2.1,0.7-2.2,1.9c0,0.6,0.2,1.4,0.7,1.5c0.6,0.1,1.2-0.6,1.4-1C63.5,14.3,63.5,13,63,12.8z"
		/>
	<path class="st4" d="M73.5,33.8c0-0.3-0.4-0.5-0.8-0.6c0,0,0,0,0,0c-0.3,0.7-0.6,1.3-0.8,1.9C72.8,34.7,73.6,34.2,73.5,33.8z"/>
	<path class="st4" d="M71.1,35.3c0.3-0.1,0.6-0.2,0.9-0.3c0.2-0.5,0.5-1.2,0.8-1.9c0,0,0,0,0,0c-0.4-0.1-0.8-0.2-1.1-0.3
		c-0.4-0.1-3.3-0.6-3.8,0.6c-0.2,0.5,0.1,1.2,0.4,1.6C69,35.9,70.3,35.6,71.1,35.3z"/>
	<path class="st4" d="M77.2,26.2c-0.2-0.6-1.5-0.6-2.5-0.2c-0.9,0.4-1.6,1.2-1.7,1.9c0.4,0.1,0.8,0.3,1,0.6c0,0,0.1,0.1,0.1,0.2
		c0.5,0,1-0.1,1.5-0.4C76.5,27.8,77.4,26.8,77.2,26.2z"/>
	<path class="st4" d="M73,27.8c0,0.2,0,0.3,0,0.4c0.1,0.3,0.6,0.4,1,0.4c0-0.1,0-0.1-0.1-0.2C73.7,28.1,73.4,27.9,73,27.8z"/>
	<path class="st4" d="M59.5,18.8c-0.2,0.3,1.6,1.2,3,3.5c1.1,1.7,1.1,2.9,1.6,2.9c0.6,0,1.4-1.6,1-3c-0.3-0.9-1.1-1.4-2.5-2.2
		C61.4,19.3,59.6,18.5,59.5,18.8z"/>
	<path class="st4" d="M67.9,18.9c-0.4,0.3-0.9,0.8-0.7,1.3c0.1,0.3,0.6,0.4,1,0.5c0.4,0.1,1.1,0.2,1.7-0.2c0.4-0.4,0.8-1,0.6-1.5
		C70.1,18.4,68.7,18.3,67.9,18.9z"/>
	<path class="st4" d="M68.9,27.1c-0.4-0.4-1.8-0.2-2.3,0.7c-0.2,0.3-0.2,0.6-0.2,1c0.8-0.4,1.6-0.7,2.4-0.9
		C69,27.5,69,27.2,68.9,27.1z"/>
	<path class="st4" d="M66.4,28.8c0.1,0.6,0.3,1,0.7,1.1c0.4,0.1,0.9-0.6,1.2-1c0.1-0.1,0.4-0.6,0.6-1.1C68,28.1,67.2,28.4,66.4,28.8
		z"/>
	<path class="st3" d="M71.1,42.5c-0.6,0.9-0.4,2.3,0.1,2.4c0.4,0.1,0.9-0.9,1.6-0.7c0.5,0.1,0.6,0.6,1,0.6c0.5-0.1,0.8-1.2,0.9-1.6
		c0.1-0.4,0.2-0.6,0.1-0.8C74.4,41.5,72,41.3,71.1,42.5z"/>
	<path class="st3" d="M85.3,38.7c-0.3-0.2-0.6,0.1-1.3-0.1c-0.7-0.1-0.8-0.5-1.3-0.6c-0.2,0-0.4,0-0.7,0c-0.1,0.3-0.2,0.6-0.3,0.9
		c-0.2,0.6-0.4,1.1-0.5,1.5c0.2,0,0.4,0.1,0.6,0c0.6-0.1,0.6-0.7,1.2-0.9c1-0.3,2,1.5,2.6,1.2C85.9,40.5,85.9,39,85.3,38.7z"/>
	<path class="st3" d="M81.9,38c-0.9,0.2-1.8,1.1-1.6,1.7c0.1,0.3,0.4,0.6,0.9,0.7c0.1-0.4,0.3-0.9,0.5-1.5
		C81.7,38.6,81.8,38.3,81.9,38z"/>
	<path class="st3" d="M86.1,32.4c-0.1-0.1-0.7-0.5-1-0.2c-0.4,0.3,0,1.3,0.3,1.9c0.2,0.3,0.4,0.6,1,1.3c0.8,1,0.9,1,1,1
		c0.3-0.1,0.1-1.4-0.2-2.4C86.8,32.8,86.3,32.5,86.1,32.4z"/>
	<path class="st3" d="M82.1,45c-0.8-0.3-1.9,1.8-3.1,1.5c-0.5-0.1-0.5-0.5-1.1-0.7c-0.7-0.2-1.8,0-2.3,0.9c-0.4,0.7-0.3,1.7,0.2,2.1
		c0.5,0.4,1.1,0,3-0.4c2.6-0.6,3.4-0.3,3.9-1C83.1,46.5,82.7,45.2,82.1,45z"/>
	<path class="st4" d="M81.8,53.9c-0.9-0.3-2.5,0.9-2.3,2.1c0.1,0.5,0.6,1,1.1,1.2c0.9,0.2,1.8-0.6,2-1.5
		C82.8,54.9,82.4,54.1,81.8,53.9z"/>
	<path class="st4" d="M84.7,53.7c-0.5,0.5-0.4,1.3-0.3,2.8c0.1,1.2,0.2,2.6,0.6,2.7c0.3,0,1-1.1,1-2.3c0-1.2-0.8-1.8-0.4-2.5
		s1.3-0.8,1.3-1C86.7,53.1,85.4,52.9,84.7,53.7z"/>
	<path class="st4" d="M80.1,62.8c-1.1,1.5,0.5,3.8,1,3.8s0.7-2.6,1.1-2.6c0.3,0,0.3,1.3,0.8,1.3c0.5,0.1,1.3-1,1.1-2
		C83.9,62.4,83,62,82.8,62C81.8,61.6,80.6,62,80.1,62.8z"/>
	<path class="st4" d="M80.7,71.8c-0.4,0.5-0.8,1.4-0.4,2.1c0.4,0.8,1.8,0.7,2.6,0.6C84,74.4,85,74,85,73.7c0-0.3-1.4-0.2-1.6-0.8
		c-0.1-0.4,0.4-1.2,0.7-1.5c0.2-0.2,0.2-0.2,0.3-0.3c0.4-0.7-0.6-2.3-1.3-2.2c-0.4,0.1-0.3,0.9-1.1,1.8
		C81.5,71.3,81.2,71.2,80.7,71.8z"/>
	<path class="st4" d="M86,66.2c-0.3,0.9-0.5,1.8-0.2,2.6c0.1,0.2,0.2,0.6,0.7,0.8c0.1,0,0.5,0.2,1,0.1c0.8-0.3,1-1.6,0.7-1.9
		c-0.4-0.3-1.3,0.4-1.6,0.2c-0.2-0.3,0.7-1.1,1-2.4c0.2-1.2-0.1-2.6-0.4-2.6C86.9,62.9,86.6,64,86,66.2z"/>
	<path class="st1" d="M24.6,24.7c-0.8-1.5-2.2-2.5-3.7-2.8c-0.4-0.1-1.5-0.2-4.8,1.5c-3.3,1.7-4.9,2.6-5.8,4.2c-0.8,1.6,0,2-0.4,7
		c-0.3,3.1-0.7,4.2-0.1,4.6c0.8,0.5,3.1-0.9,3.7-2.8c0.6-2.4-2-3.7-1.6-6.2c0.4-2,2.5-3.8,4.6-4.1c3.8-0.6,6.5,4.2,8.1,3.2
		C25.6,28.7,25.3,26.3,24.6,24.7z"/>
	<path class="st3" d="M21.8,24.1c0.9,0.2,1.5,0.9,1.7,1.7c0.1,0.7,0,1.6-0.6,1.9c-1,0.5-3.5-1.7-3.1-2.8
		C19.9,24.7,20.2,24.2,21.8,24.1z"/>
	<path class="st3" d="M11,34.2c-0.6,0.2-0.7,2.6,0,2.9c0.4,0.2,1.4-0.4,1.4-1.3C12.6,34.7,11.5,34,11,34.2z"/>
</g>
<g id="Ebene_2">
	<path class="st5" d="M82,60.1c-0.9-0.7-0.5-1.1-1.7-3.4c-1.1-2.1-1.8-2.3-1.6-2.9c0.4-1.4,4.2-0.7,6.2-2.6c1.4-1.4,1.3-3.3,1.1-5
		c-1.1-8,2.9-10.9,0.3-15c-1.6-2.5-5.7-3.6-14-5.9c-7.3-2-10.9-3-14.6-2.6c-6.4,0.7-6.1,3.7-16,7c-6.3,2.1-14.1,3.6-14.7,3.7
		c-5.6,1-8.2,1.1-10.7,3.2c-2.6,2.2-4.5,6.1-3,8.3c0.6,0.9,1.7,1.3,2.7,1.5c5.8,1.6,11.6,0.5,12.4,0.4c11.9-2.2,13.3,4.1,29.8,2.6
		c3.1-0.3,6.3-0.8,9.3,0.9c3.3,1.9,5.7,6.2,4.3,9c-1.4,2.9-5.6,2.1-16.3,5.4c-8.7,2.6-7.9,3.8-13.4,4.7c-7.5,1.1-15.1,0.4-17.6,0.2
		c-6.4-0.6-9.7-1.6-10.4-0.4c-0.7,1.2,1.8,3.9,4.3,5.5c3.7,2.3,7.6,2.4,16,1.9c16.5-1,15.6-2.2,20.6-1.5c7.2,1.1,9.7,3.8,15.8,2.6
		c2-0.4,5.5-1.1,7.6-3.7c2.4-3,1.1-6.1,4.1-7.9c1.7-1.1,3.7-0.9,4.2-2.3c0.3-0.7,0.1-1.6-0.5-2.2C85,60.4,83.4,61.2,82,60.1z
		 M17.3,41.5c-0.8-0.6-0.6-1.8-0.6-2c0.2-1.5,1.7-2.5,3.2-2.8c2-0.3,4.2,0.7,4.3,1.8C24.4,40.2,19,42.7,17.3,41.5z M56.8,35.9
		c-3.2,4.9-2.1,7.1-4.9,8.7c-4,2.4-11.5,1-13.8-3c-0.1-0.2-1.5-2.8-0.2-4.9c1.3-2.1,4-1.4,8.7-3.3c4.7-1.9,4.4-3.5,9-5.3
		c3.7-1.4,8.3-2,8.9-0.9C65.3,28.4,60.6,30.2,56.8,35.9z M64.4,44.1c-2.2,0.9-3.5,1.5-4.5,1c-2-0.9-1.6-5.6-0.2-8.9
		c1.8-4.3,6-8.2,10.7-8.6c0.6-0.1,2.9-0.2,3.7,0.8c0.7,0.9-0.1,2-1.3,4.8c-2.4,5.4-1.7,5.9-3.4,7.7C67.7,42.7,65.7,43.5,64.4,44.1z
		 M74.1,72.1c-0.6,0.4-2.6,1.7-5.4,1.7c-4.1-0.1-8.5-3.1-8.2-5.8c0.3-2.8,5.5-4.2,8.5-4.5c0.6-0.1,7.1-0.6,8.5,2.3
		C78.3,68,76,70.8,74.1,72.1z M74.9,46.9c-1.1,1.5-0.8,2.5-1.6,2.8c-1.3,0.4-4-1.3-4.5-3.4c-0.7-2.7,2.6-3.7,5-8.8
		c2.2-4.8,1.1-7.4,3.2-8.2c2.2-0.9,6,1.1,6.8,3.5c0.4,1.3-0.6,1.8-2.1,6.1c-1,2.9-0.7,2.9-1.3,3.7C78.7,44.9,76.6,44.5,74.9,46.9z"
		/>
	<path class="st6" d="M63.5,49.1c-0.4,0.4,3.8,3,3,5.4c-0.2,0.7-0.8,0.9-1.2,2.2c-0.2,0.5-0.1,0.8-0.2,2.6c-0.1,2.2-0.2,2.3,0,2.5
		c0.9,0.9,4.8,0.2,6.3-2c1.3-1.9,0.4-4.1,0-4.9C69.7,50.4,63.9,48.6,63.5,49.1z"/>
	<path class="st7" d="M17.6,51.3c-0.9,0.1-3.5-5-2.5-5.3c0.2-0.1,0.4,0.1,1.7,0.3c1,0.1,1.1,0.1,1.3,0.2c0.6,0.3,0.2,1.1-0.1,2.4
		C17.6,50.7,17.9,51.2,17.6,51.3z"/>
	<path class="st7" d="M20.8,52.6c-0.8,0.1-3-5.4-2.1-5.8c0.2-0.1,0.4,0.1,1.5,0.3c0.8,0.2,1,0.1,1.1,0.2c0.5,0.4,0.2,1.2-0.1,2.6
		C20.8,51.9,21.1,52.6,20.8,52.6z"/>
	<path class="st7" d="M23.7,53.5c-0.7,0.1-2.8-5.9-1.9-6.3c0.2-0.1,0.3,0.1,1.4,0.4c0.8,0.2,0.9,0.1,1,0.2c0.5,0.4,0.1,1.3-0.1,2.9
		C23.7,52.7,24,53.4,23.7,53.5z"/>
	<path class="st7" d="M28.8,53.1c-0.7,0.1-3-5.6-2.1-6c0.2-0.1,0.3,0.1,1.5,0.3c0.8,0.2,0.9,0.1,1.1,0.2c0.5,0.4,0.2,1.2-0.1,2.7
		C28.8,52.4,29,53,28.8,53.1z"/>
	<path class="st7" d="M26.5,53c-0.7,0.1-2.7-5.4-1.9-5.8c0.2-0.1,0.3,0.1,1.4,0.3c0.8,0.2,0.9,0.1,1,0.2c0.5,0.4,0.1,1.2-0.1,2.6
		C26.6,52.3,26.8,53,26.5,53z"/>
	<path class="st7" d="M31.1,52.6c-0.7,0.1-2.7-5.5-1.9-5.8c0.2-0.1,0.3,0.1,1.3,0.3c0.8,0.2,0.9,0.1,1,0.2c0.5,0.4,0.1,1.2-0.1,2.7
		C31.1,51.9,31.3,52.6,31.1,52.6z"/>
	<path class="st7" d="M33.4,51.8c-0.7,0.1-2.9-5.1-2.1-5.4c0.2-0.1,0.3,0.1,1.4,0.3c0.8,0.1,0.9,0.1,1.1,0.2
		c0.5,0.3,0.1,1.1-0.1,2.5C33.5,51.1,33.7,51.7,33.4,51.8z"/>
	<path class="st7" d="M35.8,51.2c-0.5,0.1-2.1-4-1.4-4.3c0.1-0.1,0.2,0.1,1,0.2c0.6,0.1,0.7,0.1,0.8,0.2c0.4,0.3,0.1,0.9-0.1,2
		C35.8,50.7,36,51.2,35.8,51.2z"/>
	<path class="st7" d="M38.3,51.7c-0.6,0.1-2.5-4.4-1.8-4.7c0.1-0.1,0.3,0.1,1.2,0.3c0.7,0.1,0.8,0.1,1,0.2c0.4,0.3,0.1,1-0.1,2.2
		C38.3,51.2,38.5,51.7,38.3,51.7z"/>
	<path class="st7" d="M40.9,52.2c-0.6,0.1-2.5-4-1.8-4.3c0.1-0.1,0.3,0.1,1.2,0.2c0.7,0.1,0.8,0.1,1,0.2c0.4,0.3,0.1,0.9-0.1,2
		C40.9,51.7,41.1,52.2,40.9,52.2z"/>
	<path class="st7" d="M43.1,51.2c-0.5,0.1-2.1-2.7-1.4-2.9c0.1,0,0.2,0.1,1,0.2c0.6,0.1,0.7,0,0.8,0.1c0.4,0.2,0.1,0.6-0.1,1.3
		C43.1,50.8,43.3,51.1,43.1,51.2z"/>
	<path class="st7" d="M45.2,51.2c-0.5,0.1-2.1-2.5-1.4-2.7c0.1,0,0.2,0,1,0.1c0.6,0.1,0.7,0,0.8,0.1c0.4,0.2,0.1,0.6-0.1,1.2
		C45.2,50.8,45.4,51.1,45.2,51.2z"/>
	<path class="st7" d="M16.8,64c-0.8-0.1-3.5,4.5-2.6,4.9c0.2,0.1,0.4-0.1,1.6-0.2c0.9-0.1,1,0,1.3-0.1c0.6-0.3,0.2-1,0-2.3
		C16.8,64.6,17.1,64,16.8,64z"/>
	<path class="st7" d="M19.9,63.3c-0.7-0.2-3.1,5-2.3,5.4c0.2,0.1,0.3-0.1,1.4-0.2c0.8-0.1,0.9-0.1,1.1-0.2c0.5-0.3,0.2-1.1,0-2.5
		C19.9,63.9,20.2,63.4,19.9,63.3z"/>
	<path class="st7" d="M22.7,63.1c-0.6-0.2-2.9,5.4-2.1,5.9c0.1,0.1,0.3-0.1,1.3-0.3c0.7-0.1,0.8-0.1,1-0.2c0.5-0.3,0.2-1.2,0-2.7
		C22.7,63.8,22.9,63.1,22.7,63.1z"/>
	<path class="st7" d="M28.3,63.7c-0.7-0.2-3.2,5.4-2.4,5.9c0.2,0.1,0.4-0.1,1.5-0.3c0.8-0.1,0.9-0.1,1.1-0.2c0.5-0.3,0.2-1.2,0-2.7
		C28.2,64.4,28.5,63.7,28.3,63.7z"/>
	<path class="st7" d="M25.2,64.2c-0.6-0.1-2.8,5-2.1,5.4c0.1,0.1,0.3-0.1,1.3-0.3c0.7-0.1,0.8-0.1,1-0.2c0.5-0.3,0.2-1.1,0-2.5
		C25.1,64.8,25.4,64.2,25.2,64.2z"/>
	<path class="st7" d="M30.4,63.8c-0.7-0.2-3,5.3-2.2,5.8c0.2,0.1,0.3-0.1,1.3-0.3c0.8-0.1,0.9-0.1,1-0.2c0.5-0.3,0.2-1.2,0-2.7
		C30.4,64.4,30.7,63.8,30.4,63.8z"/>
	<path class="st7" d="M32.9,64.1c-0.7-0.2-3.2,4.9-2.3,5.4c0.2,0.1,0.3-0.1,1.5-0.2c0.8-0.1,0.9-0.1,1.1-0.2c0.5-0.3,0.2-1.1,0-2.5
		C32.9,64.7,33.1,64.1,32.9,64.1z"/>
	<path class="st7" d="M34.9,65.7c-0.5-0.1-2.3,3.9-1.7,4.2c0.1,0.1,0.2-0.1,1-0.2c0.6-0.1,0.7,0,0.8-0.1c0.4-0.3,0.2-0.9,0-2
		C34.9,66.2,35.1,65.7,34.9,65.7z"/>
	<path class="st7" d="M37.9,65c-0.6-0.1-2.7,4.3-2,4.7c0.1,0.1,0.3-0.1,1.3-0.2c0.7-0.1,0.8,0,1-0.1c0.4-0.3,0.2-1,0-2.2
		C37.9,65.5,38.1,65,37.9,65z"/>
	<path class="st7" d="M40.2,65.4c-0.6-0.1-2.7,3.9-2,4.2c0.1,0.1,0.3-0.1,1.3-0.2c0.7-0.1,0.8,0,1-0.1c0.4-0.2,0.2-0.9,0-2
		C40.2,65.9,40.4,65.4,40.2,65.4z"/>
	<path class="st7" d="M42.2,66.4c-0.5-0.1-2.2,2.6-1.6,2.8c0.1,0,0.2,0,1-0.1c0.6-0.1,0.7,0,0.8-0.1c0.4-0.2,0.1-0.6,0-1.3
		C42.1,66.7,42.3,66.4,42.2,66.4z"/>
	<path class="st7" d="M44.6,66.4c-0.5-0.1-2.2,2.4-1.6,2.6c0.1,0,0.2,0,1-0.1c0.6-0.1,0.7,0,0.8-0.1c0.4-0.2,0.1-0.5,0-1.2
		C44.6,66.7,44.8,66.4,44.6,66.4z"/>
	<path class="st7" d="M51.7,85.5c-1.8-1.9-0.9-5.5-0.1-5.6c0.5-0.1,0.8,1.6,2.2,1.9c1,0.2,1.6-0.6,2.1-0.3c0.9,0.6,0.6,4.4-1.3,5
		C53.4,86.9,52.3,86.2,51.7,85.5z"/>
	<path class="st7" d="M83.8,53.3c-0.9,0.5-0.9,2.6-0.3,4c0.2,0.6,0.8,1.9,1.9,2.1c1.3,0.2,2.6-1.1,2.7-2.4c0-0.9-0.6-1.5-1.3-2.2
		C86.3,54.4,84.7,52.9,83.8,53.3z"/>
	<path class="st7" d="M43.1,88.3c0.7,0.7,2,1.5,3.1,1c1.6-0.6,2.1-3.2,1.3-4c-0.5-0.5-1.1-0.1-2.1-0.6c-1.5-0.8-1.4-2.8-1.9-2.8
		C42.8,81.9,41.1,86.1,43.1,88.3z"/>
	<path class="st7" d="M53.8,85.6c-0.7,0.4,0.4,5.6,2.5,5.8c0.9,0.1,1.8-0.8,2.2-1.3c0.8-0.9,1.6-2.4,1.2-3c-0.4-0.5-1.6,0.5-3.3,0.1
		C54.7,86.8,54.1,85.4,53.8,85.6z"/>
	<path class="st7" d="M63.9,18.2c-0.5,1,2.5,4.8,5.6,4.1c1.5-0.3,2.9-1.5,3.3-3.1c0.5-2.1-0.7-4.5-1.8-4.6c-0.9-0.1-1,1.6-2.8,2.7
		C66.2,18.5,64.3,17.5,63.9,18.2z"/>
	<path class="st7" d="M53.6,18.4c0.1,1,3.8,1.9,6.8,0.6c0.6-0.3,3.6-1.5,3.6-3.9c0-2.3-2.8-4.2-4.1-3.7c-0.8,0.3-0.6,1.4-1.5,3
		C56.6,17.3,53.5,17.5,53.6,18.4z"/>
	<path class="st7" d="M49.8,6.7c-0.7-0.1-1.6,4.4-1.8,8c-0.2,3,0.2,4.1,0.9,4.7c1,1,2.7,1.4,3.4,0.7c0.8-0.8-0.5-2.7-1.5-7
		C49.9,9.1,50.3,6.8,49.8,6.7z"/>
	<path class="st7" d="M37.2,10c0.4-0.3,3.1,2.9,8.4,9.2c0.8,1,2,2.4,1.6,3.9c-0.2,0.9-1.1,1.8-2.1,1.9c-2.1,0.2-3.9-3.6-5.3-6.5
		C39.3,17.3,36.1,10.7,37.2,10z"/>
</g>
</svg>
