<?xml version="1.0" encoding="utf-8"?>
<!-- Generator: Adobe Illustrator 26.0.3, SVG Export Plug-In . SVG Version: 6.00 Build 0)  -->
<svg version="1.1" id="Ebene_1" xmlns="http://www.w3.org/2000/svg" xmlns:xlink="http://www.w3.org/1999/xlink" x="0px" y="0px"
	 viewBox="0 0 100 100" style="enable-background:new 0 0 100 100;" xml:space="preserve">
<style type="text/css">
	.st0{fill:#804122;stroke:#000000;stroke-width:2;stroke-miterlimit:10;}
	.st1{fill:#804122;stroke:#000000;stroke-width:0.5;stroke-miterlimit:10;}
	.st2{fill:#83533A;stroke:#000000;stroke-miterlimit:10;}
	.st3{fill:#855B3A;stroke:#000000;stroke-width:0.5;stroke-miterlimit:10;}
	.st4{fill:#3B733A;stroke:#000000;stroke-miterlimit:10;}
	.st5{fill:#3B873A;stroke:#000000;stroke-width:0.5;stroke-miterlimit:10;}
	.st6{fill:#9F6D36;stroke:#000000;stroke-width:0.75;stroke-miterlimit:10;}
	.st7{fill:#9F8769;stroke:#000000;stroke-width:0.5;stroke-miterlimit:10;}
</style>
<g id="Ebene_1_00000105394206495958893710000000907105606858611385_">
	<g id="Ebene_2_00000037695081456361326870000000537167486581588369_">
	</g>
	<g id="Ebene_1_00000061445211855329728190000003209767103334527892_">
		<polygon class="st0" points="8,25.79 49.97,1.57 91.97,25.84 92,74.34 50.03,98.57 8.03,74.29 		"/>
	</g>
	<path class="st1" d="M62.07,86.07"/>
</g>
<g id="Ebene_2_00000111873578797776195800000016808568050078377628_">
	<path class="st2" d="M12.78,58.91c1.94,5.62,12.61,8.9,14.52,9.48c3.53,1.08,10.04,3,18.52,1.78c3.05-0.44,7.77-1.17,12.89-4.3
		c6.51-3.97,9.23-9.1,11.7-13.78c0.39-0.73,1.58-3.05,0.89-3.7c-0.7-0.66-2.52,1.12-5.04,1.19c-2.95,0.07-4.91-2.27-6.81-3.85
		c-3.42-2.84-6.95-3.44-13.63-4.59c-15.26-2.63-27.73,5.6-30.81,9.04c-0.74,0.83-2.45,2.72-2.67,5.48
		C12.33,55.65,12.2,57.25,12.78,58.91z"/>
	<path class="st3" d="M26.41,65.13c-0.8,1.02-12.69-3.71-12.59-9.19c0.13-7.2,21.12-12.77,21.48-12c0.07,0.15-3.91,1.61-8.89,5.63
		c-3.1,2.51-4.66,3.8-5.04,5.78C20.46,60.15,27.04,64.32,26.41,65.13z"/>
	<path class="st3" d="M24.48,55.5c0.41-1.47,1.65-1.82,5.78-4.59c6.3-4.23,5.38-4.74,7.99-5.83c3.99-1.67,10.16-2.14,14.23,0.8
		c1.88,1.36,1.98,2.47,5.04,4.59c2.98,2.07,4.24,1.94,4.74,3.11c1.14,2.67-3.44,7.93-8.3,10.81c-6.66,3.95-16.29,4.88-23.26,0.3
		C27.64,62.67,23.62,58.62,24.48,55.5z"/>
	<path class="st4" d="M50.55,17.28c-0.94,4.63-1.45,7.14-3.26,9.63c-0.36,0.49-0.66,0.84-0.76,0.95c-3.05,3.51-9.41,6.97-12.87,4.83
		c-3.03-1.87-3.09-7.56-2.07-11.26C34.36,11.35,48.02,5.71,51,8.39C52.15,9.43,51.61,12.05,50.55,17.28z"/>
	<path class="st4" d="M71.15,47.21c-0.24,0.75,0.39,1.85,1.19,2.07c1.04,0.29,2.17-0.98,2.71-1.59c2.89-3.25,4.15-12.51,0.25-21.22
		c-2.04-4.55-4.77-7.35-8-10.67c-4.78-4.91-8.11-6.34-9.33-6.81c-3.12-1.22-7.53-2.07-7.98-1.1c-0.27,0.59,0.86,1.98,1.46,1.84
		c0.3-0.07,0.3-0.47,0.59-0.74c0.9-0.84,3.51,0.56,3.79,0.71c14.31,7.86,17.84,17.06,17.84,17.06c3.26,8.49,2.26,18.09-0.56,19.23
		C72.6,46.2,71.4,46.4,71.15,47.21z"/>
	<path class="st5" d="M46.7,9.58c-1.88-1.26-6.95,2.69-9.78,6.37c-2.7,3.51-5.71,9.84-3.26,13.48c0.28,0.41,0.95,1.41,2.07,1.63
		c3.7,0.73,7.91-7.8,8.44-8.89C45.95,18.58,48.83,11.01,46.7,9.58z"/>
	<path class="st6" d="M71.15,49.74c-0.03-0.84-0.38-1.4-0.22-1.49c0.25-0.14,0.81,1.16,1.73,1.31c1.06,0.17,1.57-1.52,3.08-2.5
		c1.42-0.92,2.93-0.72,4.67-0.59c6.87,0.52,11.65-0.34,11.69,0.15c0.02,0.24-1.18,0.56-2.95,1.04c-0.51,0.14-1.37,0.37-2.3,0.51
		c-2.15,0.32-2.88-0.11-6-0.21c-2.07-0.07-3.1-0.1-3.93,0.22c-0.61,0.24-1.61,1.17-3.63,3.04c-0.37,0.34-0.81,0.76-0.81,1.33
		c0,0.72,0.69,1.25,0.89,1.41c2.15,1.75,5.27,8.28,6.59,12.07c0.62,1.79,1.41,4.12,1.41,7.26c0,1.64-0.03,3.73-1.19,5.93
		c-1.5,2.85-4.19,4.57-4.46,4.32c-0.25-0.23,1.62-2.08,2.72-4.07c5.02-9.15-4.22-25.35-7.29-24.77c-0.71,0.14-1.31,1.21-1.93,2.3
		c-0.6,1.07-0.81,1.96-1.19,3.63c-0.43,1.94-0.57,3.49-0.67,4.59c-0.08,0.98-0.11,1.7-0.15,2.74c-0.18,5.24-0.1,5.54-0.19,6.66
		c-0.02,0.27-0.35,3.89-1.96,6.9c-2.2,4.11-6.18,5.94-8.67,7.04c-9.73,4.3-20.06,2.26-20.07,1.77c-0.01-0.33,4.75-0.79,8.07-1.11
		c2.07-0.2,2.75-0.21,3.7-0.3c2.44-0.23,9.34-0.87,13.63-5.19c3.69-3.72,4.58-9.3,3.64-9.86c-0.62-0.38-1.79,1.62-5.42,3.49
		c-2.48,1.28-4.63,1.73-5.93,2c-3.21,0.66-5.66,0.51-8.74,0.3c-3.69-0.25-6.38-0.78-9.11-1.33c-6.1-1.23-10.54-2.72-12.07-3.26
		c-2.3-0.8-4.59-1.61-7.48-3.04c-4.77-2.36-8.64-5.16-8.49-5.41c0.13-0.23,3.4,1.72,10.2,4.74c4.9,2.18,7.35,3.27,10.59,4.22
		c4.71,1.37,8.49,1.79,12.52,2.23c3.87,0.42,6.14,0.43,7.85,0.37c2.72-0.1,4.73-0.19,7.27-1.08c0.59-0.21,3-1.08,5.55-3.07
		c1.27-0.99,2.08-1.63,2.74-2.81c0.7-1.27,0.83-2.44,1.07-4.67c0.22-2,0.02-2.11,0.26-3.99c0.16-1.26,0.31-2.52,0.86-4.06
		c0.68-1.95,1.72-3.59,2.05-4.12c0.33-0.52,0.79-1.19,1.32-2.26C71.08,50.74,71.16,50.19,71.15,49.74z"/>
	<path class="st7" d="M90.11,72.25c-0.08,0.22-3.54-0.32-6.81-2.59c-1.49-1.03-2.85-1.98-3.33-3.63c-0.22-0.75-0.17-1.34-0.67-2.44
		c-0.59-1.31-1.38-2.07-1.25-2.19c0.11-0.1,0.77,0.35,1.29,0.85c0.59,0.57,0.94,1.15,1.52,2.23c0.5,0.93,0.74,1.39,1.04,2.04
		C83.3,69.6,90.22,71.93,90.11,72.25z"/>
	<path class="st7" d="M73.96,77.95c0.18-1.34,0.58-2.3,0.96-3.19c2.14-4.94,2.42-4.8,2.74-6.22c0.62-2.76-0.07-5,0.2-5.04
		c0.15-0.02,0.41,0.83,0.92,2.52c0.4,1.35,0.61,2.03,0.6,2.37c-0.04,1.34-0.98,1.77-2.23,3.63c-1.1,1.65-1.58,3.15-2,4.44
		c-0.85,2.65-0.83,4.53-1.04,4.52C73.93,80.98,73.76,79.5,73.96,77.95z"/>
	<path class="st7" d="M59.91,75.52c-0.92,0.53-1.48,0.85-1.98,1.03c-2.08,0.73-4.25-0.67-5.66-1.36
		c-5.54-2.74-11.39-0.78-11.41-1.23c-0.02-0.36,3.67-1.62,7.85-0.89c3.86,0.67,4.55,2.41,7.78,2.37c3.46-0.05,6.06-2.09,6.18-1.84
		C62.76,73.79,60.9,74.94,59.91,75.52z"/>
	<path class="st7" d="M67.25,67.2c-0.21,0.4-0.03,0.55-0.07,1.93c-0.03,0.96-0.13,1.54-0.05,1.56c0.12,0.03,0.22-1.27,1.2-2.29
		c0.45-0.47,0.62-0.4,1-0.75c1.18-1.1,0.38-2.6,1.16-4.72c0.67-1.8,1.95-2.63,1.76-2.82c-0.16-0.17-1.25,0.43-2,1.33
		c-0.82,1-1.04,2.16-1.1,2.48c-0.2,1.14,0.12,1.4-0.24,1.97C68.43,66.67,67.64,66.42,67.25,67.2z"/>
	<path class="st7" d="M40.44,79.11c0.05-0.1,0.64,0.16,1.8,0.25c0.55,0.05,0.59,0,0.9,0.04c0.96,0.13,1.52,0.69,2.07,1.06
		c0.79,0.53,1.52,0.65,2.96,0.89c2.55,0.42,4.4-0.32,4.44-0.15c0.04,0.16-1.48,0.78-3.19,1.04c-1.06,0.16-2.02,0.31-3.19,0
		c-1.24-0.33-1.77-0.91-2.07-0.67c-0.41,0.33,0.45,1.44,0.22,3.19c-0.14,1.08-0.64,1.96-0.81,1.93c-0.22-0.05,0.11-1.47-0.21-3.69
		c-0.12-0.82-0.18-1.23-0.39-1.65C42.19,79.78,40.37,79.28,40.44,79.11z"/>
	<path class="st7" d="M79.8,46.42c0.06,0.15,0.58,0.17,1.64,0.19c0.74,0.02,1.11,0.03,1.26-0.02c0.8-0.26,1.16-1.16,1.85-2.94
		c0.36-0.92,0.54-1.38,0.67-2.07c0.23-1.23,0-1.59,0.37-2.07c0.44-0.58,1-0.41,2.15-0.96c0.69-0.33,1.09-0.68,1.88-1.38
		c1.51-1.32,2.55-2.76,2.46-2.84c-0.1-0.09-1.35,1.51-3.75,2.74c-1.11,0.57-1.85,0.93-2.59,0.67c-1.17-0.42-1.03-1.93-2.15-2.3
		c-1.2-0.39-2.73,0.88-2.63,1.16c0.09,0.25,1.46-0.49,2.48,0.18c1.02,0.66,1.03,2.3,1.04,2.96c0.02,2.3-1.31,3.94-1.48,4.15
		C81.59,45.57,79.66,46.05,79.8,46.42z"/>
	<path class="st7" d="M18.92,71.62c-0.7-0.42-0.85-0.97-1.54-2.06c-0.55-0.87-0.93-1.48-1.44-1.94c-1.03-0.94-1.91-0.69-4.4-1.35
		c-1.62-0.44-3.46-1.13-3.41-1.31c0.04-0.17,1.7,0.34,6.31,1.17c0.89,0.16,1.48,0.26,2.08,0.72c0.98,0.76,0.82,1.58,1.98,2.66
		c0.63,0.59,0.74,0.41,1.67,1.15c1.33,1.05,2.21,2.3,2.08,2.44c-0.09,0.1-0.62-0.48-1.86-0.97C19.5,71.76,19.4,71.91,18.92,71.62z"
		/>
	<path class="st7" d="M29.65,76.77c0.12-0.14,0.53,0.16,1.45,0.39c1.03,0.26,1.48,0.13,1.6,0.4c0.17,0.36-0.46,1-0.82,1.36
		c-1.12,1.11-1.86,1.24-2.52,1.78c-1.85,1.51-1.18,4.68-1.57,4.69c-0.32,0.01-1.25-2.14-0.43-3.88c0.84-1.78,3.04-2.12,2.96-3.33
		C30.29,77.46,29.49,76.97,29.65,76.77z"/>
	<path class="st7" d="M63.04,84.29c-1.4,1.73-2.12,1.78-3.08,3.36c-0.4,0.65-0.62,1.22-0.72,1.46c-0.33,0.87-0.39,1.46-0.48,1.91
		c-0.46,2.15-2.22,3.36-2.08,3.49c0.13,0.13,1.78-0.79,3.06-2.6c1.56-2.2,0.72-3.09,2.27-4.88c0.89-1.02,1.71-1.36,2.25-2.72
		c0.33-0.82,0.46-1.79,0.26-1.88C64.32,82.36,63.97,83.15,63.04,84.29z"/>
</g>
</svg>
