<?xml version="1.0" encoding="utf-8"?>
<!-- Generator: Adobe Illustrator 26.0.3, SVG Export Plug-In . SVG Version: 6.00 Build 0)  -->
<svg version="1.1" id="Ebene_1" xmlns="http://www.w3.org/2000/svg" xmlns:xlink="http://www.w3.org/1999/xlink" x="0px" y="0px"
	 viewBox="0 0 100 100" style="enable-background:new 0 0 100 100;" xml:space="preserve">
<style type="text/css">
	.st0{fill:#FFCDAA;stroke:#000000;stroke-miterlimit:10;}
	.st1{fill:#F8F5FA;stroke:#000000;stroke-width:0.25;stroke-miterlimit:10;}
	.st2{fill:#7BBFEF;stroke:#000000;stroke-width:0.25;stroke-miterlimit:10;}
	.st3{fill:#2DA8CD;}
	.st4{fill:#F8F5FA;}
	.st5{fill:#193962;stroke:#000000;stroke-miterlimit:10;}
	.st6{fill:#047533;stroke:#000000;stroke-miterlimit:10;}
	.st7{fill:#8B5D33;stroke:#000000;stroke-miterlimit:10;}
	.st8{fill:#FFBFEF;stroke:#000000;stroke-width:0.25;stroke-miterlimit:10;}
</style>
<g id="Ebene_2_00000093860788734264317370000010671531211922489223_">
</g>
<g id="Ebene_2_00000155117456943755282400000000455714548288664224_">
</g>
<g>
	<path class="st0" d="M25.2,58c-0.7,0.1-1,4.1-0.3,7.9c0.5,2.5,0.7,3.8,1.8,4.9c2.9,2.8,8.6,1,11.7,0c1.9-0.6,4.6-1.7,4.4-2.2
		c-0.1-0.4-1.7-0.4-2.5-0.3c-2,0.2-2.9,0.8-4.5,1.3c-0.5,0.2-4.7,1.5-6.7-0.3c-0.9-0.8-0.7-1.5-1.3-4.3C27.3,62.2,25.9,57.9,25.2,58
		z"/>
	<path class="st0" d="M74.6,57.4c0.7,0.1,1,4.1,0.3,7.9c-0.5,2.5-0.7,3.8-1.8,4.9c-2.9,2.8-8.6,1-11.7,0c-1.9-0.6-4.6-1.7-4.4-2.2
		c0.1-0.4,1.7-0.4,2.5-0.3c2,0.2,2.9,0.8,4.5,1.3c0.5,0.2,4.7,1.5,6.7-0.3c0.9-0.8,0.7-1.5,1.3-4.3C72.6,61.6,73.9,57.3,74.6,57.4z"
		/>
	<g id="Ebene_1_00000017510764199299988230000010460311392665681541_">
		<path class="st0" d="M50.8,15.5l24.2,42l-24.3,42C41.9,85.7,33,71.9,24.1,58.1C33,43.9,41.9,29.7,50.8,15.5z"/>
	</g>
	<g id="Ebene_1_00000077320560478294647840000007404993614832330670_">
		<polygon class="st1" points="52.7,40.5 55.7,38.8 58.7,40.5 58.7,43.9 55.7,45.6 52.7,43.9 		"/>
	</g>
	<g id="Ebene_1_00000055667255202870268030000016467383680293313212_">
		<polygon class="st1" points="41.3,40 44.3,38.2 47.3,40 47.3,43.5 44.3,45.2 41.3,43.5 		"/>
	</g>
	<path class="st2" d="M42,41c-0.5,1.4,0.5,3.3,1.9,3.4c1,0.1,2-0.7,2.3-1.6c0.5-1.5-0.7-3.3-2.1-3.4C43.1,39.4,42.3,40.2,42,41z"/>
	<path class="st3" d="M42.6,41.5C42.3,42.5,43,44,44,44.1c0.7,0.1,1.4-0.5,1.7-1.2c0.4-1.1-0.5-2.5-1.6-2.6
		C43.5,40.3,42.9,40.9,42.6,41.5z"/>
	<path d="M43.9,40.5c0.7-0.1,1.6,1.4,1.2,2.3c-0.1,0.3-0.4,0.6-0.7,0.6c-0.6,0.1-1.1-0.5-1.3-1C42.8,41.6,43.3,40.5,43.9,40.5z"/>
	<path class="st2" d="M53.6,41.2c-0.5,1.4,0.5,3.3,1.9,3.4c1,0.1,2-0.7,2.3-1.6c0.5-1.5-0.7-3.3-2.1-3.4
		C54.8,39.7,53.9,40.4,53.6,41.2z"/>
	<path class="st3" d="M54.3,41.8c-0.4,1.1,0.4,2.5,1.4,2.6c0.7,0.1,1.4-0.5,1.7-1.2c0.4-1.1-0.5-2.5-1.6-2.6
		C55.1,40.6,54.5,41.2,54.3,41.8z"/>
	<path d="M55.5,40.9c0.7-0.1,1.6,1.4,1.2,2.3c-0.1,0.3-0.4,0.6-0.7,0.6c-0.6,0.1-1.1-0.5-1.3-1C54.4,42,54.9,40.9,55.5,40.9z"/>
	<g id="Ebene_1_00000033367673050473923450000010658416413597282463_">
		<polygon class="st4" points="43.8,40.3 44.6,39.8 45.4,40.3 45.4,41.2 44.6,41.7 43.8,41.2 		"/>
	</g>
	<g id="Ebene_1_00000035514672560888587490000013862623225973138364_">
		<polygon class="st4" points="55.5,40.6 56.3,40.1 57.1,40.6 57.1,41.5 56.3,41.9 55.5,41.5 		"/>
	</g>
	<g id="Ebene_1_00000088116189014325581710000011121221905271166360_">
		<polygon class="st4" points="54.7,39.9 55.2,39.6 55.7,39.9 55.7,40.4 55.2,40.7 54.7,40.4 		"/>
	</g>
	<g id="Ebene_1_00000033360894988293432560000010296819548119508104_">
		<polygon class="st4" points="43,39.3 43.5,39 43.9,39.3 43.9,39.9 43.5,40.1 43,39.9 		"/>
	</g>
	<g id="Ebene_1_00000039824289640207835860000008791384192392029331_">
		<polygon class="st1" points="42.5,25.5 45.5,23.8 48.5,25.5 48.5,29 45.5,30.8 42.5,29 		"/>
	</g>
	<g id="Ebene_1_00000026869855207117812370000015553760672801222793_">
		<polygon class="st1" points="40.4,22.5 43.5,20.7 46.5,22.5 46.5,26 43.5,27.7 40.5,26 		"/>
	</g>
	<g id="Ebene_1_00000008109907504984298260000003364179695838463932_">
		<polygon class="st1" points="52.8,26 55.8,24.2 58.8,26 58.8,29.5 55.8,31.2 52.8,29.5 		"/>
	</g>
	<g id="Ebene_1_00000070820961522200056790000004254625814443316114_">
		<polygon class="st1" points="54.4,22.5 57.4,20.7 60.4,22.5 60.4,26 57.4,27.7 54.4,26 		"/>
	</g>
	<g id="Ebene_1_00000142895027803878175270000007755054174491595677_">
		<polygon class="st1" points="41.8,19 44.8,17.2 47.8,19 47.8,22.5 44.8,24.2 41.8,22.5 		"/>
	</g>
	<g id="Ebene_1_00000011724655202493483870000002884590823298621617_">
		<polygon class="st1" points="38.3,26.6 41.3,24.9 44.3,26.6 44.3,30.1 41.3,31.9 38.3,30.1 		"/>
	</g>
	<g id="Ebene_1_00000031179945808599715830000011384703023415153819_">
		<polygon class="st1" points="56.4,27.4 59.4,25.6 62.4,27.4 62.4,30.9 59.4,32.6 56.4,30.9 		"/>
	</g>
	<g id="Ebene_1_00000025426529477448281240000008539270057257195667_">
		<polygon class="st1" points="37.4,32.5 40.4,30.8 43.5,32.5 43.5,36 40.5,37.8 37.4,36 		"/>
	</g>
	<g id="Ebene_1_00000049921620560987929400000012897247880828746119_">
		<polygon class="st1" points="52.7,19.6 55.7,17.9 58.7,19.6 58.7,23.1 55.7,24.9 52.7,23.1 		"/>
	</g>
	<g id="Ebene_1_00000059271500472884663580000012279983759565088178_">
		<polygon class="st1" points="58.4,32.5 61.4,30.8 64.4,32.5 64.4,36 61.4,37.8 58.4,36 		"/>
	</g>
	<g id="Ebene_1_00000072242404039384301770000009076879064926836871_">
		<polygon class="st1" points="47.7,51 50.7,49.3 53.7,51 53.7,54.5 50.7,56.3 47.7,54.5 		"/>
	</g>
	<g id="Ebene_1_00000158005028753318331640000005536916357925564823_">
		<polygon class="st1" points="42.3,50.3 45.3,48.5 48.4,50.3 48.4,53.8 45.4,55.5 42.3,53.8 		"/>
	</g>
	<g id="Ebene_1_00000085236464374177330490000001529811050895858604_">
		<polygon class="st1" points="52.5,51.3 55.5,49.5 58.5,51.3 58.5,54.8 55.5,56.5 52.5,54.8 		"/>
	</g>
	<g id="Ebene_1_00000167377857004576153410000011156291551828835487_">
		<polygon class="st1" points="44.6,50.7 47.6,48.9 50.6,50.7 50.6,54.2 47.6,55.9 44.6,54.2 		"/>
	</g>
	<g id="Ebene_1_00000017496513514152884060000011465469307570865087_">
		<polygon class="st1" points="49.5,51.8 52.1,49.5 55.4,50.6 56.1,54 53.5,56.3 50.2,55.2 		"/>
	</g>
	<g id="Ebene_1_00000105401140933583336410000009054718454626061203_">
		<polygon class="st1" points="30.7,45.5 33.7,43.8 36.7,45.5 36.7,49 33.7,50.8 30.7,49 		"/>
	</g>
	<g id="Ebene_1_00000021111052932889862230000015686060927641635998_">
		<polygon class="st1" points="35.3,48.2 38.3,46.5 41.3,48.3 41.3,51.8 38.3,53.5 35.3,51.7 		"/>
	</g>
	<g id="Ebene_1_00000025405823252571586060000008735716544275687307_">
		<polygon class="st1" points="38.8,50.1 41.8,48.3 44.8,50.1 44.8,53.6 41.8,55.3 38.8,53.6 		"/>
	</g>
	<g id="Ebene_1_00000025402772173304186490000014348131047622127293_">
		<polygon class="st1" points="63.2,45.5 66.2,43.8 69.2,45.5 69.2,49 66.2,50.8 63.2,49 		"/>
	</g>
	<g id="Ebene_1_00000096040250880530302240000001143879400493834897_">
		<polygon class="st1" points="59.4,48.2 62.4,46.5 65.4,48.3 65.4,51.8 62.4,53.5 59.4,51.7 		"/>
	</g>
	<g id="Ebene_1_00000176749529401374831080000011200808984317656754_">
		<polygon class="st1" points="55.8,51 58.8,49.3 61.8,51 61.8,54.5 58.8,56.3 55.8,54.5 		"/>
	</g>
	<g id="Ebene_1_00000142141476474151583670000012762874077937534087_">
		<polygon class="st1" points="32.3,50.7 35.3,48.9 38.3,50.7 38.3,54.2 35.3,55.9 32.3,54.2 		"/>
	</g>
	<g id="Ebene_1_00000004521481256185139010000015125901247583548302_">
		<polygon class="st1" points="36.3,55.7 39.3,54 42.3,55.7 42.3,59.2 39.3,61 36.3,59.2 		"/>
	</g>
	<g id="Ebene_1_00000003798510367936711760000007396146294094173600_">
		<polygon class="st1" points="39.5,59.8 42.5,58.1 45.5,59.8 45.5,63.3 42.5,65.1 39.5,63.3 		"/>
	</g>
	<g id="Ebene_1_00000142898289089946440470000005045145538576711103_">
		<polygon class="st1" points="42.4,61.9 45.4,60.2 48.4,61.9 48.4,65.4 45.4,67.2 42.4,65.4 		"/>
	</g>
	<g id="Ebene_1_00000177474479003703325070000006748050994124529077_">
		<polygon class="st1" points="36.5,61.7 39.5,60 42.5,61.7 42.5,65.2 39.5,67 36.5,65.2 		"/>
	</g>
	<g id="Ebene_1_00000108284850561784979340000000671226738434353062_">
		<polygon class="st1" points="41.2,55 44.2,53.2 47.2,55 47.2,58.5 44.2,60.2 41.2,58.5 		"/>
	</g>
	<g id="Ebene_1_00000013880470893010259500000008371276187909631386_">
		<polygon class="st1" points="45.4,59.2 48.4,57.5 51.4,59.2 51.4,62.7 48.4,64.5 45.4,62.7 		"/>
	</g>
	<g id="Ebene_1_00000021097654622769110830000007736130006485748389_">
		<polygon class="st1" points="40.4,64.2 43.5,62.5 46.5,64.2 46.5,67.7 43.5,69.5 40.5,67.7 		"/>
	</g>
	<g id="Ebene_1_00000109716494092876300120000005414952563835310748_">
		<polygon class="st1" points="54.4,55 57.4,53.2 60.4,55 60.4,58.5 57.4,60.2 54.4,58.5 		"/>
	</g>
	<g id="Ebene_1_00000005979253603418335820000016945160914665118611_">
		<polygon class="st1" points="28.3,53.6 31.3,51.8 34.3,53.6 34.3,57.1 31.3,58.8 28.3,57.1 		"/>
	</g>
	<g id="Ebene_1_00000010996063193635573740000018430548062495552952_">
		<polygon class="st1" points="34,54.5 37,52.8 40,54.5 40,58 37,59.8 34,58 		"/>
	</g>
	<g id="Ebene_1_00000081621081027175403770000017424399746551949975_">
		<polygon class="st1" points="61.4,52.2 64.4,50.5 67.4,52.2 67.4,55.7 64.4,57.5 61.4,55.7 		"/>
	</g>
	<g id="Ebene_1_00000053515238661532527630000000417713181982469294_">
		<polygon class="st1" points="51.4,58 54.4,56.3 57.4,58 57.4,61.5 54.4,63.3 51.4,61.5 		"/>
	</g>
	<g id="Ebene_1_00000003786060047884436390000007033315991830782389_">
		<polygon class="st1" points="48.4,61.9 51.4,60.2 54.4,61.9 54.4,65.4 51.4,67.2 48.4,65.4 		"/>
	</g>
	<g id="Ebene_1_00000025442063020742695270000004015265898251744410_">
		<polygon class="st1" points="45.1,65.4 48.1,63.7 51.1,65.4 51.1,68.9 48.1,70.7 45.1,68.9 		"/>
	</g>
	<g id="Ebene_1_00000025415579864972183310000003474445513935317640_">
		<polygon class="st1" points="33.3,58.6 36.3,56.8 39.4,58.6 39.4,62.1 36.4,63.8 33.3,62.1 		"/>
	</g>
	<g id="Ebene_1_00000017492405459060011720000005869763221873801633_">
		<polygon class="st1" points="50.7,65.2 53.7,63.5 56.7,65.2 56.7,68.7 53.7,70.5 50.7,68.7 		"/>
	</g>
	<g id="Ebene_1_00000174588821576514632280000009435946787240811164_">
		<polygon class="st1" points="54.7,63.4 57.7,61.6 60.7,63.4 60.7,66.9 57.7,68.6 54.7,66.9 		"/>
	</g>
	<g id="Ebene_1_00000005986160108771564400000005178574783159789752_">
		<polygon class="st1" points="57.4,59.2 60.4,57.5 63.4,59.2 63.4,62.7 60.4,64.5 57.4,62.7 		"/>
	</g>
	<g id="Ebene_1_00000023253862802704410320000011240457265533340846_">
		<polygon class="st1" points="59.4,55.7 62.4,54 65.4,55.7 65.4,59.2 62.4,61 59.4,59.2 		"/>
	</g>
	<g id="Ebene_1_00000010279905019081425780000008188616743915773323_">
		<polygon class="st1" points="65.4,53 68.4,51.3 71.5,53 71.5,56.5 68.5,58.3 65.4,56.5 		"/>
	</g>
	<g id="Ebene_1_00000102526549291254661400000000872429394256850584_">
		<polygon class="st1" points="65.4,48.7 68.4,47 71.5,48.7 71.5,52.2 68.5,54 65.4,52.2 		"/>
	</g>
	<g id="Ebene_1_00000067958590849788995250000009953403857760005018_">
		<polygon class="st1" points="27.7,49 30.7,47.3 33.7,49 33.7,52.5 30.7,54.3 27.7,52.5 		"/>
	</g>
	<g id="Ebene_1_00000121977039212713638030000003031638004964802459_">
		<polygon class="st1" points="30.3,57.3 33.3,55.5 36.3,57.3 36.3,60.8 33.3,62.5 30.3,60.8 		"/>
	</g>
	<g id="Ebene_1_00000025443833374826386570000005396738715449833894_">
		<polygon class="st1" points="42.1,59.2 45.1,57.5 48.1,59.2 48.1,62.7 45.1,64.5 42.1,62.7 		"/>
	</g>
	<g id="Ebene_1_00000008847606502952689490000000593334490745273521_">
		<polygon class="st1" points="58.8,61.5 61.8,59.8 64.8,61.5 64.8,65 61.8,66.8 58.8,65 		"/>
	</g>
	<g id="Ebene_1_00000104671608773115134830000012168604449385847469_">
		<polygon class="st1" points="62.4,57.3 65.4,55.5 68.4,57.3 68.4,60.8 65.4,62.5 62.4,60.8 		"/>
	</g>
	<g id="Ebene_1_00000031174007203655022680000002406319054050370210_">
		<polygon class="st1" points="69.1,52.2 72.5,51.4 74.8,54 73.8,57.3 70.4,58.1 68.1,55.5 		"/>
	</g>
</g>
<g>
	<path class="st5" d="M27,51.9c1-0.1,1.8,3,5.3,8.3c0.8,1.2,2.4,3.1,3.7,4.9c3.1,4.2,8.8,7,14,7c5.6,0,9.6-3.1,14.8-7.1
		c1.7-1.3,3.5-2.7,5.2-5.1c2.9-4.1,3.5-8.1,4-8c0.4,0.1,0.4,3.9-0.6,8.4c-1.8,8.3-5.3,11.4-13.1,24.1c-5.9,9.6-6.9,12.5-9.5,12.5
		c-3.1,0-4-4.3-10-13.1c-8.6-12.7-14.3-14.9-15.2-23.5C25.1,56.2,25.9,52.1,27,51.9z"/>
	<g id="Ebene_1_00000099623006735257224860000003137545322037346479_">
		<path class="st6" d="M45.1,92.1c2-2.3,4-4.7,6-7l5.3,7.2L51,99.4C49,97,47,94.5,45.1,92.1z"/>
	</g>
	<g id="Ebene_1_00000160190417832981560060000011840294816162990733_">
		<path class="st6" d="M22.1,60.3l4.9-8.4c1.8,2.8,3.6,5.5,5.3,8.3C28.9,60.3,25.5,60.3,22.1,60.3z"/>
	</g>
	<g id="Ebene_1_00000114060175449389357320000017487431319685654414_">
		<path class="st6" d="M69.2,60.4l4.8-8.4c1.8,2.7,3.6,5.5,5.4,8.2C76,60.2,72.6,60.3,69.2,60.4z"/>
	</g>
</g>
<path class="st7" d="M82.4,52.1"/>
<path d="M50.8,47.7c-0.3,0-0.6,1.4-0.3,1.6c0.2,0.1,0.8-0.3,0.7-0.9C51.3,48.1,51,47.7,50.8,47.7z"/>
<path class="st8" d="M52.1,57c0,0-0.9-0.2-2.2-0.2c-1.2,0-2,0.1-2,0.1s0.9-0.1,2-0.1C51.2,56.9,52.1,57,52.1,57z"/>
<path class="st5" d="M79.4,32.6"/>
</svg>
