<?xml version="1.0" encoding="utf-8"?>
<!-- Generator: Adobe Illustrator 26.0.3, SVG Export Plug-In . SVG Version: 6.00 Build 0)  -->
<svg version="1.1" id="Ebene_1" xmlns="http://www.w3.org/2000/svg" xmlns:xlink="http://www.w3.org/1999/xlink" x="0px" y="0px"
	 viewBox="0 0 130 150" style="enable-background:new 0 0 130 150;" xml:space="preserve">
<style type="text/css">
	.st0{stroke:#000000;stroke-miterlimit:10;}
</style>
<path class="st0" d="M66.1,117.7c-6.2-0.7-11.6,4.8-12,10.4c-0.6,7.3,7.2,14.1,13.8,12.4c4.9-1.2,8.2-6.8,7.8-12.2
	C75.2,123.4,71.6,118.3,66.1,117.7z"/>
<path class="st0" d="M43.7,13.7c9.2-14.2,45.4-13.2,52.4,0c5.2,9.7-9.2,19-19.3,51.1c-8.8,27.8-6.6,47.9-10,48
	c-3.2,0.1-3.9-18.2-12.2-49.3C45.5,29.8,38.4,21.9,43.7,13.7z"/>
<path class="st0" d="M85.4,65.9c-1.2,1.1,5.1,6.4,4.7,14.9c-0.4,8.5-7.1,13.1-6,14.2c1.5,1.6,16.9-3.8,17.1-14.2
	C101.4,70.6,87.1,64.4,85.4,65.9z"/>
<path class="st0" d="M92.8,57.4c-0.8,1,15.2,9.8,15.3,23.3c0.1,12.9-14.2,21.4-13.1,22.7c1.2,1.4,22-6,22.9-21.3
	C118.9,64.9,93.7,56.3,92.8,57.4z"/>
<path class="st0" d="M45.7,57.8c1.2,1.1-5.1,6.4-4.7,14.9c0.4,8.5,7.1,13.1,6,14.2c-1.5,1.6-16.9-3.8-17.1-14.2
	C29.7,62.5,44.1,56.2,45.7,57.8z"/>
<path class="st0" d="M38.4,49.3c0.8,1-15.2,9.8-15.3,23.3C22.9,85.5,37.3,94,36.2,95.3c-1.2,1.4-22-6-22.9-21.3
	C12.3,56.8,37.4,48.2,38.4,49.3z"/>
</svg>
