<?xml version="1.0" encoding="utf-8"?>
<!-- Generator: Adobe Illustrator 26.0.3, SVG Export Plug-In . SVG Version: 6.00 Build 0)  -->
<svg version="1.1" id="Ebene_1" xmlns="http://www.w3.org/2000/svg" xmlns:xlink="http://www.w3.org/1999/xlink" x="0px" y="0px"
	 viewBox="0 0 130 150" style="enable-background:new 0 0 130 150;" xml:space="preserve">
<style type="text/css">
	.st0{stroke:#000000;stroke-miterlimit:10;}
</style>
<path class="st0" d="M98.8,85.9c0.8,0.8-6.2,14.9-20.9,20.2c-12.3,4.5-28.8,2.4-30.4-3.6c-3.1-10.7,40.7-40.1,52.9-30.7
	c8.4,6.5,6.2,34.9-12.7,46.7c-15.5,9.7-35.3,3.8-45.6-6.7c-2.6-2.7-6.5-6.6-7.7-12.7C31.6,85.7,45,76.5,60.6,53.9
	C70.7,39.1,86.2,16.6,79.7,7.2c-5.4-7.8-26.4-6.9-34.4,3.1c-10.1,12.5,1.2,37.4,12.7,51.1c12.9,15.4,22.4,12.1,30.9,26.4
	c8.4,14.1,10.3,35.7-0.6,47.9c-9.6,10.7-26.2,10.9-26.5,9.9c-0.3-1,13.7-2.7,21.2-13.4c7.1-10.2,6-25.4,1.3-36.4
	C74.3,72.9,52.9,77.5,40.3,55C31,38.3,29.9,12.8,42.1,4.6c9.1-6.1,26.1-3.1,30.2,5.3c4.3,8.8-7.7,18.9-30.4,56.2
	C21.4,99.7,20,109.8,23.4,117.2c3.8,8.3,12.7,11.6,19.8,14.2c21.1,7.8,59.9,9.1,72.9-15.6c9.4-17.8,4.3-47.2-12.9-54.2
	c-21.6-8.9-52,21.8-48.7,32c1.7,5.1,12.5,6.9,20,6C89.4,97.9,97.9,85.1,98.8,85.9z"/>
</svg>
