<?xml version="1.0" encoding="utf-8"?>
<!-- Generator: Adobe Illustrator 26.0.3, SVG Export Plug-In . SVG Version: 6.00 Build 0)  -->
<svg version="1.1" id="Ebene_1" xmlns="http://www.w3.org/2000/svg" xmlns:xlink="http://www.w3.org/1999/xlink" x="0px" y="0px"
	 viewBox="0 0 1920 1080" style="enable-background:new 0 0 1920 1080;" xml:space="preserve">
<style type="text/css">
	.st0{fill:#3D3D3D;stroke:#000000;stroke-width:4;stroke-miterlimit:10;}
	.st1{fill:#262626;stroke:#000000;stroke-width:5;stroke-miterlimit:10;}
	.st2{fill:#592321;stroke:#000000;stroke-width:4;stroke-miterlimit:10;}
	.st3{fill:#6F2C29;stroke:#000000;stroke-width:4;stroke-miterlimit:10;}
	.st4{fill:#A8CCD7;stroke:#000000;stroke-width:4;stroke-miterlimit:10;}
	.st5{fill:#C0C0C0;stroke:#000000;stroke-width:4;stroke-miterlimit:10;}
	.st6{fill:#F5FF00;stroke:#000000;stroke-width:4;stroke-miterlimit:10;}
	.st7{fill:none;stroke:#000000;stroke-width:13;stroke-miterlimit:10;}
	.st8{opacity:5.000000e-02;fill:#F5FF00;}
</style>
<rect y="-2.3" class="st0" width="1921.5" height="1082.3"/>
<g>
	<polygon class="st1" points="1889.5,367.2 1869.5,367.2 1859.5,384.5 1869.5,401.8 1889.5,401.8 1899.5,384.5 	"/>
	<polygon class="st1" points="1845.9,434.3 1825.9,434.3 1815.9,451.6 1825.9,468.9 1845.9,468.9 1855.9,451.6 	"/>
	<polygon class="st1" points="1803.1,504.4 1783.1,504.4 1773.1,521.7 1783.1,539 1803.1,539 1813.1,521.7 	"/>
	<polygon class="st1" points="1754.4,581 1734.4,581 1724.4,598.4 1734.4,615.7 1754.4,615.7 1764.4,598.4 	"/>
	<polygon class="st1" points="1703.6,655.7 1683.6,655.7 1673.6,673 1683.6,690.4 1703.6,690.4 1713.6,673 	"/>
	<polygon class="st1" points="1657.3,727.5 1637.3,727.5 1627.3,744.9 1637.3,762.2 1657.3,762.2 1667.3,744.9 	"/>
	<polygon class="st1" points="1617.3,806.7 1597.3,806.7 1587.3,824 1597.3,841.3 1617.3,841.3 1627.3,824 	"/>
	<polygon class="st1" points="1577.3,881.5 1557.3,881.5 1547.3,898.8 1557.3,916.2 1577.3,916.2 1587.3,898.8 	"/>
	<polygon class="st1" points="1537.3,953.6 1517.3,953.6 1507.3,970.9 1517.3,988.3 1537.3,988.3 1547.3,970.9 	"/>
	<polygon class="st1" points="1492.3,1022.8 1472.3,1022.8 1462.3,1040.1 1472.3,1057.4 1492.3,1057.4 1502.3,1040.1 	"/>
	<polygon class="st1" points="191.8,153.8 171.8,153.8 161.8,171.2 171.8,188.5 191.8,188.5 201.8,171.2 	"/>
	<polygon class="st1" points="425,300 405,300 395,317.3 405,334.7 425,334.7 435,317.3 	"/>
	<polygon class="st1" points="315.4,705.9 295.4,705.9 285.4,723.2 295.4,740.5 315.4,740.5 325.4,723.2 	"/>
	<polygon class="st1" points="1869.5,75.9 1849.5,75.9 1839.5,93.2 1849.5,110.6 1869.5,110.6 1879.5,93.2 	"/>
	<polygon class="st1" points="1869.5,982.9 1849.5,982.9 1839.5,1000.2 1849.5,1017.5 1869.5,1017.5 1879.5,1000.2 	"/>
	<polygon class="st1" points="933.3,2.2 913.3,2.2 903.3,19.5 913.3,36.9 933.3,36.9 943.3,19.5 	"/>
	<polygon class="st1" points="41.8,556.1 21.8,556.1 11.8,573.4 21.8,590.7 41.8,590.7 51.8,573.4 	"/>
	<polygon class="st1" points="113.3,556.1 93.3,556.1 83.3,573.4 93.3,590.7 113.3,590.7 123.3,573.4 	"/>
	<polygon class="st1" points="191.8,556.1 171.8,556.1 161.8,573.4 171.8,590.7 191.8,590.7 201.8,573.4 	"/>
	<polygon class="st1" points="266.2,556.1 246.2,556.1 236.2,573.4 246.2,590.7 266.2,590.7 276.2,573.4 	"/>
	<polygon class="st1" points="343.9,556.1 323.9,556.1 313.9,573.4 323.9,590.7 343.9,590.7 353.9,573.4 	"/>
	<polygon class="st1" points="498.2,556.1 478.2,556.1 468.2,573.4 478.2,590.7 498.2,590.7 508.2,573.4 	"/>
	<polygon class="st1" points="416.5,556.1 396.5,556.1 386.5,573.4 396.5,590.7 416.5,590.7 426.5,573.4 	"/>
	<polygon class="st1" points="575,556.1 555,556.1 545,573.4 555,590.7 575,590.7 585,573.4 	"/>
	<polygon class="st1" points="577.6,638.4 557.6,638.4 547.6,655.7 557.6,673 577.6,673 587.6,655.7 	"/>
	<polygon class="st1" points="577.1,705.9 557.1,705.9 547.1,723.2 557.1,740.5 577.1,740.5 587.1,723.2 	"/>
	<polygon class="st1" points="575,780.3 555,780.3 545,797.6 555,814.9 575,814.9 585,797.6 	"/>
	<polygon class="st1" points="570.6,856.4 550.6,856.4 540.6,873.8 550.6,891.1 570.6,891.1 580.6,873.8 	"/>
	<polygon class="st1" points="570.6,919.9 550.6,919.9 540.6,937.2 550.6,954.5 570.6,954.5 580.6,937.2 	"/>
	<polygon class="st1" points="564.7,986.4 544.7,986.4 534.7,1003.7 544.7,1021.1 564.7,1021.1 574.7,1003.7 	"/>
	<polygon class="st1" points="561.5,1052.1 541.5,1052.1 531.5,1069.4 541.5,1086.8 561.5,1086.8 571.5,1069.4 	"/>
</g>
<g>
	<g>
		<polygon class="st2" points="1877.4,786.6 1815.4,815.5 1809.5,883.6 1865.5,922.9 1927.5,894 1933.4,825.8 		"/>
		<polygon class="st2" points="1850.5,1058.3 1790.7,1086.1 1784.7,1154.3 1840.8,1193.5 1902.7,1164.6 1908.7,1096.5 
			1854.6,1058.6 1852.5,1059.6 		"/>
		<polygon class="st2" points="1850.5,1058.3 1852.5,1059.6 1854.6,1058.6 1852.7,1057.2 		"/>
		<polygon class="st2" points="1809.5,883.6 1753.4,844.4 1691.4,873.3 1685.5,941.4 1741.5,980.7 1802.4,952.3 1803.5,951.8 		"/>
		<polygon class="st2" points="1989.4,865.1 1927.5,894 1921.5,962.1 1977.5,1001.3 2039.5,972.4 2045.5,904.3 		"/>
		<polygon class="st2" points="1977.5,1001.3 1915.5,1030.2 1909.6,1098.3 1965.6,1137.6 2027.6,1108.7 2033.5,1040.5 		"/>
		<polygon class="st2" points="1796.5,1019.2 1741.5,980.7 1679.5,1009.6 1673.6,1077.7 1729.6,1116.9 1791.6,1088 1797.4,1021.1 
			1796.4,1020.4 		"/>
		<polygon class="st2" points="1796.5,1019.2 1796.4,1020.4 1797.4,1021.1 1797.5,1019.9 		"/>
		<path class="st3" d="M1870.3,855.2l-124,57.8l-11.9,136.3l112,78.5l124-57.8l11.9-136.3L1870.3,855.2z M1914.4,1030.7l-62,28.9
			l-56-39.2l6-68.1l62-28.9l56,39.2L1914.4,1030.7z"/>
	</g>
	<g>
		<polygon class="st2" points="256.8,38.7 206.8,38.7 181.8,82 206.8,125.3 256.8,125.3 281.8,82 		"/>
		<polygon class="st2" points="155,210.4 106.8,210.4 81.8,253.7 106.8,297 156.8,297 181.8,253.7 157.7,211.9 155.9,211.9 		"/>
		<polygon class="st2" points="155,210.4 155.9,211.9 157.7,211.9 156.8,210.4 		"/>
		<polygon class="st2" points="181.8,82 156.8,38.7 106.8,38.7 81.8,82 106.8,125.3 155.9,125.3 156.8,125.3 		"/>
		<polygon class="st2" points="306.8,125.3 256.8,125.3 231.8,168.6 256.8,211.9 306.8,211.9 331.8,168.6 		"/>
		<polygon class="st2" points="256.8,211.9 206.8,211.9 181.8,255.2 206.8,298.5 256.8,298.5 281.8,255.2 		"/>
		<polygon class="st2" points="131.3,167.9 106.8,125.3 56.8,125.3 31.8,168.6 56.8,211.9 106.8,211.9 131.3,169.4 130.9,168.6 		
			"/>
		<polygon class="st2" points="131.3,167.9 130.9,168.6 131.3,169.4 131.8,168.6 		"/>
		<path class="st3" d="M230.9,82l-100,0l-50,86.6l50,86.6l100,0l50-86.6L230.9,82z M205.9,211.9h-50l-25-43.3l25-43.3h50l25,43.3
			L205.9,211.9z"/>
	</g>
	<g>
		<polygon class="st2" points="428.9,165.9 383.6,187 379.2,236.8 420.2,265.5 465.5,244.4 469.9,194.6 		"/>
		<polygon class="st2" points="409.2,364.5 365.5,384.9 361.1,434.7 402.1,463.4 447.4,442.2 451.8,392.4 412.3,364.8 410.7,365.5 
					"/>
		<polygon class="st2" points="409.2,364.5 410.7,365.5 412.3,364.8 410.8,363.8 		"/>
		<polygon class="st2" points="379.2,236.8 338.3,208.2 292.9,229.3 288.6,279.1 329.5,307.8 374.1,287 374.9,286.6 		"/>
		<polygon class="st2" points="510.8,223.3 465.5,244.4 461.1,294.2 502.1,322.9 547.4,301.7 551.8,251.9 		"/>
		<polygon class="st2" points="502.1,322.9 456.8,344 452.4,393.8 493.4,422.5 538.7,401.4 543,351.6 		"/>
		<polygon class="st2" points="369.8,336 329.5,307.8 284.2,328.9 279.9,378.7 320.8,407.4 366.1,386.3 370.4,337.3 369.7,336.8 		
			"/>
		<polygon class="st2" points="369.8,336 369.7,336.8 370.4,337.3 370.5,336.5 		"/>
		<path class="st3" d="M423.7,216.1l-90.6,42.3l-8.7,99.6l81.9,57.4l90.6-42.3l8.7-99.6L423.7,216.1z M456,344.4l-45.3,21.1
			l-41-28.7l4.4-49.8l45.3-21.1l41,28.7L456,344.4z"/>
	</g>
	<g>
		<polygon class="st2" points="112.1,769.1 81.6,783.3 78.7,816.9 106.3,836.2 136.8,822 139.7,788.4 		"/>
		<polygon class="st2" points="98.9,902.9 69.4,916.7 66.5,950.2 94.1,969.6 124.6,955.3 127.6,921.8 100.9,903.1 99.9,903.6 		"/>
		<polygon class="st2" points="98.9,902.9 99.9,903.6 100.9,903.1 100,902.4 		"/>
		<polygon class="st2" points="78.7,816.9 51.1,797.6 20.5,811.8 17.6,845.4 45.2,864.7 75.2,850.7 75.7,850.5 		"/>
		<polygon class="st2" points="167.3,807.7 136.8,822 133.9,855.6 161.5,874.9 192,860.6 195,827.1 		"/>
		<polygon class="st2" points="161.5,874.9 130.9,889.1 128,922.7 155.6,942 186.1,927.8 189.1,894.2 		"/>
		<polygon class="st2" points="72.3,883.7 45.2,864.7 14.7,879 11.7,912.5 39.3,931.8 69.9,917.6 72.7,884.6 72.3,884.3 		"/>
		<polygon class="st2" points="72.3,883.7 72.3,884.3 72.7,884.6 72.8,884 		"/>
		<path class="st3" d="M108.7,802.9l-61.1,28.5l-5.9,67.1l55.2,38.7l61.1-28.5l5.9-67.1L108.7,802.9z M130.4,889.4l-30.5,14.2
			l-27.6-19.3l2.9-33.6l30.5-14.2l27.6,19.3L130.4,889.4z"/>
	</g>
	<g>
		<polygon class="st2" points="637.5,89.1 606.9,103.3 604,136.9 631.6,156.2 662.1,142 665.1,108.4 		"/>
		<polygon class="st2" points="624.2,222.9 594.8,236.7 591.8,270.3 619.4,289.6 650,275.3 652.9,241.8 626.3,223.1 625.2,223.6 		
			"/>
		<polygon class="st2" points="624.2,222.9 625.2,223.6 626.3,223.1 625.3,222.4 		"/>
		<polygon class="st2" points="604,136.9 576.4,117.6 545.9,131.8 542.9,165.4 570.5,184.7 600.5,170.7 601.1,170.5 		"/>
		<polygon class="st2" points="692.7,127.8 662.1,142 659.2,175.6 686.8,194.9 717.3,180.7 720.3,147.1 		"/>
		<polygon class="st2" points="686.8,194.9 656.3,209.1 653.3,242.7 680.9,262 711.5,247.8 714.4,214.2 		"/>
		<polygon class="st2" points="597.6,203.7 570.5,184.7 540,199 537,232.5 564.7,251.9 595.2,237.6 598.1,204.6 597.6,204.3 		"/>
		<polygon class="st2" points="597.6,203.7 597.6,204.3 598.1,204.6 598.1,204 		"/>
		<path class="st3" d="M634,122.9l-61.1,28.5l-5.9,67.1l55.2,38.7l61.1-28.5l5.9-67.1L634,122.9z M655.7,209.4l-30.5,14.2
			l-27.6-19.3l2.9-33.6l30.5-14.2l27.6,19.3L655.7,209.4z"/>
	</g>
	<g>
		<polygon class="st2" points="87.5,288.9 56.9,303.1 54,336.7 81.6,356 112.1,341.8 115.1,308.2 		"/>
		<polygon class="st2" points="74.2,422.7 44.8,436.4 41.8,470 69.4,489.3 100,475.1 102.9,441.5 76.3,422.9 75.2,423.4 		"/>
		<polygon class="st2" points="74.2,422.7 75.2,423.4 76.3,422.9 75.3,422.2 		"/>
		<polygon class="st2" points="54,336.7 26.4,317.3 -4.1,331.6 -7.1,365.2 20.5,384.5 50.5,370.5 51.1,370.2 		"/>
		<polygon class="st2" points="142.7,327.5 112.1,341.8 109.2,375.3 136.8,394.7 167.3,380.4 170.3,346.8 		"/>
		<polygon class="st2" points="136.8,394.7 106.3,408.9 103.3,442.5 130.9,461.8 161.5,447.6 164.4,414 		"/>
		<polygon class="st2" points="47.6,403.5 20.5,384.5 -10,398.7 -12.9,432.3 14.7,451.6 45.2,437.4 48.1,404.4 47.6,404.1 		"/>
		<polygon class="st2" points="47.6,403.5 47.6,404.1 48.1,404.4 48.1,403.8 		"/>
		<path class="st3" d="M84,322.7l-61.1,28.5l-5.9,67.1L72.3,457l61.1-28.5l5.9-67.1L84,322.7z M105.7,409.1l-30.5,14.2l-27.6-19.3
			l2.9-33.6l30.5-14.2l27.6,19.3L105.7,409.1z"/>
	</g>
	<g>
		<polygon class="st2" points="1873.4,-59.6 1828.1,-38.5 1823.7,11.3 1864.7,40 1910,18.9 1914.3,-31 		"/>
		<polygon class="st2" points="1853.7,139 1810,159.4 1805.6,209.2 1846.6,237.8 1891.9,216.7 1896.3,166.9 1856.7,139.2 
			1855.2,140 		"/>
		<polygon class="st2" points="1853.7,139 1855.2,140 1856.7,139.2 1855.3,138.2 		"/>
		<polygon class="st2" points="1823.7,11.3 1782.8,-17.4 1737.4,3.8 1733.1,53.6 1774,82.2 1818.6,61.5 1819.4,61.1 		"/>
		<polygon class="st2" points="1955.3,-2.3 1910,18.9 1905.6,68.7 1946.6,97.3 1991.9,76.2 1996.3,26.4 		"/>
		<polygon class="st2" points="1946.6,97.3 1901.3,118.5 1896.9,168.3 1937.9,197 1983.2,175.8 1987.5,126 		"/>
		<polygon class="st2" points="1814.3,110.4 1774,82.2 1728.7,103.4 1724.4,153.2 1765.3,181.9 1810.6,160.7 1814.9,111.8 
			1814.2,111.3 		"/>
		<polygon class="st2" points="1814.3,110.4 1814.2,111.3 1814.9,111.8 1815,110.9 		"/>
		<path class="st3" d="M1868.2-9.5l-90.6,42.3l-8.7,99.6l81.9,57.4l90.6-42.3l8.7-99.6L1868.2-9.5z M1900.5,118.8l-45.3,21.1
			l-41-28.7l4.4-49.8l45.3-21.1l41,28.7L1900.5,118.8z"/>
	</g>
	<g>
		<polygon class="st2" points="538.4,24 531.2,39.4 540.9,53.3 557.8,51.8 565,36.4 555.3,22.5 		"/>
		<polygon class="st2" points="576.6,79.9 569.7,94.7 579.4,108.6 596.3,107.1 603.5,91.8 593.7,77.9 577.4,79.3 577.2,79.8 		"/>
		<polygon class="st2" points="576.6,79.9 577.2,79.8 577.4,79.3 576.8,79.3 		"/>
		<polygon class="st2" points="540.9,53.3 524,54.7 516.9,70.1 526.6,84 543.5,82.5 550.5,67.4 550.7,67.1 		"/>
		<polygon class="st2" points="572.2,21 565,36.4 574.7,50.3 591.6,48.8 598.8,33.4 589.1,19.5 		"/>
		<polygon class="st2" points="591.6,48.8 584.5,64.2 594.2,78.1 611.1,76.6 618.3,61.2 608.5,47.3 		"/>
		<polygon class="st2" points="560.1,81.1 543.5,82.5 536.3,97.9 546.1,111.8 563,110.3 570.1,94.9 560.6,81.3 560.3,81.3 		"/>
		<polygon class="st2" points="560.1,81.1 560.3,81.3 560.6,81.3 560.4,81 		"/>
		<path class="st3" d="M548,38.1l-14.3,30.8l19.5,27.8l33.8-3L601.2,63l-19.5-27.8L548,38.1z M584.3,64.5l-7.2,15.4l-16.9,1.5
			l-9.7-13.9l7.2-15.4l16.9-1.5L584.3,64.5z"/>
	</g>
	<g>
		<polygon class="st2" points="625.9,-48.3 615,-35.2 620.9,-19.3 637.6,-16.4 648.4,-29.4 642.6,-45.4 		"/>
		<polygon class="st2" points="648.5,15.6 638,28.1 643.9,44.1 660.6,47 671.5,33.9 665.6,18 649.5,15.2 649.1,15.7 		"/>
		<polygon class="st2" points="648.5,15.6 649.1,15.7 649.5,15.2 648.9,15.1 		"/>
		<polygon class="st2" points="620.9,-19.3 604.1,-22.2 593.3,-9.2 599.1,6.8 615.9,9.7 626.5,-3.1 626.7,-3.4 		"/>
		<polygon class="st2" points="659.3,-42.5 648.4,-29.4 654.3,-13.5 671,-10.6 681.9,-23.6 676,-39.6 		"/>
		<polygon class="st2" points="671,-10.6 660.2,2.4 666,18.3 682.7,21.2 693.6,8.2 687.7,-7.7 		"/>
		<polygon class="st2" points="632.3,12.5 615.9,9.7 605,22.7 610.8,38.6 627.6,41.5 638.4,28.5 632.7,12.8 632.4,12.8 		"/>
		<polygon class="st2" points="632.3,12.5 632.4,12.8 632.7,12.8 632.6,12.6 		"/>
		<path class="st3" d="M631.5-32.1L609.8-6l11.7,31.8l33.4,5.8l21.7-26.1L665-26.3L631.5-32.1z M660,2.6l-10.9,13l-16.7-2.9
			l-5.9-15.9l10.9-13l16.7,2.9L660,2.6z"/>
	</g>
	<g>
		<polygon class="st2" points="1758.6,154.7 1750.1,172.9 1761.7,189.4 1781.7,187.7 1790.2,169.4 1778.7,152.9 		"/>
		<polygon class="st2" points="1804,221.1 1795.8,238.7 1807.3,255.2 1827.4,253.4 1835.9,235.2 1824.4,218.7 1805,220.4 
			1804.7,221 		"/>
		<polygon class="st2" points="1804,221.1 1804.7,221 1805,220.4 1804.3,220.4 		"/>
		<polygon class="st2" points="1761.7,189.4 1741.6,191.2 1733.1,209.4 1744.6,225.9 1764.7,224.2 1773.1,206.2 1773.2,205.9 		"/>
		<polygon class="st2" points="1798.8,151.2 1790.2,169.4 1801.8,185.9 1821.9,184.2 1830.4,165.9 1818.8,149.4 		"/>
		<polygon class="st2" points="1821.9,184.2 1813.4,202.4 1824.9,218.9 1845,217.2 1853.5,198.9 1841.9,182.4 		"/>
		<polygon class="st2" points="1784.4,222.5 1764.7,224.2 1756.2,242.4 1767.7,258.9 1787.8,257.2 1796.3,238.9 1785,222.7 
			1784.6,222.8 		"/>
		<polygon class="st2" points="1784.4,222.5 1784.6,222.8 1785,222.7 1784.8,222.4 		"/>
		<path class="st3" d="M1770,171.5l-17,36.5l23.1,33l40.1-3.5l17-36.5l-23.1-33L1770,171.5z M1813.2,202.7l-8.5,18.3l-20.1,1.8
			l-11.6-16.5l8.5-18.3l20.1-1.8L1813.2,202.7z"/>
	</g>
	<g>
		<polygon class="st2" points="319.3,573.4 274,594.5 269.6,644.4 310.6,673 355.9,651.9 360.3,602.1 		"/>
		<polygon class="st2" points="299.6,772 255.9,792.4 251.6,842.2 292.5,870.9 337.8,849.8 342.2,800 302.7,772.3 301.1,773 		"/>
		<polygon class="st2" points="299.6,772 301.1,773 302.7,772.3 301.2,771.3 		"/>
		<polygon class="st2" points="269.6,644.4 228.7,615.7 183.4,636.8 179,686.6 220,715.3 264.5,694.5 265.3,694.2 		"/>
		<polygon class="st2" points="401.2,630.8 355.9,651.9 351.5,701.7 392.5,730.4 437.8,709.3 442.2,659.5 		"/>
		<polygon class="st2" points="392.5,730.4 347.2,751.5 342.8,801.3 383.8,830 429.1,808.9 433.5,759.1 		"/>
		<polygon class="st2" points="260.2,743.5 220,715.3 174.6,736.4 170.3,786.2 211.2,814.9 256.6,793.8 260.8,744.9 260.1,744.3 		
			"/>
		<polygon class="st2" points="260.2,743.5 260.1,744.3 260.8,744.9 260.9,744 		"/>
		<path class="st3" d="M314.2,623.6l-90.6,42.3l-8.7,99.6l81.9,57.4l90.6-42.3l8.7-99.6L314.2,623.6z M346.4,751.9L301.1,773
			l-41-28.7l4.4-49.8l45.3-21.1l41,28.7L346.4,751.9z"/>
	</g>
	<g>
		<polygon class="st2" points="204.5,787.7 196,806 207.6,822.5 227.7,820.7 236.2,802.5 224.6,786 		"/>
		<polygon class="st2" points="249.9,854.1 241.7,871.7 253.2,888.2 273.3,886.5 281.8,868.2 270.3,851.7 250.9,853.4 250.6,854 		
			"/>
		<polygon class="st2" points="249.9,854.1 250.6,854 250.9,853.4 250.2,853.5 		"/>
		<polygon class="st2" points="207.6,822.5 187.5,824.2 179,842.5 190.6,859 210.6,857.2 219,839.3 219.1,839 		"/>
		<polygon class="st2" points="244.7,784.2 236.2,802.5 247.7,819 267.8,817.2 276.3,799 264.7,782.5 		"/>
		<polygon class="st2" points="267.8,817.2 259.3,835.5 270.8,852 290.9,850.2 299.4,832 287.9,815.5 		"/>
		<polygon class="st2" points="230.3,855.5 210.6,857.2 202.1,875.5 213.7,892 233.7,890.2 242.2,872 230.9,855.8 230.5,855.8 		"/>
		<polygon class="st2" points="230.3,855.5 230.5,855.8 230.9,855.8 230.7,855.5 		"/>
		<path class="st3" d="M215.9,804.5l-17,36.5l23.1,33l40.1-3.5l17-36.5l-23.1-33L215.9,804.5z M259.1,835.8l-8.5,18.3l-20.1,1.8
			L219,839.3l8.5-18.3l20.1-1.8L259.1,835.8z"/>
	</g>
	<g>
		<polygon class="st2" points="466.5,855.7 436,870 433,903.5 460.6,922.9 491.2,908.6 494.1,875.1 		"/>
		<polygon class="st2" points="453.3,989.6 423.8,1003.3 420.8,1036.9 448.5,1056.2 479,1042 481.9,1008.4 455.3,989.7 454.2,990.3 
					"/>
		<polygon class="st2" points="453.3,989.6 454.2,990.3 455.3,989.7 454.3,989.1 		"/>
		<polygon class="st2" points="433,903.5 405.4,884.2 374.9,898.5 372,932 399.6,951.3 429.6,937.4 430.1,937.1 		"/>
		<polygon class="st2" points="521.7,894.4 491.2,908.6 488.2,942.2 515.8,961.5 546.4,947.3 549.3,913.7 		"/>
		<polygon class="st2" points="515.8,961.5 485.3,975.8 482.4,1009.3 510,1028.7 540.5,1014.4 543.4,980.8 		"/>
		<polygon class="st2" points="426.7,970.3 399.6,951.3 369,965.6 366.1,999.2 393.7,1018.5 424.2,1004.2 427.1,971.3 426.6,970.9 
					"/>
		<polygon class="st2" points="426.7,970.3 426.6,970.9 427.1,971.3 427.2,970.7 		"/>
		<path class="st3" d="M463,889.5L402,918l-5.9,67.1l55.2,38.7l61.1-28.5l5.9-67.1L463,889.5z M484.8,976l-30.5,14.2l-27.6-19.3
			l2.9-33.6l30.5-14.2l27.6,19.3L484.8,976z"/>
	</g>
	<g>
		<polygon class="st2" points="557.2,882.3 548.6,900.6 560.2,917.1 580.3,915.3 588.8,897.1 577.2,880.6 		"/>
		<polygon class="st2" points="602.5,948.7 594.3,966.3 605.9,982.8 625.9,981.1 634.4,962.8 622.9,946.3 603.5,948 603.2,948.7 		
			"/>
		<polygon class="st2" points="602.5,948.7 603.2,948.7 603.5,948 602.8,948.1 		"/>
		<polygon class="st2" points="560.2,917.1 540.1,918.9 531.6,937.1 543.2,953.6 563.2,951.9 571.6,933.9 571.8,933.6 		"/>
		<polygon class="st2" points="597.3,878.8 588.8,897.1 600.3,913.6 620.4,911.8 628.9,893.6 617.4,877.1 		"/>
		<polygon class="st2" points="620.4,911.8 611.9,930.1 623.4,946.6 643.5,944.8 652,926.6 640.5,910.1 		"/>
		<polygon class="st2" points="583,950.1 563.2,951.9 554.7,970.1 566.3,986.6 586.3,984.9 594.9,966.6 583.5,950.4 583.2,950.4 		
			"/>
		<polygon class="st2" points="583,950.1 583.2,950.4 583.5,950.4 583.3,950.1 		"/>
		<path class="st3" d="M568.6,899.2l-17,36.5l23.1,33l40.1-3.5l17-36.5l-23.1-33L568.6,899.2z M611.7,930.4l-8.5,18.3l-20.1,1.8
			l-11.6-16.5l8.5-18.3l20.1-1.8L611.7,930.4z"/>
	</g>
	<g>
		<polygon class="st2" points="624.5,969 616,987.2 627.6,1003.7 647.7,1002 656.2,983.7 644.6,967.2 		"/>
		<polygon class="st2" points="669.9,1035.4 661.7,1053 673.2,1069.5 693.3,1067.7 701.8,1049.5 690.3,1033 670.9,1034.7 
			670.6,1035.3 		"/>
		<polygon class="st2" points="669.9,1035.4 670.6,1035.3 670.9,1034.7 670.2,1034.7 		"/>
		<polygon class="st2" points="627.6,1003.7 607.5,1005.5 599,1023.7 610.6,1040.3 630.6,1038.5 639,1020.6 639.1,1020.2 		"/>
		<polygon class="st2" points="664.7,965.5 656.2,983.7 667.7,1000.2 687.8,998.5 696.3,980.2 684.7,963.7 		"/>
		<polygon class="st2" points="687.8,998.5 679.3,1016.7 690.8,1033.2 710.9,1031.5 719.4,1013.2 707.9,996.7 		"/>
		<polygon class="st2" points="650.3,1036.8 630.6,1038.5 622.1,1056.8 633.7,1073.3 653.7,1071.5 662.2,1053.2 650.9,1037 
			650.5,1037.1 		"/>
		<polygon class="st2" points="650.3,1036.8 650.5,1037.1 650.9,1037 650.7,1036.7 		"/>
		<path class="st3" d="M635.9,985.8l-17,36.5l23.1,33l40.1-3.5l17-36.5l-23.1-33L635.9,985.8z M679.1,1017l-8.5,18.3l-20.1,1.8
			l-11.6-16.5l8.5-18.3l20.1-1.8L679.1,1017z"/>
	</g>
	<g>
		<polygon class="st2" points="736.1,939.6 727.6,957.8 739.1,974.3 759.2,972.6 767.7,954.3 756.1,937.8 		"/>
		<polygon class="st2" points="781.4,1006 773.2,1023.6 784.8,1040.1 804.8,1038.3 813.4,1020.1 801.8,1003.6 782.4,1005.2 
			782.1,1005.9 		"/>
		<polygon class="st2" points="781.4,1006 782.1,1005.9 782.4,1005.2 781.7,1005.3 		"/>
		<polygon class="st2" points="739.1,974.3 719,976.1 710.5,994.3 722.1,1010.8 742.2,1009.1 750.5,991.1 750.7,990.8 		"/>
		<polygon class="st2" points="776.2,936.1 767.7,954.3 779.2,970.8 799.3,969.1 807.8,950.8 796.3,934.3 		"/>
		<polygon class="st2" points="799.3,969.1 790.8,987.3 802.4,1003.8 822.4,1002.1 830.9,983.8 819.4,967.3 		"/>
		<polygon class="st2" points="761.9,1007.4 742.2,1009.1 733.6,1027.3 745.2,1043.8 765.3,1042.1 773.8,1023.8 762.4,1007.6 
			762.1,1007.6 		"/>
		<polygon class="st2" points="761.9,1007.4 762.1,1007.6 762.4,1007.6 762.2,1007.3 		"/>
		<path class="st3" d="M747.5,956.4l-17,36.5l23.1,33l40.1-3.5l17-36.5l-23.1-33L747.5,956.4z M790.7,987.6l-8.5,18.3l-20.1,1.8
			l-11.6-16.5l8.5-18.3l20.1-1.8L790.7,987.6z"/>
	</g>
	<g>
		<polygon class="st2" points="778.7,1045.5 770.2,1063.8 781.7,1080.3 801.8,1078.5 810.3,1060.3 798.8,1043.8 		"/>
		<polygon class="st2" points="824.1,1111.9 815.8,1129.5 827.4,1146 847.5,1144.3 856,1126 844.4,1109.5 825.1,1111.2 
			824.8,1111.8 		"/>
		<polygon class="st2" points="824.1,1111.9 824.8,1111.8 825.1,1111.2 824.4,1111.3 		"/>
		<polygon class="st2" points="781.7,1080.3 761.7,1082 753.2,1100.3 764.7,1116.8 784.8,1115 793.1,1097.1 793.3,1096.8 		"/>
		<polygon class="st2" points="818.8,1042 810.3,1060.3 821.9,1076.8 841.9,1075 850.5,1056.8 838.9,1040.3 		"/>
		<polygon class="st2" points="841.9,1075 833.4,1093.3 845,1109.8 865,1108 873.6,1089.8 862,1073.3 		"/>
		<polygon class="st2" points="804.5,1113.3 784.8,1115 776.3,1133.3 787.8,1149.8 807.9,1148 816.4,1129.8 805,1113.6 
			804.7,1113.6 		"/>
		<polygon class="st2" points="804.5,1113.3 804.7,1113.6 805,1113.6 804.8,1113.3 		"/>
		<path class="st3" d="M790.1,1062.3l-17,36.5l23.1,33l40.1-3.5l17-36.5l-23.1-33L790.1,1062.3z M833.3,1093.6l-8.5,18.3l-20.1,1.8
			l-11.6-16.5l8.5-18.3l20.1-1.8L833.3,1093.6z"/>
	</g>
</g>
<g>
	<polygon class="st4" points="970,160.2 870,160.2 820,246.8 870,333.4 970,333.4 1020,246.8 	"/>
	<polygon class="st5" points="953.3,129.3 886.6,129.3 853.3,187 886.6,244.7 953.3,244.7 986.6,187 	"/>
	<polygon class="st6" points="936.6,242.1 903.3,242.1 886.6,270.9 903.3,299.8 936.6,299.8 953.3,270.9 	"/>
	<polygon class="st7" points="908.3,98.5 893.3,124.4 908.3,150.4 938.3,150.4 953.3,124.4 938.3,98.5 	"/>
	<polygon class="st7" points="908.3,-6.5 893.3,19.5 908.3,45.5 938.3,45.5 953.3,19.5 938.3,-6.5 	"/>
	<polygon class="st7" points="923.3,41.8 897.3,56.8 897.3,86.8 923.3,101.8 949.3,86.8 949.3,56.8 	"/>
	<polygon class="st8" points="1460.9,-7.3 460.6,-7.3 -39.6,859 460.6,1725.3 1460.9,1725.3 1961.1,859 	"/>
	<polygon class="st8" points="1179.1,-0.8 678.8,-0.8 428.6,432.5 678.8,865.8 1179.1,865.8 1429.3,432.5 	"/>
	<polygon class="st8" points="1045.1,66 794.8,66 669.6,282.8 794.8,499.6 1045.1,499.6 1170.3,282.8 	"/>
</g>
</svg>
