<?xml version="1.0" encoding="utf-8"?>
<!-- Generator: Adobe Illustrator 26.0.3, SVG Export Plug-In . SVG Version: 6.00 Build 0)  -->
<svg version="1.1" id="Ebene_1" xmlns="http://www.w3.org/2000/svg" xmlns:xlink="http://www.w3.org/1999/xlink" x="0px" y="0px"
	 viewBox="0 0 130 150" style="enable-background:new 0 0 130 150;" xml:space="preserve">
<style type="text/css">
	.st0{stroke:#000000;stroke-miterlimit:10;}
</style>
<path class="st0" d="M3,59c-2.5,3.8,0.5,6,0.4,20C3.4,93.5,0.1,97.2,3,100.6c5.1,6,17.1-3.6,29.6,0.9c17.3,6.2,17.7,33.2,23.1,32.9
	c10.7-0.5,17.1-104.7,5.6-106.7c-4.6-0.8-5.8,15.7-21.6,23.6C23.7,59.2,8.4,50.7,3,59z"/>
<path class="st0" d="M75,58.3c-5.2,0.6-6.6,43.4-1.3,44.4c2.6,0.5,7-9,8.4-16.7C84.7,72,78.1,58,75,58.3z"/>
<path class="st0" d="M83,49.4c-2.1,1.4,7.7,12.6,8,30.7c0.3,20.3-11.6,33.2-10,34.2c2.1,1.3,24.8-17.3,21.8-39.1
	C100.6,59.2,85.3,47.9,83,49.4z"/>
<path class="st0" d="M91.4,34.3c-2.8,2.3,17.8,19.7,16.7,45.1c-1.3,28.3-28.7,45.7-27.1,47.3c2,2,47.2-19.3,44.9-52.2
	C124.1,48.9,94.5,31.8,91.4,34.3z"/>
</svg>
