<?xml version="1.0" encoding="utf-8"?>
<!-- Generator: Adobe Illustrator 26.0.3, SVG Export Plug-In . SVG Version: 6.00 Build 0)  -->
<svg version="1.1" id="Ebene_1" xmlns="http://www.w3.org/2000/svg" xmlns:xlink="http://www.w3.org/1999/xlink" x="0px" y="0px"
	 viewBox="0 0 100 100" style="enable-background:new 0 0 100 100;" xml:space="preserve">
<style type="text/css">
	.st0{fill:#FFC600;stroke:#000000;stroke-miterlimit:10;}
	.st1{fill:#FFD700;stroke:#000000;stroke-miterlimit:10;}
	.st2{fill:#E6BE00;stroke:#000000;stroke-width:0.5;stroke-miterlimit:10;}
</style>
<g id="Ebene_2_00000093860788734264317370000010671531211922489223_">
</g>
<g id="Ebene_1_00000017510764199299988230000010460311392665681541_">
	<path class="st0" d="M92,25.8L50,1.6L8,25.8l0,48.5l42,24.3l42-24.2L92,25.8z M89,72.2L50,94.7L11,72.2v-45L50,4.7l39,22.5V72.2z"
		/>
	<path class="st1" d="M11,27.2v45l39,22.5l39-22.5v-45L50,4.7L11,27.2z M49.2,67.4l-15.6,9l-15.6-9V49.4l15.6-9l15.6,9V67.4z
		 M82.1,49.4v18.1l-15.6,9l-15.6-9V49.4l15.6-9L82.1,49.4z M65.6,38.4l-15.6,9l-15.6-9V20.3l15.6-9l15.6,9V38.4z"/>
</g>
<path class="st2" d="M23.7,25.5c-2.9,0.6-3.9,2.7-6.5,2.5c-0.8-0.1-1.2-0.3-1.8,0c-1.1,0.5-1.7,2.4-1.2,3.9c0.6,1.6,2.3,2.1,2.8,2.2
	c2.7,0.7,5.1-1.2,7.3-2.8c1.3-1,4.6-3.5,4-4.9C27.9,25.4,25.5,25.2,23.7,25.5z"/>
<path class="st2" d="M27.3,33.4c-2.5,1.2-2.1,3.6-4.6,5c-0.4,0.3-1.6,0.9-3,0.7c-2-0.3-2.4-2-3.6-1.9c-2,0.1-4.5,5-3.1,8.7
	c0.5,1.3,1.5,2.7,2.2,2.5c1-0.2,0.2-3.3,1.9-4.6c1.4-1,2.6,0.3,5.2-0.3c2.7-0.6,4.3-2.8,5.3-4.1c1.5-2.1,3.2-5.5,2.2-6.4
	C29.3,32.4,27.4,33.3,27.3,33.4z"/>
<path class="st2" d="M69.2,18.9c-2.9-2-3.8-2.1-6.1-4c-2.3-1.9-2-2.4-4-4c-3.1-2.5-7-3.9-7.4-3.3c-0.2,0.4,0.6,1.4,1.2,1.9
	c1.5,1.4,2.8,1,4.4,2.1c1.2,0.7,1.2,1.3,2.5,2.8c0.7,0.9,1.8,1.8,5,4c3.5,2.3,9.9,6.1,10.2,5.6C75.4,23.7,72.1,20.9,69.2,18.9z"/>
<path class="st2" d="M73.4,32.3c-0.1-0.9,1.6-1.3,2.1-3c0.5-1.6-0.3-3.6-1.2-3.7c-0.6-0.1-0.8,0.8-2.2,1.8c-1.6,1.1-2.4,0.6-3.3,1.3
	c-1.4,1.2-1.4,4.4,0,6.4c1.4,2,3.4,1.3,5,3.6c1.3,1.8,0.9,3.4,1.4,3.5c0.9,0.1,3-5.6,1-7.9C75.2,33.1,73.5,33.2,73.4,32.3z"/>
<path class="st2" d="M85.5,31.3c-0.5-2.1,0-2.6-0.6-3.7c-1-1.8-3.6-2.7-4.3-2.1C80.1,26,81,27,80.5,28.6c-0.5,1.6-1.9,1.8-1.8,2.7
	c0.1,1.2,2.7,1.1,3.4,2.7c0.9,2-2.7,4.4-1.9,6.1c0.6,1.3,3.6,1.7,5.3,0.4c2.1-1.5,1.6-4.7,1.5-5.2C86.7,33.6,86,33.5,85.5,31.3z"/>
<path class="st2" d="M48.3,72c-0.2,0-0.4,0-1.8,0.4c-3.2,1.1-3.6,1.5-3.7,1.8c-0.5,0.8-0.5,1.9,0,2.2c0.6,0.4,1.8-0.6,2.1-0.3
	c0.4,0.4-1.4,1.9-1,3.3c0.3,1,1.9,1.8,2.8,1.3c1.4-0.7,0.3-3.8,1.6-4.4c1.2-0.6,3.2,1.9,3.9,1.3c0.5-0.4-0.2-2.2-0.9-3.3
	C50.9,73.7,49.9,72.2,48.3,72z"/>
<path class="st2" d="M59.6,75c-2.7-1.1-4.2-1.7-4.4-1.3c-0.4,0.5,1.7,1.7,1.5,3.4c-0.2,1.7-2.7,2.7-3.3,3c-2,0.9-3.1,0.4-3.6,1.2
	c-0.6,1,0.2,3.1,1.6,3.7c1.2,0.5,2.4-0.1,2.5-0.1c1.7-0.9,1.6-2.7,3-3.1c0.6-0.2,0.8,0.2,2.1,0.4c1.1,0.2,3.4,0.7,4.4-0.3
	c1.1-1.1,0.6-3.7-0.7-5.2C62.5,76.4,62.1,76.1,59.6,75z"/>
<path class="st2" d="M39.9,77.7c-0.2-1.9,0.2-2.6-0.1-2.8c-0.9-0.5-2.7,3.6-5.8,3.7c-1,0-1.1-0.4-5.2-2.2c-2.4-1.1-3.6-1.6-3.9-1.3
	c-0.4,0.5,1.7,2.7,3.7,4.3c1.2,0.9,2.8,2.1,5.2,2.7c1.9,0.4,2.5,0,3.6,0.7c1.6,1.1,1.5,3.1,2.5,3.1c0.7,0,1.5-0.9,1.6-1.8
	c0.2-0.8-0.3-1.2-0.9-2.8C40.5,81,40,79.5,39.9,77.7z"/>
<path class="st2" d="M14.3,58c-1.9,0.5-2.6,4.4-1.5,5.3c0.7,0.6,2,0.1,2.8-0.4c1.1-0.8,1.8-2.6,1-3.9C16.1,58.2,15.1,57.8,14.3,58z"
	/>
<path class="st2" d="M19.1,71.7c-2.9-1.1-3.5-4.8-4.4-4.6c-0.6,0.1-0.8,1.5-0.6,2.5c0.2,0.9,0.7,1.5,1,1.8c0.9,0.9,1.7,0.8,3,1.5
	c2.3,1.2,2.8,2.9,3.4,2.7c0.6-0.2,0.8-2,0-3C20.9,71.9,20.2,72.1,19.1,71.7z"/>
<path class="st2" d="M82.1,69.5c-0.7,0-0.9,0.7-2.2,1.8c-0.7,0.6-1.3,0.8-2.1,1.2c-1.7,0.8-2.2,0.6-3.6,1.2
	c-1.4,0.6-3.5,1.9-3.3,2.8c0.2,0.7,1.5,1.2,2.7,0.9c1.3-0.3,1.3-1.5,2.8-2.4c1.3-0.7,1.7-0.1,3.7-0.7c0.7-0.2,3.4-1.1,3.6-2.7
	C83.8,70.6,82.9,69.5,82.1,69.5z"/>
<path class="st2" d="M84.8,54.9c-1,0.3-1.3,2.2-0.6,3.4c0.3,0.4,0.8,1.1,1.5,1c1-0.1,1.8-2,1.2-3.3C86.5,55.2,85.5,54.6,84.8,54.9z"
	/>
<path class="st2" d="M87.6,62c-0.9-0.5-2.7,0.4-3.4,1.8c-0.1,0.1-0.8,1.7,0,2.7c0.7,0.9,2.2,0.8,3.1,0.1
	C88.8,65.5,88.7,62.6,87.6,62z"/>
<path class="st2" d="M86.4,42.1c-0.4,0-0.5,3.5-1.9,3.9c-1.1,0.3-2.4-1.6-2.8-1.3c-0.3,0.2-0.1,1.4,0.6,2.4c1,1.3,2.1,1,3.6,2.5
	c0.8,0.8,1,1.4,1.2,1.3c0.4-0.1-0.1-2.1-0.3-5.8C86.6,43.5,86.6,42.1,86.4,42.1z"/>
<path class="st2" d="M38.9,12.8c-1.8,0.3-2,1.5-4.4,3c-2.1,1.2-2.8,0.9-3.6,1.9c-0.6,0.9-0.6,2-0.6,4.1c0,1.9,0.1,4.6,0.7,4.7
	c0.6,0.1,1.9-2.4,2.2-4.9c0.3-2-0.2-2.5,0.3-3.3c1-1.5,3.2-0.5,5.8-2.2c1.1-0.7,2.4-2.1,2.1-2.8C41.1,12.8,39.8,12.6,38.9,12.8z"/>
<path class="st2" d="M44.8,9.1c-0.1,0.1-2,1.1-1.8,2.2c0.1,0.4,0.5,0.8,0.9,0.9c0.5,0.1,0.9-0.2,2.2-1.3c2.1-1.8,2.1-2,2.1-2.1
	C48,8.3,46.2,8.3,44.8,9.1z"/>
<path class="st2" d="M51.3,87c-2.4-0.7-2.8-3.4-4.1-3.3c-1.2,0.1-2.4,2.4-1.9,4.1c0.2,1,0.9,1.6,2.1,2.5c1.3,1.1,2.2,1.9,3.4,1.9
	c3.1,0.1,5.8-4.9,5-5.8C55.2,85.9,53.5,87.7,51.3,87z"/>
<path class="st2" d="M68.5,77.8c-0.4,0-0.3,1.7-1.8,3.3C66,81.8,65.7,81.8,64,83c-1.3,1-2,1.6-1.9,1.8c0.2,0.6,5.5,0,6.8-3
	C69.7,80,68.9,77.8,68.5,77.8z"/>
<polygon class="st0" points="63.9,37.3 63.9,21.3 50,13.3 36.1,21.3 36.1,37.3 50,45.3 "/>
<polygon class="st0" points="47.4,66.4 47.4,50.4 33.5,42.4 19.7,50.4 19.7,66.4 33.5,74.4 "/>
<polygon class="st0" points="80.3,66.4 80.3,50.4 66.5,42.4 52.6,50.4 52.6,66.4 66.5,74.4 "/>
<path class="st1" d="M39.4,38.9c-0.1-1.3,3.1-1.6,3.8-4c0.3-1.2-0.4-1.3-0.4-3.5c0-2.8,1.2-3.8,0.4-5c-0.6-1-1.7-0.7-2.2-1.8
	c-0.5-1.1,0.3-1.8-0.2-2.6c-0.7-1.2-3-0.6-3.1-1.2c-0.1-0.4,0.8-1.1,3.8-2.6c4.8-2.4,5.2-2.3,5.4-2.1c0.9,0.8-1.8,4-0.3,6.3
	c0.3,0.4,0.4,0.3,0.7,0.8c1.6,2.2-0.7,5.3,0.3,6.4c0.9,0.9,3.2-0.6,9.3-2.2c3.9-1,5.1-0.9,5.7-0.3c0.4,0.4,0.3,0.8,0.4,4.2
	c0.1,2.6,0.2,2.9-0.1,3.1c-1.2,1-4.2-2.8-8.5-2.4c-1.8,0.2-3.5,1-3.5,1.8c0,0.8,1.7,0.8,2.3,2.3c0.6,1.3-0.4,2.1,0.2,3
	c1,1.6,5.3,0.4,5.4,0.9c0.1,0.3-1.6,0.6-3.9,2c-1.9,1.2-2.7,2.2-3.6,1.8c-0.5-0.2-0.8-0.7-1.1-1.7c-1.5-4-1.3-5.7-2.1-5.9
	c-1-0.3-2.5,1.1-2.8,2.7c-0.2,1,0.2,1.9,0.3,2.2c0.2,0.8,0.1,1.1-0.1,1.3c-0.4,0.3-1.2-0.3-3.6-1.8C39.8,39.4,39.5,39.2,39.4,38.9z"
	/>
<path class="st1" d="M33,52.9c-1.1,2-0.3,5.1,1,5.6c1.6,0.6,3.3-3,6.1-2.5c1.7,0.3,2.2,1.8,3.6,1.6c1.9-0.3,2.5-3.2,3.1-3
	c0.5,0.2,0.1,2.2,0.2,6.3c0.1,2,0.2,3.2-0.2,3.4c-0.6,0.2-1.3-1.8-3.2-2.3c-1.1-0.3-1.8,0.1-3.9,0.9c-1.7,0.6-4.2,1.5-6.9,1.8
	c-1.4,0.1-4.4,0.4-5.5-1.2c-0.5-0.7-0.1-1.1-0.3-2.7c-0.4-2.9-2-3.5-1.9-5.3c0-1.1,0.7-1.6,3.4-4.4c4.7-4.8,5.4-6.4,7.4-6.4
	c0.9,0,1.6,0.4,3.1,1.1c1.2,0.6,4.5,2.2,4.3,3.4C43.2,50.8,35.1,49.1,33,52.9z"/>
<path class="st1" d="M55.7,49.5c-0.1,0.9,0.7,2,1.7,2.5c1,0.5,1.6,0,2.3,0.6c0.5,0.5,0.2,1,0.7,2.2c0.5,1.1,1.1,1.2,1,1.6
	c-0.2,0.7-2.6,1.3-4.7,0.6c-2-0.6-2.8-2-3.3-1.7c-0.4,0.3,0.1,1.1,0.1,3.2c0,1.9-0.4,2.3,0,3.4c0.3,0.8,1,2.1,1.9,2
	c1.1,0,1-2,2.7-2.9c1.3-0.6,3-0.2,4.1,0.6c1.2,0.8,2.3,2.5,1.9,3.7c-0.9,2.1-6.5,0.9-6.8,2.2c-0.2,0.7,1.4,1.7,4.5,3.6
	c3.6,2.2,4.5,2.3,4.9,2.3c0.7,0,0.9-0.1,4.8-2.1c3.4-1.8,4.6-2.3,4.7-3.4c0.1-0.5-0.1-1.2-0.5-1.6c-0.9-0.8-2.5,0.3-3.2-0.4
	c-0.7-0.7,0.4-1.8-0.2-3.5c-0.1-0.2-0.5-1.4-1.6-1.9c-1.3-0.6-2.6,0.2-2.8-0.1c-0.2-0.3,0.8-1.6,2.1-2c3.5-1.2,6.8,3.7,9,2.5
	c1.4-0.8,1.3-3.6,1.3-4.4c0-1.1-0.1-2.6-1-3.3c-1.7-1.2-4.8,1.1-5.3,0.4c-0.5-0.7,3-3.1,2.4-5.1c-0.2-0.6-1.2-1.2-3.3-2.3
	c-2.6-1.4-3-1.3-3.1-1.2c-0.5,0.5,0.8,2,0.1,2.9c-0.5,0.6-1.3,0.2-1.8,0.8c-0.4,0.5,0,1.2,0,2c-0.1,1.7-1.9,3.5-2.9,3.2
	c-1.4-0.3-2.7-4.3-1.3-6.7c0.3-0.6,1-1.4,0.7-2.1c-0.2-0.6-1.1-0.8-1.1-0.8c-1.2-0.2-1.9,0.9-4.1,2.4C57.2,48.6,55.9,48.5,55.7,49.5
	z"/>
</svg>
