<?xml version="1.0" encoding="utf-8"?>
<!-- Generator: Adobe Illustrator 26.0.3, SVG Export Plug-In . SVG Version: 6.00 Build 0)  -->
<svg version="1.1" id="Ebene_1" xmlns="http://www.w3.org/2000/svg" xmlns:xlink="http://www.w3.org/1999/xlink" x="0px" y="0px"
	 viewBox="0 0 670 220" style="enable-background:new 0 0 670 220;" xml:space="preserve">
<style type="text/css">
	.st0{fill:#99464C;stroke:#000000;stroke-width:2;stroke-miterlimit:10;}
	.st1{stroke:#000000;stroke-width:2;stroke-miterlimit:10;}
	.st2{fill:none;stroke:#FFFFFF;stroke-width:4;stroke-miterlimit:10;}
	.st3{fill:none;stroke:#FFFFFF;stroke-width:2;stroke-miterlimit:10;}
</style>
<g>
	<path class="st0" d="M8.4,110v95.5h384.4c-0.4-27.4-0.9-54.7-1.3-82.1c51.5,0.7,102.9,1.4,154.4,2.1c0.2,26.7,0.5,53.3,0.7,80h116
		V110H8.4z"/>
	<path class="st1" d="M23.5,125.5c0-2,28.5-8.4,44.4-1.2c7.1,3.2,10.9,4,18.7,5.6c1.6,0.3,2.9,0.6,4.7,0.4
		c6.7-0.5,10.3-5.5,13.7-7.9c7.5-5.1,18.5-0.3,26.7,2.4c7.5,2.5,24.2,3.2,57.5,4.7c37.4,1.7,32.3-2.4,49.8,0.6
		c17.6,3,33.4,8.8,39.7,1.5c3.4-3.9,1.1-8.2,5-11.6c7.9-6.8,26.2,3.2,26.1,3.6c-0.1,0.3-12.8-7.3-21-2.1c-6.7,4.3-3.4,12.4-9.8,17.2
		c-4.6,3.4-7.7,0.2-31.4-1.8c-7.3-0.6-9.5-0.5-21-1.5c-10.6-0.9-9.8-1.1-13.3-1.2c-12.5-0.4-13.8,2-25.2,1.8
		c-0.6,0-6.8-0.7-19.3-2.1c-11.5-1.3-11.3-1.3-13.6-1.5c-12.4-1.1-12.9-0.3-18.7-1.5c-5.4-1.1-5.7-2-13.3-3.6
		c-4.6-1-7.5-1.6-11.3-1.5c-3.3,0.1-5.5,0.6-12.1,2.4c-15.6,4.2-14.9,4.3-17.8,4.7c-5.9,0.8-11.2,1.6-17.2-0.6
		c-4.4-1.6-5.5-3.4-11-4.7c-3.5-0.8-6.4-0.9-9.8-0.9c-6.4-0.1-7.9,0.8-13,0.3C30.2,127.2,23.5,126.5,23.5,125.5z"/>
	<path class="st1" d="M138.8,172.3c9.3-1.6,16.7-1.5,20.1-1.5c16.4,0.2,19.4,2.1,30.5,1.8c5.3-0.1,18.1-0.6,32.6-5.9
		c10.5-3.9,15.3-7.9,25.8-8c4.8-0.1,6.4,0.7,12.1,0.3c2.8-0.2,6.8-0.7,19-4.7c0.1,0,12.7-4.2,24-7.7c6.1-1.9,9.1-2.8,12.1-1.2
		c4.1,2.2,6.6,8.3,4.7,11c-2.2,3.1-8.9-0.8-20.1-0.9c-15.6-0.1-14.9,7.3-29.6,7.4c-11.1,0.1-19.5-4.1-29.9,0.3
		c-1.5,0.6-3.7,1.7-3.9,1.8c-8.6,4.2-11.3,7-16.3,9.5c-4.4,2.2-8,2.7-13.6,3.6c-6.8,1-12.5,0.7-23.4,0c-8-0.5-7.8-0.8-15.1-1.2
		c-4.8-0.2-9.6-0.5-16-0.3c-10.6,0.3-10.6,1.3-14.2,0.3c-5-1.3-7.7-3.9-11.6-2.7c-2.1,0.7-2.4,1.8-4.4,3c-6.4,3.7-15.8,0.2-15.7-0.9
		c0.1-1.2,12,0,29.6-3.3C136.6,172.7,137.4,172.5,138.8,172.3z"/>
	<path class="st1" d="M117.1,144.2c-4.7-2.5-13.6-0.1-15.7,5.3c-1,2.6-0.6,6.2,1.5,8.6c4,4.4,12.6,2.6,20.4,0.9
		c9.1-1.9,9.5-3.9,16-4.1c7.3-0.2,11.6,2.1,12.7,0.3c1.2-1.8-1.6-6.3-5-8.6c-4.1-2.7-10-2.7-13.9-1.2c-0.9,0.3-2.6,1.1-5.3,1.8
		c-1.9,0.5-3.1,0.7-4.4,0.6C120.3,147.4,119.4,145.3,117.1,144.2z"/>
	<path class="st1" d="M368.1,168.5c-8.9,4.6-23.7,5-23.7,5c-13.8,0.4-16.7,0-25.8,0.3c-4.9,0.2-12.3,0.4-21,1.5
		c-18.4,2.3-19.2,5.2-35.6,6.8c-8.7,0.8-11.6,0.3-19.3,2.1c-8.6,2-18.4,5.8-18.1,7.7c0.3,1.6,8,1.4,16.3,1.2
		c8-0.2,13.2-0.4,19.9-2.1c8.8-2.3,7.8-4.1,16.9-6.8c7.8-2.3,8.1-0.8,22.8-3.6c9.6-1.8,10-2.5,14.8-2.7c5.6-0.2,6.8,0.8,16.3,1.2
		c5.5,0.2,10,0.1,13,0c7.4-0.3,11.2-0.5,16-1.8c9.3-2.4,15.7-7,15.7-7.1c0,0-2.4,1.3-2.7,0.9c-0.5-0.7,6.6-4.4,9.5-11.9
		c0.8-2,1.1-4,1.5-6.5c0.6-3.9,1-6.2,0-6.8c-1.2-0.8-4.6,1.2-6.2,4.1c-2,3.6,0.4,5.5-1.5,9.8c-1.5,3.3-4.4,5.6-5.6,6.5
		C371.4,166.4,369.8,167.6,368.1,168.5z"/>
	<path class="st1" d="M30.9,181.8c-0.8-1.5-13.7,1.2-14.2,6.5c-0.4,4.5,8.2,8.3,11.9,9.5c7.3,2.4,14,0.7,16.6,0
		c2.9-0.7,4.7-1.2,6.8-2.7c5.9-4,6.2-10.4,8.9-10.4c1.9,0,2,3.1,5.6,6.2c2.9,2.4,8,5,10.7,3.3c3.1-2,2.9-10-1.2-14.5
		c-3.1-3.5-8.1-4.5-11.9-3.6c-1.9,0.5-3.7,1.9-7.4,4.7c-4.7,3.6-5,4.8-7.7,5.9c-2.5,1.1-3.1,0.5-8.3,1.2c-5.7,0.8-13.1,2.6-13,3.6
		c0,0.5,1.9,0.9,2.4,0.3c0.6-0.8-1.5-2.5-1.5-5C28.6,183.9,31.3,182.5,30.9,181.8z"/>
	<path class="st1" d="M406.2,117.4c3.2,0.5,5.1-1,7.5-1.7c6.2-1.8,11.1,3.4,15,0.8c0.6-0.4,0.5-0.6,1.2-1c2.8-1.7,6.4-0.6,7.9-0.3
		c5.3,1.3,4.3-0.6,19.2,0.5c9.4,0.7,7.7,1.4,12.2,1.3c7.4-0.1,14.5-1.9,15.9,0.5c0.3,0.5,0.1,0.7,0.4,1.1c1.3,1.6,5.2-0.7,10.4-0.4
		c3.8,0.2,7.1,1.8,7,2.4c-0.1,0.7-5.7,0.4-7.7,0.3c-7.9-0.5-9.6-1.7-16.6-1.9c-1.2,0-3.4,0-7.9,0.1c-5.8,0.1-6.6,0.3-9.4,0.2
		c-2.8-0.1-5.2-0.2-8.3-0.8c-2.4-0.5-2.9-0.8-5-1c-2.5-0.3-3.9,0-6.4,0.1c-3.6,0.2-4.9-0.1-8-0.2c-5-0.1-5.3,0.6-19.2,2.1
		c-4.2,0.5-6.1,0.6-8.4,0.2c-0.8-0.1-2.7-0.5-5.4-0.7c-0.8-0.1-1.1-0.1-2.1-0.2c-3.1-0.3-4.7-0.4-4.7-0.7c-0.1-0.6,5.6-2.5,10.8-1.1
		C405.3,117.1,405.5,117.2,406.2,117.4z"/>
	<path class="st1" d="M563.4,138.3c1.2-0.2,2.6-0.3,11.9,0.9c4.5,0.6,4.3,0.6,5.3,0.7c4,0.2,4.8-0.5,10.4-1c4.4-0.3,4.9,0,7.4-0.6
		c2.9-0.7,3.8-1.6,5.6-2.4c4.6-1.8,8.3,0.2,18.1,2.7c3.8,1,7.7,1.6,11.6,2.4c17.2,3.6,24.1,4.2,24,4.7c-0.1,0.8-16.1,0.4-27.6-1.8
		c-1.3-0.2-6.3-1.2-13.3-2.4c-2.2-0.4-4.7-0.8-5.6-0.9c-12.9-1.9-24.9,2.4-38.8,2.4c-0.6,0-3.9-0.2-10.4-0.6
		c-4.4-0.3-5.8-0.4-5.9-0.9C555.8,140.7,559.5,138.8,563.4,138.3z"/>
	<path class="st1" d="M642.5,182.1c-3,0.5-4.1-1.8-6.8-1.8c-2.4,0-5.4,1.9-5.6,4.1c-0.3,2.3,2.3,4.3,3.9,5c0.9,0.4,2.6,0.6,5.9,0.9
		c2.3,0.2,2.9,0.2,3.6,0c0.7-0.2,2.9-0.7,3.9-2.7c1.1-2.4-0.3-5.7-2.1-6.2C644.2,181.2,643.9,181.9,642.5,182.1z"/>
	<path class="st1" d="M576.1,166.4c0.1-0.8,7.6,0.7,18.1-1.5c7-1.5,8.3-3.1,11.6-2.1c4.8,1.5,5.3,6.1,11,7.4c0.5,0.1,2.5,0.1,6.5,0
		c6-0.1,9-0.2,11-0.3c6.6-0.4,8-0.8,11,0c2.8,0.8,5.8,2.4,5.6,3.3c-0.3,1.1-5.9-0.6-14.8-0.3c-11.6,0.4-14.8,3.6-21.9,1.2
		c-1.3-0.4-2-0.8-7.1-2.7c-5-1.8-7.5-2.7-8.6-3c-7.3-1.5-14.3,0.8-14.2,1.2c0,0.3,2.9,0.3,3,0C587.1,169.1,576,167.4,576.1,166.4z"
		/>
	<path class="st1" d="M563.6,192.8c-1.6-0.5-3.7-0.7-3.9-0.3c-0.2,0.5,2.3,2.3,5,2.7c3.1,0.4,4.9-1.2,7.7-2.4
		c1.7-0.7,6.3-0.9,15.4-1.2c9.2-0.3,11.2-0.1,13.3,0.3c3.9,0.7,7.1,2,7.4,2.1c4.9,1.9,4.8,3,8.3,3.9c3,0.7,6,0.7,9.2,0.6
		c3.2-0.1,4.6-0.4,4.7,0c0.2,0.6-3.5,2.7-7.7,3.3c-2.3,0.3-4.5,0.2-7.7,0c-1.6-0.1-2.3-0.1-3-0.3c-3.3-0.8-4.5-3.1-6.5-4.7
		c-2.7-2.2-7.2-2-16-1.8c-4.8,0.1-8.9,0.6-8.9,0.6c-7.7,0.8-10,2-12.7,0.3C566.9,194.8,566.1,193.5,563.6,192.8z"/>
	<path class="st1" d="M575.5,116.7c-4.4,2.3-8.2,0.7-8.6,1.8c-0.3,1,2.7,3.7,6.5,4.7c4.1,1.1,5.4-0.6,10.1,0.6
		c1.9,0.5,1.5,0.8,5.9,2.4c4.8,1.7,6.1,1.7,7.1,1.5c2.2-0.5,4.7-2.3,4.4-3.6c-0.5-2.8-13-3-13-3c0,0,4.2,0.9,4.4,0.3
		c0.3-0.9-8.5-5.2-9.2-4.1c-0.3,0.5,1.3,2.3,1.2,2.4c-0.2,0.1-2.8-4.5-5.9-4.4C577.3,115.3,577.1,115.9,575.5,116.7z"/>
</g>
<g id="Titel">
	<polygon class="st2" points="135.3,62.2 218,14.5 300.7,62.3 300.7,157.8 218.1,205.5 135.4,157.7 	"/>
	<path class="st3" d="M173.6,121.5"/>
	<path class="st2" d="M360,247"/>
</g>
</svg>
