<?xml version="1.0" encoding="utf-8"?>
<!-- Generator: Adobe Illustrator 26.0.3, SVG Export Plug-In . SVG Version: 6.00 Build 0)  -->
<svg version="1.1" id="Ebene_1" xmlns="http://www.w3.org/2000/svg" xmlns:xlink="http://www.w3.org/1999/xlink" x="0px" y="0px"
	 viewBox="0 0 1920 1080" style="enable-background:new 0 0 1920 1080;" xml:space="preserve">
<style type="text/css">
	.st0{fill:#686477;}
	.st1{fill:#3B251E;stroke:#000000;stroke-width:4;stroke-miterlimit:10;}
	.st2{fill:none;stroke:#FFFFFF;stroke-width:4;stroke-miterlimit:10;}
	.st3{fill:none;stroke:#FFFFFF;stroke-width:2;stroke-miterlimit:10;}
	.st4{fill:#EAE4DD;stroke:#000000;stroke-width:2;stroke-miterlimit:10;}
	.st5{fill:#C90082;stroke:#000000;stroke-width:4;stroke-miterlimit:10;}
	.st6{fill:none;stroke:#000000;stroke-width:4;stroke-miterlimit:10;}
	.st7{fill:none;stroke:#000000;stroke-miterlimit:10;}
</style>
<g id="Hintergrund">
	<rect x="2" y="2" class="st0" width="1916" height="1076"/>
	<rect id="Boden" y="590.7" class="st1" width="1920" height="489.3"/>
	<path d="M1916,4v1072H4V4H1916 M1920,0H0v1080h1920V0L1920,0z"/>
</g>
<g id="Titel_00000158001977436481399590000001626227689550103687_">
	<polygon class="st2" points="1128.4,139.6 1174.3,112.8 1220.3,139.6 1220.3,193.1 1174.4,219.8 1128.4,193.1 	"/>
	<path class="st3" d="M1149.7,172.8"/>
</g>
<g id="Katalog">
	<path class="st4" d="M785.7,687c-39.3-17.1-100.4-35.8-173.7-26.4c-22.8,2.9-43.4,8.1-61.5,14.2c-11-106.5-21.9-213-32.9-319.5
		c23-12.3,79.6-38.7,154.1-32.1c52.3,4.7,91.5,23.6,113.2,36.3C785.1,468.7,785.4,577.8,785.7,687z"/>
	<path class="st4" d="M1029.8,675.8c-27.8-7.1-62.3-13-102-13.2c-58.5-0.2-107.3,12-142.2,24.3c-0.2-109.1-0.4-218.3-0.6-327.4
		c20.1-13.3,60-35.6,114.9-40.9c78.4-7.7,137.1,24.1,157.4,36.3C1048,461.9,1038.9,568.9,1029.8,675.8z"/>
	<path class="st4" d="M564.7,665.1c-3.2,2.4-6.3,4.9-9.5,7.3c-6.3-108.1-12.5-216.1-18.8-324.2c1.1-0.1,2.2-0.2,3.2-0.4
		C548.1,453.6,556.4,559.4,564.7,665.1z"/>
	<path class="st4" d="M554,668.2c-1.2,0.9-2.3,1.9-3.5,2.8c-7.1-107-14.2-214-21.3-321c1-0.2,2-0.4,2.9-0.6
		C539.4,455.7,546.7,562,554,668.2z"/>
	<path class="st4" d="M550.5,672.4c-1,0.9-2,1.8-3,2.7c-8.9-107-17.9-214-26.8-320.9c1.3-0.3,2.5-0.5,3.8-0.8
		C533.1,459.8,541.8,566.1,550.5,672.4z"/>
	<polygon id="L" class="st5" points="591.8,601.7 575.5,610.9 591.9,620.4 	"/>
	<polygon id="R" class="st5" points="986.6,601.8 1002.8,611 986.4,620.4 	"/>
	<path class="st4" d="M475.6,352.1"/>
	<path class="st4" d="M479,348.6"/>
	<path class="st4" d="M561.7,666.4c-0.5-1.4,27.7-23.1,57.1-32.7c85-27.8,167.7,49.3,166.8,51.8c-0.9,2.4-86.8-71-176.1-40.7
		C586.7,652.7,562.2,667.7,561.7,666.4z"/>
	<path class="st4" d="M555.8,670.5c-0.3-1.2,26.8-11.6,40.8-16c94.7-29.5,189.5,29.4,189.1,31c-0.4,1.5-82.3-49.9-178.8-28.2
		C586.5,661.9,556.1,671.8,555.8,670.5z"/>
	<path class="st4" d="M1012.1,665.8c3.2,2.4,6.5,4.9,9.7,7.3c6.4-108.1,12.8-216.1,19.2-324.2c-1.1-0.1-2.2-0.2-3.3-0.4
		C1029.2,454.3,1020.6,560,1012.1,665.8z"/>
	<path class="st4" d="M1023.1,668.9c1.2,0.9,2.4,1.9,3.5,2.8c7.3-107,14.5-214,21.8-321c-1-0.2-2-0.4-3-0.6
		C1038,456.4,1030.5,562.6,1023.1,668.9z"/>
	<path class="st4" d="M1026.7,673.1c1,0.9,2,1.8,3.1,2.7c9.1-107,18.3-214,27.4-320.9c-1.3-0.3-2.6-0.5-3.8-0.8
		C1044.5,460.5,1035.6,566.8,1026.7,673.1z"/>
	<path class="st4" d="M1015.2,667.1c0.5-1.4-28.3-23.1-58.4-32.7c-86.9-27.8-171.3,49.3-170.4,51.8c0.9,2.4,88.6-71,179.9-40.7
		C989.7,653.3,1014.7,668.4,1015.2,667.1z"/>
	<path class="st4" d="M1021.3,671.2c0.3-1.2-27.3-11.6-41.7-16c-96.7-29.5-193.6,29.4-193.2,31c0.4,1.5,84-49.9,182.7-28.2
		C989.9,662.6,1021,672.5,1021.3,671.2z"/>
</g>
<rect id="Platzhalter" x="578" y="479.6" class="st6" width="191.3" height="107.1"/>
<g id="Platzhalter_00000085931912001556701660000015169587356954356910_">
	<polygon class="st7" points="850.9,367.2 911.7,332.9 972.6,367.2 972.6,435.8 911.8,470 850.9,435.7 	"/>
	<path class="st7" d="M947.7,381.5"/>
</g>
<polygon id="Platzhalter_00000183946592846742007310000001394219015698872998_" class="st6" points="612.8,367.2 673.7,332.9 
	734.6,367.2 734.6,435.8 673.8,470 612.9,435.7 "/>
</svg>
