<?xml version="1.0" encoding="utf-8"?>
<!-- Generator: Adobe Illustrator 26.0.3, SVG Export Plug-In . SVG Version: 6.00 Build 0)  -->
<svg version="1.1" id="Ebene_1" xmlns="http://www.w3.org/2000/svg" xmlns:xlink="http://www.w3.org/1999/xlink" x="0px" y="0px"
	 viewBox="0 0 100 100" style="enable-background:new 0 0 100 100;" xml:space="preserve">
<style type="text/css">
	.st0{fill:#FFFFFF;stroke:#000000;stroke-width:2;stroke-miterlimit:10;}
	.st1{fill:none;stroke:#000000;stroke-width:2;stroke-miterlimit:10;}
</style>
<g id="Ebene_2_00000093860788734264317370000010671531211922489223_">
</g>
<g id="Platzhalter_00000085931912001556701660000015169587356954356910_">
	<polygon class="st0" points="8.2,26.2 51.3,2 94.3,26.3 94.3,74.8 51.3,99 8.3,74.7 	"/>
	<rect x="21.9" y="44.6" class="st1" width="45.6" height="18.3"/>
	<polygon class="st1" points="27.7,67.2 24.2,67.2 22.4,70.3 24.2,73.5 27.7,73.5 29.5,70.3 	"/>
	<polygon class="st1" points="65.8,68.4 62.2,68.4 60.4,71.5 62.2,74.7 65.8,74.7 67.5,71.5 	"/>
	<path class="st1" d="M68,44.7c0.1,0.2,6.5-2.3,12.2-8c3.4-3.4,5.6-7,5.4-7.2c-0.2-0.2-2.9,3.6-7.9,8C72.1,42.5,67.9,44.5,68,44.7z"
		/>
	<polygon class="st1" points="49.6,54.6 37.5,59.9 27,51.8 28.6,38.4 40.7,33.2 51.2,41.3 	"/>
	<polygon class="st1" points="70.3,34.5 51.1,57.9 41.5,49.7 60.7,26.3 	"/>
	<path class="st1" d="M76.7,36.4"/>
</g>
</svg>
