<?xml version="1.0" encoding="utf-8"?>
<!-- Generator: Adobe Illustrator 26.0.3, SVG Export Plug-In . SVG Version: 6.00 Build 0)  -->
<svg version="1.1" id="Ebene_1" xmlns="http://www.w3.org/2000/svg" xmlns:xlink="http://www.w3.org/1999/xlink" x="0px" y="0px"
	 viewBox="0 0 1920 1080" style="enable-background:new 0 0 1920 1080;" xml:space="preserve">
<style type="text/css">
	.st0{fill:#2682B3;}
	.st1{opacity:0.25;fill:#FFDCFF;}
	.st2{opacity:0.5;fill:#FFDC85;}
	.st3{fill:#3B251E;stroke:#000000;stroke-width:4;stroke-miterlimit:10;}
	.st4{fill:#55B261;stroke:#000000;stroke-width:4;stroke-miterlimit:10;}
	.st5{opacity:0.75;fill:#FFDC7B;}
	.st6{fill:#FFDC69;}
	.st7{fill:#603722;stroke:#000000;stroke-width:4;stroke-miterlimit:10;}
	.st8{fill:#603726;stroke:#000000;stroke-width:4;stroke-miterlimit:10;}
	.st9{fill:#493127;stroke:#000000;stroke-miterlimit:10;}
	.st10{fill:#493127;stroke:#000000;stroke-width:0.5;stroke-miterlimit:10;}
	.st11{fill:#5D4135;stroke:#000000;stroke-miterlimit:10;}
	.st12{fill:#5D4135;stroke:#000000;stroke-width:0.5;stroke-miterlimit:10;}
	.st13{fill:#1D181B;stroke:#000000;stroke-miterlimit:10;}
	.st14{fill:#29292C;stroke:#000000;stroke-width:0.5;stroke-miterlimit:10;}
	.st15{fill:#29292C;stroke:#000000;stroke-miterlimit:10;}
	.st16{fill:#1D181B;stroke:#000000;stroke-width:0.5;stroke-miterlimit:10;}
	.st17{display:none;fill:#644128;stroke:#000000;stroke-width:4;stroke-miterlimit:10;}
	.st18{display:none;stroke:#000000;stroke-width:4;stroke-miterlimit:10;}
	.st19{stroke:#000000;stroke-width:4;stroke-miterlimit:10;}
	.st20{fill:#804122;stroke:#000000;stroke-width:4;stroke-miterlimit:10;}
	.st21{fill:#804122;stroke:#000000;stroke-width:2;stroke-miterlimit:10;}
	.st22{fill:#493127;stroke:#000000;stroke-width:0.25;stroke-miterlimit:10;}
	.st23{fill:#5D4135;stroke:#000000;stroke-width:0.25;stroke-miterlimit:10;}
	.st24{fill:#DF1200;stroke:#000000;stroke-miterlimit:10;}
	.st25{fill:#FFA46A;stroke:#000000;stroke-width:0.75;stroke-miterlimit:9.9997;}
	.st26{fill:#999999;stroke:#000000;stroke-miterlimit:10;}
	.st27{fill:#555555;stroke:#000000;stroke-miterlimit:10;}
	.st28{fill:none;stroke:#000000;stroke-width:0.75;stroke-miterlimit:10;}
	.st29{fill:#FFFFFF;stroke:#E5211C;stroke-width:3;stroke-miterlimit:10;}
	.st30{stroke:#000000;stroke-width:0.25;stroke-miterlimit:10;}
	.st31{stroke:#000000;stroke-width:0.75;stroke-miterlimit:10;}
	.st32{stroke:#000000;stroke-width:0.75;stroke-miterlimit:9.9998;}
	.st33{fill:#804122;stroke:#000000;stroke-width:0.5;stroke-miterlimit:10;}
	.st34{fill:#83533A;stroke:#000000;stroke-miterlimit:10;}
	.st35{fill:#855B3A;stroke:#000000;stroke-width:0.5;stroke-miterlimit:10;}
	.st36{fill:#3B733A;stroke:#000000;stroke-miterlimit:10;}
	.st37{fill:#3B873A;stroke:#000000;stroke-width:0.5;stroke-miterlimit:10;}
	.st38{fill:#9F6D36;stroke:#000000;stroke-width:0.75;stroke-miterlimit:10;}
	.st39{fill:#9F8769;stroke:#000000;stroke-width:0.5;stroke-miterlimit:10;}
</style>
<g>
	<rect x="2" y="2" class="st0" width="1916" height="1076"/>
	<path d="M1916,4v1072H4V4H1916 M1920,0H0v1080h1920V0L1920,0z"/>
</g>
<circle class="st1" cx="1092" cy="289" r="275"/>
<circle class="st2" cx="1091.5" cy="289.5" r="212.5"/>
<rect y="450.5" class="st3" width="1920" height="629.5"/>
<path class="st4" d="M1920,516H0v-66c62.9-9.2,114.6-14.2,150-17c203.7-16.3,374.4-2.7,435,3c36.9,3.5,45.5,5.2,71,6
	c109.5,3.6,147.1-21.2,240-31c122.9-13,129.7,22.8,258,6c87.3-11.4,76.6-26.9,147-35c152.7-17.5,176.9,58.6,354,55
	c39.8-0.8,89.4-5.7,170,1c40.6,3.4,73.6,8.3,95,12C1920,472,1920,494,1920,516z"/>
<circle class="st5" cx="1091" cy="289" r="175"/>
<g>
	<circle class="st6" cx="1091" cy="289" r="150"/>
</g>
<path class="st4" d="M3,513c3.3,7.3,22.9,9.4,34,3c40-23.1-8.5-170.3-10-170c-1.2,0.2,34.1,91.3-6,139C13.4,494.1-0.4,505.6,3,513z"
	/>
<path class="st4" d="M29,331c-0.2,0-29,159.2,19,181c8.1,3.7,20.1,4.2,24-1c7.4-10-20.2-33.9-36-70C11.4,384.9,29.1,331,29,331z"/>
<path class="st4" d="M120,460c-6.6,13.7-9.5,15.1-11,24c-2.3,13.2,2.6,18.3-1,32c-0.7,2.6-4.6,17.3-12,18c-4.2,0.4-7.7-3.9-11-8
	c-2.4-3-12.9-15.9-11-30c1.9-13.8,14.8-21.9,21-27c14.6-12,28.8-37.7,25-99c14.6,22.2,14.8,39.8,14,48
	C132.5,434,124.4,450.9,120,460z"/>
<path class="st4" d="M160,407.4c-32.7,31.2-46.5,70.1-70,138.4c-1.4,4-3.6,11-1,16.4c5.9,12,32.8,8.9,36-1.2c2.3-7.1-5-11.9-9-27
	c-7.4-27.6,5.5-59.3,17-76.2c7.9-11.6,11.4-11,24-29.3c7.9-11.5,17.9-28.4,16-30.5C171.5,396.4,163.3,404.2,160,407.4z"/>
<path class="st4" d="M632,530c4.7,6.1,14.8,9.4,23,6c5.2-2.2,9.8-7.1,11-13c1.5-7.6-3.5-12.7-10-25c-6.6-12.6-10.3-19.6-11-28
	c-1.6-19.8,15.6-24.8,14-45c-0.6-7.9-3.3-6.4-9-26c-5.2-17.8-5.4-27.1-7-27c-2.1,0.1-6,17.1-2,35c3,13.5,7.8,15.1,7,24
	c-1,11.9-10,13-15,27c-4.1,11.6,1,13.5,0,36C632,516.3,626.5,522.8,632,530z"/>
<path class="st4" d="M647,543c5.3-8.1-0.4-16.7-5-35c-9.3-36.9,2.7-44.9-8-80c-5.7-18.6-14.7-34.7-17-34c-2.1,0.7,1.8,15.8,5,40
	c2.5,18.5,4.3,32.5,4,47c-0.7,41.8-18.1,60.7-9,69C623.8,556.2,641,552.3,647,543z"/>
<path class="st4" d="M329,545c-3.3-1.4-1.6-7.2-4-22c-2.6-16.5-6.2-18.8-4-25c3.3-9.4,12.7-7.9,17-17c4.3-9.1-2.5-16.2-6-33
	c-4.9-23.6,1.5-44,3-44c1.4,0-1.8,17.3,6,39c5.7,15.9,10.9,16.5,11,26c0.2,16.4-15.2,19.7-15,36c0.1,13.2,10.3,17.7,7,28
	C341.5,540.8,333,546.7,329,545z"/>
<path class="st4" d="M661,463c0.2-2.4,0.2-1.6,0.5-5.4c0.7-7.9,1.8-19.8,1.5-34.6c-0.1-3.7-0.2-7.7-0.6-13.2
	c-0.8-10.1-2-14.6-1.4-14.8c1.1-0.3,9.1,14.5,12,33c4.1,26.4-6.8,30.4-3,57c2,13.6,5.5,17.1,8,38c1.1,9.2,3.1,25.6-1,27
	c-3.1,1-8.8-6.7-12-13c-4.8-9.5-2.2-12.9-4-44C660.6,485.7,659.9,476.2,661,463z"/>
<path class="st4" d="M648,339c-0.8,0.2,8.5,19.6,10,46c5.1,91-89,156.2-72,178c4.9,6.3,17.1,6.3,24,3c13.2-6.2,12.4-26.3,18-50
	c10.2-43.5,28.5-42.7,37-77C677.5,388.3,649.2,338.7,648,339z"/>
<path class="st4" d="M930,534c2.3,1,5-0.4,8-2c7.7-4.1,12.1-12.6,13-20c1.6-13.3-9.1-16.3-13-34c-1.6-7.3,0-7.8,2-33
	c0.7-8.6,3.2-39.7,1-40c-1.6-0.2-5.7,15.6-8,31c-2.9,19.6-0.5,22.9-2,47C929.1,513.5,923.8,531.2,930,534z"/>
<path class="st4" d="M965,524c0.5,0.5,10.2,9.1,19,6c7.7-2.7,12.2-13.4,11-22c-1.8-12.9-15-12.3-24-28c-7.3-12.8-6.7-27.5-6-44
	c0.6-14.1,3.1-19.8,0-31c-3.1-11.2-9.9-20.8-12-20c-2.3,0.8,2.1,13.4,4,33c1.6,16.3-0.4,17.9-1,48C955.1,509.9,959.1,518.6,965,524z
	"/>
<path class="st4" d="M938,536c4.9,4.7,13.5,5.6,19,3c4.7-2.2,10.5-8.3,12-29c3.8-52.8-25.7-125.5-30-124c-2.5,0.9,12.4,23.8,11,63
	C948.3,495.5,925.2,523.7,938,536z"/>
<path class="st4" d="M224,406c-1.6-2-36.1,11.5-41,37c-3,15.6,8,20.2,12,45c5.6,34.2-10.4,55.7-3,60c7.5,4.4,30.5-14.2,28-25
	c-1.2-5.2-7.6-5.2-12-13c-4.1-7.2-2-13.2-2-22c0-20.5-11.7-24.3-12-39C193.5,424.4,225.6,408,224,406z"/>
<path class="st4" d="M236,507c-2.1,2.1-6,5.6-11,9c-9.6,6.6-13.7,6.4-15,10c-2.7,7.3,8.8,22.3,18,21c6.3-0.9,9.7-9.3,15-23
	c4.6-12,6.2-20.6,8-29c7.4-34.2,12.2-33.5,13-50c1.1-22-6.5-41.3-9-41c-1.2,0.1-1.2,5.1-3,39c-1,19.5-1.4,24.9-3,33
	C244.9,497,239,504,236,507z"/>
<path class="st4" d="M85,468c-0.2,1.8-0.9,7.1,1,8c3.4,1.5,13.4-11.6,19-22c14.9-27.7,10.4-58.8,8-59c-2.3-0.2,2.7,28.9-15,49
	C94.8,447.6,86.6,455.8,85,468z"/>
<path class="st4" d="M57,412c-1.8-0.1-4.1,26.3-1,53c1,8.8,2.1,12.6,4,13c3.3,0.6,9.6-8.5,10-18c0.4-9.7-5.7-12.3-10-27
	C56.3,420.2,58,412,57,412z"/>
<path class="st4" d="M65,406c-1.3,0.3,5,19.6,3,43.2c-4.7,56.5-52.1,84-44,104.8c2.9,7.6,11.8,10.8,18,9.9
	c21.3-3.2,35.9-58.9,34-103.6C74.8,430.9,66.4,405.6,65,406z"/>
<path class="st4" d="M6.9,408c1,0.3,0.1,6.6,0,19.7c-0.7,73.1,24.9,121.5,12.9,131.6c-3.9,3.3-9.5,0.6-10.7,0
	c-3.9-1.9-12.2-8.5-15-44.8C-10.2,459.3,3.9,407.3,6.9,408z"/>
<path class="st4" d="M16,416c-2.7-0.3-11.3,21.4-7,44c2.1,11.3,8,25.5,12,25c1.8-0.2,2.8-3.2,3-4c2.1-6.3-3.8-10.5-5-21
	c-0.3-2.6-0.1-4,0-7C19.5,440.9,18.8,416.3,16,416z"/>
<path class="st4" d="M82,392c-1.4,0.9,10.7,14.6,7,30c-1.1,4.7-2.6,4.8-4,11c-2.5,10.5-1.1,22.4,2,23c2.3,0.5,5.3-5.6,7-9
	c2.1-4.3,7.6-15.3,5-29C95.9,401.7,83.3,391.2,82,392z"/>
<path class="st4" d="M1908,523c8.2,2.9,20.1-2.7,22-10c2.3-9.1-13.3-13.2-23-31c-11.6-21.2,0.7-33.2-9-68c-4.4-15.8-12.4-32.8-16-32
	c-3.8,0.9-2.2,21.5-1,36c0.8,10,2.3,23.8,11,63C1899.4,514.5,1901.9,520.8,1908,523z"/>
<path class="st4" d="M1797,531c-1.7,0.5-4.9,1.2-10,0c-14.4-3.4-29.2-18.3-30-34c-0.7-13.6,9.6-16.9,17-34c8.2-18.9,4.8-36.3-1-65
	c-9.4-46.2-26.4-73.8-24-75c2.2-1.1,19.2,20.9,31,50c10.6,26.2,24.1,59.3,12,91c-5.8,15.2-15.8,25.6-11,33c5.8,9,25.5,1.2,30,10
	C1814.5,513.8,1807.4,527.8,1797,531z"/>
<path class="st4" d="M1712,527c8.2,7.1,25,5.2,30-2c4.9-7.2-4.7-16.3-6-37c-0.9-14.5,2.8-25.6,5-32c7.8-23.2,23.1-37.7,31-45
	c12.6-11.6,15-9.3,22-18c16.3-20.3,15.6-48.4,13-49c-1.9-0.5-3.8,13.1-13,30c-19,35-41.9,34.8-64,63
	C1705.7,467.9,1697.2,514.1,1712,527z"/>
<path class="st4" d="M1621,355c-3.1,4.8-9.4,14.7-10,27c-0.8,16.7,9.7,25.3,16,38c21.6,43.8-26.2,97.2-7,114c4.9,4.3,12.2,4.5,17,3
	c21-6.6,32.7-59,18-100c-10.8-30-29.1-35.6-28-60c1.1-24.6,20.8-41.6,18-44C1643.1,331.4,1630.1,341,1621,355z"/>
<path class="st4" d="M1311.6,574.2c-7,11.8-21.5,14.3-28.4,5.7c-9-11.1-4.2-39.6-0.9-58.8c10.2-60.8,30.1-70.8,28.4-103.3
	c-2.1-40.4-34.7-62.2-32.2-67.5c2.4-4.9,33.7,9.2,41.7,43.1c6.5,27.5-9.2,39.6-11.4,87.6C1306.4,531.6,1322.3,556.2,1311.6,574.2z"
	/>
<path class="st4" d="M1361,536c-9,5.8-29-2.6-35-16c-6.3-14.1,8-22.7,17-55c9.6-34.4-0.4-47.4,14-81c5.1-12,12.2-23.7,14-23
	c2.1,0.8-4.3,17.9-8,41c-3.1,19.1-2.7,32.9-2,58C1362.6,514,1370,530.3,1361,536z"/>
<path class="st4" d="M1328,363.1c2.8-3.4,17.9,13.4,28,33.3c3.7,7.4,8.3,18.3,13,39.1c6,26.7,18.1,80.1,4,95.6
	c-8.4,9.2-25.1,4.2-29-7.2c-3.9-11.5,7.5-22.5,12-43.5C1367.2,428,1322.9,369.2,1328,363.1z"/>
<path class="st4" d="M1368.2,405.3c-3.1-2-14.9,7.6-24.4,20.5c-34.6,47.4-27.2,125,1.1,140.4c1.5,0.8,9.5,5.1,14.9,2
	c7.5-4.4,6.2-21.1,3-31.9c-3.8-13-10.5-19-14.4-25C1326.4,477.2,1375.6,410.1,1368.2,405.3z"/>
<path class="st4" d="M1816,409c-2.7,5.1-6.9,14.1-12,49c-8.1,55.8-2.3,66.4,3,72c3.9,4.1,10.9,9.1,15,7c7.3-3.7,0.1-26.7-2-48
	c-6.1-61.8,31-107.2,24-111C1839.7,375.7,1824.7,392.5,1816,409z"/>
<path class="st4" d="M1754,447c-0.1,0.4-0.1,0.3-0.4,1.1c-3.4,9.2-9.3,26.4-12.6,45.9c-3.6,21.3-7.4,43.5,1,48
	c4.4,2.3,11.7-0.3,15-5c6.2-8.8-4.6-21.4-7-38c-2.3-16.5,8.8-17.9,18-52c4.8-17.7,4.2-24.6,4-27c-2-20.8-16.2-36.3-19-35
	C1749.3,386.6,1765.5,415.7,1754,447z"/>
<path class="st4" d="M1683,398.2c-3.3-5.3-32,6.6-52,33.1c-22.5,29.9-34.8,79.4-18,108.8c5.9,10.3,18.8,24.3,30,20.1
	c8.2-3.1,14.6-15.7,13-26c-2.6-16.6-24.1-14.9-30-29.6C1613.2,473.1,1688.9,407.6,1683,398.2z"/>
<path class="st4" d="M1679,533c8.8,3.2,21.2-4.3,27-13c18-26.8-27.3-63-12-109c5-15.1,15.8-28.7,12-32c-2.6-2.3-11.2,1.5-17,7
	c-22.2,20.9-12.8,74.1-11,84c1.3,7.5,3.4,15.5,0,25c-3.6,10.1-10,12.7-10,21C1668,523,1672.7,530.7,1679,533z"/>
<path class="st4" d="M611.7,581.3c15.6-6.1,6.3-48.6,11.2-139c1.7-31.4,3.2-34.3,3.1-55.8c-0.3-35.2-0.8-92.4-28.6-106.3
	c-8-4-19.1-4.9-20.4-2.1c-1.6,3.4,11.8,11.7,18.4,17.9c39.1,37.2,4.8,168.1-10.4,226c-2.5,9.7-9.1,33.9,3.2,48.8
	C593.2,576.8,603.8,584.4,611.7,581.3z"/>
<path class="st4" d="M396,570c-37.2,2.3-102.2-171.1-52-222c8.6-8.7,24.2-17.4,28-14c4.9,4.4-14.8,24-23,55
	c-9.3,34.9-4.6,86.1,25,113c19.6,17.9,40.4,16.2,44,32C421.3,548.4,408.5,569.2,396,570z"/>
<path class="st4" d="M366,382c-3.4-4.3-38.5,7.1-54,34c-27.5,47.7,14.6,130.6,41,130c10.8-0.2,22.2-14.6,20-23
	c-2.7-10.1-22.9-4.7-36-18c-17.8-18.2-9-57.5,1-80C350.3,397.3,368.7,385.4,366,382z"/>
<path class="st4" d="M221,376c12.5,24.2,13.7,24.9,17,32c27.2,57.5,0.8,112.1,20,121c7.6,3.5,18.5-2,24-8c15.1-16.7,2.3-50.4-9-80
	c-10.9-28.4-23.5-48.2-37-69c-15.4-23.8-37.2-53.7-40-52C193.3,321.7,209.3,353.4,221,376z"/>
<path class="st4" d="M157,521c5.4,5.1,15.1,10.3,20,7c7.2-4.8-4-22.8-5-51c-1.2-33.9,13.9-39.4,14-76c0.1-29.1-9.4-52.4-12-52
	c-3.1,0.4,8.3,33.9-5,73c-7.9,23.2-17.1,26.7-21,51C146.4,482.9,142.5,507.4,157,521z"/>
<path class="st4" d="M140,362c-1.7-0.7-69.1,112.6-32,154c10.4,11.7,29.9,18.5,34,14c4.6-4.9-11.4-21.6-20-42
	C97.2,429.6,141.3,362.5,140,362z"/>
<path class="st4" d="M145,505c-4.7,6.4-22.2,28.8-15,41c4.3,7.3,16.5,9.4,23,8c46.7-10.1,32.8-255.9,28-256
	C177.3,297.9,192.1,440.5,145,505z"/>
<path class="st4" d="M945,318c5-1.1,35.4,65,30,148c-2.3,35.5-12.8,100.8-36,104c-8.7,1.2-18.9-6.4-22-15c-5.8-16.1,13.6-35.9,21-45
	C988.9,447.4,938,319.6,945,318z"/>
<path class="st4" d="M944,345c-5.6-1.1-28.1,44.9-25,99c2.2,38.3,16.2,62.7,42,108c13.6,23.8,25.4,38.9,44,44c10.5,2.9,25.2,3,28-3
	c3.6-7.5-13.5-19.9-34-43c0,0-19.7-22.1-40-56C919.9,428.9,951.4,346.4,944,345z"/>
<path class="st4" d="M1845,548c14.1-6,14.7-27.2,20-74c8.7-76,15-89,9-124c-4-23.4-12.2-48.6-16-48c-4.5,0.7,2.7,35.5-1,79
	c-7.9,91.7-57.5,143.1-37,163C1826.6,550.4,1837.9,551,1845,548z"/>
<path class="st4" d="M285,336c-14.5,77.2-24.7,98.9-28,160c-1.3,24.7-0.8,42,11,54c11.2,11.4,30.8,16,36,10c4.9-5.7-4.9-18.8-12-35
	c-10.7-24.3-8.4-51.5-6-105c0.9-20.8,2.6-38.3,4-54c3.8-41.4,7.8-65.6,6-66C294.5,299.7,288.8,315.7,285,336z"/>
<path class="st4" d="M901.1,482.6c-6.9,60.2,33.1,122.9,54.9,120.4c9.5-1.1,17.8-14.9,18.3-26c0.5-10.3-5.6-17.9-12.6-27.1
	c0,0-18.3-24.2-32-46.6c-28.4-46.4,78.3-149.9,70.9-156.1c-4.2-3.5-44.9,25-73.2,70.5C916.8,434.5,904.3,454.6,901.1,482.6z"/>
<path class="st4" d="M204,369c-5.6-1.8-73,127-31,179c5.4,6.7,15.4,15.5,21,13c10.3-4.7-4.2-43.2-5-95
	C188,404.7,206.9,369.9,204,369z"/>
<path class="st4" d="M242,308"/>
<path class="st4" d="M233,318c-4.3-2.3-39.5,37.2-57,94c-21.5,69.9-12.6,153.7,13,161c7.3,2.1,16.9-1.9,21-8
	c7.7-11.5-5.1-28.9-12-49c-8.1-23.7-4.8-44.4,2-86c3.3-20.1,7.3-35.3,10.4-46.3C222.6,340.4,235.2,319.2,233,318z"/>
<path class="st4" d="M310,368c-46.5,56.6-37.7,159.9-13,167c5.3,1.5,11.6-1.3,15-5c10.7-11.3-2.2-33.7-7-57
	c-12.5-60.5,31.3-114.4,23-119C323.6,351.6,311.2,366.5,310,368z"/>
<path class="st4" d="M1730,298c-6.8-1.3-70,237.3-38,250c5.1,2,11.4-2.2,14-4c22.8-15.5,12.6-60.7,10-108
	C1711.4,351.3,1733.2,298.6,1730,298z"/>
<path class="st4" d="M1837,349c-3.1-1.5-105.8,160.5-72,193c6.5,6.3,18.9,8.4,25,4c12.1-8.8-7.3-38.9,2-82c1.2-5.5,1.7-6.1,13-34
	C1826.7,376.2,1837.6,349.3,1837,349z"/>
<path class="st4" d="M364,340c5-2.3,47.2,52.6,58,127c5.1,34.8,6.9,99.2-18,109c-11.1,4.4-27.5-2.1-32-12c-4.9-10.9,6.5-22.3,14-40
	c9.2-21.6,6.9-41.3,2-80C379.5,377.3,360.1,341.8,364,340z"/>
<path class="st4" d="M385,324c6.5,0.1,12.8,73,3,149c-5.6,43.3-12.9,100.5-40,107c-16,3.9-38.3-10.1-38-20c0.2-6.7,10.7-9.7,19-15
	c27.3-17.4,28.2-57,36-117C369.5,393.7,378.6,323.9,385,324z"/>
<path class="st4" d="M316,542.9c26-31.6,15.9-62.2,29-128.9c10.2-52.1,28.9-96.9,33-95.9c5,1.2-21.9,66.4-21,165
	c0.4,44.8,6.3,72.2-12,89.7c-21.8,20.8-65.2,15.4-68,5.2C274.9,570.3,297.2,565.7,316,542.9z"/>
<path class="st4" d="M1845,405c-3.3-1.4-23.6,30.3-35,69c-11.4,38.6-15.4,89.2-1,95c5.8,2.3,13.4-3.1,16-5c10.4-7.5,14-21.3,13-32
	c-1.4-14.9-11.1-15.4-15-30c-3.5-13,2.3-19.7,12-52C1838.5,438.4,1848.1,406.3,1845,405z"/>
<path class="st4" d="M1870,550c5.1,4.6,16.9,3.7,24-2c17.1-13.8-4.6-46.2,0-104c3-37.1,15.1-62.4,11-64c-3.6-1.4-14.6,17.4-21,32
	c-2.5,5.6-9,21.5-12,46c-3.6,29.1,2.8,29.3-1,58C1868.5,535,1864.4,545,1870,550z"/>
<path class="st4" d="M1882,352c4.1-1.8,40.1,42.6,43,101c2.5,50.6-20,105.5-37,105c-13.3-0.4-26.3-35.1-19-42c4.9-4.7,15.7,6.4,25,2
	c16.5-7.8,9.9-55.7,6-82C1892,381.2,1878.9,353.3,1882,352z"/>
<path class="st4" d="M240.9,453.7c-6.6,13.7-9.5,15.1-11,24c-2.3,13.2,2.6,18.3-1,32c-0.7,2.6-4.6,17.3-12,18c-4.2,0.4-7.7-3.9-11-8
	c-2.4-3-12.9-15.9-11-30c1.9-13.8,14.8-21.9,21-27c14.6-12,28.8-37.7,25-99c14.6,22.2,14.8,39.8,14,48
	C253.4,427.7,245.3,444.6,240.9,453.7z"/>
<path class="st4" d="M205.9,461.7c-0.2,1.8-0.9,7.1,1,8c3.4,1.5,13.4-11.6,19-22c14.9-27.7,10.4-58.8,8-59c-2.3-0.2,2.7,28.9-15,49
	C215.7,441.3,207.5,449.5,205.9,461.7z"/>
<path class="st4" d="M177.9,405.7c-1.8-0.1-4.1,26.3-1,53c1,8.8,2.1,12.6,4,13c3.3,0.6,9.6-8.5,10-18c0.4-9.7-5.7-12.3-10-27
	C177.2,413.9,178.9,405.7,177.9,405.7z"/>
<path class="st4" d="M185.9,399.7c-1.3,0.3,5,19.6,3,43.2c-4.7,56.5-52.1,84-44,104.8c2.9,7.6,11.8,10.8,18,9.9
	c21.3-3.2,35.9-58.9,34-103.6C195.7,424.6,187.3,399.3,185.9,399.7z"/>
<path class="st4" d="M1845.9,468.7c-6.6,13.7-9.5,15.1-11,24c-2.3,13.2,2.6,18.3-1,32c-0.7,2.6-4.6,17.3-12,18
	c-4.2,0.4-7.7-3.9-11-8c-2.4-3-12.9-15.9-11-30c1.9-13.8,14.8-21.9,21-27c14.6-12,28.8-37.7,25-99c14.6,22.2,14.8,39.8,14,48
	C1858.4,442.7,1850.3,459.6,1845.9,468.7z"/>
<path class="st4" d="M1810.9,476.7c-0.2,1.8-0.9,7.1,1,8c3.4,1.5,13.4-11.6,19-22c14.9-27.7,10.4-58.8,8-59c-2.3-0.2,2.7,28.9-15,49
	C1820.7,456.3,1812.5,464.5,1810.9,476.7z"/>
<path class="st4" d="M1782.9,420.7c-1.8-0.1-4.1,26.3-1,53c1,8.8,2.1,12.6,4,13c3.3,0.6,9.6-8.5,10-18c0.4-9.7-5.7-12.3-10-27
	C1782.2,428.9,1783.9,420.7,1782.9,420.7z"/>
<path class="st4" d="M1790.9,414.7c-1.3,0.3,5,19.6,3,43.2c-4.7,56.5-52.1,84-44,104.8c2.9,7.6,11.8,10.8,18,9.9
	c21.3-3.2,35.9-58.9,34-103.6C1800.7,439.6,1792.3,414.3,1790.9,414.7z"/>
<path class="st4" d="M1807.9,400.7c-1.4,0.9,10.7,14.6,7,30c-1.1,4.7-2.6,4.8-4,11c-2.5,10.5-1.1,22.4,2,23c2.3,0.5,5.3-5.6,7-9
	c2.1-4.3,7.6-15.3,5-29C1821.9,410.4,1809.2,399.9,1807.9,400.7z"/>
<path class="st4" d="M1651.2,473.7c6.6,13.7,9.5,15.1,11,24c2.3,13.2-2.6,18.3,1,32c0.7,2.6,4.6,17.3,12,18c4.2,0.4,7.7-3.9,11-8
	c2.4-3,12.9-15.9,11-30c-1.9-13.8-14.8-21.9-21-27c-14.6-12-28.8-37.7-25-99c-14.6,22.2-14.8,39.8-14,48
	C1638.7,447.7,1646.8,464.6,1651.2,473.7z"/>
<path class="st4" d="M1686.2,481.7c0.2,1.8,0.9,7.1-1,8c-3.4,1.5-13.4-11.6-19-22c-14.9-27.7-10.4-58.8-8-59c2.3-0.2-2.7,28.9,15,49
	C1676.4,461.3,1684.7,469.5,1686.2,481.7z"/>
<path class="st4" d="M1714.2,425.7c1.8-0.1,4.1,26.3,1,53c-1,8.8-2.1,12.6-4,13c-3.3,0.6-9.6-8.5-10-18c-0.4-9.7,5.7-12.3,10-27
	C1715,433.9,1713.2,425.7,1714.2,425.7z"/>
<path class="st4" d="M1706.2,419.7c1.3,0.3-5,19.6-3,43.2c4.7,56.5,52.1,84,44,104.8c-2.9,7.6-11.8,10.8-18,9.9
	c-21.3-3.2-35.9-58.9-34-103.6C1696.5,444.6,1704.8,419.3,1706.2,419.7z"/>
<path class="st4" d="M1689.2,405.7c1.4,0.9-10.7,14.6-7,30c1.1,4.7,2.6,4.8,4,11c2.5,10.5,1.1,22.4-2,23c-2.3,0.5-5.3-5.6-7-9
	c-2.1-4.3-7.6-15.3-5-29C1675.3,415.4,1687.9,404.9,1689.2,405.7z"/>
<path class="st4" d="M28.7,566.5c-15.6-6.1-6.3-48.6-11.2-139c-1.7-31.4-3.2-34.3-3.1-55.8c0.3-35.2,0.8-92.4,28.6-106.3
	c8.7-4.4,19.8-4,20.4-2.1c0.7,2.3-13.5,6.6-21.4,12.7c-43.3,33.7,5.8,201.5,11,219c4.2,14,13.6,43.8-0.8,61
	C47.1,562,36.6,569.6,28.7,566.5z"/>
<g id="Ebene_1_00000017510764199299988230000010460311392665681541_">
	<polygon class="st7" points="980.7,352.1 1149.9,254.5 1319.2,352.3 1319.3,547.8 1150.1,645.5 980.8,547.6 	"/>
</g>
<g id="Ebene_2_00000010298188597219724560000000687245673523113374_">
</g>
<g id="Ebene_1_00000001655423054774677710000017338776755074228671_">
	<polygon class="st8" points="222.7,101.4 349.9,28 477.2,101.6 477.3,248.6 350.1,322 222.8,248.4 	"/>
</g>
<g id="Ebene_1_00000099629605514773496110000007842360851402516897_">
	<polygon class="st8" points="1222.7,101.4 1349.9,28 1477.2,101.6 1477.3,248.6 1350.1,322 1222.8,248.4 	"/>
</g>
<g id="Ebene_1_00000098910885826510733920000001858551084224072583_">
	<polygon class="st8" points="822.7,101.4 949.9,28 1077.2,101.6 1077.3,248.6 950.1,322 822.8,248.4 	"/>
</g>
<g id="Ebene_1_00000000937101513831761050000003265987761307837593_">
	<polygon class="st8" points="522.7,101.4 649.9,28 777.2,101.6 777.3,248.6 650.1,322 522.8,248.4 	"/>
</g>
<g id="Ebene_1_00000040567977227246982970000008734429678400113052_">
	<polygon class="st8" points="372.7,376.4 499.9,303 627.2,376.6 627.3,523.6 500.1,597 372.8,523.4 	"/>
</g>
<g id="Ebene_1_00000060733523499085104970000016498330172028460940_">
	<polygon class="st8" points="672.7,376.4 799.9,303 927.2,376.6 927.3,523.6 800.1,597 672.8,523.4 	"/>
</g>
<g id="Ebene_1_00000037677613727411312580000016748752525226518180_">
	<polygon class="st8" points="1372.7,376.4 1499.9,303 1627.2,376.6 1627.3,523.6 1500.1,597 1372.8,523.4 	"/>
</g>
<path class="st9" d="M253,245c7.8,15.4,33.3,24.4,48,17c38.7-19.5,17.9-159.7-4-162c-3.9-0.4-7.2,3.6-10,7c-18.5,22.4,6.8,51.6-9,78
	c-7.2,12-14.8,9.9-22,25C254.2,213.7,246,231.1,253,245z"/>
<path class="st9" d="M380,69c14.5-11.6,57.4,5.2,74,36c6,11.1,6,26,6,56c0,43.1-0.3,71.1-18,83c-8.1,5.4-18.4,6.6-20,4
	c-2.4-3.8,16.2-13.3,16-28c-0.2-13.3-15.6-23.4-18-25c-13.4-8.8-25.2-6.7-26-11c-1.3-7.2,31.6-11.8,34-27c1.6-10.2-11.2-21.3-27-35
	c-15.2-13.1-22.5-15-26-25C371.9,88,372.8,74.7,380,69z"/>
<path class="st9" d="M328,166c-3-4.6-5.3-8.2-4-11c1.8-4,10.1-4.8,40-1c27.6,3.5,47.8,6.2,48,11c0.1,4.5-17.1,3.3-29,18
	c-5.9,7.2-5.8,12.6-11,14c-4,1.1-6.3-1.5-23-13C337.4,176,332.6,173.1,328,166z"/>
<path class="st9" d="M861.5,108.5c-6.3,32.2,73.4,59.1,68,88c-4.2,22.7-56.3,22.4-59,47c-1.3,11.4,8.6,23.9,19,27
	c19.9,5.9,41.4-22.3,48-31c6.4-8.4,20-26.3,20-53c0-5.7,0-36.8-21-54c-19.1-15.7-43.3-9.7-51-27c-3.6-8-1.2-15.7-5-17
	C875.5,86.8,863.6,97.6,861.5,108.5z"/>
<path class="st9" d="M985.5,72.5c-6.8-2.5-23.4,26.2-32,52c-2.6,7.6-4.3,14.6-2,16c2.8,1.7,7.8-7,20-13c15.3-7.5,24-1.9,31-10
	c4.8-5.5,6.4-14.5,3-19c-2.6-3.5-6.4-1.8-11-5C985.7,87.3,990,74.1,985.5,72.5z"/>
<path class="st9" d="M963.5,186.5c1.6,15.7-1.9,14.5,0,24c5.3,27,35.5,48.3,61,49c5,0.1,14.4,0.4,19-6c3.5-4.8,3.5-12.4,0-17
	c-3.6-4.8-9.8-4.8-17-6c0,0-17.3-2.8-32-12c-27-16.8-11.1-78.5-26-82c-4-0.9-8.2,2.8-10,5C951.9,149.9,961.1,162.2,963.5,186.5z"/>
<path class="st9" d="M1254.5,248.5c5.7,8.7,19.9,11.5,28,7c16.8-9.4,12.3-52.8,0-57c-8.8-3-24.5,13.4-29,30
	C1252.2,233.2,1250,241.6,1254.5,248.5z"/>
<path class="st9" d="M1265.5,197.5c1.8,2,16.9-13.7,26-9c7.5,3.9,6.3,19,8,19c2.1-0.1-2.3-21.2,7-40c9.6-19.3,24.8-18.3,31-37
	c4.5-13.5,1.4-29.1-3-30c-4.4-0.9-8.8,12.9-19,31C1293.1,171.1,1263.1,194.9,1265.5,197.5z"/>
<path class="st9" d="M1351.5,105.5c-3,9.9,28.1,13.9,42,41c20.1,39.3-19.5,82.1,4,114c1.7,2.4,9.1,12.4,16,11
	c6.6-1.4,10.7-12.9,11-22c0.5-15.2-9.6-18.6-8-31c1.6-12.9,13.2-14.2,13-25c-0.2-10.2-10.5-11.3-17-27c-3.7-8.9-1.1-10.4-4-27
	c-3.3-18.8-5.2-29.4-13-36C1381.7,91.9,1354.2,96.6,1351.5,105.5z"/>
<path class="st10" d="M1321.5,163.5c-6.9,2.9-12.7,11-11,17c1.4,4.9,7.5,7,19,10c34.2,8.8,51.3,13.3,59,6c7.8-7.3,8.5-21.8,4-25
	c-5.4-3.8-15.2,10.9-29,8c-8.1-1.7-7.9-7.4-21-13C1335.8,163.6,1328.6,160.5,1321.5,163.5z"/>
<path class="st9" d="M700.5,385.5c-14.6,18.7-7.9,57.9,13,75c38.5,31.4,135.2-4.3,144-56c4.3-25.6-12.3-58.2-34-64
	c-17.8-4.8-25.9,12-71,27C719.4,378.5,709.3,374.3,700.5,385.5z"/>
<path class="st9" d="M726.5,479.5c-13.3,10.3-10.9,39.4,0,59c8.1,14.5,25,31.1,35,27c15.1-6.2,0-54.4,16-62
	c16.4-7.8,40.1,38.8,76,35c21.3-2.2,38.5-21.3,36-28c-1.5-4-15.3,2.5-36-3.3c-7.9-2.2-13.6-3.8-18-8.7c-10.9-12.3,1.1-29.6-7-36
	c-10.8-8.6-29.6,14.6-68,16C740.7,479.2,734.3,473.5,726.5,479.5z"/>
<path class="st9" d="M1393.5,391.5c-21,12.5-8.2,96.9,40,136c17.7,14.3,40.2,22.6,44,18c4.2-5.1-18.5-20.4-23-50
	c-3.8-25.1,9.6-33.2,6-53C1454.6,410.2,1409.7,381.8,1393.5,391.5z"/>
<path class="st9" d="M1483.5,523.5c2.9,6.5,8.8,9.2,8,16c-1.2,10.7-17.1,14.8-16,20c0.9,4,11.7,7.3,21,5c18.9-4.7,26.8-31.3,35-59
	c9.6-32.2,9.9-58.1,8-77c-1.2-12.3-4.5-32-8-32c-3.6,0-1.5,20.6-10,46C1507.1,485.7,1475.2,504.5,1483.5,523.5z"/>
<path class="st9" d="M1541.5,530.5c-0.1,5.5,4.8,11,10,13c17.2,6.7,49.6-20.1,63-49c23.8-51.4-9.5-115.2-19-114
	c-4.3,0.6-5.9,15.7-9,46c-5.1,50,1.8,62.7-10,77C1563.3,519.5,1541.7,519.2,1541.5,530.5z"/>
<path class="st11" d="M713,112c-4-7.9-10.8-18.3-22-27c-37.7-29.2-101.1-20.2-124,10c-6.6,8.8-12.1,22.3-9,25c2.4,2.1,8.9-2.9,21-9
	c0,0,8.1-4.1,33-13C638.8,88.4,690.5,104.3,713,112z"/>
<path class="st11" d="M577,123c9.9,3.5,9.6,44.9-3,50c-7,2.8-18.6-5.3-22-15C545.7,140,568.9,120.1,577,123z"/>
<path class="st11" d="M565,193c-15.3,10-13.6,35.8-4,50c6.3,9.3,18.3,17.2,24,14c4.4-2.5,1.5-9.7,4-24c3.8-22.2,14.8-28.4,11-36
	C595.8,188.5,576.7,185.3,565,193z"/>
<path class="st11" d="M595,170c-2.8,3.5-1.8,9.4,0,13c13.4,26.3,116.3,12.7,121-12c0.9-4.9-1.8-11-6-13c-8.8-4.3-18,12.1-36,19
	C640.3,189.9,604.2,158.3,595,170z"/>
<path class="st11" d="M597,250c-4.8,5.9,1.4,23.4,13,32c39.5,29.4,146.1-39.9,142-51c-0.7-1.9-4.4-1.9-11-2
	c-42.9-0.4-57.2,28.2-92,30C620.4,260.5,603,242.6,597,250z"/>
<path class="st11" d="M550,410c11.3,1.1,25-3.5,28-12c4.5-12.5-15.7-29.3-19-32c-29.3-23.8-77.2-23.8-113-6
	c-10.5,5.2-39.3,19.5-47,49c-5.5,21,1.4,43.6,7,44c6.7,0.5,4.7-31.1,28-56c14.1-15,41.5-31.9,65-25C523.8,379.3,525.4,407.6,550,410
	z"/>
<path class="st11" d="M504,458c-6,7.5-2,23.4,4,25c7.2,1.9,11.4-18.4,30-24c7.8-2.4,20.3-2.8,27,4c10.1,10.3-0.6,29.1,8,35
	c5.6,3.8,16.3,0,22-6c13.4-14.2,6.2-48.7-10-56c-15-6.8-25.6,15.6-62,17C516,453.3,508.2,452.8,504,458z"/>
<path class="st11" d="M397,464c-3.7,4.2,4.3,22.7,15,24c14.5,1.8,27.7-28.7,25-31c-1.4-1.2-5.7,5.6-16,8
	C408.1,468,399.9,460.7,397,464z"/>
<path class="st11" d="M442,486c-11.2-2.9-27.1,5.8-29,16c-3.5,18.6,37.2,51.3,69,44c12.4-2.8,24.2-11.9,23-17
	c-1.3-5.9-18.6-0.3-35-11C452.8,506.7,455.1,489.5,442,486z"/>
<path class="st11" d="M558,510c-8.4-3.3-14,6.6-28,8c-15.3,1.5-26-8.7-28-6c-2.8,3.9,21.2,21.6,17,31c-2.9,6.4-17,5.1-17,7
	c0,1.8,12.9,5.5,27,3c17.9-3.2,38.9-16.3,38-30C566.6,517.8,563.1,512,558,510z"/>
<path class="st12" d="M292,124c-4.2,2.4-3.1,11.8-2,21c1.3,11,3.7,12.9,2.5,19.5c-1.4,7.6-5.5,10-4,13c2.2,4.2,13.2,5.2,18,0
	c4.3-4.7,1.9-12.8,1-16c-2.6-9-7.7-9.6-8-16c-0.4-7.7,6.8-10.8,5-16C302.9,125,295.6,121.9,292,124z"/>
<path class="st12" d="M282.5,197.5c-4.5-1.5-14.3,18.6-15,20c-1.7,3.6-8.1,16.7-5,19c1.9,1.4,7.4-1,10-5c3.2-5,0.1-10,4-14
	c1.9-1.9,3.1-1.2,5-3C286.4,209.8,285.6,198.5,282.5,197.5z"/>
<path class="st12" d="M307.5,206.5c-5.7-4.4-22,2.1-27,14c-2.9,6.9-2.8,17.6,3,21c5.8,3.3,14.1-2.3,15-3
	C309.9,230.5,313.6,211.3,307.5,206.5z"/>
<path class="st12" d="M335.5,162.5c-1.5,4.2,16.5,16.9,20,14c2-1.6,0.1-9-5-13C344.8,159.1,336.4,160,335.5,162.5z"/>
<path class="st12" d="M387.5,168.5c0.9,1.2-11.3,14.6-16,12c-2.8-1.5-2.7-8.5,0-13c1.4-2.3,3.9-4.5,5-4c1.4,0.7-0.9,5.3,1,7
	C380,172.7,386.9,167.6,387.5,168.5z"/>
<path class="st12" d="M424.5,180.5c-4-1.4-9.5,0.5-10,3c-0.6,3.1,6.6,8.6,14,9c7.8,0.5,14.4-4.7,14-6c-0.4-1.3-7.3,1.8-13-2
	C427,182.9,426.9,181.4,424.5,180.5z"/>
<path class="st12" d="M435.5,239.5c0.8,0.6,5.7-4,9-10c4.7-8.5,6.5-20.1,3-22c-1.6-0.9-4.4,0.3-6,2c-3.8,4,0.1,9.2-2,19
	C438,235.3,434.8,239,435.5,239.5z"/>
<path class="st12" d="M386.5,76.5c-4.7,2.7-2.4,14.1-2,16c2.2,10.8,10.7,23.3,18,22c5.5-1,9.5-9.8,9-17
	C410.6,83.5,392.5,73,386.5,76.5z"/>
<path class="st12" d="M870.5,106.5c-2.7,1-3.9,9.2-1,16c4.3,10,14.4,9.7,34,21c17.5,10.1,23,18.1,26,16c3.6-2.6,0.5-17.9-9-24
	c-7.3-4.7-12.1,0.1-22-3C880.6,127,875.3,104.8,870.5,106.5z"/>
<path class="st12" d="M894.5,234.5c-0.8,0.8-12.2,12.1-9,18c3.7,6.9,27.7,7.7,35-5c4.1-7.1,3-18.4-3-22
	C909.2,220.5,895.8,233.2,894.5,234.5z"/>
<path class="st12" d="M975.5,95.5c-3.6,1.2-2.6,7.6-6,17c-4.8,13.4-13.2,18.6-12,20c1.5,1.7,14.8-5.8,23-18c5.5-8.2,4.4-12,4-13
	C983.1,97.7,978.5,94.5,975.5,95.5z"/>
<path class="st12" d="M962.5,146.5c-0.6,0.3,1.7,5.8,4,16c5.1,23.1,2.7,38.9,4,39c1.2,0.1,5.1-13.1,3-28
	C971.3,158.2,963.5,146.1,962.5,146.5z"/>
<path class="st12" d="M972.5,217.5c-1.7,3.8,17.8,18.7,21,16c1.8-1.5-0.8-9.8-7-14C981.1,215.8,973.5,215.4,972.5,217.5z"/>
<path class="st12" d="M1012.5,236.5c1.2,5.2-3.7,8.2-2,12c2.1,4.8,12.3,4.6,17,4c0.6-0.1,13.4-1.9,14-7c0.4-3.5-5.1-6.7-11-10
	c-14.2-8-28.5-10.5-29-9C1001.1,227.7,1010.9,229.7,1012.5,236.5z"/>
<path class="st12" d="M1259.5,223.5c1,2.2,4.3,3.4,7,3c6.5-1,9.2-11.6,11-11c1.4,0.5-0.9,6.7,2,9c2,1.6,5.9,0.9,8-1
	c4-3.6,2.8-12.5-2-16c-3.5-2.5-7.9-1.5-10-1C1265.7,208.8,1257.5,218.8,1259.5,223.5z"/>
<path class="st12" d="M1266.5,237.5c-0.2,0.8-1,5.4,2,8c3.7,3.2,9.5,0.2,10,0c2.7-1.4,7.2-5.3,6-10c-1-4.2-5.8-6.6-10-6
	C1270,230.1,1267.2,234,1266.5,237.5z"/>
<path class="st12" d="M1320.5,171.5c-1.9,0.2-4,5.9-2,10c2.4,4.9,9.9,6.4,13,4c2.9-2.3,1.4-7.7,3-8c2-0.4,4.2,8.2,7,8
	c1.9-0.2,3.9-4.4,3-8c-0.1-0.3-1-4.1-4-5c-3.7-1.2-6.5,3.2-9,2c-3-1.4-2.1-8.9-3-9c-1-0.1-1.6,8.7-4,9
	C1322.9,174.7,1322,171.3,1320.5,171.5z"/>
<path class="st12" d="M1356.5,185.5c-1.2,1.7,0.8,6.1,4,8c4,2.5,8.8,0.5,10,0c4.4-1.8,4.5-4.3,11-10c4.8-4.1,7.3-5.1,7-6
	c-0.5-1.4-7.5-1.4-13,2c-3.5,2.1-3,3.6-6,5C1363.5,187.4,1358.1,183.3,1356.5,185.5z"/>
<path class="st12" d="M1351.5,179.5c-2.7,1.4-3.3,4.9-3,7c0.3,2.6,2,5.2,3,5c1.6-0.4-0.4-7.9,3-10c2.1-1.3,4.9,0.3,5,0
	C1359.6,181.1,1355.2,177.6,1351.5,179.5z"/>
<path class="st12" d="M1331.5,115.5c-4,1.9-3.5,6.7-7,15c-3.3,7.8-6.9,11.2-6,12c0.9,0.9,5.8-1.8,9-6c2.8-3.7,1.7-5.2,5-12
	c2.6-5.3,5-7.7,4-9C1335.7,114.5,1333.3,114.6,1331.5,115.5z"/>
<path class="st12" d="M1283.5,181.5c-0.1,0.7,4.9,3,9,1c0.8-0.4,3.8-2,4-5c0.2-3.6-3.8-6.6-5-6c-1.3,0.6,1.3,5.2-1,8
	C1288.3,182.1,1283.6,180.8,1283.5,181.5z"/>
<path class="st12" d="M1302.5,157.5c-1.7,2.8-3.1,7.2-2,8c1,0.7,3.7-1.7,4-2c4.8-4.3,3.1-8.8,7-12c3.5-2.9,7.7-1.4,8-3
	c0.3-1.6-3.4-4.8-7-4c-2.1,0.4-1.5,3.5-5,7c-0.6,0.6-1.1,1-2,2C1305,154.1,1303.6,155.7,1302.5,157.5z"/>
<path class="st12" d="M1363.5,106.5c-0.8,2.1,4.5,4.7,14,14c1.4,1.4,10.9,10.7,17,20c11.3,17.2,11.1,34.2,12,34
	c0.9-0.2-0.7-16.3-5-35c-5.1-22.3-9.1-26.7-12-29C1379.8,102.7,1364.8,103.2,1363.5,106.5z"/>
<path class="st12" d="M1412.5,188.5c-4.2,0.3-9.6,3.2-10,8c-0.3,4.3,3.5,7.8,7,9c6.4,2.2,14.8-2.8,15-8
	C1424.6,192.9,1418.4,188.1,1412.5,188.5z"/>
<path class="st12" d="M1398.5,227.5c-0.5,0.5-1.7,2-1,9c0.7,7.1,1.1,12,4,13c2.2,0.7,5.5-0.9,6-3c0.7-2.9-4.4-4.4-5-9
	c-0.7-5.3,5.4-8.9,4-11C1405.5,224.9,1400.8,225.1,1398.5,227.5z"/>
<path class="st12" d="M1410.5,240.5c-0.8,1,4.4,3.7,5,9c0.8,6.9-6.6,11.7-5,14c1.1,1.5,5.3,0.9,8-1c4.8-3.3,5.9-10.9,3-16
	C1418.5,241.2,1411.3,239.4,1410.5,240.5z"/>
<path class="st12" d="M724.5,407.5c-6.4,4.6-5.7,22,3,32c11.8,13.5,34.9,9.4,48,7c19.3-3.5,59.5-16.3,61-40c0.8-12.2-8.7-26.3-18-27
	c-11.2-0.9-13.6,18.3-36,28c-13.6,5.9-27.4,5.1-29,5C736.7,411.4,729.9,403.7,724.5,407.5z"/>
<path class="st12" d="M745.5,388.5c0.6,8.4,8.5,12.7,9,13c11,5.9,27-2,31-12c1.4-3.5,1.6-8.1,0-9c-2-1.1-4.9,4.2-10,4
	c-2.9-0.1-3.6-1.9-10-6c-5.6-3.6-8.4-5.4-11-5C749.4,374.3,745,381.7,745.5,388.5z"/>
<path class="st12" d="M743.5,495.5c-4.6,7-8.9,13.6-6,19c3.7,6.7,16.3,7.8,19,4c2.9-4.1-6.5-13.1-3-18c2.3-3.2,7.8-1.2,9-4
	c1.3-3.1-3.7-10-9-10C749.5,486.5,746.8,490.5,743.5,495.5z"/>
<path class="st12" d="M797.5,482.5c1.8-5.1,8.9-7.1,14-5c5.8,2.4,9.1,10.4,6,15c-2.7,4.1-9.5,4.5-14,2
	C799.5,492.3,795.8,487.2,797.5,482.5z"/>
<path class="st12" d="M838.5,519.5c4.6,7.1,17.6,5.7,24,4c4.4-1.2,12.3-4.2,12-7c-0.3-3.1-10.2-6.7-18-4c-4.5,1.6-5.7,4.4-9,4
	c-5.2-0.7-7.1-8.5-9-8C836.9,509,835.7,515.2,838.5,519.5z"/>
<path class="st12" d="M733.5,532.5c-2,1.9-1.9,6.3,0,8c2.6,2.4,6.9-1.9,11,0c6,2.8,3.9,15.2,8,16c2.1,0.4,4.9-2.5,6-5
	c2-4.5-1.2-7.8,1-11c1.8-2.5,4.5-1.5,6-4c2-3.2-0.1-8.8-2-9c-2-0.2-2.6,5.5-7,7c-1.9,0.6-3.1,0-7-1C742,531.6,736,530,733.5,532.5z"
	/>
<path class="st12" d="M1396.5,440.5c-3.9-6.9-4.4-16.3,0-24c3.4-6,10.7-12.7,19-12c7.3,0.6,11.6,6.6,19,17c4.8,6.8,11.8,16.6,9,20
	c-2.8,3.4-15.5,0.8-22-7c-6.2-7.4-3.9-15.9-8-17c-3.6-0.9-9.6,4.7-11,11c-2.4,10.7,8.8,20.4,7,22
	C1408.2,451.7,1400.6,447.6,1396.5,440.5z"/>
<path class="st12" d="M1428.5,451.5c-1.4,0.2,2.2,11.1-2,23c-3.2,9-8.5,11.8-7,17c1.3,4.4,6.9,8.2,10,7c5.8-2.3-0.1-20.8,9-27
	c1.5-1,4-2.1,6-5c0.9-1.4,3.3-4.7,2-8c-1.4-3.6-6.5-5.5-9-4c-2.9,1.7-1.7,7.8-3,8C1432.7,462.8,1430,451.3,1428.5,451.5z"/>
<path class="st12" d="M1436.5,510.5c0.1,1.4,0.6,6.8,9,15c3.2,3.1,10.4,9.3,12,8c1-0.9-0.6-4.6-3-10c-2.2-5-2.7-4.9-4-8
	c-3.3-8.2-1.2-12.5-4-14c-2.5-1.3-7.1,0.8-9,4C1437.1,506.2,1436.4,507.7,1436.5,510.5z"/>
<path class="st12" d="M1514.5,476.5c-3-1.2-12.8,11.7-17,27c-1.6,5.9-3.5,15.9-1,17c1.8,0.8,5.8-3.2,8-7c3.3-5.8,1.2-9.3,5-14
	c0.8-1,2.5-2.3,6-5c6.1-4.7,6.7-4.2,8-6c0.7-0.9,2-2.9,2-14c0-6-0.4-13-1-13c-0.5,0-0.3,6-3,14c-1.3,3.9-3.6,9.3-5,9
	C1515,484.2,1516.5,477.3,1514.5,476.5z"/>
<path class="st12" d="M1529.5,431.5c-3.7-0.2-10.1,11.7-6,19c2.2,3.8,7.2,6.3,9,5c1.4-1-0.3-3.4,0-10c0.3-5.4,1.6-7.8,0-11
	C1532.1,433.7,1531,431.6,1529.5,431.5z"/>
<path class="st12" d="M1506.5,530.5c-1,4.2-3.8,15.3-12,23c-4,3.8-7.4,4.9-7,6c0.5,1.5,7.6,1.7,12-2c1.4-1.2,2.3-2.6,5-10
	c3.2-8.7,2.4-8.4,4-12c3.8-8.9,8.4-11.5,7-15c-0.8-2-3.3-3.5-5-3C1507.9,518.2,1508.4,523,1506.5,530.5z"/>
<path class="st12" d="M1560.5,520.5c-5.1,2.1-10.7,7.9-9,13c1.6,5,9.5,7,15,5c6.8-2.5,10.9-11.4,8-16
	C1572.1,518.7,1565.1,518.6,1560.5,520.5z"/>
<path class="st12" d="M1585.5,511.5c-1.2-5.6-2-9.4,0-13c0.9-1.7,3.1-4.4,5-4c3.1,0.6,2.4,8.5,5,9c2.3,0.4,6.6-5,6-10
	c-0.4-3.5-2.9-4.1-7-11c-2.6-4.3-4.1-7-3-9c1.3-2.5,5.8-3.1,9-2c4.7,1.5,6.5,6.5,7,8c0.5,1.4,1.6,5.1-2,18c-2.6,9.1-4.5,15.6-8,16
	c-3,0.3-5-3.9-7-3c-2.5,1.1-1,8.8-2,9C1587.8,519.6,1586.4,515.5,1585.5,511.5z"/>
<path class="st12" d="M1588.5,454.5c1.5,2.2,4.7,2.5,11,3c7,0.6,10.6,0.9,12-1c2.4-3.2-0.8-10.9-6-15c-4.3-3.4-7.2-2.1-9-5
	c-3.5-5.5,3.9-14.6,2-16c-1.2-0.9-5.7,1.7-8,6c-2.6,4.9,0.1,7.5-1,17C1588.7,450.2,1586.9,452.2,1588.5,454.5z"/>
<path class="st12" d="M1597.5,402.5c-2.4,2.4,7.4,10.4,6,22c-0.6,4.8-2.8,7.6-1,10c1.8,2.4,6.6,3,9,1c2.1-1.8,1.5-6.2,0-15
	c-1.9-11.8-3.8-13.9-5-15C1603.6,402.9,1598.9,401.1,1597.5,402.5z"/>
<path class="st13" d="M728.7,942.6c-19.4,7.4-37.3,41.6-33.8,64.5c9.3,60,169.7,64.2,179.1,33.4c1.7-5.5-1.7-11.1-4.5-16
	c-18.8-31.9-58.8-2.8-82.8-31.7c-11-13.2-6.1-23.6-20.5-37.5C762.7,952,746.2,936,728.7,942.6z"/>
<path class="st14" d="M849.3,1027.6c-1.4-6.6-12-7.3-22.4-7.9c-12.5-0.8-15.4,2.2-22.2-1.1c-7.9-3.9-9.3-10.3-13-8.9
	c-5.3,2.1-9.9,17.6-5.7,25.7c3.8,7.3,13.4,5.9,17.2,5.3c10.8-1.6,13-8.7,20.1-7.6c8.6,1.3,9.7,12.3,16,11
	C844.8,1043,850.4,1033.3,849.3,1027.6z"/>
<path class="st14" d="M771.6,996.3c3-6-15.9-25-17.2-26.3c-3.4-3.3-15.8-15.6-19.3-11.7c-2.1,2.3-1.3,10.9,2.3,15.5
	c4.5,5.8,11,2.6,14.1,9.1c1.5,3.2,0.3,4.7,1.7,7.9C756.8,998.9,769.5,1000.4,771.6,996.3z"/>
<path class="st14" d="M753.8,1029.9c6.7-7.1,4.6-32-6.9-42c-6.7-5.8-18.5-8.3-24-0.8c-5.5,7.4-1.9,20.7-1.4,22.2
	C726.7,1027.4,746.7,1037.4,753.8,1029.9z"/>
<path class="st13" d="M1239.3,979c-6.9-18.4-37.4-37.4-58.4-36.1c-38.7,2.3-55,73.8-22.3,108c16.2,17,46.3,26.8,59.7,18.7
	c11-6.6,2.6-20.5,11.4-52.9C1236.1,993,1243.5,990,1239.3,979z"/>
<path class="st14" d="M1213.5,979c-0.5-6-13.1-15.6-23.8-16.8c-14.6-1.6-21.6,13-25.5,21.3c-5.8,12.2-14,40.7,2,55.1
	c8.3,7.4,22.3,10.5,26.7,6c5.4-5.4-7.1-17.7-4.3-35c1.7-10.6,8.2-17.4,8.9-18.2C1205.6,983.2,1213.9,984.1,1213.5,979z"/>
<path class="st14" d="M1217.9,1001c-6.2-4.5-12.6-2.8-13-2.7c-8.8,2.4-10.2,15.4-4.8,23.2c1.9,2.7,5,5.5,6.3,5.2
	c1.6-0.4-0.8-5,1.5-7.6c1.3-1.5,2.9-0.8,8.5-1.8c4.9-0.9,7.4-1.4,8.2-2.9C1226.2,1011.2,1222.9,1004.6,1217.9,1001z"/>
<path class="st13" d="M630,818.7c18.4-31.2-57.7-140.4-147.8-163.1c-33-8.3-68.1-5.1-69.7,3.9c-1.8,9.8,38.4,16.3,65.1,54.5
	c22.7,32.5,10.9,52.6,29.6,77.7C537.6,832.8,615.8,842.8,630,818.7z"/>
<path class="st14" d="M591.6,752.5c9.9,7,17.2,19.7,16.9,33.4c-0.2,10.6-5,24.7-16.2,29.2c-9.9,4-19.7-1.6-36.6-11.2
	c-11.1-6.3-27-15.3-25.8-21.9c1.2-6.6,19.5-11.3,33.5-4.7c13.2,6.2,16.3,19.6,22.4,18.4c5.3-1.1,9.1-12.8,6.5-22.5
	c-4.4-16.5-25.8-22.6-24.6-26C568.5,744.6,581.3,745.3,591.6,752.5z"/>
<path class="st14" d="M542.3,758.2c1.7-1.3-10.7-14.1-13.6-33.3c-2.2-14.6,2.6-22-2.9-28.3c-4.8-5.4-14.7-7-17.9-3.2
	c-5.9,7,14.9,28.9,7.4,43.5c-1.2,2.4-3.7,5.5-4.2,10.9c-0.3,2.5-0.9,8.7,3.1,12.5c4.3,4.1,12.3,3.3,14.5-0.3
	c2.6-4.3-3.3-11.9-1.8-13.1C528.9,745.2,540.6,759.5,542.3,758.2z"/>
<path class="st14" d="M490.3,681.3c-1.1-1.9-5.5-9.1-22.3-15c-6.4-2.2-20.1-6.2-21.2-3.3c-0.7,1.9,4.1,6,10.9,12
	c6.4,5.5,7,5,10.8,8.5c10.1,9.2,10.4,16.6,15.1,16.9c4.2,0.2,8.7-5.7,8.8-11.5C492.6,687.7,492.5,685.1,490.3,681.3z"/>
<path class="st13" d="M796.6,986.1c18,24.6,55.1,4.3,76.9,26.4c16.5,16.7,4.7,37.8,25.7,54.4c7.9,6.2,21,12.3,27.9,7.6
	c9.1-6.1,5.4-28.7-2-43.5c-6.3-12.6-15.7-19.6-34.6-33.4c-1.9-1.4-28.2-20.4-49-24c-8.5-1.5-12.8-2.2-18-1c-2.8,0.7-6,1.9-10.7,1.6
	c-1.1-0.1-4,0-8.1-1.8c-7.4-3.3-12-9.3-14.6-8.2C788,964.9,790,977.2,796.6,986.1z"/>
<path class="st14" d="M799,980.4c-0.5,2,5.1,7.8,11.3,10.6c9.2,4.2,13.3-1,30-3.7c14.9-2.4,23.2,0,22.9-2.9
	c-0.3-3.4-12.8-11.5-21.4-10.7c-6.6,0.7-5.2,6.1-11.7,9.1C818.3,988.2,799.8,976.9,799,980.4z"/>
<path class="st14" d="M902.9,1049.2c0.2,0.9,3.6,13.7,9.3,15.9c6.6,2.5,17.6-8.9,11.4-20.6c-3.4-6.5-12.2-13.1-17.4-12.4
	C899,1033,902.6,1047.7,902.9,1049.2z"/>
<path class="st4" d="M1801,377"/>
<path class="st4" d="M1373.2,573c-4.7,4.4-14.9,6.8-23.2,4.3c-5.3-1.6-9.9-5.1-11.1-9.3c-1.5-5.5,3.6-9.1,10.1-18
	c6.7-9,10.4-14.1,11.1-20.1c1.6-14.2-15.8-17.9-14.1-32.4c0.7-5.7,3.3-4.6,9.1-18.7c5.2-12.8,5.5-19.5,7.1-19.4
	c2.1,0.1,6.1,12.3,2,25.2c-3,9.7-7.8,10.9-7.1,17.3c1,8.6,10.1,9.4,15.1,19.4c4.2,8.3-1,9.7,0,25.9
	C1373.2,563.1,1378.7,567.8,1373.2,573z"/>
<path class="st4" d="M1359,563.3c-5.3-5.9,0.4-12,5-25.2c9.4-26.5-2.7-32.3,8.1-57.5c5.7-13.4,14.8-25,17.1-24.4
	c2.1,0.5-1.8,11.3-5,28.8c-2.5,13.3-4.3,23.3-4,33.8c0.7,30.1,18.3,43.7,9.1,49.6C1382.4,572.8,1365.1,570,1359,563.3z"/>
<path class="st4" d="M1355.9,505.8c-0.2-1.7-0.2-1.1-0.5-3.9c-0.7-5.7-1.8-14.2-1.5-24.9c0.1-2.7,0.2-5.5,0.6-9.5
	c0.8-7.3,2-10.5,1.4-10.6c-1.1-0.2-9.2,10.5-12.1,23.7c-4.2,18.9,6.9,21.9,3,41c-2,9.8-5.5,12.3-8.1,27.3c-1.1,6.6-3.1,18.4,1,19.4
	c3.1,0.7,8.9-4.8,12.1-9.3c4.8-6.8,2.3-9.3,4-31.6C1356.3,522.1,1357,515.3,1355.9,505.8z"/>
<path class="st4" d="M1369,417.6c0.8,0.1-8.6,14.1-10.1,33.1c-5.1,65.4,89.8,112.4,72.6,128c-5,4.5-17.2,4.5-24.2,2.2
	c-13.3-4.5-12.5-18.9-18.2-36c-10.3-31.3-28.8-30.7-37.3-55.4C1339.3,453.1,1367.8,417.4,1369,417.6z"/>
<path class="st4" d="M1869,451.8c1.3,0.2-5,14.1-3,31c4.7,40.6,52.5,60.4,44.4,75.4c-2.9,5.4-11.9,7.8-18.2,7.1
	c-21.5-2.3-36.2-42.4-34.3-74.5C1859.1,469.7,1867.5,451.5,1869,451.8z"/>
<path class="st4" d="M122.3,541.7c1.7,0.4,4.9,0.9,10.1,0c14.6-2.4,29.4-13.2,30.3-24.4c0.7-9.8-9.7-12.2-17.1-24.4
	c-8.2-13.6-4.9-26.1,1-46.7c9.5-33.2,26.6-53,24.2-53.9c-2.2-0.8-19.3,15-31.3,36c-10.7,18.8-24.3,42.6-12.1,65.4
	c5.9,11,15.9,18.4,11.1,23.7c-5.8,6.5-25.7,0.9-30.3,7.2C104.6,529.3,111.8,539.4,122.3,541.7z"/>
<path class="st11" d="M1112.4,568.6c-10.9,3.4-21.6,13.1-21,22c0.8,13.3,25.9,20.8,30.1,21.9c36.3,10.3,80.3-8.5,106.2-38.9
	c7.6-8.9,28.5-33.4,23.9-63.5c-3.2-21.4-18.4-39.6-23.7-37.7c-6.4,2.2,8,30.4-3.7,62.5c-7,19.3-25.6,45.7-49.9,48.6
	C1148.6,586.5,1136,561.1,1112.4,568.6z"/>
<path class="st10" d="M1138,594.1c0-0.4,0.3-7.3-5.1-12c-3.6-3.1-7.6-3.2-12.3-3.4c-4.3-0.2-9.1-0.4-11.8,2.9
	c-1.8,2.1-2.7,5.7-1.3,7.1c2,2.1,7.4-2.6,10.8-0.3c1.3,0.9,1.9,3.8,3,9.6c0.9,4.9,0.8,5.9,1.8,6.8c2.4,2.1,7.3,1.1,10.4-1.2
	C1137.7,600.6,1138,595.3,1138,594.1z"/>
<path class="st10" d="M1163.2,599.6c2.3,0.8,4.8-0.8,5.9-1.4c8.7-5.3,13.3-2.4,21.9-7.2c5.2-2.9,3.7-4,14.3-14.8
	c9.7-9.9,11.9-9.9,18.5-17.7c6.1-7.2,11.3-15.6,10.4-16.4c-0.7-0.6-6.3,4.6-17.5,15.1c-6.9,6.5-10.4,9.7-13.8,13.5
	c-6.1,6.7-5.8,7.7-9.6,10.6c-2.3,1.8-8,6.3-16.2,8c-1.5,0.3-4.8,0.9-10,2.1c-5.3,1.2-6.9,1.8-7.4,3.1
	C1159.4,596.3,1161.1,598.9,1163.2,599.6z"/>
<path class="st10" d="M1244.7,510.4c-1.2-5-4-10-9.6-19.8c-1.4-2.5-2-3.4-2.5-3.3c-2.5,0.5-1.4,21.4,0.5,21.5c1,0.1,2-5.8,3-5.6
	c0.9,0.1,0.2,4.3,1.7,9.1c1.8,5.6,6,10.4,7.5,9.9C1247.3,521.3,1244.9,511.1,1244.7,510.4z"/>
<path class="st4" d="M208,538.8c-8.3,5.1-25.3,3.8-30.3-1.4c-5-5.2,4.8-11.7,6.1-26.6c0.9-10.4-2.9-18.4-5-23
	c-7.9-16.7-23.3-27.1-31.3-32.4c-12.7-8.4-15.1-6.7-22.2-12.9c-16.5-14.6-15.8-34.8-13.1-35.2c1.9-0.3,3.8,9.4,13.1,21.6
	c19.2,25.2,42.2,25,64.5,45.3C214.3,496.3,222.9,529.5,208,538.8z"/>
<path class="st4" d="M299.8,415.1c3.2,3.5,9.5,10.6,10.1,19.4c0.8,12-9.8,18.2-16.1,27.3c-21.8,31.5,26.5,69.9,7.1,82
	c-4.9,3.1-12.3,3.2-17.1,2.2c-21.1-4.7-33-42.4-18.2-71.9c10.9-21.6,29.4-25.6,28.2-43.1c-1.2-17.7-21-29.9-18.2-31.6
	C277.5,398.1,290.6,405.1,299.8,415.1z"/>
<path class="st4" d="M643.9,611.6c4.9,2.7,11.9-1.8,13.1-2.6c2.5-1.6,13.3-9.2,13-39c-0.5-52.2-34.2-69.2-25-100
	c6.6-22,29.3-32.2,28.2-33.5c-1.2-1.4-30.4,9.4-36.8,33.7c-5.7,21.5,8.1,31,10,68.4C648.5,578.5,633.8,606,643.9,611.6z"/>
<path class="st4" d="M594,557.3c9.1,4.1,29.3-1.9,35.3-11.5c6.4-10.2-8.1-16.3-17.1-39.5c-9.6-24.7,0.4-34.1-14.1-58.2
	c-5.2-8.6-12.3-17.1-14.1-16.5c-2.2,0.6,4.3,12.9,8.1,29.5c3.1,13.8,2.8,23.7,2,41.7C592.4,541.5,584.9,553.1,594,557.3z"/>
<path class="st4" d="M627.3,433c-2.9-2.5-18.1,9.6-28.2,24c-3.8,5.3-8.4,13.2-13.1,28.1c-6.1,19.2-18.2,57.6-4,68.8
	c8.4,6.6,25.3,3,29.2-5.2c3.9-8.3-7.6-16.2-12.1-31.3C587.7,479.6,632.4,437.4,627.3,433z"/>
<path class="st4" d="M586.7,463.3c3.1-1.5,15,5.4,24.6,14.7c34.9,34.1,27.5,89.9-1.1,100.9c-1.5,0.6-9.6,3.7-15,1.4
	c-7.6-3.2-6.2-15.1-3.1-22.9c3.8-9.3,10.6-13.6,14.6-18C628.9,515,579.3,466.8,586.7,463.3z"/>
<path class="st4" d="M103.1,453.9c2.7,3.6,7,10.1,12.1,35.2c8.2,40.1,2.3,47.8-3,51.8c-3.9,2.9-11,6.5-15.1,5
	c-7.4-2.6-0.1-19.2,2-34.5c6.2-44.4-31.2-77.1-24.2-79.8C79.2,430,94.3,442.1,103.1,453.9z"/>
<path class="st4" d="M165.6,481.3c0.1,0.3,0.1,0.2,0.4,0.8c3.5,6.6,9.4,19,12.7,33c3.6,15.3,7.4,31.3-1,34.5
	c-4.4,1.7-11.8-0.2-15.1-3.6c-6.3-6.4,4.7-15.4,7.1-27.3c2.3-11.8-8.9-12.9-18.2-37.4c-4.8-12.7-4.3-17.7-4-19.4
	c2.1-14.9,16.3-26.1,19.2-25.2C170.4,437.9,154,458.7,165.6,481.3z"/>
<path class="st4" d="M237.3,446.2c3.3-3.8,32.3,4.7,52.4,23.8c22.7,21.5,35.1,57.1,18.2,78.2c-5.9,7.4-19,17.5-30.3,14.5
	c-8.3-2.2-14.7-11.3-13.1-18.7c2.6-11.9,24.3-10.7,30.3-21.3C307.6,500.1,231.3,453,237.3,446.2z"/>
<path class="st4" d="M241.3,543.1c-8.9,2.3-21.3-3.1-27.2-9.3c-18.1-19.3,27.5-45.3,12.1-78.4c-5.1-10.9-15.9-20.7-12.1-23
	c2.7-1.6,11.3,1.1,17.1,5c22.4,15,12.9,53.3,11.1,60.4c-1.3,5.4-3.4,11.2,0,18c3.6,7.3,10.1,9.1,10.1,15.1
	C252.3,535.9,247.7,541.5,241.3,543.1z"/>
<path class="st4" d="M1328.6,591.9c-15.7-4.4-6.4-34.9-11.3-99.9c-1.7-22.6-3.3-24.7-3.1-40.1c0.3-25.3,0.8-66.4,28.8-76.5
	c8-2.9,19.3-3.5,20.6-1.5c1.4,2.3-11,6.3-18.5,12.9c-28.6,24.9-18.2,110.7,3.9,163.3c3.1,7.3,10.6,24,3.3,34.3
	C1347.6,591,1336.8,594.1,1328.6,591.9z"/>
<path class="st4" d="M1673.2,611.7c37.5,1.7,103.1-123,52.4-159.6c-8.7-6.3-24.4-12.5-28.2-10.1c-4.9,3.2,14.9,17.3,23.2,39.5
	c9.4,25.1,4.6,61.9-25.2,81.3c-19.8,12.8-40.8,11.6-44.4,23C1647.7,596.2,1660.6,611.2,1673.2,611.7z"/>
<path class="st4" d="M1796.4,488.5c3.4-3.1,38.8,5.1,54.5,24.4c27.7,34.3-14.7,93.9-41.3,93.5c-10.9-0.2-22.4-10.5-20.2-16.5
	c2.7-7.2,23.1-3.3,36.3-12.9c17.9-13.1,9.1-41.4-1-57.5C1812.3,499.5,1793.7,491,1796.4,488.5z"/>
<path class="st4" d="M1776.2,534.5c-5.4,3.6-15.2,7.4-20.2,5c-7.3-3.5,4-16.4,5-36.7c1.2-24.4-14-28.4-14.1-54.6
	c-0.1-20.9,9.5-37.6,12.1-37.4c3.1,0.3-8.4,24.4,5,52.5c8,16.7,17.3,19.2,21.2,36.7C1786.9,507.1,1790.8,524.7,1776.2,534.5z"/>
<path class="st4" d="M1797.4,538.1c1.7,1.7,9.5,9.1,6.1,14.4c-3.6,5.4-17.9,6.4-23.2,5.8c-41.6-5.4-36.2-183.8-28.2-184.1
	C1759,373.9,1770.8,511.3,1797.4,538.1z"/>
<path class="st4" d="M981.5,388.5c-5.1-0.8-35.7,46.8-30.3,106.4c2.3,25.5,12.9,72.5,36.3,74.8c8.8,0.9,19.1-4.6,22.2-10.8
	c5.8-11.6-13.7-25.8-21.2-32.4C937.3,481.6,988.5,389.6,981.5,388.5z"/>
<path class="st4" d="M982.5,407.9c5.6-0.8,28.3,32.3,25.2,71.2c-2.2,27.5-16.3,45.1-42.4,77.7c-13.7,17.1-25.7,28-44.4,31.6
	c-10.6,2.1-25.4,2.2-28.2-2.2c-3.6-5.4,13.6-14.3,34.3-30.9c0,0,19.8-15.9,40.3-40.3C1006.8,468.3,975.1,409,982.5,407.9z"/>
<path class="st4" d="M1647.1,401.5c14.6,55.5,24.9,71.1,28.2,115.1c1.4,17.8,0.8,30.2-11.1,38.8c-11.3,8.2-31.1,11.5-36.3,7.2
	c-4.9-4.1,4.9-13.5,12.1-25.2c17-27.6,10.7-54.9,6.1-75.5c-6.7-29.4-22.2-46.7-16.1-74.1c0.6-2.9,2.7-12.1,6.1-12.2
	C1640.5,375.5,1644.5,391.4,1647.1,401.5z"/>
<path class="st4" d="M1028.8,547.8c7,43.3-33.4,88.4-55.4,86.5c-9.6-0.8-17.9-10.7-18.5-18.7c-0.5-7.4,5.7-12.9,12.7-19.5
	c0,0,18.4-17.4,32.3-33.5c28.7-33.3-79-107.8-71.5-112.3c4.2-2.5,45.2,18,73.8,50.7C1012.9,513.3,1025.5,527.7,1028.8,547.8z"/>
<path class="st4" d="M1621.9,424.5c46.9,40.7,38,115,13.1,120.1c-5.4,1.1-11.7-1-15.1-3.6c-10.7-8.1,2.2-24.2,7.1-41
	c12.7-43.5-31.6-82.3-23.2-85.6C1608.2,412.7,1620.6,423.4,1621.9,424.5z"/>
<path class="st4" d="M189.9,374.1c6.8-0.9,70.6,170.6,38.3,179.8c-5.2,1.5-11.5-1.6-14.1-2.9c-23-11.1-12.7-43.7-10.1-77.7
	C208.6,412.4,186.6,374.6,189.9,374.1z"/>
<path class="st4" d="M81.9,410.8c3.2-1.1,106.7,115.4,72.6,138.8c-6.6,4.5-19.1,6.1-25.2,2.9c-12.2-6.4,7.4-28-2-59
	c-1.2-3.9-1.8-4.4-13.1-24.4C92.3,430.4,81.3,411,81.9,410.8z"/>
<path class="st4" d="M1635.3,420.8c-6.6,0.1-12.9,52.5-3,107.1c5.6,31.1,13,72.2,40.3,76.9c16.1,2.8,38.6-7.3,38.3-14.4
	c-0.2-4.8-10.7-7-19.2-10.8c-27.6-12.5-28.4-41-36.3-84.1C1650.9,470.9,1641.7,420.7,1635.3,420.8z"/>
<path class="st4" d="M48.7,555.3c-5.2,3.3-17,2.7-24.2-1.4c-17.3-9.9,4.7-33.2,0-74.8c-3-26.7-15.2-44.9-11.1-46
	c3.6-1,14.7,12.5,21.2,23c2.5,4.1,9.1,15.5,12.1,33.1c3.6,20.9-2.8,21,1,41.7C50.2,544.5,54.3,551.7,48.7,555.3z"/>
<path class="st4" d="M36.6,413c-4.2-1.3-40.4,30.7-43.4,72.6c-2.6,36.4,20.2,75.9,37.3,75.5c13.4-0.3,26.5-25.2,19.2-30.2
	c-5-3.3-15.9,4.6-25.2,1.4c-16.7-5.6-9.9-40.1-6.1-59C26.5,434,39.7,413.9,36.6,413z"/>
<path class="st4" d="M128.4,458c1.3,0.2-5,14.1-3,31c4.7,40.6,52.5,60.4,44.4,75.4c-2.9,5.4-11.9,7.8-18.2,7.1
	c-21.5-2.3-36.2-42.4-34.3-74.5C118.6,475.9,127,457.8,128.4,458z"/>
<path class="st4" d="M269.3,500.5c-6.6,9.8-9.5,10.9-11.1,17.3c-2.3,9.5,2.7,13.1-1,23c-0.7,1.9-4.6,12.5-12.1,12.9
	c-4.2,0.3-7.8-2.8-11.1-5.8c-2.4-2.1-13-11.5-11.1-21.6c1.9-10,14.9-15.7,21.2-19.4c14.7-8.6,29.1-27.1,25.2-71.2
	c14.8,16,14.9,28.6,14.1,34.5C281.9,481.8,273.7,493.9,269.3,500.5z"/>
<path class="st4" d="M234,506.2c-0.2,1.3-0.9,5.1,1,5.8c3.4,1.1,13.5-8.4,19.2-15.8c15-19.9,10.5-42.3,8.1-42.4
	c-2.4-0.2,2.8,20.8-15.1,35.2C243.9,491.6,235.6,497.4,234,506.2z"/>
<path class="st4" d="M213.8,461.6c-1.3,0.2,5,14.1,3,31c-4.7,40.6-52.5,60.4-44.4,75.4c2.9,5.4,11.9,7.8,18.2,7.1
	c21.5-2.3,36.2-42.4,34.3-74.5C223.7,479.5,215.3,461.4,213.8,461.6z"/>
<path class="st4" d="M1905.6,567.2c15.7-4.4,6.4-34.9,11.3-99.9c1.7-22.6,3.3-24.7,3.1-40.1c-0.3-25.3-0.8-66.4-28.8-76.5
	c-8-2.9-19.3-3.5-20.6-1.5c-1.5,2.4,11.8,7.9,18.5,12.9c26.1,19.2,2.7,66.6-16.5,152.2c-2.7,12-7,33,9.3,45.4
	C1883,560.4,1895.7,570,1905.6,567.2z"/>
<path class="st4" d="M1214.9,537.5c-2.7-1.4-12.9,5.2-21.1,14.1c-29.9,32.5-23.5,85.7,0.9,96.3c1.3,0.6,8.2,3.5,12.9,1.3
	c6.5-3,5.3-14.5,2.6-21.9c-3.3-8.9-9.1-13-12.5-17.1C1178.8,586.8,1221.3,540.8,1214.9,537.5z"/>
<path class="st4" d="M333.5,492.5c-3-2.9-33.3,4.9-46.7,23.3c-23.7,32.7,12.6,89.5,35.4,89.2c9.4-0.2,19.2-10,17.3-15.8
	c-2.3-6.9-19.8-3.2-31.1-12.3c-15.4-12.5-7.8-39.4,0.9-54.9C319.9,503,335.8,494.9,333.5,492.5z"/>
<path class="st4" d="M134.7,591.3c-1.4,1.6-8.2,8.7-5.2,13.7c3.1,5.2,15.4,6.1,19.9,5.5c35.6-5.2,31.1-175.3,24.2-175.6
	C167.5,434.7,157.5,565.7,134.7,591.3z"/>
<path class="st4" d="M1612.2,606.4c12.2-4.1,12.7-18.7,17.3-50.8c7.5-52.1,13-61,7.8-85c-3.5-16.1-10.5-33.3-13.8-32.9
	c-3.9,0.5,2.4,24.4-0.9,54.2c-6.8,62.9-49.7,98.1-32,111.8C1596.3,608.1,1606,608.5,1612.2,606.4z"/>
<path class="st4" d="M809.1,564.5c-6,41.3,28.6,84.3,47.5,82.6c8.2-0.8,15.4-10.2,15.8-17.8c0.4-7.1-4.9-12.3-10.9-18.6
	c0,0-15.8-16.6-27.7-32c-24.6-31.8,67.7-102.8,61.3-107.1c-3.6-2.4-38.8,17.1-63.3,48.3C822.7,531.5,811.9,545.3,809.1,564.5z"/>
<path class="st4" d="M285.1,482.9c-40.2,38.8-32.6,109.7-11.2,114.5c4.6,1,10-0.9,13-3.4c9.2-7.8-1.9-23.1-6.1-39.1
	c-10.8-41.5,27.1-78.5,19.9-81.6C296.9,471.7,286.2,481.9,285.1,482.9z"/>
<path class="st4" d="M1633.8,607.8c4.4,3.1,14.6,2.6,20.7-1.4c14.8-9.5-4-31.7,0-71.3c2.6-25.5,13-42.8,9.5-43.9
	c-3.1-0.9-12.6,11.9-18.2,21.9c-2.1,3.9-7.8,14.7-10.4,31.5c-3.1,19.9,2.4,20.1-0.9,39.8C1632.5,597.5,1628.9,604.3,1633.8,607.8z"
	/>
<path class="st4" d="M170.9,508.8c-1.5,0-3.6,18-0.9,36.4c0.9,6,1.8,8.7,3.5,8.9c2.8,0.4,8.3-5.8,8.6-12.3c0.3-6.7-5-8.5-8.6-18.5
	C170.3,514.4,171.7,508.8,170.9,508.8z"/>
<path class="st4" d="M1612.9,552c-5.7,9.4-8.2,10.4-9.5,16.5c-2,9.1,2.3,12.5-0.9,21.9c-0.6,1.8-4,11.9-10.4,12.3
	c-3.6,0.3-6.7-2.7-9.5-5.5c-2.1-2-11.1-10.9-9.5-20.6c1.6-9.5,12.8-15,18.2-18.5c12.6-8.2,24.9-25.9,21.6-67.9
	c12.7,15.2,12.8,27.3,12.1,32.9C1623.8,534.2,1616.7,545.7,1612.9,552z"/>
<path class="st4" d="M41.9,619.1c-13.5-4.2-5.5-33.3-9.7-95.3c-1.5-21.5-2.8-23.6-2.6-38.3c0.3-24.2,0.7-63.4,24.7-72.9
	c6.9-2.8,16.5-3.4,17.6-1.4c1.3,2.3-10.1,7.5-15.9,12.3c-22.4,18.3-2.3,63.5,14.1,145.1c2.3,11.5,6,31.5-7.9,43.3
	C61.3,612.6,50.4,621.7,41.9,619.1z"/>
<path class="st4" d="M519.3,557.3c2.7-1,13,3.7,21.2,10.1c30.2,23.4,23.7,61.7-0.9,69.2c-1.3,0.4-8.3,2.5-13,1
	c-6.6-2.2-5.4-10.4-2.6-15.7c3.3-6.4,9.2-9.4,12.6-12.3C555.8,592.8,512.9,559.7,519.3,557.3z"/>
<path class="st4" d="M106.2,541.9c2.3,2.5,6,7,10.5,24.2c7.1,27.5,2,32.8-2.6,35.5c-3.4,2-9.5,4.5-13.1,3.5
	c-6.4-1.8-0.1-13.2,1.7-23.7c5.3-30.5-27-52.9-20.9-54.7C85.6,525.4,98.6,533.8,106.2,541.9z"/>
<path class="st4" d="M1563,595.6c1.5,1.2,8.3,6.2,5.2,9.9c-3.1,3.7-15.5,4.4-20.1,3.9c-35.9-3.7-31.3-126.1-24.4-126.3
	C1529.8,483,1540,577.2,1563,595.6z"/>
<path class="st4" d="M876.6,520c-4.4-0.6-30.8,32.1-26.2,73c2,17.5,11.2,49.7,31.4,51.3c7.6,0.6,16.5-3.1,19.2-7.4
	c5-8-11.8-17.7-18.3-22.2C838.4,583.8,882.7,520.8,876.6,520z"/>
<path class="st4" d="M864.5,523.3c4.9-0.5,24.5,22.2,21.8,48.8c-1.9,18.9-14.1,30.9-36.6,53.3c-11.8,11.7-22.2,19.2-38.4,21.7
	c-9.2,1.4-21.9,1.5-24.4-1.5c-3.1-3.7,11.7-9.8,29.6-21.2c0,0,17.1-10.9,34.9-27.6C885.5,564.7,858.1,524,864.5,523.3z"/>
<path class="st4" d="M952.9,589.2c6,29.7-28.9,60.6-47.9,59.4c-8.3-0.5-15.5-7.3-16-12.8c-0.4-5.1,4.9-8.8,11-13.4
	c0,0,15.9-11.9,27.9-23c24.8-22.9-68.3-73.9-61.8-77c3.7-1.7,39.1,12.3,63.8,34.8C939.2,565.5,950.1,575.4,952.9,589.2z"/>
<path class="st4" d="M1419.3,521.7c40.6,27.9,32.9,78.9,11.3,82.4c-4.6,0.7-10.1-0.7-13.1-2.5c-9.3-5.6,1.9-16.6,6.1-28.1
	c10.9-29.8-27.3-56.4-20.1-58.7C1407.4,513.6,1418.2,520.9,1419.3,521.7z"/>
<path class="st4" d="M1360.9,520c-5.7,0.1-11.1,36-2.6,73.5c4.9,21.3,11.3,49.6,34.9,52.8c13.9,1.9,33.4-5,33.1-9.9
	c-0.2-3.3-9.3-4.8-16.6-7.4c-23.8-8.6-24.6-28.1-31.4-57.7C1374.4,554.3,1366.5,519.9,1360.9,520z"/>
<path class="st4" d="M128.1,544.7c1.1,0.2-4.3,9.7-2.6,21.3c4.1,27.9,45.4,41.4,38.4,51.7c-2.5,3.7-10.3,5.3-15.7,4.9
	c-18.6-1.6-31.3-29.1-29.6-51.1C119.6,557,126.9,544.5,128.1,544.7z"/>
<path d="M1920,655H0v-10.6c62.9-1.5,114.6-2.3,150-2.7c203.7-2.6,374.4-0.4,435,0.5c36.9,0.6,45.5,0.8,71,1
	c109.5,0.6,147.1-3.4,240-5c122.9-2.1,129.7,3.7,258,1c87.3-1.8,76.6-4.3,147-5.6c152.7-2.8,176.9,9.4,354,8.9
	c39.8-0.1,89.4-0.9,170,0.2c40.6,0.5,73.6,1.3,95,1.9C1920,647.9,1920,651.5,1920,655z"/>
<path class="st4" d="M201.9,547.2c-1.1,0.2,4.3,9.7,2.6,21.3c-4.1,27.9-45.4,41.4-38.4,51.7c2.5,3.7,10.3,5.3,15.7,4.9
	c18.6-1.6,31.3-29.1,29.6-51.1C210.5,559.4,203.2,547,201.9,547.2z"/>
<path class="st4" d="M1664.5,619.6c13.6-3,5.5-24,9.8-68.5c1.5-15.5,2.8-16.9,2.7-27.5c-0.3-17.4-0.7-45.6-24.9-52.4
	c-7-2-16.7-2.4-17.8-1c-1.3,1.7,10.2,5.4,16,8.8c22.6,13.2,2.3,45.7-14.2,104.4c-2.3,8.2-6,22.6,8,31.2
	C1645,614.9,1656,621.5,1664.5,619.6z"/>
<path class="st15" d="M1243.5,709.5c-10.8,4.4-22,9-28,20c-8.1,14.9-1,31.3,6,52c24.6,72.5,13.6,94.1,32,102
	c20.4,8.8,51.5-10.2,68-30c26-31.1,13.5-61,33-71c27.1-13.9,63.3,37.8,93,24c19.9-9.2,29.5-44.5,18-64c-14.3-24.1-59.4-21.7-87-12
	c-36.4,12.8-52.4,41.8-63,36c-11.8-6.4,7.3-42.6-10-59C1288.3,691.2,1248.7,707.4,1243.5,709.5z"/>
<path class="st15" d="M1423.5,974.5c2.4,18.6-35.7,53.7-72,44c-35.7-9.5-51.9-57.6-40-77c9.2-15,30.9-6,46-24
	c18.1-21.6,1.2-51.6,13-58c14.4-7.7,57.5,26.9,53,52c-2.8,15.6-22.7,19.8-22,34C1402.2,959.5,1421.9,962,1423.5,974.5z"/>
<path class="st15" d="M50.5,979.5c-8.5,0.7-22.8,35.4-7,58c14.3,20.4,47.1,22.2,66,8c12-9,21.4-26.7,16-35c-7.6-11.6-37.9,5.9-59-11
	C55.4,990.6,55.5,979.1,50.5,979.5z"/>
<path class="st13" d="M29.5,698.5c-9.8,9.2,34.6,59.5,16,85c-4.1,5.5-7.1,4.4-12,10c-23.3,26.5,2.9,98.6,20,98
	c7.4-0.2,13.6-20.5,26-61c14-45.6,20.8-68.8,14-87C80.6,709,37.3,691.1,29.5,698.5z"/>
<path class="st13" d="M490.5,986.5c-13.1,8.4-15.6,32-9,48c10.8,26.1,47.3,35.5,73,29c34.4-8.7,48.6-45.9,59-73
	c9.2-24,14.4-53.2,8-56c-9.3-4.1-26.9,54.5-68,61C524.9,1000.1,507.2,975.9,490.5,986.5z"/>
<path class="st13" d="M1839.5,1001.5c-8.4,8.3-28,27.7-22,42c6,14.4,33.9,14.1,41,14c11-0.1,32.8-0.4,44-16
	c14.5-20.3,4.5-57.1-15-64C1870,971.3,1850.3,990.8,1839.5,1001.5z"/>
<path class="st13" d="M1826.5,674.5c-6.1,2.2-8.8,27.3,5,41c12.4,12.4,33.7,11,47,2c9.3-6.3,21.2-20.7,16-34
	c-4.1-10.4-17.6-17.6-25-14c-10,4.8-4.2,27.3-12,30C1848.1,702.7,1834,671.8,1826.5,674.5z"/>
<path class="st15" d="M747.5,693.5c-26.2,12.6-53,42.8-45,61c4.9,11.1,23.1,18.1,35,13c18.5-8,14-41.9,25-44c15-2.8,29.2,59.4,47,58
	c14.4-1.1,33.1-44,16-72c-11-18-32.3-22.3-36-23C770.4,682.7,755.3,689.7,747.5,693.5z"/>
<path class="st15" d="M762.5,781.5c-14.6,7.1-14,18.1-24,21c-15.8,4.6-29.1-19.6-39-15c-8.6,4-9.7,27.2-1,44
	c8.5,16.4,24.4,22.7,43,30c15.5,6.1,42.6,16.8,52,6c6.3-7.3,3.1-22.5-3-32c-8.9-14-22-12.6-24-22c-3-14,23.4-27.8,20-34
	C784.4,775.7,772.1,776.8,762.5,781.5z"/>
<path class="st14" d="M59.5,719.5c3.9-1.3,16.9,17.7,19,40c1.3,13.9-1,36.1-12,40c-3.6,1.3-8.5,0.8-11-2c-4.5-5,0.9-14.9,4-26
	C67.6,742.5,55.4,720.8,59.5,719.5z"/>
<path class="st14" d="M45.5,825.5c-11.1,6.4-7.6,28.1-2,30c6.5,2.2,23.8-19.7,19-28C60,823.1,51,822.3,45.5,825.5z"/>
<path class="st14" d="M510.5,1013.5c-6.4,6.8-7,20.3-1,26c11.2,10.5,45.6-5.9,45-16C553.9,1014.1,522.6,1000.6,510.5,1013.5z"/>
<path class="st14" d="M1879.5,682.5c1.9-0.3,3.4,0.6,4,1c4.4,2.6,7.6,10.4,4,16c-3.8,5.9-13.2,6.4-16,3c-2.1-2.5-0.5-6.9,1-11
	C1873.6,688.5,1875.5,683.1,1879.5,682.5z"/>
<path class="st14" d="M1838.5,699.5c-1.1,0.5-0.7,9,5,14c3.4,3,9.6,5.6,13,3c1.9-1.4,3-4.5,2-6c-1.4-2-5.3,0.5-10-1
	C1841.6,707.4,1839.7,699,1838.5,699.5z"/>
<path class="st14" d="M1871.5,998.5c-10.5,4-19.3,7.4-22,16c-2.6,8.1,1,18.8,6,20c6.5,1.5,10.6-13.9,23-15c8-0.7,11.4,5.3,16,3
	c6.7-3.4,8.7-21,1-27C1890.1,991.3,1882.1,994.4,1871.5,998.5z"/>
<path class="st16" d="M722.5,727.5c5.9,0.5,12,17.2,7,22c-2.4,2.2-7,1.7-10,0c-4.5-2.6-5.6-8.2-5-12
	C715.2,732.5,719.1,727.2,722.5,727.5z"/>
<path class="st16" d="M748.5,705.5c-2.4,4.1-2.2,10.6,1,13c3.9,3,8.6-3,17-2c10.8,1.2,12.3,12.1,23,13c5.2,0.5,12.5-1.5,15-7
	c3-6.6-1.9-16-7-17c-5.2-1-8.1,6.9-14,6c-5-0.7-4.8-6.5-11-10C765.1,697.3,752.6,698.5,748.5,705.5z"/>
<path class="st16" d="M793.5,744.5c-2.1,5,3.4,11.3,4,12c2,2.2,6.8,6.4,10,5c3.1-1.4,0.9-6.5,4-14c3.8-9.2,10.7-10.5,10-16
	c-0.4-3.7-4.1-7.3-7-7c-3.9,0.3-3.3,7.4-10,13C799.2,742,795.1,740.7,793.5,744.5z"/>
<path class="st16" d="M759.5,784.5c-8.3,4.2-10.4,14.3-11,17c-1.3,6.3-0.8,13.6,1,14c2.1,0.4,2.6-9.6,11-16c6.2-4.7,11.9-3.9,13-8
	c0.8-2.9-1.3-6.5-4-8C765.7,781.4,761.3,783.6,759.5,784.5z"/>
<path class="st16" d="M707.5,807.5c-0.6,1.5-5,12,1,22c0.3,0.5,8,12.8,19,11c8-1.3,14.4-9.5,13-13c-1.4-3.5-9.8-0.5-17-7
	c-1.3-1.1-4.1-3.7-4-7c0.1-2.8,2.2-3.6,2-6c-0.3-3.4-5.2-7-9-6C709.8,802.2,708.5,805.2,707.5,807.5z"/>
<path class="st16" d="M760.5,834.5c-1.1,4.4-6.1,7-12,10c-6.1,3.1-8.4,3-9,5c-1,3.3,3.6,8.8,9,11c6.4,2.7,9.7-1,17,2
	c4.9,2,6.4,4.8,8,4c2.4-1.3,2.4-9.8-2-14c-4.7-4.5-12.8-2.6-13-4c-0.2-1.6,10.8-1.6,14-8c2-4,0.8-10.1-3-13c-2.8-2.1-7.3-2.8-9-1
	C758.9,828.3,761.5,830.7,760.5,834.5z"/>
<path class="st16" d="M1242.5,728.5c-2.5-2.1-10.6,1.9-15,8c-5.5,7.6-7.1,21.4,2,30c8.3,7.8,20.4,6.6,28,2c9.4-5.7,14.3-18.2,11-22
	c-4.5-5.2-23,7.7-28,2C1236.3,743.8,1246,731.4,1242.5,728.5z"/>
<path class="st16" d="M1269.5,723.5c-3.9,3.4-8.6,9.6-7,12c3.3,4.9,28.6-11.2,34-5c3.7,4.3-6.7,13.5-9,30c-3.3,23.7,12.5,47.1,17,46
	c3.5-0.8,2.7-16.9,2-30c-0.7-14-2.3-14.6-3-28c-1-20,2.3-24.7-2-29C1294.9,712.8,1278.8,715.4,1269.5,723.5z"/>
<path class="st16" d="M1253.5,801.5c-4.8,1.3,4.3,51.4,9,51c2.9-0.3,0.3-19.2,10-24c7-3.5,14.4,3.5,18,0c4.6-4.4-1.4-21.4-8-22
	c-5.3-0.5-7.5,9.9-14,10C1260.5,816.6,1256.2,800.8,1253.5,801.5z"/>
<path class="st16" d="M1377.5,752.5c-2.3,8.5,9.3,17.2,13,20c5.5,4.1,15.7,6.4,36,11c10.9,2.5,13.9,2.9,17,1c7.5-4.6,9.3-19.1,4-24
	c-3.5-3.3-7.7,0.1-24,0c-10.7-0.1-17.9-0.2-22-5c-4-4.7-1.4-9.6-5-12C1391.5,740.2,1379.5,745.1,1377.5,752.5z"/>
<path class="st16" d="M1373.5,905.5c-10.4,18-6,22.6-17,41c-8.5,14.3-14.1,16.4-14,25c0.1,10.2,8.1,22.2,20,25c1.7,0.4,9.4,2.2,16-2
	c2.4-1.5,7.9-5.9,11-32c2.8-23.8-0.7-28.7,5-39c4.8-8.7,9.3-8.6,12-17c3.7-11.3,0.4-26.1-6-28
	C1390.8,875.6,1375.1,902.7,1373.5,905.5z"/>
<path class="st16" d="M45.5,1000.5c-0.8,5-2,12.1,1,20c0.4,0.9,6.2,15.9,14,15c5.1-0.6,9.5-8,9-14c-0.3-4.3-3.1-7.6-7-12
	c-4.4-5-5.7-4.4-8-8c-4.3-6.8-2.5-13.8-4-14C49.1,987.3,46.6,993.9,45.5,1000.5z"/>
<path class="st16" d="M86.5,1024.5c-2.5,4.8-1.8,11.3,2,15c6.1,5.8,18.6,3,22-5c2.1-4.9,0.6-11.6-4-15
	C100.2,1014.8,90.1,1017.6,86.5,1024.5z"/>
<path class="st17" d="M1920,1080H0c0-94.8,0-189.6,0-284.4c0-46.9,0-93.7,0-140.6c640,0,1280,0,1920,0V1080z"/>
<path class="st18" d="M434,816c-5.2,2.2-32.7,13.9-36,38c-3.6,26.8,25.7,46.7,32,51c4.5,3.1,43.8,29.8,74,9
	c24.5-16.9,30.2-56.2,12-82C495.4,802.9,455.4,806.9,434,816z"/>
<path class="st18" d="M1580,701c-22.6-1.4-48.7,22.7-46,41c2.6,17.5,31.1,25.3,56,32c17.7,4.8,40.9,8.5,76,6
	c17.4-1.2,97.4-6.8,100-28c1.6-12.9-25.3-32.8-52-34c-36.7-1.6-55.4,33-78,23c-12.1-5.4-11.5-17.4-34-31
	C1593.8,705,1588,701.5,1580,701z"/>
<path class="st18" d="M1017,773c-39.9,4.8-70.7-2-81-4c-59.9-11.6-191.5-6.8-447-9c-309.1-2.7-488.6-12.9-489-6
	c-0.2,3.3,40.7,8.1,66,11c153.3,17.8,193.7-1.4,320,13c73.3,8.4,83.3,17.6,144,18c52.9,0.4,58.5-6.5,132-7c23.1-0.2,27.5,0.5,130,4
	c79.5,2.7,83.1,2.9,92,3c70.7,1.1,106,1.7,138-2c59.6-6.9,78.4-18.3,126-12c22.4,3,23.9,6.3,54,12c49.4,9.4,85.8,5.9,118,8
	c125,8,188.2,11.9,221,7c38.6-5.7,56.7-13,121-21c29.4-3.7,18.7-1,86-7c77.3-6.9,88.7-10,112-3c25.4,7.6,48.4,22.1,53,16
	c2.6-3.4-2.2-11-4-14c-9.3-15-25.9-20.3-35-23c-30.7-9-50.7-0.1-85,4c-36.5,4.3-30.9-3.8-87-3c-19.1,0.3-64.8,1.9-120,14
	c-51.1,11.2-41.8,16.4-76,22c-47.5,7.7-87.3,1.3-157-10c-32.6-5.3-28.9-6.1-61-11c-49.6-7.6-86.6-10-118-12c-47.6-3-71.9-4.4-93-1
	C1050.2,764.4,1043.4,769.8,1017,773z"/>
<path class="st18" d="M1097,840c4.9-4.5,31.5,33.9,79,54c38,16.1,72.3,13.1,141,7c59.5-5.2,59.6-11.9,115-16
	c34.2-2.5,64.5-1.3,125,1c104.4,4,90.6,8.9,131,7c49.9-2.4,76.5-10.2,122,1c26.9,6.6,52.9,18,52,22c-0.9,3.8-25.5,1.5-73-3
	c-33.6-3.2-33.5-4.1-45-4c-30.9,0.2-38.7,7-66,8c-19.2,0.7-18.7-2.5-57-7c-30.6-3.6-52.8-4.1-91-5c-35.8-0.8-53.7-1.2-69,1
	c-28.9,4.3-32,10-69,19c-9.2,2.2-40.6,9.5-82,12c-24.4,1.5-45.6,0-88-3c-13.6-1-27.5-2.2-44-9c-13.2-5.5-22.6-12.3-29-17
	c-17.7-13-28.3-26.2-32-31C1109.2,866.8,1093.2,843.5,1097,840z"/>
<path class="st18" d="M25,1038c16.4-22.1,46.2-26.8,83-30c58-5,62.6-0.1,117-4c40.5-2.9,81.3-8.8,97-11c41.2-5.9,40.4-7.4,55-8
	c49.7-2.2,65.2,14.5,105,19c53,6,52.4-20.6,134-30c30.1-3.5,20.1,1.3,128,0c33.2-0.4,56-0.7,88-2c60.1-2.5,65.8-5.1,98-4
	c43.2,1.4,64.8,2.1,92,13c27.9,11.1,32,21,59,27c20.9,4.6,32.6,1.9,65,0c20.3-1.2,53.6-3.1,87,0c65.6,6,79.2,26.5,121,16
	c18.2-4.6,31.7-12.5,35-8c3.9,5.4-8.5,27.4-27,33c-15.9,4.8-23.1-6.6-58-15c-22-5.3-39.8-5.8-51-6c-19.7-0.4-27.4,1.8-51,4
	c-15.2,1.4-47.9,4.5-84,2c-13.4-0.9-40.3-3.5-73-12c-46.2-12.1-48.9-21.8-79-24c-28.1-2.1-26.5,6.3-65,6c-32.1-0.3-36.4-6.1-71-6
	c-25.7,0.1-25,3.3-54,4c-31.7,0.7-33.8-3.1-72-4c-14-0.3-41.3-0.5-75,3c-21,2.2-36.4,5-53,8c-75,13.7-72.1,22-94,19
	c-35-4.9-42.7-26.1-80-24c-6.5,0.4-6,1-32,4c-22.3,2.6-33,3.3-50,5c-33.9,3.3-30.7,4.3-66,8c-44,4.6-45.1,2.8-69,7
	c-19.7,3.5-23.4,5.5-37,6c-21.8,0.8-26.9-3.9-47-2c-13.9,1.3-24.2,4.7-37,9c-28.8,9.6-42.4,20-46,16
	C15.2,1053.9,20.3,1044.3,25,1038z"/>
<path class="st19" d="M1210,721"/>
<g id="Ebene_1_00000032611500097067924900000009231835727831370393_">
	<polygon class="st20" points="95.7,774.9 264.9,677.2 434.2,775.1 434.3,970.6 265.1,1068.2 95.8,970.4 	"/>
</g>
<g id="Ebene_1_00000080909418632902984450000000540755289785126788_">
	<polygon class="st20" points="795.7,769.4 964.9,671.8 1134.2,769.6 1134.3,965.1 965.1,1062.8 795.8,964.9 	"/>
</g>
<g id="Ebene_1_00000083050369120399389610000013787160912977627291_">
	<polygon class="st20" points="1495.7,770.4 1664.9,672.8 1834.2,770.6 1834.3,966.1 1665.1,1063.8 1495.8,965.9 	"/>
</g>
<path class="st10" d="M567,140c-3.5,2.2-9,5.7-9,11c0,2.5,1.3,5.8,3,6c2,0.3,3.1-3.5,9-12c3.6-5.2,5.6-7.2,5-8
	C574.2,136,569.6,138.3,567,140z"/>
<path class="st10" d="M574.5,153.5c-1.4,4.7-5.8,5.1-6,8c-0.2,3.2,4.9,7,7,6c1.2-0.6,0.5-2.3,2-7c1.3-4.1,2.5-5,2-7
	c-0.5-2.4-2.9-4.4-4-4C574.7,149.8,575.1,151.3,574.5,153.5z"/>
<path class="st10" d="M570.5,97.5c-2.4,2.9-2.7,7.8-1,9c2.6,1.8,7-6.4,19-11c8.6-3.3,14.6-2.3,17-7c1-1.9,1.3-4.7,0-6
	c-2.7-2.9-11.4,1.7-12,2c-5.7,3-4.9,5.2-10,8C577.1,96,573.4,93.9,570.5,97.5z"/>
<path class="st9" d="M624.5,80.5c-0.7,1.3,2.1,5.2,6,7c6.7,3,16.8-0.4,19-6c1.2-3.1-0.2-6.1,2-8c2-1.7,4.9-0.7,5-1
	c0.1-0.7-15-6.5-20-1c-2.4,2.6-1,6.1-4,8C629.3,81.6,625.3,79.1,624.5,80.5z"/>
<path class="st10" d="M608.5,177.5c-2.2,2.1-1.5,7.2,1,10c1.2,1.3,2.6,1.8,12,3c10,1.2,11.3,1,12,0c1.3-1.9-0.1-6.3-3-8
	c-3.9-2.3-7.6,2.3-12,0c-3.4-1.8-3.7-5.8-7-6C611.4,176.5,609.7,176.4,608.5,177.5z"/>
<path class="st10" d="M690.5,178.5c-11.7,5.3-21.9,3.3-24,9c-0.2,0.4-0.7,2,0,3c2.2,3,14.4-1.4,23-7c10.3-6.6,16.5-15.5,16-16
	C705,167,700.4,174,690.5,178.5z"/>
<path class="st10" d="M566.5,202.5c-3.2,1-3.4,11-2,19c1.5,8.8,6.1,21.2,11,21c2.8-0.1,4.7-4.2,6-7c3.2-6.8,0.7-9.5,3-17
	c2.4-8,6.4-8.8,6-14c-0.4-5.3-5-10.5-8-10c-4,0.7-3.5,11.2-8,12C571.2,207.1,569,201.8,566.5,202.5z"/>
<path class="st10" d="M607.5,260.5c-3.6,4.7-0.5,12.1,4,14c0.3,0.1,2.6,1,5,0c5.2-2.3,7.4-12.4,3-16
	C616.5,256,610.4,256.7,607.5,260.5z"/>
<path class="st10" d="M627.5,271.5c-0.8-0.1-1.5,1.7-2,3c-1.1,2.7-2.3,5.7-1,8c1.9,3.3,7.8,2.9,11,2c1.7-0.5,5.3-1.5,6-4
	c1-3.7-5.1-6.8-4-10c1-3,7-2.5,7-4c0.1-1.7-7.5-4.5-10-2c-1.3,1.3-0.1,3.2-1,8c-0.6,3.3-2,7.1-3,7
	C629,279.4,629.1,271.6,627.5,271.5z"/>
<path class="st10" d="M665.5,265.5c-4,2.5-8,6.8-7,9c1,2.2,6.7,2.2,11,1c7.4-2,7.6-6.7,16-11c7.2-3.7,12.2-2.9,13-6
	c0.6-2.4-1.7-5.7-4-6c-3-0.4-3.8,4.5-9,8C678.6,265.1,673.4,260.7,665.5,265.5z"/>
<path class="st10" d="M686.5,253.5c-0.8-0.4-0.9-2.5,0-4c1.3-2.1,3.8-1.5,8-3c5.3-1.9,5.1-4.4,9-5c0.3,0,5.6-0.8,9,3
	c2.3,2.5,3.4,6.7,2,8c-1.3,1.2-3.8-0.9-12-3c-4-1-6-1.5-8-1C689.8,249.7,687.8,254.2,686.5,253.5z"/>
<path class="st10" d="M536.5,376.5c-0.2,0.3-3.2,6.6,0,13c2.1,4.3,5.7,6,10,8c3.9,1.9,8.2,3.9,12,2c2.5-1.3,4.7-4.2,4-6
	c-1-2.7-7.8-0.5-10-4c-0.9-1.4-0.3-4.3,1-10c1.1-4.9,1.6-5.7,1-7c-1.3-2.9-6.3-3.9-10-3C539.4,370.7,537.1,375.4,536.5,376.5z"/>
<path class="st10" d="M515.5,361.5c-1.8-1.7-4.7-1.2-6-1c-10.1,1.4-13.2-3-23-2c-5.9,0.6-5,2.2-19,8c-12.8,5.3-14.9,4.4-24,9
	c-8.4,4.2-16.5,9.9-16,11c0.4,0.9,7.6-1.8,22-7c8.9-3.2,13.4-4.9,18-7c8.2-3.8,8.4-4.8,13-6c2.8-0.8,9.8-2.6,18-1
	c1.5,0.3,4.7,1.1,10,2c5.4,1,7.1,1.1,8,0C517.7,366.1,517.2,363,515.5,361.5z"/>
<path class="st10" d="M405.5,411.5c-0.9,5.1-0.2,10.7,1,22c0.3,2.9,0.5,3.9,1,4c2.5,0.6,9.7-19.1,8-20c-0.9-0.5-4.1,4.5-5,4
	c-0.7-0.4,1.5-4,2-9c0.6-5.8-1.4-12-3-12C407.4,400.4,405.6,410.8,405.5,411.5z"/>
<path class="st10" d="M514.5,455.5c-4.4-0.2-8.2,6.7-9,12c-0.8,5,0.8,10,2,10c1.5,0.1,0.9-6.9,6-11c3.3-2.6,6.4-1.9,7-4
	C521.3,460,517.9,455.7,514.5,455.5z"/>
<path class="st10" d="M577.5,446.5c-3.8,4.4,0.4,10.5,1,23c0.5,10.1-1.8,16.4,0,17c1.4,0.5,3.8-2.5,5-5c0.5-1,1.4-3.2,1-8
	c-0.6-8.3-4.1-11.6-2-15c1-1.7,2.1-1.2,3-3c2-3.9-0.7-10.5-4-11C579.5,444.2,577.7,446.2,577.5,446.5z"/>
<path class="st10" d="M401.5,468.5c-0.9,0.3-1.2,5.8,2,9c3,3,8.8,3.7,11,1c1.4-1.7,1.4-5,0-6c-1.8-1.3-4.5,2.1-8,1
	C403.1,472.5,402.3,468.2,401.5,468.5z"/>
<path class="st10" d="M420.5,473.5c-1.1,2.6-0.9,5.7,0,6c0.4,0.1,0.9-0.5,3-3c0,0,0.8-1,5-6c3.2-3.8,4.3-4.6,4-5
	c-0.4-0.6-4.2,1.2-7,3C423.2,470,421.5,471.2,420.5,473.5z"/>
<path class="st10" d="M426.5,494.5c-4.4,1.9-4.8,10.8-4,16c0.4,2.4,1.3,8.3,6,11c1,0.6,3.2,1.9,5,1c3.6-1.8,0.7-10.3,4-12
	c2-1,4,1.8,11,4c3.9,1.2,7.7,2.5,9,1c2-2.4-2.4-12.2-10-16c-3-1.5-3.4-0.5-12-3C429.2,494.7,428.2,493.8,426.5,494.5z"/>
<path class="st10" d="M447.5,526.5c-1.1,1.2,3.6,8.5,11,13c1.2,0.7,8.1,4.9,10,3c1.6-1.6-0.4-7.6-4-9c-2.6-1-4.4,1.1-6,0
	c-2.6-1.8,1.2-8.1-2-12c-1.8-2.2-5.1-2.9-6-2c-1.2,1.3,2.3,5.6,1,7C450.5,527.5,448.1,525.8,447.5,526.5z"/>
<path class="st10" d="M471.5,525.5c-1.1,0.5,0.2,7.8,5,13c1.3,1.4,2.3,2.5,4,3c5.7,1.7,12.8-5.2,12-7c-0.3-0.8-2-0.1-7-1
	c-2.2-0.4-4.6-0.8-7-2C473.6,529.1,472.3,525.1,471.5,525.5z"/>
<path class="st10" d="M517.5,523.5c-0.4,0.4,7.3,5.6,9,14c0.9,4.4-0.4,7.3,1,8c1.9,0.9,6.5-3.7,9-8c1.3-2.3,0.8-2.2,4-10
	c1.5-3.6,2.5-5.7,2-6c-0.8-0.5-3.8,5.5-10,7c-2.7,0.7-5.1,0.2-6,0C521,527.3,517.8,523.2,517.5,523.5z"/>
<path class="st10" d="M551.5,520.5c-4.8,7.6-6.6,8.8-6,11c0.8,2.7,4.8,4.7,8,4c4.7-1.1,5.7-7.8,6-10c0.8-5.5-0.9-11.8-3-12
	C555.4,513.4,554.9,515.1,551.5,520.5z"/>
<path class="st11" d="M1101.4,398.1c9.9,3.5,9.6,44.9-3,50c-7,2.8-18.6-5.3-22-15C1070.1,415.2,1093.3,395.3,1101.4,398.1z"/>
<path class="st10" d="M1091.4,415.1c-3.5,2.2-9,5.7-9,11c0,2.5,1.3,5.8,3,6c2,0.3,3.1-3.5,9-12c3.6-5.2,5.6-7.2,5-8
	C1098.6,411.1,1094,413.5,1091.4,415.1z"/>
<path class="st10" d="M1098.9,428.6c-1.4,4.7-5.8,5.1-6,8c-0.2,3.2,4.9,7,7,6c1.2-0.6,0.5-2.3,2-7c1.3-4.1,2.5-5,2-7
	c-0.5-2.4-2.9-4.4-4-4C1099.1,425,1099.5,426.5,1098.9,428.6z"/>
<path class="st9" d="M1114,425.8c-3.3-0.4-0.6,26.6-12.4,29.3c-9.7,2.2-23.1-13.3-24.4-11.9c-1.6,1.7,21.9,18.6,32.2,44
	c10.6,26.2-2.7,37.4,10,60.2c9.2,16.6,26.4,29.1,30.8,26.5c4.4-2.6-5.2-19.4-14-44.9C1116.7,473.1,1118.4,426.4,1114,425.8z"/>
<path class="st12" d="M1138.4,557c1.4-5-3.5-9.2-8.6-20c-4.8-10.1-5-16.2-6.5-16.3c-1.5-0.1-3,6.3-1.6,12.9
	c1.2,5.9,3.6,6.4,7.3,15.5c3,7.2,3.3,11.3,5.3,11.8C1135.9,561.4,1137.7,559.3,1138.4,557z"/>
<path class="st12" d="M1114.6,455.5c-0.6-0.7-6.8,1-8.2,6.2c-0.3,1-1.2,5,1.5,8c3.2,3.6,9.3,3.3,9.7,1.8c0.4-1.7-6-4-6.8-8.5
	C1110.1,458.7,1115.2,456.2,1114.6,455.5z"/>
<path class="st12" d="M1122,493.6c-1.3-4-4.3-9.4-6-9.3c-1.4,0.1-1.3,4.6-1.3,5.1c0.2,8,5.8,11,5.7,17.1c-0.1,5.5-4.9,7.4-3.6,9.2
	c1.2,1.8,7.2,1.9,9.4-1.7c1.3-2.1-2.1-4.5-2.6-10.7c-0.1-1.1-0.1-1.8-0.3-3.5C1123.2,498.9,1122.8,496.2,1122,493.6z"/>
<path class="st9" d="M1235,319.2c-8.1-13.7-86.3-31.1-128.8-18.5c-15.6,4.6-26.5,13.3-22.9,16.4c3.9,3.5,21.3-3.3,48.6,2.8
	c23.3,5.2,28.5,14,46.9,17.8C1208.9,343.8,1241.3,329.8,1235,319.2z"/>
<path class="st12" d="M1190.4,307c6.8,0,15.3,2.4,21.7,6.7c4.9,3.3,9.8,8.8,8,12.6c-1.6,3.4-7.7,3.8-18.2,4.5
	c-6.9,0.5-16.7,1.1-19.4-1.2c-2.7-2.3,1.6-7.8,9.6-8.8c7.6-0.9,15,2.5,16.6,0.9c1.4-1.5-2.8-6-8.3-8.4c-9.3-4.2-19.7-1.4-20.9-2.7
	C1178.5,309.5,1183.3,307,1190.4,307z"/>
<path class="st12" d="M1175.6,319.5c0-0.8-10.4-2.1-20.5-7.4c-7.7-4.1-9.4-7.4-14.3-8.2c-4.2-0.6-8.5,1-7.8,2.9
	c1.2,3.5,18.8,5.8,23,11.9c0.7,1,1.3,2.5,3.6,4.3c1.1,0.8,3.8,2.9,6.9,3.2c3.4,0.3,5.9-1.6,5-3.3c-1.1-1.9-6.8-3-6.8-3.7
	C1164.7,318.4,1175.6,320.3,1175.6,319.5z"/>
<path class="st12" d="M1121.1,306.9c-1.3-0.4-6.2-1.6-14.9,0.2c-3.3,0.7-10,2.5-9,3.6c0.6,0.8,4.3,1,9.5,1.3c4.8,0.3,4.8,0,7.8,0.3
	c7.9,0.7,11.5,2.9,13.2,2c1.6-0.9,0.4-3.7-2.3-5.5C1124.9,308.4,1123.6,307.6,1121.1,306.9z"/>
<path class="st9" d="M1141.1,364.6c7.8-12.7,34.5-14,53.5-6.8c14,5.4,30.9,18.1,28.3,27.2c-3.9,13.8-49.3,6.3-54.4,21
	c-5.3,15.1,39.6,30.2,40.1,61.8c0.3,18.7-15,35.8-21.4,34.4c-3.8-0.8,0.5-13.5-7-30.8c-2.9-6.6-4.9-11.3-9.9-14.6
	c-12.3-8-26.7,4.4-33.4-1.9c-9-8.4,10-27.3,7-60.8C1142.4,377,1136.5,372.1,1141.1,364.6z"/>
<path class="st12" d="M1157.5,377.5c5.8-4.8,11.3-9.3,16.6-7.4c6.5,2.4,8.9,13.2,5.7,16c-3.4,3-12.6-4.1-16.6-0.5
	c-2.7,2.4-0.3,6.9-2.6,8.3c-2.6,1.5-9.4-2.1-10.1-6.6C1150,383.7,1153.3,381,1157.5,377.5z"/>
<path class="st12" d="M1151.7,425.8c-4.4,2.1-5.4,8.6-3,12.7c2.8,4.8,10.4,6.7,14.3,3.5c3.4-2.8,3-8.7,0.3-12.4
	C1160.8,426.4,1155.8,423.8,1151.7,425.8z"/>
<path class="st12" d="M1190,364.6c1.5-1.9,5.5-2.4,7.3-0.9c2.4,2-1,6.2,1.2,9.5c3.2,4.9,14.2,1.6,15.4,5.1c0.6,1.8-1.7,4.5-3.9,5.8
	c-3.9,2.3-7.2-0.2-9.9,2.1c-2.1,1.8-0.8,4-3,5.7c-2.7,2.1-8,0.9-8.4-0.7c-0.4-1.7,4.7-2.9,5.6-6.9c0.4-1.7-0.4-2.7-1.7-5.9
	C1190,372,1188,367.1,1190,364.6z"/>
<path class="st9" d="M1071.7,356.8c-9.7-22-36.2-33-50-20.8c-36.1,31.9,2.3,235.6,24.4,237.1c3.9,0.3,6.7-5.9,9.1-11.1
	c15.6-34.5-13.3-75.1-0.9-115.1c5.7-18.3,13.5-15.7,18.8-38.5C1074.4,402.8,1080.4,376.6,1071.7,356.8z"/>
<path class="st12" d="M1048.1,537.5c3.9-3.9,1.6-17.5-0.7-31c-2.7-16-5.3-18.6-4.9-28.4c0.4-11.3,4.3-15.2,2.3-19.4
	c-2.7-5.9-13.8-6.5-17.9,1.5c-3.7,7.3-0.3,18.9,1,23.5c3.8,13,8.9,13.5,10,22.8c1.3,11.3-5.4,16.4-3,23.9
	C1037.1,537.1,1044.7,540.9,1048.1,537.5z"/>
<path class="st12" d="M1048.3,429c4.6,1.8,11.9-28.5,12.4-30.6c1.3-5.4,6-25.1,2.6-28.3c-2-1.9-7.3,2.1-9.3,8.2
	c-2.6,7.6,1.1,14.7-2.2,20.9c-1.6,3-2.9,2-4.6,4.8C1042.8,411.2,1045.1,427.7,1048.3,429z"/>
<path class="st12" d="M1022.2,417.9c6.2,6,21.7-5,25.1-22.8c2-10.4,0.6-26.1-5.6-30.5c-6.2-4.4-13.7,4.6-14.6,5.7
	C1016.9,382.9,1015.6,411.5,1022.2,417.9z"/>
<path class="st9" d="M1268.5,566.1c-8.7-5.7,12.6-28.8,5.8-58.4c-9.9-43.1-67.7-50.3-70.2-89.9c-0.2-2.9-1-15.4,5.2-18.7
	c6-3.2,16.5,3,22.6,9.8c10.2,11.3,4.6,20.4,13.8,28.9c9.5,8.8,19.2,2.4,26,10.8c6.4,7.9-0.8,15.5,4.3,31.6
	c2.9,9.2,5.9,8.7,14.3,23.3c9.6,16.5,14.9,25.8,13.2,35.9C1300.4,557.1,1276.3,571.2,1268.5,566.1z"/>
<path class="st12" d="M1277.1,557.6c-2-1.1,0.4-6.5,1.7-19.7c0.2-2,1.5-15.2,0.2-26.2c-2.4-20.4-13.5-33.3-12.7-33.8
	c0.8-0.5,9.9,12.9,18.7,30c10.4,20.4,10.2,26.3,9.5,29.9C1292,550,1280.2,559.3,1277.1,557.6z"/>
<path class="st12" d="M1261.9,463.3c-3.4,2.5-9.4,3.7-12.8,0.3c-3-3.1-2.3-8.3-0.4-11.4c3.5-5.8,13.2-7.4,16.6-3.5
	C1268.4,452.1,1266.7,459.7,1261.9,463.3z"/>
<path class="st12" d="M1226.1,442.4c-0.7-0.1-2.5-0.5-6.6-6.3c-4.1-5.9-6.9-9.9-5.3-12.5c1.2-2,4.8-2.8,6.5-1.6
	c2.4,1.8-0.5,6.2,2,10.1c2.9,4.5,9.8,3.3,10.1,5.9C1233.1,439.9,1229.4,442.8,1226.1,442.4z"/>
<path class="st12" d="M1227,424.7c-1.3-0.3,1-5.6-2-10.1c-3.8-5.8-12.6-4.7-12.8-7.5c-0.2-1.9,3.5-4.1,6.8-4.4
	c5.7-0.6,11.5,4.6,12.6,10.3C1232.6,419.1,1228.3,425.1,1227,424.7z"/>
<path class="st11" d="M1304.3,402.5c12.9-13,5.9-37.8-6.4-49.7c-8.1-7.8-21.5-13-26.4-8.7c-3.8,3.3,0.5,9.8,1.1,24.3
	c0.9,22.5-8.6,30.8-3.3,37.5C1275.2,413.3,1294.5,412.4,1304.3,402.5z"/>
<path class="st10" d="M1300.9,393.5c2.9-1.6,1.1-11.4-2-19c-3.3-8.2-10.4-19.5-15.1-18.3c-2.7,0.7-3.7,5.1-4.4,8.1
	c-1.7,7.3,1.3,9.4,0.6,17.3c-0.7,8.3-4.5,9.9-3,14.9c1.5,5.1,7.1,9.3,9.9,8.1c3.7-1.5,1.1-11.7,5.3-13.4
	C1295.4,390,1298.6,394.8,1300.9,393.5z"/>
<path class="st9" d="M1172.2,506.9c4.4-7.2,5.4-23.5,1.9-31.2c-6.5-14.2-30.1-2.9-35.3,18c-2.6,10.3-1,24.3,3.4,27.4
	c3.6,2.6,6.5-4,17.4-8.6C1167.6,509.2,1169.5,511.2,1172.2,506.9z"/>
<path class="st12" d="M1168.3,497.1c1.7-1.7,2.6-8.8,1.4-13.2c-1.7-6-7.1-5-10.1-4.5c-4.5,0.8-14.1,4.6-16,14.3
	c-1,5,0.3,11.1,2.3,11.7c2.4,0.7,4.2-7,9.7-10.2c3.4-1.9,6.4-1.2,6.7-1.1C1165.9,495.1,1166.9,498.5,1168.3,497.1z"/>
<path class="st12" d="M1162.5,504.2c0.4-3.4-1.1-5.5-1.2-5.6c-2-2.8-6.1-0.1-7.6,3.9c-0.5,1.4-0.9,3.3-0.6,3.7
	c0.4,0.5,1.3-1.5,2.5-1.3c0.6,0.1,0.7,0.9,1.8,2.8c1,1.7,1.5,2.5,2.1,2.4C1160.7,509.9,1162.1,507,1162.5,504.2z"/>
<path class="st11" d="M1100,389.3c7.3,8.3,23.5,12.3,29.6,7.4c11.1-9-5.8-52.2-33.7-66.4c-10.9-5.6-24-7-25.4-3.3
	c-1.6,4.3,14.3,11,22.1,27C1101,370.7,1091.4,379.6,1100,389.3z"/>
<path class="st10" d="M1115.8,393.2c4.3,1.5,8.6-3.6,10.3-7.2c0.8-1.6,2.7-5.7,0.3-10c-0.5-0.9-1.7-3-3.4-3.5
	c-3.6-1.1-5.2,5.7-8.5,4.8c-2-0.6-2.3-3.4-6.7-8.8c-2.5-3-4.9-6-6.5-5.8c-2.6,0.2-3.7,8.6,0.6,15.3c1.7,2.6,2.4,2.3,7.9,8.8
	C1113.8,391.6,1114.2,392.7,1115.8,393.2z"/>
<path class="st10" d="M1113.9,362c1.4-0.1,1-7.1-2.7-14.1c-0.6-1.1-4.1-7.7-6.4-7.6c-2,0-3.1,4.8-0.9,7.7c1.6,2.1,3.9,1.9,4.6,3.5
	c1.2,2.6-4.5,4.1-3.8,8.3c0.4,2.3,2.7,4.7,3.7,4.7c1.5,0,0.7-4.7,2.4-4.7C1112,359.6,1113.1,362,1113.9,362z"/>
<path class="st10" d="M1094.9,348.6c1.1,0.3,3.3-4.8,2-10.6c-0.4-1.6-0.7-2.8-1.7-4.1c-3.7-4.3-12.2-4.4-12.4-2.8
	c-0.1,0.7,1.5,1.3,5,4.7c1.5,1.5,3.2,3.2,4.5,5.3C1094.9,345.2,1094.1,348.3,1094.9,348.6z"/>
<path class="st11" d="M1089.4,474.9c-4.8-2-17.3,3.3-22.8,10.6c-18.8,24.7,41.4,75.1,49.4,71.7c1.3-0.6,1.1-2.6,0.6-6.2
	c-3.1-23.4-25.6-28-29.7-46.8C1083.4,488.7,1095.4,477.3,1089.4,474.9z"/>
<path class="st10" d="M1082.4,481.7c-3.8-1.4-9.1,1.1-10.1,3.7c-0.1,0.2-0.6,1.5,0.4,2.7c2.1,2.6,9.8,2.7,12.2-0.1
	C1086.4,486.1,1085.5,482.9,1082.4,481.7z"/>
<path class="st10" d="M1075.8,493.8c0-0.4-1.4-0.6-2.4-0.8c-2.1-0.3-4.5-0.6-6,0.3c-2.3,1.4-1.5,4.6-0.6,6.2
	c0.5,0.9,1.5,2.7,3.5,2.8c2.8,0.2,4.7-3.5,7.1-3.3c2.3,0.2,2.4,3.5,3.5,3.4c1.2-0.2,2.8-4.6,0.7-5.7c-1.1-0.6-2.4,0.3-6,0.3
	c-2.5,0-5.4-0.3-5.5-0.9C1070,495.5,1075.8,494.7,1075.8,493.8z"/>
<path class="st10" d="M1083.3,513.8c-2.2-1.9-5.7-3.6-7.3-2.8c-1.6,0.8-1.1,3.9,0.1,6.1c2.1,3.8,5.6,3.4,9.5,7.5
	c3.4,3.5,3.1,6.3,5.5,6.4c1.8,0.1,4.1-1.5,4.2-2.8c0.1-1.7-3.7-1.6-6.7-4C1084.6,520.9,1087.5,517.6,1083.3,513.8z"/>
<path class="st10" d="M1093.9,523.9c0.3-0.5,1.8-0.8,3-0.4c1.7,0.5,1.4,1.9,2.9,4c1.9,2.7,3.7,2.3,4.4,4.3c0.1,0.1,1,3-1.5,5.2
	c-1.7,1.5-4.7,2.6-5.8,2c-1-0.6,0.4-2.2,1.3-6.9c0.4-2.3,0.6-3.5,0.1-4.5C1097,525.3,1093.5,524.7,1093.9,523.9z"/>
<path class="st9" d="M1257.9,340c-7.8-7-22.2-6-28.9,0.5c-13.8,13.4,1.8,54.2,14.7,55.1c9.3,0.6,20.2-19.3,20.3-36.5
	C1264,354.2,1264,345.5,1257.9,340z"/>
<path class="st12" d="M1259.5,365.4c-1.5-1.9-5-2.2-7.5-1.1c-6,2.7-5.9,13.6-7.8,13.5c-1.5-0.1-0.9-6.7-4.3-8.2
	c-2.4-1.1-5.9,0.6-7.5,3c-2.9,4.5,0.5,12.8,6.1,14.9c4,1.5,8-0.6,9.9-1.6C1257.3,381.3,1262.6,369.4,1259.5,365.4z"/>
<path class="st12" d="M1249.1,353.7c-0.1-0.9-0.5-5.5-4-7.2c-4.4-2.1-9.3,2.2-9.7,2.6c-2.3,2.1-5.6,6.9-3.2,11.2
	c2.1,3.8,7.3,4.8,11.2,3.2C1247.6,361.7,1249.3,357.2,1249.1,353.7z"/>
<g id="Ebene_1_00000113332905596448043710000007758100033374197643_">
	<path class="st21" d="M434.5,774.8l-169.3-97.5L95.9,774.8v195.5l169.3,98l169.3-97.5V774.8z"/>
</g>
<path class="st12" d="M237,959c-3.6-29-5.2-34.3-1.6-41.9c4-8.5,10.5-8.5,13.3-17.7c2-6.9,2-16.9-2.8-21c-4-3.6-10.9,0.4-24.6,5.2
	c-10.5,3.6-29.4,10.5-33.1,23.8c-1.2,5.2,1.2,5.6,0.4,11.7c-2,16.9-21.4,20.6-25,37.9c-1.2,6-0.4,14.1,3.6,18.9
	c6,6.9,13.7,0,27.4,4.8c12.5,4,13.7,12.1,28.2,14.9c5.6,1.2,10.1,2,13.3-0.8C240.2,991.3,240.2,984.4,237,959z"/>
<path class="st22" d="M220.1,979.6c-2-0.8-2-2.8-3.6-3.6c-2.8-2.4-7.7,0-8.1-0.4c0-0.4,5.2-0.4,6.4-3.2c0.8-1.6,0-2.8,1.2-4
	s2.8-1.2,3.6-0.8c4.4,0.4,8.1,6.4,6.4,10.1c-0.4,1.2-2,2.4-2.8,2.4C222.9,979.6,221.7,979.6,220.1,979.6z"/>
<path class="st22" d="M221.3,941.7c0.8-4,4-5.6,3.6-7.3c-0.4-1.2-2.8-2.4-4.4-1.2c-1.6,1.2-0.4,4-2,6.4c-0.8,1.2-1.2,1.2-4.8,3.2
	c-3.6,2.4-5.6,3.2-5.2,3.6c0,0.8,3.2-0.8,7.3,0c3.6,0.8,5.2,2.8,6,2C222.5,948.6,220.5,945.7,221.3,941.7z"/>
<path class="st22" d="M231.8,900.2c1.6-4,1.2-4,2.4-5.6c2.4-4.4,6-6.4,6-7.3c0-0.4-0.8-0.4-4.4,0.8c-3.2,0.8-4.8,1.6-5.6,1.6
	c-0.8,0.4-6.4,3.2-6.4,6s4.8,4.4,4,6.9c0,0.4,0,0.4-0.4,0.8c-1.2,1.6-2.4,1.6-2.8,2.4c-0.4,1.2,0.4,3.6,2,3.2
	C228.1,909.5,230.2,904.6,231.8,900.2z"/>
<path class="st22" d="M193.9,958.2c-7.3-1.2-7.3-1.2-8.5-1.2c-5.6,0.8-9.7,5.6-10.1,4.8c0-0.4,0.4-0.8,2-4.4
	c3.2-5.6,2.4-4.8,3.6-6.4c2-2.8,4-6,6.9-6.4c3.2-0.8,4.8,2,7.7,0.8s3.6-4.8,5.2-4.8c0.8,0.4,1.6,2.8,0.8,4.8
	c-1.6,5.2-10.9,6.9-11.3,8.1c0,0.8,4.8-0.8,8.9,2c1.2,0.8,2.8,2.4,2.8,2.8C201.5,959,199.9,959,193.9,958.2z"/>
<path class="st22" d="M202.3,911.5c0.4,0.4-0.4,2.4,1.2,4.4c1.2,2,2.8,1.6,3.2,3.2c0,1.2-0.4,2.8-1.2,3.6c-0.8,0.8-1.6,0.8-4.8,1.6
	c-4,0.8-5.2,1.2-5.2,0.4c-0.4-0.8,1.6-2.4,3.6-5.6C201.1,915.1,201.5,911.5,202.3,911.5z"/>
<path class="st10" d="M322.9,776.8c5.2,2,1.6,12.9,8.5,18.5c7.7,6.4,26.2,3.6,34.7-7.7c6.9-9.3,4.8-20.6,4-23.8
	c-3.6-16.1-20.6-28.2-34.7-27.4c-10.9,0.8-15.7,8.9-23.4,6c-6-2.4-6-8.5-11.3-16.9c-10.1-16.1-31.4-27.4-39.9-22.2
	c-6.9,4.4-4.8,18.9-4.8,21c2,14.1,10.5,14.9,16.1,32.2c4,11.7,1.6,16.1,7.3,23.4c1.6,2,7.7,9.7,16.1,10.1
	C308.4,790.9,316,774.4,322.9,776.8z"/>
<path class="st23" d="M299.5,766.4c-0.8-2-4.4,0-8.5-2.8c-5.2-4-3.6-11.7-6.4-12.1c-1.6,0-3.6,2.4-3.6,4.8c0.4,3.6,6,4,6.4,7.3
	c0,2-1.6,2.4-4,8.1c-0.4,1.2-0.8,2.8-0.8,4c0.4,1.2,1.2,2.4,2,2.8C289.4,781.3,301.5,770.4,299.5,766.4z"/>
<path class="st23" d="M300.3,741.4c0.8-4-1.2-8.9-4.8-9.3c-2-0.4-4.8,1.2-5.2,2.8c-0.4,2.4,3.2,3.2,4,7.3c0.4,2.8-1.2,4.4-0.8,5.2
	C294.6,748.2,299.1,745.4,300.3,741.4z"/>
<path class="st23" d="M285.4,724.8c1.6-3.6-2.8-8.1-4.4-9.7c-0.8-0.8-6.9-6.9-10.9-4.8c-1.6,0.8-3.2,3.2-2.8,5.2
	c0.4,2,2.4,1.6,3.6,3.6c2,3.2-0.8,6,0.8,8.1C274.1,729.7,283.4,729.3,285.4,724.8z"/>
<path class="st23" d="M341.4,756.3c-0.8-1.2-4.8,1.2-6.4-0.8c-1.2-1.6,1.6-4,0.4-6.4c-1.2-2.8-7.7-3.6-8.9-1.6
	c-0.8,1.2,0.4,2.8,2.4,8.1c2.4,7.3,2,9.7,3.6,10.5C335.8,767.2,342.6,757.9,341.4,756.3z"/>
<path class="st23" d="M323.3,768.4c0.4-1.6-3.2-4.8-4.4-4c-0.8,0.4-0.8,4.4,1.2,5.2C321.7,770,323.3,769.2,323.3,768.4z"/>
<path class="st23" d="M349.5,795.8c3.2,1.2,7.3-0.8,7.3-2.8c0-2-3.2-2-4-5.2c-1.2-3.6,2-6,0.8-8.5s-5.6-3.2-8.1-1.6
	c-2,1.6-1.6,4.4-1.2,7.7S345.4,794.6,349.5,795.8z"/>
<path class="st24" d="M257.6,726.5c-22.2-7.7-26.6-13.3-32.7-10.1c-14.1,7.3-15.3,53.6,4.8,66.1c25.4,15.7,77.8-27.4,73.8-41.5
	C301.5,734.5,289.4,737.7,257.6,726.5z M238.6,774.4c-16.1-8.1-15.7-42.3-7.3-46.4c4-2,7.3,3.6,22.6,10.1
	c18.1,7.3,26.6,4.8,28.2,9.3C284.6,755.9,256,782.9,238.6,774.4z"/>
<rect x="138.1" y="840.8" transform="matrix(0.3794 -0.9252 0.9252 0.3794 -655.0402 716.3145)" class="st25" width="136.6" height="11.3"/>
<path class="st26" d="M146.7,897.4c-18.5,9.3-20.2,67.3,2,78.6c25,12.9,77.8-35.5,71.8-54c-1.6-4.8-14.5-9.3-39.5-17.3
	C152.4,895.4,148.7,896.6,146.7,897.4z"/>
<path class="st27" d="M170.5,922.8l7.3,2.8c2.4,0.8,5.2,0,6-2.4l12.5-30.6c0.8-2.4,0-5.2-2.4-6l-7.3-2.8c-2.4-0.8-5.2,0-6,2.4
	l-12.5,30.6C166.9,919.1,168.1,922,170.5,922.8z"/>
<polygon class="st28" points="332.9,793.4 240.2,964.7 425.3,964.7 "/>
<polygon class="st29" points="332.9,808.7 252.7,955.8 413.2,955.8 "/>
<path class="st30" d="M295.5,934.9c-1.6-2.4,4.8-6,7.3-14.9c1.2-4.8,0-6.9,2-8.9c0.4-0.4,0.4-0.4,0.8-0.8c2.4-1.2,4.8-1.6,9.7-1.2
	c4.4,0.4,6.9,0.4,8.1,0.8c0.4,0,5.6,2,8.1,6.9c0.4,0.8,0.8,1.6,1.2,2.4c0.8,2,1.6,3.6,2.4,5.6c2.8,6.4,4,9.7,2.8,11.3
	s-4.8,1.6-7.3,0c-2.8-2-1.2-5.2-4.8-13.3c-2-4.4-3.6-6-5.6-7.3c-1.2-0.8-2.4-1.2-3.6-1.2c-5.6,0.8-4,16.9-12.5,21.4
	C301.1,937.3,296.7,936.5,295.5,934.9z"/>
<path class="st30" d="M307.5,906.6c0.4,1.2,4.4-0.4,10.5,0.4c5.2,0.8,6.4,2.8,8.9,1.6c4.4-1.6,4-9.7,6.4-9.7c1.6,0,2,3.2,6,7.3
	c1.2,1.2,4,4.4,5.2,4c1.2-0.8-2-5.2-2.8-13.7c0,0-0.8-7.3-3.2-10.1c-0.4-0.4-0.4-0.4-0.8-0.8c-2-1.6-3.2-0.8-9.7-2.4
	c-5.6-1.6-5.6-2.4-8.5-2.4c-0.8,0-6.9-0.4-10.9,3.6c-1.2,1.2-1.6,2.8-3.2,6s-2.4,5.2-1.6,6.4c0.8,2,3.2,3.2,5.2,2.8
	c1.6-0.4,2.8-2,3.2-2.8c1.2-2,0.4-3.6,1.6-4.8c1.6-1.6,5.2-2,6-0.4c0.4,0.4,0.4,1.6-2.4,4.8C312,903,306.7,905.4,307.5,906.6z"/>
<path class="st30" d="M333.3,869.1c-2.4,1.2-2.8,4-2.8,4.8c0,3.6,2.4,6,4.8,6.4c3.6,0.4,7.3-3.6,6.9-7.3
	C341.4,869.6,336.6,867.5,333.3,869.1z"/>
<path class="st31" d="M347.1,941.7c1.6,2.4,6.9,2.4,17.7,2.8c10.9,0.4,16.5,0.4,17.7-1.6c3.6-5.6-6.4-25.4-19.3-24.6
	C352.3,918.7,343.4,936.1,347.1,941.7z"/>
<rect x="328.9" y="876.3" transform="matrix(0.5 -0.866 0.866 0.5 -620.1857 739.1987)" class="st32" width="2.4" height="60.9"/>
<path class="st10" d="M106,855c1.2,10.5,2,15.3,6,18.9c8.5,7.3,23.4,3.2,24.2,3.2c14.9-4,20.6-18.5,20.6-29.4
	c0-10.1-4.8-19.3-7.3-19.3c-2.8,0-0.4,13.7-8.9,17.3c-3.2,1.2-6.4,0.4-12.5-0.4c-12.9-2.4-17.7-6.9-21-5.2
	C104,841.3,104.4,845.8,106,855z"/>
<path class="st12" d="M270.5,840.5c10.1-4,16.1,2.4,24.2-2.4c5.2-2.8,8.9-8.5,7.7-13.3c-1.6-5.2-8.5-4.8-19.3-11.3
	c-14.9-8.9-18.1-18.5-23.8-17.3c-3.2,0.8-4.4,4.4-6.4,10.5c-2.4,7.3-1.2,8.9-2.4,17.3c-2,10.9-6,13.3-3.6,18.5
	c1.6,3.6,5.6,6.9,9.7,6.9C261.6,849.4,262.4,843.4,270.5,840.5z"/>
<path class="st22" d="M264.4,831.3c3.2,2.4,9.7-0.8,10.1,0c0.8,1.2-11.7,8.9-14.5,6.9c-1.2-0.8,0-2.4-1.6-5.2c-1.6-2.4-4-2.8-3.6-4
	c0-2,4.4-3.6,6.4-2.8C263.6,826.8,262,829.6,264.4,831.3z"/>
<path class="st23" d="M146.7,841.3c0,0.8,0.8,2,1.6,2.4s0.8-0.4,2.8-1.2c1.6-0.8,2.8-0.4,2.8-0.8c0.4-0.8-0.8-1.2-1.6-2.8
	c-0.8-1.6,0-2.8-0.8-3.2C150.3,834.9,145.9,838.1,146.7,841.3z"/>
<path class="st23" d="M143.9,853.4c-4.8,0.4-5.2,1.2-5.6,1.2c-0.4,0.8,0,2,0.4,2.4c1.6,1.2,4.4,0.4,4.8,0.4c2.8-0.8,4.8-3.2,4.4-4
	C147.9,853,146.7,853,143.9,853.4z"/>
<path class="st23" d="M127.4,855c1.2,1.2,3.2,0.8,4.4,0.4c1.2-0.4,1.6-2,1.6-2.4c-0.4-0.4-1.2,0-2.4,0c-1.6-0.4-2-2-2.8-1.6
	C127,851.4,125.8,853.8,127.4,855z"/>
<path class="st23" d="M111.6,848.2c-1.2,0-1.6,2-1.2,3.6c0.4,2,2.4,3.6,3.6,3.6c1.2,0,0.8-1.2,2.4-2c2-1.2,4-0.4,4-1.2
	c0-0.4-1.2-1.2-2.4-1.6c-1.2-0.4-1.6,0-2.8-0.4C113.7,849.8,112.9,848.2,111.6,848.2z"/>
<path class="st23" d="M114.9,862.7c-0.4,0.8,0.4,1.2,0.8,2.8c0.8,2.4-0.8,4,0,4.4c0.4,0.4,2-0.8,2.8-1.6c0.4-0.8,1.6-2,0.8-3.6
	c-0.4-0.8-1.2-2-2.4-2.4C116.1,861.9,115.3,862.3,114.9,862.7z"/>
<path class="st22" d="M268.9,811.9c3.6-1.6,8.1,0.8,8.9,0.4c0.4-0.4-1.2-1.6-5.6-4.8c-7.3-4.8-8.1-5.2-8.9-4.8
	c-0.8,0.8,0.8,2.4,1.6,6.9c0.4,4-0.8,7.3,0,7.7C264.8,817.6,265.2,813.5,268.9,811.9z"/>
<path class="st23" d="M130.6,869.1c0.8,0.8,0,1.6-0.4,4c-0.4,2,0.4,2.8-0.8,3.2c-1.2,1.2-4-0.4-4.8-0.4c-2.8-1.2-5.2-3.6-4.4-4.4
	c0.4-0.8,3.6,1.2,5.2,0c1.2-0.8,0-2.8,1.2-3.6C127.8,867.5,129.8,867.9,130.6,869.1z"/>
<path class="st10" d="M390.6,770.4c-4,2.4-2,9.3-6.9,23c-2.4,6.4-3.6,10.1-6.9,12.1c-9.3,6.4-23-3.2-24.6-0.4
	c-1.2,2.4,6,12.1,17.3,17.3c12.1,5.6,32.2,8.1,45.5-4c0.4-0.8,14.1-12.9,10.9-25c-1.6-5.6-6.9-9.3-17.7-15.7
	C398.6,771.2,393.8,768.4,390.6,770.4z"/>
<path class="st12" d="M317.6,1005.4c2.8-4,1.2-9.7-2-12.9c-4-5.2-9.3-2.4-23-6c-10.5-3.2-11.3-5.2-21-6.9c-8.1-1.2-12.9-2-15.7,0.8
	c-4.8,4.4,4.4,12.9,5.2,31.8c0.8,14.1-3.6,20.6,1.2,24.6c4.8,3.6,13.3,3.2,19.8-0.4c10.1-5.6,6.4-14.5,17.3-22.2
	C307.5,1007.8,315.2,1010.2,317.6,1005.4z"/>
<path class="st22" d="M288.6,997.7c0.4-2.4,5.2-5.6,7.3-4.8c1.6,0.4,0.4,2.8,2.4,5.6s4.4,2.4,4.8,4c0.8,4-15.3,11.7-16.5,10.5
	c-0.8-0.8,7.3-5.2,6-9.7C292.2,1000.2,288.2,1000.2,288.6,997.7z"/>
<path class="st23" d="M358.3,811.1c0,0.8,1.6,0.4,3.2,2.4s1.2,3.2,2.4,3.2c0.8,0,0.8-1.2,2.8-2.4c2-1.2,2.8-1.2,3.2-2
	c0.4-0.8-0.8-2-1.6-2.8C364.4,807.1,358.7,809.9,358.3,811.1z"/>
<path class="st23" d="M380.5,817.2c0.8,0.8,4.8,0.4,7.3-2c0.4-0.4,3.2-2.8,2.4-4.8c-0.4-0.8-1.2-1.6-2.4-1.6c-0.4,0-1.2,0.4-4.8,4.4
	C381.3,815.5,380.1,816.7,380.5,817.2z"/>
<path class="st23" d="M390.2,796.6c-0.4,0.8,0.8,1.6,0.4,3.6c-0.4,1.2-1.2,2-1.2,2.4c0.4,0.8,2,0.8,3.6,0c1.6-0.8,3.2-2.8,2.4-4.4
	C394.6,795.8,391,795.8,390.2,796.6z"/>
<path class="st23" d="M397,784.1c-0.4,1.2-1.2,1.6-1.2,2.8s-0.4,2.8,0,3.2c0.4,0.4,1.2-2,3.6-3.6c2-1.2,3.2-0.4,3.6-1.2
	c0.8-1.2,0-4-2-5.2c-1.6-1.2-4-1.6-4.4-0.8C396.2,780.5,397.8,782.1,397,784.1z"/>
<path class="st23" d="M409.5,791.8c-0.4,1.6,0.4,2.8,0.8,3.6c1.2,1.6,3.6,1.2,4.4,0.8c1.6-0.4,4-0.8,3.6-1.6c0-0.8-2.8,0-4.8-2
	c-1.2-1.2-1.6-2.4-2.4-2.4C410.3,790.1,409.5,790.9,409.5,791.8z"/>
<path class="st22" d="M276.9,995.7c0-0.8-4-1.6-8.5-4c-4.4-2.8-5.6-5.2-6.9-5.2c-0.8,0.4-0.8,1.2,0,10.9c0.8,6,1.2,8.1,1.6,8.1
	c1.2-0.4,0.8-6,4.8-8.5C272.1,994.5,276.9,996.5,276.9,995.7z"/>
<path class="st23" d="M409.9,803.8c1.6-0.8,2.8,1.2,4.8,0.8c2.4-0.8,2-4.8,2.8-4.8c1.2,0,2.4,3.2,2.4,6.9c0,0.4-0.4,4-2.4,4.8
	c-1.2,0.4-1.6-0.4-4-1.2c-2.8-1.2-4.4-0.4-4.8-1.6C408.3,807.1,408.7,804.7,409.9,803.8z"/>
<path class="st12" d="M207.6,781.3c2.8-4,1.2-9.7-2-12.9c-4-5.2-9.3-2.4-23-6c-10.5-3.2-11.3-5.2-21-6.9c-8.1-1.2-12.9-2-15.7,0.8
	c-4.8,4.4,4.4,12.9,5.2,31.8c0.8,14.1-3.6,20.6,1.2,24.6c4.8,3.6,13.3,3.2,19.8-0.4c10.1-5.6,6.4-14.5,17.3-22.2
	C197.5,783.7,204.8,785.7,207.6,781.3z"/>
<path class="st22" d="M178.6,773.6c0.4-2.4,5.2-5.6,7.3-4.8c1.6,0.4,0.4,2.8,2.4,5.6c2,2.8,4.4,2.4,4.8,4c0.8,4-15.3,11.7-16.5,10.5
	c-0.8-0.8,7.3-5.2,6-9.7C182.2,776,178.2,776,178.6,773.6z"/>
<path class="st22" d="M166.9,771.6c0-0.8-4-1.6-8.5-4c-4.4-2.8-5.6-5.2-6.9-5.2c-0.8,0.4-0.8,1.2,0,10.9c0.8,6,1.2,8.1,1.6,8.1
	c1.2-0.4,0.8-6,4.8-8.5C162,770.4,166.9,772.4,166.9,771.6z"/>
<g id="Ebene_1_00000105394206495958893710000000907105606858611385_">
	<g id="Ebene_2_00000037695081456361326870000000537167486581588369_">
	</g>
	<g id="Ebene_1_00000061445211855329728190000003209767103334527892_">
		<polygon class="st21" points="795.8,769.9 964.9,672.3 1134.2,770.1 1134.4,965.6 965.2,1063.3 795.9,965.4 		"/>
	</g>
	<path class="st33" d="M1013.7,1012.9"/>
</g>
<g id="Ebene_2_00000111873578797776195800000016808568050078377628_">
	<path class="st34" d="M815,903.4c7.8,22.7,50.8,35.9,58.5,38.2c14.2,4.4,40.5,12.1,74.7,7.2c12.3-1.8,31.3-4.7,52-17.3
		c26.2-16,37.2-36.7,47.2-55.5c1.6-2.9,6.4-12.3,3.6-14.9c-2.8-2.7-10.2,4.5-20.3,4.8c-11.9,0.3-19.8-9.2-27.5-15.5
		c-13.8-11.4-28-13.9-54.9-18.5c-61.5-10.6-111.8,22.6-124.2,36.4c-3,3.3-9.9,11-10.8,22.1C813.2,890.3,812.7,896.7,815,903.4z"/>
	<path class="st35" d="M870,928.5c-3.2,4.1-51.2-15-50.7-37c0.5-29,85.1-51.5,86.6-48.4c0.3,0.6-15.8,6.5-35.8,22.7
		c-12.5,10.1-18.8,15.3-20.3,23.3C846,908.4,872.5,925.2,870,928.5z"/>
	<path class="st35" d="M862.2,889.7c1.7-5.9,6.7-7.3,23.3-18.5c25.4-17.1,21.7-19.1,32.2-23.5c16.1-6.7,41-8.6,57.4,3.2
		c7.6,5.5,8,10,20.3,18.5c12,8.3,17.1,7.8,19.1,12.5c4.6,10.8-13.9,32-33.5,43.6c-26.8,15.9-65.7,19.7-93.8,1.2
		C874.9,918.6,858.7,902.2,862.2,889.7z"/>
	<path class="st36" d="M967.3,735.6c-3.8,18.7-5.8,28.8-13.1,38.8c-1.5,2-2.7,3.4-3.1,3.8c-12.3,14.1-37.9,28.1-51.9,19.5
		c-12.2-7.5-12.5-30.5-8.3-45.4c11.2-40.6,66.2-63.4,78.2-52.6C973.7,704,971.6,714.5,967.3,735.6z"/>
	<path class="st36" d="M1050.3,856.2c-1,3,1.6,7.5,4.8,8.3c4.2,1.2,8.7-4,10.9-6.4c11.6-13.1,16.7-50.4,1-85.5
		c-8.2-18.3-19.2-29.6-32.2-43c-19.3-19.8-32.7-25.6-37.6-27.5c-12.6-4.9-30.4-8.3-32.2-4.4c-1.1,2.4,3.5,8,5.9,7.4
		c1.2-0.3,1.2-1.9,2.4-3c3.6-3.4,14.1,2.3,15.3,2.9c57.7,31.7,71.9,68.8,71.9,68.8c13.1,34.2,9.1,72.9-2.3,77.5
		C1056.2,852.2,1051.3,853,1050.3,856.2z"/>
	<path class="st37" d="M951.8,704.6c-7.6-5.1-28,10.8-39.4,25.7c-10.9,14.1-23,39.7-13.1,54.3c1.1,1.7,3.8,5.7,8.3,6.6
		c14.9,2.9,31.9-31.4,34-35.8C948.7,740.8,960.4,710.3,951.8,704.6z"/>
	<path class="st38" d="M1050.3,866.4c-0.1-3.4-1.5-5.6-0.9-6c1-0.6,3.3,4.7,7,5.3c4.3,0.7,6.3-6.1,12.4-10.1
		c5.7-3.7,11.8-2.9,18.8-2.4c27.7,2.1,47-1.4,47.1,0.6c0.1,1-4.8,2.3-11.9,4.2c-2.1,0.6-5.5,1.5-9.3,2.1c-8.7,1.3-11.6-0.4-24.2-0.8
		c-8.3-0.3-12.5-0.4-15.8,0.9c-2.5,1-6.5,4.7-14.6,12.3c-1.5,1.4-3.3,3.1-3.3,5.4c0,2.9,2.8,5,3.6,5.7c8.7,7.1,21.2,33.4,26.6,48.7
		c2.5,7.2,5.7,16.6,5.7,29.3c0,6.6-0.1,15-4.8,23.9c-6,11.5-16.9,18.4-18,17.4c-1-0.9,6.5-8.4,11-16.4c20.2-36.9-17-102.2-29.4-99.8
		c-2.9,0.6-5.3,4.9-7.8,9.3c-2.4,4.3-3.3,7.9-4.8,14.6c-1.7,7.8-2.3,14.1-2.7,18.5c-0.3,4-0.4,6.9-0.6,11
		c-0.7,21.1-0.4,22.3-0.8,26.8c-0.1,1.1-1.4,15.7-7.9,27.8c-8.9,16.6-24.9,23.9-34.9,28.4c-39.2,17.3-80.9,9.1-80.9,7.1
		c0-1.3,19.1-3.2,32.5-4.5c8.3-0.8,11.1-0.8,14.9-1.2c9.8-0.9,37.6-3.5,54.9-20.9c14.9-15,18.5-37.5,14.7-39.7
		c-2.5-1.5-7.2,6.5-21.8,14.1c-10,5.2-18.7,7-23.9,8.1c-12.9,2.7-22.8,2.1-35.2,1.2c-14.9-1-25.7-3.1-36.7-5.4
		c-24.6-5-42.5-11-48.7-13.1c-9.3-3.2-18.5-6.5-30.2-12.3c-19.2-9.5-34.8-20.8-34.2-21.8c0.5-0.9,13.7,6.9,41.1,19.1
		c19.8,8.8,29.6,13.2,42.7,17c19,5.5,34.2,7.2,50.5,9c15.6,1.7,24.7,1.7,31.6,1.5c11-0.4,19.1-0.8,29.3-4.4
		c2.4-0.8,12.1-4.4,22.4-12.4c5.1-4,8.4-6.6,11-11.3c2.8-5.1,3.3-9.8,4.3-18.8c0.9-8.1,0.1-8.5,1-16.1c0.6-5.1,1.2-10.2,3.5-16.4
		c2.7-7.9,6.9-14.5,8.3-16.6c1.3-2.1,3.2-4.8,5.3-9.1C1050,870.5,1050.4,868.3,1050.3,866.4z"/>
	<path class="st39" d="M1126.8,957.2c-0.3,0.9-14.3-1.3-27.5-10.4c-6-4.2-11.5-8-13.4-14.6c-0.9-3-0.7-5.4-2.7-9.8
		c-2.4-5.3-5.6-8.3-5-8.8c0.4-0.4,3.1,1.4,5.2,3.4c2.4,2.3,3.8,4.6,6.1,9c2,3.7,3,5.6,4.2,8.2
		C1099.3,946.5,1127.2,955.9,1126.8,957.2z"/>
	<path class="st39" d="M1061.7,980.2c0.7-5.4,2.3-9.3,3.9-12.9c8.6-19.9,9.8-19.3,11-25.1c2.5-11.1-0.3-20.2,0.8-20.3
		c0.6-0.1,1.7,3.3,3.7,10.2c1.6,5.4,2.5,8.2,2.4,9.6c-0.2,5.4-4,7.1-9,14.6c-4.4,6.7-6.4,12.7-8.1,17.9c-3.4,10.7-3.3,18.3-4.2,18.2
		C1061.5,992.4,1060.8,986.4,1061.7,980.2z"/>
	<path class="st39" d="M1005,970.4c-3.7,2.1-6,3.4-8,4.2c-8.4,2.9-17.1-2.7-22.8-5.5c-22.3-11-45.9-3.1-46-5
		c-0.1-1.5,14.8-6.5,31.6-3.6c15.6,2.7,18.3,9.7,31.4,9.6c13.9-0.2,24.4-8.4,24.9-7.4C1016.5,963.4,1009,968,1005,970.4z"/>
	<path class="st39" d="M1034.6,936.8c-0.8,1.6-0.1,2.2-0.3,7.8c-0.1,3.9-0.5,6.2-0.2,6.3c0.5,0.1,0.9-5.1,4.8-9.2
		c1.8-1.9,2.5-1.6,4-3c4.8-4.4,1.5-10.5,4.7-19c2.7-7.3,7.9-10.6,7.1-11.4c-0.6-0.7-5,1.7-8.1,5.4c-3.3,4-4.2,8.7-4.4,10
		c-0.8,4.6,0.5,5.6-1,7.9C1039.4,934.7,1036.2,933.7,1034.6,936.8z"/>
	<path class="st39" d="M926.5,984.8c0.2-0.4,2.6,0.6,7.3,1c2.2,0.2,2.4,0,3.6,0.2c3.9,0.5,6.1,2.8,8.3,4.3c3.2,2.1,6.1,2.6,11.9,3.6
		c10.3,1.7,17.7-1.3,17.9-0.6c0.2,0.6-6,3.1-12.9,4.2c-4.3,0.6-8.1,1.2-12.9,0c-5-1.3-7.1-3.7-8.3-2.7c-1.7,1.3,1.8,5.8,0.9,12.9
		c-0.6,4.4-2.6,7.9-3.3,7.8c-0.9-0.2,0.4-5.9-0.8-14.9c-0.5-3.3-0.7-5-1.6-6.7C933.6,987.5,926.3,985.5,926.5,984.8z"/>
	<path class="st39" d="M1085.2,853.1c0.2,0.6,2.3,0.7,6.6,0.8c3,0.1,4.5,0.1,5.1-0.1c3.2-1,4.7-4.7,7.5-11.9
		c1.5-3.7,2.2-5.6,2.7-8.3c0.9-5,0-6.4,1.5-8.3c1.8-2.3,4-1.7,8.7-3.9c2.8-1.3,4.4-2.7,7.6-5.6c6.1-5.3,10.3-11.1,9.9-11.4
		c-0.4-0.4-5.4,6.1-15.1,11c-4.5,2.3-7.5,3.7-10.4,2.7c-4.7-1.7-4.2-7.8-8.7-9.3c-4.8-1.6-11,3.5-10.6,4.7c0.4,1,5.9-2,10,0.7
		c4.1,2.7,4.2,9.3,4.2,11.9c0.1,9.3-5.3,15.9-6,16.7C1092.4,849.6,1084.6,851.6,1085.2,853.1z"/>
	<path class="st39" d="M839.8,954.6c-2.8-1.7-3.4-3.9-6.2-8.3c-2.2-3.5-3.7-6-5.8-7.8c-4.2-3.8-7.7-2.8-17.7-5.4
		c-6.5-1.8-13.9-4.6-13.7-5.3c0.2-0.7,6.9,1.4,25.4,4.7c3.6,0.6,6,1,8.4,2.9c4,3.1,3.3,6.4,8,10.7c2.5,2.4,3,1.7,6.7,4.6
		c5.4,4.2,8.9,9.3,8.4,9.8c-0.4,0.4-2.5-1.9-7.5-3.9C842.1,955.2,841.7,955.8,839.8,954.6z"/>
	<path class="st39" d="M883,975.4c0.5-0.6,2.1,0.6,5.8,1.6c4.2,1,6,0.5,6.4,1.6c0.7,1.5-1.9,4-3.3,5.5c-4.5,4.5-7.5,5-10.2,7.2
		c-7.5,6.1-4.8,18.9-6.3,18.9c-1.3,0-5-8.6-1.7-15.6c3.4-7.2,12.3-8.5,11.9-13.4C885.6,978.2,882.4,976.2,883,975.4z"/>
	<path class="st39" d="M1017.6,1005.7c-5.6,7-8.5,7.2-12.4,13.5c-1.6,2.6-2.5,4.9-2.9,5.9c-1.3,3.5-1.6,5.9-1.9,7.7
		c-1.9,8.7-8.9,13.5-8.4,14.1c0.5,0.5,7.2-3.2,12.3-10.5c6.3-8.9,2.9-12.5,9.2-19.7c3.6-4.1,6.9-5.5,9.1-11c1.3-3.3,1.9-7.2,1-7.6
		C1022.8,997.9,1021.4,1001.1,1017.6,1005.7z"/>
</g>
</svg>
