<svg id="Ebene_1" data-name="Ebene 1" xmlns="http://www.w3.org/2000/svg" viewBox="0 0 1924.86 275.68"><defs><style>.cls-1{fill:#1d0034;}.cls-2{fill:#ffdcff;opacity:0.25;}.cls-2,.cls-3,.cls-4{isolation:isolate;}.cls-3{fill:#ffdc8c;opacity:0.5;}.cls-4{fill:#ffdca5;opacity:0.75;}.cls-5{fill:#ffdcbe;}.cls-6{fill:#ffdcd2;}.cls-15,.cls-7{fill:#2a1e12;}.cls-11,.cls-12,.cls-13,.cls-14,.cls-15,.cls-16,.cls-18,.cls-7{stroke:#000;stroke-miterlimit:10;}.cls-7{stroke-width:2px;}.cls-8{fill:#693615;}.cls-9{fill:#503c15;}.cls-10{fill:#502814;}.cls-11{fill:#a67c52;}.cls-12{fill:#332418;}.cls-13{fill:#211815;}.cls-14{fill:#1e1206;}.cls-16{fill:#190000;}.cls-16,.cls-18{stroke-width:4px;}.cls-17{fill:#fff;}</style></defs><g id="Ebene_2" data-name="Ebene 2"><rect class="cls-1" x="1.93" y="1.49" width="1920" height="274"/></g><g id="Mond"><path class="cls-2" d="M1255.39,1.58a5.47,5.47,0,0,1-1.77.29c-18.51,0-37,.24-55.52-.15-33.74-.71-67.44-.81-101.19,0-2.45.06-4.9.09-7.34.11C1058.78,64.57,993.76,95.9,1001,113.89c13.12,32.56,253.67-2.49,291.83-112.4Q1274.11,1.6,1255.39,1.58Z" transform="translate(1.93 0.49)"/><path class="cls-2" d="M1605.84-.11,641.56-.49c-52,89.25-73.33,176.3-50.38,226.48,11.9,25.9,44.9,62.5,550.5,36.7,491.9-25.1,514.2-62.4,520.7-82.2C1676.09,138.73,1653.56,71.33,1605.84-.11Z" transform="translate(1.93 0.49)"/><path class="cls-3" d="M1255.39,1.58a5.47,5.47,0,0,1-1.77.29c-18.51,0-37,.24-55.52-.15q-25.81-.54-51.62-.57c-37.55,60.7-125.69,91.64-121.4,103.64,6.18,17.13,200.9-7.47,236.63-103.22Z" transform="translate(1.93 0.49)"/><path class="cls-4" d="M1198.1,1.72q-22.49-.48-44.95-.55c-32,51.82-97.36,80.05-92.77,91C1067,108,1217.51,84.65,1250.55,1.88,1233.07,1.91,1215.58,2.09,1198.1,1.72Z" transform="translate(1.93 0.49)"/><path class="cls-5" d="M1198.1,1.72q-17.25-.36-34.5-.5C1138,47,1084.07,69.85,1087.68,77.89c4.93,10.93,116.4-5.38,147.25-76C1222.65,2,1210.38,2,1198.1,1.72Z" transform="translate(1.93 0.49)"/><path class="cls-6" d="M1198.1,1.72q-10.92-.22-21.84-.37c-23,38.17-67.67,57.23-65.08,62.74,3.35,7,83.08-8.11,111.68-62.14C1214.61,1.94,1206.35,1.9,1198.1,1.72Z" transform="translate(1.93 0.49)"/></g><g id="Baum"><path class="cls-7" d="M434.28,169.69c-17.5-18.4-37.7-31.4-36-49,.5-5.5,3.4-14-1-18-2.9-2.6-6.3-.8-10-2-12.6-4.1-19.6-40.3-7-67,1.8-3.8,6.2-10.9,15-25,1.88-3,3.37-5.36,4.59-7.25-3.64-.05-7.27-.12-10.9-.18-2.4,3.13-5,6.29-7.69,9.43-4.9,5.7-9.4,10.2-12,9-1.8-.8-2.1-4.2-2-7A44.88,44.88,0,0,1,369.19,1c-4.41,0-8.83-.06-13.24,0-5.81,0-11.62,0-17.43-.13,9.14,29.08,13.62,44.67,6.76,50.88-11.1,10.1-32.8-14.2-72-11-31.5,2.5-58.2,21.4-57,25,.8,2.6,16.9-.3,21-1a135.87,135.87,0,0,0,27-8c22.9-8.5,63,3.5,77,28,6.5,11.3,5,28.2,2,62-2.3,25.8-8.6,29.3-5,37,13.6,29.3,106.7,22.9,110.6,5.1C449.28,186.79,448.88,185,434.28,169.69Z" transform="translate(1.93 0.49)"/><path class="cls-8" d="M200.83,1.35l-1.65,2.84,4.7,8.2h9.3l4.7-8.2-1.6-2.77Z" transform="translate(1.93 0.49)"/><path d="M215.64,1.41l1.64,2.88-4.4,7.7h-8.8l-4.4-7.7,1.68-2.94h-1.19l-1.69,2.94,5,8.7h10l5-8.7-1.65-2.87Z" transform="translate(1.93 0.49)"/><polygon class="cls-8" points="198.81 21.68 194.11 13.48 198.81 5.38 208.31 5.38 213.01 13.48 208.31 21.68 198.81 21.68"/><path d="M206.08,5.39l4.4,7.7-4.4,7.7h-8.8l-4.4-7.7,4.4-7.7h8.8m.6-1h-10l-5,8.7,5,8.7h10l5-8.7-5-8.7Z" transform="translate(1.93 0.49)"/><polygon class="cls-8" points="225.81 51.68 221.11 43.48 225.81 35.38 235.31 35.38 240.01 43.48 235.31 51.68 225.81 51.68"/><path d="M233.08,35.39l4.4,7.7-4.4,7.7h-8.8l-4.4-7.7,4.4-7.7h8.8m.6-1h-10l-5,8.7,5,8.7h10l5-8.7-5-8.7Z" transform="translate(1.93 0.49)"/><polygon class="cls-8" points="178.81 75.68 174.11 67.48 178.81 59.38 188.31 59.38 193.01 67.48 188.31 75.68 178.81 75.68"/><path d="M186.08,59.39l4.4,7.7-4.4,7.7h-8.8l-4.4-7.7,4.4-7.7h8.8m.6-1h-10l-5,8.7,5,8.7h10l5-8.7-5-8.7Z" transform="translate(1.93 0.49)"/><polygon class="cls-8" points="229.81 90.68 225.11 82.48 229.81 74.38 239.31 74.38 244.01 82.48 239.31 90.68 229.81 90.68"/><path d="M237.08,74.39l4.4,7.7-4.4,7.7h-8.8l-4.4-7.7,4.4-7.7h8.8m.6-1h-10l-5,8.7,5,8.7h10l5-8.7-5-8.7Z" transform="translate(1.93 0.49)"/><polygon class="cls-8" points="263.81 26.68 259.21 18.48 263.81 10.38 273.21 10.38 278.01 18.48 273.21 26.68 263.81 26.68"/><path d="M271.08,10.39l4.4,7.7-4.4,7.7h-8.8l-4.4-7.7,4.4-7.7h8.8m.6-1h-10l-5,8.7,5,8.7h10l5-8.7-5-8.7Z" transform="translate(1.93 0.49)"/><polygon class="cls-8" points="256.81 66.68 252.11 58.48 256.81 50.38 266.21 50.38 271.01 58.48 266.21 66.68 256.81 66.68"/><path d="M264.08,50.39l4.4,7.7-4.4,7.7h-8.8l-4.4-7.7,4.4-7.7h8.8m.6-1h-10l-5,8.7,5,8.7h10l5-8.7-5-8.7Z" transform="translate(1.93 0.49)"/><polygon class="cls-8" points="176.81 42.68 172.11 34.48 176.81 26.38 186.31 26.38 191.01 34.48 186.31 42.68 176.81 42.68"/><path d="M184.08,26.39l4.4,7.7-4.4,7.7h-8.8l-4.4-7.7,4.4-7.7h8.8m.6-1h-10l-5,8.7,5,8.7h10l5-8.7-5-8.7Z" transform="translate(1.93 0.49)"/><polygon class="cls-8" points="205.81 65.68 201.11 57.48 205.81 49.38 215.31 49.38 220.01 57.48 215.31 65.68 205.81 65.68"/><path d="M213.08,49.39l4.4,7.7-4.4,7.7h-8.8l-4.4-7.7,4.4-7.7h8.8m.6-1h-10l-5,8.7,5,8.7h10l5-8.7-5-8.7Z" transform="translate(1.93 0.49)"/><polygon class="cls-8" points="251.81 26.68 247.11 18.48 251.81 10.38 261.21 10.38 266.01 18.48 261.21 26.68 251.81 26.68"/><path d="M259.08,10.39l4.4,7.7-4.4,7.7h-8.8l-4.4-7.7,4.4-7.7h8.8m.6-1h-10l-5,8.7,5,8.7h10l5-8.7-5-8.7Z" transform="translate(1.93 0.49)"/><polygon class="cls-8" points="222.81 78.68 218.11 70.48 222.81 62.38 232.31 62.38 237.01 70.48 232.31 78.68 222.81 78.68"/><path d="M230.08,62.39l4.4,7.7-4.4,7.7h-8.8l-4.4-7.7,4.4-7.7h8.8m.6-1h-10l-5,8.7,5,8.7h10l5-8.7-5-8.7Z" transform="translate(1.93 0.49)"/><polygon class="cls-8" points="198.81 39.68 194.11 31.48 198.81 23.38 208.31 23.38 213.01 31.48 208.31 39.68 198.81 39.68"/><path d="M206.08,23.39l4.4,7.7-4.4,7.7h-8.8l-4.4-7.7,4.4-7.7h8.8m.6-1h-10l-5,8.7,5,8.7h10l5-8.7-5-8.7Z" transform="translate(1.93 0.49)"/><polygon class="cls-8" points="222.81 39.68 218.11 31.48 222.81 23.38 232.31 23.38 237.01 31.48 232.31 39.68 222.81 39.68"/><path d="M230.08,23.39l4.4,7.7-4.4,7.7h-8.8l-4.4-7.7,4.4-7.7h8.8m.6-1h-10l-5,8.7,5,8.7h10l5-8.7-5-8.7Z" transform="translate(1.93 0.49)"/><polygon class="cls-9" points="237.81 71.68 233.11 63.48 237.81 55.38 247.31 55.38 252.01 63.48 247.31 71.68 237.81 71.68"/><path d="M245.08,55.39l4.4,7.7-4.4,7.7h-8.8l-4.4-7.7,4.4-7.7h8.8m.6-1h-10l-5,8.7,5,8.7h10l5-8.7-5-8.7Z" transform="translate(1.93 0.49)"/><polygon class="cls-9" points="186.81 54.68 182.11 46.48 186.81 38.38 196.31 38.38 201.01 46.48 196.31 54.68 186.81 54.68"/><path d="M194.08,38.39l4.4,7.7-4.4,7.7h-8.8l-4.4-7.7,4.4-7.7h8.8m.6-1h-10l-5,8.7,5,8.7h10l5-8.7-5-8.7Z" transform="translate(1.93 0.49)"/><polygon class="cls-9" points="212.81 51.68 208.11 43.48 212.81 35.38 222.31 35.38 227.01 43.48 222.31 51.68 212.81 51.68"/><path d="M220.08,35.39l4.4,7.7-4.4,7.7h-8.8l-4.4-7.7,4.4-7.7h8.8m.6-1h-10l-5,8.7,5,8.7h10l5-8.7-5-8.7Z" transform="translate(1.93 0.49)"/><polygon class="cls-9" points="251.81 52.68 247.11 44.48 251.81 36.38 261.21 36.38 266.01 44.48 261.21 52.68 251.81 52.68"/><path d="M259.08,36.39l4.4,7.7-4.4,7.7h-8.8l-4.4-7.7,4.4-7.7h8.8m.6-1h-10l-5,8.7,5,8.7h10l5-8.7-5-8.7Z" transform="translate(1.93 0.49)"/><polygon class="cls-9" points="188.81 87.68 184.11 79.48 188.81 71.38 198.31 71.38 203.01 79.48 198.31 87.68 188.81 87.68"/><path d="M196.08,71.39l4.4,7.7-4.4,7.7h-8.8l-4.4-7.7,4.4-7.7h8.8m.6-1h-10l-5,8.7,5,8.7h10l5-8.7-5-8.7Z" transform="translate(1.93 0.49)"/><polygon class="cls-9" points="171.81 30.68 167.11 22.48 171.81 14.38 181.31 14.38 186.01 22.48 181.31 30.68 171.81 30.68"/><path d="M179.08,14.39l4.4,7.7-4.4,7.7h-8.8l-4.4-7.7,4.4-7.7h8.8m.6-1h-10l-5,8.7,5,8.7h10l5-8.7-5-8.7Z" transform="translate(1.93 0.49)"/><polygon class="cls-9" points="232.81 30.68 228.11 22.48 232.81 14.38 242.31 14.38 247.01 22.48 242.31 30.68 232.81 30.68"/><path d="M240.08,14.39l4.4,7.7-4.4,7.7h-8.8l-4.4-7.7,4.4-7.7h8.8m.6-1h-10l-5,8.7,5,8.7h10l5-8.7-5-8.7Z" transform="translate(1.93 0.49)"/><polygon class="cls-9" points="188.81 30.68 184.11 22.48 188.81 14.38 198.31 14.38 203.01 22.48 198.31 30.68 188.81 30.68"/><path d="M196.08,14.39l4.4,7.7-4.4,7.7h-8.8l-4.4-7.7,4.4-7.7h8.8m.6-1h-10l-5,8.7,5,8.7h10l5-8.7-5-8.7Z" transform="translate(1.93 0.49)"/><polygon class="cls-9" points="217.81 71.68 213.11 63.48 217.81 55.38 227.31 55.38 232.01 63.48 227.31 71.68 217.81 71.68"/><path d="M225.08,55.39l4.4,7.7-4.4,7.7h-8.8l-4.4-7.7,4.4-7.7h8.8m.6-1h-10l-5,8.7,5,8.7h10l5-8.7-5-8.7Z" transform="translate(1.93 0.49)"/><path class="cls-9" d="M213.42,1.4l4.46,7.79h9.5l4.41-7.69Z" transform="translate(1.93 0.49)"/><path d="M231.25,1.49l-4.17,7.3h-8.8L214.06,1.4h-1.2l4.82,8.39h10l4.77-8.29Z" transform="translate(1.93 0.49)"/><polygon class="cls-9" points="266.81 75.68 262.21 67.48 266.81 59.38 276.21 59.38 281.01 67.48 276.21 75.68 266.81 75.68"/><path d="M274.08,59.39l4.4,7.7-4.4,7.7h-8.8l-4.4-7.7,4.4-7.7h8.8m.6-1h-10l-5,8.7,5,8.7h10l5-8.7-5-8.7Z" transform="translate(1.93 0.49)"/><polygon class="cls-9" points="215.81 99.68 211.11 91.48 215.81 83.38 225.31 83.38 230.01 91.48 225.31 99.68 215.81 99.68"/><path d="M223.08,83.39l4.4,7.7-4.4,7.7h-8.8l-4.4-7.7,4.4-7.7h8.8m.6-1h-10l-5,8.7,5,8.7h10l5-8.7-5-8.7Z" transform="translate(1.93 0.49)"/><polygon class="cls-9" points="237.81 51.68 233.11 43.48 237.81 35.38 247.31 35.38 252.01 43.48 247.31 51.68 237.81 51.68"/><path d="M245.08,35.39l4.4,7.7-4.4,7.7h-8.8l-4.4-7.7,4.4-7.7h8.8m.6-1h-10l-5,8.7,5,8.7h10l5-8.7-5-8.7Z" transform="translate(1.93 0.49)"/><polygon class="cls-9" points="212.81 24.68 208.11 16.48 212.81 8.38 222.31 8.38 227.01 16.48 222.31 24.68 212.81 24.68"/><path d="M220.08,8.39l4.4,7.7-4.4,7.7h-8.8l-4.4-7.7,4.4-7.7h8.8m.6-1h-10l-5,8.7,5,8.7h10l5-8.7-5-8.7Z" transform="translate(1.93 0.49)"/><polygon class="cls-9" points="178.81 18.68 174.11 10.48 178.81 2.38 188.31 2.38 193.01 10.48 188.31 18.68 178.81 18.68"/><path d="M186.08,2.39l4.4,7.7-4.4,7.7h-8.8l-4.4-7.7,4.4-7.7h8.8m.6-1h-10l-5,8.7,5,8.7h10l5-8.7-5-8.7Z" transform="translate(1.93 0.49)"/><polygon class="cls-9" points="168.81 66.68 164.11 58.48 168.81 50.38 178.31 50.38 183.01 58.48 178.31 66.68 168.81 66.68"/><path d="M176.08,50.39l4.4,7.7-4.4,7.7h-8.8l-4.4-7.7,4.4-7.7h8.8m.6-1h-10l-5,8.7,5,8.7h10l5-8.7-5-8.7Z" transform="translate(1.93 0.49)"/><path class="cls-9" d="M250.39,1.47,247.18,7l4.7,8.2h9.4l4.8-8.2L262.7,1.27Q256.55,1.41,250.39,1.47Z" transform="translate(1.93 0.49)"/><path d="M262.17,1.29l3.31,5.8-4.4,7.7h-8.8l-4.4-7.7,3.22-5.63h-1.19l-3.23,5.62,5,8.7h10l5-8.7-3.34-5.83Z" transform="translate(1.93 0.49)"/><polygon class="cls-9" points="273.81 52.68 269.21 44.48 273.81 36.38 283.21 36.38 288.01 44.48 283.21 52.68 273.81 52.68"/><path d="M281.08,36.39l4.4,7.7-4.4,7.7h-8.8l-4.4-7.7,4.4-7.7h8.8m.6-1h-10l-5,8.7,5,8.7h10l5-8.7-5-8.7Z" transform="translate(1.93 0.49)"/><polygon class="cls-9" points="251.81 99.68 247.11 91.48 251.81 83.38 261.21 83.38 266.01 91.48 261.21 99.68 251.81 99.68"/><path d="M259.08,83.39l4.4,7.7-4.4,7.7h-8.8l-4.4-7.7,4.4-7.7h8.8m.6-1h-10l-5,8.7,5,8.7h10l5-8.7-5-8.7Z" transform="translate(1.93 0.49)"/><polygon class="cls-10" points="242.81 93.68 238.11 85.48 242.81 77.38 252.31 77.38 257.01 85.48 252.31 93.68 242.81 93.68"/><path d="M250.08,77.39l4.4,7.7-4.4,7.7h-8.8l-4.4-7.7,4.4-7.7h8.8m.6-1h-10l-5,8.7,5,8.7h10l5-8.7-5-8.7Z" transform="translate(1.93 0.49)"/><polygon class="cls-10" points="200.81 91.68 196.11 83.48 200.81 75.38 210.31 75.38 215.01 83.48 210.31 91.68 200.81 91.68"/><path d="M208.08,75.39l4.4,7.7-4.4,7.7h-8.8l-4.4-7.7,4.4-7.7h8.8m.6-1h-10l-5,8.7,5,8.7h10l5-8.7-5-8.7Z" transform="translate(1.93 0.49)"/><polygon class="cls-10" points="190.81 72.68 186.11 64.48 190.81 56.38 200.31 56.38 205.01 64.48 200.31 72.68 190.81 72.68"/><path d="M198.08,56.39l4.4,7.7-4.4,7.7h-8.8l-4.4-7.7,4.4-7.7h8.8m.6-1h-10l-5,8.7,5,8.7h10l5-8.7-5-8.7Z" transform="translate(1.93 0.49)"/><polygon class="cls-10" points="199.81 52.68 195.11 44.48 199.81 36.38 209.31 36.38 214.01 44.48 209.31 52.68 199.81 52.68"/><path d="M207.08,36.39l4.4,7.7-4.4,7.7h-8.8l-4.4-7.7,4.4-7.7h8.8m.6-1h-10l-5,8.7,5,8.7h10l5-8.7-5-8.7Z" transform="translate(1.93 0.49)"/><polygon class="cls-10" points="213.81 37.68 209.11 29.48 213.81 21.38 223.31 21.38 228.01 29.48 223.31 37.68 213.81 37.68"/><path d="M221.08,21.39l4.4,7.7-4.4,7.7h-8.8l-4.4-7.7,4.4-7.7h8.8m.6-1h-10l-5,8.7,5,8.7h10l5-8.7-5-8.7Z" transform="translate(1.93 0.49)"/><polygon class="cls-10" points="160.81 52.68 156.11 44.48 160.81 36.38 170.31 36.38 175.01 44.48 170.31 52.68 160.81 52.68"/><path d="M168.08,36.39l4.4,7.7-4.4,7.7h-8.8l-4.4-7.7,4.4-7.7h8.8m.6-1h-10l-5,8.7,5,8.7h10l5-8.7-5-8.7Z" transform="translate(1.93 0.49)"/><path class="cls-10" d="M185.8,1.3l1.08,1.89h9.5l1.06-1.85Z" transform="translate(1.93 0.49)"/><path d="M196.91,1.34l-.83,1.45h-8.8l-.84-1.48h-1.19l1.43,2.49h10l1.41-2.45Z" transform="translate(1.93 0.49)"/><polygon class="cls-10" points="246.81 37.68 242.11 29.48 246.81 21.38 256.31 21.38 261.01 29.48 256.31 37.68 246.81 37.68"/><path d="M254.08,21.39l4.4,7.7-4.4,7.7h-8.8l-4.4-7.7,4.4-7.7h8.8m.6-1h-10l-5,8.7,5,8.7h10l5-8.7-5-8.7Z" transform="translate(1.93 0.49)"/><polygon class="cls-10" points="259.81 87.68 255.11 79.48 259.81 71.38 269.21 71.38 274.01 79.48 269.21 87.68 259.81 87.68"/><path d="M267.08,71.39l4.4,7.7-4.4,7.7h-8.8l-4.4-7.7,4.4-7.7h8.8m.6-1h-10l-5,8.7,5,8.7h10l5-8.7-5-8.7Z" transform="translate(1.93 0.49)"/><path class="cls-10" d="M237.3,1.52h-2.68L233.18,4l4.7,8.2h9.5l4.7-8.2-1.46-2.52C246.18,1.52,241.75,1.54,237.3,1.52Z" transform="translate(1.93 0.49)"/><path d="M250,1.47l1.49,2.62-4.4,7.7h-8.8l-4.4-7.7,1.47-2.58h-1.18l-1.49,2.58,5,8.7h10l5-8.7-1.51-2.63Z" transform="translate(1.93 0.49)"/><polygon class="cls-10" points="223.81 57.68 219.11 49.48 223.81 41.38 233.31 41.38 238.01 49.48 233.31 57.68 223.81 57.68"/><path d="M231.08,41.39l4.4,7.7-4.4,7.7h-8.8l-4.4-7.7,4.4-7.7h8.8m.6-1h-10l-5,8.7,5,8.7h10l5-8.7-5-8.7Z" transform="translate(1.93 0.49)"/><polygon class="cls-10" points="166.81 25.68 162.11 17.48 166.81 9.38 176.31 9.38 181.01 17.48 176.31 25.68 166.81 25.68"/><path d="M174.08,9.39l4.4,7.7-4.4,7.7h-8.8l-4.4-7.7,4.4-7.7h8.8m.6-1h-10l-5,8.7,5,8.7h10l5-8.7-5-8.7Z" transform="translate(1.93 0.49)"/><polygon class="cls-10" points="266.81 39.68 262.21 31.48 266.81 23.38 276.21 23.38 281.01 31.48 276.21 39.68 266.81 39.68"/><path d="M274.08,23.39l4.4,7.7-4.4,7.7h-8.8l-4.4-7.7,4.4-7.7h8.8m.6-1h-10l-5,8.7,5,8.7h10l5-8.7-5-8.7Z" transform="translate(1.93 0.49)"/><polygon class="cls-10" points="279.81 66.68 275.21 58.48 279.81 50.38 289.21 50.38 294.01 58.48 289.21 66.68 279.81 66.68"/><path d="M287.08,50.39l4.4,7.7-4.4,7.7h-8.8l-4.4-7.7,4.4-7.7h8.8m.6-1h-10l-5,8.7,5,8.7h10l5-8.7-5-8.7Z" transform="translate(1.93 0.49)"/><path class="cls-11" d="M391.78,104.19c-2.2-.3-3.8,1.8-4,2a6,6,0,0,0,0,7c1.6,2.2,5.1,3.4,7,2,2.1-1.6,1.2-5.3,1-6S394.68,104.59,391.78,104.19Z" transform="translate(1.93 0.49)"/><path class="cls-12" d="M403.78,140.19c-2.9-4.6-7.5-12.1-6-20a28,28,0,0,0,1-9c-.2-2.8-.4-5.2-2-7-2.7-3-6.5-1.2-11-3s-6.7-6.2-9-11c-4.7-9.8-4.4-19.1-4-28a83.62,83.62,0,0,1,3-20c2.5-8.6,5.6-13.7,17-32l5.52-8.78-2.66,0c-2.48,3.31-5.4,7.22-8.86,11.82-9,12.1-12,16-12,16-8.9,11.9-8.9,11.8-9,12-7.4,12.5-6.2,26.5-5,39a116.83,116.83,0,0,0,5,24c3.5,11.6,6,19.8,13,28,5.7,6.7,11.7,10.3,18,14,9.2,5.5,19.2,9.3,20,8S409.78,149.79,403.78,140.19Z" transform="translate(1.93 0.49)"/><path class="cls-12" d="M368.63,1,364,.93a28.13,28.13,0,0,0-.18,7.26c.6,5.8,3,11.2,4,11C369,19,366.62,11.18,368.63,1Z" transform="translate(1.93 0.49)"/><path class="cls-13" d="M343.78,143.19c.6-4.4,1.3-10.5,2-18,.8-9.7,1.3-14.5,1-19-.1-.9-1.1-15.3-9-27-12.7-18.8-37.3-22-37-23,.3-.8,15-.6,28,8,36.1,23.9,30.4,94.4,27,95-.7.1-1.3-2.7-6-9A73.57,73.57,0,0,0,343.78,143.19Z" transform="translate(1.93 0.49)"/><path class="cls-13" d="M344.9.9l-6-.08c2.38,8.11,4.58,16.28,6.93,24.37a53.88,53.88,0,0,1,2,11,38.22,38.22,0,0,1,0,7c-.4,3.9-1.2,5.9-1,6s4.1-7.3,5-17a43,43,0,0,0,0-9C351,15.1,348.51,9,344.9.9Z" transform="translate(1.93 0.49)"/><path class="cls-14" d="M391.78,105.19c-1.5.4-2.3,3-2,5,.4,2.9,3.2,5.5,5,5,1.4-.4,2-2.5,2-4C396.78,107.89,393.68,104.69,391.78,105.19Z" transform="translate(1.93 0.49)"/><path class="cls-15" d="M381.28,102.09c.6-.1,1.1,2.8,3.4,3.3.9.2,1.4-.1,1.9.3.8.7.1,1.9.1,4.1a9.61,9.61,0,0,0,1.5,5.2,6.83,6.83,0,0,0,3.3,2.7c3,1.1,5.7-.7,6.3.3.3.5-.1,1.3-.4,1.6-1.1,1.4-3.5,1-4.9.7a13.42,13.42,0,0,1-5.3-2.2,15.19,15.19,0,0,1-4.4-4.7C379.68,108.29,380.38,102.29,381.28,102.09Z" transform="translate(1.93 0.49)"/></g><g id="Rasen"><path class="cls-16" d="M1825.28,194.69c-80.6-6.7-130.2-1.8-170-1-177.1,3.6-201.3-72.5-354-55-70.4,8.1-59.7,23.6-147,35-128.3,16.8-135.1-19-258-6-92.9,9.8-130.5,34.6-240,31-25.5-.8-34.1-2.5-71-6-60.6-5.7-231.3-19.3-435-3-35.16,2.78-86.4,7.73-148.72,16.81,0,15.26-.13,30.52-.13,45.78a4.68,4.68,0,0,1-1.15,3.21v17.2h1920v-66C1898.88,203,1865.88,198.09,1825.28,194.69Z" transform="translate(1.93 0.49)"/><path id="Mr" class="cls-17" d="M1920.28,275.19H957.08V270c31.5-.7,57.5-1.1,75.2-1.3,102.2-1.3,187.8-.2,218.2.2,18.5.3,22.8.4,35.6.5,54.9.3,73.8-1.7,120.4-2.4,61.6-1,65,1.8,129.4.5,43.8-.9,38.4-2.1,73.7-2.8,76.6-1.4,88.7,4.6,177.6,4.3,20-.1,44.8-.4,85.3.1,20.4.3,36.9.7,47.7.9C1920.28,271.79,1920.28,273.49,1920.28,275.19Z" transform="translate(1.93 0.49)"/><path id="ML" class="cls-17" d="M963.38,275H.18v-5.2c31.5-.7,57.5-1.1,75.2-1.3,102.2-1.3,187.8-.2,218.2.2,18.5.3,22.8.4,35.6.5,54.9.3,73.8-1.7,120.4-2.4,61.6-1,65,1.8,129.4.5,43.8-.9,38.4-2.1,73.7-2.8,76.6-1.4,88.7,4.6,177.6,4.3,20-.1,44.8-.4,85.3.1,20.4.3,36.9.7,47.7.9C963.38,271.59,963.38,273.29,963.38,275Z" transform="translate(1.93 0.49)"/></g><g id="Gras"><g id="HGras"><path class="cls-18" d="M556.68,205.69c1.6,3.6,11.2,4.6,16.6,1.5,19.5-11.3-4.1-83.2-4.9-83-.6.1,16.7,44.6-2.9,67.9C561.78,196.39,555.08,202.09,556.68,205.69Z" transform="translate(1.93 0.49)"/><path class="cls-18" d="M558.38,126.79c-.1,0-14.2,77.7,9.3,88.4,4,1.8,9.8,2.1,11.7-.5,3.6-4.9-9.9-16.6-17.6-34.2C549.78,153.09,558.38,126.79,558.38,126.79Z" transform="translate(1.93 0.49)"/><path class="cls-18" d="M703.88,218.29c-1.6-.7-.8-3.5-2-10.7-1.3-8.1-3-9.2-2-12.2,1.6-4.6,6.2-3.9,8.3-8.3s-1.2-7.9-2.9-16.1c-2.4-11.5.7-21.5,1.5-21.5s-.9,8.4,2.9,19.1c2.8,7.8,5.3,8,5.4,12.7.1,8-7.4,9.6-7.3,17.6.1,6.4,5,8.6,3.4,13.7C710.08,216.19,705.88,219.09,703.88,218.29Z" transform="translate(1.93 0.49)"/><path class="cls-18" d="M879.68,117.59c-.4,0,1.6,10.3-1,23-8.9,43.6-61.4,62.8-56,75.2,1.6,3.6,7.3,5.1,11,4.4,7-1.3,9.1-10.9,14.7-21.4,10.2-19.3,18.8-16.7,27-31.8C887.48,144.59,880.28,117.59,879.68,117.59Z" transform="translate(1.93 0.49)"/><path class="cls-18" d="M652.68,150.39c-.8-1-17.6,5.6-20,18.1-1.5,7.6,3.9,9.9,5.9,22,2.7,16.7-5.1,27.2-1.5,29.3s14.9-6.9,13.7-12.2c-.6-2.5-3.7-2.5-5.9-6.4-2-3.5-1-6.5-1-10.7,0-10-5.7-11.9-5.9-19.1C637.78,159.39,653.38,151.39,652.68,150.39Z" transform="translate(1.93 0.49)"/><path class="cls-18" d="M645.48,201.69a46.12,46.12,0,0,1-5.4,4.4c-4.7,3.2-6.7,3.1-7.3,4.9-1.3,3.6,4.3,10.9,8.8,10.3,3.1-.4,4.7-4.5,7.3-11.2a79.66,79.66,0,0,0,3.9-14.2c3.6-16.7,6-16.3,6.4-24.4.5-10.8-3.2-20.2-4.4-20-.6.1-.6,2.5-1.5,19.1-.5,9.5-.7,12.2-1.5,16.1C649.88,196.79,647,200.29,645.48,201.69Z" transform="translate(1.93 0.49)"/><path class="cls-18" d="M584.68,180.69c-.1.9-.4,3.5.5,3.9,1.7.8,6.6-5.7,9.3-10.7,7.3-13.5,5.1-28.7,3.9-28.8s1.3,14.1-7.3,23.9C589.48,170.69,585.48,174.69,584.68,180.69Z" transform="translate(1.93 0.49)"/><path class="cls-18" d="M588,150.39c-.6.2,2.4,9.6,1.5,21.1-2.3,27.6-25.4,41-21.5,51.2,1.4,3.7,5.8,5.3,8.8,4.8,10.4-1.5,17.5-28.8,16.6-50.6C592.78,162.59,588.68,150.19,588,150.39Z" transform="translate(1.93 0.49)"/><path class="cls-18" d="M538.58,143.39c.5.1.1,3.2,0,9.6-.3,35.7,12.2,59.4,6.3,64.3-1.9,1.6-4.6.3-5.2,0-1.9-.9-6-4.2-7.3-21.9C530.18,168.49,537.08,143,538.58,143.39Z" transform="translate(1.93 0.49)"/><path class="cls-18" d="M551,155.29c-1.3-.2-5.5,10.5-3.4,21.5,1,5.5,3.9,12.5,5.9,12.2.9-.1,1.3-1.6,1.5-2,1-3.1-1.9-5.1-2.4-10.3a19.29,19.29,0,0,1,0-3.4C552.78,167.49,552.38,155.39,551,155.29Z" transform="translate(1.93 0.49)"/><path class="cls-18" d="M583.28,143.59c-.7.4,5.2,7.1,3.4,14.7-.5,2.3-1.3,2.4-2,5.4-1.2,5.1-.5,10.9,1,11.2,1.1.2,2.6-2.7,3.4-4.4,1-2.1,3.7-7.5,2.4-14.2C590.08,148.29,583.88,143.19,583.28,143.59Z" transform="translate(1.93 0.49)"/><path class="cls-18" d="M1369.48,184.49c4,3.5,12.2,2.6,14.7-1s-2.3-8-2.9-18.1a40.77,40.77,0,0,1,2.4-15.6c3.8-11.4,11.3-18.4,15.1-22,6.1-5.7,7.3-4.5,10.7-8.8,8-9.9,7.6-23.6,6.4-23.9-.9-.2-1.9,6.4-6.4,14.7-9.3,17.1-20.5,17-31.3,30.8C1366.48,155.59,1362.28,178.19,1369.48,184.49Z" transform="translate(1.93 0.49)"/><path class="cls-18" d="M1333.08,104.49c-1.5,2.4-4.6,7.2-4.9,13.2-.4,8.2,4.8,12.4,7.8,18.6,10.6,21.4-12.8,47.5-3.4,55.7,2.4,2.1,6,2.2,8.3,1.5,10.2-3.2,16-28.8,8.8-48.9-5.3-14.7-14.2-17.4-13.7-29.3s10.2-20.3,8.8-21.5C1343.88,92.89,1337.48,97.69,1333.08,104.49Z" transform="translate(1.93 0.49)"/><path class="cls-18" d="M1221.38,210.29c-4.2,3.2-14.2-.2-17.7-6.4-3.6-6.6,3-11.4,6.2-27.4,3.3-17.1-2-23.1,3.7-40,2-6,5-12,5.9-11.7,1.1.3-1.4,8.9-2.3,20.3-.8,9.4-.1,16.1,1.3,28.3C1221.28,199.49,1225.48,207.09,1221.38,210.29Z" transform="translate(1.93 0.49)"/><path class="cls-18" d="M1218.58,132c-1.5-1-7.3,3.7-11.9,10-16.9,23.1-13.3,61.1.5,68.6.7.4,4.6,2.5,7.3,1,3.7-2.2,3-10.3,1.5-15.6-1.8-6.3-5.2-9.3-7.1-12.2C1198.18,167.19,1222.18,134.39,1218.58,132Z" transform="translate(1.93 0.49)"/><path class="cls-18" d="M1378.08,127.39a4.71,4.71,0,0,1-.2.5,124.61,124.61,0,0,0-6.1,22.4c-1.8,10.4-3.6,21.3.5,23.4,2.1,1.1,5.7-.2,7.3-2.4,3-4.3-2.3-10.4-3.4-18.6-1.1-8,4.3-8.8,8.8-25.4,2.3-8.6,2.1-12,2-13.2-1-10.2-7.9-17.7-9.3-17.1C1375.78,97.89,1383.68,112.09,1378.08,127.39Z" transform="translate(1.93 0.49)"/><path class="cls-18" d="M1353.38,171.39c4.3,1.5,10.3-2.1,13.2-6.4,8.8-13.1-13.3-30.8-5.9-53.2,2.5-7.4,7.7-14,5.9-15.6-1.3-1.1-5.5.8-8.3,3.4-10.9,10.2-6.2,36.2-5.4,41,.6,3.6,1.6,7.6,0,12.2-1.7,4.9-4.9,6.2-4.9,10.3C1348.08,166.59,1350.28,170.29,1353.38,171.39Z" transform="translate(1.93 0.49)"/><path class="cls-18" d="M807,233c7.6-3,3.1-23.7,5.5-67.9.8-15.3,1.6-16.8,1.5-27.3-.2-17.2-.4-45.1-14-51.9-3.9-2-9.3-2.4-10-1-.8,1.7,5.8,5.7,9,8.7,19.1,18.2,2.3,82.1-5.1,110.4-1.2,4.7-4.4,16.6,1.6,23.8C798,230.79,803.18,234.59,807,233Z" transform="translate(1.93 0.49)"/><path class="cls-18" d="M682.68,219.49c-18.2,1.1-49.9-83.6-25.4-108.4,4.2-4.3,11.8-8.5,13.7-6.8,2.4,2.2-7.2,11.7-11.2,26.9-4.5,17-2.2,42.1,12.2,55.2,9.6,8.7,19.7,7.9,21.5,15.6C695,209,688.78,219.09,682.68,219.49Z" transform="translate(1.93 0.49)"/><path class="cls-18" d="M722,138.69c-1.7-2.1-18.8,3.5-26.4,16.6-13.4,23.3,7.1,63.8,20,63.5,5.3-.1,10.9-7.1,9.8-11.2-1.3-4.9-11.2-2.3-17.6-8.8-8.7-8.9-4.4-28.1.5-39.1C714.28,146.19,723.28,140.29,722,138.69Z" transform="translate(1.93 0.49)"/><path class="cls-18" d="M975.58,62.19c2.5-.6,17.3,31.8,14.7,72.3-1.1,17.3-6.3,49.2-17.6,50.8-4.2.6-9.2-3.1-10.7-7.3-2.8-7.9,6.6-17.5,10.3-22C997,125.39,972.18,63,975.58,62.19Z" transform="translate(1.93 0.49)"/><path class="cls-18" d="M932.18,61.19c-2.7-.5-13.7,21.9-12.2,48.4,1.1,18.7,7.9,30.6,20.5,52.8,6.6,11.6,12.4,19,21.5,21.5,5.1,1.4,12.3,1.5,13.7-1.5,1.7-3.7-6.6-9.7-16.6-21a197.57,197.57,0,0,1-19.5-27.4C920.38,102.19,935.78,61.89,932.18,61.19Z" transform="translate(1.93 0.49)"/><path class="cls-18" d="M1392.48,195.79c6.9-2.9,7.2-13.3,9.8-36.1,4.2-37.1,7.3-43.5,4.4-60.6-2-11.5-5.9-23.7-7.8-23.4-2.2.3,1.3,17.3-.5,38.6-3.8,44.8-28.1,69.9-18.1,79.6C1383.48,197,1389,197.19,1392.48,195.79Z" transform="translate(1.93 0.49)"/><path class="cls-18" d="M330.48,219.79c-4.4,2-14.3-.9-17.2-5.6-3.1-5,4-8,8.4-19.3,4.7-12.1-.2-16.7,6.9-28.5,2.5-4.2,6-8.3,6.9-8.1,1.1.3-2.1,6.3-3.9,14.4-1.5,6.7-1.3,11.6-1,20.4C331.18,212.09,334.88,217.79,330.48,219.79Z" transform="translate(1.93 0.49)"/><path class="cls-18" d="M636.88,118.29c-2.7-.9-35.7,62.1-15.1,87.4,2.6,3.3,7.5,7.6,10.3,6.4,5-2.3-2-21.1-2.4-46.4C629.08,135.79,638.28,118.79,636.88,118.29Z" transform="translate(1.93 0.49)"/><path class="cls-18" d="M633,84.39c-2.1-1.1-19.3,18.2-27.8,45.9-10.5,34.1-6.1,75.1,6.4,78.6a10.19,10.19,0,0,0,10.3-3.9c3.7-5.6-2.5-14.1-5.9-23.9-4-11.6-2.3-21.7,1-42a201.58,201.58,0,0,1,5.1-22.6C628,95.39,634.08,85,633,84.39Z" transform="translate(1.93 0.49)"/><path class="cls-18" d="M694.68,131.79c-22.7,27.6-18.4,78.1-6.4,81.6,2.6.7,5.6-.7,7.3-2.4,5.2-5.5-1.1-16.5-3.4-27.8-6.1-29.5,15.3-55.9,11.2-58.1C701.28,123.79,695.28,131.09,694.68,131.79Z" transform="translate(1.93 0.49)"/><path class="cls-18" d="M1379.28,74.59c-3.3-.6-34.2,115.9-18.6,122.1,2.5,1,5.6-1.1,6.8-2,11.1-7.6,6.1-29.7,4.9-52.8C1370.18,100.69,1380.88,74.89,1379.28,74.59Z" transform="translate(1.93 0.49)"/><path class="cls-18" d="M1406.38,104.19c-1.5-.7-51.7,78.4-35.2,94.3,3.2,3.1,9.2,4.1,12.2,2,5.9-4.3-3.6-19,1-40.1.6-2.7.9-3,6.4-16.6C1401.38,117.39,1406.68,104.29,1406.38,104.19Z" transform="translate(1.93 0.49)"/><path class="cls-18" d="M703,113.19c2.4-1.1,23.1,25.7,28.3,62,2.5,17,3.4,48.5-8.8,53.2-5.4,2.1-13.5-1-15.6-5.9-2.4-5.3,3.2-10.9,6.8-19.5,4.5-10.5,3.4-20.2,1-39.1C710.58,131.39,701.18,114,703,113.19Z" transform="translate(1.93 0.49)"/><path class="cls-18" d="M734.28,106.29c3.2.1,6.2,35.6,1.5,72.8-2.7,21.1-6.3,49.1-19.5,52.3-7.8,1.9-18.7-4.9-18.6-9.8.1-3.3,5.2-4.7,9.3-7.3,13.4-8.5,13.8-27.9,17.6-57.2C726.68,140.39,731.18,106.29,734.28,106.29Z" transform="translate(1.93 0.49)"/><path class="cls-18" d="M695.18,195.49c12.7-15.4,7.8-30.4,14.2-63,5-25.5,14.1-47.4,16.1-46.9,2.4.6-10.7,32.4-10.3,80.6.2,21.9,3.1,35.3-5.9,43.8-10.7,10.2-31.8,7.5-33.2,2.5C675.08,208.79,686,206.59,695.18,195.49Z" transform="translate(1.93 0.49)"/><path class="cls-18" d="M1457.48,101.89c-1.6-.7-11.5,14.8-17.1,33.7s-7.5,43.6-.5,46.4c2.8,1.1,6.5-1.5,7.8-2.4,5.1-3.7,6.9-10.4,6.4-15.6-.7-7.3-5.4-7.5-7.3-14.7-1.7-6.4,1.1-9.6,5.9-25.4C1454.28,118.19,1459.08,102.59,1457.48,101.89Z" transform="translate(1.93 0.49)"/><path class="cls-18" d="M1427.68,179.69c2.5,2.2,8.2,1.8,11.7-1,8.4-6.7-2.3-22.6,0-50.8,1.5-18.1,7.4-30.5,5.4-31.3-1.7-.7-7.1,8.5-10.3,15.6a81.32,81.32,0,0,0-5.9,22.5c-1.8,14.2,1.4,14.3-.5,28.3C1427,172.39,1425,177.29,1427.68,179.69Z" transform="translate(1.93 0.49)"/><path class="cls-18" d="M638,139.29c-.6.2,2.4,9.6,1.5,21.1-2.3,27.6-25.4,41-21.5,51.2,1.4,3.7,5.8,5.3,8.8,4.8,10.4-1.5,17.5-28.8,16.6-50.6C642.78,151.49,638.68,139.09,638,139.29Z" transform="translate(1.93 0.49)"/><path class="cls-18" d="M1415.88,151.89c-.1.9-.4,3.5.5,3.9,1.7.8,6.6-5.7,9.3-10.7,7.3-13.5,5.1-28.7,3.9-28.8s1.3,14.1-7.3,23.9C1420.58,142,1416.58,146,1415.88,151.89Z" transform="translate(1.93 0.49)"/><path class="cls-18" d="M544.28,221.79c-7.6-3-3.1-23.7-5.5-67.9-.8-15.3-1.6-16.8-1.5-27.3.2-17.2.4-45.1,14-51.9,4.3-2.1,9.7-2,10-1s-6.6,3.2-10.5,6.2c-21.2,16.4,2.8,98.5,5.4,107,2.1,6.9,6.6,21.4-.4,29.8C553.28,219.59,548.08,223.29,544.28,221.79Z" transform="translate(1.93 0.49)"/><path class="cls-18" d="M593,215.69a12.56,12.56,0,0,0,4.9,0c7.1-1.2,14.4-6.4,14.8-11.9.4-4.8-4.7-6-8.4-11.9-4-6.6-2.4-12.8.5-22.8,4.6-16.2,13-25.9,11.8-26.3s-9.4,7.3-15.3,17.6c-5.2,9.2-11.9,20.8-5.9,32,2.9,5.3,7.8,9,5.4,11.6-2.9,3.2-12.6.4-14.8,3.5C584.28,209.59,587.78,214.59,593,215.69Z" transform="translate(1.93 0.49)"/><path class="cls-18" d="M673.68,149.89c1.5,1.7,4.7,5.2,4.9,9.5.4,5.9-4.8,8.9-7.9,13.3-10.6,15.4,12.9,34.2,3.4,40-2.4,1.5-6,1.6-8.4,1.1-10.3-2.3-16.1-20.7-8.9-35.1,5.3-10.5,14.4-12.5,13.8-21.1s-10.3-14.6-8.9-15.5C662.78,141.59,669.18,144.89,673.68,149.89Z" transform="translate(1.93 0.49)"/><path class="cls-18" d="M577.58,181.79c1.3,1.8,3.4,5,5.9,17.2,4,19.6,1.1,23.3-1.5,25.3-1.9,1.4-5.4,3.2-7.4,2.5-3.6-1.3-.1-9.4,1-16.9,3-21.7-15.3-37.7-11.8-39C565.88,170.09,573.28,176,577.58,181.79Z" transform="translate(1.93 0.49)"/><path class="cls-18" d="M599.08,190.19c.1.1,0,.1.2.4a70.31,70.31,0,0,1,6.2,16.1c1.8,7.5,3.6,15.3-.5,16.9a8.07,8.07,0,0,1-7.4-1.8c-3.1-3.1,2.3-7.5,3.4-13.3s-4.3-6.3-8.9-18.3c-2.3-6.2-2.1-8.7-2-9.5,1-7.3,8-12.7,9.4-12.3C601.38,169,593.48,179.19,599.08,190.19Z" transform="translate(1.93 0.49)"/><path class="cls-18" d="M1321.88,115.49c7.2,27.1,12.2,34.7,13.8,56.2.7,8.7.4,14.8-5.4,19-5.5,4-15.2,5.6-17.7,3.5s2.4-6.6,5.9-12.3c8.3-13.5,5.2-26.8,3-36.9-3.3-14.3-10.9-22.8-7.9-36.2.3-1.4,1.3-5.9,3-6C1318.58,102.79,1320.58,110.59,1321.88,115.49Z" transform="translate(1.93 0.49)"/><path class="cls-18" d="M567.28,154.69c1.5-.5,52.1,56.4,35.5,67.8-3.2,2.2-9.3,3-12.3,1.4-6-3.1,3.6-13.7-1-28.8-.6-1.9-.9-2.2-6.4-11.9C572.28,164.29,567,154.89,567.28,154.69Z" transform="translate(1.93 0.49)"/><path class="cls-18" d="M566,171.79c.6.1-2.4,6.9-1.5,15.2,2.3,19.8,25.7,29.5,21.7,36.8-1.4,2.7-5.8,3.8-8.9,3.5-10.5-1.1-17.7-20.7-16.8-36.4C561.08,180.59,565.28,171.69,566,171.79Z" transform="translate(1.93 0.49)"/><path class="cls-18" d="M1413.08,208.19c7.7-2.1,3.1-17.1,5.5-48.8.8-11,1.6-12.1,1.5-19.6-.2-12.4-.4-32.4-14.1-37.4-3.9-1.4-9.4-1.7-10.1-.7-.8,1.2,5.8,3.9,9,6.3,12.8,9.4,1.3,32.5-8,74.3-1.3,5.9-3.4,16.1,4.5,22.2C1402.08,204.79,1408.28,209.49,1413.08,208.19Z" transform="translate(1.93 0.49)"/><path class="cls-18" d="M15.78,213.39a12.56,12.56,0,0,0,4.9,0c7.1-1.2,14.4-6.4,14.8-11.9.4-4.8-4.7-6-8.4-11.9-4-6.6-2.4-12.8.5-22.8,4.6-16.2,13-25.9,11.8-26.3s-9.4,7.3-15.3,17.6c-5.2,9.2-11.9,20.8-5.9,32,2.9,5.3,7.8,9,5.4,11.6-2.9,3.2-12.6.4-14.8,3.5C7.08,207.39,10.58,212.29,15.78,213.39Z" transform="translate(1.93 0.49)"/><path class="cls-18" d="M57.58,212c-4,2.5-12.3,1.8-14.8-.7s2.3-5.7,3-13a20.8,20.8,0,0,0-2.5-11.2c-3.9-8.2-11.4-13.2-15.3-15.8-6.2-4.1-7.4-3.3-10.8-6.3-8-7.1-7.7-17-6.4-17.2.9-.2,1.9,4.6,6.4,10.5,9.4,12.3,20.6,12.2,31.5,22.1C60.68,191.29,64.88,207.49,57.58,212Z" transform="translate(1.93 0.49)"/><path class="cls-18" d="M102.48,151.59c1.5,1.7,4.7,5.2,4.9,9.5.4,5.9-4.8,8.9-7.9,13.3-10.6,15.4,12.9,34.2,3.4,40-2.4,1.5-6,1.6-8.4,1.1-10.3-2.3-16.1-20.7-8.9-35.1,5.3-10.5,14.4-12.5,13.8-21.1s-10.3-14.6-8.9-15.5C91.58,143.29,98,146.69,102.48,151.59Z" transform="translate(1.93 0.49)"/><path class="cls-18" d="M273.38,228.89c2.5,1,5.6-1.7,6.2-2.1,1.1-.9,5.8-5.3,3.7-19.7-3.7-25.2-21.1-31.2-18.7-46.7,1.7-11.1,12.1-17.5,11.4-18.1s-14.1,6.6-15.6,18.7c-1.3,10.8,6,14.5,9.4,32.5C273.38,212.59,268.08,226.89,273.38,228.89Z" transform="translate(1.93 0.49)"/><path class="cls-18" d="M250.18,220.09c4.4,2,14.3-.9,17.2-5.6,3.1-5-4-8-8.4-19.3-4.7-12.1.2-16.7-6.9-28.5-2.5-4.2-6-8.3-6.9-8.1-1.1.3,2.1,6.3,3.9,14.4,1.5,6.7,1.3,11.6,1,20.4C249.38,212.29,245.78,218.09,250.18,220.09Z" transform="translate(1.93 0.49)"/><path class="cls-18" d="M262.38,160.29c-1.4-1.2-8.8,4.7-13.8,11.7a47.49,47.49,0,0,0-6.4,13.7c-3,9.4-8.9,28.1-2,33.6,4.1,3.2,12.4,1.5,14.3-2.5s-3.7-7.9-5.9-15.3C243.08,183.09,264.88,162.49,262.38,160.29Z" transform="translate(1.93 0.49)"/><path class="cls-18" d="M71.88,166.79c1.6-1.8,15.8,2.3,25.6,11.6,11.1,10.5,17.1,27.9,8.9,38.2-2.9,3.6-9.3,8.5-14.8,7.1-4.1-1.1-7.2-5.5-6.4-9.1,1.3-5.8,11.9-5.2,14.8-10.4C106.28,193.09,69,170.09,71.88,166.79Z" transform="translate(1.93 0.49)"/><path class="cls-18" d="M73.88,214.19c-4.4,1.1-10.4-1.5-13.3-4.6-8.9-9.4,13.5-22.1,5.9-38.3-2.5-5.3-7.8-10.1-5.9-11.2,1.3-.8,5.5.5,8.4,2.5,11,7.3,6.3,26,5.4,29.5-.7,2.6-1.7,5.5,0,8.8,1.8,3.5,4.9,4.5,4.9,7.4C79.28,210.59,77,213.39,73.88,214.19Z" transform="translate(1.93 0.49)"/><path class="cls-18" d="M432.48,134.59c-2.5-.4-17.4,22.8-14.8,52,1.1,12.5,6.3,35.4,17.7,36.5,4.3.4,9.3-2.2,10.8-5.3,2.8-5.7-6.7-12.6-10.3-15.8C410.88,180.09,435.88,135.19,432.48,134.59Z" transform="translate(1.93 0.49)"/><path class="cls-18" d="M418,122.09c2.7-.4,13.8,15.8,12.3,34.8-1.1,13.4-8,22-20.7,37.9-6.7,8.3-12.5,13.7-21.7,15.5-5.2,1-12.4,1.1-13.8-1.1-1.7-2.6,6.6-7,16.8-15.1a159.47,159.47,0,0,0,19.7-19.7C429.78,151.59,414.28,122.59,418,122.09Z" transform="translate(1.93 0.49)"/><path class="cls-18" d="M48.78,142.59c3.3-.4,34.5,83.3,18.7,87.8-2.5.7-5.6-.8-6.9-1.4-11.2-5.4-6.2-21.3-4.9-37.9C57.88,161.29,47.18,142.79,48.78,142.59Z" transform="translate(1.93 0.49)"/><path class="cls-18" d="M.08,166.49c1.5-.5,52.1,56.4,35.5,67.8-3.2,2.2-9.3,3-12.3,1.4-6-3.1,3.6-13.7-1-28.8-.6-1.9-.9-2.2-6.4-11.9C5.08,176.09-.22,166.59.08,166.49Z" transform="translate(1.93 0.49)"/><path class="cls-18" d="M41.78,180.59c.6.1-2.4,6.9-1.5,15.2,2.3,19.8,25.7,29.5,21.7,36.8-1.4,2.7-5.8,3.8-8.9,3.5-10.5-1.2-17.7-20.8-16.8-36.4C36.88,189.29,41,180.49,41.78,180.59Z" transform="translate(1.93 0.49)"/><path class="cls-18" d="M70.28,196.09c-.1.6-.5,2.5.5,2.8,1.7.5,6.6-4.1,9.4-7.7,7.3-9.7,5.1-20.6,3.9-20.7s1.3,10.2-7.4,17.2C75.08,189,71.08,191.79,70.28,196.09Z" transform="translate(1.93 0.49)"/><path class="cls-18" d="M91.08,189.59c-10.7,25.1,6.2,55.6,16.7,53.7a8,8,0,0,0,5.2-4c2.7-5.2-5.2-10-10.2-16.4-12.8-16.6-2.7-40.5-6.6-40.5C94.18,182.29,91.38,188.89,91.08,189.59Z" transform="translate(1.93 0.49)"/><path class="cls-18" d="M689.58,210.79c.7.6,4,3.1,2.6,4.8s-7.6,2.2-9.8,1.9c-17.6-1.8-15.3-61.6-11.9-61.7C673.38,155.79,678.28,201.79,689.58,210.79Z" transform="translate(1.93 0.49)"/><path class="cls-18" d="M66.68,201.09c-.5.1,2.1,4.7,1.3,10.4-2,13.6-22.2,20.2-18.7,25.3,1.2,1.8,5,2.6,7.7,2.4,9.1-.8,15.3-14.2,14.5-25C70.78,207.09,67.28,201,66.68,201.09Z" transform="translate(1.93 0.49)"/><path class="cls-18" d="M517,210.79c4,2.5,12.3,1.8,14.8-.7s-2.3-5.7-3-13a20.8,20.8,0,0,1,2.5-11.2c3.9-8.2,11.4-13.2,15.3-15.8,6.2-4.1,7.4-3.3,10.8-6.3,8-7.1,7.7-17,6.4-17.2-.9-.2-1.9,4.6-6.4,10.5-9.4,12.3-20.6,12.2-31.5,22.1C513.88,190,509.68,206.29,517,210.79Z" transform="translate(1.93 0.49)"/><path class="cls-18" d="M472.18,150.39c-1.5,1.7-4.7,5.2-4.9,9.5-.4,5.9,4.8,8.9,7.9,13.3,10.6,15.4-12.9,34.2-3.4,40,2.4,1.5,6,1.6,8.4,1.1,10.3-2.3,16.1-20.7,8.9-35.1-5.3-10.5-14.4-12.5-13.8-21.1s10.3-14.6,8.9-15.5C483.08,142.09,476.68,145.49,472.18,150.39Z" transform="translate(1.93 0.49)"/><path class="cls-18" d="M319.18,159.09c1.4-1.2,8.8,4.7,13.8,11.7a47.49,47.49,0,0,1,6.4,13.7c3,9.4,8.9,28.1,2,33.6-4.1,3.2-12.4,1.5-14.3-2.5s3.7-7.9,5.9-15.3C338.48,181.89,316.68,161.19,319.18,159.09Z" transform="translate(1.93 0.49)"/><path class="cls-18" d="M485.08,155.59c-1.6-2.2-15.9,2.8-25.9,14.1-11.2,12.7-17.3,33.7-9,46.2,2.9,4.4,9.4,10.3,14.9,8.5,4.1-1.3,7.3-6.7,6.5-11-1.3-7-12-6.3-14.9-12.5C450.38,187.39,488.08,159.59,485.08,155.59Z" transform="translate(1.93 0.49)"/><path class="cls-18" d="M494.78,215.89c4.4,1.1,10.4-1.5,13.3-4.6,8.9-9.4-13.5-22.1-5.9-38.3,2.5-5.3,7.8-10.1,5.9-11.2-1.3-.8-5.5.5-8.4,2.5-11,7.3-6.3,26-5.4,29.5.7,2.6,1.7,5.5,0,8.8-1.8,3.5-4.9,4.5-4.9,7.4C489.38,212.39,491.58,215.09,494.78,215.89Z" transform="translate(1.93 0.49)"/><path class="cls-18" d="M131.18,140.39c2.5-.4,17.4,22.8,14.8,52-1.1,12.5-6.3,35.4-17.7,36.5-4.3.4-9.3-2.2-10.8-5.3-2.8-5.7,6.7-12.6,10.3-15.8C152.78,185.79,127.68,140.89,131.18,140.39Z" transform="translate(1.93 0.49)"/><path class="cls-18" d="M130.68,149.89c-2.7-.4-13.8,15.8-12.3,34.8,1.1,13.4,8,22,20.7,37.9,6.7,8.3,12.5,13.7,21.7,15.5,5.2,1,12.4,1.1,13.8-1.1,1.7-2.6-6.6-7-16.8-15.1a159.47,159.47,0,0,1-19.7-19.7C118.78,179.29,134.28,150.39,130.68,149.89Z" transform="translate(1.93 0.49)"/><path class="cls-18" d="M525.88,130.29c-3.3-.4-34.5,83.3-18.7,87.8,2.5.7,5.6-.8,6.9-1.4,11.2-5.4,6.2-21.3,4.9-37.9C516.68,149.09,527.48,130.59,525.88,130.29Z" transform="translate(1.93 0.49)"/><path class="cls-18" d="M491.18,165.09c.6.1-2.4,6.9-1.5,15.2,2.3,19.8,25.7,29.5,21.7,36.8-1.4,2.7-5.8,3.8-8.9,3.5-10.5-1.1-17.7-20.7-16.8-36.4C486.38,173.79,490.48,165,491.18,165.09Z" transform="translate(1.93 0.49)"/><path class="cls-18" d="M461.38,159.49c19.7,19,15.9,53.6,5.5,56a8,8,0,0,1-6.3-1.7c-4.5-3.8.9-11.3,3-19.1,5.3-20.3-13.2-38.3-9.7-39.9C455.58,154,460.78,159,461.38,159.49Z" transform="translate(1.93 0.49)"/><path class="cls-18" d="M160.28,207.19a12.56,12.56,0,0,0,4.9,0c7.1-1.2,14.4-6.4,14.8-11.9.4-4.8-4.7-6-8.4-11.9-4-6.6-2.4-12.8.5-22.8,4.6-16.2,13-25.9,11.8-26.3s-9.4,7.3-15.3,17.6c-5.2,9.2-11.9,20.8-5.9,32,2.9,5.3,7.8,9,5.4,11.6-2.9,3.2-12.6.4-14.8,3.5C151.68,201.19,155.18,206.09,160.28,207.19Z" transform="translate(1.93 0.49)"/><path class="cls-18" d="M201.18,211.79c-4,2.5-12.3,1.8-14.8-.7s2.3-5.7,3-13a20.8,20.8,0,0,0-2.5-11.2c-3.9-8.2-11.4-13.2-15.3-15.8-6.2-4.1-7.4-3.3-10.8-6.3-8-7.1-7.7-17-6.4-17.2.9-.2,1.9,4.6,6.4,10.5,9.4,12.3,20.6,12.2,31.5,22.1C204.28,191,208.48,207.29,201.18,211.79Z" transform="translate(1.93 0.49)"/><path class="cls-18" d="M240,148.39c1.5,1.7,4.7,5.2,4.9,9.5.4,5.9-4.8,8.9-7.9,13.3-10.6,15.4,12.9,34.2,3.4,40-2.4,1.5-6,1.6-8.4,1.1-10.3-2.3-16.1-20.7-8.9-35.1,5.3-10.5,14.4-12.5,13.8-21.1s-10.3-14.6-8.9-15.5C229.08,140.09,235.48,143.49,240,148.39Z" transform="translate(1.93 0.49)"/><path class="cls-18" d="M394.08,210.29c2.4,1.3,5.8-.9,6.4-1.3,1.2-.8,6.5-4.5,6.4-19.1-.3-25.5-16.7-33.8-12.2-48.9,3.2-10.8,14.3-15.7,13.8-16.4s-14.8,4.6-18,16.4c-2.8,10.5,4,15.1,4.9,33.4C396.28,194.19,389.18,207.59,394.08,210.29Z" transform="translate(1.93 0.49)"/><path class="cls-18" d="M390.68,214.79c4.4,2,14.3-.9,17.2-5.6,3.1-5-4-8-8.4-19.3-4.7-12.1.2-16.7-6.9-28.5-2.5-4.2-6-8.3-6.9-8.1-1.1.3,2.1,6.3,3.9,14.4,1.5,6.7,1.3,11.6,1,20.4C390,207.09,386.28,212.79,390.68,214.79Z" transform="translate(1.93 0.49)"/><path class="cls-18" d="M405,156.09c-1.4-1.2-8.8,4.7-13.8,11.7a47.49,47.49,0,0,0-6.4,13.7c-3,9.4-8.9,28.1-2,33.6,4.1,3.2,12.4,1.5,14.3-2.5s-3.7-7.9-5.9-15.3C385.68,178.89,407.48,158.19,405,156.09Z" transform="translate(1.93 0.49)"/><path class="cls-18" d="M181.48,177.69c.1.1,0,.1.2.4a70.31,70.31,0,0,1,6.2,16.1c1.8,7.5,3.6,15.3-.5,16.9a8.07,8.07,0,0,1-7.4-1.8c-3.1-3.1,2.3-7.5,3.4-13.3s-4.3-6.3-8.9-18.3c-2.3-6.2-2.1-8.7-2-9.5,1-7.3,8-12.7,9.4-12.3C183.78,156.49,175.78,166.69,181.48,177.69Z" transform="translate(1.93 0.49)"/><path class="cls-18" d="M218.38,207.89c-4.4,1.1-10.4-1.5-13.3-4.6-8.9-9.4,13.5-22.1,5.9-38.3-2.5-5.3-7.8-10.1-5.9-11.2,1.3-.8,5.5.5,8.4,2.5,11,7.3,6.3,26,5.4,29.5-.7,2.6-1.7,5.5,0,8.8,1.8,3.5,4.9,4.5,4.9,7.4C223.78,204.39,221.58,207.09,218.38,207.89Z" transform="translate(1.93 0.49)"/><path class="cls-18" d="M193.28,135.29c3.3-.4,34.5,83.3,18.7,87.8-2.5.7-5.6-.8-6.9-1.4-11.2-5.4-6.2-21.3-4.9-37.9C202.48,154.09,191.68,135.59,193.28,135.29Z" transform="translate(1.93 0.49)"/><path class="cls-18" d="M134.58,144.29c1.5-.5,52.1,56.4,35.5,67.8-3.2,2.2-9.3,3-12.3,1.4-6-3.1,3.6-13.7-1-28.8-.6-1.9-.9-2.2-6.4-11.9C139.68,153.79,134.28,144.39,134.58,144.29Z" transform="translate(1.93 0.49)"/><path class="cls-18" d="M122.28,229.89c-2.5,1.6-8.3,1.3-11.8-.7-8.4-4.9,2.3-16.2,0-36.5-1.5-13-7.4-21.9-5.4-22.5,1.8-.5,7.2,6.1,10.3,11.2a46.79,46.79,0,0,1,5.9,16.2c1.8,10.2-1.4,10.3.5,20.4C123.08,224.59,125.08,228.09,122.28,229.89Z" transform="translate(1.93 0.49)"/><path class="cls-18" d="M151.28,161.29c.6.1-2.4,6.9-1.5,15.2,2.3,19.8,25.7,29.5,21.7,36.8-1.4,2.7-5.8,3.8-8.9,3.5-10.5-1.1-17.7-20.7-16.8-36.4C146.48,170.09,150.58,161.19,151.28,161.29Z" transform="translate(1.93 0.49)"/><path class="cls-18" d="M218,173.09c-.6.1,2.4,6.9,1.5,15.2-2.3,19.8-25.7,29.5-21.7,36.8,1.4,2.7,5.8,3.8,8.9,3.5,10.5-1.1,17.7-20.7,16.8-36.4C222.78,181.79,218.68,173,218,173.09Z" transform="translate(1.93 0.49)"/><path class="cls-18" d="M162.38,231.39c-.7.8-4,4.2-2.5,6.7s7.5,3,9.7,2.7c17.4-2.5,15.2-85.7,11.8-85.8C178.38,154.89,173.48,218.89,162.38,231.39Z" transform="translate(1.93 0.49)"/><path class="cls-18" d="M239.78,171.49c-19.7,19-15.9,53.6-5.5,56a8,8,0,0,0,6.3-1.7c4.5-3.8-.9-11.3-3-19.1-5.3-20.3,13.2-38.3,9.7-39.9C245.58,166,240.38,171,239.78,171.49Z" transform="translate(1.93 0.49)"/><path class="cls-18" d="M184.08,191.09c-.7,0-1.7,8.8-.4,17.8.4,3,.9,4.2,1.7,4.4,1.4.2,4.1-2.8,4.2-6s-2.4-4.1-4.2-9C183.68,193.89,184.48,191.09,184.08,191.09Z" transform="translate(1.93 0.49)"/><path class="cls-18" d="M143.48,208.29c1.1,1.2,2.9,3.4,5.1,11.8,3.5,13.4,1,16-1.3,17.3-1.7,1-4.6,2.2-6.4,1.7-3.1-.9,0-6.4.9-11.6,2.6-14.9-13.2-25.8-10.2-26.7C133.38,200.29,139.78,204.29,143.48,208.29Z" transform="translate(1.93 0.49)"/><path class="cls-18" d="M359.88,213.19a12.56,12.56,0,0,1-4.9,0c-7.1-1.2-14.4-6.4-14.8-11.9-.4-4.8,4.7-6,8.4-11.9,4-6.6,2.4-12.8-.5-22.8-4.6-16.2-13-25.9-11.8-26.3s9.4,7.3,15.3,17.6c5.2,9.2,11.9,20.8,5.9,32-2.9,5.3-7.8,9-5.4,11.6,2.9,3.2,12.6.4,14.8,3.5C368.48,207.19,365,212.09,359.88,213.19Z" transform="translate(1.93 0.49)"/><path class="cls-18" d="M307,214.79c4,2.5,12.3,1.8,14.8-.7s-2.3-5.7-3-13a20.8,20.8,0,0,1,2.5-11.2c3.9-8.2,11.4-13.2,15.3-15.8,6.2-4.1,7.4-3.3,10.8-6.3,8-7.1,7.7-17,6.4-17.2-.9-.2-1.9,4.6-6.4,10.5-9.4,12.3-20.6,12.2-31.5,22.1C303.88,194,299.68,210.29,307,214.79Z" transform="translate(1.93 0.49)"/><path class="cls-18" d="M259.18,173.39c-1.5,1.7-4.7,5.2-4.9,9.5-.4,5.9,4.8,8.9,7.9,13.3,10.6,15.4-12.9,34.2-3.4,40,2.4,1.5,6,1.6,8.4,1.1,10.3-2.3,16.1-20.7,8.9-35.1-5.3-10.5-14.4-12.5-13.8-21.1s10.3-14.6,8.9-15.5C270.08,165.09,263.68,168.49,259.18,173.39Z" transform="translate(1.93 0.49)"/><path class="cls-18" d="M111.08,241.29c-2.4,1.3-5.8-.9-6.4-1.3-1.2-.8-6.5-4.5-6.4-19.1.3-25.5,16.7-33.8,12.2-48.9-3.2-10.8-14.3-15.7-13.8-16.4s14.8,4.6,18,16.4c2.8,10.5-4,15.1-4.9,33.4C108.88,225.19,116,238.59,111.08,241.29Z" transform="translate(1.93 0.49)"/><path class="cls-18" d="M370.28,167.29c-1.3,1.8-3.4,5-5.9,17.2-4,19.6-1.1,23.3,1.5,25.3,1.9,1.4,5.4,3.2,7.4,2.5,3.6-1.3.1-9.4-1-16.9-3-21.7,15.3-37.7,11.8-39C381.88,155.59,374.58,161.49,370.28,167.29Z" transform="translate(1.93 0.49)"/><path class="cls-18" d="M341.68,185.69c-.1.1,0,.1-.2.4a70.31,70.31,0,0,0-6.2,16.1c-1.8,7.5-3.6,15.3.5,16.9a8.07,8.07,0,0,0,7.4-1.8c3.1-3.1-2.3-7.5-3.4-13.3s4.3-6.3,8.9-18.3c2.3-6.2,2.1-8.7,2-9.5-1-7.3-8-12.7-9.4-12.3C339.38,164.49,347.38,174.69,341.68,185.69Z" transform="translate(1.93 0.49)"/><path class="cls-18" d="M286.78,215.89c4.4,1.1,10.4-1.5,13.3-4.6,8.9-9.4-13.5-22.1-5.9-38.3,2.5-5.3,7.8-10.1,5.9-11.2-1.3-.8-5.5.5-8.4,2.5-11,7.3-6.3,26-5.4,29.5.7,2.6,1.7,5.5,0,8.8-1.8,3.5-4.9,4.5-4.9,7.4C281.38,212.39,283.58,215.09,286.78,215.89Z" transform="translate(1.93 0.49)"/><path class="cls-18" d="M310.88,140.29c-3.3-.4-34.5,83.3-18.7,87.8,2.5.7,5.6-.8,6.9-1.4,11.2-5.4,6.2-21.3,4.9-37.9C301.68,159.09,312.48,140.59,310.88,140.29Z" transform="translate(1.93 0.49)"/><path class="cls-18" d="M379.58,149.29c-1.5-.5-52.1,56.4-35.5,67.8,3.2,2.2,9.3,3,12.3,1.4,6-3.1-3.6-13.7,1-28.8.6-1.9.9-2.2,6.4-11.9C374.48,158.79,379.88,149.39,379.58,149.29Z" transform="translate(1.93 0.49)"/><path class="cls-18" d="M156.88,240.89c2.5,1.6,8.3,1.3,11.8-.7,8.4-4.9-2.3-16.2,0-36.5,1.5-13,7.4-21.9,5.4-22.5-1.8-.5-7.2,6.1-10.3,11.2a46.79,46.79,0,0,0-5.9,16.2c-1.8,10.2,1.4,10.3-.5,20.4C156.08,235.59,154.08,239.09,156.88,240.89Z" transform="translate(1.93 0.49)"/><path class="cls-18" d="M359.88,172.29c-.6.1,2.4,6.9,1.5,15.2-2.3,19.8-25.7,29.5-21.7,36.8,1.4,2.7,5.8,3.8,8.9,3.5,10.5-1.1,17.7-20.7,16.8-36.4C364.68,181.09,360.58,172.19,359.88,172.29Z" transform="translate(1.93 0.49)"/><path class="cls-18" d="M327.78,219.39c.7.8,4,4.2,2.5,6.7s-7.5,3-9.7,2.7c-17.4-2.5-15.2-85.7-11.8-85.8C311.78,142.89,316.68,206.89,327.78,219.39Z" transform="translate(1.93 0.49)"/><path class="cls-18" d="M284,182.59c14.2,23.3,1.9,55.9-8.8,55.5a8.2,8.2,0,0,1-5.7-3.2c-3.4-4.8,3.7-10.7,7.7-17.7,10.3-18.3-3.1-40.4.7-41C279.78,175.79,283.58,181.89,284,182.59Z" transform="translate(1.93 0.49)"/><path class="cls-18" d="M376.68,182.29c-1.1,1.2-2.9,3.4-5.1,11.8-3.5,13.4-1,16,1.3,17.3,1.7,1,4.6,2.2,6.4,1.7,3.1-.9,0-6.4-.9-11.6-2.6-14.9,13.2-25.8,10.2-26.7C386.78,174.29,380.48,178.29,376.68,182.29Z" transform="translate(1.93 0.49)"/><path class="cls-18" d="M310,195.89c.5.1-2.1,4.7-1.3,10.4,2,13.6,22.2,20.2,18.7,25.3-1.2,1.8-5,2.6-7.7,2.4-9.1-.8-15.3-14.2-14.5-25C305.78,201.89,309.38,195.79,310,195.89Z" transform="translate(1.93 0.49)"/><path class="cls-18" d="M459.08,139.39c-2.5-.4-17.4,22.8-14.8,52,1.1,12.5,6.3,35.4,17.7,36.5,4.3.4,9.3-2.2,10.8-5.3,2.8-5.7-6.7-12.6-10.3-15.8C437.38,184.79,462.48,139.89,459.08,139.39Z" transform="translate(1.93 0.49)"/><path class="cls-18" d="M442.08,187.19c3.4,21.2-16.3,43.2-27.1,42.3-4.7-.4-8.8-5.2-9-9.1-.2-3.6,2.8-6.3,6.2-9.5,0,0,9-8.5,15.8-16.4,14-16.3-38.6-52.7-34.9-54.8,2.1-1.2,22.1,8.8,36.1,24.8C434.38,170.29,440.58,177.39,442.08,187.19Z" transform="translate(1.93 0.49)"/><path class="cls-18" d="M127,187.09c-.6.1,2.4,6.9,1.5,15.2-2.3,19.8-25.7,29.5-21.7,36.8,1.4,2.7,5.8,3.8,8.9,3.5,10.5-1.1,17.7-20.7,16.8-36.4C131.78,195.79,127.68,187,127,187.09Z" transform="translate(1.93 0.49)"/><path class="cls-18" d="M19.78,222.29c-8-39.9-17.8-62-6.9-70.9,2.9-2.3,8.4-4.9,7.8-6s-5.2-.6-8.6.7C4.11,149.26,1.44,159,.51,168.65a48.68,48.68,0,0,1,1.26,9.48c.08,8-.22,16.08-.21,24.11v3C2.88,232.22-.25,245.1,6,247c4.2,1.3,9.5-3.1,9.9-3.5C22.68,237.69,20.88,227.89,19.78,222.29Z" transform="translate(1.93 0.49)"/><path class="cls-18" d="M231.28,201.79c1.3-.5,6.3,1.8,10.4,4.9,14.8,11.4,11.6,30.1-.5,33.8-.6.2-4,1.2-6.3.5-3.2-1.1-2.6-5.1-1.3-7.7,1.6-3.1,4.5-4.6,6.2-6C249.08,219.09,228.08,203,231.28,201.79Z" transform="translate(1.93 0.49)"/><path class="cls-18" d="M1533.68,113.39c-1.5,2.4-4.6,7.2-4.9,13.2-.4,8.2,4.8,12.4,7.8,18.6,10.6,21.4-12.8,47.5-3.4,55.7,2.4,2.1,6,2.2,8.3,1.5,10.2-3.2,16-28.8,8.8-48.9-5.3-14.7-14.2-17.4-13.7-29.3s10.2-20.3,8.8-21.5C1544.38,101.79,1538.08,106.49,1533.68,113.39Z" transform="translate(1.93 0.49)"/><path class="cls-18" d="M1593.08,204.59c6.9-2.9,7.2-13.3,9.8-36.1,4.2-37.1,7.3-43.5,4.4-60.6-2-11.5-5.9-23.7-7.8-23.4-2.2.3,1.3,17.3-.5,38.6-3.8,44.8-28.1,69.9-18.1,79.6C1584.08,205.79,1589.58,206.09,1593.08,204.59Z" transform="translate(1.93 0.49)"/><path class="cls-18" d="M1579.88,83.49c-3.3-.6-34.2,115.9-18.6,122.1,2.5,1,5.6-1.1,6.8-2,11.1-7.6,6.1-29.7,4.9-52.8C1570.78,109.49,1581.48,83.79,1579.88,83.49Z" transform="translate(1.93 0.49)"/><path class="cls-18" d="M1614.18,81.39c2.5-.6,17.3,31.8,14.7,72.3-1.1,17.3-6.3,49.2-17.6,50.8-4.2.6-9.2-3.1-10.7-7.3-2.8-7.9,6.6-17.5,10.3-22C1635.58,144.69,1610.78,82.19,1614.18,81.39Z" transform="translate(1.93 0.49)"/><path class="cls-18" d="M1589.68,84.59c-2.7-.5-13.7,21.9-12.2,48.4,1.1,18.7,7.9,30.6,20.5,52.8,6.6,11.6,12.4,19,21.5,21.5,5.1,1.4,12.3,1.5,13.7-1.5,1.7-3.7-6.6-9.7-16.6-21a197.57,197.57,0,0,1-19.5-27.4C1577.88,125.59,1593.28,85.29,1589.68,84.59Z" transform="translate(1.93 0.49)"/><path class="cls-18" d="M1631.78,219.59c7.7-2.1,3.1-17.1,5.5-48.8.8-11,1.6-12.1,1.5-19.6-.2-12.4-.4-32.4-14.1-37.4-3.9-1.4-9.4-1.7-10.1-.7s5.4,3.1,9,6.3c14,12.2,8.9,54.1-1.9,79.8-1.5,3.5-5.2,11.7-1.6,16.7C1622.48,219.19,1627.78,220.69,1631.78,219.59Z" transform="translate(1.93 0.49)"/><path class="cls-18" d="M1556.18,205c7.6-3,3.1-23.7,5.5-67.9.8-15.3,1.6-16.8,1.5-27.3-.2-17.2-.4-45.1-14-51.9-3.9-2-9.3-2.4-10-1-.8,1.7,5.8,5.7,9,8.7,19.1,18.2,2.3,82.1-5.1,110.4-1.2,4.7-4.4,16.6,1.6,23.8C1547.18,202.79,1552.28,206.49,1556.18,205Z" transform="translate(1.93 0.49)"/><path class="cls-18" d="M1477.48,74.29c3.2.1,6.2,35.6,1.5,72.8-2.7,21.1-6.3,49.1-19.5,52.3-7.8,1.9-18.7-4.9-18.6-9.8.1-3.3,5.2-4.7,9.3-7.3,13.4-8.5,13.8-27.9,17.6-57.2C1469.88,108.29,1474.28,74.19,1477.48,74.29Z" transform="translate(1.93 0.49)"/><path class="cls-18" d="M1454.78,201.29c-18.3.8-50.3-60.1-25.6-78,4.3-3.1,11.9-6.1,13.8-4.9,2.4,1.5-7.3,8.4-11.3,19.3-4.6,12.3-2.2,30.2,12.3,39.7,9.7,6.3,19.9,5.7,21.7,11.2C1467.28,193.69,1461,201,1454.78,201.29Z" transform="translate(1.93 0.49)"/><path class="cls-18" d="M1464.08,204.29c-2.2,1.5-7.1,1.3-10.1-.7-7.2-4.6,2-15.5,0-34.8-1.3-12.4-6.4-20.9-4.6-21.4,1.5-.5,6.2,5.8,8.9,10.7a48,48,0,0,1,5.1,15.4c1.5,9.7-1.2,9.8.4,19.4C1464.68,199.29,1466.38,202.59,1464.08,204.29Z" transform="translate(1.93 0.49)"/><path class="cls-18" d="M1827.38,146.49c-2.5-.4-17.4,22.8-14.8,52,1.1,12.5,6.3,35.4,17.7,36.5,4.3.4,9.3-2.2,10.8-5.3,2.8-5.7-6.7-12.6-10.3-15.8C1805.78,192,1830.78,147.09,1827.38,146.49Z" transform="translate(1.93 0.49)"/><path class="cls-18" d="M1812.88,134c2.7-.4,13.8,15.8,12.3,34.8-1.1,13.4-8,22-20.7,37.9-6.7,8.3-12.5,13.7-21.7,15.5-5.2,1-12.4,1.1-13.8-1.1-1.7-2.6,6.6-7,16.8-15.1a159.47,159.47,0,0,0,19.7-19.7C1824.68,163.49,1809.18,134.49,1812.88,134Z" transform="translate(1.93 0.49)"/><path class="cls-18" d="M1867.08,162.29c-1.5,1.7-4.7,5.2-4.9,9.5-.4,5.9,4.8,8.9,7.9,13.3,10.6,15.4-12.9,34.2-3.4,40,2.4,1.5,6,1.6,8.4,1.1,10.3-2.3,16.1-20.7,8.9-35.1-5.3-10.5-14.4-12.5-13.8-21.1s10.3-14.6,8.9-15.5C1878,154,1871.48,157.29,1867.08,162.29Z" transform="translate(1.93 0.49)"/><path class="cls-18" d="M1880,167.49c-1.6-2.2-15.9,2.8-25.9,14.1-11.2,12.7-17.3,33.7-9,46.2,2.9,4.4,9.4,10.3,14.9,8.5,4.1-1.3,7.3-6.7,6.5-11-1.3-7-12-6.3-14.9-12.5C1845.28,199.29,1883,171.49,1880,167.49Z" transform="translate(1.93 0.49)"/><path class="cls-18" d="M1889.58,227.79c4.4,1.1,10.4-1.5,13.3-4.6,8.9-9.4-13.5-22.1-5.9-38.3,2.5-5.3,7.8-10.1,5.9-11.2-1.3-.8-5.5.5-8.4,2.5-11,7.3-6.3,26-5.4,29.5.7,2.6,1.7,5.5,0,8.8-1.8,3.5-4.9,4.5-4.9,7.4C1884.18,224.29,1886.48,227,1889.58,227.79Z" transform="translate(1.93 0.49)"/><path class="cls-18" d="M1920.78,142.19c-3.3-.4-34.5,83.3-18.7,87.8,2.5.7,5.6-.8,6.9-1.4,11.2-5.4,6.2-21.3,4.9-37.9C1911.58,161,1922.28,142.39,1920.78,142.19Z" transform="translate(1.93 0.49)"/><path class="cls-18" d="M1886.08,177c.6.1-2.4,6.9-1.5,15.2,2.3,19.8,25.7,29.5,21.7,36.8-1.4,2.7-5.8,3.8-8.9,3.5-10.5-1.1-17.7-20.7-16.8-36.4C1881.18,185.69,1885.28,176.89,1886.08,177Z" transform="translate(1.93 0.49)"/><path class="cls-18" d="M1856.18,171.39c19.7,19,15.9,53.6,5.5,56a8,8,0,0,1-6.3-1.7c-4.5-3.8.9-11.3,3-19.1,5.3-20.3-13.2-38.3-9.7-39.9C1850.48,165.89,1855.68,170.89,1856.18,171.39Z" transform="translate(1.93 0.49)"/><path class="cls-18" d="M1789,222.19c2.4,1.3,5.8-.9,6.4-1.3,1.2-.8,6.5-4.5,6.4-19.1-.3-25.5-16.7-33.8-12.2-48.9,3.2-10.8,14.3-15.7,13.8-16.4s-14.8,4.6-18,16.4c-2.8,10.5,4,15.1,4.9,33.4C1791.18,206.09,1784.08,219.49,1789,222.19Z" transform="translate(1.93 0.49)"/><path class="cls-18" d="M1785.58,226.69c4.4,2,14.3-.9,17.2-5.6,3.1-5-4-8-8.4-19.3-4.7-12.1.2-16.7-6.9-28.5-2.5-4.2-6-8.3-6.9-8.1-1.1.3,2.1,6.3,3.9,14.4,1.5,6.7,1.3,11.6,1,20.4C1784.78,219,1781.18,224.69,1785.58,226.69Z" transform="translate(1.93 0.49)"/><path class="cls-18" d="M1799.88,168c-1.4-1.2-8.8,4.7-13.8,11.7a47.49,47.49,0,0,0-6.4,13.7c-3,9.4-8.9,28.1-2,33.6,4.1,3.2,12.4,1.5,14.3-2.5s-3.7-7.9-5.9-15.3C1780.58,190.79,1802.38,170.09,1799.88,168Z" transform="translate(1.93 0.49)"/><path class="cls-18" d="M1771.58,194.19c-1.1,1.2-2.9,3.4-5.1,11.8-3.5,13.4-1,16,1.3,17.3,1.7,1,4.6,2.2,6.4,1.7,3.1-.9,0-6.4-.9-11.6-2.6-14.9,13.2-25.8,10.2-26.7C1781.68,186.19,1775.28,190.19,1771.58,194.19Z" transform="translate(1.93 0.49)"/><path class="cls-18" d="M1853.88,151.29c-2.5-.4-17.4,22.8-14.8,52,1.1,12.5,6.3,35.4,17.7,36.5,4.3.4,9.3-2.2,10.8-5.3,2.8-5.7-6.7-12.6-10.3-15.8C1832.28,196.69,1857.38,151.79,1853.88,151.29Z" transform="translate(1.93 0.49)"/><path class="cls-18" d="M1837,199.09c3.4,21.2-16.3,43.2-27.1,42.3-4.7-.4-8.8-5.2-9-9.1-.2-3.6,2.8-6.3,6.2-9.5,0,0,9-8.5,15.8-16.4,14-16.3-38.6-52.7-34.9-54.8,2.1-1.2,22.1,8.8,36.1,24.8C1829.28,182.19,1835.38,189.29,1837,199.09Z" transform="translate(1.93 0.49)"/><path class="cls-18" d="M1512.28,135c2.5-.4,17.4,22.8,14.8,52-1.1,12.5-6.3,35.4-17.7,36.5-4.3.4-9.3-2.2-10.8-5.3-2.8-5.7,6.7-12.6,10.3-15.8C1533.88,180.49,1508.88,135.59,1512.28,135Z" transform="translate(1.93 0.49)"/><path class="cls-18" d="M1526.78,118c-2.7-.4-13.8,15.8-12.3,34.8,1.1,13.4,8,22,20.7,37.9,6.7,8.3,12.5,13.7,21.7,15.5,5.2,1,12.4,1.1,13.8-1.1,1.7-2.6-6.6-7-16.8-15.1a159.47,159.47,0,0,1-19.7-19.7C1515,147.49,1530.48,118.49,1526.78,118Z" transform="translate(1.93 0.49)"/><path class="cls-18" d="M1472.58,146.29c1.5,1.7,4.7,5.2,4.9,9.5.4,5.9-4.8,8.9-7.9,13.3-10.6,15.4,12.9,34.2,3.4,40-2.4,1.5-6,1.6-8.4,1.1-10.3-2.3-16.1-20.7-8.9-35.1,5.3-10.5,14.4-12.5,13.8-21.1s-10.3-14.6-8.9-15.5C1461.78,138,1468.18,141.29,1472.58,146.29Z" transform="translate(1.93 0.49)"/><path class="cls-18" d="M1459.68,151.49c1.6-2.2,15.9,2.8,25.9,14.1,11.2,12.7,17.3,33.7,9,46.2-2.9,4.4-9.4,10.3-14.9,8.5-4.1-1.3-7.3-6.7-6.5-11,1.3-7,12-6.3,14.9-12.5C1494.38,183.29,1456.68,155.49,1459.68,151.49Z" transform="translate(1.93 0.49)"/><path class="cls-18" d="M1450.08,211.79c-4.4,1.1-10.4-1.5-13.3-4.6-8.9-9.4,13.5-22.1,5.9-38.3-2.5-5.3-7.8-10.1-5.9-11.2,1.3-.8,5.5.5,8.4,2.5,11,7.3,6.3,26,5.4,29.5-.7,2.6-1.7,5.5,0,8.8,1.8,3.5,4.9,4.5,4.9,7.4C1455.48,208.29,1453.18,211,1450.08,211.79Z" transform="translate(1.93 0.49)"/><path class="cls-18" d="M1418.88,126.19c3.3-.4,34.5,83.3,18.7,87.8-2.5.7-5.6-.8-6.9-1.4-11.2-5.4-6.2-21.3-4.9-37.9C1428.08,145,1417.38,126.39,1418.88,126.19Z" transform="translate(1.93 0.49)"/><path class="cls-18" d="M1453.68,161c-.6.1,2.4,6.9,1.5,15.2-2.3,19.8-25.7,29.5-21.7,36.8,1.4,2.7,5.8,3.8,8.9,3.5,10.5-1.1,17.7-20.7,16.8-36.4C1458.48,169.69,1454.38,160.89,1453.68,161Z" transform="translate(1.93 0.49)"/><path class="cls-18" d="M1483.48,155.39c-19.7,19-15.9,53.6-5.5,56a8,8,0,0,0,6.3-1.7c4.5-3.8-.9-11.3-3-19.1-5.3-20.3,13.2-38.3,9.7-39.9C1489.18,149.89,1484,154.89,1483.48,155.39Z" transform="translate(1.93 0.49)"/><path class="cls-18" d="M1550.68,206.19c-2.4,1.3-5.8-.9-6.4-1.3-1.2-.8-6.5-4.5-6.4-19.1.3-25.5,16.7-33.8,12.2-48.9-3.2-10.8-14.3-15.7-13.8-16.4s14.8,4.6,18,16.4c2.8,10.5-4,15.1-4.9,33.4C1548.48,190.09,1555.58,203.49,1550.68,206.19Z" transform="translate(1.93 0.49)"/><path class="cls-18" d="M1554.08,210.69c-4.4,2-14.3-.9-17.2-5.6-3.1-5,4-8,8.4-19.3,4.7-12.1-.2-16.7,6.9-28.5,2.5-4.2,6-8.3,6.9-8.1,1.1.3-2.1,6.3-3.9,14.4-1.5,6.7-1.3,11.6-1,20.4C1554.88,203,1558.48,208.69,1554.08,210.69Z" transform="translate(1.93 0.49)"/><path class="cls-18" d="M1539.78,152c1.4-1.2,8.8,4.7,13.8,11.7a47.49,47.49,0,0,1,6.4,13.7c3,9.4,8.9,28.1,2,33.6-4.1,3.2-12.4,1.5-14.3-2.5s3.7-7.9,5.9-15.3C1559.08,174.79,1537.28,154.09,1539.78,152Z" transform="translate(1.93 0.49)"/><path class="cls-18" d="M1568.08,178.19c1.1,1.2,2.9,3.4,5.1,11.8,3.5,13.4,1,16-1.3,17.3-1.7,1-4.6,2.2-6.4,1.7-3.1-.9,0-6.4.9-11.6,2.6-14.9-13.2-25.8-10.2-26.7C1558,170.19,1564.38,174.19,1568.08,178.19Z" transform="translate(1.93 0.49)"/><path class="cls-18" d="M1485.78,135.29c2.5-.4,17.4,22.8,14.8,52-1.1,12.5-6.3,35.4-17.7,36.5-4.3.4-9.3-2.2-10.8-5.3-2.8-5.7,6.7-12.6,10.3-15.8C1507.38,180.69,1482.28,135.79,1485.78,135.29Z" transform="translate(1.93 0.49)"/><path class="cls-18" d="M1502.68,183.09c-3.4,21.2,16.3,43.2,27.1,42.3,4.7-.4,8.8-5.2,9-9.1.2-3.6-2.8-6.3-6.2-9.5,0,0-9-8.5-15.8-16.4-14-16.3,38.6-52.7,34.9-54.8-2.1-1.2-22.1,8.8-36.1,24.8C1510.38,166.19,1504.28,173.29,1502.68,183.09Z" transform="translate(1.93 0.49)"/><path class="cls-18" d="M1784.78,165c-1.4-1.2-8.8,4.7-13.8,11.7a47.49,47.49,0,0,0-6.4,13.7c-3,9.4-8.9,28.1-2,33.6,4.1,3.2,12.4,1.5,14.3-2.5s-3.7-7.9-5.9-15.3C1765.48,187.79,1787.28,167.19,1784.78,165Z" transform="translate(1.93 0.49)"/><path class="cls-18" d="M1653.48,145.09c2.5-.4,17.4,22.8,14.8,52-1.1,12.5-6.3,35.4-17.7,36.5-4.3.4-9.3-2.2-10.8-5.3-2.8-5.7,6.7-12.6,10.3-15.8C1675.08,190.49,1650.08,145.59,1653.48,145.09Z" transform="translate(1.93 0.49)"/><path class="cls-18" d="M1656,154.49c-2.7-.4-13.8,15.8-12.3,34.8,1.1,13.4,8,22,20.7,37.9,6.7,8.3,12.5,13.7,21.7,15.5,5.2,1,12.4,1.1,13.8-1.1,1.7-2.6-6.6-7-16.8-15.1a159.47,159.47,0,0,1-19.7-19.7C1644.08,184,1659.58,155.09,1656,154.49Z" transform="translate(1.93 0.49)"/><path class="cls-18" d="M1682.58,211.89a12.56,12.56,0,0,0,4.9,0c7.1-1.2,14.4-6.4,14.8-11.9.4-4.8-4.7-6-8.4-11.9-4-6.6-2.4-12.8.5-22.8,4.6-16.2,13-25.9,11.8-26.3s-9.4,7.3-15.3,17.6c-5.2,9.2-11.9,20.8-5.9,32,2.9,5.3,7.8,9,5.4,11.6-2.9,3.2-12.6.4-14.8,3.5C1674,205.89,1677.48,210.79,1682.58,211.89Z" transform="translate(1.93 0.49)"/><path class="cls-18" d="M1723.48,216.49c-4,2.5-12.3,1.8-14.8-.7s2.3-5.7,3-13a20.8,20.8,0,0,0-2.5-11.2c-3.9-8.2-11.4-13.2-15.3-15.8-6.2-4.1-7.4-3.3-10.8-6.3-8-7.1-7.7-17-6.4-17.2.9-.2,1.9,4.6,6.4,10.5,9.4,12.3,20.6,12.2,31.5,22.1C1726.58,195.69,1730.78,212,1723.48,216.49Z" transform="translate(1.93 0.49)"/><path class="cls-18" d="M1762.38,153.09c1.5,1.7,4.7,5.2,4.9,9.5.4,5.9-4.8,8.9-7.9,13.3-10.6,15.4,12.9,34.2,3.4,40-2.4,1.5-6,1.6-8.4,1.1-10.3-2.3-16.1-20.7-8.9-35.1,5.3-10.5,14.4-12.5,13.8-21.1s-10.3-14.6-8.9-15.5C1751.48,144.79,1757.88,148.19,1762.38,153.09Z" transform="translate(1.93 0.49)"/><path class="cls-18" d="M1740.78,212.59c-4.4,1.1-10.4-1.5-13.3-4.6-8.9-9.4,13.5-22.1,5.9-38.3-2.5-5.3-7.8-10.1-5.9-11.2,1.3-.8,5.5.5,8.4,2.5,11,7.3,6.3,26,5.4,29.5-.7,2.6-1.7,5.5,0,8.8,1.8,3.5,4.9,4.5,4.9,7.4C1746.18,209.09,1743.88,211.79,1740.78,212.59Z" transform="translate(1.93 0.49)"/><path class="cls-18" d="M1715.68,140c3.3-.4,34.5,83.3,18.7,87.8-2.5.7-5.6-.8-6.9-1.4-11.2-5.4-6.2-21.3-4.9-37.9C1724.78,158.79,1714.08,140.29,1715.68,140Z" transform="translate(1.93 0.49)"/><path class="cls-18" d="M1656.88,149c1.5-.5,52.1,56.4,35.5,67.8-3.2,2.2-9.3,3-12.3,1.4-6-3.1,3.6-13.7-1-28.8-.6-1.9-.9-2.2-6.4-11.9C1662,158.49,1656.58,149.09,1656.88,149Z" transform="translate(1.93 0.49)"/><path class="cls-18" d="M1645.78,231.59c-2.5,1.6-8.3,1.3-11.8-.7-8.4-4.9,2.3-16.2,0-36.5-1.5-13-7.4-21.9-5.4-22.5,1.8-.5,7.2,6.1,10.3,11.2a46.79,46.79,0,0,1,5.9,16.2c1.8,10.2-1.4,10.3.5,20.4C1646.48,226.29,1648.58,229.79,1645.78,231.59Z" transform="translate(1.93 0.49)"/><path class="cls-18" d="M1673.58,166c.6.1-2.4,6.9-1.5,15.2,2.3,19.8,25.7,29.5,21.7,36.8-1.4,2.7-5.8,3.8-8.9,3.5-10.5-1.1-17.7-20.7-16.8-36.4C1668.78,174.79,1672.88,165.89,1673.58,166Z" transform="translate(1.93 0.49)"/><path class="cls-18" d="M1740.38,177.79c-.6.1,2.4,6.9,1.5,15.2-2.3,19.8-25.7,29.5-21.7,36.8,1.4,2.7,5.8,3.8,8.9,3.5,10.5-1.1,17.7-20.7,16.8-36.4C1745.18,186.49,1741.08,177.69,1740.38,177.79Z" transform="translate(1.93 0.49)"/><path class="cls-18" d="M1762.18,176.19c-19.7,19-15.9,53.6-5.5,56a8,8,0,0,0,6.3-1.7c4.5-3.8-.9-11.3-3-19.1-5.3-20.3,13.2-38.3,9.7-39.9C1767.88,170.69,1762.68,175.69,1762.18,176.19Z" transform="translate(1.93 0.49)"/><path class="cls-18" d="M1691,237.79c2.4,1.8,8.2,2,11.8.2,8.8-4.2-1-16.4,2.9-36.4,2.5-12.9,9.1-21.3,7.2-22-1.7-.6-7.7,5.5-11.2,10.4a46,46,0,0,0-7.2,15.6c-2.6,10,.6,10.4-2.1,20.3C1690.68,232.49,1688.38,235.79,1691,237.79Z" transform="translate(1.93 0.49)"/><path class="cls-18" d="M872,210.49c6-2,6.2-9.1,8.4-24.8,3.7-25.5,6.3-29.8,3.8-41.5-1.7-7.9-5.1-16.3-6.8-16.1-1.9.2,1.2,11.9-.4,26.5-3.3,30.7-24.3,47.9-15.6,54.6C864.28,211.29,869,211.49,872,210.49Z" transform="translate(1.93 0.49)"/><path class="cls-18" d="M1040.38,140.89c-1.5,1.7-4.7,5.2-4.9,9.5-.4,5.9,4.8,8.9,7.9,13.3,10.6,15.4-12.9,34.2-3.4,40,2.4,1.5,6,1.6,8.4,1.1,10.3-2.3,16.1-20.7,8.9-35.1-5.3-10.5-14.4-12.5-13.8-21.1s10.3-14.6,8.9-15.5C1051.28,132.59,1044.88,136,1040.38,140.89Z" transform="translate(1.93 0.49)"/><path class="cls-18" d="M892.28,208.79c-2.4,1.3-5.8-.9-6.4-1.3-1.2-.8-6.5-4.5-6.4-19.1.3-25.5,16.7-33.8,12.2-48.9-3.2-10.8-14.3-15.7-13.8-16.4s14.8,4.6,18,16.4c2.8,10.5-4,15.1-4.9,33.4C890.08,192.69,897.18,206.09,892.28,208.79Z" transform="translate(1.93 0.49)"/><path class="cls-18" d="M1151.48,134.79c-1.3,1.8-3.4,5-5.9,17.2-4,19.6-1.1,23.3,1.5,25.3,1.9,1.4,5.4,3.2,7.4,2.5,3.6-1.3.1-9.4-1-16.9-3-21.7,15.3-37.7,11.8-39C1163.08,123.09,1155.78,129,1151.48,134.79Z" transform="translate(1.93 0.49)"/><path class="cls-18" d="M1127.48,154.19c-.1.1,0,.1-.2.4a70.31,70.31,0,0,0-6.2,16.1c-1.8,7.5-3.6,15.3.5,16.9a8.07,8.07,0,0,0,7.4-1.8c3.1-3.1-2.3-7.5-3.4-13.3s4.3-6.3,8.9-18.3c2.3-6.2,2.1-8.7,2-9.5-1-7.3-8-12.7-9.4-12.3C1125.18,133,1133.18,143.19,1127.48,154.19Z" transform="translate(1.93 0.49)"/><path class="cls-18" d="M1068,183.39c4.4,1.1,10.4-1.5,13.3-4.6,8.9-9.4-13.5-22.1-5.9-38.3,2.5-5.3,7.8-10.1,5.9-11.2-1.3-.8-5.5.5-8.4,2.5-11,7.3-6.3,26-5.4,29.5.7,2.6,1.7,5.5,0,8.8-1.8,3.5-4.9,4.5-4.9,7.4C1062.58,179.89,1064.78,182.59,1068,183.39Z" transform="translate(1.93 0.49)"/><path class="cls-18" d="M1092.08,107.79c-3.3-.4-34.5,83.3-18.7,87.8,2.5.7,5.6-.8,6.9-1.4,11.2-5.4,6.2-21.3,4.9-37.9C1082.88,126.59,1093.68,108.09,1092.08,107.79Z" transform="translate(1.93 0.49)"/><path class="cls-18" d="M1163,120.49c-1.5-.5-52.1,56.4-35.5,67.8,3.2,2.2,9.3,3,12.3,1.4,6-3.1-3.6-13.7,1-28.8.6-1.9.9-2.2,6.4-11.9C1157.88,130,1163.28,120.59,1163,120.49Z" transform="translate(1.93 0.49)"/><path class="cls-18" d="M952.18,184.59c2.5,1.6,8.3,1.3,11.8-.7,8.4-4.9-2.3-16.2,0-36.5,1.5-13,7.4-21.9,5.4-22.5-1.8-.5-7.2,6.1-10.3,11.2a46.79,46.79,0,0,0-5.9,16.2c-1.8,10.2,1.4,10.3-.5,20.4C951.38,179.29,949.38,182.79,952.18,184.59Z" transform="translate(1.93 0.49)"/><path class="cls-18" d="M1021.48,127.79c-.6.1,2.4,6.9,1.5,15.2-2.3,19.8-25.7,29.5-21.7,36.8,1.4,2.7,5.8,3.8,8.9,3.5,10.5-1.1,17.7-20.7,16.8-36.4C1026.28,136.59,1022.18,127.69,1021.48,127.79Z" transform="translate(1.93 0.49)"/><path class="cls-18" d="M1109,186.89c.7.8,4,4.2,2.5,6.7s-7.5,3-9.7,2.7c-17.4-2.5-15.2-85.7-11.8-85.8C1093,110.39,1097.88,174.39,1109,186.89Z" transform="translate(1.93 0.49)"/><path class="cls-18" d="M1065.18,150.09c14.2,23.3,1.9,55.9-8.8,55.5a8.2,8.2,0,0,1-5.7-3.2c-3.4-4.8,3.7-10.7,7.7-17.7,10.3-18.3-3.1-40.4.7-41C1061,143.29,1064.78,149.39,1065.18,150.09Z" transform="translate(1.93 0.49)"/><path class="cls-18" d="M1325.68,136c-1.4.9,8.3,6.9,8.9,15.5s-8.5,10.6-13.8,21.1c-7.2,14.4-1.4,32.8,8.9,35.1,2.4.5,6,.4,8.4-1.1,9.5-5.8-14-24.6-3.4-40,3.1-4.4,8.3-7.4,7.9-13.3-.2-4.3-3.4-7.8-4.9-9.5C1333.18,138.89,1326.78,135.49,1325.68,136Z" transform="translate(1.93 0.49)"/><path class="cls-18" d="M1476.38,187.59c-.9-18.3-7.7-22.9-4.9-33.4,3.2-11.8,17.4-17.1,18-16.4s-10.6,5.6-13.8,16.4c-4.5,15.1,11.9,23.4,12.2,48.9.1,14.6-5.2,18.3-6.4,19.1-.6.4-4,2.6-6.4,1.3C1470.18,220.79,1477.28,207.39,1476.38,187.59Z" transform="translate(1.93 0.49)"/><path class="cls-18" d="M1212.78,126.79c-3.5,1.3,14.8,17.3,11.8,39-1.1,7.5-4.6,15.6-1,16.9,2,.7,5.5-1.1,7.4-2.5,2.6-2,5.5-5.7,1.5-25.3-2.5-12.2-4.6-15.4-5.9-17.2C1222.28,131.89,1215,126,1212.78,126.79Z" transform="translate(1.93 0.49)"/><path class="cls-18" d="M1255.58,134.29c-1.4-.4-8.4,5-9.4,12.3-.1.8-.3,3.3,2,9.5,4.6,12,10,12.5,8.9,18.3s-6.5,10.2-3.4,13.3a8.07,8.07,0,0,0,7.4,1.8c4.1-1.6,2.3-9.4.5-16.9a70.31,70.31,0,0,0-6.2-16.1c-.2-.3-.1-.3-.2-.4C1249.48,145.09,1257.48,134.89,1255.58,134.29Z" transform="translate(1.93 0.49)"/><path class="cls-18" d="M1314.68,171.29c0-2.9-3.1-3.9-4.9-7.4-1.7-3.3-.7-6.2,0-8.8.9-3.5,5.6-22.2-5.4-29.5-2.9-2-7.1-3.3-8.4-2.5-1.9,1.1,3.4,5.9,5.9,11.2,7.6,16.2-14.8,28.9-5.9,38.3,2.9,3.1,8.9,5.7,13.3,4.6C1312.48,176.39,1314.68,173.69,1314.68,171.29Z" transform="translate(1.93 0.49)"/><path class="cls-18" d="M1290.08,139.09c-1.3,16.6-6.3,32.5,4.9,37.9,1.3.6,4.4,2.1,6.9,1.4,15.8-4.5-15.4-88.2-18.7-87.8C1281.58,90.89,1292.38,109.39,1290.08,139.09Z" transform="translate(1.93 0.49)"/><path class="cls-18" d="M1233.08,148.19c5.5,9.7,5.8,10,6.4,11.9,4.6,15.1-5,25.7,1,28.8,3,1.6,9.1.8,12.3-1.4,16.6-11.4-34-68.3-35.5-67.8C1217,119.79,1222.38,129.19,1233.08,148.19Z" transform="translate(1.93 0.49)"/><path class="cls-18" d="M1430,195.49c-1.9-10.1,1.3-10.2-.5-20.4a46.79,46.79,0,0,0-5.9-16.2c-3.1-5.1-8.5-11.7-10.3-11.2-2,.6,3.9,9.5,5.4,22.5,2.3,20.3-8.4,31.6,0,36.5,3.5,2,9.3,2.3,11.8.7C1433.28,205.59,1431.28,202.09,1430,195.49Z" transform="translate(1.93 0.49)"/><path class="cls-18" d="M1231.48,161.79c-.9,15.7,6.3,35.3,16.8,36.4,3.1.3,7.5-.8,8.9-3.5,4-7.3-19.4-17-21.7-36.8-.9-8.3,2.1-15.1,1.5-15.2S1232.18,151.49,1231.48,161.79Z" transform="translate(1.93 0.49)"/><path class="cls-18" d="M1287.28,104.29c3.4.1,5.6,83.3-11.8,85.8-2.2.3-8.2-.2-9.7-2.7s1.8-5.9,2.5-6.7C1279.38,168.19,1284.28,104.19,1287.28,104.29Z" transform="translate(1.93 0.49)"/><path class="cls-18" d="M1318.18,137.49c3.8.6-9.6,22.7.7,41,4,7,11.1,12.9,7.7,17.7a8.2,8.2,0,0,1-5.7,3.2c-10.7.4-23-32.2-8.8-55.5C1312.48,143.19,1316.28,137.09,1318.18,137.49Z" transform="translate(1.93 0.49)"/><path class="cls-18" d="M1197.08,66.29c3.2.1,6.2,35.6,1.5,72.8-2.7,21.1-6.3,49.1-19.5,52.3-7.8,1.9-18.7-4.9-18.6-9.8.1-3.3,5.2-4.7,9.3-7.3,13.4-8.5,13.8-27.9,17.6-57.2C1189.48,100.29,1193.88,66.19,1197.08,66.29Z" transform="translate(1.93 0.49)"/><path class="cls-18" d="M740.38,128.29c-22.7,27.6-18.4,78.1-6.4,81.6,2.6.7,5.6-.7,7.3-2.4,5.2-5.5-1.1-16.5-3.4-27.8-6.1-29.5,15.3-55.9,11.2-58.1C747,120.29,741,127.59,740.38,128.29Z" transform="translate(1.93 0.49)"/><path class="cls-18" d="M780,102.79c3.2.1,6.2,35.6,1.5,72.8-2.7,21.1-6.3,49.1-19.5,52.3-7.8,1.9-18.7-4.9-18.6-9.8.1-3.3,5.2-4.7,9.3-7.3,13.4-8.5,13.8-27.9,17.6-57.2C772.38,136.89,776.88,102.79,780,102.79Z" transform="translate(1.93 0.49)"/><path class="cls-18" d="M737.28,213.79c12.7-15.4,7.8-30.4,14.2-63,5-25.5,14.1-47.4,16.1-46.9,2.4.6-10.7,32.4-10.3,80.6.2,21.9,3.1,35.3-5.9,43.8-10.7,10.2-31.8,7.5-33.2,2.5C717.18,227.09,728.08,224.89,737.28,213.79Z" transform="translate(1.93 0.49)"/><path class="cls-18" d="M893.18,131c-1.5,1.7-4.7,5.2-4.9,9.5-.4,5.9,4.8,8.9,7.9,13.3,10.6,15.4-12.9,34.2-3.4,40,2.4,1.5,6,1.6,8.4,1.1,10.3-2.3,16.1-20.7,8.9-35.1-5.3-10.5-14.4-12.5-13.8-21.1s10.3-14.6,8.9-15.5C904.08,122.69,897.68,126.09,893.18,131Z" transform="translate(1.93 0.49)"/><path class="cls-18" d="M944.88,97.89c-3.3-.4-34.5,83.3-18.7,87.8,2.5.7,5.6-.8,6.9-1.4,11.2-5.4,6.2-21.3,4.9-37.9C935.68,116.69,946.48,98.19,944.88,97.89Z" transform="translate(1.93 0.49)"/><path class="cls-18" d="M961.78,177c.7.8,4,4.2,2.5,6.7s-7.5,3-9.7,2.7c-17.4-2.5-15.2-85.7-11.8-85.8C945.78,100.49,950.68,164.49,961.78,177Z" transform="translate(1.93 0.49)"/><path class="cls-18" d="M918,140.19c14.2,23.3,1.9,55.9-8.8,55.5a8.2,8.2,0,0,1-5.7-3.2c-3.4-4.8,3.7-10.7,7.7-17.7,10.3-18.3-3.1-40.4.7-41C913.78,133.39,917.58,139.49,918,140.19Z" transform="translate(1.93 0.49)"/><path class="cls-18" d="M1043.88,71.39c2.5.5,2.3,36.1-17.1,71.8-8.3,15.2-26.4,42-37.3,38.7-4.1-1.2-7-6.7-6.6-11.1.8-8.3,13.4-13.1,18.6-15.6C1036.78,137.79,1040.48,70.69,1043.88,71.39Z" transform="translate(1.93 0.49)"/><path class="cls-18" d="M980,121.49c-1.5,1.7-4.7,5.2-4.9,9.5-.4,5.9,4.8,8.9,7.9,13.3,10.6,15.4-12.9,34.2-3.4,40,2.4,1.5,6,1.6,8.4,1.1,10.3-2.3,16.1-20.7,8.9-35.1-5.3-10.5-14.4-12.5-13.8-21.1s10.3-14.6,8.9-15.5C990.88,113.19,984.48,116.59,980,121.49Z" transform="translate(1.93 0.49)"/><path class="cls-18" d="M1004.78,130.69c14.2,23.3,1.9,55.9-8.8,55.5a8.2,8.2,0,0,1-5.7-3.2c-3.4-4.8,3.7-10.7,7.7-17.7,10.3-18.3-3.1-40.4.7-41C1000.58,123.89,1004.38,130,1004.78,130.69Z" transform="translate(1.93 0.49)"/><path class="cls-18" d="M1116.88,192.29c7.6-3,3.1-23.7,5.5-67.9.8-15.3,1.6-16.8,1.5-27.3-.2-17.2-.4-45.1-14-51.9-3.9-2-9.3-2.4-10-1-.8,1.7,5.8,5.7,9,8.7,19.1,18.2,2.3,82.1-5.1,110.4-1.2,4.7-4.4,16.6,1.6,23.8C1107.88,190.09,1113.08,193.89,1116.88,192.29Z" transform="translate(1.93 0.49)"/><path class="cls-18" d="M784.18,230.09c-8.7-3-3.5-23.7-6.3-67.9-.9-15.3-1.8-16.8-1.7-27.3.2-17.2.5-45.1,16-51.9,4.4-2,10.6-2.4,11.4-1,.9,1.7-6.6,5.7-10.3,8.7-21.8,18.2-2.6,82.1,5.8,110.4,1.4,4.7,5,16.6-1.8,23.8C794.48,227.89,788.48,231.69,784.18,230.09Z" transform="translate(1.93 0.49)"/><path class="cls-18" d="M847.88,133.19c-2.2,1.6-6.9,4.9-9.2,10.3-3.2,7.4.3,13,1.1,19.7,2.7,23.3-28.5,38.9-22.3,49.7a9.65,9.65,0,0,0,7.4,4.4c10.8.7,25.1-20.6,25.2-41.5,0-15.2-7.6-21-3-31.7s16.7-14.9,15.8-16.6C862.18,126.49,854.48,128.59,847.88,133.19Z" transform="translate(1.93 0.49)"/><path class="cls-18" d="M861,151c2.3,34.7-24.9,71.8-34.8,67.5-2.1-.9-3.5-3.8-3.9-6.1-.9-7.3,8.6-12.3,15.7-19.8,18.5-19.6,16.4-52.5,20.3-51.9C860.28,140.89,860.88,150,861,151Z" transform="translate(1.93 0.49)"/><path class="cls-18" d="M1031.48,206.79c4.4,2,14.3-.9,17.2-5.6,3.1-5-4-8-8.4-19.3-4.7-12.1.2-16.7-6.9-28.5-2.5-4.2-6-8.3-6.9-8.1-1.1.3,2.1,6.3,3.9,14.4,1.5,6.7,1.3,11.6,1,20.4C1030.68,199.09,1027.08,204.79,1031.48,206.79Z" transform="translate(1.93 0.49)"/><path class="cls-18" d="M1045.78,148.09c-1.4-1.2-8.8,4.7-13.8,11.7a47.49,47.49,0,0,0-6.4,13.7c-3,9.4-8.9,28.1-2,33.6,4.1,3.2,12.4,1.5,14.3-2.5s-3.7-7.9-5.9-15.3C1026.48,170.89,1048.28,150.19,1045.78,148.09Z" transform="translate(1.93 0.49)"/><path class="cls-18" d="M1008.08,156.29c-19.7,19-15.9,53.6-5.5,56a8,8,0,0,0,6.3-1.7c4.5-3.8-.9-11.3-3-19.1-5.3-20.3,13.2-38.3,9.7-39.9C1013.78,150.79,1008.58,155.79,1008.08,156.29Z" transform="translate(1.93 0.49)"/><path class="cls-18" d="M1254.88,189.39c4.9,1,11.7-1.3,14.9-4.1,10-8.5-15.1-19.9-6.6-34.5,2.8-4.8,8.7-9.1,6.6-10.1-1.5-.7-6.2.4-9.4,2.2-12.3,6.6-7.1,23.4-6.1,26.5.8,2.3,1.9,4.9,0,7.9s-5.5,4-5.5,6.7C1248.88,186.29,1251.38,188.69,1254.88,189.39Z" transform="translate(1.93 0.49)"/><path class="cls-18" d="M1285.48,103.79c-3.3-.4-34.5,83.3-18.7,87.8,2.5.7,5.6-.8,6.9-1.4,11.2-5.4,6.2-21.3,4.9-37.9C1276.28,122.59,1287,104,1285.48,103.79Z" transform="translate(1.93 0.49)"/><path class="cls-18" d="M1250.78,138.59c.6.1-2.4,6.9-1.5,15.2,2.3,19.8,25.7,29.5,21.7,36.8-1.4,2.7-5.8,3.8-8.9,3.5-10.5-1.1-17.7-20.7-16.8-36.4C1245.88,147.29,1250,138.49,1250.78,138.59Z" transform="translate(1.93 0.49)"/><path class="cls-18" d="M1153.48,195.59c-4.4,2-14.3-.9-17.2-5.6-3.1-5,4-8,8.4-19.3,4.7-12.1-.2-16.7,6.9-28.5,2.5-4.2,6-8.3,6.9-8.1,1.1.3-2.1,6.3-3.9,14.4-1.5,6.7-1.3,11.6-1,20.4C1154.28,187.89,1157.88,193.59,1153.48,195.59Z" transform="translate(1.93 0.49)"/><path class="cls-18" d="M1139.18,136.89c1.4-1.2,8.8,4.7,13.8,11.7a47.49,47.49,0,0,1,6.4,13.7c3,9.4,8.9,28.1,2,33.6-4.1,3.2-12.4,1.5-14.3-2.5s3.7-7.9,5.9-15.3C1158.48,159.69,1136.68,139,1139.18,136.89Z" transform="translate(1.93 0.49)"/><path class="cls-18" d="M1167.48,163.09c1.1,1.2,2.9,3.4,5.1,11.8,3.5,13.4,1,16-1.3,17.3-1.7,1-4.6,2.2-6.4,1.7-3.1-.9,0-6.4.9-11.6,2.6-14.9-13.2-25.8-10.2-26.7C1157.38,155.09,1163.78,159.09,1167.48,163.09Z" transform="translate(1.93 0.49)"/><path class="cls-18" d="M832.78,144.49c-3.3-.4-34.5,83.3-18.7,87.8,2.5.7,5.6-.8,6.9-1.4,11.2-5.4,6.2-21.3,4.9-37.9C823.58,163.29,834.38,144.79,832.78,144.49Z" transform="translate(1.93 0.49)"/><path class="cls-18" d="M849.68,223.59c.7.8,4,4.2,2.5,6.7s-7.5,3-9.7,2.7c-17.4-2.5-15.2-85.7-11.8-85.8C833.68,147.09,838.58,211.09,849.68,223.59Z" transform="translate(1.93 0.49)"/></g></g></svg>