<?xml version="1.0" encoding="utf-8"?>
<!-- Generator: Adobe Illustrator 26.0.3, SVG Export Plug-In . SVG Version: 6.00 Build 0)  -->
<svg version="1.1" xmlns="http://www.w3.org/2000/svg" xmlns:xlink="http://www.w3.org/1999/xlink" x="0px" y="0px"
	 viewBox="0 0 100 100" style="enable-background:new 0 0 100 100;" xml:space="preserve">
<style type="text/css">
	.st0{fill:none;stroke:#000000;stroke-width:2;stroke-miterlimit:10;}
	.st1{fill:#F9B233;stroke:#000000;stroke-miterlimit:10;}
	.st2{fill:#FCEA2E;stroke:#000000;stroke-width:2;stroke-miterlimit:10;}
	.st3{fill:#F39200;stroke:#000000;stroke-width:2;stroke-miterlimit:10;}
	.st4{fill:#FCE600;stroke:#000000;stroke-width:2;stroke-miterlimit:10;}
	.st5{fill:#FCE600;stroke:#000000;stroke-miterlimit:10;}
	.st6{fill:#ED6C11;stroke:#000000;stroke-miterlimit:10;}
	.st7{fill:#FDD30C;stroke:#000000;stroke-miterlimit:10;}
</style>
<g id="Ebene_2">
</g>
<g id="Ebene_1">
	<polygon class="st0" points="8,25.79 49.97,1.57 91.97,25.84 92,74.34 50.03,98.57 8.03,74.29 	"/>
	<path class="st1" d="M48.86,84.01C39.72,78.4,30.59,72.8,21.45,67.19c-0.19-11.29-0.37-22.59-0.56-33.88
		c1.81-0.82,4.67-2.15,8.07-4c7.07-3.84,8.75-5.66,9.68-5.04c3.27,2.18-15.27,26.16-8.43,38.4c6.26,11.2,31.33,8.23,31.29,11.93
		c-0.01,0.94-1.63,1.3-6.65,4.82C52.18,81.3,50.11,82.96,48.86,84.01z"/>
	<polygon class="st2" points="23.62,32.51 50.93,16.12 78.26,32.55 78.28,65.36 50.97,81.75 23.64,65.32 	"/>
	<polygon class="st3" points="32.52,37.79 52.02,26.09 71.55,37.82 71.56,61.26 52.05,72.96 32.53,61.23 	"/>
	<path class="st4" d="M69.24,62.69L49.74,74.4L30.21,62.67L30.2,39.23l19.51-11.71"/>
	<path class="st5" d="M49.71,27.52c1.1,0.66,2.19,1.32,3.29,1.98c5.41,3.25,10.82,6.5,16.23,9.75c0,7.81,0.01,15.62,0.01,23.44"/>
	<rect x="46.72" y="33.75" class="st6" width="6.9" height="34.67"/>
	<rect x="46.99" y="35.17" class="st7" width="5.47" height="33.39"/>
	<path class="st1" d="M21.43,32.84"/>
</g>
</svg>
