<?xml version="1.0" encoding="utf-8"?>
<!-- Generator: Adobe Illustrator 26.0.3, SVG Export Plug-In . SVG Version: 6.00 Build 0)  -->
<svg version="1.1" id="Ebene_1" xmlns="http://www.w3.org/2000/svg" xmlns:xlink="http://www.w3.org/1999/xlink" x="0px" y="0px"
	 viewBox="0 0 100 100" style="enable-background:new 0 0 100 100;" xml:space="preserve">
<style type="text/css">
	.st0{fill:#804122;stroke:#000000;stroke-width:2;stroke-miterlimit:10;}
	.st1{fill:#FFFFFF;}
	.st2{fill:#612F19;}
	.st3{fill:#FFC600;}
	.st4{fill:#FFD700;}
	.st5{fill:#E6BE00;}
</style>
<g id="Ebene_2_00000093860788734264317370000010671531211922489223_">
</g>
<g id="Ebene_1_00000017510764199299988230000010460311392665681541_">
	<polygon class="st0" points="8,25.8 50,1.6 92,25.8 92,74.3 50,98.6 8,74.3 	"/>
</g>
<path class="st1" d="M22.2,38.4c1.9,7,3.7,14.1,5.6,21.1c15,0,29.9,0,44.9,0c1.3-7.1,2.7-14.1,4-21.2C58.5,38.3,40.3,38.3,22.2,38.4
	z"/>
<polyline class="st2" points="29.5,40.6 29.5,43.4 32.6,43.4 32.6,40.6 "/>
<polyline class="st2" points="33.8,40.6 33.8,43.4 36.9,43.4 36.9,40.6 "/>
<polyline class="st2" points="29.5,44.3 29.5,47.1 32.6,47.1 32.6,44.3 "/>
<polyline class="st2" points="33.8,44.3 33.8,47.1 36.9,47.1 36.9,44.3 "/>
<polyline class="st2" points="29.4,48 29.4,50.8 32.6,50.8 32.6,48 "/>
<polyline class="st2" points="33.7,48 33.7,50.8 36.9,50.8 36.9,48 "/>
<polyline class="st2" points="29.4,51.7 29.4,54.5 32.6,54.5 32.6,51.7 "/>
<polyline class="st2" points="33.7,51.7 33.7,54.5 36.9,54.5 36.9,51.7 "/>
<polyline class="st2" points="29.4,55.4 29.4,58.2 32.6,58.2 32.6,55.4 "/>
<polyline class="st2" points="33.7,55.4 33.7,58.2 36.9,58.2 36.9,55.4 "/>
<polyline class="st2" points="38,40.6 38,43.4 41.1,43.4 41.1,40.6 "/>
<polyline class="st2" points="42.3,40.6 42.3,43.4 45.4,43.4 45.4,40.6 "/>
<polyline class="st2" points="38,44.3 38,47.1 41.1,47.1 41.1,44.3 "/>
<polyline class="st2" points="42.3,44.3 42.3,47.1 45.4,47.1 45.4,44.3 "/>
<polyline class="st2" points="37.9,48 37.9,50.8 41.1,50.8 41.1,48 "/>
<polyline class="st2" points="42.3,48 42.3,50.8 45.4,50.8 45.4,48 "/>
<polyline class="st2" points="37.9,51.7 37.9,54.5 41.1,54.5 41.1,51.7 "/>
<polyline class="st2" points="42.3,51.7 42.3,54.5 45.4,54.5 45.4,51.7 "/>
<polyline class="st2" points="37.9,55.4 37.9,58.2 41.1,58.2 41.1,55.4 "/>
<polyline class="st2" points="42.3,55.4 42.3,58.2 45.4,58.2 45.4,55.4 "/>
<polyline class="st2" points="46.3,40.7 46.3,43.5 49.4,43.5 49.4,40.7 "/>
<polyline class="st2" points="50.6,40.7 50.6,43.5 53.7,43.5 53.7,40.7 "/>
<polyline class="st2" points="46.3,44.4 46.3,47.2 49.4,47.2 49.4,44.4 "/>
<polyline class="st2" points="50.6,44.4 50.6,47.2 53.7,47.2 53.7,44.4 "/>
<polyline class="st2" points="46.3,48.1 46.3,50.9 49.4,50.9 49.4,48.1 "/>
<polyline class="st2" points="50.6,48.1 50.6,50.9 53.7,50.9 53.7,48.1 "/>
<polyline class="st2" points="46.3,51.8 46.3,54.6 49.4,54.6 49.4,51.8 "/>
<polyline class="st2" points="50.6,51.8 50.6,54.6 53.7,54.6 53.7,51.8 "/>
<polyline class="st2" points="46.3,55.5 46.3,58.3 49.4,58.3 49.4,55.5 "/>
<polyline class="st2" points="50.6,55.5 50.6,58.3 53.7,58.3 53.7,55.5 "/>
<polyline class="st2" points="54.7,40.7 54.7,43.5 57.8,43.5 57.8,40.7 "/>
<polyline class="st2" points="59,40.7 59,43.5 62.1,43.5 62.1,40.7 "/>
<polyline class="st2" points="54.7,44.4 54.7,47.2 57.8,47.2 57.8,44.4 "/>
<polyline class="st2" points="59,44.4 59,47.2 62.1,47.2 62.1,44.4 "/>
<polyline class="st2" points="54.6,48.1 54.6,50.9 57.8,50.9 57.8,48.1 "/>
<polyline class="st2" points="59,48.1 59,50.9 62.1,50.9 62.1,48.1 "/>
<polyline class="st2" points="54.6,51.8 54.6,54.6 57.8,54.6 57.8,51.8 "/>
<polyline class="st2" points="59,51.8 59,54.6 62.1,54.6 62.1,51.8 "/>
<polyline class="st2" points="54.6,55.5 54.6,58.3 57.8,58.3 57.8,55.5 "/>
<polyline class="st2" points="59,55.5 59,58.3 62.1,58.3 62.1,55.5 "/>
<polyline class="st2" points="63.2,40.7 63.2,43.5 66.3,43.5 66.3,40.7 "/>
<polyline class="st2" points="67.5,40.7 67.5,43.5 70.6,43.5 70.6,40.7 "/>
<polyline class="st2" points="63.2,44.4 63.2,47.2 66.3,47.2 66.3,44.4 "/>
<polyline class="st2" points="67.5,44.4 67.5,47.2 70.6,47.2 70.6,44.4 "/>
<polyline class="st2" points="63.2,48.1 63.2,50.9 66.3,50.9 66.3,48.1 "/>
<polyline class="st2" points="67.5,48.1 67.5,50.9 70.6,50.9 70.6,48.1 "/>
<polyline class="st2" points="63.2,51.8 63.2,54.6 66.3,54.6 66.3,51.8 "/>
<polyline class="st2" points="67.5,51.8 67.5,54.6 70.6,54.6 70.6,51.8 "/>
<polyline class="st2" points="63.2,55.5 63.2,58.3 66.3,58.3 66.3,55.5 "/>
<polyline class="st2" points="67.5,55.5 67.5,58.3 70.6,58.3 70.6,55.5 "/>
<g>
	<g id="Ebene_1_00000140009915772017522300000016664586206789009556_">
		<path class="st3" d="M69.8,38l-7-19.8l-20.5-3.8L28.7,30.3l7,19.7l20.5,3.8L69.8,38z M55.8,52.4l-19-3.6l-6.5-18.3l12.6-14.7
			l19,3.6l6.5,18.3L55.8,52.4z"/>
		<path class="st4" d="M42.8,15.8L30.2,30.5l6.5,18.3l19,3.6l12.6-14.7l-6.5-18.3L42.8,15.8z M44,39.6l-7.5-1.4L34,30.8l5-5.9
			l7.5,1.4l2.5,7.4L44,39.6z M60,43l-5,5.9l-7.5-1.4L45,40.1l5-5.9l7.5,1.4L60,43z M57.5,34.8L50,33.4L47.5,26l5-5.9l7.5,1.4
			l2.5,7.4L57.5,34.8z"/>
	</g>
	<path class="st5" d="M47.5,18.8c-1.1-0.5-2-0.2-2.9-1.1c-0.2-0.2-0.4-0.4-0.5-0.5c-0.5-0.2-1.3,0.4-1.4,0.9
		c-0.2,0.7,0.2,1.3,0.4,1.4c0.7,0.9,2,1.1,3.2,1.1c0.7,0,2.5,0.2,2.7-0.5C49,19.9,48.2,19.2,47.5,18.8z"/>
	<path class="st5" d="M46.5,22.4c-1.1-0.4-1.6,0.5-2.9,0.4c-0.2,0-0.7-0.2-1.3-0.5c-0.5-0.7-0.2-1.3-0.7-1.6c-0.7-0.5-2.9,0.4-3.4,2
		c-0.2,0.5-0.2,1.3,0,1.4c0.4,0.2,1.1-1.1,2-0.9c0.7,0,0.7,0.9,1.8,1.4s2.2,0.4,2.9,0.2c1.1-0.2,2.5-0.9,2.5-1.4
		C47.3,22.6,46.5,22.4,46.5,22.4z"/>
	<path class="st5" d="M64.2,29.4c-0.4-1.4-0.7-1.8-0.9-3.1c-0.2-1.3,0-1.3-0.2-2.5c-0.4-1.6-1.3-3.2-1.4-3.2c-0.2,0-0.2,0.5-0.2,0.9
		c0.2,0.9,0.7,1.1,0.9,2c0.2,0.5,0,0.7,0,1.6c0,0.5,0,1.1,0.5,2.7c0.5,1.8,1.6,4.8,1.8,4.7C64.9,32.6,64.6,30.8,64.2,29.4z"/>
	<path class="st5" d="M61.8,35c0.2-0.4,0.9,0,1.6-0.4c0.5-0.4,0.9-1.3,0.7-1.6c-0.2-0.2-0.5,0-1.3,0c-0.9,0-0.9-0.5-1.4-0.5
		c-0.7,0-1.6,1.1-1.8,2.2c-0.2,1.1,0.7,1.4,0.7,2.5c0,0.9-0.7,1.4-0.5,1.6c0.2,0.4,2.5-1.1,2.5-2.3C62.2,35.7,61.7,35.3,61.8,35z"/>
	<path class="st5" d="M66.2,38c0.4-0.9,0.7-0.9,0.9-1.4c0.2-0.9-0.4-2-0.9-2c-0.4,0-0.4,0.5-0.9,1.1c-0.5,0.4-1.1,0-1.3,0.4
		c-0.4,0.4,0.5,1.1,0.4,1.8c-0.2,0.9-2.2,0.7-2.3,1.4c-0.2,0.5,0.7,1.6,1.6,1.6c1.1,0.2,1.8-1.1,2-1.3C65.8,39.1,65.7,38.9,66.2,38z
		"/>
	<path class="st5" d="M42.5,40.9c0,0-0.2-0.2-0.7-0.4C40.3,40,40.2,40,40,40.1c-0.4,0.2-0.7,0.5-0.5,0.7c0,0.4,0.7,0.4,0.7,0.5
		s-1.1,0.2-1.3,0.7c-0.2,0.4,0.2,1.1,0.5,1.3c0.7,0.2,1.1-1.1,1.8-1.1c0.5,0.2,0.5,1.4,0.9,1.4s0.5-0.7,0.7-1.3
		C42.8,42.1,43,41.4,42.5,40.9z"/>
	<path class="st5" d="M45.3,45c-0.5-1.1-0.9-1.8-1.1-1.6c-0.4,0,0,1.1-0.5,1.6s-1.6,0.2-2,0c-0.9-0.2-1.1-0.7-1.4-0.5
		c-0.5,0.2-0.7,1.1-0.5,1.6s0.9,0.7,0.9,0.7c0.9,0.2,1.3-0.4,1.8-0.2c0.2,0.2,0.2,0.4,0.5,0.7s0.9,1.3,1.4,1.1c0.7,0,1.3-1.1,1.3-2
		C45.8,46.3,45.8,46.1,45.3,45z"/>
	<path class="st5" d="M38.2,40.4c0.5-0.7,0.7-0.7,0.7-0.9c-0.2-0.4-1.8,0.5-2.9-0.4c-0.4-0.4-0.2-0.4-1.1-2.2
		c-0.5-1.1-0.7-1.6-0.9-1.4c-0.4,0-0.2,1.4,0,2.5c0.2,0.7,0.4,1.4,0.9,2.3c0.5,0.7,0.9,0.7,0.9,1.3c0.2,0.9-0.4,1.4,0,1.8
		c0.2,0.2,0.7,0.2,1.1-0.2c0.4-0.2,0.2-0.5,0.5-1.3C37.5,41.6,37.7,41.1,38.2,40.4z"/>
	<path class="st5" d="M35.2,26.9c-0.7-0.4-2.2,0.7-2,1.3c0,0.4,0.5,0.5,1.1,0.7c0.5,0,1.3-0.4,1.4-1.1
		C35.8,27.4,35.7,27.1,35.2,26.9z"/>
	<path class="st5" d="M33,32.6c-0.7-1.3,0.2-2.5-0.2-2.7c-0.2-0.2-0.7,0.2-0.9,0.7c-0.2,0.4-0.2,0.7-0.2,0.9c0,0.5,0.4,0.7,0.5,1.3
		c0.4,1.1,0.2,1.8,0.4,1.8c0.2,0.2,0.9-0.4,0.9-0.9C33.5,33.2,33.3,33.2,33,32.6z"/>
	<path class="st5" d="M54.3,49.5c-0.2-0.2-0.5,0-1.3,0c-0.4,0-0.7-0.2-1.1-0.2c-0.7-0.2-0.9-0.4-1.4-0.5s-1.6-0.4-1.8,0
		s0.2,0.9,0.7,1.1c0.5,0.2,0.9-0.2,1.6,0c0.5,0.2,0.5,0.4,1.4,0.7c0.4,0.2,1.4,0.5,2,0.2C54.5,50.4,54.5,49.9,54.3,49.5z"/>
	<path class="st5" d="M59.2,45.6c-0.4-0.2-1.1,0.4-1.1,0.9c0,0.2,0,0.5,0.2,0.7c0.4,0.2,1.1-0.2,1.3-0.7
		C59.8,46.1,59.5,45.6,59.2,45.6z"/>
	<path class="st5" d="M58.2,48.6c-0.2-0.4-1.1-0.5-1.6-0.4c0,0-0.7,0.4-0.7,0.9S56.5,50,57,50C57.5,50,58.5,49.1,58.2,48.6z"/>
	<path class="st5" d="M63.3,41.8c-0.2-0.2-1.1,1.1-1.8,0.7c-0.4-0.2-0.4-1.3-0.5-1.3s-0.4,0.4-0.5,0.9c0,0.7,0.4,0.9,0.5,1.8
		c0,0.5,0,0.7,0,0.7c0.2,0,0.5-0.7,1.4-2C63.2,42.3,63.4,41.8,63.3,41.8z"/>
	<path class="st5" d="M56,19c-0.7-0.4-1.1,0-2.3-0.2c-1.1-0.2-1.3-0.5-1.8-0.4c-0.4,0.2-0.7,0.5-1.3,1.3c-0.5,0.5-1.3,1.6-1.1,1.8
		c0.2,0.2,1.3-0.2,2.2-1.1c0.7-0.5,0.7-0.9,1.1-1.1c0.7-0.2,1.3,0.7,2.5,0.9c0.5,0,1.4,0,1.4-0.4C56.7,19.5,56.3,19.2,56,19z"/>
	<path class="st5" d="M59,19.3c0,0-0.9-0.2-1.3,0.2c0,0.2,0,0.4,0,0.5c0.2,0.2,0.4,0.2,1.1,0.2c1.3,0,1.3,0,1.3-0.2
		C60.2,19.9,59.8,19.5,59,19.3z"/>
	<path class="st5" d="M39.2,46.6c-0.5-0.9,0-2-0.4-2.2c-0.4-0.4-1.4,0.2-1.8,0.9c-0.2,0.4-0.2,0.7,0,1.4s0.2,1.3,0.5,1.6
		c1.1,0.9,3.2,0,3.2-0.5C40.8,47.4,39.8,47.5,39.2,46.6z"/>
	<path class="st5" d="M47.5,48.4c-0.2-0.2-0.5,0.5-1.4,0.5c-0.4,0-0.5,0-1.4-0.2c-0.7,0-1.1,0-1.1,0c-0.2,0.2,1.8,1.6,3.1,0.9
		C47.3,49.5,47.7,48.6,47.5,48.4z"/>
	<polygon class="st3" points="57.3,33.9 61.8,28.7 59.5,22.2 52.8,21 48.2,26.2 50.5,32.6 	"/>
	<polygon class="st3" points="43.8,38.9 48.2,33.5 45.8,27.1 39.2,25.8 34.8,31 37,37.5 	"/>
	<polygon class="st3" points="54.5,48.1 59,42.9 56.8,36.4 50,35 45.5,40.4 47.8,46.8 	"/>
	<path class="st4" d="M49,27.6c0.4-0.5,1.4,0.4,2.3-0.2c0.4-0.4,0.2-0.5,0.9-1.3c0.7-0.9,1.4-0.9,1.6-1.4c0-0.5-0.4-0.7-0.2-1.3
		c0.2-0.5,0.5-0.5,0.7-0.9c0.2-0.5-0.9-1.1-0.7-1.3c0-0.2,0.5-0.2,2,0.2c2.2,0.5,2.3,0.7,2.3,0.9c0,0.5-1.8,0.7-1.8,2
		c0,0.2,0,0.2,0,0.5c-0.2,1.3-1.8,1.6-1.6,2.2c0,0.5,1.3,0.7,3.6,1.8c1.6,0.7,2,1.1,2,1.4c0,0.2-0.2,0.4-1.1,1.4
		c-0.7,0.9-0.7,1.1-0.9,1.1c-0.7,0-0.5-2.2-2.2-3.2c-0.7-0.4-1.4-0.7-1.6-0.4c-0.2,0.2,0.4,0.7,0.2,1.4c-0.2,0.5-0.7,0.5-0.7,1.1
		c-0.2,0.7,1.6,1.6,1.4,1.8c0,0.2-0.7-0.2-1.8-0.4c-0.9-0.2-1.4,0-1.6-0.4c-0.2-0.2,0-0.5,0.2-0.9c0.7-1.8,1.3-2.2,0.9-2.5
		c-0.2-0.4-1.1-0.4-1.6,0.2c-0.4,0.4-0.5,0.7-0.5,0.7c-0.2,0.4-0.4,0.4-0.4,0.4c-0.2,0-0.4-0.4-0.7-1.6C49,27.8,48.8,27.8,49,27.6z"
		/>
	<path class="st4" d="M42.8,30.3c-0.9,0.4-1.4,1.6-1.3,2.2c0.4,0.7,2,0,2.7,0.9c0.5,0.5,0.2,1.3,0.7,1.6c0.7,0.4,1.8-0.4,1.8-0.2
		c0.2,0.2-0.5,0.7-1.6,2.2c-0.5,0.7-0.9,1-1.1,1c-0.2-0.2,0-0.9-0.4-1.6c-0.4-0.4-0.5-0.5-1.6-0.7c-0.7-0.4-1.8-0.7-2.7-1.3
		c-0.5-0.4-1.6-1.1-1.4-2c0-0.4,0.4-0.4,0.7-0.9c0.7-1.1,0.4-1.8,0.9-2.3c0.4-0.4,0.7-0.4,2.3-0.5c2.9-0.2,3.6-0.5,4.1,0
		c0.4,0.2,0.4,0.5,0.7,1.3c0.2,0.5,0.9,2,0.5,2.3C46.8,32.6,44.7,29.8,42.8,30.3z"/>
	<path class="st4" d="M51.2,35.7c-0.4,0.2-0.4,0.9-0.2,1.3c0.2,0.4,0.5,0.4,0.5,0.9c0,0.4-0.2,0.4-0.4,0.9s0,0.7-0.2,0.7
		c-0.2,0.2-1.3-0.4-1.8-1.1c-0.5-0.7-0.4-1.4-0.5-1.4c-0.2,0-0.4,0.4-0.9,1.1c-0.5,0.5-0.7,0.7-0.9,1.1c-0.2,0.4-0.2,0.9,0,1.3
		c0.4,0.4,0.9-0.4,1.6-0.2c0.5,0.2,1.1,0.7,1.3,1.3c0.2,0.5,0,1.4-0.4,1.8c-0.9,0.4-2.3-1.4-2.9-1.3c-0.2,0.2,0,0.9,0.5,2.5
		c0.5,1.8,0.9,2,0.9,2.2C48,47,48.2,47,50,47.5c1.6,0.4,2.2,0.5,2.5,0.2c0.2-0.2,0.4-0.4,0.4-0.7c0-0.5-0.9-0.5-0.9-1.1
		c0-0.4,0.7-0.5,0.9-1.3c0-0.2,0.2-0.5,0-1.1S52,42.8,52,42.6s0.7-0.4,1.3,0c1.4,0.5,1.3,3.1,2.3,3.4c0.7,0.2,1.4-0.9,1.6-1.1
		c0.4-0.4,0.7-0.9,0.5-1.4c-0.2-0.9-1.8-0.9-1.8-1.4s1.8-0.2,2.2-1.1c0.2-0.2,0-0.7-0.4-1.6C57.3,38,57.3,38,57.2,38
		c-0.4,0-0.4,0.9-0.7,0.9s-0.5-0.4-0.9-0.2c-0.4,0-0.4,0.4-0.5,0.7c-0.5,0.5-1.6,0.5-1.8,0.2c-0.4-0.5,0.4-2.2,1.4-2.5
		c0.2-0.2,0.7-0.2,0.9-0.5c0.2-0.2-0.2-0.5-0.2-0.5c-0.4-0.4-0.9-0.2-2-0.4C52,35.7,51.7,35.3,51.2,35.7z"/>
</g>
<polygon class="st1" points="72.1,61 74.4,61 67.9,74.4 65.6,74.4 "/>
<polygon class="st1" points="72.8,61 69.8,61 25.6,70.7 25.6,72.5 30,72.5 72.8,63 "/>
<polygon class="st1" points="86.8,30 85.9,30.4 74.4,40.2 74.7,40.9 76,40.4 87.2,30.8 "/>
<polygon class="st1" points="28.4,74.5 26.1,74.2 24.7,76.1 25.6,78.2 27.9,78.5 29.3,76.6 "/>
<polygon class="st1" points="68.5,79.4 68.1,77.1 65.9,76.3 64.1,77.8 64.5,80.1 66.7,80.9 "/>
<path d="M-9.6,43.6"/>
<polygon class="st1" points="34.5,72.5 63.9,73.2 63.9,71.1 "/>
<polyline class="st1" points="25.7,42.5 25.8,39.3 73.3,39.1 73.2,41.6 26.9,42.5 "/>
</svg>
