<?xml version="1.0" encoding="utf-8"?>
<!-- Generator: Adobe Illustrator 26.0.3, SVG Export Plug-In . SVG Version: 6.00 Build 0)  -->
<svg version="1.1" id="Ebene_1" xmlns="http://www.w3.org/2000/svg" xmlns:xlink="http://www.w3.org/1999/xlink" x="0px" y="0px"
	 viewBox="0 0 100 100" style="enable-background:new 0 0 100 100;" xml:space="preserve">
<style type="text/css">
	.st0{fill:#804122;stroke:#000000;stroke-width:2;stroke-miterlimit:10;}
	.st1{fill:#804122;}
	.st2{fill:#FFC600;}
	.st3{fill:#FFD700;}
	.st4{fill:#E6BE00;}
</style>
<g id="Ebene_2_00000093860788734264317370000010671531211922489223_">
</g>
<g id="Ebene_1_00000017510764199299988230000010460311392665681541_">
	<polygon class="st0" points="8,25.8 50,1.6 92,25.8 92,74.3 50,98.6 8,74.3 	"/>
</g>
<path d="M22.2,38.4c1.9,7,3.7,14.1,5.6,21.1c15,0,29.9,0,44.9,0c1.3-7.1,2.7-14.1,4-21.2C58.5,38.3,40.3,38.3,22.2,38.4z"/>
<polyline class="st1" points="29.5,40.6 29.5,43.4 32.6,43.4 32.6,40.6 "/>
<polyline class="st1" points="33.8,40.6 33.8,43.4 36.9,43.4 36.9,40.6 "/>
<polyline class="st1" points="29.5,44.3 29.5,47.1 32.6,47.1 32.6,44.3 "/>
<polyline class="st1" points="33.8,44.3 33.8,47.1 36.9,47.1 36.9,44.3 "/>
<polyline class="st1" points="29.4,48 29.4,50.8 32.6,50.8 32.6,48 "/>
<polyline class="st1" points="33.7,48 33.7,50.8 36.9,50.8 36.9,48 "/>
<polyline class="st1" points="29.4,51.7 29.4,54.5 32.6,54.5 32.6,51.7 "/>
<polyline class="st1" points="33.7,51.7 33.7,54.5 36.9,54.5 36.9,51.7 "/>
<polyline class="st1" points="29.4,55.4 29.4,58.2 32.6,58.2 32.6,55.4 "/>
<polyline class="st1" points="33.7,55.4 33.7,58.2 36.9,58.2 36.9,55.4 "/>
<polyline class="st1" points="38,40.6 38,43.4 41.1,43.4 41.1,40.6 "/>
<polyline class="st1" points="42.3,40.6 42.3,43.4 45.4,43.4 45.4,40.6 "/>
<polyline class="st1" points="38,44.3 38,47.1 41.1,47.1 41.1,44.3 "/>
<polyline class="st1" points="42.3,44.3 42.3,47.1 45.4,47.1 45.4,44.3 "/>
<polyline class="st1" points="37.9,48 37.9,50.8 41.1,50.8 41.1,48 "/>
<polyline class="st1" points="42.3,48 42.3,50.8 45.4,50.8 45.4,48 "/>
<polyline class="st1" points="37.9,51.7 37.9,54.5 41.1,54.5 41.1,51.7 "/>
<polyline class="st1" points="42.3,51.7 42.3,54.5 45.4,54.5 45.4,51.7 "/>
<polyline class="st1" points="37.9,55.4 37.9,58.2 41.1,58.2 41.1,55.4 "/>
<polyline class="st1" points="42.3,55.4 42.3,58.2 45.4,58.2 45.4,55.4 "/>
<polyline class="st1" points="46.3,40.7 46.3,43.5 49.4,43.5 49.4,40.7 "/>
<polyline class="st1" points="50.6,40.7 50.6,43.5 53.7,43.5 53.7,40.7 "/>
<polyline class="st1" points="46.3,44.4 46.3,47.2 49.4,47.2 49.4,44.4 "/>
<polyline class="st1" points="50.6,44.4 50.6,47.2 53.7,47.2 53.7,44.4 "/>
<polyline class="st1" points="46.3,48.1 46.3,50.9 49.4,50.9 49.4,48.1 "/>
<polyline class="st1" points="50.6,48.1 50.6,50.9 53.7,50.9 53.7,48.1 "/>
<polyline class="st1" points="46.3,51.8 46.3,54.6 49.4,54.6 49.4,51.8 "/>
<polyline class="st1" points="50.6,51.8 50.6,54.6 53.7,54.6 53.7,51.8 "/>
<polyline class="st1" points="46.3,55.5 46.3,58.3 49.4,58.3 49.4,55.5 "/>
<polyline class="st1" points="50.6,55.5 50.6,58.3 53.7,58.3 53.7,55.5 "/>
<polyline class="st1" points="54.7,40.7 54.7,43.5 57.8,43.5 57.8,40.7 "/>
<polyline class="st1" points="59,40.7 59,43.5 62.1,43.5 62.1,40.7 "/>
<polyline class="st1" points="54.7,44.4 54.7,47.2 57.8,47.2 57.8,44.4 "/>
<polyline class="st1" points="59,44.4 59,47.2 62.1,47.2 62.1,44.4 "/>
<polyline class="st1" points="54.6,48.1 54.6,50.9 57.8,50.9 57.8,48.1 "/>
<polyline class="st1" points="59,48.1 59,50.9 62.1,50.9 62.1,48.1 "/>
<polyline class="st1" points="54.6,51.8 54.6,54.6 57.8,54.6 57.8,51.8 "/>
<polyline class="st1" points="59,51.8 59,54.6 62.1,54.6 62.1,51.8 "/>
<polyline class="st1" points="54.6,55.5 54.6,58.3 57.8,58.3 57.8,55.5 "/>
<polyline class="st1" points="59,55.5 59,58.3 62.1,58.3 62.1,55.5 "/>
<polyline class="st1" points="63.2,40.7 63.2,43.5 66.3,43.5 66.3,40.7 "/>
<polyline class="st1" points="67.5,40.7 67.5,43.5 70.6,43.5 70.6,40.7 "/>
<polyline class="st1" points="63.2,44.4 63.2,47.2 66.3,47.2 66.3,44.4 "/>
<polyline class="st1" points="67.5,44.4 67.5,47.2 70.6,47.2 70.6,44.4 "/>
<polyline class="st1" points="63.2,48.1 63.2,50.9 66.3,50.9 66.3,48.1 "/>
<polyline class="st1" points="67.5,48.1 67.5,50.9 70.6,50.9 70.6,48.1 "/>
<polyline class="st1" points="63.2,51.8 63.2,54.6 66.3,54.6 66.3,51.8 "/>
<polyline class="st1" points="67.5,51.8 67.5,54.6 70.6,54.6 70.6,51.8 "/>
<polyline class="st1" points="63.2,55.5 63.2,58.3 66.3,58.3 66.3,55.5 "/>
<polyline class="st1" points="67.5,55.5 67.5,58.3 70.6,58.3 70.6,55.5 "/>
<g>
	<g id="Ebene_1_00000140009915772017522300000016664586206789009556_">
		<path class="st2" d="M71.1,39l-7-19.8l-20.5-3.8L30,31.3L37,51l20.5,3.8L71.1,39z M57.1,53.4l-19-3.6l-6.5-18.3l12.6-14.7l19,3.6
			l6.5,18.3L57.1,53.4z"/>
		<path class="st3" d="M44.2,16.8L31.6,31.5l6.5,18.3l19,3.6l12.6-14.7l-6.5-18.3L44.2,16.8z M45.4,40.6l-7.5-1.4l-2.5-7.4l5-5.9
			l7.5,1.4l2.5,7.4L45.4,40.6z M61.3,44l-5,5.9l-7.5-1.4l-2.5-7.4l5-5.9l7.5,1.4L61.3,44z M58.9,35.8l-7.5-1.4L48.9,27l5-5.9
			l7.5,1.4l2.5,7.4L58.9,35.8z"/>
	</g>
	<path class="st4" d="M48.9,19.8c-1.1-0.5-2-0.2-2.9-1.1c-0.2-0.2-0.4-0.4-0.5-0.5c-0.5-0.2-1.3,0.4-1.4,0.9
		c-0.2,0.7,0.2,1.3,0.4,1.4c0.7,0.9,2,1.1,3.2,1.1c0.7,0,2.5,0.2,2.7-0.5C50.3,20.9,49.6,20.2,48.9,19.8z"/>
	<path class="st4" d="M47.8,23.4c-1.1-0.4-1.6,0.5-2.9,0.4c-0.2,0-0.7-0.2-1.3-0.5c-0.5-0.7-0.2-1.3-0.7-1.6c-0.7-0.5-2.9,0.4-3.4,2
		c-0.2,0.5-0.2,1.3,0,1.4c0.4,0.2,1.1-1.1,2-0.9c0.7,0,0.7,0.9,1.8,1.4c1.1,0.5,2.2,0.4,2.9,0.2c1.1-0.2,2.5-0.9,2.5-1.4
		C48.7,23.6,47.8,23.4,47.8,23.4z"/>
	<path class="st4" d="M65.6,30.4c-0.4-1.4-0.7-1.8-0.9-3.1c-0.2-1.3,0-1.3-0.2-2.5c-0.4-1.6-1.3-3.2-1.4-3.2c-0.2,0-0.2,0.5-0.2,0.9
		c0.2,0.9,0.7,1.1,0.9,2c0.2,0.5,0,0.7,0,1.6c0,0.5,0,1.1,0.5,2.7c0.5,1.8,1.6,4.8,1.8,4.7C66.3,33.6,65.9,31.8,65.6,30.4z"/>
	<path class="st4" d="M63.2,36c0.2-0.4,0.9,0,1.6-0.4c0.5-0.4,0.9-1.3,0.7-1.6c-0.2-0.2-0.5,0-1.3,0c-0.9,0-0.9-0.5-1.4-0.5
		c-0.7,0-1.6,1.1-1.8,2.2c-0.2,1.1,0.7,1.4,0.7,2.5c0,0.9-0.7,1.4-0.5,1.6c0.2,0.4,2.5-1.1,2.5-2.3C63.6,36.7,63,36.3,63.2,36z"/>
	<path class="st4" d="M67.5,39c0.4-0.9,0.7-0.9,0.9-1.4c0.2-0.9-0.4-2-0.9-2c-0.4,0-0.4,0.5-0.9,1.1c-0.5,0.4-1.1,0-1.3,0.4
		c-0.4,0.4,0.5,1.1,0.4,1.8c-0.2,0.9-2.2,0.7-2.3,1.4c-0.2,0.5,0.7,1.6,1.6,1.6c1.1,0.2,1.8-1.1,2-1.3C67.2,40.1,67,39.9,67.5,39z"
		/>
	<path class="st4" d="M43.8,41.9c0,0-0.2-0.2-0.7-0.4c-1.4-0.5-1.6-0.5-1.8-0.4c-0.4,0.2-0.7,0.5-0.5,0.7c0,0.4,0.7,0.4,0.7,0.5
		s-1.1,0.2-1.3,0.7c-0.2,0.4,0.2,1.1,0.5,1.3c0.7,0.2,1.1-1.1,1.8-1.1c0.5,0.2,0.5,1.4,0.9,1.4s0.5-0.7,0.7-1.3
		C44.2,43.1,44.4,42.4,43.8,41.9z"/>
	<path class="st4" d="M46.7,46c-0.5-1.1-0.9-1.8-1.1-1.6c-0.4,0,0,1.1-0.5,1.6c-0.5,0.5-1.6,0.2-2,0c-0.9-0.2-1.1-0.7-1.4-0.5
		c-0.5,0.2-0.7,1.1-0.5,1.6c0.2,0.5,0.9,0.7,0.9,0.7c0.9,0.2,1.3-0.4,1.8-0.2c0.2,0.2,0.2,0.4,0.5,0.7s0.9,1.3,1.4,1.1
		c0.7,0,1.3-1.1,1.3-2C47.2,47.3,47.2,47.1,46.7,46z"/>
	<path class="st4" d="M39.5,41.4c0.5-0.7,0.7-0.7,0.7-0.9c-0.2-0.4-1.8,0.5-2.9-0.4c-0.4-0.4-0.2-0.4-1.1-2.2
		c-0.5-1.1-0.7-1.6-0.9-1.4c-0.4,0-0.2,1.4,0,2.5c0.2,0.7,0.4,1.4,0.9,2.3c0.5,0.7,0.9,0.7,0.9,1.3c0.2,0.9-0.4,1.4,0,1.8
		c0.2,0.2,0.7,0.2,1.1-0.2c0.4-0.2,0.2-0.5,0.5-1.3C38.8,42.6,39,42.1,39.5,41.4z"/>
	<path class="st4" d="M36.6,27.9c-0.7-0.4-2.2,0.7-2,1.3c0,0.4,0.5,0.5,1.1,0.7c0.5,0,1.3-0.4,1.4-1.1C37.2,28.4,37,28.1,36.6,27.9z
		"/>
	<path class="st4" d="M34.3,33.6c-0.7-1.3,0.2-2.5-0.2-2.7c-0.2-0.2-0.7,0.2-0.9,0.7c-0.2,0.4-0.2,0.7-0.2,0.9
		c0,0.5,0.4,0.7,0.5,1.3c0.4,1.1,0.2,1.8,0.4,1.8c0.2,0.2,0.9-0.4,0.9-0.9C34.9,34.2,34.7,34.2,34.3,33.6z"/>
	<path class="st4" d="M55.7,50.5c-0.2-0.2-0.5,0-1.3,0c-0.4,0-0.7-0.2-1.1-0.2c-0.7-0.2-0.9-0.4-1.4-0.5s-1.6-0.4-1.8,0
		c-0.2,0.4,0.2,0.9,0.7,1.1c0.5,0.2,0.9-0.2,1.6,0c0.5,0.2,0.5,0.4,1.4,0.7c0.4,0.2,1.4,0.5,2,0.2C55.9,51.4,55.9,50.9,55.7,50.5z"
		/>
	<path class="st4" d="M60.5,46.6c-0.4-0.2-1.1,0.4-1.1,0.9c0,0.2,0,0.5,0.2,0.7c0.4,0.2,1.1-0.2,1.3-0.7
		C61.1,47.1,60.9,46.6,60.5,46.6z"/>
	<path class="st4" d="M59.6,49.6c-0.2-0.4-1.1-0.5-1.6-0.4c0,0-0.7,0.4-0.7,0.9s0.5,0.9,1.1,0.9C58.9,51,59.8,50.1,59.6,49.6z"/>
	<path class="st4" d="M64.7,42.8c-0.2-0.2-1.1,1.1-1.8,0.7c-0.4-0.2-0.4-1.3-0.5-1.3s-0.4,0.4-0.5,0.9c0,0.7,0.4,0.9,0.5,1.8
		c0,0.5,0,0.7,0,0.7c0.2,0,0.5-0.7,1.4-2C64.5,43.3,64.8,42.8,64.7,42.8z"/>
	<path class="st4" d="M57.3,20c-0.7-0.4-1.1,0-2.3-0.2c-1.1-0.2-1.3-0.5-1.8-0.4c-0.4,0.2-0.7,0.5-1.3,1.3c-0.5,0.5-1.3,1.6-1.1,1.8
		c0.2,0.2,1.3-0.2,2.2-1.1c0.7-0.5,0.7-0.9,1.1-1.1c0.7-0.2,1.3,0.7,2.5,0.9c0.5,0,1.4,0,1.4-0.4C58,20.5,57.7,20.2,57.3,20z"/>
	<path class="st4" d="M60.4,20.3c0,0-0.9-0.2-1.3,0.2c0,0.2,0,0.4,0,0.5c0.2,0.2,0.4,0.2,1.1,0.2c1.3,0,1.3,0,1.3-0.2
		C61.6,20.9,61.1,20.5,60.4,20.3z"/>
	<path class="st4" d="M40.6,47.6c-0.5-0.9,0-2-0.4-2.2c-0.4-0.4-1.4,0.2-1.8,0.9c-0.2,0.4-0.2,0.7,0,1.4c0.2,0.7,0.2,1.3,0.5,1.6
		c1.1,0.9,3.2,0,3.2-0.5C42.2,48.4,41.1,48.5,40.6,47.6z"/>
	<path class="st4" d="M48.9,49.4c-0.2-0.2-0.5,0.5-1.4,0.5c-0.4,0-0.5,0-1.4-0.2c-0.7,0-1.1,0-1.1,0c-0.2,0.2,1.8,1.6,3.1,0.9
		C48.7,50.5,49,49.6,48.9,49.4z"/>
	<polygon class="st2" points="58.7,34.9 63.2,29.7 60.9,23.2 54.1,22 49.6,27.2 51.9,33.6 	"/>
	<polygon class="st2" points="45.1,39.9 49.6,34.5 47.2,28.1 40.6,26.8 36.1,32 38.3,38.5 	"/>
	<polygon class="st2" points="55.9,49.1 60.4,43.9 58.2,37.4 51.4,36 46.9,41.4 49.2,47.8 	"/>
	<path class="st3" d="M50.3,28.6c0.4-0.5,1.4,0.4,2.3-0.2c0.4-0.4,0.2-0.5,0.9-1.3c0.7-0.9,1.4-0.9,1.6-1.4c0-0.5-0.4-0.7-0.2-1.3
		c0.2-0.5,0.5-0.5,0.7-0.9c0.2-0.5-0.9-1.1-0.7-1.3c0-0.2,0.5-0.2,2,0.2c2.2,0.5,2.3,0.7,2.3,0.9c0,0.5-1.8,0.7-1.8,2
		c0,0.2,0,0.2,0,0.5c-0.2,1.3-1.8,1.6-1.6,2.2c0,0.5,1.3,0.7,3.6,1.8c1.6,0.7,2,1.1,2,1.4c0,0.2-0.2,0.4-1.1,1.4
		c-0.7,0.9-0.7,1.1-0.9,1.1c-0.7,0-0.5-2.2-2.2-3.2c-0.7-0.4-1.4-0.7-1.6-0.4c-0.2,0.2,0.4,0.7,0.2,1.4c-0.2,0.5-0.7,0.5-0.7,1.1
		c-0.2,0.7,1.6,1.6,1.4,1.8c0,0.2-0.7-0.2-1.8-0.4c-0.9-0.2-1.4,0-1.6-0.4c-0.2-0.2,0-0.5,0.2-0.9c0.7-1.8,1.3-2.2,0.9-2.5
		c-0.2-0.4-1.1-0.4-1.6,0.2c-0.4,0.4-0.5,0.7-0.5,0.7c-0.2,0.4-0.4,0.4-0.4,0.4c-0.2,0-0.4-0.4-0.7-1.6
		C50.3,28.8,50.1,28.8,50.3,28.6z"/>
	<path class="st3" d="M44.2,31.3c-0.9,0.4-1.4,1.6-1.3,2.2c0.4,0.7,2,0,2.7,0.9c0.5,0.5,0.2,1.3,0.7,1.6c0.7,0.4,1.8-0.4,1.8-0.2
		c0.2,0.2-0.5,0.7-1.6,2.2C46,38.7,45.6,39,45.4,39c-0.2-0.2,0-0.9-0.4-1.6c-0.4-0.4-0.5-0.5-1.6-0.7c-0.7-0.4-1.8-0.7-2.7-1.3
		c-0.5-0.4-1.6-1.1-1.4-2c0-0.4,0.4-0.4,0.7-0.9c0.7-1.1,0.4-1.8,0.9-2.3c0.4-0.4,0.7-0.4,2.3-0.5c2.9-0.2,3.6-0.5,4.1,0
		c0.4,0.2,0.4,0.5,0.7,1.3c0.2,0.5,0.9,2,0.5,2.3C48.1,33.6,46,30.8,44.2,31.3z"/>
	<path class="st3" d="M52.6,36.7c-0.4,0.2-0.4,0.9-0.2,1.3c0.2,0.4,0.5,0.4,0.5,0.9c0,0.4-0.2,0.4-0.4,0.9c-0.2,0.5,0,0.7-0.2,0.7
		c-0.2,0.2-1.3-0.4-1.8-1.1c-0.5-0.7-0.4-1.4-0.5-1.4c-0.2,0-0.4,0.4-0.9,1.1c-0.5,0.5-0.7,0.7-0.9,1.1c-0.2,0.4-0.2,0.9,0,1.3
		c0.4,0.4,0.9-0.4,1.6-0.2c0.5,0.2,1.1,0.7,1.3,1.3c0.2,0.5,0,1.4-0.4,1.8c-0.9,0.4-2.3-1.4-2.9-1.3c-0.2,0.2,0,0.9,0.5,2.5
		c0.5,1.8,0.9,2,0.9,2.2c0.2,0.2,0.4,0.2,2.2,0.7c1.6,0.4,2.2,0.5,2.5,0.2c0.2-0.2,0.4-0.4,0.4-0.7c0-0.5-0.9-0.5-0.9-1.1
		c0-0.4,0.7-0.5,0.9-1.3c0-0.2,0.2-0.5,0-1.1s-0.9-0.7-0.9-0.9s0.7-0.4,1.3,0c1.4,0.5,1.3,3.1,2.3,3.4c0.7,0.2,1.4-0.9,1.6-1.1
		c0.4-0.4,0.7-0.9,0.5-1.4c-0.2-0.9-1.8-0.9-1.8-1.4c0-0.5,1.8-0.2,2.2-1.1c0.2-0.2,0-0.7-0.4-1.6C58.7,39,58.7,39,58.6,39
		c-0.4,0-0.4,0.9-0.7,0.9s-0.5-0.4-0.9-0.2c-0.4,0-0.4,0.4-0.5,0.7c-0.5,0.5-1.6,0.5-1.8,0.2c-0.4-0.5,0.4-2.2,1.4-2.5
		c0.2-0.2,0.7-0.2,0.9-0.5c0.2-0.2-0.2-0.5-0.2-0.5c-0.4-0.4-0.9-0.2-2-0.4C53.3,36.7,53,36.3,52.6,36.7z"/>
</g>
<polygon points="72.1,61 74.4,61 67.9,74.4 65.6,74.4 "/>
<polygon points="72.8,61 69.8,61 25.6,70.7 25.6,72.5 30,72.5 72.8,63 "/>
<polygon points="86.8,30 85.9,30.4 74.4,40.2 74.7,40.9 76,40.4 87.2,30.8 "/>
<polygon points="28.4,74.5 26.1,74.2 24.7,76.1 25.6,78.2 27.9,78.5 29.3,76.6 "/>
<polygon points="68.5,79.4 68.1,77.1 65.9,76.3 64.1,77.8 64.5,80.1 66.7,80.9 "/>
<path d="M-9.6,43.6"/>
<polygon points="34.5,72.5 63.9,73.2 63.9,71.1 "/>
<polyline points="25.9,42.6 25.9,39.4 73.4,39.1 73.4,41.6 27.1,42.6 "/>
</svg>
