<?xml version="1.0" encoding="utf-8"?>
<!-- Generator: Adobe Illustrator 26.0.3, SVG Export Plug-In . SVG Version: 6.00 Build 0)  -->
<svg version="1.1" id="Ebene_1" xmlns="http://www.w3.org/2000/svg" xmlns:xlink="http://www.w3.org/1999/xlink" x="0px" y="0px"
	 viewBox="0 0 100 100" style="enable-background:new 0 0 100 100;" xml:space="preserve">
<style type="text/css">
	.st0{fill:#003955;stroke:#000000;stroke-width:2;stroke-miterlimit:10;}
	.st1{fill:#003955;}
	.st2{fill:#FF0000;stroke:#000000;stroke-width:0.25;stroke-miterlimit:10;}
	.st3{fill:#003955;stroke:#FFFFFF;stroke-miterlimit:10;}
	.st4{fill:#FF0A11;stroke:#FFFFFF;stroke-width:0.5;stroke-miterlimit:10;}
</style>
<g id="Ebene_2_00000106115020321929722670000009173737682671299512_">
</g>
<g id="Ebene_1_00000153672420012526310020000002768640152473526447_">
	<polygon class="st0" points="8,25.4 50,1.2 92,25.5 92,74 50,98.2 8,73.9 	"/>
	<path class="st1" d="M110.9-0.8"/>
</g>
<path class="st2" d="M137.2,42.3"/>
<path class="st3" d="M50.1,5c-3.8-0.1-3.2,14.2-12.6,20c-9.8,6.1-22.4-2.3-25.3,2.2c-3.1,4.8,11,13.9,9,26.5
	c-1.4,8.6-9.3,12.4-7.6,15.7c2.2,4,13.7-2.6,23.1,3.1C45.1,77.6,44.9,88,49.1,88c5-0.1,4.6-15,14.1-19.6c9.2-4.5,20.2,4.4,22.7,1
	c2.8-3.8-11.9-14-9.6-25.9c1.5-7.9,9.4-11,8-14.4c-1.9-4.3-14.7,1.8-23.6-4.7C52.2,18.2,53.8,5.2,50.1,5z"/>
<path class="st3" d="M17,30.5c1.3-2.1,9.5,4.3,18.4,1.5c8.6-2.7,10.9-12,15-11c4.2,1,2.2,10.9,8.1,14.1c5.8,3.1,13.5-2.7,15-0.6
	c1.6,2.3-8.1,8.1-7.4,15.6c0.7,7,10.2,10.8,9.2,12.9c-1,2.1-10.2-3.3-16.4,0.6c-6.1,3.8-4.8,13.4-8,13.8
	c-3.6,0.4-4.7-11.7-12.3-14.2c-6.7-2.2-13.9,4.5-15.1,2.8c-1.2-1.6,6.7-6.3,7.3-13.5C31.5,41.7,15.3,33.2,17,30.5z"/>
<path class="st3" d="M32.6,40.4c-1.3,2.1,7.6,7.8,6.1,13.5c-0.6,2.2-2.5,3.4-1.9,4.4c0.7,1.3,4.1-0.8,7.6,0.7
	c3.5,1.5,4.1,5.5,5.5,5.2c1.5-0.3,0.3-4.9,2.7-6.8c3.2-2.5,10,1.9,10.7,0.7c0.6-1.1-5.4-4-5.5-8c-0.1-5.6,11.6-9.9,11-11.3
	c-0.4-0.9-4.8,1.8-10.4,0.3c-2.8-0.7-3.3-1.6-5.6-1.6c-3.3,0-4.4,1.9-7.6,3C38.7,42.7,33.6,38.8,32.6,40.4z"/>
<rect x="50" y="2.3" class="st4" width="0.5" height="94.6"/>
<rect x="49.6" y="2.5" transform="matrix(0.5 -0.866 0.866 0.5 -18.3013 68.1563)" class="st4" width="0.5" height="94.9"/>
<rect x="49.7" y="2" transform="matrix(-0.5 -0.866 0.866 -0.5 32.0945 117.4262)" class="st4" width="0.5" height="95"/>
<rect x="49.9" y="8.8" transform="matrix(0.866 -0.5 0.5 0.866 -18.6338 31.843)" class="st4" width="0.5" height="83.7"/>
<rect x="49.6" y="8.9" transform="matrix(4.433460e-11 -1 1 4.433460e-11 -0.8592 100.5684)" class="st4" width="0.5" height="83.7"/>
<rect x="49.6" y="8" transform="matrix(-0.866 -0.5 0.5 -0.866 68.1243 117.8762)" class="st4" width="0.5" height="83.7"/>
<path d="M71.5,28.1c0.1,0.1,0.1,0.5-0.8,3.2c-1.7,5.2-3.6,9.2-4.1,10.4c-2,4.2-2.9,6.4-3.1,6.6c-5,5.4-15.5,3-15.6,4.2
	c0,0.5,1.5,0.8,5.9,2.7c3.9,1.6,4.5,2.1,4.8,2.4c1.9,1.7,1.8,3.9,2.4,7.8c1.4,8.9,4.1,14.2,2.8,14.9c-0.5,0.2-1.1-0.2-1.2-0.2
	c-1.2-0.8-1.1-3-1.1-3.7c0.1-4.1-1.4-10.8-3.2-14c-3.1-5.5-10.8-7-11.2-6.2c-0.4,0.6,4.3,2.4,6.2,7.7c0.8,2.2,0.9,4.6,1,9.2
	c0.1,2.8,0.1,4.2-0.1,5.3c-1.2,6-6.2,10.1-6.7,9.8c-0.3-0.2,1-1.8,2.6-5.8c0.7-1.9,1.5-4.1,1.9-6.8c0.2-1.7,0.7-6-1.2-10.6
	c-1.7-3.9-4.6-6.5-5.1-6.2c-0.2,0.1,0.1,0.7-0.4,1.4c-0.2,0.3-0.4,0.5-0.5,0.9c-0.1,0.4-0.1,0.6-0.1,0.8c-0.1,1.1-1.3,2.1-1.5,1.9
	c-0.2-0.1,0.3-0.7,0-1.3C43,62.3,42.7,62,42.3,62c-0.3,0-0.5,0.4-0.6,0.5c-0.4,0.7,0,1.3-0.2,1.4c-0.3,0.2-1.4-0.6-1.6-1.6
	c-0.2-0.7,0.2-1.3-0.1-1.6c-0.3-0.3-0.6-0.1-0.9-0.4c-0.3-0.4,0.1-0.9,0-1c-0.3-0.2-3.3,3.8-3.7,4.4c-1.2,1.6-1.8,2.4-1.9,2.6
	c-0.9,1.9-0.7,3.4-0.6,7.6c0.2,5.2-0.1,4.5,0.1,5.4c1,5.3,4.8,8.3,4.4,8.8c-0.3,0.3-2.1-0.8-3.5-2.3c-1.3-1.4-2.5-3.5-3.3-7.9
	c-1-5.2-1.6-8.7-0.1-12.3c2.3-5.6,7.9-7.9,7.4-8.6c-0.2-0.3-1.5,0.4-6.3,2.2c-3.1,1.2-3.3,1.2-3.9,1.7c-1.6,1.4-1.2,3-2,8
	c-0.2,1.1-0.9,5.4-2.9,10.1c-0.5,1.2-1.2,3-1.6,2.9c-0.5-0.1,1-4.5,1.4-11.6c0.3-3.7,0.1-5.6,1.2-8.4c0.5-1.3,1.2-3,2.7-4.4
	c3.8-3.7,9.5-3,9.4-3.9c0-0.8-4.6-1.3-5.6-1.4c-4.8-0.6-5.2,0.2-6.8-0.3c-2.9-1.1-3.1-4.2-7-14.3c-2.2-5.7-3.7-8.7-3.3-8.9
	c0.3-0.1,1.8,2.2,4.9,7c1.8,2.8,2.7,4.1,3.1,5c2,3.9,1.7,5.1,3.3,6.3c0.7,0.5,2.2,0.9,5.3,1.7c3.6,0.9,3.8,0.6,3.9,0.6
	c0.3-0.6-2-2.1-5-5.2c-2.2-2.3-3.4-3.5-4.2-5c-1.9-3.4-0.5-5.8-0.1-14.2c0.4-6.7-0.2-10.8,0.1-10.8c0.4,0,1.7,4.7,1.9,10.3
	c0.2,6-0.9,8.6,1.1,11.7c0.4,0.6,0.3,0.3,3.1,3.7c2.5,2.9,3,3.8,3.7,3.7c1.2-0.3,0.1-3.7,2.2-6.2c1.6-2,4.5-2.6,6.7-2.3
	c2.6,0.3,4.3,1.8,4.8,2.3c2.7,2.5,2.2,5.3,3.6,5.6c1.7,0.4,4.8-3.7,6-8.3c1.4-5-0.4-7.1,1-14.2c0.5-2.4,1.3-5.4,1.7-5.3
	c0.5,0.1-0.1,4.1-0.2,11.3c-0.2,9.6,0.6,10.2-0.4,12.9c-2.6,6.6-9.2,8.5-8.6,10c0.6,1.3,6,1.4,9.4-1.4c3-2.4,2-5,5.6-11.7
	C68.3,31.6,71,27.9,71.5,28.1z"/>
<path d="M124.1,30.1"/>
</svg>
