<?xml version="1.0" encoding="utf-8"?>
<!-- Generator: Adobe Illustrator 26.0.3, SVG Export Plug-In . SVG Version: 6.00 Build 0)  -->
<svg version="1.1" id="Ebene_1" xmlns="http://www.w3.org/2000/svg" xmlns:xlink="http://www.w3.org/1999/xlink" x="0px" y="0px"
	 viewBox="0 0 100 100" style="enable-background:new 0 0 100 100;" xml:space="preserve">
<style type="text/css">
	.st0{fill:#140014;stroke:#FFFFFF;stroke-width:2;stroke-miterlimit:10;}
	.st1{stroke:#FFFFFF;stroke-width:0.5;stroke-miterlimit:10;}
	.st2{stroke:#000000;stroke-width:0.25;stroke-miterlimit:10;}
</style>
<g id="Ebene_2_00000176025868192884506990000017183403244025845153_">
</g>
<g id="Ebene_1_00000070081453494179332120000015518110432246800057_">
	<polygon class="st0" points="8,25.8 50,1.6 92,25.8 92,74.3 50,98.6 8,74.3 	"/>
</g>
<path class="st1" d="M26.2,20.3C39.8,9.2,44.8,7.6,46.3,8.9c1.1,0.9,0,2.9,1.5,6.2c2.1,4.6,6.1,5.1,5.8,7.4
	c-0.2,1.9-3.4,3.8-5.5,3.1c-2.5-0.8-2.6-4.6-4.2-4.6c-1.3,0-1.4,2.6-4.2,5.2c-1.7,1.6-4.3,3.1-5.2,2.4c-1.2-0.9,1.2-4.6,0-5.6
	c-1.4-1.2-5.9,3.1-7.9,1.8C25.8,24,25.9,22,26.2,20.3z"/>
<path class="st1" d="M13.6,29.6c1-1.4,7.4,3.6,12.3,1.2c2.9-1.4,3.5-4.6,4.7-4.3c1.9,0.5,0.8,7.9,2.8,8.6c2.5,0.8,5.8-9.4,10.4-9
	c2.5,0.2,4.8,3.6,4.9,6.5c0.2,6.5-10,10.8-12,11.7c-9.9,4.2-21.8,3-23-0.7c-0.7-2.3,2.9-4.2,2.2-8.4C15.4,31.9,13,30.4,13.6,29.6z"
	/>
<path class="st1" d="M54.2,8.7c-1.3,0.6-2.5,1.9-2.8,3.4c-0.6,3.6,4.8,5.5,9.5,11.7c5.6,7.4,3.6,12.6,7.4,13.9
	c4.6,1.6,12.6-4,12.6-9.3c0-1.3-0.5-2.9-6.8-8.4C65.2,12.2,58.7,6.5,54.2,8.7z"/>
<path class="st1" d="M56.4,26.4c-1.4,0.3-1.2,2-3.6,6.1c-3.4,5.8-6.4,6.5-6.2,9.5c0.2,2.6,2.9,5.2,4.9,5c2.2-0.2,2.4-3.9,5-4.4
	c2.7-0.6,4.6,2.8,6.4,2.1c1.7-0.8,1.6-4.9,1.2-7.3C63.1,31.8,59.1,25.9,56.4,26.4z"/>
<path class="st1" d="M69,40.3c-1.4,2-0.6,5.3,0.7,7.1c3,4.2,10.8,4.5,15.3,1c4.7-3.7,4.1-10.3,3.8-12.9c-0.3-3.2-1.5-7.4-3-7.4
	c-1.7,0-1.1,5.8-5.2,8.9C76.4,40.3,71.2,37.2,69,40.3z"/>
<path class="st1" d="M11.6,49.1c-1.4,0.7,4.7,9.7,1.2,16.2c-0.7,1.3-1.9,2.7-1.5,4.4c0.3,1.3,1.3,2,3.7,3.4c5,3,7.5,4.5,8.1,4
	c1.1-0.9-1-3.3-1.2-8.9c-0.1-4.8,1.4-6.4,0-9.2c-0.6-1.2-1-1.2-4-4C13.4,50.7,12.3,48.8,11.6,49.1z"/>
<path class="st1" d="M20.9,48.6c-0.8,0.7-1.3,2-1,3.3c0.7,3.5,7.1,3.4,7.6,6.4c0.3,1.6-1.5,2-2.7,4.9c-1.1,2.7-1.6,7.8,1.5,10.4
	c3.2,2.7,9,1.7,10.4-0.9c1.2-2.1-1.5-3.8-2.5-9.6c-1-5.8,1.2-7.4-0.4-10.4C31.2,48.2,23.5,46.1,20.9,48.6z"/>
<path class="st1" d="M43,45.7c-2.4-0.2-5.8,0.3-6.7,2.2c-1.1,2.5,3.4,5.4,2.4,9.8c-0.4,1.5-0.9,1.3-1.5,3
	c-1.6,4.6,1.1,10.9,3.8,11.3c1.4,0.2,2.2-1.3,4.9-4.2c7.5-8,11.8-8,13.5-13.5c0.8-2.8,0.7-6-0.4-6.5c-1.2-0.5-2.3,2.5-5,3
	C50.2,51.4,48.5,46.3,43,45.7z"/>
<path class="st1" d="M63.5,46.4c-1.3,0.6-0.3,3.3-1.2,6.5c-1.7,6.6-9.4,8.7-8.7,10.2c0.5,1.1,4.7-0.5,14.5-1.5
	c4.9-0.5,7.1-0.4,8.2-2.1c1.2-2,0-5.3-1.6-7.1c-1.1-1.2-1.6-1-5.5-3.3C65.2,47,64.4,46,63.5,46.4z"/>
<path class="st1" d="M78.6,55.2c-1.1,1.9-0.7,2.9-0.6,11.9c0.1,6.5-0.1,7.8,1,8.6c2.2,1.6,7.2-0.1,9.2-3.4c1.5-2.4,0.3-3.9,0-11.6
	c-0.3-7.1,0.6-9.3-0.9-10.2C85.3,49.2,80.6,51.6,78.6,55.2z"/>
<path class="st1" d="M27.1,77.8c-1.1,0.8-1.7,2.5-1.3,3.8c0.7,2.6,4.4,2.6,10.5,5.2c8,3.4,9.5,6.7,14.4,6.2c2.9-0.3,5.7-1.8,5.6-3
	c0-1.7-5.6-1.5-7-4.9c-0.9-2.2,1.1-3.4,0.4-6.1c-0.8-3.4-5.1-6.5-8.4-5.9c-3.4,0.6-3.5,4.4-7.3,5C30.9,78.8,28.9,76.5,27.1,77.8z"/>
<path class="st1" d="M51.2,67.6c-1,0.4-4,1.6-4.2,3.4c-0.2,2.3,4.5,3.1,5.3,7c0.5,2.2-0.8,2.8-0.3,4.9c0.8,3.1,4.4,5.7,7.8,5.8
	c2.1,0.1,2.9-0.9,7.9-3.8c7.3-4.4,10.6-5.3,10.4-6.8c-0.2-1.9-5.4-1.3-6.6-4.3c-1.6-3.7,4.8-8.9,3.7-10.2c-1-1.2-5.6,3.8-13.2,4
	C57.7,67.6,55.3,66,51.2,67.6z"/>
<path class="st2" d="M37.2,14.4c-0.2,0.1-1.1,0.6-1.3,1.5c-0.2,0.6-0.1,1.3,0.2,1.3c0.3,0.1,0.4-0.7,1.3-1.3
	c0.8-0.5,1.4-0.4,1.5-0.6C38.8,15.2,38.5,15,37.2,14.4z"/>
<path class="st2" d="M41.4,13.6c-0.5,0.4-0.9,1.2-0.6,1.9c0.3,0.6,1.1,1,1.4,0.7c0.4-0.2-0.2-1.1,0.2-1.8c0.5-0.7,1.5-0.5,1.5-0.8
	C44,13.5,42.4,12.8,41.4,13.6z"/>
<path class="st2" d="M29.1,20.4c-0.2,0.3,0,0.7,0.3,1c0.6,0.5,1.8,0,2.4-0.7c0.9-0.9,0.8-2.3,0.7-2.4s-0.3,1.2-1.3,1.7
	C30.3,20.5,29.4,19.9,29.1,20.4z"/>
<path class="st2" d="M37.3,20.8c-0.6,0.1-0.9,2.5-0.3,2.7c0.3,0.2,1.1-0.3,1.3-1C38.5,21.6,37.7,20.7,37.3,20.8z"/>
<path class="st2" d="M45.8,19.2c-0.2,0.4,0.1,1,0.4,1.3c0.5,0.5,1.6,0.6,1.8,0.2c0.3-0.4-0.1-1.3-0.8-1.6
	C46.8,18.8,46,18.8,45.8,19.2z"/>
<path class="st2" d="M18.1,33.3c-0.5,0.6-0.2,1.7,0.5,2.2c0.8,0.5,2,0.3,2.3-0.4c0.3-0.6,0-1.2-0.4-1.6
	C19.9,32.8,18.7,32.7,18.1,33.3z"/>
<path class="st2" d="M28.3,32.7c-0.5,0.1-1.2,0.6-1.3,1.3c-0.1,0.9,0.6,1.8,1.3,1.8c0.4,0,0.5-0.4,1.3-0.7c0.9-0.4,1.4-0.2,1.5-0.4
	C31.2,34.1,29.7,32.3,28.3,32.7z"/>
<path class="st2" d="M20.7,38.3c-0.8,0-1.4,0.7-1.9,1.3c-0.7,1-1.1,2.1-0.9,2.3c0.3,0.2,0.9-1.2,2.4-1.5c1.2-0.2,2,0.6,2.2,0.3
	C22.9,40.3,22,38.3,20.7,38.3z"/>
<path class="st2" d="M28.8,39.3c-0.6-0.3-3.2,3.6-2.7,4.1c0.2,0.2,1.2-0.3,1.7-0.7C29.1,41.4,29.2,39.4,28.8,39.3z"/>
<path class="st2" d="M42.6,30.2c1,0,2,0.9,2.2,2c0.2,1.3-1,2.4-2.2,2.6c-0.7,0.1-1.7-0.1-2.2-0.8C39.6,32.7,41,30.2,42.6,30.2z"/>
<path class="st2" d="M37.5,38.4c-1.7,0.7-2.1,0.8-2.1,1c0,0.4,2,1.1,3.3,0.2c0.9-0.6,1.5-1.8,1.2-2.1C39.8,37.4,39.4,37.7,37.5,38.4
	z"/>
<path class="st2" d="M14.9,55.3c-0.3,0.2,0.3,1.5,0.3,4c0,1.2-0.2,2,0.1,2.1c0.3,0.1,0.6-0.6,1.6-1.4c1.5-1.3,2.9-1.3,2.9-1.7
	c0-0.3-1.2-0.2-2.5-0.9C15.6,56.6,15.2,55.2,14.9,55.3z"/>
<path class="st2" d="M19.8,61.5c-1,0-2.2,0.5-2.4,1.3c-0.1,0.8,0.9,1.4,1.7,2c0.6,0.4,0.8,0.6,1.2,0.5c0.9-0.2,1.8-2.1,1-3.1
	C21,61.5,20.1,61.5,19.8,61.5z"/>
<path class="st2" d="M13.6,68.5c-0.3,1,0.9,1.9,1.4,1.8c0.7-0.2,1.2-2.2,0.5-2.7C15.1,67.2,13.9,67.6,13.6,68.5z"/>
<path class="st2" d="M19.8,67.9c-0.2,0.1-0.1,0.5-0.5,1.3c-0.1,0.2-0.1,0.2-0.1,0.3c0.1,0.3,1.6,0.3,1.8-0.3
	C21.2,68.7,20.1,67.8,19.8,67.9z"/>
<path class="st2" d="M27.9,66.6c-0.5,0.2-0.6,2.3,0.5,2.8c0.9,0.4,2.3-0.6,2.2-1.1c0-0.3-0.5-0.3-1.7-1.1
	C28.2,66.7,28.1,66.5,27.9,66.6z"/>
<path class="st2" d="M22.7,50.7c-0.3,0.3-0.7,0-1,0.2c-0.3,0.3-0.1,1.3,0.4,2c1,1.5,2.9,2,3.1,1.7c0.2-0.2-1.3-0.9-1.3-2.1
	c0-0.8,0.8-1,0.9-2.1c0-0.4-0.1-1.2-0.5-1.3c-0.4-0.2-1.1,0.2-1.3,0.7C22.8,50.2,23,50.4,22.7,50.7z"/>
<path class="st2" d="M30.2,53c-0.6,0.1-1,3-0.2,3.3c0.4,0.2,1.1-0.3,1.3-0.8C31.9,54.4,30.7,52.9,30.2,53z"/>
<path class="st2" d="M30.4,61.3c-0.7,0.4-0.9,1.4-0.4,1.8c0.3,0.3,0.9,0.2,1,0.2c0.7-0.1,1.4-0.8,1.3-1.4C32,61.4,31,61,30.4,61.3z"
	/>
<path class="st2" d="M48.4,40.6c-0.3-0.1-0.9,0.2-1.1,0.7c0,0.1-0.2,0.5,0.6,1.9c0.1,0.2,1,1.8,1.3,1.7c0.2-0.1-0.2-0.8-0.4-2.3
	C48.7,41.3,48.8,40.7,48.4,40.6z"/>
<path class="st2" d="M51,44.1c-0.5-0.5,1.8-4.3,2.7-4c0.4,0.1,0.5,1,0.4,1.7c-0.2,0.8-0.8,1.2-1.3,1.6C52.4,43.6,51.2,44.3,51,44.1z
	"/>
<path class="st2" d="M55.9,31.3c-0.1,0-0.4,1.3-1.7,2.6c-1,0.9-1.9,1.2-1.8,1.8c0,0.4,0.3,0.8,0.7,0.8
	C54.3,36.7,56.1,31.3,55.9,31.3z"/>
<path class="st2" d="M56,39c-0.4,0.6,0,1.5,0.4,1.6c0.6,0.2,1.8-1.2,1.6-1.8C57.7,38.4,56.5,38.2,56,39z"/>
<path class="st2" d="M58.9,32.3c-0.9-0.1-2.3,2.1-1.8,2.8c0.2,0.4,0.9,0.3,1.3,0.2c0.9-0.2,1.5-1.3,1.3-2.2
	C59.6,33.1,59.4,32.4,58.9,32.3z"/>
<path class="st2" d="M61.8,38.7c-0.5,0.1-1,1-0.7,1.8c0.3,0.7,1.1,1.1,1.6,0.9c0.5-0.3,0.4-1.3,0-2C62.6,39.2,62.2,38.6,61.8,38.7z"
	/>
<path class="st2" d="M40.1,48.6c-0.4,0.7-0.4,1.8,0.2,2.3c1.2,1,5.2-1.2,5-2.2C45,47.8,41.1,47,40.1,48.6z"/>
<path class="st2" d="M39.9,62.1c-0.5,0.5-0.4,1.3-0.2,2.6c0.2,1.4,0.8,3,1.1,3c0.3,0,0-1,0.5-2.5c0.6-1.9,1.6-2.5,1.3-3
	C42.2,61.5,40.6,61.3,39.9,62.1z"/>
<path class="st2" d="M46.4,54.8c-1.2,0-2.3,1.1-2.2,2.1c0,0.3,0.2,0.8,0.5,1c0.6,0.2,1.3-1,1.8-0.8c0.5,0.2,0.1,1.4,0.5,1.6
	c0.4,0.2,1.7-0.8,1.6-2C48.6,55.5,47.5,54.7,46.4,54.8z"/>
<path class="st2" d="M54.2,52.8c-1.2,0.6-2.4,1.5-2.2,1.9c0.2,0.4,1.6-0.1,2,0.6c0.3,0.6-0.4,1.4-0.2,1.6c0.3,0.3,1.6-0.2,1.9-1.2
	c0.3-0.9-0.5-1.5-0.2-2.3c0.4-1.1,2.2-1.2,2.2-1.4C57.7,51.9,56,52,54.2,52.8z"/>
<path class="st2" d="M50.3,58.3c-0.6-0.5-3.7,1.8-3.3,3c0.1,0.4,0.7,0.7,1.1,0.7c1.1,0,1.8-1.6,1.9-2C50.1,59.8,50.6,58.6,50.3,58.3
	z"/>
<path class="st2" d="M64.4,50.7c-0.3,0.1-0.3,1,0,1.6c0.4,0.7,1.5,1.3,2.3,0.9c0.6-0.3,1-1.1,0.7-1.5c-0.2-0.4-1.1,0-2.2-0.5
	C64.8,50.9,64.6,50.7,64.4,50.7z"/>
<path class="st2" d="M72.2,54.1c-0.9-0.1-2,1.2-1.9,2.4c0.1,1.5,2,2.5,2.3,2.2c0.2-0.2-0.7-1-0.4-2.1c0.2-0.8,1-0.9,1-1.6
	C73.2,54.6,72.7,54.1,72.2,54.1z"/>
<path class="st2" d="M60.3,59.7c-2.1,1.2-3.1,1.9-3,2.2c0.2,0.5,2.2,0.1,2.9,0c1.5-0.2,4-0.7,4.1-1.8c0.1-0.6-0.5-1.3-1-1.5
	C62.7,58.4,62.2,58.6,60.3,59.7z"/>
<path class="st2" d="M65.8,56.2c-0.3,0.4-0.4,1-0.1,1.3c0.3,0.3,1,0,1,0c0.7-0.3,1.2-1.2,1-1.6C67.5,55.6,66.3,55.6,65.8,56.2z"/>
<path class="st2" d="M40.4,76.6c-0.5,0.3-1.2,1-1,1.6c0.2,0.6,1.6,0.8,2.7,0.4c1.2-0.4,2.2-1.6,2-2.2C43.7,75.8,41.7,75.7,40.4,76.6
	z"/>
<path class="st2" d="M27.6,80.7c-0.3,0.6,0.1,1.6,0.7,1.8c0.7,0.2,1.3-1.1,2.1-0.9c0.9,0.2,0.8,1.7,1.7,2.1c1,0.4,2.8-0.8,2.7-1.7
	c-0.1-0.8-1.4-1.2-2.4-1.5C30.8,80,28.2,79.6,27.6,80.7z"/>
<path class="st2" d="M39.1,83.4c-0.4,1.4-0.6,1.6-0.4,2c0.2,0.6,1.1,0.9,1.6,0.7c0.9-0.3,0.6-2,1.3-2.3c0.9-0.3,2.1,2.1,2.8,1.8
	c0.6-0.2,0.8-2.2-0.1-3.1c-0.8-0.9-2-0.3-3-1.5c-0.5-0.5-0.6-1-1-1c-0.1,0-0.3,0.1-0.7,1.3C39.3,82.3,39.4,82.5,39.1,83.4z"/>
<path class="st2" d="M44.7,88.7c-0.4,0.4-0.6,1.2-0.3,1.7c0.4,0.6,1.4,0.4,2,0.2c0.8-0.4,1.2-1.3,1.2-2.2c-0.1-1.3-1.4-2.3-1.6-2.2
	c-0.2,0.1,0.4,1.2-0.1,1.8C45.5,88.5,45.1,88.3,44.7,88.7z"/>
<path class="st2" d="M52,69.5c-0.4,0.1-0.6,0.9-0.6,1.6c0.1,1.2,1.2,2.4,1.8,2.2c0.7-0.2,0.3-2,1-2.3c0.7-0.2,1.6,1.4,2.3,1.2
	c0.6-0.2,1.1-1.6,0.4-2.5c-0.6-0.8-1.8-0.8-2.4-0.4c-0.5,0.4-0.5,1-0.9,1.1C53,70.5,52.5,69.4,52,69.5z"/>
<path class="st2" d="M62.2,67.9c-1.1,0.7-1.7,2.4-1.1,3c0.6,0.7,2.5-0.1,3.3-0.4c0.9-0.4,2-0.8,2-1.4C66.4,68.3,63.8,66.9,62.2,67.9
	z"/>
<path class="st2" d="M63.8,76.2c-0.3-0.5-4,0-4.4,1.8c-0.2,1,0.7,2.2,1.3,2.2c0.5,0,0.6-0.7,1.8-2.3C63.5,76.6,63.9,76.4,63.8,76.2z
	"/>
<path class="st2" d="M69.5,79.2c-1.6-0.5-3.6,0.6-3.9,2c-0.1,0.5,0,1.2,0.4,1.4c0.6,0.2,1.1-1.1,2.5-1.5c1.5-0.4,2.6,0.7,2.9,0.4
	C71.7,81.1,70.8,79.6,69.5,79.2z"/>
<path class="st2" d="M69.2,71c-0.5-0.3-2.8,1.7-2.3,2.9c0.4,0.9,2.3,1.3,3.3,0.4c1.1-0.9,0.8-2.7,0.4-2.9c-0.3-0.1-0.9,1-1.3,0.8
	C69.1,72.1,69.4,71.1,69.2,71z"/>
<path class="st2" d="M54.5,81.8c-0.3,0.5,0.7,1.6,1.3,2.2c1,1.1,1.6,1.8,2.3,1.7c1.1-0.2,1-2.2,2.2-2.4c1.1-0.2,2.1,1.8,2.7,1.6
	c0.5-0.2,0.6-2.2-0.4-3.3c-1.2-1.2-3.6-0.7-4.2,0.3c-0.4,0.7,0.2,1.8-0.1,1.8c-0.3,0.1-0.8-1.4-2.2-1.9
	C55.5,81.6,54.7,81.5,54.5,81.8z"/>
<path class="st2" d="M54.7,10.7c-0.8,0.3-1.1,1.5-1.2,2.2c0,0.9,0.3,2.1,0.8,2.2c0.9,0.1,1.5-2.7,2.7-2.7c0.9,0,1.3,1.6,1.8,1.5
	c0.7-0.2,0.8-3.1-0.1-3.5c-0.5-0.2-0.8,0.4-1.9,0.4C55.7,11,55.4,10.5,54.7,10.7z"/>
<path class="st2" d="M63.1,12.8c-0.6-0.3-2.1,0.7-2.2,1.9c0,0.6,0.2,1.4,0.7,1.5c0.6,0.1,1.2-0.6,1.4-1
	C63.6,14.4,63.6,13.1,63.1,12.8z"/>
<path class="st2" d="M67.8,33.6c-0.2,0.5,0.1,1.2,0.4,1.6c0.8,0.8,2.1,0.4,2.9,0.2c1-0.3,2.5-0.9,2.4-1.6c-0.1-0.5-1.3-0.8-1.9-0.9
	C71.3,32.9,68.4,32.4,67.8,33.6z"/>
<path class="st2" d="M74.8,26c-1.1,0.5-2,1.7-1.7,2.3c0.3,0.5,1.6,0.4,2.5,0c0.9-0.5,1.9-1.5,1.6-2.1C77,25.7,75.7,25.6,74.8,26z"/>
<path class="st2" d="M59.5,18.8c-0.2,0.3,1.6,1.2,3,3.5c1.1,1.7,1.1,2.9,1.6,2.9c0.6,0,1.4-1.6,1-3c-0.3-0.9-1.1-1.4-2.5-2.2
	C61.5,19.4,59.7,18.5,59.5,18.8z"/>
<path class="st2" d="M68,19c-0.4,0.3-0.9,0.8-0.7,1.3c0.1,0.3,0.6,0.4,1,0.5c0.4,0.1,1.1,0.2,1.7-0.2c0.4-0.4,0.8-1,0.6-1.5
	C70.2,18.4,68.8,18.4,68,19z"/>
<path class="st2" d="M66.7,27.9c-0.4,0.8,0,2,0.5,2.1c0.4,0.1,0.9-0.6,1.2-1c0.1-0.1,1-1.4,0.6-1.9C68.6,26.7,67.1,26.9,66.7,27.9z"
	/>
<path class="st2" d="M74.8,42.4c-0.4-0.8-2.7-1-3.6,0.2c-0.6,0.9-0.4,2.3,0.1,2.4c0.4,0.2,0.9-0.9,1.6-0.7c0.5,0.1,0.6,0.6,1,0.6
	c0.5-0.1,0.8-1.2,0.9-1.6C74.8,42.8,74.9,42.5,74.8,42.4z"/>
<path class="st2" d="M82.7,38.1c-1-0.2-2.4,1-2.3,1.7c0.1,0.5,0.8,0.8,1.4,0.7c0.6-0.1,0.6-0.7,1.2-0.9c1-0.3,2,1.5,2.6,1.2
	c0.4-0.2,0.4-1.7-0.2-2.1c-0.3-0.2-0.6,0.1-1.3-0.1C83.3,38.5,83.2,38.2,82.7,38.1z"/>
<path class="st2" d="M86.2,32.4c-0.1-0.1-0.7-0.5-1-0.2c-0.4,0.3,0,1.3,0.3,1.9c0.2,0.3,0.4,0.6,1,1.3c0.8,1,0.9,1,1,1
	c0.3-0.1,0.1-1.4-0.2-2.4C86.9,32.9,86.4,32.5,86.2,32.4z"/>
<path class="st2" d="M75.7,46.7c-0.4,0.7-0.3,1.7,0.2,2.1c0.5,0.4,1.1,0,3-0.4c2.6-0.6,3.4-0.3,3.8-1c0.4-0.8,0.1-2.1-0.5-2.3
	c-0.8-0.3-1.9,1.8-3.1,1.5c-0.5-0.1-0.5-0.5-1.1-0.7C77.3,45.7,76.2,45.8,75.7,46.7z"/>
<path class="st2" d="M81.9,53.9c-0.9-0.3-2.5,0.9-2.3,2.1c0.1,0.5,0.6,1,1.1,1.2c0.9,0.2,1.8-0.6,2-1.5C82.8,55,82.5,54.2,81.9,53.9
	z"/>
<path class="st2" d="M84.8,53.7c-0.5,0.5-0.4,1.3-0.3,2.8c0.1,1.2,0.2,2.6,0.6,2.7c0.3,0,1-1.1,1-2.3c0-1.2-0.8-1.8-0.4-2.5
	s1.3-0.8,1.3-1C86.8,53.1,85.5,53,84.8,53.7z"/>
<path class="st2" d="M80.1,62.8c-1.1,1.5,0.5,3.8,1,3.8s0.7-2.6,1.1-2.6c0.3,0,0.3,1.3,0.8,1.3c0.5,0.1,1.3-1,1.1-2
	C84,62.5,83,62.1,82.9,62C81.9,61.7,80.7,62,80.1,62.8z"/>
<path class="st2" d="M80.8,71.9c-0.4,0.5-0.8,1.4-0.4,2.1c0.4,0.8,1.8,0.7,2.6,0.6c1.1-0.1,2.2-0.5,2.2-0.7c0-0.3-1.4-0.2-1.6-0.8
	c-0.1-0.4,0.4-1.2,0.7-1.5c0.2-0.2,0.2-0.2,0.3-0.3c0.4-0.7-0.6-2.3-1.3-2.2c-0.4,0.1-0.3,0.9-1.1,1.8
	C81.6,71.4,81.3,71.3,80.8,71.9z"/>
<path class="st2" d="M86.1,66.3c-0.3,0.9-0.5,1.8-0.2,2.6c0.1,0.2,0.2,0.6,0.7,0.8c0.1,0,0.5,0.2,1,0.1c0.8-0.3,1-1.6,0.7-1.9
	c-0.4-0.3-1.3,0.4-1.6,0.2c-0.2-0.3,0.7-1.1,1-2.4c0.2-1.2-0.1-2.6-0.4-2.6C87,63,86.7,64.1,86.1,66.3z"/>
<path class="st1" d="M21,22c1.5,0.3,2.9,1.3,3.7,2.8c0.8,1.5,1,4,0,4.6c-1.6,1-4.3-3.8-8.1-3.2c-2.1,0.3-4.2,2.1-4.6,4.1
	c-0.5,2.5,2.2,3.9,1.6,6.2c-0.5,1.9-2.9,3.2-3.7,2.8c-0.6-0.3-0.1-1.5,0.1-4.6c0.4-5-0.4-5.4,0.4-7c0.9-1.7,2.5-2.5,5.8-4.2
	C19.4,21.8,20.6,22,21,22z"/>
<path class="st2" d="M21.9,24.2c0.9,0.2,1.5,0.9,1.7,1.7c0.1,0.7,0,1.6-0.6,1.9c-1,0.5-3.5-1.7-3.1-2.8C20,24.8,20.2,24.3,21.9,24.2
	z"/>
<path class="st2" d="M11.1,34.2c-0.6,0.2-0.7,2.6,0,2.9c0.4,0.2,1.4-0.4,1.4-1.3C12.6,34.8,11.6,34.1,11.1,34.2z"/>
</svg>
