<?xml version="1.0" encoding="utf-8"?>
<!-- Generator: Adobe Illustrator 26.0.3, SVG Export Plug-In . SVG Version: 6.00 Build 0)  -->
<svg version="1.1" id="Ebene_1" xmlns="http://www.w3.org/2000/svg" xmlns:xlink="http://www.w3.org/1999/xlink" x="0px" y="0px"
	 viewBox="0 0 100 100" style="enable-background:new 0 0 100 100;" xml:space="preserve">
<style type="text/css">
	.st0{stroke:#FFFFFF;stroke-width:2;stroke-miterlimit:10;}
	.st1{fill:#1E360F;}
	.st2{fill:#5A962D;}
	.st3{fill:#64B432;}
	.st4{opacity:0.75;fill:#DFC97F;}
	.st5{fill:#DFBF5B;}
	.st6{fill:#5A1C19;stroke:#000000;stroke-miterlimit:10;}
	.st7{fill:#781C19;stroke:#000000;stroke-miterlimit:10;}
	.st8{fill:#641C19;stroke:#000000;stroke-miterlimit:10;}
	.st9{fill:#C83732;}
	.st10{fill:#B43C32;}
	.st11{fill:#2A0E0F;}
	.st12{fill:#501E19;}
	.st13{opacity:0.45;fill:#E7D75B;}
	.st14{opacity:0.6;fill:#E7CB8D;}
	.st15{opacity:0.9;fill:#DF9D3F;}
	.st16{opacity:0.8;fill:#E52421;}
	.st17{opacity:0.4;fill:#1F6BFF;}
	.st18{fill:#FFFFFF;}
	.st19{opacity:0.3;fill:#DF9D3F;}
	.st20{opacity:0.2;fill:#E7CB8D;}
	.st21{opacity:0.1;fill:#E7D75B;}
	.st22{fill:#E7D75B;}
	.st23{fill:#DFC97F;}
</style>
<g id="Ebene_1_00000116207670979295719810000017278100620074370713_">
	<g id="Ebene_2_00000093860788734264317370000010671531211922489223_">
	</g>
	<g id="Ebene_1_00000017510764199299988230000010460311392665681541_">
		<polygon class="st0" points="8,25.8 50,1.6 92,25.8 92,74.3 50,98.6 8,74.3 		"/>
	</g>
	<path class="st1" d="M8.6,73.3c0.8,2.3,2.9,3.2,11.8,7.4c3.6,1.7,5.4,2.6,5.8,2.8c2.3,1.2,6.7,3.5,11.7,7.3c3.2,2.4,4.4,3.7,7.4,5
		c1.9,0.8,3.3,1.3,5,1.3c3.8-0.1,5.3-3.2,10.3-6c3.9-2.2,3.8-1.5,8.5-3.9c10.4-5.2,8.7-6.3,16.8-10c2.3-1.1,4.3-1.8,5.2-3.8
		c0.8-1.6,0.6-3.5,0.3-7.3C91.3,64,91,63.8,91,61.9c0-2.5,0.5-3.8,0-6.5c-0.9-5-3.9-9.6-6.7-11.9c-7.1-5.9-15,1.3-34,1.2
		c-15.9-0.1-21-5.2-30.2-0.7c-1.1,0.6-9.7,4.8-10.7,11.2c-0.2,1.2-0.3,4.2-0.4,6.2C8.9,64,8.7,66,8.7,67.9
		C8.5,71.3,8.5,73.1,8.6,73.3z"/>
	<path class="st2" d="M10.2,73.8c2.3,5.1,7.7,3.8,19.2,10.7c5.4,3.2,10.3,6.7,10.3,6.7c5.7,4,7.2,5.6,9.9,5.4
		c3.1-0.2,3.5-2.7,8.9-6.1c4.5-2.9,5-1.7,11-4.8c6.7-3.5,6.1-5,12.1-7.8c5.3-2.4,7.4-2,8.7-4.3c1.2-2.2-0.2-3.5-0.8-10
		c-0.6-6.6,0.5-8-0.9-11.1c-1.6-3.6-4.8-5.4-6.2-6.2c-8.5-4.9-15.7,0.5-31,0.7c-13.9,0.1-19.6-4.2-30.8-0.6
		c-3.7,1.2-6.4,2.8-8.2,5.3c-2.2,3.1-2.3,6.6-2.6,13.2C9.7,69.9,9.6,72.4,10.2,73.8z"/>
	<path class="st3" d="M16,74.6c2,4.4,6.7,3.3,16.8,9.1c4.7,2.7,9,5.7,9,5.7c5,3.4,6.3,4.8,8.6,4.6c2.7-0.2,3.1-2.3,7.8-5.2
		c3.9-2.4,4.4-1.4,9.6-4.1c5.9-3,5.3-4.3,10.6-6.6c4.6-2.1,6.4-1.7,7.6-3.7c1.1-1.9-0.1-3-0.7-8.5c-0.5-5.6,0.5-6.8-0.8-9.5
		c-1.4-3.1-4.2-4.6-5.4-5.3c-7.4-4.1-13.7,0.4-27,0.6c-12.1,0.1-17.1-3.6-26.9-0.5c-3.3,1-5.6,2.4-7.2,4.5c-1.9,2.6-2,5.6-2.2,11.3
		C15.6,71.3,15.5,73.4,16,74.6z"/>
</g>
<g>
	<path class="st4" d="M16.9,66.9c0.1,1.3,0.4,5.1,3,8.4c2.6,3.3,5.8,4,11.4,6.2c8.7,3.4,9.2,5.5,13.8,6.2c3.6,0.6,6.3,0.2,9.6-0.3
		c8.9-1.4,15.1-5.1,19.6-7.8c4.8-2.9,7.2-4.4,8.5-6.7c3.4-6.2,1.4-16.5-4.5-20.8c-8.2-6-15.5,0.9-28.7-1.5
		c-10.6-1.9-12.3-5.4-18.2-3.9C23.3,48.8,16.3,57.8,16.9,66.9z"/>
	<path class="st5" d="M21.7,65.9c0.7,5.2,4.7,8.4,8.9,11.8c7,5.6,14.2,6.8,16.1,7.1c7.8,1.1,13.7-1,18.5-2.6
		c7.3-2.6,12-4.2,14.6-8.9c3.7-6.6,2.1-16.6-3.2-20.8c-5.4-4.3-10.9,1.3-24.9-1.4c-7.4-1.4-9.8-3.7-13.1-3.9c-0.5,0-1.5,0.1-2.7,0.3
		C28.8,49.1,20.6,57.5,21.7,65.9z"/>
	<path class="st6" d="M34.8,77.5c-0.8-2.8,4.9-4.9,12.6-12.1c6.9-6.5,8-10.2,11.4-10c3.3,0.2,6.7,4.2,6.2,7.3c-0.5,3-4.5,3-11.2,7.4
		c-8.4,5.5-10.1,10.7-14.7,10.1C37.4,80,35.3,79,34.8,77.5z"/>
	<path class="st7" d="M31.2,62c0.8-2.7,5.6-1,14.1-2.1c7.7-1.1,10.2-3.3,12.3-1.1c2.1,2.2,2.5,7.3,0.7,9.4
		c-1.8,2.1-4.4-0.3-10.9-0.8c-8.2-0.7-11.8,2.4-14.6-0.8C31.8,65.5,30.8,63.5,31.2,62z"/>
	<path class="st7" d="M30,52c1.2-2.4,5.6,0.3,14.1,1.2c7.6,0.7,10.5-0.9,12.2,1.7c1.7,2.6,1.2,7.7-0.9,9.3
		c-2.1,1.6-4.2-1.3-10.5-3.3C37,58.4,33,60.6,30.8,56.8C30,55.5,29.3,53.3,30,52z"/>
	<path class="st7" d="M76,71.7c-1.1,2.5-5.7-0.2-14.2-0.9c-7.7-0.6-10.5,1.1-12.3-1.5c-1.8-2.6-1.4-7.7,0.6-9.4
		c2-1.7,4.3,1.2,10.7,3.1c8,2.4,11.9,0.1,14.3,3.8C76,68.2,76.7,70.4,76,71.7z"/>
	<path class="st6" d="M78.3,59.1c-0.6,2.8-5.5,1.6-13.9,3.7c-7.6,1.9-9.9,4.5-12.2,2.5c-2.3-1.9-3-7-1.4-9.3c1.6-2.3,4.4-0.2,11-0.4
		c8.2-0.3,11.6-3.7,14.6-0.9C77.4,55.7,78.6,57.6,78.3,59.1z"/>
	<path class="st8" d="M55.5,50c2,1.2,1,6,2.2,15.2c1.1,8.2,2.9,11.2,1.4,13.1c-1.5,1.9-5.3,1.5-7-0.7c-1.6-2.2,0-4.6,0.1-11.4
		c0.1-8.5-2.3-12.8-0.1-15.3C53,50.1,54.4,49.4,55.5,50z"/>
	<path class="st9" d="M33.5,61c-0.6,0.8,0.1,2.3,0.6,3c2.6,3.7,13,1.9,13.3-0.2c0.2-1.3-3.6-2.8-5.4-3.3c-1-0.3-2.7-0.2-6.3-0.1
		C34.7,60.4,33.9,60.4,33.5,61z"/>
	<path class="st10" d="M45.3,67.3c-1.3,0.8-2.1,1.7-2.6,2.2c-3.2,3.4-6.2,4.3-5.9,5.3c0.1,0.2,0.2,0.2,1.5,0.8
		c1.5,0.8,1.9,1.1,2.3,1.3c2.4,1,6.2-2.7,9.1-5.6c1.8-1.7,2.2-2.4,2-3.1c-0.3-1.2-2.3-2-3.9-1.8C46.8,66.4,46,66.9,45.3,67.3z"/>
	<path class="st10" d="M74.1,54.1c0.4,0.1,2.4,0.8,3,2.7c0.1,0.4,0.5,1.3,0.1,2.1c-0.6,1.4-2.6,1.2-8.7,2.2
		c-3.4,0.5-5.1,0.8-6.2,1.2c-1.8,0.7-2.4,1.2-3.2,0.8c-1.7-0.8-2.3-5.4-0.4-7.1c1.2-1.1,2.4,0,6-0.2C69.7,55.5,71,53,74.1,54.1z"/>
	<path class="st9" d="M30.6,53.5c0.1-0.5,0.2-1.3,0.8-1.8c0.9-0.8,2.3-0.1,5.5,0.8c3.5,1,5.2,1.4,6.9,1.4c2.4,0.1,3.3-0.7,4.2,0
		c1,0.8,1.2,2.9,0.4,4c-1,1.5-3,0.4-10,0.5c-3.5,0-5,0.3-6.2-0.8C31.2,56.7,30.3,55.1,30.6,53.5z"/>
	<path class="st9" d="M72.6,65.4c0.4,0.6-0.5,1.3-0.4,3c0,1.7,1,2.6,0.7,2.9c-0.4,0.4-2-1.9-4.9-2.7c-3.2-0.9-5,0.7-7.7-0.8
		c-0.3-0.2-1.5-0.9-1.5-1.6c0.1-1,2.6-1.4,3-1.5c2.5-0.4,3.2,0.5,6.4,0.6C70.8,65.2,72.2,64.6,72.6,65.4z"/>
	<path class="st10" d="M52.9,75.7c0.5,0.2,0.9-0.8,2.1-0.9c1.8-0.2,3,1.7,3.5,1.3c0.5-0.3-0.3-2-1.2-5c-0.8-2.7-0.6-3.1-1.4-5.8
		c-0.6-2.1-1.4-4.5-1.9-4.4c-0.6,0.1,0.2,3.7-0.8,9.5C52.9,72.9,52.3,75.3,52.9,75.7z"/>
	<path class="st11" d="M53.5,77.5c0.1,0.8,1.5,1.3,2.6,1.2c0.7,0,1.9-0.4,2-1.1c0.2-0.8-1-1.8-2.2-1.9
		C54.7,75.7,53.4,76.7,53.5,77.5z"/>
	<path class="st11" d="M36.7,75.9c0.8-0.2,1.4,0.3,2.1,0.8c0.3,0.2,1.8,1.4,1.5,2.1c-0.2,0.6-1.8,0.8-2.8,0.4c-0.7-0.2-2-1-1.9-2
		C35.6,76.6,36.1,76,36.7,75.9z"/>
	<path class="st12" d="M32.6,61.6c-0.4,0-0.8,0.9-0.9,1.6c-0.2,1.8,1.7,3.3,3.1,3.9c0.8,0.3,1.5,0.4,2.9,0.4c1,0,1-0.1,3.8-0.2
		c1.9-0.1,2.5-0.1,3.4-0.5c0.9-0.4,1.7-1,1.7-1.2c-0.1-0.2-1.2,0.3-3,0.6c-0.6,0.1-3.4,0.6-6.7,0.2c-0.7-0.1-1.1-0.1-1.4-0.3
		C33.3,65.2,33.4,61.6,32.6,61.6z"/>
	<path class="st12" d="M73.3,66.4c-0.3,0.1-0.2,1.2-0.1,2.2c0.1,1,0.3,2.7,1.1,3c0.5,0.1,1.1-0.2,1.3-0.7
		C76.5,69.3,74,66.1,73.3,66.4z"/>
	<path class="st13" d="M44.6,11.2c-2,0.7-1.9,3.6-4.4,9.8c-2.9,7.2-5.2,8.9-7.3,13.1c-4.4,9-5,24.8,3.9,32.5c7.4,6.4,18,4.3,20,3.9
		c2.8-0.6,9.6-2.1,13.1-7.7c7-10.8-4.2-28.1-10.3-37.4C58.1,22.9,49.3,9.4,44.6,11.2z"/>
	<path class="st14" d="M50.1,28.5c-1.4,0.8-6-6.6-8.5-5.5c-2.3,1-0.1,7.7-4.5,11.4c-0.9,0.8-1.3,0.8-2,1.3
		c-1.3,0.9-6.6,27.2,5.3,32.9c2.3,1.1,5.1,1.3,8.8,1.6c3.7,0.3,6.8,0.6,10.1-0.4c4.6-1.4,8.8-4.9,10.9-9c3.8-7.6-0.5-16.2-4.4-24.4
		c-6.6-13.6-17-23.5-18.7-22.3C45.3,15.3,51.8,27.5,50.1,28.5z"/>
	<path class="st15" d="M67.8,61.2c-3.3,6.7-10.9,8.4-11.3,8.5c-5.8,1.2-10.4-1.3-11.6-2C32.8,60.9,31.3,41,34.3,39.5
		c1.2-0.6,2.7,1.9,4.6,1.3c4-1.4,2.3-15,3.7-15.2c1.7-0.2,4.3,17.9,7.1,17.8c1.8-0.1,3.8-7.9,3.4-15.2c-0.2-4.8-1.4-7-0.7-7.3
		C54,20,62,30.4,66.3,43.2C68.7,50.5,70.4,55.8,67.8,61.2z"/>
	<path class="st16" d="M58.8,56.1c2.5-6-0.9-11.7,0.6-12.6c1.4-0.8,5.9,4.5,7.4,7.2c0.3,0.6,1,1.8,1.4,3.5c0.2,0.9,0.3,1.6,0.3,2.3
		c-0.1,2.6-0.2,4-0.8,5.2c-1,2.1-2.5,1.7-5,4.1c-1,0.9-0.6,1.1-1.6,2c-1.4,1.3-3,1.8-3.7,2c-2.4,0.7-3.9,0.1-7.8-0.4
		c-5.9-0.8-6,0-7.9-0.9c-3.2-1.4-4.7-4.4-6-7.5c-4.3-9.7-2.9-19.5-2.4-19.5c0.4,0,0.2,4.2,3,9.5c1.2,2.2,2.6,4.9,3.8,4.8
		c3.4-0.5,2.7-22.3,3.5-22.3c0.3,0,0.4,3.4,1,7.5c1,7.1,3.6,17.4,5.7,17.3c1.7-0.1,2.7-6.3,3.3-10c1.6-9.3,0.5-15.5,1.7-15.8
		c0.8-0.1,2,2.5,2.5,4.3c0.4,1.6,0.4,3,0.3,4.4c-0.4,5.7-1.9,7.3-2,12.1c0,0.3-0.1,4.9,0.9,5.1C57.7,58.6,58.6,56.4,58.8,56.1z"/>
	<path class="st17" d="M40.7,66.3c-2.2-2-2.4-5.5-1.9-5.7c0.3-0.2,0.8,0.9,2.6,2.3c0.8,0.6,2.7,2.1,3.4,1.6c1.3-0.9-2.2-8.3-2-8.4
		c0.2-0.1,1.5,4.1,5.1,6.9c1,0.7,2.2,1.6,3.3,1.3c2.1-0.6,2.4-4.7,3.1-4.7c0.8,0.1,0.3,5.3,1.6,5.7c1.5,0.4,4.1-6.6,4.9-6.3
		c0.9,0.3,0.3,8.9-3.7,10.3c-1.5,0.5-3.8,0.1-4.8-0.1c-1.5-0.3-1.6-0.5-3-0.7c-1.9-0.2-3,0-5.3-0.6C42.7,67.4,41.7,67.1,40.7,66.3z"
		/>
	<path class="st18" d="M184.4,37"/>
	<path class="st19" d="M61.3,63.1c-0.6,1.2-2.7,5.5-7.2,6.7c-3.2,0.8-5.9-0.4-7.9-1.3c-6.7-3-9.2-9.3-10.1-11.6
		c-0.6-1.5-0.7-2.7-1.1-5.1c-0.7-4.5-0.7-8.1-0.6-12.3c0.1-4,0.5-14.8,1.1-14.8c0.5,0,0.7,6.5,3,16.6c1.4,6.2,2.3,8,3.9,8.6
		c2.5,0.9,6.2-1.7,8-4.6c5.5-8.6-3.9-22.4-2.6-23.1c1.3-0.7,9.6,10.7,13.6,25.5C63.2,54.3,63.3,59,61.3,63.1z"/>
	<path class="st20" d="M50.1,29.1c-2.7,0.4-4.6-6.7-7.8-6.3c-2.2,0.2-2.8,3.7-6.9,11.2c-2.9,5.4-3.5,5.3-4.6,7.7
		c-4.5,9.8-1.4,25.4,6.4,28.9c1.7,0.8,5.1,0.4,11.9-0.3c5.6-0.6,8.6-0.8,11.8-2.4c2.5-1.3,6.4-3.1,9.1-7c5.7-7.9,2.6-18.4-0.2-27.6
		c-1-3.3-2.5-7.1-5.8-10.7c-1.7-1.8-5.1-5.4-7.8-4.6C52.5,19.3,53.2,28.6,50.1,29.1z"/>
	<path class="st21" d="M43.6,11.2c-1.2,0.7-1.1,1.8-4.4,9.8c-2.9,7.2-5.2,8.9-7.3,13.1c-4.4,9-5,24.8,3.9,32.5
		c7.4,6.4,18,4.3,20,3.9c2.1-0.5,8.9-2,13.1-7.7c10-13.5-5.4-36-6.7-37.9C56.2,16.3,47.1,9.2,43.6,11.2z"/>
	<path class="st22" d="M113.4,32.4"/>
</g>
<path d="M156,25.9"/>
<path class="st23" d="M59.7,83.1"/>
</svg>
