<?xml version="1.0" encoding="utf-8"?>
<!-- Generator: Adobe Illustrator 26.0.3, SVG Export Plug-In . SVG Version: 6.00 Build 0)  -->
<svg version="1.1" id="Ebene_1" xmlns="http://www.w3.org/2000/svg" xmlns:xlink="http://www.w3.org/1999/xlink" x="0px" y="0px"
	 viewBox="0 0 100 100" style="enable-background:new 0 0 100 100;" xml:space="preserve">
<style type="text/css">
	.st0{fill:#1A0017;stroke:#000000;stroke-width:2;stroke-miterlimit:10;}
	.st1{opacity:0.4;fill:#C9FFF0;stroke:#000000;stroke-width:0.75;stroke-miterlimit:9.9997;}
	.st2{fill:#4A003C;stroke:#000000;stroke-width:0.75;stroke-miterlimit:9.9997;}
	.st3{opacity:0.5;fill:#C9FFF0;stroke:#000000;stroke-width:0.75;stroke-miterlimit:9.9997;}
	.st4{fill:none;stroke:#000000;stroke-width:0.75;stroke-miterlimit:9.9997;}
	.st5{fill:#4F9400;stroke:#000000;stroke-width:0.75;stroke-miterlimit:9.9997;}
	.st6{fill:#E9AB00;}
	.st7{fill:#FFFFFF;stroke:#FF0000;stroke-width:0.5;stroke-miterlimit:10;}
	.st8{fill:#FF0000;}
</style>
<g id="Ebene_1_00000017510764199299988230000010460311392665681541_">
	<path class="st0" d="M92,25.8L50,1.6L8,25.8v48.5l42,24.3l42-24.2V25.8z"/>
</g>
<path class="st1" d="M31.5,37.4c-8.9,9.1-9.2,30.6,0.6,38.5c5,4.1,11.4,3.5,22.1,2.7C64.3,77.8,73,77.1,76.2,71
	c3.3-6.2-0.6-15.5-5.2-20.6c-6-6.7-11.2-4.3-14.8-10.8c-1.9-3.5-3.9-10.3-2.4-17.2c0.6-2.9,1.5-4.2,0.7-5.8c-2-4-12.4-4.7-15.1-0.7
	c-2.1,2.9,1.7,6.3,0.3,11.9C38.5,32.7,34.5,34.3,31.5,37.4z"/>
<path class="st2" d="M30.3,44.8c-7.3,7-3.6,25.8,5.5,30.1c2.5,1.2,2.8,0.1,12.1,0c12.6-0.1,16,1.9,20.1-1c4.1-2.9,4.8-7.9,4.9-8.6
	c0.7-5.4-2.5-9.6-4.4-12.1C61.1,43.4,47.3,39,36.2,42C33.9,42.6,32,43.2,30.3,44.8z"/>
<path class="st3" d="M41,17.7c0.3,1.1,3,1.1,5.8,1.2c3.4,0.1,6,0.1,6.4-0.9c0.3-1-1.7-2.7-3.4-3.4c-2.4-1-5.3-0.7-7.3,0.9
	C42,15.8,40.7,16.9,41,17.7z"/>
<path class="st3" d="M47.6,43.9c4.6-3.1,13.3,2.6,17.8,7.6c3.9,4.3,4.5,8.1,4.6,9c0.4,3.1-0.3,6.7-1.2,6.8c-1.4,0.1-0.8-8-5.9-12.6
	c-6.3-5.6-16.2-1.7-17.6-5.6C44.6,47.4,46,45,47.6,43.9z"/>
<path class="st4" d="M31.5,37.4c-8.9,9.1-9.2,30.6,0.6,38.5c5,4.1,11.4,3.5,22.1,2.7C64.3,77.8,73,77.1,76.2,71
	c3.3-6.2-0.6-15.5-5.2-20.6c-6-6.7-11.2-4.3-14.8-10.8c-1.9-3.5-3.9-10.3-2.4-17.2c0.6-2.9,1.5-4.2,0.7-5.8c-2-4-12.4-4.7-15.1-0.7
	c-2.1,2.9,1.7,6.3,0.3,11.9C38.5,32.7,34.5,34.3,31.5,37.4z"/>
<path class="st4" d="M41,17.7c0.3,1.1,3,1.1,5.8,1.2c3.4,0.1,6,0.1,6.4-0.9c0.3-1-1.7-2.7-3.4-3.4c-2.4-1-5.3-0.7-7.3,0.9
	C42,15.8,40.7,16.9,41,17.7z"/>
<path class="st5" d="M29.9,20.2c-2.7-0.1-5,2.6-4.9,5.3c0.1,2.3,1.9,4.8,4.4,4.9c2.5,0.1,4.4-2,4.7-4.1
	C34.6,23.5,32.7,20.4,29.9,20.2z"/>
<path class="st5" d="M20.7,38c-2.7-0.1-5,2.6-4.9,5.3c0.1,2.3,1.9,4.8,4.4,4.9c2.5,0.1,4.4-2,4.7-4.1C25.5,41.3,23.5,38.1,20.7,38z"
	/>
<path class="st5" d="M66.3,28.7c-3.1-0.1-5.7,2.6-5.6,5.3c0.1,2.3,2.1,4.8,5.1,4.9c2.8,0.1,5-2,5.4-4.1C71.8,32,69.5,28.8,66.3,28.7
	z"/>
<path class="st5" d="M80.2,38.9c-3.1-0.1-5.7,2.4-5.6,4.8c0.1,2.1,2.2,4.3,5.1,4.4c2.8,0.1,5-1.9,5.5-3.8
	C85.7,41.9,83.4,39,80.2,38.9z"/>
<path class="st5" d="M61.3,12.1c-2.9-0.1-5.3,2.3-5.2,4.6c0.1,2,2,4.2,4.8,4.2c2.6,0.1,4.7-1.8,5.1-3.6C66.5,15,64.3,12.2,61.3,12.1
	z"/>
<path class="st5" d="M17.6,27.1c-1.3-0.1-2.5,1.7-2.4,3.5c0,1.5,0.9,3.1,2.2,3.2c1.2,0.1,2.2-1.3,2.4-2.7C20,29.3,19,27.2,17.6,27.1
	z"/>
<path class="st6" d="M76.1,39.3c0.4,2.5-1.7,5.2-4,6.3c-4.8,2.4-12.3-1.6-15.3-6.8c-2.6-4.5-1.2-8.7-3.7-9.7c-2-0.8-3.4,1.9-7.9,1.9
	c-0.4,0-4.8,0-5.6-2.1c-0.4-1.2,0.4-2.9,1-3c0.5,0,0.5,1,1.3,1.9c2.1,2.2,7.9,2,9.9-0.6c0.8-0.9,0.8-1,1.4-1.3
	c2.5-1.2,5.6,2.2,10.5,5.5C71.6,36.7,75.6,36.2,76.1,39.3z"/>
<ellipse class="st7" cx="65.4" cy="38.8" rx="5.9" ry="5.1"/>
<path class="st8" d="M61.2,35.2c3.1,2.1,6.1,4.3,9.2,6.4c0.1-0.1,0.2-0.3,0.4-0.4c-3-2.1-6-4.3-9-6.4C61.6,34.9,61.4,35.1,61.2,35.2
	z"/>
<path d="M68.6,41.1c-0.5-1-0.4-1.4-0.8-1.7c-0.5-0.4-1.2-0.4-1.3-0.2c-0.1,0.2,0.8,0.5,1.2,1.5c0.1,0.4,0,0.5,0.1,1.9
	c0,1.1,0.1,1.7,0,1.7c-0.1,0-0.2-0.4-0.2-0.8c-0.2-1,0.1-1.4-0.1-2.1c-0.2-0.7-0.6-1.3-0.8-1.2c-0.2,0-0.1,0.5-0.5,0.8
	c-0.1,0.1-0.3,0.3-0.6,0.3c-0.3,0-0.7,0-0.9-0.3c-0.3-0.4-0.1-0.9-0.3-0.9c-0.1,0-0.2,0.1-0.5,0.5c-0.4,0.5-0.4,0.5-0.4,0.5
	c-0.3,0.5-0.1,0.8-0.1,1.7c0,0.8-0.2,1.5-0.3,1.5c0,0,0-0.6,0-1.6c-0.1-1.2-0.2-1.6,0-2.1c0.1-0.2,0.3-0.4,0.6-0.7
	c0.4-0.5,0.7-0.7,0.7-0.8c0,0,0,0-0.5,0.1c-0.4,0.1-0.6,0.2-0.7,0.3c-0.2,0.2-0.2,0.4-0.4,0.9c-0.1,0.1-0.2,0.3-0.4,0.7
	c-0.4,0.7-0.6,1-0.7,1c-0.1,0,0.1-0.5,0.4-1.3c0.5-1.5,0.6-1.9,0.9-2.1c0.2-0.1,0.3,0,0.9,0c0.1,0,0.8-0.1,0.8-0.2
	c0-0.1-0.8,0-1.3-0.6c-0.2-0.2-0.3-0.5-0.4-0.6c-0.1-0.4-0.1-0.7-0.2-1.2c-0.1-1-0.3-1.7-0.2-1.7c0.1,0,0.1,0.3,0.2,0.4
	c0.3,0.7,0.4,1.3,0.4,1.5c0.1,0.7,0.1,1,0.3,1.2c0.1,0.1,0.1,0.1,0.5,0.3c0.6,0.3,0.8,0.4,0.8,0.3c0.1-0.1-0.7-0.4-1-1.3
	c-0.2-0.5-0.1-1,0-1.8c0.1-0.6,0.3-1,0.4-1.2c0.2-0.2,0.4-0.4,0.5-0.3c0.1,0.1-0.5,0.5-0.6,1.3c0,0.1,0,0,0,0.8c0,0.6,0,0.8,0.1,1.1
	c0,0,0.1,0.1,0.3,0.4c0.1,0.1,0.5,0.7,0.5,0.6c0,0,0-0.1,0-0.1c0,0,0.1,0,0.1-0.1c0,0,0-0.1,0-0.2c0-0.1,0.2-0.3,0.2-0.2
	c0,0,0,0.1,0,0.2c0,0,0,0.1,0.1,0.1c0.1,0,0.1,0,0.1-0.1c0-0.1,0-0.2,0-0.2c0,0,0.2,0.1,0.2,0.3c0,0,0,0.1,0,0.1
	c0,0.1,0,0.1,0.1,0.1c0.1,0.1,0,0.2,0.1,0.2c0.1,0,0.5-0.3,0.7-0.9c0.3-0.7,0.2-1.3,0.2-1.6c-0.1-0.4-0.2-0.7-0.3-1
	c-0.2-0.6-0.4-0.8-0.4-0.9c0.1,0,0.7,0.6,0.9,1.4c0,0.2,0,0.4,0,0.8c0,0.7,0,1-0.1,1.4c-0.3,0.8-0.9,1-0.8,1.1
	c0.1,0.1,1.1-0.1,1.5-0.9c0.2-0.5,0.4-1.5,0.4-2.1c0-0.1,0-0.4,0.1-0.5c0,0,0.1-0.1,0.2,0c0.2,0.1-0.2,0.9-0.4,2.2
	c-0.1,0.6-0.1,0.9-0.3,1.2c0,0-0.1,0.1-0.6,0.4c-0.6,0.3-0.8,0.3-0.8,0.4c0,0.2,1.4-0.2,2.1,0.6c0,0,0.1,0.4,0.4,1
	c0.1,0.2,0.3,0.8,0.6,1.5c0.1,0.4,0.1,0.5,0.1,0.5C69.3,42.3,69,41.8,68.6,41.1z"/>
<path class="st8" d="M60.7,33.7"/>
</svg>
