<?xml version="1.0" encoding="utf-8"?>
<!-- Generator: Adobe Illustrator 26.0.3, SVG Export Plug-In . SVG Version: 6.00 Build 0)  -->
<svg version="1.1" id="Ebene_1" xmlns="http://www.w3.org/2000/svg" xmlns:xlink="http://www.w3.org/1999/xlink" x="0px" y="0px"
	 viewBox="0 0 600 400" style="enable-background:new 0 0 600 400;" xml:space="preserve">
<style type="text/css">
	.st0{fill:#392B52;stroke:#CCAC00;stroke-width:4;stroke-miterlimit:10;}
	.st1{fill:#FDD0B4;stroke:#CCAC00;stroke-width:4;stroke-miterlimit:10;}
	.st2{fill:#EF7888;stroke:#CCAC00;stroke-width:4;stroke-miterlimit:10;}
	.st3{fill:#FD9695;stroke:#CCAC00;stroke-width:4;stroke-miterlimit:10;}
</style>
<g>
	<path class="st0" d="M0.2,200.9c-1.6,2.3,5.4,18.2,17.9,24.4c16,8.1,31.8-4.6,36.1,3c3.4,6-4.9,15.9-1,22.1
		c3.5,5.6,13.3-2.3,18.8,3.5c4.1,4.4,0.9,10.8,3.5,22.1c0.3,1.4,4.4,18.3,17.9,26.3c9.8,5.7,21.3,4.9,29.7,0
		c9.5-5.6,9.8-13.2,16.3-13.7c9.2-0.7,11.7,15,22.8,15.5c11.2,0.5,21.9-10.6,20.8-14.9c-1-3.8-10.7,0.8-20.8-5.4
		c-11.5-6.9-17.2-23.6-18.3-36.4c-1.8-20.5,7.9-36.1,10.4-40c7.5-11.2,13.5-10.9,14.9-19.1c2-11.8-10.2-16.7-10.9-32.8
		c-0.7-15.8,10.3-27.6,11.9-29.2c7.5-7.8,20-13.9,30.2-9c10.1,4.9,9.9,16.7,17.9,17.9c8.3,1.2,16.9-10.6,20.3-20.3
		c3.2-9.1,4-22-1.5-31.6c-10.1-17.9-37.2-16.8-49.3-4c-7,7.4-5.5,14.9-12.6,18.9c-8.8,4.9-14.2-4.8-29.2-4.8
		c-17.6,0-29.9,13.4-31.7,15.5c-3.8,4.2-13.6,15.4-12.4,28.1c0.5,4.8,2.2,7.1,1,9.5c-2.8,5.5-13.4-3.2-23.8,3
		c-6.9,4.1-12.4,14.2-14.9,18.5c-2.2,4-3.1,6.5-6,9c-4.9,4.1-8,1.7-13.4,4.1c-8.6,3.8-6.6,12.6-16.3,19.1
		c-7.2,4.8-14.6,4.3-15.9,4.1C5,203.8,1.1,199.5,0.2,200.9z"/>
	<path class="st0" d="M334.6,209.2c-2.3,0.3-2.9-2.6-7.9-5.4c-5.7-3.1-8.2-1.1-9.9-3.5c-2.8-3.9,1.9-11.5,4-21.5
		c2.7-12.7,0.3-25.2-2-31.6c-7.9-22.1-31.7-19.8-32.7-33.4c-0.7-9.7,10.5-22,20.3-22.1c9.2-0.2,13.9,10.6,19.8,7.8
		c4.9-2.3,2.9-10.2,8.4-18.5c8.8-13.4,26.3-12.3,29.3-12.1c12.9,0.8,21.5,8.4,24.2,10.9c2.1,2,16.5,15.2,13.9,26.3
		c-1,4.1-5,6.9-12.9,12.5c-10.6,7.5-13.4,6.5-17.9,11.9c-5.5,6.9-7.1,16.5-7.4,18.6c-1.3,7.7-0.8,14.9,0,23.9
		c0.9,11.8,2.2,13.4,1.1,16c-3.1,7.2-13.3-2.6-21.3,5.4C338,199.8,338.7,208.8,334.6,209.2z"/>
	<path class="st1" d="M533.7,228.9c-0.6-7.8-10.7-7.2-14.4-17.3c-4-10.8,5.3-17.7,1.5-29.8c-2.6-8.4-10.4-15.5-17.9-16.7
		c-5.6-0.9-8.1,2-10.9-0.6c-4.4-4.1,0.4-13.1-4-20.9c-4-7.2-12.6-8-16.3-8.4c-9.1-0.9-16.7,3.7-19.3,5.4c-6.2,4.1-7.7,8.1-10.4,7.2
		c-3.9-1.3-2.3-9.9-7.4-18.5c-4.5-7.7-11.5-10.4-18.3-13.1c-5-2-12.9-5.1-22.3-2.4c-5.6,1.6-9.3,4.5-13.4,7.8
		c-5.3,4.1-11.1,8.8-14.9,17.3c-3.6,8.2-3.6,16.2-3.5,21.5c0.3,16.3,6.3,24.4,3,28.6c-2.1,2.6-4.7-0.2-11.9,1.8
		c-8.2,2.3-13.5,8.4-14.9,10.1c-1,1.3-6,7.7-7.9,17.9c-1.5,8.2,0.8,9.2-0.5,17.3c-2,12.3-8.4,17-6.4,20.9c0.9,1.7,2.4,1.4,12.4,3.5
		c8,1.8,9.1,2.6,9.9,3.5c3.5,4.5,1.9,12.6,1,16.7c-0.2,1.3-2.1,8.6-6.4,13.1c-11.7,12.1-30.1-8.8-46.5,1.7
		c-9.2,5.8-6.1,14-17.9,25.7c-11.4,11.4-19.9,9.3-32.2,15.5c-30.6,15.4-44,61.3-42.1,63.2c0.7,0.8,8.3-7.9,14.9-15.5
		c7.8-8.9,8.5-10.7,11.9-13.7c5.5-4.9,12-7.8,24.8-9.5c16.9-2.4,30.1-0.9,38.6,0c10.8,1.1,34.1,3.6,53.5,4.8c39.3,2.3,46-2,49.6-4.8
		c10.3-8.2,7.5-15.1,23.3-29.8c10.4-9.7,16.6-11.4,20.3-21.5c2.9-7.9,0.7-11.2,4.4-21.5c1.7-4.5,6.5-17.7,13.4-17.3
		c6.1,0.3,11.7,11.3,9.9,14.9c-1.8,3.5-10.3-0.5-11.4,2.4c-0.8,2.2,3.2,6.6,6.4,9c4.9,3.7,14.2,7.4,20.8,1.8c2.6-2.2,3.8-5,5-7.8
		c3.8-8.8,2.8-18.2,2.5-20.9c-0.6-5.1-1.6-5.7-1-7.8c1.5-4.7,7.6-3.9,17.9-7.8c4-1.5,11.1-4.2,17.9-10.7
		C528.8,240.2,534.2,234.9,533.7,228.9z"/>
	<path class="st2" d="M242,74.5c5-6.6,13.5-10.8,20.8-9c5.3,1.3,6.4,4.8,9.4,4.1c6.9-1.5,5.5-20.7,12.4-36.4
		c12.6-28.5,47.2-32.5,50-32.8c6.5-0.7,31.2-3.1,46.6,15.5c14.1,17.1,11.5,41.4,23.8,44.7c5.7,1.5,7.9-3.2,19.3-2.4
		c4.2,0.3,10.9,0.7,17.9,5.4c8,5.4,16.3,16.5,17.3,29.8c0.9,12.1-4.8,17.7-1.5,23.2c3.4,5.6,13.4,6.9,17.9,1.2c4.1-5.4-8-15.8-5-25
		c3.3-10,21.5-14,27.3-6.6c3.9,5.1,0.2,13.1,3.5,15.5c4.3,3.2,11.4-10.4,25.8-13.7c9.1-2.1,16.7,1.1,19.8,2.4
		c2.2,0.9,18.4,8.2,23.8,25.7c6.4,20.7-7.5,39.5,0,47.7c4,4.4,8.5-0.2,16.3,5.4c8.1,5.8,10.8,16.4,11.4,18.5
		c4.2,16.1-2.5,32.5-4.4,32.2c-1.5-0.2,0.8-10-4.4-17.9c-4.8-7.2-12.8-8.1-14.4-8.4c-9.5-1.1-16.9,5.2-19.8,7.8
		c-12.4,10.9-9.9,22.9-19.3,27.5c-8.2,3.9-19.4-0.7-21.8-7.8c-1.6-4.5,1.3-7.5,3-18.5l0,0c0-7,0-15-3-20.9c-3.1-6-8.5-8.2-10.4-9
		c-7.2-2.9-10.1,1.1-13.9-1.8c-5.2-4.1-1-13.2-6-22.6c-4.3-8.3-13.5-12.7-20.9-12.6c-12.1,0.3-15.3,12.8-23.2,10.8
		c-9.4-2.3-6.9-20.3-19.8-28.6c-9-5.8-15.9-0.8-21.3-8.4c-3.8-5.3-1.6-9.4-5-17.3c-5-11.8-15.6-16.3-17.9-17.3
		c-12.6-5.4-27.8-1.8-36.7,8.4c-7.8,9-6.2,17.8-12.9,20.3c-7.8,2.9-12.2-8.4-22.3-6.6c-8.5,1.6-8.3,10.3-17.9,13.1
		c-9.1,2.7-11.7-4.6-23.3-3.5c-12.5,1.1-16.2,10.2-21.3,7.2C235,109.6,232.4,87.1,242,74.5z"/>
	<path class="st3" d="M167.7,192.6c1.2-3.8-1.5-7.7-4.5-13.7c-2.7-5.4-10.5-21.4-9.4-34.6c1.7-19.1,22.1-29.9,24.3-31
		c5.4-2.8,11.3-5.7,17.9-3.5c10.1,3.3,11.5,15.5,19.8,16.7c5,0.7,6.3-3.5,16.8-10.7c7.2-5.1,20.9-14.3,36.7-12.5
		c2.3,0.2,6.9,0.8,12.4,3.5c6.5,3.3,7.7,6.5,15.9,12.5c8.6,6.3,9.1,4.1,14.4,9c2,1.8,8.7,8.2,12.3,19.7c1.1,3.6,3.3,12,2,22.1
		c-1.5,11.4-6.2,15.7-4,21.5c1.6,4.1,4.3,3.1,8.4,7.8c7.9,8.9,7.5,23.2,7.4,23.8c-0.4,9.5-4.6,17.1-7.4,22.1
		c-3.8,6.7-6.7,9.1-6,11.3c1.5,4.3,13.1-2.1,19.8,4.8c5.2,5.3,6.2,17,2.4,24.9c-2,4.1-6.9,10.9-11.8,9.1c-5.8-2.1-7-14.4-5.5-15.5
		c1.3-0.9,4.5,5.9,7.4,4.8c2.1-0.8,3.4-5.5,2.5-9c-1.8-6.9-11.9-7.2-12.4-7.2c-1.9,0-5.7,0-8.4,3c-2.9,3.2-2.2,7-3.5,10.7
		c-3.7,11.3-22.5,17.7-28.7,10.7c-4.1-4.6,0.5-11.2-4-21.5c-0.3-0.6-5.6-12.4-16.3-14.3c-5.3-0.9-13.7,0.2-17.3,7.2
		c-2.6,4.9-1.8,10.9-1.5,13.1c1.1,8.1,4.9,9.4,5,15.5c0.1,5.7-3.1,10-6,13.7c-1.9,2.5-7.5,10-16.8,11.3c-7.6,1.1-16.7-2-21.8-9.5
		c-6.1-9.1-3-19.6-8.9-23.2c-2.1-1.3-3.8-0.8-9.9,0.6c-14.8,3.2-22.2,4.9-26.7,3.5c-10.1-2.9-15.7-14-16.3-15.5
		c-2.1-4.4-2.7-9.5-4-19.7c-1.5-12.1-2.2-18.3-1.5-24.4c0.6-5.5,2.3-20.4,11.4-28.1C158.9,195.4,166,198,167.7,192.6z"/>
	<path class="st1" d="M254.3,296.4c-2.1,4.5-15.2,3.7-22.8-4.8c-5.7-6.4-6.9-15.5-6.9-16.1c-0.9-7.5,1.8-10.2,0-13.7
		c-3-6-11.6-0.6-18.3-6.6c-4.8-4.2-5.6-11.5-6.9-24.4c-1.5-13.8-2.4-22.3,2-30.4c5.1-9.5,14.1-12.1,19.3-13.7
		c5.4-1.6,14.1-4.1,20.8,1.2c6.5,5.2,5.7,13.6,10.9,14.9c4.2,1.1,5.6-4.1,13.4-6.6c2.2-0.7,10.6-3.3,16.8,2.4
		c0.3,0.3,6,5.7,5.5,12.5c-0.7,7.7-9.2,11.5-8.4,13.6c1,2.9,15.6-6.3,22.3,0.6c3,3.1,3.7,8.5,3,12.5c-1.2,6.2-6.1,10.3-10.4,11.3
		c-7.2,1.8-10.1-5.2-15.9-3c-5.6,2.3-4.3,9.7-10.4,13.1c-6.8,3.8-12.3-3.2-17.3,1.2c-3.5,3.1-3.9,9.2-4,11.3
		C246.2,285.1,256.4,291.8,254.3,296.4z"/>
	<path class="st2" d="M401,262.3c-3.3-4.5-3.2-10.6-3-22.6c0.2-13,0.4-19.5,4-24.4c3.3-4.6,10-5.8,23.3-8.4
		c12.4-2.3,15.2-0.9,16.8,0.6c4.7,4.2,3.7,11.3,7.4,12.5c4.1,1.4,6.5-7.2,12.9-7.8c6.6-0.6,12.8,7.8,15.4,14.3
		c0.8,2.1,2.8,7.1,2,13.1c-1.2,9-7.4,11.5-6.4,16.1c1.1,5.1,8.4,3.8,12.9,10.1c5.5,7.8,5.3,26.3-4,33.4
		c-10.9,8.4-27.4-4.1-27.3-10.7c0-5.1,9.9-7.2,9.4-11.9c-0.3-3.2-5.3-5.7-9.4-5.4c-6.1,0.5-9.9,7.5-10.9,9.5
		c-4.6,8.8-1.7,14.4-4.1,24.4c-3.8,15.6-16.6,25.4-18.6,23.6c-1.8-1.6,5-11.6,5.9-30.7c0.6-12.1-1.8-17.4-4-20.3
		c-0.5-0.7-1.2-1.5-6.9-5.4C404.7,264.7,403.2,265.4,401,262.3z"/>
	<path class="st0" d="M395,323.2c-4.6-4.1-9-1.5-10.9-5.4c-1.7-3.3-0.3-9.1,2.5-11.9c3.6-3.5,8-0.5,9.4-3c1.9-3.6-6.8-10.1-6.4-20.3
		c0.2-6,3.5-10.2,4.4-11.3c6-7.1,16.5-6.5,23.3-1.8c9.9,6.9,11,21.9,11.4,28.1c1.1,15.5-4.9,27.1-7.4,31.3c-2,3.5-2,2.4-10,12.2
		c-12.5,15.5-11.7,17.2-16.3,20.3c-5.1,3.4-10.6,3.8-21.8,4.8c-2,0.2-13.7,1.1-13.9-0.6c-0.2-1.7,10.3-3.9,25.3-12.5
		c13.3-7.6,15.3-11.5,15.9-14.9C401.3,332.9,398.7,326.5,395,323.2z"/>
</g>
</svg>
