<?xml version="1.0" encoding="utf-8"?>
<!-- Generator: Adobe Illustrator 26.0.3, SVG Export Plug-In . SVG Version: 6.00 Build 0)  -->
<svg version="1.1" xmlns="http://www.w3.org/2000/svg" xmlns:xlink="http://www.w3.org/1999/xlink" x="0px" y="0px"
	 viewBox="0 0 100 100" style="enable-background:new 0 0 100 100;" xml:space="preserve">
<style type="text/css">
	.st0{fill:none;stroke:#000000;stroke-width:2;stroke-miterlimit:10;}
	.st1{fill:#936037;stroke:#000000;stroke-width:2;stroke-miterlimit:10;}
	.st2{fill:#3C3C3B;stroke:#000000;stroke-miterlimit:10;}
</style>
<g id="Ebene_2">
	<polygon class="st0" points="6.68,25.22 49.58,0.5 92.51,25.28 92.55,74.78 49.64,99.5 6.71,74.72 	"/>
</g>
<g id="Ebene_1">
	<polygon class="st1" points="9.2,26.68 49.57,3.41 89.97,26.73 90,73.32 49.63,96.59 9.23,73.27 	"/>
	<path class="st2" d="M49.81,4.12c7.62,3.18,9.11,29.17-2.87,47.42C36.3,67.74,15.28,77.48,9.97,72.77
		c-1.52-1.35-1.16-3.36-0.75-9.64c1.78-27.12-2.24-30.61,2.47-37.54c1.1-1.62,7.14-5.2,19.17-12.28C46.84,3.9,48.29,3.48,49.81,4.12
		z"/>
	<path class="st2" d="M89.42,27.08c-3.01-1.02-12.88,10.83-12.51,24c0.34,12.18,9.38,22.94,12.4,21.93
		c1.97-0.66,0.57-6.06,0.68-25.6C90.08,31.64,91.03,27.62,89.42,27.08z"/>
</g>
</svg>
