<?xml version="1.0" encoding="utf-8"?>
<!-- Generator: Adobe Illustrator 26.0.3, SVG Export Plug-In . SVG Version: 6.00 Build 0)  -->
<svg version="1.1" xmlns="http://www.w3.org/2000/svg" xmlns:xlink="http://www.w3.org/1999/xlink" x="0px" y="0px"
	 viewBox="0 0 100 100" style="enable-background:new 0 0 100 100;" xml:space="preserve">
<style type="text/css">
	.st0{fill:none;stroke:#000000;stroke-width:2;stroke-miterlimit:10;}
	.st1{fill:#3AAA35;stroke:#006633;stroke-miterlimit:10;}
</style>
<g id="Ebene_2">
	<polygon class="st0" points="6.68,25.22 49.58,0.5 92.51,25.28 92.55,74.78 49.64,99.5 6.71,74.72 	"/>
</g>
<g id="Ebene_1">
	<polygon class="st0" points="9.2,26.68 49.57,3.41 89.97,26.73 90,73.32 49.63,96.59 9.23,73.27 	"/>
	<path class="st1" d="M64.51,14.57c-1.26-0.23-1.26,17.28-13.19,31.71c-4.51,5.45-6.81,5.74-8.39,10.31
		c-3.34,9.66,3.8,17.36-0.57,22.96c-3.13,4.01-9.54,3.59-9.41,4.48c0.12,0.85,6.14,2.56,9.64-0.11c6.63-5.06-2.12-20.93,5.86-32.03
		c1.75-2.44,2.99-2.8,3.79-2.76c2.1,0.12,3.06,3.23,7.46,13.09c3.38,7.57,3.58,7.58,4.48,10.33c2.08,6.41,2.36,11.18,2.87,11.14
		c0.4-0.04,0.55-3.03,0.34-5.74c-0.35-4.57-1.66-7.97-2.07-8.84c-9-19.24-9.27-19.87-9.3-21.47c-0.12-6.78,4.63-7.28,7.58-19.06
		C65.43,21.24,65.28,14.71,64.51,14.57z"/>
</g>
</svg>
