<?xml version="1.0" encoding="utf-8"?>
<!-- Generator: Adobe Illustrator 26.0.3, SVG Export Plug-In . SVG Version: 6.00 Build 0)  -->
<svg version="1.1" id="Ebene_1" xmlns="http://www.w3.org/2000/svg" xmlns:xlink="http://www.w3.org/1999/xlink" x="0px" y="0px"
	 viewBox="0 0 100 100" style="enable-background:new 0 0 100 100;" xml:space="preserve">
<style type="text/css">
	.st0{fill:#804122;stroke:#000000;stroke-width:2;stroke-miterlimit:10;}
	.st1{fill:#603726;stroke:#000000;stroke-miterlimit:10;}
	.st2{fill:#493127;stroke:#000000;stroke-width:0.5;stroke-miterlimit:10;}
	.st3{fill:#5D4135;stroke:#000000;stroke-width:0.5;stroke-miterlimit:10;}
</style>
<g id="Ebene_2_00000093860788734264317370000010671531211922489223_">
</g>
<g id="Ebene_1_00000017510764199299988230000010460311392665681541_">
	<polygon class="st0" points="8,25.9 50,1.6 92,25.9 92,74.4 50,98.6 8,74.4 	"/>
</g>
<path class="st1" d="M40.9,68.4c1.2,5,2.8,6.8,4.3,10.4c4.1,9.9-0.5,15.8,2.7,18.1c2.9,2.1,7.9-2.1,24.9-11.5
	C88.3,76.9,92.2,74.9,92,72.1c-0.3-3.5-6.8-2.8-19.1-9.8c-10.7-6.1-15.4-11.9-20.7-10c-2,0.7-2.2,3.2-5.5,4.7
	c-2.7,1.2-3.8,0.4-5.2,1.6C39.2,60.8,40.2,65.6,40.9,68.4z"/>
<path class="st2" d="M47.8,72.9c-1.9-0.7-4-2.7-4.9-5.5c-0.2-0.5-1.1-3.3-0.2-4.5c0.8-1.1,2.5,0.1,8,2.3c4.8,1.9,6.2,2.1,6.4,3.1
	c0.4,1.7-3.5,3.3-5,3.9C50.2,73,49.2,73.4,47.8,72.9z"/>
<path class="st3" d="M47.6,70.7c-1-0.4-1.8-0.7-2.6-1.5c-0.3-0.3-1.2-1.3-1.1-1.9c0.1-1,2.9-1,4.7,0.9c0.8,0.9,1.5,2.3,1.3,2.8
	C49.7,71.4,48.8,71.1,47.6,70.7z"/>
<path class="st3" d="M53.2,68.8c-0.8,0-1.9-0.3-2-0.7c-0.1-0.3,0.6-0.6,0.8-0.7c1.6-0.7,3.8,0,3.9,0.5C56,68.4,54.5,68.9,53.2,68.8z
	"/>
<path class="st2" d="M64.9,69c-2.4-0.6-6.2-2.8-9.7-5.9c-0.6-0.5-4.1-3.7-4.3-5.2c-0.2-1.3,2.4-0.1,9.6,2c6.2,1.8,7.7,1.9,8.8,3
	c2,1.9-0.2,4.1-1,5C67.3,68.9,66.7,69.5,64.9,69z"/>
<path class="st3" d="M62.7,66.4c-1.3-0.3-2.3-0.6-3.8-1.6c-0.6-0.4-2.4-1.4-2.9-2.2c-0.8-1.2,1.8-1.4,5.2,0.7
	c1.5,0.9,3.6,2.5,3.8,3.2C65.3,67.1,64.2,66.8,62.7,66.4z"/>
<path class="st3" d="M66.1,63.8c-0.8,0-2-0.2-2.5-0.6c-0.4-0.4,0-0.8,0.1-0.9c0.8-0.9,3.5-0.4,4.1,0.3
	C68.4,63.1,67.5,63.8,66.1,63.8z"/>
<path class="st1" d="M39.5,9.9c0.1,2.1,3.3,3.6,5.2,4.4c6.7,2.9,16.9,4.3,18.6,0.7c1.1-2.3-1.6-6.6-4.4-8.6
	c-0.6-0.4-1.2-0.8-2.5-1.3c-3.6-1.5-5.4-2.3-6.7-2.3c-1.8,0.1-3,0.9-5.5,2.5C41.4,7.2,39.4,8.4,39.5,9.9z"/>
<path class="st1" d="M8.7,26.5c2.4-4,13.1-3.9,19.2,1.5c4.3,3.9,6.3,10.5,4.4,12.3c-1.4,1.3-4-1.1-11.2-0.9c-0.9,0-2.6,0.3-4.9-0.1
	c-3.2-0.5-4.8-0.8-5.4-1.3c-2-1.5-2.3-4.2-2.6-6.1C8,30.2,7.7,28.1,8.7,26.5z"/>
<path class="st2" d="M48.9,5.9C50.8,6.1,51,8,53.3,9.4c2.7,1.6,5.2,0.5,5.5,1.5c0.3,0.9-1.7,2.8-4,3.1c-2,0.2-2.5-1.1-6.2-2.3
	c-3-1-4.6-0.7-4.9-1.6c-0.3-1.1,1.3-2.6,2.4-3.3C46.8,6.4,47.7,5.8,48.9,5.9z"/>
<path class="st3" d="M46.3,9.4c1.9-1.1,2.4-2,3-1.7c0.4,0.2,0.7,0.9,0.6,1.5c-0.5,1.6-5.1,1.6-5.1,1.1C44.7,10.1,45.1,10,46.3,9.4z"
	/>
<path class="st3" d="M23.2,35.7c-1.6,0.6-3.7,0.3-3.9-0.4c-0.1-0.3,0.1-0.6,0.4-0.9c1.2-1.4,4.2-2.3,5.2-1.7
	c0.6,0.3,0.3,1.1,0.2,1.4C25,34.2,24.6,35.2,23.2,35.7z"/>
<path class="st2" d="M21,34.5c0.2-0.3,0.7-0.7,1.4-1c0.1,0,0.8-0.3,1-0.2c0.2,0.1-0.1,0.4-0.8,1.4c-0.6,0.8-0.7,1.1-0.9,1.1
	c-0.4,0.1-0.6-0.4-0.7-0.6C20.9,34.9,20.9,34.8,21,34.5z"/>
<path class="st2" d="M16.2,31.5c-0.4,2.5-0.9,6-2.5,6.1C12,37.9,9,34.5,10.2,32c0.2-0.4,1.1-1.2,2.8-2.7c2.3-2,2.6-2,2.8-2
	C16.8,27.6,16.3,30.4,16.2,31.5z"/>
<path class="st2" d="M45.8,66.3"/>
<path class="st3" d="M-35.6,5.2"/>
<path class="st1" d="M-52.1,58.8"/>
<path class="st1" d="M54.9,41.6"/>
<path class="st1" d="M-32.6,87.1"/>
<path class="st3" d="M73.9,80.3c-1,0.9-11.5,10.8-18.5,7c-2-1.1-4-3.5-3.7-5.7c0.5-2.8,4.4-3,12.4-7.3c7.3-3.9,10.3-7.2,12.6-5.9
	c1.4,0.8,1.6,2.7,1.7,3.4C78.5,72,78.9,75.8,73.9,80.3z"/>
<path class="st2" d="M58.2,83c1.3-0.4,1.3-1.5,2.6-2.7c1.3-1.2,2.9-1.4,5.1-1.7c2.2-0.3,5.5-0.3,5.7,0.4c0.1,0.6-2.1,1.5-2.5,1.7
	c-2.8,1.1-3.5,0.2-5,1.1c-2.2,1.3-2,3.8-4.3,4.7c-0.9,0.4-1.6,0.1-1.8,0.1c-2-0.5-3.2-3.2-2.6-3.8C55.8,82.4,56.8,83.4,58.2,83z"/>
<path class="st2" d="M76.2,72.4c-0.1,1-0.2,2.4-2.1,3.5c-2,1.1-6.1,2-5,0.5c0.2-0.3,1.1-1,2.9-2.6c2.4-2,2.8-2.3,3.1-2.4
	C76.3,70.8,76.2,71.9,76.2,72.4z"/>
</svg>
