<?xml version="1.0" encoding="utf-8"?>
<!-- Generator: Adobe Illustrator 26.0.3, SVG Export Plug-In . SVG Version: 6.00 Build 0)  -->
<svg version="1.1" id="Ebene_1" xmlns="http://www.w3.org/2000/svg" xmlns:xlink="http://www.w3.org/1999/xlink" x="0px" y="0px"
	 viewBox="0 0 100 100" style="enable-background:new 0 0 100 100;" xml:space="preserve">
<style type="text/css">
	.st0{fill:#804122;stroke:#000000;stroke-width:2;stroke-miterlimit:10;}
	.st1{fill:#603726;stroke:#000000;stroke-miterlimit:10;}
	.st2{fill:#493127;stroke:#000000;stroke-width:0.5;stroke-miterlimit:10;}
	.st3{fill:#5D4135;stroke:#000000;stroke-width:0.5;stroke-miterlimit:10;}
</style>
<g id="Ebene_2_00000093860788734264317370000010671531211922489223_">
</g>
<g id="Ebene_1_00000017510764199299988230000010460311392665681541_">
	<polygon class="st0" points="8,25.9 50,1.6 92,25.9 92,74.4 50,98.6 8,74.4 	"/>
</g>
<path class="st1" d="M68.3,66.2c2.1-0.7,2.3-2.2,4.9-3.1c0,0,2.3-0.8,4.8-0.5c6.7,0.8,9.4,13.3,12,12.9c2.2-0.3,2.2-9.5,2.3-26.6
	c0.2-18.6,0.3-22.8-2.2-24c-3.2-1.4-5.8,4.5-17.9,11.8c-10.5,6.3-18,7.5-18.8,13.1c-0.3,1.9,0.3,3.7,1.4,7.1c1.3,4,2,7.1,4.9,8.5
	C62.2,66.6,65.5,67.1,68.3,66.2z"/>
<path class="st2" d="M87.9,42.2c-1.7,1.9-4.8,3.2-8,2.5c-0.5-0.1-3.7-0.9-4.3-2.9c-0.6-1.8,1.5-3.1,6.8-8.6c4.5-4.7,5.5-6.4,6.5-6.1
	c1.8,0.6,1.1,6.6,0.8,9.1C89.3,39.2,89.1,40.8,87.9,42.2z"/>
<path class="st3" d="M85.6,40.9c-0.9,1-1.7,1.8-2.9,2.2c-0.5,0.2-2,0.6-2.5,0.1c-0.8-0.9,0.7-4.4,3.6-5.3c1.3-0.4,3-0.4,3.4,0.3
	C87.5,38.8,86.7,39.7,85.6,40.9z"/>
<path class="st3" d="M87.1,32.6c-0.5,0.9-1.4,2.2-1.8,2c-0.4-0.1-0.2-1.2-0.2-1.5c0.2-2.5,2.1-4.8,2.7-4.6
	C88.3,28.7,87.9,30.9,87.1,32.6z"/>
<path class="st2" d="M54.3,42.8c2.4,0.1,6.7,1.3,10.8,3.5c0.7,0.4,4.8,2.7,5.4,4.1c0.5,1.3-2.3,0.7-9.8,0.3
	c-6.5-0.3-7.9-0.1-9.3-0.9c-2.4-1.4-0.8-4-0.1-5.1C52.1,43.4,52.5,42.7,54.3,42.8z"/>
<path class="st3" d="M57.1,44.8c1.3,0,2.4,0.1,4.1,0.6c0.7,0.2,2.6,0.9,3.3,1.4c1,0.9-1.4,1.8-5.3,0.6c-1.7-0.6-4-1.6-4.5-2.2
	C54.4,44.7,55.6,44.8,57.1,44.8z"/>
<path class="st3" d="M54.3,48.1c0.7-0.2,2-0.3,2.5,0c0.5,0.3,0.2,0.8,0.1,0.9c-0.6,1.1-3.3,1.2-4.1,0.7
	C52.3,49.4,53.1,48.5,54.3,48.1z"/>
<path class="st1" d="M39.5,9.9c0.1,2.1,3.3,3.6,5.2,4.4c6.7,2.9,16.9,4.3,18.6,0.7c1.1-2.3-1.6-6.6-4.4-8.6
	c-0.6-0.4-1.2-0.8-2.5-1.3c-3.6-1.5-5.4-2.3-6.7-2.3c-1.8,0.1-3,0.9-5.5,2.5C41.4,7.2,39.4,8.4,39.5,9.9z"/>
<path class="st1" d="M8,64.6c1.9-3.2,8.7,2.8,19.2,1.5c2.4-0.3,3.6-0.8,4.1-0.1c1.4,1.9-4.3,10.6-10.9,11.5
	c-1.6,0.2-3.8,0.1-4.9-0.1c-3.2-0.5-4.8-0.8-5.4-1.3c-2-1.5-2.3-4.2-2.6-6.1C7.3,68.4,7,66.2,8,64.6z"/>
<path class="st2" d="M48.9,5.9C50.8,6.1,51,8,53.3,9.4c2.7,1.6,5.2,0.5,5.5,1.5c0.3,0.9-1.7,2.8-4,3.1c-2,0.2-2.5-1.1-6.2-2.3
	c-3-1-4.6-0.7-4.9-1.6c-0.3-1.1,1.3-2.6,2.4-3.3C46.8,6.4,47.7,5.8,48.9,5.9z"/>
<path class="st3" d="M46.3,9.4c1.9-1.1,2.4-2,3-1.7c0.4,0.2,0.7,0.9,0.6,1.5c-0.5,1.6-5.1,1.6-5.1,1.1C44.7,10.1,45.1,10,46.3,9.4z"
	/>
<path class="st3" d="M17.6,74c-2.6,1.4-6.4,0.4-6.9-1.4c-0.2-0.8,0.2-1.5,0.5-2.1c1.9-3.4,7-5.4,8.8-3.8c1,0.9,0.6,2.9,0.5,3.5
	C20.5,70.3,20,72.8,17.6,74z"/>
<path class="st2" d="M12.3,72c0.6-0.1,1.8-0.1,3.1,0.1c0.2,0,1.5,0.2,1.8,0.5c0.3,0.2-0.5,0.3-2.5,0.6c-1.7,0.3-2,0.4-2.5,0.4
	c-0.7-0.1-0.6-0.7-0.5-1C11.8,72.2,11.8,72.1,12.3,72z"/>
<path class="st2" d="M18.8,68.2c-0.1,1.3-0.3,3-0.8,3.1c-0.6,0.1-1.7-1.7-1.3-2.9c0.1-0.2,0.4-0.6,1-1.3c0.8-1,0.9-1,1-1
	C19,66.2,18.9,67.7,18.8,68.2z"/>
<path class="st2" d="M45.8,66.3"/>
<path class="st3" d="M-35.6,5.2"/>
<path class="st1" d="M-52.1,58.8"/>
<path class="st1" d="M54.9,41.6"/>
<path class="st1" d="M-32.6,87.1"/>
<path class="st3" d="M81.2,52.1c0.8,0.4,9.7,4.5,8.9,9.7c-0.2,1.5-1.3,3.3-2.8,3.7c-1.9,0.4-2.9-2-7.6-5.9c-4.2-3.5-7.1-4.6-6.8-6.4
	c0.2-1.1,1.4-1.7,1.8-1.9C74.7,51.3,77.1,50.1,81.2,52.1z"/>
<path class="st2" d="M86.6,61.1c-0.6-0.7-1.3-0.4-2.3-0.9c-1.1-0.5-1.6-1.5-2.3-2.8c-0.7-1.3-1.5-3.3-1.1-3.6
	c0.4-0.2,1.5,0.9,1.7,1.1c1.4,1.4,1,2.1,1.9,2.8c1.3,1.1,2.9,0.3,4.1,1.5c0.4,0.5,0.5,1,0.5,1.1c0.2,1.4-1.3,2.8-1.8,2.6
	C86.8,62.7,87.2,61.8,86.6,61.1z"/>
<path class="st2" d="M75.5,52.7c0.7-0.2,1.6-0.5,2.8,0.4c1.2,0.9,2.8,3.3,1.5,3c-0.2-0.1-0.9-0.4-2.4-1.2c-1.9-1-2.2-1.2-2.3-1.3
	C74.4,53,75.2,52.8,75.5,52.7z"/>
</svg>
