<?xml version="1.0" encoding="utf-8"?>
<!-- Generator: Adobe Illustrator 26.0.3, SVG Export Plug-In . SVG Version: 6.00 Build 0)  -->
<svg version="1.1" id="Ebene_2_00000074422167821747138070000012155992511794515371_"
	 xmlns="http://www.w3.org/2000/svg" xmlns:xlink="http://www.w3.org/1999/xlink" x="0px" y="0px" viewBox="0 0 100 100"
	 style="enable-background:new 0 0 100 100;" xml:space="preserve">
<style type="text/css">
	.st0{fill:#603726;stroke:#000000;stroke-width:2;stroke-miterlimit:10;}
	.st1{fill:#804122;stroke:#000000;stroke-miterlimit:10;}
	.st2{fill:#493127;stroke:#000000;stroke-width:0.5;stroke-miterlimit:10;}
	.st3{fill:#5D4135;stroke:#000000;stroke-width:0.5;stroke-miterlimit:10;}
	.st4{fill:#5D4135;stroke:#000000;stroke-width:0.25;stroke-miterlimit:10;}
	.st5{fill:#493127;stroke:#000000;stroke-width:0.25;stroke-miterlimit:10;}
</style>
<polygon class="st0" points="92,25.8 50,1.5 8,25.8 8,74.2 50,98.5 92,74.2 "/>
<path class="st1" d="M92,54.7c-0.1-11.9-0.3-15.5-2.7-16.8c-1.5-0.9-2.3,0.2-8.1,1c-5.8,0.8-10.5,1.6-14.1-1c-2.2-1.6-3.4-3.8-4-4.9
	c-1.5-2.7-0.9-3.5-2.5-7.1c-1.4-3.2-2.1-3.1-3.3-6.2c-0.9-2.3-1.5-4-1.3-6.1c0.3-3.5,2.5-4.3,2.1-6.2c-0.5-2.5-5.1-4.3-9-4.3
	C44,3,42.8,5.8,33.4,11.1c-7.3,4.1-14.5,6.9-14.6,9.9c0,0.3,0,1.3,0.6,1.8c0.8,0.6,2.3-0.2,3-0.4c2.8-1.2,6,0,12,2.4
	c3.3,1.3,5.4,2.1,7.8,4c3.5,2.7,5.5,5.8,6.5,7.9c2,3.9,1.1,4.9,2.5,7.8c0.7,1.4,2.2,3.9,14.2,10.4c5.4,2.9,7.1,3.5,12.9,6.5
	c4.6,2.4,11.4,5.4,13.7,6.7C92,64.4,92,59.9,92,54.7z"/>
<path class="st2" d="M75.5,81.7c0.4-0.1,2.8-1,5.6-2.8c2.6-1.7,6.4-4.3,6.4-7.8c0-2.6-2.1-4.4-2.8-5c-2.2-1.9-4.5-2.2-7.6-2.7
	c-12.1-1.9-13.7-3.5-15.7-1.8c-2.3,2-2.4,6-1.9,8.3c0.8,4.1,3.6,4.8,3.3,7.7c-0.2,2.2-1.9,2-4.6,6.8c-1.7,3.1-1.9,4.9-1.8,6.4
	c0.1,1.2,0.5,2.1,0.7,2.7C65.8,85.9,71.7,83,75.5,81.7z"/>
<path class="st2" d="M52.7,82.9c3.7-4.1,5.5-6.2,5.5-8.7c-0.1-5.2-7.1-8.4-7.4-8.6c-7-3.2-15,0.4-19.4,4.3c-4,3.6-6,8.4-5.2,9.2
	c1,0.9,5.7-4.8,10.2-3.4c1.6,0.5,2.5,1.7,4.3,4c3.7,4.8,3.5,7.9,5.5,8.3C47.8,88.3,49.5,86.5,52.7,82.9z"/>
<path class="st2" d="M17.9,73.1c2.4-1.4,3.6-2.1,4-2.5c4-3.6,4.1-6.6,7.3-8.2c2.4-1.2,2.8,0.2,7.4-1c2.6-0.7,6.3-1.6,7-4
	c0.5-1.7-1.1-2.3-1.6-5.3c-0.8-4.3,1.7-6.2,0.4-8c-1.4-2.1-6.3-2-9.6-0.2c-3.2,1.8-2.3,3.7-5.9,6.4C23,53,20.5,52.2,19,54.8
	c-1.1,2,0.4,2.6-0.6,5.6c-1.2,3.8-4.2,5.3-4.1,8.4c0,0.8,0.3,1.7,0.3,1.9c0.3,1,0.7,2.6,1.7,2.8C16.9,73.7,17.3,73.4,17.9,73.1z"/>
<path class="st3" d="M52.4,60.1c2.8-1.3,4.4,0.7,6.7-0.7c1.4-0.9,2.4-2.7,2.1-4.2c-0.4-1.6-2.3-1.5-5.3-3.6c-4.1-2.8-5-5.9-6.5-5.5
	c-0.9,0.2-1.2,1.4-1.8,3.3c-0.7,2.3-0.3,2.8-0.7,5.5c-0.6,3.4-1.7,4.2-1,5.8c0.4,1.1,1.5,2.2,2.7,2.2C49.9,63,50.2,61.1,52.4,60.1z"
	/>
<path class="st3" d="M25.7,46.6c7.5-4.6,8.7-5.8,11.1-5.5c2.7,0.3,3.4,2.2,6.2,1.9c2.1-0.2,4.8-1.4,5.3-3.4c0.5-1.7-1.2-3.3-4-7
	c-2.1-2.8-5.9-7.8-9.9-7.3c-1.5,0.2-1.4,1-3.1,1.5c-4.8,1.4-7.8-4.1-12.9-3.1c-1.8,0.4-3.9,1.6-4.7,3.4c-1.2,2.7,1.4,4.2,1.6,9
	c0.2,4.4-1.8,5.7-1,10.5c0.3,1.9,0.5,3.4,1.6,4C17.3,51.5,19.2,50.6,25.7,46.6z"/>
<path class="st2" d="M77.4,31.3c1.3,0.5,0.4,3.2,2.1,4.6c1.9,1.6,6.5,0.9,8.6-1.9c1.7-2.3,1.2-5.1,1-5.9c-0.9-4-5.1-7-8.6-6.8
	c-2.7,0.2-3.9,2.2-5.8,1.5c-1.5-0.6-1.5-2.1-2.8-4.2c-2.5-4-7.8-6.8-9.9-5.5c-1.7,1.1-1.2,4.7-1.2,5.2c0.5,3.5,2.6,3.7,4,8
	c1,2.9,0.4,4,1.8,5.8c0.4,0.5,1.9,2.4,4,2.5C73.8,34.8,75.7,30.7,77.4,31.3z"/>
<path class="st4" d="M20.4,67.4c0.1-0.3,0.1-0.5,0.4-0.9c0.5-0.8,1-0.8,1.1-1.2c0.1-0.4-0.4-0.5-1-1.4c-0.5-0.9-0.6-1.5-0.8-1.5
	c-0.3,0-0.5,0.7-0.5,1c-0.2,0.9,0.1,1.3-0.2,2.2c-0.2,0.6-0.4,0.8-0.4,0.9c-0.3,0.3-0.6,0.3-0.7,0.5c-0.2,0.2-0.3,0.7,0.2,1.8
	C19.6,68.5,20.1,67.9,20.4,67.4z"/>
<path class="st4" d="M29.9,53c0.5,0.3-0.2,1.5,0.2,1.8c0.6,0.4,3.6-1.8,3.6-4.1c0-0.4-0.1-1-0.4-1.1c-0.3-0.1-0.5,0.4-1.3,1
	c-0.5,0.3-0.9,0.7-1.3,0.5c-0.4-0.1-0.3-0.6-0.7-0.8c-0.4-0.2-0.8,0-1.1,0.2c-0.3,0.1-1,0.5-1.9,2.2c-0.5,0.8-1,1.7-0.7,1.9
	C26.6,55,29.1,52.5,29.9,53z"/>
<path class="st4" d="M36.9,58.5c1,0.3,2-0.3,2.7-0.8c0.9-0.6,1.6-1,1.8-1.8c0.3-1.1-0.4-2.5-1.5-2.9c-0.8-0.3-1.8-0.2-1.9,0.2
	c-0.2,0.6,1.7,1.3,1.6,2c-0.1,0.4-0.7,0.3-1.8,0.8c-0.6,0.3-1.9,0.9-1.8,1.6C35.9,58,36.5,58.4,36.9,58.5z"/>
<path class="st4" d="M36.8,48.6c0.1-0.7,0.9-0.7,1.6-1.7c0.6-1,0.3-1.9,0.7-2c0.6-0.2,2.1,1.5,1.7,2.4c-0.2,0.5-0.9,0.3-1.7,1.1
	c-0.8,0.8-0.7,1.5-1.2,1.6C37.4,50,36.7,49.3,36.8,48.6z"/>
<path class="st5" d="M50.7,57.3c0.9,0.8,2.7-0.3,2.8,0c0.2,0.4-3.2,2.8-4,2.1c-0.3-0.3,0-0.8-0.4-1.6c-0.4-0.8-1.1-0.9-1-1.3
	c0-0.6,1.2-1.2,1.8-0.9C50.5,55.8,50.1,56.7,50.7,57.3z"/>
<path class="st4" d="M32.4,75.2c0.3-0.3,0.6-1,0.4-1.3c-0.2-0.3-0.6-0.1-1.5-0.4c-0.9-0.3-1.1-0.7-1.4-0.6c-0.4,0.2-0.2,0.7-0.6,1.6
	c-0.4,0.9-1,1-1,1.3C28.5,76.3,31.3,76.6,32.4,75.2z"/>
<path class="st4" d="M38.3,71.8c1.9,1.3,2.3,1.2,2.5,1.2c0.4-0.2,0.8-0.6,0.8-1c0-0.9-1.4-1.5-1.6-1.6c-1.4-0.6-3.1-0.4-3.3,0.1
	C36.7,70.6,37.2,71,38.3,71.8z"/>
<path class="st4" d="M45,76.2c0.1-0.8-0.8-1.3-1.5-1.5c-0.7-0.2-1.4,0.1-1.5,0.4c0,0.2,0.5,0.3,0.8,0.8c0.4,0.7,0,1.3,0.3,1.5
	C43.6,77.7,45,77.2,45,76.2z"/>
<path class="st4" d="M47.8,83.5c0.4,0.3,1.3-0.2,1.8-0.9c0.6-0.8,0.7-2,0.2-2.4c-0.4-0.3-0.8,0.2-1.7,0c-1.2-0.2-1.7-1.1-1.9-0.9
	c-0.2,0.2,0,0.8,0.3,1.3c0.3,0.5,0.6,0.5,0.9,1C47.9,82.3,47.4,83.2,47.8,83.5z"/>
<path class="st4" d="M52.5,77.3c0.4-0.1,0.4-0.6,0.8-1.3c0.7-1.1,1.9-1.2,1.8-1.5c0-0.3-1-0.3-1.7-0.2c-0.5,0.1-1.4,0.2-1.8,1
	c-0.2,0.4-0.4,1.1,0,1.6C51.8,77.2,52.2,77.4,52.5,77.3z"/>
<path class="st5" d="M51.9,51.1c1-0.5,2.2,0.3,2.4,0.1c0.1-0.1-0.3-0.5-1.6-1.5c-2-1.5-2.2-1.6-2.4-1.5c-0.2,0.2,0.2,0.8,0.4,2.2
	c0.1,1.3-0.2,2.3,0,2.4C50.8,52.9,50.9,51.6,51.9,51.1z"/>
<path class="st5" d="M18.4,43.9c0-0.7,0.5-1,0.6-1.6c0.3-1.2-0.8-2.4-0.7-2.5c0.1,0,0.7,1.5,1.6,1.6c0.5,0,0.8-0.3,1.2-0.1
	c0.5,0.2,0.6,0.8,0.6,1c0.3,1.4-0.9,3.2-2,3.2c-0.4,0-0.8-0.3-1-0.6C18.7,44.7,18.5,44.4,18.4,43.9z"/>
<path class="st5" d="M28.7,39.7c1.2-0.2,1.9,0.6,2.3,0.2c0.3-0.3,0.3-1.2-0.1-1.5c-0.5-0.3-1.1,0.4-2,0.2c-0.4-0.1-0.4-0.2-1.4-1.1
	c-1-0.8-1.5-1.3-1.6-1.2c-0.2,0.1,0.6,0.9,0.7,2.2c0.2,1.2-0.2,1.9,0.1,2.1C27,40.8,27.5,39.9,28.7,39.7z"/>
<path class="st5" d="M41,37.9c1.2,0,1.2-0.1,1.8,0c1.5,0.2,2.4,1.1,2.6,1c0.1-0.1,0-0.3-0.7-1.2c-0.6-0.9-0.9-1.3-1-1.5
	c-0.2-0.2-1.5-1.6-2.3-1.3c-0.8,0.3-0.7,2-1.4,2.1c-0.1,0-0.1,0-0.2,0c-0.6-0.2-0.7-0.6-1-0.6c-0.4,0-0.9,0.6-0.7,1
	C38.2,37.9,39.6,37.9,41,37.9z"/>
<path class="st5" d="M21.4,33.2c-0.5-2.4-0.4-2.4-0.6-2.8c-0.8-1.7-2.5-2.3-2.3-2.5c0.1-0.1,0.3,0,1.4,0.1c1.8,0.3,1.6,0.2,2.1,0.3
	c1,0.3,2,0.5,2.5,1.3c0.6,0.9,0,1.7,0.6,2.5c0.6,0.8,1.7,0.6,1.8,1c0,0.3-0.6,0.8-1.2,0.8c-1.6,0.1-3-2.6-3.3-2.5
	c-0.2,0.1,0.7,1.4,0.4,2.9c-0.1,0.5-0.3,1.2-0.5,1.2C22,35.6,21.8,35.2,21.4,33.2z"/>
<path class="st5" d="M34.9,30.2c0,0.2-0.7,0.2-1.1,0.9c-0.4,0.6-0.1,1-0.5,1.3c-0.3,0.2-0.8,0.2-1.1,0.1c-0.3-0.2-0.4-0.4-0.9-1.3
	c-0.6-1.2-0.9-1.4-0.7-1.6c0.2-0.2,0.8,0.2,1.9,0.4C33.8,30.3,34.8,30,34.9,30.2z"/>
<path class="st4" d="M49.5,70.3c0.1-0.5,0.7-0.5,1.8-1.3c1-0.7,1.1-1.1,1.6-1c0.9,0,1.4,1.4,1.5,1.6c0.5,1.3,0.3,2.9-0.2,3
	c-0.5,0.1-0.8-1.6-1.8-1.6c-0.8,0-1.2,1-1.9,0.9C49.9,71.7,49.4,70.9,49.5,70.3z"/>
<path class="st4" d="M61.5,86.8c1.4-0.4,1.9,0.1,2.7-0.4c0.9-0.5,1.4-1.6,1.2-1.8c-0.1-0.2-0.5,0.1-1.7,0.4c-1.3,0.4-2,0.6-2.7,0.3
	c-0.9-0.3-1.2-1.2-1.4-1c-0.2,0.1,0.1,0.7-0.1,1.7c-0.2,1.1-0.7,1.6-0.5,1.8C59.3,87.9,60.1,87.2,61.5,86.8z"/>
<path class="st4" d="M67.5,81.2c1.7-0.4,3.1-1.8,2.9-2.4c-0.2-0.5-1.4,0.2-2.8-0.7c-0.7-0.4-0.9-0.8-1.2-0.7c-0.3,0.2,0,0.9-0.3,2.2
	c-0.2,0.8-0.5,1.1-0.3,1.4C66.1,81.5,67.3,81.2,67.5,81.2z"/>
<path class="st4" d="M70.7,72.6c-0.3-0.4-1.2-0.4-1.6,0.2c-0.3,0.6,0.2,1.4,0.7,1.4C70.4,74.2,71.1,73,70.7,72.6z"/>
<path class="st4" d="M66.9,70.4c0.6-0.2,0.3-1.3,1-2.2c1.1-1.4,3.6-0.8,3.7-1.3c0-0.3-0.8-0.7-1.7-0.7c-1.5-0.1-1.9,0.9-3,0.8
	c-1.8-0.2-2.7-3.3-3-3.2c-0.2,0.1,0.2,1,0.6,3c0.3,1.5,0.3,2.1,0.9,2.7C65.5,69.8,66.3,70.7,66.9,70.4z"/>
<path class="st4" d="M78,72.7c0.2,0.3-0.3,0.8-1.3,2c-1.4,1.8-1.7,2.8-2.1,2.7c-0.3-0.1-0.2-0.6-0.6-2.1c-0.3-1.2-0.5-1.4-0.7-2.3
	c0-0.2-0.3-1.9,0.1-2.1c0.3-0.1,0.6,1,1.7,1.5C76.5,73.1,77.8,72.2,78,72.7z"/>
<path class="st4" d="M81.5,71.2c0.2-0.2-0.2-0.8-0.1-1.6c0.2-1.3,1.7-2.1,1.6-2.1c0-0.1-1.8,1.7-2.8,1.3c-0.7-0.3-0.6-1.6-1-1.6
	c-0.3,0-0.6,0.5-0.7,1c-0.1,0.8,0.6,1.5,1.3,2.2C80,70.3,81.2,71.4,81.5,71.2z"/>
<path class="st4" d="M83.2,74.6c0.9-0.2,2.5-1,2.7-2.4c0.1-0.9-0.4-1.6-0.7-2.1c-0.1-0.2-0.8-1.1-1.2-1c-0.4,0.1,0,1.1-0.3,2.2
	c-0.5,1.9-2.3,2.7-2.1,3.2C81.8,74.9,83.1,74.6,83.2,74.6z"/>
<path class="st4" d="M71.6,28.7c-0.2-0.5-1.1,0-2.1-0.7c-1.3-1-0.9-2.9-1.6-3c-0.4,0-0.9,0.6-0.9,1.2c0.1,0.9,1.5,1,1.6,1.8
	c0,0.5-0.4,0.6-1,2c-0.1,0.3-0.2,0.7-0.2,1c0.1,0.3,0.3,0.6,0.5,0.7C69.1,32.4,72.1,29.7,71.6,28.7z"/>
<path class="st4" d="M71.8,22.5c0.2-1-0.3-2.2-1.2-2.3c-0.5-0.1-1.2,0.3-1.3,0.7c-0.1,0.6,0.8,0.8,1,1.8c0.1,0.7-0.3,1.1-0.2,1.3
	C70.4,24.2,71.5,23.5,71.8,22.5z"/>
<path class="st4" d="M68.1,18.4c0.4-0.9-0.7-2-1.1-2.4c-0.2-0.2-1.7-1.7-2.7-1.2c-0.4,0.2-0.8,0.8-0.7,1.3s0.6,0.4,0.9,0.9
	c0.5,0.8-0.2,1.5,0.2,2C65.3,19.6,67.6,19.5,68.1,18.4z"/>
<path class="st4" d="M82,26.2c-0.2-0.3-1.2,0.3-1.6-0.2c-0.3-0.4,0.4-1,0.1-1.6c-0.3-0.7-1.9-0.9-2.2-0.4c-0.2,0.3,0.1,0.7,0.6,2
	c0.6,1.8,0.5,2.4,0.9,2.6C80.6,28.9,82.3,26.6,82,26.2z"/>
<path class="st4" d="M77.5,29.2c0.1-0.4-0.8-1.2-1.1-1c-0.2,0.1-0.2,1.1,0.3,1.3C77.1,29.6,77.5,29.4,77.5,29.2z"/>
<path class="st4" d="M84,36c0.8,0.3,1.8-0.2,1.8-0.7c0-0.5-0.8-0.5-1-1.3c-0.3-0.9,0.5-1.5,0.2-2.1c-0.3-0.6-1.4-0.8-2-0.4
	c-0.5,0.4-0.4,1.1-0.3,1.9C82.8,34.2,83,35.7,84,36z"/>
</svg>
