<?xml version="1.0" encoding="utf-8"?>
<!-- Generator: Adobe Illustrator 26.0.3, SVG Export Plug-In . SVG Version: 6.00 Build 0)  -->
<svg version="1.1" id="Ebene_2_00000126308112139821010380000011903406711838980787_"
	 xmlns="http://www.w3.org/2000/svg" xmlns:xlink="http://www.w3.org/1999/xlink" x="0px" y="0px" viewBox="0 0 100 100"
	 style="enable-background:new 0 0 100 100;" xml:space="preserve">
<style type="text/css">
	.st0{fill:#603726;stroke:#000000;stroke-width:2;stroke-miterlimit:10;}
	.st1{fill:#804122;stroke:#000000;stroke-miterlimit:10;}
	.st2{fill:#493127;stroke:#000000;stroke-width:0.5;stroke-miterlimit:10;}
	.st3{fill:#5D4135;stroke:#000000;stroke-width:0.5;stroke-miterlimit:10;}
	.st4{fill:#5D4135;stroke:#000000;stroke-width:0.25;stroke-miterlimit:10;}
	.st5{fill:#493127;stroke:#000000;stroke-width:0.25;stroke-miterlimit:10;}
	.st6{fill:none;stroke:#000000;stroke-width:0.25;stroke-miterlimit:10;}
</style>
<polygon class="st0" points="7.6,74.2 49.6,98.5 91.6,74.2 91.6,25.7 49.6,1.5 7.6,25.7 "/>
<path class="st1" d="M91.5,55c1.9-5.9-2.1-9.3,0-20.9c0.4-2,0.7-3,0.1-3.6c-4-4.1-35.7,21.1-39.4,17c-0.4-0.4-0.7-1.4-1.3-3.2
	c-2.3-7.4,0.3-7.7-2.3-13.9c-3-7-7.3-9-7.4-15.1c-0.1-3.9,2-5.8,1-6.9c-0.8-0.8-2.8-0.8-15.4,6.1c-12.6,6.9-13.8,8.7-13.5,9.5
	c0.5,1.6,6.2-0.7,9.9,2.9c2.3,2.1,1.2,3.8,3.8,6.6c3,3.2,5.5,2.2,7.7,5.1c1.5,2.2,2.3,5.7,0.9,7.8c-2.2,3.2-9.6,3.3-13.7,0.1
	c-1.6-1.3-2.4-2.9-5-6c-1.2-1.5-1.8-3.1-3.6-4.2c-0.8-0.6-2.5-1.6-3.8-1.2C7.2,36,7.6,41.4,7.6,54.4c0,11.4-0.3,13.8,1.9,15.4
	c2.9,2.2,8.8,1.4,12.7-0.7c2.7-1.4,4.1-3.4,6-2.8c1.4,0.4,2.7,2.1,2.9,3.7c0.3,5.2-11.2,8.3-10.5,11.7c0.2,1.1,1.4,0.9,8.4,4.8
	c1.3,0.7,2.2,1.3,4.2,2.4c7,4.1,8,5.1,8.8,5.2c0,0,0.2,0,0.3,0c2.6,0,6.5-14.8,14.1-20.9c6.2-5,9.9-0.3,21.2-5.9
	C83,64.6,89.5,61.4,91.5,55z"/>
<path class="st2" d="M32.4,44.2c0.9-0.2,1.6-1,1.8-1.8c0.7-2.3-2.6-5.3-4.3-4.9c-0.4,0.1-0.4,0.3-1.8,1.7c-1.1,1.1-1.7,1.6-2.2,1.9
	c-1.4,0.6-2.4,0-2.7,0.4c-0.6,1,2.8,4.9,4.3,4.3c0.9-0.3,0.6-1.9,1.7-2.3C30.2,43.2,31,44.5,32.4,44.2z"/>
<path class="st3" d="M26.9,36.7c-0.4-1.1-1.2-1.4-2.4-2.4c-2.7-2.2-2.2-3.4-4.7-5.3c-0.8-0.6-3.3-2.6-4.7-1.8
	c-0.7,0.4-0.8,1.8-0.9,4.4c-0.1,2.4-0.1,3.7,0.4,4.8c0.1,0.3,1.1,2,3,2.7c2.3,0.8,3.4-0.7,6,0.2c1.2,0.4,1.7,1,2.3,0.8
	C27,39.6,27.4,37.9,26.9,36.7z"/>
<g>
	<path class="st2" d="M89.4,73c0.1-0.2,0.2-0.6,0.2-1c0-0.4,0-0.8-0.1-1.2c-0.3-1.1-0.7-2-0.9-2.3c-0.7-1.3-1-2-1.6-2.1
		c-1.1-0.3-1.6,1-3.2,0.9c-1.5,0-2-1.3-2.9-1c-0.8,0.2-1.3,1.3-1.3,2.1c0,1.2,1.4,1.1,2.5,2.7c1.1,1.6,0.3,2.7,1.4,3.4
		c1.2,0.9,3.3,0.1,3.7,0C88.3,74.1,89,73.4,89.4,73z"/>
	<path class="st4" d="M87.7,72.9c0.1,0,0.1-0.4,0.2-1c0.1-0.6,0.2-0.6,0.2-0.8c-0.2-0.5-1.6-0.8-2-0.3c-0.2,0.2-0.2,0.7,0,0.9
		c0.3,0.2,0.8-0.2,1.2,0C87.8,72,87.6,72.9,87.7,72.9z"/>
	<path class="st4" d="M84.7,73.8c0.2,0,0.3-0.3,0.3-0.5c0-0.2-0.2-0.3-0.4-0.5c-0.8-0.7-1-1.1-1.1-1c-0.1,0.1,0.1,0.8,0.4,1.2
		C84.1,73.3,84.4,73.8,84.7,73.8z"/>
	<path class="st4" d="M86.6,69.6c-0.2,0.1-0.5,0-0.6-0.1c-0.2-0.2,0.3-0.6,0.1-0.9c-0.2-0.3-1.1,0.1-1.4-0.3c-0.1-0.2,0-0.5,0.2-0.7
		c0.4-0.3,1.2-0.2,1.6,0.2C87.1,68.4,87,69.4,86.6,69.6z"/>
	<path class="st4" d="M84.3,70.3c0.1-0.2,0-0.6-0.3-0.6c-0.3-0.1-0.7,0.4-0.6,0.6C83.5,70.5,84.1,70.6,84.3,70.3z"/>
	<path class="st4" d="M82.8,69.9c0.2-0.2,0.2-0.7-0.1-0.9c-0.4-0.3-1,0.2-1.2-0.1c-0.3-0.3,0.2-0.9,0-1.1c-0.2-0.1-0.6,0-0.8,0.2
		c-0.4,0.4,0,1.4,0.6,1.8C81.8,70,82.5,70.2,82.8,69.9z"/>
</g>
<g>
	<path class="st2" d="M59.5,73.5c-1.4,1.3,0,2.4-0.5,9.2c-0.2,3.1-0.7,5,0.2,5.5c0.8,0.4,1.7-0.9,5.1-1.8c2.1-0.6,2.1-0.2,3.1-0.7
		c2.7-1.3,1.9-3.8,4.3-5.1c2.3-1.3,4.1,0.4,6.2-0.9c2.3-1.4,3.1-5.2,1.5-6.7c-1.2-1.1-3-0.2-7.9,0.1C63.7,73.6,61.3,71.8,59.5,73.5z
		"/>
	<path class="st4" d="M61,75.5c0.3-0.1,1,0.7,1.2,1.5c0.3,1.1-0.2,2.4-0.6,2.4c-0.4,0-0.7-1.4-0.8-2C60.8,77.1,60.6,75.6,61,75.5z"
		/>
	<path class="st4" d="M65.7,78.1c0.3-0.3,1.7,0.2,1.7,0.8c0,0.4-0.5,0.7-0.9,0.7C65.7,79.5,65.4,78.3,65.7,78.1z"/>
	<path class="st4" d="M63.7,79.9c0.4,0.1,0.4,0.6,1.2,1.2c0.6,0.5,1.1,0.5,1.1,0.7c0,0.3-0.9,0.6-1.6,0.6c-0.2,0-1.8,0.1-2.1-0.7
		C61.9,81,63,79.8,63.7,79.9z"/>
	<path class="st4" d="M65.8,75.9c-0.7-0.2-1.3-0.8-1.2-1c0.1-0.2,0.9-0.2,1.5,0c0.7,0.2,1.4,0.7,1.3,1
		C67.4,76.1,66.5,76.2,65.8,75.9z"/>
	<path class="st4" d="M70,74.8c-0.1,0.3,1.9,0.6,1.9,1.5c0,0.6-0.9,0.8-0.8,1.2c0.1,0.4,1.4,0.8,2,0.4c0.7-0.5,0.5-1.9-0.4-2.7
		C71.8,74.3,70.1,74.5,70,74.8z"/>
	<path class="st4" d="M76,75.1c-0.2,0.3,0.2,1.3,1.1,1.4c0.7,0.1,1.4-0.5,1.3-0.8C78.3,75.2,76.3,74.7,76,75.1z"/>
</g>
<g>
	<path class="st3" d="M68.7,37.1c1.1-0.3,2.4-1.3,2.5-2.2c0-0.2,0.1-0.9-1.8-1.9c-3.4-1.9-5.7-0.4-7.1-2.2c-1-1.3-0.5-2.7-1.5-3
		c-0.9-0.3-2.3,0.7-3,1.8c-0.4,0.7-0.4,1.1-0.8,4.4c-0.3,2.3-0.4,2.7-0.7,3c-1,1.2-2.7,0.6-3.1,1.4c-0.3,0.7,0.3,1.8,1.2,2.4
		c1.7,1.2,4.7,0.4,6.8-1.3c1.6-1.4,1.5-2.4,2.8-2.8C65.8,36,66.7,37.8,68.7,37.1z"/>
	<path class="st5" d="M65.2,33.8c-0.3,0-0.7,0.3-0.8,0.6c-0.1,0.4,0.8,1,1.6,0.9c0.9-0.2,1.5-1.2,1.5-1.3c-0.1-0.1-0.8,0.6-1.5,0.4
		C65.6,34.1,65.6,33.7,65.2,33.8z"/>
	<path class="st5" d="M61.2,34.6c0.1,0,1.1-0.5,1.3-1.3c0.3-1.1-1.2-2.3-2.3-1.9c-0.4,0.1-1,0.6-1,0.9c0,0.7,2,0.6,2,1.2
		c0,0.5-1.4,0.9-1.4,1.1C59.8,34.9,60.5,34.9,61.2,34.6z"/>
	<path class="st5" d="M59.8,36.6c0-0.9-1.2-1.4-1.8-1c-0.4,0.3-0.5,0.9-0.4,1.4c0.2,0.7,1,1.1,1.6,0.7C59.6,37.5,59.8,37,59.8,36.6z
		"/>
	<path class="st5" d="M57,38.8c-0.1-0.3-0.5-0.4-0.7-0.2c-0.4,0.2-0.4,1.1-0.2,1.2C56.3,39.9,57.1,39.2,57,38.8z"/>
</g>
<g>
	<path class="st2" d="M72.9,25.2c1-1,1.8-2.8,1.2-3.7c-0.6-0.8-1.9,0-3.1-0.9c-1.7-1.2-0.4-3.6-2-5.2c-1.4-1.5-4.5-1.6-5.7-0.3
		c-1,1.1,0,2.3-0.9,5.1c-0.8,2.5-2.1,2.8-1.9,3.9C61.2,26.6,69.6,28.6,72.9,25.2z"/>
	<path class="st4" d="M70,21.7c-1-0.6-2.8,0.3-2.8,0.9c0,0.5,0.9,1.1,1.8,1.1c0.7,0,1.6-0.3,1.7-0.9C70.6,22.4,70.3,22,70,21.7z"/>
	<path class="st4" d="M64.8,20.9c-0.3-0.3-0.8-0.2-1,0c-0.3,0.4,0,1.2,0.4,1.3c0.3,0.1,0.6-0.2,0.7-0.5C65,21.5,65,21.1,64.8,20.9z"
		/>
	<path class="st4" d="M68.1,19.8c0.2-0.2,0.1-1.1-0.5-1.3c-0.6-0.2-1.1,0.3-1.1,0.6C66.5,19.6,67.8,20.2,68.1,19.8z"/>
</g>
<g>
	<path class="st3" d="M56.1,89.7c0.3-0.5,0.4-1.1,0.4-1.3c0.1-1.1-0.5-1.4-1.3-3.2c-0.5-1.3-0.5-1.9-0.9-2c-0.5-0.1-1,0.5-1.3,1
		c-0.7,1.2,0,2.2-0.7,3.2c-0.4,0.6-0.8,0.4-1.2,0.9c-1.1,1.4,0.4,5.1,1.4,5.1c0.6,0,0.5-1.4,1.8-2.3C55.1,90.4,55.6,90.4,56.1,89.7z
		"/>
	<path class="st5" d="M55.1,88c0-0.2,0.4-0.3,0.4-0.8c0,0,0-0.3-0.1-0.4c-0.2-0.1-0.7,0.2-1,0.6c-0.1,0.1-0.4,0.6-0.2,1.1
		c0.2,0.4,0.7,0.7,1.1,0.5c0.2-0.1,0.4-0.5,0.3-0.7C55.5,88.1,55.2,88.2,55.1,88z"/>
	<path class="st5" d="M53.6,89.4c-0.4-0.1-0.6-0.7-0.4-0.9c0.1-0.1,0.3,0,0.3,0c0.4,0.1,0.7,0.6,0.6,0.8
		C54,89.5,53.7,89.5,53.6,89.4z"/>
	<path class="st5" d="M53,91.2c-0.1-0.3-0.5-0.5-0.7-0.4c-0.2,0.1-0.2,0.5,0,0.7c0.1,0.1,0.3,0.3,0.5,0.2C53,91.6,53.1,91.4,53,91.2
		z"/>
	<path class="st5" d="M54.7,86.2c0.1-0.1,0.1-1-0.4-1.3c-0.2-0.1-0.6-0.1-0.6,0c0,0.1,0,0.2,0.6,0.7C54.6,86.2,54.7,86.2,54.7,86.2z
		"/>
</g>
<path class="st6" d="M54.1,23.3"/>
<g>
	<path class="st3" d="M53.7,33.4c1.5-0.6-0.3-4.3,2.1-7.4c1.6-2.2,3.4-1.7,4.6-4c0.9-1.8,0.6-3.6,0.3-5.1c-0.6-3.2-2.3-5.2-3.4-6.4
		c-1.1-1.2-1.9-2.1-2.7-1.9c-0.3,0.1-1,0.3-2,4.7c-0.9,3.9-0.6,4.8-1.7,6.7c-0.8,1.6-1.2,1.3-1.9,2.7c-0.2,0.4-1.6,3.5-0.2,6.7
		C49.9,31.6,52.4,34,53.7,33.4z"/>
	<path class="st5" d="M57.5,20c0.3-0.6,0.5-1.2,0.3-1.7c-0.4-0.9-1.8-1.3-2.1-1c-0.2,0.3,0.7,0.8,0.9,2.1c0.2,1.2-0.5,2-0.3,2.1
		C56.4,21.6,57.1,20.8,57.5,20z"/>
	<path class="st5" d="M53.6,23.8c0-0.2-0.5-0.1-1.8-0.4c-1.2-0.3-1.6-0.6-1.9-0.4c-0.5,0.3-0.7,1.3-0.4,1.7
		C50.2,25.6,53.7,24.2,53.6,23.8z"/>
	<path class="st5" d="M52.4,26.1c-0.2-0.2-0.5-0.4-0.8-0.3c-0.4,0.1-0.7,0.6-0.6,1c0.1,0.5,0.8,0.8,1.3,0.5
		C52.7,27.1,52.7,26.5,52.4,26.1z"/>
	<path class="st5" d="M51.6,29c-0.6,0.1-0.9,0.8-0.9,1.3c0,0.4,0.2,0.9,0.6,1c0.7,0.2,1.7-0.7,1.6-1.5C52.8,29.4,52.2,28.9,51.6,29z
		"/>
	<path class="st5" d="M53.3,19.5c0.5-0.6,0-1.6-0.4-1.6c-0.5-0.1-1.4,1.1-1.1,1.6C52,19.9,52.9,20,53.3,19.5z"/>
	<path class="st5" d="M56.6,15.8c-0.2,0,0-0.9-0.5-1.4c-0.7-0.6-1.6,0-2.4-0.6c-0.6-0.5-0.8-1.5-0.4-1.8c0.2-0.2,0.8-0.2,1.1-0.1
		c0.8,0.3,0.7,1.3,1.3,1.5c0.5,0.1,0.7-0.4,1-0.2C57.3,13.5,56.8,15.8,56.6,15.8z"/>
</g>
<g>
	<path class="st2" d="M47.3,19.8c1.8,0,3-3.7,3.3-5.4c0.2-0.9,1.2-5.4-1.2-7.1c-0.8-0.6-2.1-1-3-0.4c-0.8,0.5-0.7,1.4-1.2,4.3
		c-0.6,3.5-1,3.7-0.8,4.9C44.7,17.7,46,19.8,47.3,19.8z"/>
	<path class="st4" d="M46,16c0.5,0.1,1.1-0.5,1-1.1c-0.1-0.4-0.5-0.8-0.9-0.7c-0.5,0-0.7,0.6-0.7,1C45.4,15.5,45.6,15.9,46,16z"/>
	<path class="st4" d="M47.7,10.9c0.3-0.3,0.1-1-0.3-2.1c-0.2-0.5-0.2-0.7-0.4-0.7c-0.4,0-1.3,1.8-0.6,2.6
		C46.8,11.1,47.4,11.2,47.7,10.9z"/>
</g>
<path class="st4" d="M31.7,42.4c0.3-0.5,0.1-1.2-0.4-1.7c-0.3-0.3-1-0.7-1.6-0.4c-0.7,0.3-0.8,1.3-0.5,1.8
	C29.6,43,31.2,43.1,31.7,42.4z"/>
<path class="st4" d="M28.1,43.4c0.6-0.4,0.6-2.1,0.1-2.3c-0.4-0.2-1.7,0.9-1.3,0.6l0,0c0,0-0.6,0.3-1,0.7c-0.5,0.6-0.5,1.6-0.2,1.7
	c0.2,0.1,0.5-0.5,1.3-0.7C27.5,43.3,27.8,43.6,28.1,43.4z"/>
<path class="st5" d="M23.9,37.5c0.4-0.3,0.6-1.5-0.2-1.9c-0.7-0.4-1.7,0.2-1.8,0.7C21.9,37,23.3,37.9,23.9,37.5z"/>
<path class="st5" d="M19.7,34.9c0.3,0.2,0.9,0,1-0.3c0.2-0.5-0.6-1.4-1-1.3C19.4,33.4,19.2,34.6,19.7,34.9z"/>
<path class="st5" d="M18.9,35.9c0.6-0.8,0-2-0.1-2.1c-0.5-0.9-1.6-1.4-1.8-1.2c-0.2,0.2,0.4,0.7,0.6,1.8c0.2,1.1-0.2,1.7,0.1,1.9
	C18,36.6,18.6,36.3,18.9,35.9z"/>
<path class="st5" d="M17.2,30.9c0.5-0.4,0.7-1.1,0.3-1.6c-0.3-0.4-0.8-0.6-1.3-0.4c-0.7,0.2-1.1,1.3-0.6,1.9
	C16,31.1,16.7,31.2,17.2,30.9z"/>
<g>
	<path class="st3" d="M15,74.8c0.2,0.7,0.8,0.8,2.1,1.5c1.8,1,1.7,1.5,2.6,1.7c1.4,0.3,2.8-0.3,3.1-0.5c2.7-1.3,3.3-4.4,3.6-6
		c0.2-0.7,0.4-1.9-0.2-2.1c-0.5-0.3-1.5,0.4-2,0.8c-1.3,0.9-1.2,1.5-2.1,1.8c-1.2,0.5-1.7-0.3-2.9,0.3c-0.7,0.4-0.6,0.9-1.3,1.1
		c-1.1,0.5-2.1-0.7-2.7-0.2C14.9,73.5,14.9,74.3,15,74.8z"/>
	<path class="st5" d="M18.2,74.4c-0.2,0.2,0.2,0.8,0.4,1.3c0.3,0.6,0.6,1,1,1c0.3,0,0.6-0.3,0.6-0.6c0.1-0.4-0.3-0.8-0.6-1.1
		C19.2,74.6,18.4,74.2,18.2,74.4z"/>
	<path class="st5" d="M21.5,73.9c-0.1,0.3-0.5,0.6-0.8,0.4c-0.3-0.1-0.4-0.5-0.2-0.8c0.1-0.2,0.4-0.3,0.6-0.2
		C21.3,73.4,21.5,73.7,21.5,73.9z"/>
	<path class="st5" d="M23.8,72.5c0,0.3,0.4,0.6,0.7,0.5c0.4-0.2,0.5-1,0.3-1.1C24.5,71.7,23.8,72.1,23.8,72.5z"/>
	<path class="st5" d="M21.9,76c0.3,0.3,0.4,1,0.1,1.2c-0.2,0.2-0.6,0-0.8-0.2c-0.3-0.4-0.1-1,0.2-1.2C21.6,75.7,21.9,76,21.9,76z"/>
</g>
</svg>
