<?xml version="1.0" encoding="utf-8"?>
<!-- Generator: Adobe Illustrator 26.0.3, SVG Export Plug-In . SVG Version: 6.00 Build 0)  -->
<svg version="1.1" id="Ebene_2_00000126308112139821010380000011903406711838980787_"
	 xmlns="http://www.w3.org/2000/svg" xmlns:xlink="http://www.w3.org/1999/xlink" x="0px" y="0px" viewBox="0 0 100 100"
	 style="enable-background:new 0 0 100 100;" xml:space="preserve">
<style type="text/css">
	.st0{fill:#603726;stroke:#000000;stroke-width:2;stroke-miterlimit:10;}
	.st1{fill:#804122;stroke:#000000;stroke-miterlimit:10;}
	.st2{fill:#493127;stroke:#000000;stroke-width:0.5;stroke-miterlimit:10;}
	.st3{fill:#5D4135;stroke:#000000;stroke-width:0.25;stroke-miterlimit:10;}
	.st4{fill:#5D4135;stroke:#000000;stroke-width:0.5;stroke-miterlimit:10;}
	.st5{fill:#493127;stroke:#000000;stroke-width:0.25;stroke-miterlimit:10;}
	.st6{fill:none;stroke:#000000;stroke-width:0.25;stroke-miterlimit:10;}
</style>
<polygon class="st0" points="92,25.9 50,1.7 8,25.9 8,74.4 50,98.7 92,74.4 "/>
<path class="st1" d="M65,89.6c6.9-3.7,10.4-5.5,10.5-6.9c0.1-1.6-2.9-2.2-9.2-6.1c-5.3-3.2-9.1-5.6-8.7-7.4C58,66.7,66.8,66,71.8,66
	c11,0,15.7,3.5,18.6,0.8c1.2-1.2,1.2-4.7,1.3-11.7c0-6.2,0-9.3-1-11c-3.2-5.2-9.9-3.8-11-7.4c-1.2-4.2,7.3-7.4,6.7-12.5
	c-0.4-3.6-5-4.3-16.7-11.1c-9.3-5.4-12.8-8.7-14.5-7.4C53.6,6.8,55.9,10,56.5,18c0.4,4.6-0.1,8.1-0.9,15c-0.8,6.3-1.1,9.4-2.1,12.6
	C49.2,60.1,37.4,65.1,39.6,71c1.1,2.9,4.3,2.7,6.1,7.4c0.8,2.2,0.8,3,0.9,7.1c0.1,3.5,0.9,11.3,3.7,12c2.1,0.6,5.1-2.9,9-5
	C62.2,91,62.5,90.9,65,89.6z"/>
<g>
	<path class="st2" d="M10.3,29.2c-0.2,0.4-1.2,2.3-0.6,3.6c0.6,1.1,1.7,0.6,3.2,1.9c1.4,1.3,1.1,2.6,2.3,2.8
		c0.8,0.1,1.9-0.1,2.3-0.9c0.4-0.9-0.7-1.6-0.5-3c0.2-1.5,1.6-1.9,1.4-3c-0.1-0.5-0.7-1-1.9-1.9c-0.3-0.2-1.1-0.8-2.1-1.2
		c-0.4-0.2-0.7-0.3-1.1-0.3c-0.4,0-0.8,0-1,0C11.8,27.5,10.9,28.1,10.3,29.2z"/>
	<path class="st3" d="M13.2,29.4c0.2,0.4-0.4,0.8-0.2,1.2c0.1,0.2,0.6,0.3,0.8,0.2c0.6-0.3,0.5-1.7,0-2c-0.1-0.1-0.2,0-0.8,0
		c-0.6,0-1,0-1,0C12.1,29,13,29,13.2,29.4z"/>
	<path class="st3" d="M11.4,32.6c0.4,0.3,1,0.7,1.1,0.5c0.1-0.1-0.3-0.3-0.8-1.2c-0.1-0.2-0.2-0.4-0.4-0.4c-0.2-0.1-0.5,0.1-0.6,0.2
		C10.6,32,11.1,32.3,11.4,32.6z"/>
	<path class="st3" d="M16.9,30.8c0.3,0.5,0.3,1.3-0.1,1.6c-0.2,0.2-0.5,0.3-0.7,0.1c-0.3-0.3,0.2-1.1-0.1-1.4
		c-0.2-0.2-0.6,0.2-0.9,0c-0.1-0.1-0.1-0.4,0-0.6C15.4,30.1,16.4,30.1,16.9,30.8z"/>
	<path class="st3" d="M14,33.5c0.2,0.1,0.7-0.2,0.7-0.5c0-0.2-0.4-0.5-0.6-0.4C13.8,32.8,13.8,33.4,14,33.5z"/>
	<path class="st3" d="M14.2,35.6c0.3,0.7,1.2,1.2,1.7,0.9c0.2-0.2,0.4-0.5,0.3-0.7c-0.2-0.3-0.9,0.1-1.1-0.2
		c-0.2-0.3,0.3-0.8,0.1-1.2c-0.2-0.3-0.6-0.4-0.9-0.3C13.9,34.4,14,35.2,14.2,35.6z"/>
</g>
<g>
	<path class="st4" d="M40.1,19.5c1.2,0.5,1.1,1.5,2.7,2.9c2,1.8,5,2.6,6.8,1.5c0.8-0.6,1.6-1.7,1.2-2.3c-0.4-0.9-2.1-0.3-3.1-1.5
		c-0.3-0.4-0.4-0.7-0.6-3c-0.3-3.3-0.3-3.7-0.7-4.5c-0.7-1.1-2-2.1-2.9-1.9c-1,0.3-0.5,1.7-1.5,3c-1.4,1.8-3.7,0.2-7.1,2
		c-1.8,1-1.8,1.7-1.8,1.9c0.1,0.9,1.3,1.9,2.4,2.3C37.5,20.5,38.4,18.8,40.1,19.5z"/>
	<path class="st5" d="M38.2,17c-0.7,0.2-1.4-0.5-1.5-0.4c-0.1,0.1,0.6,1.1,1.4,1.3c0.8,0.2,1.7-0.4,1.6-0.8c0-0.3-0.4-0.6-0.7-0.6
		C38.7,16.5,38.7,16.9,38.2,17z"/>
	<path class="st5" d="M44.5,17.6c0-0.3-1.3-0.7-1.3-1.2c0-0.6,2-0.5,2-1.2c0-0.4-0.5-0.8-0.9-0.9c-1.1-0.4-2.6,0.8-2.4,1.9
		c0.2,0.8,1.1,1.3,1.2,1.3C43.7,17.8,44.4,17.7,44.5,17.6z"/>
	<path class="st5" d="M45,20.6c0.6,0.4,1.4,0,1.6-0.6c0.1-0.5,0-1.1-0.3-1.4c-0.6-0.5-1.7,0.1-1.8,0.9C44.4,19.9,44.6,20.3,45,20.6z
		"/>
	<path class="st5" d="M48.1,22.8c0.2-0.1,0.3-1-0.2-1.2c-0.3-0.2-0.7,0-0.8,0.2C47.1,22.1,47.8,22.9,48.1,22.8z"/>
</g>
<g>
	<path class="st4" d="M65.6,69.3c-2.8,0.9-5.8-0.5-6.2,0.2c-0.6,1.2,6.9,6.3,10.7,6.2c1.3,0,1-0.6,2.5-0.7c2.5,0,4.4,1.7,7.5,1.9
		c1.3,0.1,2.9-0.1,2.9-0.8c0-0.6-1.4-1.1-4-2.9c-3.8-2.5-4.2-3.5-6.6-4.4c-0.4-0.2-1.7-0.6-3.1-0.6C67.4,68.1,67.1,68.8,65.6,69.3z"
		/>
	<path class="st5" d="M72.1,70c-0.4-0.3-1.2-0.4-1.6-0.2c-0.6,0.3-0.3,1.2,0.6,1.8c0.9,0.6,2.1,0.6,2.5,0.7c1.1,0,2-0.4,1.8-0.7
		c-0.1-0.2-0.7-0.4-0.8-0.4c-1-0.3-1.6,0.1-2-0.1C72.2,70.7,72.6,70.3,72.1,70z"/>
	<path class="st5" d="M69.1,71c0.5,0,1.4,0.8,1.5,1.4c0,0.1,0.1,0.4-0.2,0.4c-0.4,0-1.6-0.7-1.7-1.3C68.6,71.3,68.7,71,69.1,71z"/>
	<path class="st5" d="M63.1,70.4c-0.3,0.2-0.1,0.6,0.2,0.8c0.4,0.4,1.3,0.7,1.6,0.6c0.4-0.1,0.1-0.8-0.6-1.2
		C64,70.5,63.4,70.3,63.1,70.4z"/>
	<path class="st5" d="M77.3,74c1.1,1.2,1.2,1.3,1.4,1.3c0.3,0,0.5-0.3,0.4-0.7c-0.3-0.9-2.5-1.8-2.7-1.7C76.4,73,76.4,73,77.3,74z"
		/>
</g>
<path class="st6" d="M45.2,23.3"/>
<g>
	<path class="st4" d="M30.4,56.7c-0.5-3.7-3.5-5.8-4-6.1c-1.4-0.9-1.6-0.5-3.2-1.4c-2-1.2-2.3-2.2-5.3-5.3c-3.4-3.5-4.2-3.3-4.5-3.2
		c-0.8,0.3-1.1,1.6-1.4,3.3c-0.3,1.7-0.9,4.6,0.4,7.9c0.6,1.5,1.3,3.4,3.2,4.6c2.4,1.5,3.7,0.1,6.5,1.2c4,1.6,4.4,6,6.1,5.8
		C29.8,63.1,30.8,59.5,30.4,56.7z"/>
	<path class="st5" d="M19.1,53.6c0.1-0.2-0.9-0.6-1.4-1.8c-0.5-1.2,0-2.3-0.3-2.4c-0.4-0.2-1.6,1-1.4,2c0.1,0.6,0.7,1,1.2,1.4
		C18,53.4,19,53.8,19.1,53.6z"/>
	<path class="st5" d="M27.2,52.8c0.1-0.6-0.7-1.4-1.3-1.4c-0.5,0-0.6,0.4-1.6,1.4c-1.1,1.1-1.5,1.3-1.5,1.4
		C23.1,54.7,27.1,54.1,27.2,52.8z"/>
	<path class="st5" d="M26.2,56.9c0.5,0,1-0.6,0.9-1.2c-0.1-0.5-0.7-0.8-1.1-0.6c-0.3,0.1-0.5,0.4-0.6,0.7
		C25.3,56.3,25.7,56.9,26.2,56.9z"/>
	<path class="st5" d="M27,59.5c0.3,0.8,1.8,1.1,2.3,0.5c0.3-0.3,0.2-0.9,0-1.3c-0.3-0.5-0.9-0.9-1.5-0.7C27.1,58.3,26.8,59,27,59.5z
		"/>
	<path class="st5" d="M22.2,49.3c0-0.6-1.5-1.3-1.9-0.9c-0.3,0.3-0.2,1.5,0.5,1.8C21.5,50.4,22.2,49.7,22.2,49.3z"/>
	<path class="st5" d="M14.1,46.1c0.2-0.3,0.7,0,1.1-0.4c0.5-0.5-0.2-1.3,0.3-2.1c0.2-0.4,0.7-0.7,1.1-0.6c0.5,0.1,0.9,1.2,0.6,2
		c-0.4,1-1.6,0.9-1.9,1.9c-0.2,0.8,0.5,1.5,0.3,1.6C15.5,48.6,13.7,46.7,14.1,46.1z"/>
</g>
<g>
	<path class="st2" d="M32.4,54.3c0.2,1.3,0.6,1.4,2.5,4.7c1.5,2.9,1.8,3.8,2.7,4c1.1,0.2,2.3-0.6,3-1.5c1.9-2.6-0.6-6.8-1.1-7.7
		c-0.9-1.6-3.5-5-5.3-4.4C32.7,49.9,32.2,52.5,32.4,54.3z"/>
	<path class="st3" d="M33.7,54.9c0.1,0.4,0.6,0.8,1.1,0.7c0.5-0.1,0.7-0.6,0.7-1.1c-0.1-0.6-1-1.1-1.5-0.8
		C33.7,54,33.6,54.5,33.7,54.9z"/>
	<path class="st3" d="M36.3,59c-0.5,1,1.1,2.6,1.5,2.4c0.1-0.1,0.1-0.3,0.1-0.9c0-1.2,0-2-0.4-2.2C37.1,58.2,36.5,58.6,36.3,59z"/>
</g>
<g>
	<path class="st2" d="M38.5,79.6c-0.8-1.6,0.6-2,0-3.3c-1.1-2.3-6.9-4.8-7-3.5c0,0.6,1.3,1.5,2.2,3.7c0.4,0.9,0.5,1.9,0.9,3.8
		c0.4,2.5,0.3,2.6,0.6,3.1c1.3,2.4,6.5,5.2,7.3,3.2c0.3-0.6,0.2-1.9-0.5-3.2C40.9,81.5,39.2,81.1,38.5,79.6z"/>
	<path class="st3" d="M37.5,80.2c-0.7-0.1-1.1,0.6-0.7,1.6c0.4,0.9,1.3,1.6,1.8,1.9c0.7,0.4,1.5,0.3,1.5-0.3
		C40.1,82.4,38.6,80.4,37.5,80.2z"/>
	<path class="st3" d="M36.2,76.7c-0.7-1.1-0.5-1.8-0.8-2c-0.4-0.3-1,0.2-0.9,1.1c0.1,0.6,0.5,1.6,0.5,1.6l0,0
		c-0.2-0.7,0.3,1.5,0.9,2c0.6,0.6,1.8-0.2,1.5-1.2C37.1,77.7,36.7,77.5,36.2,76.7z"/>
</g>
<g>
	<path class="st4" d="M26.3,77.5c0.4-0.6-0.2-1.2-0.6-2.6c-0.7-2.9,1.2-3.8,0.6-6.3c-0.5-2.1-2.3-3.4-2.6-3.5
		c-1.2-0.8-2.6-0.9-5.3-1.2c-3-0.3-4.5-0.4-5.1,0.3c-1.1,1.3,0.8,4.3,1.3,5.2c1.9,2.9,3.2,2.5,5.3,5.7c1,1.5,1.2,2.4,2.4,2.9
		C23.8,78.6,25.8,78.4,26.3,77.5z"/>
	<path class="st5" d="M23.6,73.4c-0.6,0-1.4,1-1,1.8c0.4,0.8,1.8,0.9,2.2,0.4C25.2,75.1,24.4,73.4,23.6,73.4z"/>
	<path class="st5" d="M20.6,70.6c-0.2,0.4,0.7,1.4,1.3,1.2c0.4-0.1,0.7-0.7,0.5-1C22.1,70.2,20.8,70.3,20.6,70.6z"/>
	<path class="st5" d="M24.3,69c-0.2-0.4-1,0-2.2-0.4c-1.2-0.3-1.7-1-1.9-0.9c-0.2,0.2,0.1,1.4,1.1,2c0.1,0,1.4,0.9,2.3,0.4
		C24.1,69.9,24.5,69.3,24.3,69z"/>
	<path class="st5" d="M18.3,65.9c-0.6-0.6-1.9-0.4-2.3,0.3c-0.2,0.4-0.1,1,0.3,1.4c0.5,0.4,1.4,0.4,1.9-0.1
		C18.7,67.1,18.6,66.3,18.3,65.9z"/>
</g>
<g>
	<path class="st4" d="M89.9,38.7c0.1-0.7-1.3-0.9-1.4-2c-0.1-0.6,0.3-0.8,0.3-1.5c-0.1-1.1-1-1.2-1.1-2.3c-0.1-0.8,0.4-1,0.5-2.4
		c0-0.5,0.1-1.6-0.4-1.9c-0.5-0.3-1.2,0.4-1.7,0.8c-1.1,0.9-3.2,2.8-3,5.4c0,0.2,0.2,1.6,1.1,2.5c0.6,0.7,0.9,0.3,2.5,1.3
		c1.2,0.6,1.5,1.1,2.2,0.9C89.3,39.6,89.8,39.2,89.9,38.7z"/>
	<path class="st5" d="M86.4,36.2c-0.3-0.1-0.8-0.2-1.1,0.1c-0.2,0.2-0.2,0.5-0.1,0.7c0.1,0.3,0.6,0.3,1.2,0.3c0.5,0,1.2,0,1.2-0.2
		C87.7,36.9,87,36.4,86.4,36.2z"/>
	<path class="st5" d="M87.1,34.4c0.1,0.1,0.2,0.4,0.1,0.6c-0.1,0.3-0.4,0.4-0.7,0.2c-0.2-0.2-0.3-0.6-0.1-0.8
		C86.6,34.2,86.9,34.3,87.1,34.4z"/>
	<path class="st5" d="M86.5,30.9c-0.2-0.1-0.8,0.3-0.7,0.7c0.1,0.3,0.5,0.5,0.7,0.4C86.8,31.8,86.7,31.1,86.5,30.9z"/>
	<path class="st5" d="M85,35.4c0,0.3-0.4,0.7-0.8,0.7c-0.3,0-0.6-0.3-0.6-0.5c0-0.3,0.6-0.6,1-0.5C84.6,35,85,35.1,85,35.4z"/>
</g>
<g>
	<path class="st2" d="M22.9,35.2c0.3,2.9-0.4,4.3,0.9,4.5c1.8,0.3,5.8-1.7,7-3.6c1.1-1.7-1-2.1,0.1-3.9c1.1-1.9,3.9-2.4,4.9-4.5
		c0.4-0.8,0-0.6,0.3-2.1c0.6-2.3,1.8-3.3,1.3-3.6c-0.6-0.4-2.6,0.7-5.9,2.1c-7.2,3.1-8.7,2.7-9.9,4.1C20.1,29.9,22.4,30.5,22.9,35.2
		z"/>
	<path class="st3" d="M26,27.4c0.7-0.2,2.2-0.6,2.3-0.4c0.1,0.2-1.2,1-2.5,1.3c-0.9,0.2-1.8,0.1-1.7-0.1
		C24.2,27.9,25.8,27.5,26,27.4z"/>
	<path class="st3" d="M29.2,29.7c0.1,0.2-0.2,0.7-0.6,0.8c-0.6,0.2-1.3-0.3-1.1-0.6C27.7,29.6,29,29.3,29.2,29.7z"/>
	<path class="st3" d="M31,26.4c0.9-0.1,1,0.8,1,0.9c0.1,0.4-0.1,1-0.4,1.1c-0.2,0.1-0.3-0.2-1-0.3c-0.8-0.2-1.4,0-1.5-0.2
		C29,27.6,30.1,26.5,31,26.4z"/>
	<path class="st3" d="M25.4,31.7c-0.3,0.2-0.9-0.1-1.2-0.4c-0.3-0.3-0.5-0.7-0.2-0.9c0.3-0.2,0.9,0,1.2,0.2
		C25.5,31.1,25.6,31.6,25.4,31.7z"/>
	<path class="st3" d="M25.3,35.1c0.9,0.2,2.5-0.3,3-0.9c0.4-0.5-0.2-1.1-0.7-1c-0.5,0.1-0.6,0.7-1.2,0.9c-0.9,0.3-1.5-0.7-1.8-0.5
		C24.3,33.8,24.2,34.9,25.3,35.1z"/>
	<path class="st3" d="M26.7,38c0.4-0.1,0.9-0.7,0.7-1.1c-0.2-0.5-1.4-0.3-1.7-0.1C25.3,37.2,26.1,38.2,26.7,38z"/>
</g>
<g>
	<path class="st2" d="M47,37.7c-0.7-0.8-1.7,0.1-4.3-0.7c-2.8-0.8-3.3-2.4-4.7-2.2c-1.7,0.3-3.3,2.9-3,4.9c0.4,2.2,3.1,2.6,3.2,4.6
		c0,1.5-1.4,2.1-1,3.1c0.4,1,2.3,1.3,3.7,1.1C45.6,47.7,48.7,39.6,47,37.7z"/>
	<path class="st3" d="M40.3,45.2c0.6,0.3,1.4-0.3,1.7-0.8c0.5-0.7,0.5-1.8,0.1-2.1c-0.6-0.4-2.3,0.6-2.4,1.8
		C39.7,44.5,39.9,45,40.3,45.2z"/>
	<path class="st3" d="M42.6,39.9c0.3,0.1,0.7-0.1,0.8-0.3c0.2-0.4-0.3-1.1-0.8-1.1c-0.3,0-0.6,0.4-0.6,0.8
		C42.1,39.7,42.3,39.9,42.6,39.9z"/>
	<path class="st3" d="M39.5,39.7c-0.3-0.2-1,0-1.2,0.6c-0.2,0.7,0.5,1.3,0.8,1.2C39.6,41.4,39.9,40,39.5,39.7z"/>
</g>
</svg>
