<?xml version="1.0" encoding="utf-8"?>
<!-- Generator: Adobe Illustrator 26.0.3, SVG Export Plug-In . SVG Version: 6.00 Build 0)  -->
<svg version="1.1" id="Ebene_2_00000181767789207931491830000011781428836639403449_"
	 xmlns="http://www.w3.org/2000/svg" xmlns:xlink="http://www.w3.org/1999/xlink" x="0px" y="0px" viewBox="0 0 100 100"
	 style="enable-background:new 0 0 100 100;" xml:space="preserve">
<style type="text/css">
	.st0{fill:#603726;stroke:#000000;stroke-width:2;stroke-miterlimit:10;}
	.st1{fill:#804122;stroke:#000000;stroke-miterlimit:10;}
	.st2{fill:#493127;stroke:#000000;stroke-width:0.5;stroke-miterlimit:10;}
	.st3{fill:#5D4135;stroke:#000000;stroke-width:0.5;stroke-miterlimit:10;}
	.st4{fill:#5D4135;stroke:#000000;stroke-width:0.25;stroke-miterlimit:10;}
	.st5{fill:#493127;stroke:#000000;stroke-width:0.25;stroke-miterlimit:10;}
	.st6{fill:none;stroke:#000000;stroke-width:0.25;stroke-miterlimit:10;}
</style>
<polygon class="st0" points="92,25.8 50,1.5 8,25.8 8,74.2 50,98.5 92,74.2 "/>
<path class="st1" d="M32.2,88.2c7.2,4.6,14.7,9.7,16.2,8.1c1.3-1.3-1.8-6.4-1.2-12.1c0.5-5.2,2.8-5.3,3.6-12.3
	c0.5-4.7-0.1-6.9,1.7-9.1c2.9-3.7,9-3.2,9.6-3.1c4.1,0.4,5.8,2.5,11.4,6.1c7.8,5.1,12.7,8.2,15.7,6.7c1.4-0.7,2.2-2.3,2.9-18
	c0.6-14.2,0.1-18.6-1.9-19.2c-1.2-0.4-2.9,0.7-3.8,1.2c-1.8,1.1-2.4,2.7-3.6,4.2c-2.5,3.2-3.4,4.8-5,6c-4,3.2-11.5,3.1-13.7-0.1
	c-1.4-2.1-0.7-5.6,0.9-7.8c2.1-2.9,4.7-1.9,7.7-5.1c2.5-2.8,1.5-4.4,3.8-6.6c3.7-3.5,9.3-1.3,9.9-2.9c0.3-0.8-0.9-2.6-13.5-9.5
	C60.3,7.8,58.2,7.8,57.4,8.6c-1,1.1,1.1,3,1,6.9c-0.1,6.1-4.5,8.2-7.4,15.1c-2.6,6.2,0,6.5-2.3,13.9c-1.8,5.8-3.5,5.8-10.8,17.7
	c-5.6,9.1-6,10.8-9,12.8c-5.3,3.5-11.6,3.1-15.7,2.4C17.6,79.6,24.3,83.2,32.2,88.2z"/>
<path class="st2" d="M19.6,75.2c0.7,0.3,4.5,1.7,6.8,0c1.9-1.5,0.5-3.5,2.6-6.8c1.9-3.1,4.5-3,4.6-5.3c0-1.6-0.8-3.8-2.3-4.2
	c-1.8-0.5-2.7,1.9-5.4,2c-2.9,0.1-3.9-2.5-5.9-1.9c-1,0.3-1.6,1.6-2.9,4.2c-0.3,0.6-1.2,2.4-1.7,4.6c-0.2,0.8-0.3,1.5-0.2,2.3
	c0,0.8,0.2,1.5,0.4,2C16.1,72.9,17.5,74.4,19.6,75.2z"/>
<path class="st2" d="M27.7,55.1c5,0.8,6.7,2,8,0.9c1.7-1.5,1.2-6-1-7.8c-2-1.7-4,0.1-6.2-1.6c-2.2-1.7-1.3-4.5-3.9-6.2
	c-1-0.6-1.1-0.2-3.1-1.1c-3.3-1.4-4.1-2.9-5-2.6c-1,0.4-0.7,2.6-0.7,6.2c0,7.8-1.5,9-0.2,10.6C17.2,55.6,19.8,53.8,27.7,55.1z"/>
<path class="st3" d="M23.7,34.1c1.1,1.2,0.2,2.1,1.1,4.4c1.1,2.9,4,5.5,6.9,5.4c1.4,0,3-0.7,3.1-1.6c0.1-1.1-2.3-1.5-2.6-3.3
	c-0.1-0.5,0.1-0.9,1.4-3.3c2-3.4,2.3-3.8,2.3-4.8c0-1.5-0.9-3.2-2.1-3.6c-1.4-0.3-1.9,1.4-3.9,2c-2.9,0.9-4.4-2-9.8-2.2
	c-2.8-0.1-3.3,0.6-3.4,0.8c-0.6,0.9,0.2,2.7,1.2,3.7C19.9,33.6,22.1,32.4,23.7,34.1z"/>
<path class="st3" d="M40,43.7c2.8,1.8,2.4,4.4,3.7,4.4c2,0.1,5-6.9,2.9-9.6c-0.7-0.9-1.5-0.6-2.3-1.7c-1.4-1.8,0-3.7-1.4-6
	c-0.6-0.9-1.7-2.1-2.7-1.9c-0.8,0.2-0.9,1.3-1.9,3.8c-1.5,3.5-2.7,4-2.6,6.1c0,0.4,0.1,1.4,0.8,2.4C37.4,42.7,38.5,42.7,40,43.7z"/>
<path class="st2" d="M39,24.1c0.2-1-1.1-1.3-1.9-3.9c-0.9-2.8,0.1-4.1-0.9-5.1C35,13.9,32,14,30.6,15.4c-1.6,1.6-0.4,4.1-2,5.2
	c-1.2,0.9-2.6,0.1-3.1,0.9c-0.6,0.8,0.2,2.6,1.2,3.7C30,28.6,38.5,26.6,39,24.1z"/>
<path class="st3" d="M50.8,29.2c1.4-3.2,0-6.3-0.2-6.7c-0.7-1.4-1-1.1-1.9-2.7c-1-1.9-0.8-2.8-1.7-6.7c-1-4.3-1.7-4.6-2-4.7
	c-0.8-0.2-1.6,0.7-2.7,1.9c-1.1,1.2-2.9,3.2-3.4,6.4c-0.3,1.5-0.6,3.3,0.3,5.1c1.2,2.3,2.9,1.8,4.6,4c2.4,3.2,0.6,6.8,2.1,7.4
	C47.2,34,49.8,31.6,50.8,29.2z"/>
<path class="st2" d="M55.2,16c0.2-1.2-0.1-1.4-0.8-4.9c-0.5-3-0.4-3.9-1.2-4.3c-0.9-0.5-2.2-0.2-3,0.4c-2.4,1.7-1.4,6.2-1.2,7.1
	c0.4,1.7,1.6,5.4,3.3,5.4C53.7,19.8,54.9,17.7,55.2,16z"/>
<path class="st2" d="M70.4,43.5c1.1,0.4,0.8,2,1.7,2.3c1.6,0.6,5-3.4,4.3-4.3c-0.3-0.5-1.2,0.2-2.7-0.4c-0.6-0.2-1.1-0.8-2.2-1.9
	c-1.4-1.4-1.4-1.6-1.8-1.7c-1.7-0.5-5,2.6-4.3,4.9c0.2,0.7,0.9,1.6,1.8,1.8C68.6,44.5,69.4,43.2,70.4,43.5z"/>
<path class="st3" d="M73.6,40c0.6,0.3,1.1-0.3,2.3-0.8c2.6-0.9,3.7,0.6,6-0.2c1.9-0.7,2.9-2.4,3-2.7c0.6-1.1,0.5-2.3,0.4-4.8
	c-0.1-2.7-0.2-4-0.9-4.4c-1.4-0.8-3.9,1.2-4.7,1.8c-2.5,2-1.9,3.1-4.7,5.3c-1.3,1-2.1,1.3-2.4,2.4C72.2,37.9,72.7,39.6,73.6,40z"/>
<path class="st3" d="M55.4,73.7c1-0.1,1-2.3,2.6-2.8c0.9-0.3,1.2,0.3,2.2,0.1c1.6-0.3,1.5-1.8,3.1-2.3c1.2-0.4,1.5,0.4,3.6,0.2
	c0.8-0.1,2.4-0.2,2.7-1c0.3-0.8-0.8-1.9-1.6-2.7c-1.6-1.5-4.7-4.6-8.4-3.7c-0.3,0.1-2.2,0.6-3.4,2.3c-0.8,1.2-0.3,1.5-1.3,4.4
	c-0.7,2-1.2,2.7-0.9,3.8C54.1,72.8,54.8,73.7,55.4,73.7z"/>
<path class="st2" d="M55.8,93.7c0.9-0.5,0.8-0.9,2.1-2.4c2.3-2.6,3.8-2.6,4-4c0.1-0.9-0.5-1.1-1.9-3.4c-1.5-2.6-2.3-3.9-2.1-5.4
	c0.3-2.1,2.3-2.8,1.9-4.2c-0.2-0.9-1.4-1.8-2.3-1.7c-1.3,0.1-2.1,1.8-3.4,4.9c-0.8,1.7-1.3,2.9-1.7,4.6c-0.8,3.6,0.1,4.2-0.8,7
	c-0.8,2.6-2,3.2-1.6,4.2C50.7,94.5,53.8,94.9,55.8,93.7z"/>
<path class="st3" d="M67.3,85.7c2.6-0.4,2.6-3.2,5.4-4.4c2-0.8,2.7,0.2,5.7-0.9c1.2-0.5,2.1-1,2.8-1.4c1.7-1.1,2.6-1.6,3-2.7
	c0.5-1.1,0.5-2.9-0.4-3.7c-1-0.8-2,0.3-4.2-0.1c-2.2-0.4-2.4-1.7-4.2-1.8c-1.9-0.1-2.2,1.3-4.1,1.2c-1.9,0-2.1-1.3-4-1.4
	c-2.4-0.2-4.3,1.7-4.7,2.1c-1.5,1.5-2.6,4-2,6.2c0.1,0.4,0.1,0.2,1.6,2.7c1.5,2.5,1.7,3.3,2.7,3.8C65.9,85.9,67.1,85.7,67.3,85.7z"
	/>
<path class="st4" d="M19.3,69.5c0.7-0.4,1.6,0.5,2.2,0c0.4-0.3,0.4-1.2,0.1-1.7c-0.8-1-3.3-0.5-3.7,0.5c-0.1,0.3,0.1,0.4,0.3,1.6
	c0.2,1.2,0.3,1.9,0.4,1.9C18.8,71.8,18.5,70.1,19.3,69.5z"/>
<path class="st4" d="M25.6,72c0.4-0.8,0.9-2.2,0.7-2.3c-0.2-0.1-0.5,0.7-2,2c-0.3,0.3-0.6,0.5-0.7,1c0,0.4,0.2,1,0.6,1
	C24.7,73.8,25.2,72.7,25.6,72z"/>
<path class="st4" d="M20.7,61.9c0.8-0.8,2.2-1,3-0.4c0.4,0.3,0.6,1,0.4,1.3c-0.4,0.7-2.1-0.1-2.5,0.5c-0.3,0.5,0.5,1.2,0.2,1.7
	c-0.2,0.3-0.7,0.4-1,0.2C19.9,64.9,19.7,62.9,20.7,61.9z"/>
<path class="st4" d="M26.5,66.7c0.2-0.4-0.5-1.3-1-1.2c-0.5,0.1-0.8,0.9-0.5,1.3C25.3,67.3,26.3,67.2,26.5,66.7z"/>
<path class="st4" d="M30.4,65.6c1.2-0.9,1.9-2.7,1.2-3.6c-0.4-0.4-1.1-0.6-1.4-0.4c-0.5,0.4,0.5,1.7,0,2.2c-0.4,0.5-1.5-0.4-2.2,0.2
	c-0.5,0.4-0.6,1.4-0.2,1.8C28.2,66.6,29.6,66.2,30.4,65.6z"/>
<path class="st4" d="M17.2,49.2c0.1-0.7,0.6-2.2,1-2.2c0.4,0,0.8,1.5,0.4,2.7c-0.3,0.9-1,1.7-1.3,1.6C16.8,51.2,17.1,49.5,17.2,49.2
	z"/>
<path class="st4" d="M23,47.3c0.4,0,0.9,0.5,0.9,0.9c-0.1,0.7-1.5,1.1-1.8,0.7C21.9,48.6,22.3,47.3,23,47.3z"/>
<path class="st4" d="M19,44.4c0.4-0.8,2-0.6,2.2-0.6c0.7,0.1,1.6,0.5,1.6,0.8c0,0.2-0.5,0.2-1.2,0.7c-0.9,0.6-0.9,1.2-1.3,1.3
	C19.6,46.6,18.6,45.2,19,44.4z"/>
<path class="st4" d="M23.8,51.6c0.1,0.3-0.7,0.8-1.4,1c-0.6,0.1-1.5,0.1-1.6-0.2s0.6-0.8,1.3-1C22.8,51.1,23.7,51.2,23.8,51.6z"/>
<path class="st4" d="M29.2,52.9c0.9-0.8,1.3-2.4,0.6-3c-0.6-0.5-1.9-0.3-2.1,0.2c-0.1,0.5,0.8,0.8,0.7,1.5c-0.1,0.9-2.1,1.1-2.1,1.5
	C26.3,53.3,28.1,53.8,29.2,52.9z"/>
<path class="st4" d="M34.9,52.8c0.1-0.4-0.5-1-1.3-1c-0.9,0-1.5,1.1-1.3,1.5C32.7,53.7,34.8,53.4,34.9,52.8z"/>
<path class="st5" d="M23.2,30.6c-0.9-0.2-1.2-1.3-1.4-1.3c-0.2,0.1-0.1,1.4,0.7,2.2c0.8,0.7,2.2,0.6,2.4,0.2c0.2-0.3-0.1-0.8-0.4-1
	C24.1,30.3,23.8,30.7,23.2,30.6z"/>
<path class="st5" d="M30.1,34.8c0.2-0.2-1-1.5-0.7-1.9c0.4-0.6,2.7,0.7,3.2,0.1c0.3-0.3,0-1.1-0.4-1.5c-1-1.1-3.6-0.8-4.1,0.4
	c-0.4,0.9,0.5,1.9,0.5,2C29,34.6,29.9,35,30.1,34.8z"/>
<path class="st5" d="M28.5,38.1c0.4,0.7,1.6,0.8,2.3,0.3c0.5-0.4,0.8-1.1,0.6-1.6c-0.4-0.8-2.1-1-2.7-0.2
	C28.4,37,28.3,37.6,28.5,38.1z"/>
<path class="st5" d="M30.7,42.1c0.4,0,1-0.8,0.7-1.3c-0.2-0.3-0.8-0.4-1-0.2C29.9,40.9,30.3,42,30.7,42.1z"/>
<path class="st4" d="M29,22.8c0.1,0.7,1.1,1.1,1.9,1c0.9,0,2-0.6,1.9-1.2c0-0.8-2-1.7-3.1-1C29.3,21.8,29,22.3,29,22.8z"/>
<path class="st4" d="M35.3,21.6c0.1,0.3,0.5,0.6,0.8,0.5c0.5-0.1,0.8-1,0.4-1.4c-0.2-0.3-0.8-0.3-1.1,0
	C35.2,20.9,35.1,21.3,35.3,21.6z"/>
<path class="st4" d="M33.5,18.7c0-0.4-0.6-0.9-1.3-0.7c-0.7,0.2-0.9,1.2-0.6,1.5C32.1,19.8,33.6,19.2,33.5,18.7z"/>
<path class="st5" d="M37.4,38.7c-0.2,0.4,0.1,1,0.6,1.3c0.7,0.4,1.8-0.2,2.1-1c0.4-0.9-0.2-1.7-0.4-2c-0.6-0.8-1.6-1.4-2-1.1
	c-0.2,0.2-0.2,0.7-0.2,0.7c0.1,0.8,1,1.1,0.9,1.5C38.3,38.5,37.6,38.3,37.4,38.7z"/>
<path class="st5" d="M40.6,40.7c-0.2-0.4,0.4-1.2,1.2-1.5c0.2,0,0.5-0.2,0.7,0c0.3,0.3-0.1,1.4-0.9,1.6
	C41.2,40.9,40.7,40.9,40.6,40.7z"/>
<path class="st5" d="M43,45.2c0.4,0.2,0.8-0.1,1-0.4c0.3-0.4,0.3-1.1-0.1-1.3c-0.4-0.2-1.2,0.2-1.3,0.7C42.6,44.5,42.7,45,43,45.2z"
	/>
<path class="st5" d="M40.3,33.8c1-1.1,1.2-1.3,1.1-1.4c-0.1-0.2-0.8-0.3-1.3-0.1c-1.1,0.5-1.2,2.3-0.9,2.4
	C39.3,34.8,39.4,34.7,40.3,33.8z"/>
<path class="st5" d="M43.3,21.5c0.2-0.1-0.5-0.9-0.3-2.1c0.2-1.2,1.1-1.8,0.9-2.1c-0.2-0.3-1.7,0-2.1,1c-0.2,0.5,0,1.1,0.3,1.7
	C42.5,20.8,43.2,21.6,43.3,21.5z"/>
<path class="st6" d="M45.6,23.3"/>
<path class="st5" d="M50.1,24.7c0.4-0.4,0.1-1.4-0.4-1.7c-0.4-0.2-0.7,0-1.9,0.4c-1.4,0.4-1.8,0.3-1.8,0.4
	C45.9,24.2,49.4,25.6,50.1,24.7z"/>
<path class="st5" d="M47.3,27.4c0.4,0.3,1.1,0,1.3-0.5c0.1-0.4-0.2-0.9-0.6-1c-0.3-0.1-0.6,0.1-0.8,0.3
	C46.9,26.5,46.9,27.2,47.3,27.4z"/>
<path class="st5" d="M46.7,29.9c-0.2,0.8,0.9,1.7,1.6,1.5c0.4-0.1,0.6-0.7,0.6-1c0-0.5-0.3-1.2-0.9-1.3
	C47.4,28.9,46.8,29.4,46.7,29.9z"/>
<path class="st5" d="M47.8,19.6c0.3-0.5-0.6-1.7-1.1-1.6c-0.4,0.1-0.9,1.1-0.4,1.6C46.7,20.1,47.6,19.9,47.8,19.6z"/>
<path class="st5" d="M43,13.2c0.3-0.1,0.6,0.3,1,0.2c0.6-0.2,0.5-1.1,1.3-1.5c0.4-0.2,0.9-0.2,1.1,0.1c0.4,0.4,0.1,1.4-0.4,1.8
	c-0.8,0.6-1.7,0-2.4,0.6C43,15,43.2,15.8,43,15.8C42.8,15.8,42.3,13.5,43,13.2z"/>
<path class="st4" d="M54.2,15.1c0-0.4-0.3-0.9-0.7-1c-0.4,0-0.8,0.3-0.9,0.7c-0.1,0.6,0.5,1.2,1,1.1C54,15.9,54.2,15.5,54.2,15.1z"
	/>
<path class="st4" d="M53.2,10.7c0.7-0.8-0.2-2.6-0.6-2.6c-0.1,0-0.2,0.2-0.4,0.7c-0.4,1-0.6,1.8-0.3,2.1
	C52.2,11.2,52.9,11.1,53.2,10.7z"/>
<path class="st4" d="M70.4,42.1c0.3-0.6,0.1-1.5-0.5-1.8c-0.6-0.3-1.3,0.1-1.6,0.4c-0.4,0.5-0.7,1.2-0.4,1.7
	C68.4,43.1,70,43,70.4,42.1z"/>
<path class="st4" d="M72.7,43.4c0.8,0.1,1.1,0.8,1.3,0.7c0.3-0.1,0.3-1.1-0.2-1.7c-0.3-0.4-1-0.7-1-0.7l0,0c0.4,0.3-0.9-0.8-1.3-0.6
	c-0.5,0.2-0.6,1.9,0.1,2.3C71.9,43.6,72.1,43.3,72.7,43.4z"/>
<path class="st5" d="M77.6,36.3c-0.1-0.5-1.1-1.1-1.8-0.7c-0.7,0.4-0.6,1.6-0.2,1.9C76.3,37.9,77.7,37,77.6,36.3z"/>
<path class="st5" d="M79.8,33.3c-0.4-0.1-1.2,0.8-1,1.3c0.2,0.3,0.7,0.5,1,0.3C80.4,34.6,80.2,33.4,79.8,33.3z"/>
<path class="st5" d="M81.9,36.4c0.3-0.2-0.1-0.8,0.1-1.9c0.2-1.1,0.8-1.6,0.6-1.8c-0.2-0.2-1.3,0.3-1.8,1.2c0,0.1-0.7,1.3-0.1,2.1
	C81,36.3,81.6,36.6,81.9,36.4z"/>
<path class="st5" d="M84,30.8c0.5-0.6,0.1-1.7-0.6-1.9c-0.4-0.1-1,0-1.3,0.4c-0.3,0.5-0.2,1.3,0.3,1.6C82.9,31.2,83.7,31.1,84,30.8z
	"/>
<path class="st4" d="M55,91c0.1-0.3-0.3-0.5-0.4-1.1c-0.2-1,0.8-1.7,0.7-1.8c-0.2-0.2-1.3,0.3-1.6,1.3c-0.2,0.6-0.2,1.5,0.4,1.8
	C54.4,91.4,54.9,91.3,55,91z"/>
<path class="st4" d="M56.7,86.5c0.9,0.2,1.1,0.9,1.7,0.8c0.4-0.1,0.8-0.5,0.7-0.8c0-0.6-1-1-1.8-1c-1.2,0-2.2,0.8-2.1,1
	C55.3,86.7,55.9,86.3,56.7,86.5z"/>
<path class="st4" d="M55.9,83.2c0.4-0.4,0.5-1.3,0-1.6c-0.2-0.2-0.5-0.2-0.7-0.1c-0.4,0.1-0.6,0.5-0.9,1.2c-0.2,0.6-0.5,1.2-0.3,1.3
	c0.1,0.1,0.5,0,1.3-0.4C55.6,83.4,55.7,83.3,55.9,83.2z"/>
<path class="st4" d="M56.9,75.6c-0.2-0.2-0.8,0-1.2,0.4c-0.7,0.7-0.3,1.9,0.1,2C56.2,78.1,57.3,76,56.9,75.6z"/>
<path class="st5" d="M65.2,77.2c0.8-0.1,1.8,0.4,1.8,0.9c0,0.5-0.8,1-1.4,1.1c-0.8,0.2-1.9,0.1-2.1-0.4
	C63.4,78.3,64.2,77.4,65.2,77.2z"/>
<path class="st5" d="M70.1,79.2c0.5,0,1.5-0.1,1.7,0.4c0.2,0.4-0.4,0.9-0.5,1c-0.9,0.8-2.4,1.1-3.6,0.5c-0.3-0.2-0.8-0.4-0.8-0.8
	C67,79.7,68.9,79.3,70.1,79.2z"/>
<path class="st5" d="M71,74.3c-0.2-0.3-0.8-0.1-1.3-0.5c-0.4-0.4-0.2-0.8-0.7-1.2c-0.4-0.4-1.2-0.5-1.3-0.2
	c-0.2,0.3,0.6,0.8,1.2,2.2c0.5,1.1,0.4,1.6,0.7,1.7C70.3,76.4,71.4,74.8,71,74.3z"/>
<path class="st5" d="M67.1,74.2c-0.1-0.3-0.9-0.5-1.3-0.1c-0.3,0.4-0.2,1,0,1.1C66.2,75.5,67.2,74.6,67.1,74.2z"/>
<path class="st5" d="M80.9,76.1c0-0.1,0.7-0.8,0.4-1.6c-0.2-0.6-0.9-1.2-1.3-1c-0.6,0.2-0.3,1.2-1,1.6c-0.8,0.4-1.8-1-3.1-0.7
	c-0.7,0.1-1.4,0.7-1.3,1.1C74.7,76.5,79.4,77.8,80.9,76.1z"/>
<path class="st5" d="M58.4,67.4c0.1-0.6,0.2-1.4-0.3-1.8c-0.3-0.2-0.8-0.3-1.1-0.1c-0.4,0.3-0.4,1.1-0.2,2.1
	c0.1,0.8,0.2,1.9,0.6,1.9C57.7,69.6,58.2,68.4,58.4,67.4z"/>
<path class="st5" d="M61.1,68.1c-0.2,0.2-0.5,0.4-0.8,0.3c-0.4-0.1-0.6-0.7-0.4-1c0.2-0.4,0.8-0.6,1.2-0.3
	C61.3,67.3,61.3,67.8,61.1,68.1z"/>
<path class="st5" d="M66.1,66.4c0.1-0.4-0.7-1.2-1.2-1c-0.4,0.1-0.6,0.9-0.4,1.3C64.9,67.1,65.9,66.8,66.1,66.4z"/>
<path class="st5" d="M59.4,65c-0.4,0.1-1.1-0.5-1.1-1.2c0-0.5,0.3-1,0.7-1c0.5,0,1,0.8,0.9,1.5C59.8,64.3,59.8,64.9,59.4,65z"/>
</svg>
