<?xml version="1.0" encoding="utf-8"?>
<!-- Generator: Adobe Illustrator 26.0.3, SVG Export Plug-In . SVG Version: 6.00 Build 0)  -->
<svg version="1.1" id="Ebene_2_00000102515279259459330970000009961207141117840296_"
	 xmlns="http://www.w3.org/2000/svg" xmlns:xlink="http://www.w3.org/1999/xlink" x="0px" y="0px" viewBox="0 0 100 100"
	 style="enable-background:new 0 0 100 100;" xml:space="preserve">
<style type="text/css">
	.st0{fill:#603726;stroke:#000000;stroke-width:2;stroke-miterlimit:10;}
	.st1{fill:#804122;stroke:#000000;stroke-miterlimit:10;}
	.st2{fill:#493127;stroke:#000000;stroke-width:0.5;stroke-miterlimit:10;}
	.st3{fill:#5D4135;stroke:#000000;stroke-width:0.5;stroke-miterlimit:10;}
	.st4{fill:#5D4135;stroke:#000000;stroke-width:0.25;stroke-miterlimit:10;}
	.st5{fill:#493127;stroke:#000000;stroke-width:0.25;stroke-miterlimit:10;}
	.st6{fill:none;stroke:#000000;stroke-width:0.25;stroke-miterlimit:10;}
</style>
<polygon class="st0" points="8.2,74.2 50.2,98.5 92.2,74.2 92.2,25.8 50.2,1.5 8.2,25.8 "/>
<path class="st1" d="M68,11.8c-7.2-4.6-14.6-9.7-16.2-8.1C50.5,5,53.5,10.1,53,15.8c-0.5,5.2-2.8,5.3-3.6,12.3
	c-0.5,4.7,0.1,6.9-1.7,9.1c-2.9,3.7-9,3.2-9.6,3.1c-4.1-0.4-5.8-2.5-11.4-6.1C19,29.2,14.1,26,11.1,27.6c-1.4,0.7-2.2,2.3-2.9,18
	c-0.6,14.2-0.1,18.6,1.9,19.2c1.2,0.4,2.9-0.7,3.8-1.2c1.8-1.1,2.4-2.7,3.6-4.2c2.5-3.2,3.4-4.8,5-6c4-3.2,11.5-3.1,13.7,0.1
	c1.4,2.1,0.7,5.6-0.9,7.8c-2.1,2.9-4.7,1.9-7.7,5.1c-2.5,2.8-1.5,4.4-3.8,6.6c-3.7,3.5-9.3,1.3-9.9,2.9c-0.3,0.8,0.9,2.6,13.5,9.5
	C40,92.2,42,92.2,42.8,91.4c1-1.1-1.1-3-1-6.9c0.1-6.1,4.5-8.2,7.4-15.1c2.6-6.2,0-6.5,2.3-13.9c1.8-5.8,3.5-5.8,10.8-17.7
	c5.6-9.1,6-10.8,9-12.8C76.6,21.6,83,22,87,22.7C82.6,20.4,75.9,16.8,68,11.8z"/>
<path class="st2" d="M80.6,24.8c-0.7-0.3-4.5-1.7-6.8,0c-1.9,1.5-0.5,3.5-2.6,6.8c-1.9,3.1-4.5,3-4.6,5.3c0,1.6,0.8,3.8,2.3,4.2
	c1.8,0.5,2.7-1.9,5.4-2c2.9-0.1,3.9,2.5,5.9,1.9c1-0.3,1.6-1.6,2.9-4.2c0.3-0.6,1.2-2.4,1.7-4.6c0.2-0.8,0.3-1.5,0.2-2.3
	c0-0.8-0.2-1.5-0.4-2C84.1,27.1,82.8,25.6,80.6,24.8z"/>
<path class="st2" d="M72.6,44.9c-5-0.8-6.7-2-8-0.9c-1.7,1.5-1.2,6,1,7.8c2,1.7,4-0.1,6.2,1.6c2.2,1.7,1.3,4.5,3.9,6.2
	c1,0.6,1.1,0.2,3.1,1.1c3.3,1.4,4.1,2.9,5,2.6c1-0.4,0.7-2.6,0.7-6.2c0-7.8,1.5-9,0.2-10.6C83,44.4,80.4,46.2,72.6,44.9z"/>
<path class="st3" d="M76.5,65.9c-1.1-1.2-0.2-2.1-1.1-4.4c-1.1-2.9-4-5.5-6.9-5.4c-1.4,0-3,0.7-3.1,1.6c-0.1,1.1,2.3,1.5,2.6,3.3
	c0.1,0.5-0.1,0.9-1.4,3.3c-1.9,3.4-2.3,3.8-2.3,4.8c0,1.5,0.9,3.2,2.1,3.6c1.4,0.3,1.9-1.4,3.9-2c2.9-0.9,4.4,2,9.8,2.2
	c2.8,0.1,3.3-0.6,3.4-0.8c0.6-0.9-0.2-2.7-1.2-3.7C80.3,66.4,78.1,67.6,76.5,65.9z"/>
<path class="st3" d="M60.2,56.3c-2.8-1.8-2.4-4.4-3.7-4.4c-2-0.1-5,6.9-2.9,9.6c0.7,0.9,1.5,0.6,2.3,1.7c1.4,1.8,0,3.7,1.4,6
	c0.6,0.9,1.7,2.1,2.7,1.9c0.8-0.2,0.9-1.3,1.9-3.8c1.5-3.5,2.7-4,2.6-6.1c0-0.4-0.1-1.4-0.8-2.4C62.9,57.3,61.7,57.3,60.2,56.3z"/>
<path class="st2" d="M61.2,75.9c-0.2,1,1.1,1.3,1.9,3.9c0.9,2.8-0.1,4.1,0.9,5.1c1.2,1.2,4.3,1.1,5.7-0.3c1.6-1.6,0.3-4.1,2-5.2
	c1.2-0.9,2.6-0.1,3.1-0.9c0.6-0.8-0.2-2.6-1.2-3.7C70.2,71.4,61.8,73.4,61.2,75.9z"/>
<path class="st3" d="M49.4,70.8c-1.4,3.2,0,6.3,0.2,6.7c0.7,1.4,1,1.1,1.9,2.7c1,1.9,0.8,2.8,1.7,6.7c1,4.3,1.7,4.6,2,4.7
	c0.8,0.2,1.6-0.7,2.7-1.9c1.1-1.2,2.9-3.2,3.4-6.4c0.3-1.5,0.6-3.3-0.3-5.1c-1.2-2.3-2.9-1.8-4.6-4c-2.4-3.2-0.6-6.8-2.1-7.4
	C53,66,50.5,68.4,49.4,70.8z"/>
<path class="st2" d="M45,84c-0.2,1.2,0.1,1.4,0.8,4.9c0.5,3,0.4,3.9,1.2,4.3c0.9,0.5,2.2,0.2,3-0.4c2.4-1.7,1.4-6.2,1.2-7.1
	c-0.4-1.7-1.6-5.4-3.3-5.4C46.6,80.2,45.3,82.3,45,84z"/>
<path class="st2" d="M29.8,56.5c-1.1-0.4-0.8-2-1.7-2.3c-1.6-0.6-5,3.4-4.3,4.3c0.3,0.5,1.2-0.2,2.7,0.4c0.6,0.2,1.1,0.8,2.2,1.9
	c1.4,1.4,1.4,1.6,1.8,1.7c1.7,0.5,5-2.6,4.3-4.9c-0.2-0.7-0.9-1.6-1.8-1.8C31.7,55.5,30.8,56.8,29.8,56.5z"/>
<path class="st3" d="M26.7,60c-0.6-0.3-1.1,0.3-2.3,0.8c-2.6,0.9-3.7-0.6-6,0.2c-1.9,0.7-2.9,2.4-3,2.7c-0.6,1.1-0.5,2.3-0.4,4.8
	c0.1,2.7,0.2,4,0.9,4.4c1.4,0.8,3.9-1.2,4.7-1.8c2.5-2,1.9-3.1,4.7-5.3c1.3-1,2.1-1.3,2.4-2.4C28,62.1,27.6,60.4,26.7,60z"/>
<path class="st3" d="M44.8,26.3c-1,0.1-1,2.3-2.6,2.8c-0.9,0.3-1.2-0.3-2.2-0.1c-1.6,0.3-1.5,1.8-3.1,2.3c-1.2,0.4-1.5-0.4-3.6-0.2
	c-0.8,0.1-2.4,0.2-2.7,1c-0.3,0.8,0.8,1.9,1.6,2.7c1.6,1.5,4.7,4.6,8.4,3.7c0.3-0.1,2.2-0.6,3.4-2.3c0.8-1.2,0.3-1.5,1.3-4.4
	c0.7-2,1.2-2.7,0.9-3.8C46.1,27.1,45.4,26.3,44.8,26.3z"/>
<path class="st2" d="M44.4,6.3c-0.9,0.5-0.8,0.9-2.1,2.4c-2.3,2.6-3.8,2.6-4,4c-0.1,0.9,0.5,1.1,1.9,3.4c1.5,2.6,2.3,3.9,2.1,5.4
	c-0.3,2.1-2.3,2.8-1.9,4.2c0.2,1,1.4,1.8,2.3,1.7c1.3-0.1,2.1-1.8,3.4-4.9c0.8-1.7,1.3-2.9,1.7-4.6c0.8-3.6-0.1-4.2,0.8-7
	c0.8-2.6,2-3.2,1.6-4.2C49.6,5.5,46.4,5.1,44.4,6.3z"/>
<path class="st3" d="M32.9,14.3c-2.6,0.4-2.6,3.2-5.4,4.4c-2,0.8-2.7-0.2-5.7,0.9c-1.2,0.5-2.1,1-2.8,1.4c-1.7,1.1-2.6,1.6-3,2.7
	c-0.5,1.1-0.5,2.9,0.4,3.7c1,0.8,2-0.3,4.2,0.1c2.2,0.4,2.4,1.7,4.2,1.8c1.9,0.1,2.2-1.3,4.1-1.2c1.9,0,2.1,1.3,4,1.4
	c2.4,0.2,4.3-1.7,4.7-2.1c1.5-1.5,2.6-4,2-6.2c-0.1-0.4-0.1-0.2-1.6-2.7c-1.5-2.5-1.7-3.3-2.7-3.8C34.3,14.1,33.1,14.3,32.9,14.3z"
	/>
<path class="st4" d="M80.9,30.5c-0.7,0.4-1.6-0.5-2.2,0c-0.4,0.3-0.4,1.2-0.1,1.7c0.8,1,3.3,0.5,3.7-0.5c0.1-0.3-0.1-0.4-0.3-1.6
	c-0.2-1.2-0.3-1.9-0.4-1.9C81.5,28.1,81.7,29.9,80.9,30.5z"/>
<path class="st4" d="M74.7,28c-0.4,0.8-0.9,2.1-0.7,2.3c0.2,0.1,0.5-0.7,2-2c0.3-0.3,0.6-0.5,0.7-1c0-0.5-0.2-1-0.6-1
	C75.6,26.2,75,27.3,74.7,28z"/>
<path class="st4" d="M79.5,38.1c-0.8,0.8-2.2,1-3,0.4c-0.3-0.3-0.6-1-0.4-1.3c0.4-0.7,2.1,0.1,2.5-0.5c0.3-0.5-0.5-1.2-0.2-1.7
	c0.2-0.3,0.7-0.4,1-0.2C80.3,35.1,80.6,37.1,79.5,38.1z"/>
<path class="st4" d="M73.7,33.3c-0.2,0.4,0.5,1.3,1,1.2c0.4-0.1,0.8-0.9,0.5-1.3C75,32.7,73.9,32.8,73.7,33.3z"/>
<path class="st4" d="M69.9,34.4c-1.2,0.9-1.9,2.7-1.2,3.6c0.4,0.4,1.1,0.6,1.4,0.4c0.5-0.4-0.5-1.7,0-2.2c0.5-0.5,1.5,0.4,2.2-0.2
	c0.5-0.4,0.6-1.4,0.2-1.8C72,33.5,70.6,33.8,69.9,34.4z"/>
<path class="st4" d="M83,50.8c-0.1,0.7-0.6,2.2-1,2.2c-0.4,0-0.8-1.5-0.4-2.7c0.3-0.9,1-1.7,1.3-1.6C83.4,48.8,83.1,50.5,83,50.8z"
	/>
<path class="st4" d="M77.2,52.7c-0.4,0-0.9-0.5-0.9-0.9c0.1-0.7,1.5-1.1,1.8-0.7C78.4,51.4,77.9,52.7,77.2,52.7z"/>
<path class="st4" d="M81.2,55.6c-0.4,0.8-2,0.6-2.2,0.6c-0.7-0.1-1.6-0.5-1.6-0.8c0-0.2,0.5-0.2,1.2-0.7c0.9-0.6,0.9-1.2,1.3-1.3
	C80.6,53.4,81.6,54.8,81.2,55.6z"/>
<path class="st4" d="M76.4,48.4c-0.1-0.3,0.7-0.8,1.4-1c0.6-0.1,1.5-0.1,1.6,0.2c0.1,0.3-0.6,0.8-1.3,1
	C77.4,48.9,76.5,48.8,76.4,48.4z"/>
<path class="st4" d="M71,47.1c-0.9,0.8-1.3,2.4-0.6,3c0.6,0.5,1.9,0.3,2.1-0.2c0.2-0.5-0.8-0.8-0.7-1.5c0.1-0.9,2.1-1.1,2.1-1.5
	C73.9,46.7,72.1,46.2,71,47.1z"/>
<path class="st4" d="M65.3,47.2c-0.1,0.4,0.5,1,1.3,1c0.9,0,1.5-1.1,1.3-1.5C67.6,46.3,65.5,46.6,65.3,47.2z"/>
<path class="st5" d="M77,69.4c0.9,0.2,1.2,1.3,1.4,1.3c0.2-0.1,0.2-1.4-0.7-2.2c-0.8-0.7-2.2-0.6-2.4-0.2c-0.2,0.3,0.1,0.8,0.4,1
	C76.1,69.7,76.5,69.3,77,69.4z"/>
<path class="st5" d="M70.2,65.2c-0.2,0.2,1.1,1.5,0.7,1.9c-0.4,0.6-2.7-0.7-3.2-0.1c-0.3,0.3,0,1.1,0.4,1.5c1,1.1,3.6,0.8,4.1-0.4
	c0.4-0.9-0.4-1.9-0.5-2C71.2,65.4,70.3,65,70.2,65.2z"/>
<path class="st5" d="M71.7,61.9c-0.4-0.7-1.6-0.8-2.3-0.3c-0.5,0.4-0.8,1.1-0.6,1.6c0.3,0.8,2.1,1,2.7,0.2
	C71.9,63,72,62.4,71.7,61.9z"/>
<path class="st5" d="M69.6,57.9c-0.3,0-1,0.8-0.7,1.3c0.2,0.3,0.8,0.4,1,0.2C70.3,59.1,69.9,58,69.6,57.9z"/>
<path class="st4" d="M71.2,77.2c-0.1-0.7-1.1-1.1-1.8-1c-0.9,0-2,0.6-1.9,1.2c0,0.8,2,1.7,3.1,1C70.9,78.2,71.3,77.7,71.2,77.2z"/>
<path class="st4" d="M65,78.4c-0.1-0.3-0.5-0.6-0.8-0.5c-0.5,0.1-0.8,1-0.4,1.4c0.2,0.3,0.8,0.3,1.1,0C65.1,79.1,65.1,78.7,65,78.4z
	"/>
<path class="st4" d="M66.7,81.3c0,0.4,0.6,0.9,1.3,0.7c0.7-0.2,0.9-1.2,0.6-1.5C68.2,80.2,66.7,80.8,66.7,81.3z"/>
<path class="st5" d="M62.8,61.3c0.2-0.4-0.1-1-0.6-1.3c-0.7-0.4-1.8,0.2-2.1,1c-0.4,0.9,0.2,1.7,0.4,2c0.6,0.8,1.6,1.4,2,1.1
	c0.2-0.2,0.2-0.7,0.2-0.7c-0.1-0.8-1-1.1-0.9-1.5C61.9,61.5,62.6,61.7,62.8,61.3z"/>
<path class="st5" d="M59.6,59.3c0.2,0.4-0.4,1.2-1.2,1.5c-0.2,0-0.5,0.2-0.7,0c-0.3-0.3,0.1-1.4,0.9-1.6
	C59,59.1,59.5,59.1,59.6,59.3z"/>
<path class="st5" d="M57.2,54.8c-0.4-0.2-0.8,0.1-1,0.4c-0.3,0.4-0.3,1.1,0.1,1.3c0.4,0.2,1.2-0.2,1.3-0.7
	C57.6,55.5,57.5,55,57.2,54.8z"/>
<path class="st5" d="M59.9,66.2c-1,1.1-1.2,1.3-1.1,1.4c0.1,0.2,0.8,0.3,1.3,0.1c1.1-0.5,1.2-2.3,0.9-2.4
	C60.9,65.2,60.8,65.3,59.9,66.2z"/>
<path class="st5" d="M56.9,78.5c-0.2,0.1,0.5,0.9,0.3,2.1c-0.2,1.2-1.1,1.8-0.9,2.1c0.2,0.3,1.7,0,2.1-1c0.2-0.5,0-1.1-0.3-1.7
	C57.7,79.2,57.1,78.4,56.9,78.5z"/>
<path class="st6" d="M54.7,76.7"/>
<path class="st5" d="M50.1,75.3c-0.4,0.4-0.1,1.4,0.4,1.7c0.4,0.2,0.7,0,1.9-0.4c1.4-0.4,1.8-0.3,1.8-0.4
	C54.3,75.8,50.8,74.4,50.1,75.3z"/>
<path class="st5" d="M52.9,72.6c-0.4-0.3-1.1,0-1.3,0.5c-0.1,0.4,0.2,0.9,0.6,1c0.3,0.1,0.6-0.1,0.8-0.3
	C53.3,73.5,53.3,72.8,52.9,72.6z"/>
<path class="st5" d="M53.5,70.1c0.2-0.8-0.9-1.7-1.6-1.5c-0.4,0.1-0.6,0.7-0.6,1c0,0.5,0.3,1.2,0.9,1.3
	C52.8,71.1,53.4,70.6,53.5,70.1z"/>
<path class="st5" d="M52.4,80.4c-0.3,0.5,0.6,1.7,1.1,1.6c0.4-0.1,0.9-1.1,0.4-1.6C53.5,79.9,52.6,80.1,52.4,80.4z"/>
<path class="st5" d="M57.3,86.8c-0.3,0.1-0.6-0.3-1-0.2c-0.6,0.2-0.5,1.1-1.3,1.5c-0.4,0.2-0.9,0.2-1.1-0.1
	c-0.4-0.4-0.1-1.4,0.4-1.8c0.8-0.6,1.7,0,2.4-0.6c0.6-0.5,0.4-1.4,0.5-1.4C57.4,84.2,57.9,86.5,57.3,86.8z"/>
<path class="st4" d="M46,84.9c0,0.4,0.3,0.9,0.7,1c0.4,0,0.8-0.3,0.9-0.7c0.1-0.6-0.5-1.2-1-1.1C46.2,84.1,46,84.5,46,84.9z"/>
<path class="st4" d="M47,89.3c-0.7,0.8,0.2,2.6,0.6,2.6c0.1,0,0.2-0.2,0.4-0.7c0.4-1,0.6-1.8,0.3-2.1C48,88.8,47.4,88.9,47,89.3z"/>
<path class="st4" d="M29.8,57.9c-0.3,0.6-0.1,1.5,0.5,1.8c0.6,0.3,1.3-0.1,1.6-0.4c0.4-0.5,0.7-1.2,0.4-1.7
	C31.8,56.9,30.2,57,29.8,57.9z"/>
<path class="st4" d="M27.6,56.6c-0.8-0.1-1.1-0.8-1.3-0.7c-0.3,0.1-0.3,1.1,0.2,1.7c0.3,0.4,1,0.7,1,0.7l0,0
	c-0.4-0.3,0.9,0.8,1.3,0.6c0.5-0.2,0.6-1.9-0.1-2.3C28.4,56.4,28.1,56.7,27.6,56.6z"/>
<path class="st5" d="M22.6,63.7c0.1,0.5,1.1,1.1,1.8,0.7c0.7-0.4,0.6-1.6,0.2-1.9C24,62.1,22.5,63,22.6,63.7z"/>
<path class="st5" d="M20.4,66.7c0.4,0.1,1.2-0.8,1-1.3c-0.2-0.3-0.7-0.5-1-0.3C19.8,65.4,20,66.6,20.4,66.7z"/>
<path class="st5" d="M18.4,63.6c-0.3,0.2,0.1,0.8-0.1,1.9c-0.2,1.1-0.8,1.6-0.6,1.8c0.2,0.2,1.3-0.3,1.8-1.2c0-0.1,0.7-1.3,0.1-2.1
	C19.3,63.7,18.6,63.4,18.4,63.6z"/>
<path class="st5" d="M16.2,69.2c-0.5,0.6-0.1,1.7,0.6,1.9c0.4,0.1,1,0,1.3-0.4c0.3-0.5,0.2-1.3-0.3-1.6
	C17.3,68.8,16.6,68.9,16.2,69.2z"/>
<path class="st4" d="M45.2,9c-0.1,0.3,0.3,0.5,0.4,1.1c0.2,1-0.8,1.7-0.7,1.9s1.3-0.3,1.6-1.3c0.2-0.6,0.2-1.5-0.4-1.8
	C45.9,8.6,45.3,8.7,45.2,9z"/>
<path class="st4" d="M43.6,13.5c-0.9-0.2-1.1-0.9-1.7-0.8c-0.4,0.1-0.8,0.5-0.7,0.8c0,0.6,1,1,1.8,1c1.2,0,2.2-0.8,2.1-1
	C44.9,13.3,44.4,13.7,43.6,13.5z"/>
<path class="st4" d="M44.4,16.8c-0.4,0.4-0.5,1.3,0,1.6c0.2,0.2,0.5,0.2,0.7,0.1c0.4-0.1,0.6-0.5,0.9-1.2c0.2-0.6,0.5-1.1,0.3-1.3
	c-0.1-0.1-0.5,0-1.3,0.4C44.7,16.6,44.5,16.7,44.4,16.8z"/>
<path class="st4" d="M43.3,24.4c0.2,0.2,0.8,0,1.2-0.4c0.7-0.7,0.3-1.9-0.1-2C44,21.9,42.9,24,43.3,24.4z"/>
<path class="st5" d="M35,22.8c-0.8,0.1-1.8-0.4-1.8-0.9c0-0.5,0.8-1,1.4-1.1c0.8-0.2,1.9-0.1,2.1,0.4C36.8,21.7,36,22.6,35,22.8z"/>
<path class="st5" d="M30.1,20.8c-0.5,0-1.5,0.1-1.7-0.4c-0.2-0.4,0.4-0.9,0.5-1c0.9-0.8,2.4-1.1,3.6-0.5c0.3,0.1,0.8,0.4,0.8,0.8
	C33.2,20.3,31.3,20.7,30.1,20.8z"/>
<path class="st5" d="M29.2,25.7c0.2,0.3,0.8,0.1,1.3,0.5c0.4,0.4,0.2,0.8,0.7,1.2s1.2,0.5,1.3,0.2c0.2-0.3-0.6-0.8-1.2-2.1
	c-0.5-1.1-0.4-1.6-0.7-1.7C29.9,23.6,28.9,25.1,29.2,25.7z"/>
<path class="st5" d="M33.1,25.8c0.1,0.3,0.9,0.5,1.3,0.1c0.3-0.4,0.2-1,0-1.1C34.1,24.5,33,25.4,33.1,25.8z"/>
<path class="st5" d="M19.3,23.9c0,0-0.7,0.8-0.4,1.6c0.2,0.6,0.9,1.2,1.3,1c0.6-0.2,0.3-1.2,1-1.6c0.8-0.4,1.8,1,3.1,0.7
	c0.7-0.1,1.4-0.7,1.3-1.1C25.5,23.5,20.8,22.2,19.3,23.9z"/>
<path class="st5" d="M41.9,32.6c-0.1,0.6-0.2,1.4,0.3,1.8c0.3,0.2,0.8,0.3,1.1,0.1c0.4-0.3,0.4-1.1,0.2-2.1
	c-0.1-0.8-0.2-1.9-0.6-1.9C42.5,30.4,42,31.6,41.9,32.6z"/>
<path class="st5" d="M39.1,31.9c0.2-0.2,0.5-0.4,0.8-0.3c0.4,0.1,0.6,0.7,0.4,1c-0.2,0.4-0.8,0.6-1.2,0.3
	C38.9,32.7,38.9,32.2,39.1,31.9z"/>
<path class="st5" d="M34.1,33.6c-0.1,0.4,0.7,1.2,1.2,1c0.4-0.1,0.6-0.9,0.4-1.3C35.4,33,34.3,33.2,34.1,33.6z"/>
<path class="st5" d="M40.8,35c0.4-0.1,1.1,0.5,1.1,1.2c0,0.5-0.3,1-0.7,1c-0.5,0-1-0.8-0.9-1.5C40.4,35.7,40.5,35.1,40.8,35z"/>
</svg>
