<?xml version="1.0" encoding="utf-8"?>
<!-- Generator: Adobe Illustrator 26.0.3, SVG Export Plug-In . SVG Version: 6.00 Build 0)  -->
<svg version="1.1" id="Ebene_2_00000126308112139821010380000011903406711838980787_"
	 xmlns="http://www.w3.org/2000/svg" xmlns:xlink="http://www.w3.org/1999/xlink" x="0px" y="0px" viewBox="0 0 100 100"
	 style="enable-background:new 0 0 100 100;" xml:space="preserve">
<style type="text/css">
	.st0{fill:#603726;stroke:#000000;stroke-width:2;stroke-miterlimit:10;}
	.st1{fill:#804122;stroke:#000000;stroke-miterlimit:10;}
	.st2{fill:#493127;stroke:#000000;stroke-width:0.5;stroke-miterlimit:10;}
	.st3{fill:#5D4135;stroke:#000000;stroke-width:0.25;stroke-miterlimit:10;}
	.st4{fill:#5D4135;stroke:#000000;stroke-width:0.5;stroke-miterlimit:10;}
	.st5{fill:#493127;stroke:#000000;stroke-width:0.25;stroke-miterlimit:10;}
	.st6{fill:none;stroke:#000000;stroke-width:0.25;stroke-miterlimit:10;}
</style>
<polygon class="st0" points="91.6,25.7 49.6,1.5 7.6,25.7 7.6,74.2 49.6,98.5 91.6,74.2 "/>
<path class="st1" d="M65,89.6c6.9-3.7,10.4-5.5,10.5-6.9c0.6-5.1-23.5-9.4-23-13.3c0.5-3.7,21.9-2.7,23.7-2.2
	c0.3,0.1,1.5,0.5,3.2,0.7c4,0.5,8.6,1.1,11-1.2c1.6-1.5,1.3-3.4,1.3-10.9c0-12,0.5-15.2-1-15.8c-1.5-0.6-2.8,2.4-7.6,6.2
	c-2.1,1.7-10.5,8.5-20.2,7.5c-1.9-0.2-1-0.4-6.5-1.6c-7.4-1.6-11.1-2.4-14.1-1.9c-1.5,0.2-3.9,0.8-7,0.1c-4.1-0.8-4.5-2-9-3.6
	c-6.2-2.2-7.4-0.8-11.8-3.1c-3.3-1.8-4.3-3.5-5.5-2.9c-1,0.4-1.1,1.9-1.3,9c-0.2,5.2-0.2,7.9,0.2,8.4c1.9,2.7,7,3,17.2,3.7
	c3,0.2,5.1,0.2,5.9,1.6c1.3,2.2-1.6,6.1-2.4,7.1c-4.3,5.8-9.9,6.4-9.8,8.9c0.1,1.1,1.2,1.7,4.9,3.9c3.5,2,7,4.2,9.9,5.7
	c12.6,6.5,13.2,9.1,16.8,8.4c1.7-0.3,1.2-0.8,9-5C62.2,91,62.5,90.9,65,89.6z"/>
<g>
	<path class="st2" d="M10.3,29.2c-0.2,0.4-1.2,2.3-0.6,3.6c0.6,1.1,1.7,0.6,3.2,1.9c1.4,1.3,1.1,2.6,2.3,2.8
		c0.8,0.1,1.9-0.1,2.3-0.9c0.4-0.9-0.7-1.6-0.5-3c0.2-1.5,1.6-1.9,1.4-3c-0.1-0.5-0.7-1-1.9-1.9c-0.3-0.2-1.1-0.8-2.1-1.2
		c-0.4-0.2-0.7-0.3-1.1-0.3c-0.4,0-0.8,0-1,0C11.8,27.5,10.9,28.1,10.3,29.2z"/>
	<path class="st3" d="M13.2,29.4c0.2,0.4-0.4,0.8-0.2,1.2c0.1,0.2,0.6,0.3,0.8,0.2c0.6-0.3,0.5-1.7,0-2c-0.1-0.1-0.2,0-0.8,0
		c-0.6,0-1,0-1,0C12.1,29,13,29,13.2,29.4z"/>
	<path class="st3" d="M11.4,32.6c0.4,0.3,1,0.7,1.1,0.5c0.1-0.1-0.3-0.3-0.8-1.2c-0.1-0.2-0.2-0.4-0.4-0.4c-0.2-0.1-0.5,0.1-0.6,0.2
		C10.6,32,11.1,32.3,11.4,32.6z"/>
	<path class="st3" d="M16.9,30.8c0.3,0.5,0.3,1.3-0.1,1.6c-0.2,0.2-0.5,0.3-0.7,0.1c-0.3-0.3,0.2-1.1-0.1-1.4
		c-0.2-0.2-0.6,0.2-0.9,0c-0.1-0.1-0.1-0.4,0-0.6C15.4,30.1,16.4,30.1,16.9,30.8z"/>
	<path class="st3" d="M14,33.5c0.2,0.1,0.7-0.2,0.7-0.5c0-0.2-0.4-0.5-0.6-0.4C13.8,32.8,13.8,33.4,14,33.5z"/>
	<path class="st3" d="M14.2,35.6c0.3,0.7,1.2,1.2,1.7,0.9c0.2-0.2,0.4-0.5,0.3-0.7c-0.2-0.3-0.9,0.1-1.1-0.2
		c-0.2-0.3,0.3-0.8,0.1-1.2c-0.2-0.3-0.6-0.4-0.9-0.3C13.9,34.4,14,35.2,14.2,35.6z"/>
</g>
<g>
	<path class="st4" d="M40.1,19.5c1.2,0.5,1.1,1.5,2.7,2.9c2,1.8,5,2.6,6.8,1.5c0.8-0.6,1.6-1.7,1.2-2.3c-0.4-0.9-2.1-0.3-3.1-1.5
		c-0.3-0.4-0.4-0.7-0.6-3c-0.3-3.3-0.3-3.7-0.7-4.5c-0.7-1.1-2-2.1-2.9-1.9c-1,0.3-0.5,1.7-1.5,3c-1.4,1.8-3.7,0.2-7.1,2
		c-1.8,1-1.8,1.7-1.8,1.9c0.1,0.9,1.3,1.9,2.4,2.3C37.5,20.5,38.4,18.8,40.1,19.5z"/>
	<path class="st5" d="M38.2,17c-0.7,0.2-1.4-0.5-1.5-0.4c-0.1,0.1,0.6,1.1,1.4,1.3c0.8,0.2,1.7-0.4,1.6-0.8c0-0.3-0.4-0.6-0.7-0.6
		C38.7,16.5,38.7,16.9,38.2,17z"/>
	<path class="st5" d="M44.5,17.6c0-0.3-1.3-0.7-1.3-1.2c0-0.6,2-0.5,2-1.2c0-0.4-0.5-0.8-0.9-0.9c-1.1-0.4-2.6,0.8-2.4,1.9
		c0.2,0.8,1.1,1.3,1.2,1.3C43.7,17.8,44.4,17.7,44.5,17.6z"/>
	<path class="st5" d="M45,20.6c0.6,0.4,1.4,0,1.6-0.6c0.1-0.5,0-1.1-0.3-1.4c-0.6-0.5-1.7,0.1-1.8,0.9C44.4,19.9,44.6,20.3,45,20.6z
		"/>
	<path class="st5" d="M48.1,22.8c0.2-0.1,0.3-1-0.2-1.2c-0.3-0.2-0.7,0-0.8,0.2C47.1,22.1,47.8,22.9,48.1,22.8z"/>
</g>
<g>
	<path class="st4" d="M78.9,75.6c-0.5,1.9-2.2,2.8-1.9,3.3c0.5,0.9,5.8-0.6,7-2.6c0.4-0.7,0-0.8,0.5-1.7c0.8-1.3,2.4-1.5,3.5-3
		c0.5-0.6,0.9-1.6,0.5-1.9c-0.3-0.3-1.1,0.2-2.9,0.7c-2.6,0.8-3.3,0.5-4.6,1.4c-0.2,0.2-0.9,0.6-1.4,1.3
		C78.9,74.1,79.2,74.6,78.9,75.6z"/>
	<path class="st5" d="M81.4,72.6c-0.3,0.1-0.6,0.5-0.7,0.8c-0.1,0.4,0.6,0.7,1.2,0.5c0.7-0.2,1.1-0.8,1.2-1c0.4-0.6,0.5-1.2,0.2-1.3
		c-0.2,0-0.5,0.2-0.5,0.2c-0.5,0.4-0.5,0.9-0.7,1C81.9,72.9,81.8,72.5,81.4,72.6z"/>
	<path class="st5" d="M81,74.7c0.2-0.2,0.9-0.3,1.3-0.1c0.1,0,0.2,0.2,0.2,0.3c-0.1,0.2-0.9,0.5-1.3,0.3C81,75.1,80.9,74.8,81,74.7z
		"/>
	<path class="st5" d="M78.7,77.5c0,0.2,0.3,0.3,0.5,0.3c0.4,0,0.8-0.3,0.8-0.6c0.1-0.3-0.4-0.4-0.8-0.3C79,77.1,78.7,77.3,78.7,77.5
		z"/>
	<path class="st5" d="M85.4,71.8c1,0,1.1,0,1.2-0.1c0.1-0.1,0-0.4-0.3-0.6c-0.6-0.3-1.8,0.4-1.8,0.6C84.5,71.8,84.6,71.8,85.4,71.8z
		"/>
</g>
<path class="st6" d="M45.2,23.3"/>
<g>
	<path class="st4" d="M21.6,64.3c-1.4-1.5-3.3-1.1-3.6-1c-0.9,0.2-0.8,0.5-1.8,0.8c-1.2,0.4-1.7,0-3.9,0c-2.5,0-2.8,0.4-2.9,0.6
		c-0.3,0.5,0,1.2,0.4,2.2c0.4,1,1,2.6,2.6,3.5c0.7,0.4,1.6,1,2.8,0.7c1.5-0.4,1.6-1.7,3.2-2.5c2.2-1.1,3.8,0.8,4.4-0.2
		C23.4,67.6,22.7,65.4,21.6,64.3z"/>
	<path class="st5" d="M15.8,68.1c0-0.1-0.6,0.2-1.2-0.2c-0.6-0.3-0.7-1.1-0.9-1c-0.2,0.1-0.4,1.2,0,1.6c0.2,0.2,0.6,0.2,1,0.1
		C15.3,68.6,15.8,68.3,15.8,68.1z"/>
	<path class="st5" d="M19.1,64c-0.2-0.3-0.7-0.3-1,0c-0.2,0.2-0.1,0.5-0.2,1.4c-0.1,1-0.3,1.3-0.2,1.4C17.9,66.8,19.4,64.6,19.1,64z
		"/>
	<path class="st5" d="M19.9,66.4c0.2-0.2,0.3-0.8,0-1c-0.2-0.2-0.5-0.1-0.7,0.2c-0.1,0.2-0.1,0.5,0,0.6
		C19.3,66.5,19.7,66.6,19.9,66.4z"/>
	<path class="st5" d="M21.1,67.2c0.4,0.3,1.1-0.3,1.1-0.8c0-0.3-0.2-0.5-0.4-0.6c-0.3-0.1-0.7,0-0.9,0.4
		C20.7,66.6,20.8,67.1,21.1,67.2z"/>
	<path class="st5" d="M15.8,64.7c-0.2-0.3-1.1,0.1-1.1,0.5c-0.1,0.3,0.4,0.8,0.8,0.6C15.8,65.5,16,64.9,15.8,64.7z"/>
	<path class="st5" d="M11.3,67c0-0.2,0.3-0.3,0.4-0.7c0.1-0.5-0.5-0.6-0.5-1.1c0-0.3,0.1-0.6,0.3-0.8c0.3-0.2,0.8,0.1,0.9,0.6
		c0.2,0.6-0.4,1.2-0.2,1.7c0.2,0.5,0.7,0.5,0.6,0.6C12.7,67.5,11.3,67.4,11.3,67z"/>
</g>
<g>
	<path class="st2" d="M74.2,28.2c0.2,1.8,0.9,1.9,3.6,6.4c2.3,3.9,2.5,5.2,4.1,5.4c1.8,0.2,3.9-1,5-2.3c3.3-3.8-0.4-9.5-1.1-10.7
		c-1.4-2.2-5.2-6.7-8.3-5.7C75.2,22,74,25.6,74.2,28.2z"/>
	<path class="st3" d="M76.3,28.9c0.2,0.6,0.9,1.1,1.7,0.9c0.8-0.2,1.3-1,1.2-1.5c-0.1-0.9-1.5-1.4-2.3-1
		C76.4,27.6,76.2,28.3,76.3,28.9z"/>
	<path class="st3" d="M80.1,34.4c-0.9,1.5,1.6,3.6,2.2,3.3c0.2-0.1,0.2-0.5,0.3-1.2c0.1-1.7,0.3-2.9-0.4-3.1
		C81.6,33.2,80.6,33.7,80.1,34.4z"/>
</g>
<g>
	<path class="st2" d="M64.1,69.6c-1.3-0.2-1.1-1.5-2.2-1.7c-2-0.3-5.9,3.2-5,4c0.4,0.3,1.5-0.3,3.3,0.1c0.7,0.1,1.4,0.5,2.9,1.3
		c1.8,1,1.8,1.1,2.3,1.2c2.1,0.2,6-2.6,5-4.4c-0.3-0.6-1.2-1.2-2.3-1.3C66.3,68.6,65.4,69.8,64.1,69.6z"/>
	<path class="st3" d="M64.1,70.8c-0.3,0.5-0.1,1.3,0.8,1.5c0.8,0.2,1.6-0.2,2-0.5c0.5-0.4,0.8-1.1,0.3-1.4
		C66.6,69.8,64.7,70,64.1,70.8z"/>
	<path class="st3" d="M61.3,70c-1,0-1.4-0.5-1.7-0.4c-0.3,0.1-0.3,1,0.4,1.4c0.4,0.3,1.2,0.5,1.2,0.5l0,0c-0.5-0.2,1.1,0.5,1.7,0.3
		c0.6-0.2,0.6-1.6-0.2-1.9C62.3,69.7,62.1,70,61.3,70z"/>
</g>
<g>
	<path class="st4" d="M62.8,47.7c1.2-0.7,0.8-2.2,1.6-4.7c1.7-5.3,5.6-5.2,7.1-9.9c1.2-4-0.4-7.7-0.7-8.2c-1.1-2.3-3.2-3.8-7.3-6.7
		c-4.5-3.2-6.8-4.8-8.4-4.2c-3,1.2-2.9,7.8-2.8,9.8c0.1,6.5,2.7,7.1,3,14.3c0.1,3.3-0.4,5,1,7C57.7,47.2,61,48.7,62.8,47.7z"/>
	<path class="st5" d="M62.4,38.5c-0.9-0.5-3.2,0.3-3.3,2c-0.2,1.7,2,3,3,2.7C63.4,42.7,63.6,39.2,62.4,38.5z"/>
	<path class="st5" d="M60.3,31.2c-0.6,0.4-0.3,2.9,0.9,3.1c0.7,0.2,1.7-0.5,1.8-1.3C63,31.8,60.9,30.7,60.3,31.2z"/>
	<path class="st5" d="M67.8,31.8c0-0.8-1.5-0.9-3.1-2.6C63.1,27.6,63,26,62.5,26c-0.6,0.1-1.1,2.4-0.2,4.4c0.1,0.1,1.3,2.8,3.3,2.7
		C66.6,33.1,67.7,32.5,67.8,31.8z"/>
	<path class="st5" d="M61.2,21.2c-0.3-1.5-2.6-2.4-3.9-1.5c-0.8,0.5-1.2,1.6-0.8,2.6c0.4,1.2,1.8,1.9,3.1,1.6
		C60.7,23.6,61.4,22.3,61.2,21.2z"/>
</g>
<g>
	<path class="st4" d="M74.6,78.7c0.5-0.5-0.3-1.5,0.3-2.4c0.4-0.5,0.7-0.3,1.2-0.9c0.7-0.8,0.1-1.5,0.8-2.4c0.5-0.7,1-0.5,2-1.4
		c0.4-0.4,1.2-1.1,1-1.6c-0.1-0.5-1.2-0.6-1.8-0.6c-1.4-0.1-4.3-0.2-5.9,1.9c-0.1,0.2-1,1.2-1,2.6c0,0.9,0.4,0.9,1,2.7
		c0.4,1.3,0.4,1.8,1,2.2C73.6,78.9,74.3,79,74.6,78.7z"/>
	<path class="st5" d="M73.8,74.5c-0.2-0.3-0.4-0.7-0.8-0.7c-0.2,0-0.5,0.2-0.6,0.4c-0.1,0.3,0.2,0.6,0.7,1.1c0.4,0.4,0.8,0.8,1,0.7
		C74.3,75.8,74.1,75,73.8,74.5z"/>
	<path class="st5" d="M75.5,73.7c0,0.2-0.1,0.4-0.3,0.5c-0.3,0.1-0.6,0-0.6-0.3c-0.1-0.3,0.2-0.6,0.5-0.7
		C75.3,73.2,75.5,73.4,75.5,73.7z"/>
	<path class="st5" d="M77.5,70.7c-0.1-0.3-0.8-0.3-1,0c-0.2,0.3,0,0.7,0.3,0.8C77.1,71.6,77.6,71,77.5,70.7z"/>
	<path class="st5" d="M73.4,72.9c-0.2,0.2-0.8,0.2-1-0.1c-0.2-0.2-0.2-0.6,0-0.8c0.2-0.2,0.8-0.1,1,0.3
		C73.4,72.4,73.6,72.7,73.4,72.9z"/>
</g>
<g>
	<path class="st2" d="M24,37.8c0.3,2.9-0.4,4.3,0.9,4.5c1.8,0.3,5.8-1.7,7-3.6c1.1-1.7-1-2.1,0.1-3.9c1.1-1.9,3.9-2.4,4.9-4.5
		c0.4-0.8,0-0.6,0.3-2.1c0.6-2.3,1.8-3.3,1.3-3.6c-0.6-0.4-2.6,0.7-5.9,2.1c-7.2,3.1-8.7,2.7-9.9,4.1C21.2,32.6,23.5,33.2,24,37.8z"
		/>
	<path class="st3" d="M27.1,30c0.7-0.2,2.2-0.6,2.3-0.4c0.1,0.2-1.2,1-2.5,1.3c-0.9,0.2-1.8,0.1-1.7-0.1
		C25.2,30.6,26.8,30.1,27.1,30z"/>
	<path class="st3" d="M30.3,32.3c0.1,0.2-0.2,0.7-0.6,0.8c-0.6,0.2-1.3-0.3-1.1-0.6C28.8,32.2,30.1,31.9,30.3,32.3z"/>
	<path class="st3" d="M32.1,29.1c0.9-0.1,1,0.8,1,0.9c0.1,0.4-0.1,1-0.4,1.1c-0.2,0.1-0.3-0.2-1-0.3c-0.8-0.2-1.4,0-1.5-0.2
		C30.1,30.3,31.2,29.2,32.1,29.1z"/>
	<path class="st3" d="M26.4,34.4c-0.3,0.2-0.9-0.1-1.2-0.4c-0.3-0.3-0.5-0.7-0.2-0.9c0.3-0.2,0.9,0,1.2,0.2
		C26.6,33.7,26.7,34.2,26.4,34.4z"/>
	<path class="st3" d="M26.4,37.7c0.9,0.2,2.5-0.3,3-0.9c0.4-0.5-0.2-1.1-0.7-1c-0.5,0.1-0.6,0.7-1.2,0.9c-0.9,0.3-1.5-0.7-1.8-0.5
		C25.3,36.4,25.3,37.5,26.4,37.7z"/>
	<path class="st3" d="M27.8,40.7c0.4-0.1,0.9-0.7,0.7-1.1c-0.2-0.5-1.4-0.3-1.7-0.1C26.4,39.9,27.2,40.8,27.8,40.7z"/>
</g>
<g>
	<path class="st2" d="M47,37.7c-0.7-0.8-1.7,0.1-4.3-0.7c-2.8-0.8-3.3-2.4-4.7-2.2c-1.7,0.3-3.3,2.9-3,4.9c0.4,2.2,3.1,2.6,3.2,4.6
		c0,1.5-1.4,2.1-1,3.1c0.4,1,2.3,1.3,3.7,1.1C45.6,47.7,48.7,39.6,47,37.7z"/>
	<path class="st3" d="M40.3,45.2c0.6,0.3,1.4-0.3,1.7-0.8c0.5-0.7,0.5-1.8,0.1-2.1c-0.6-0.4-2.3,0.6-2.4,1.8
		C39.7,44.5,39.9,45,40.3,45.2z"/>
	<path class="st3" d="M42.6,39.9c0.3,0.1,0.7-0.1,0.8-0.3c0.2-0.4-0.3-1.1-0.8-1.1c-0.3,0-0.6,0.4-0.6,0.8
		C42.1,39.7,42.3,39.9,42.6,39.9z"/>
	<path class="st3" d="M39.5,39.7c-0.3-0.2-1,0-1.2,0.6c-0.2,0.7,0.5,1.3,0.8,1.2C39.6,41.4,39.9,40,39.5,39.7z"/>
</g>
</svg>
