<?xml version="1.0" encoding="utf-8"?><!-- Generator: Adobe Illustrator 26.0.3, SVG Export Plug-In . SVG Version: 6.00 Build 0)  --><svg version="1.1" id="Ebene_2_00000126308112139821010380000011903406711838980787_"	 xmlns="http://www.w3.org/2000/svg" xmlns:xlink="http://www.w3.org/1999/xlink" x="0px" y="0px" viewBox="0 0 100 100"	 style="enable-background:new 0 0 100 100;" xml:space="preserve"><style type="text/css">	.st0{fill:#8A3C8F;stroke:#000000;stroke-width:2;stroke-miterlimit:10;}	.st1{fill:#69B42D;stroke:#000000;stroke-miterlimit:10;}	.st2{fill:#C78F55;stroke:#000000;stroke-width:0.5;stroke-miterlimit:10;}	.st3{fill:#DB6500;stroke:#000000;stroke-width:0.5;stroke-miterlimit:10;}	.st4{fill:#493127;stroke:#000000;stroke-width:0.25;stroke-miterlimit:10;}	.st5{fill:#493127;stroke:#000000;stroke-width:0.25;stroke-miterlimit:10;}	.st6{fill:none;stroke:#000000;stroke-width:0.25;stroke-miterlimit:10;}</style><polygon class="st0" points="92,25.8 50,1.5 8,25.8 8,74.2 50,98.5 92,74.2 "/><path class="st1" d="M13.2,22.7c4-0.7,10.4-1.1,15.7,2.4c3,2,3.4,3.6,9,12.8c7.3,11.8,9,11.9,10.8,17.7c2.3,7.4-0.3,7.7,2.3,13.9	c3,7,7.3,9,7.4,15.1c0.1,3.9-2,5.8-1,6.9c0.8,0.8,2.8,0.8,15.4-6.1c12.6-6.9,13.8-8.7,13.5-9.5c-0.5-1.6-6.2,0.7-9.9-2.9	c-2.3-2.1-1.2-3.8-3.8-6.6c-3-3.2-5.5-2.2-7.7-5.1c-1.5-2.2-2.3-5.7-0.9-7.8c2.2-3.2,9.6-3.3,13.7-0.1c1.6,1.3,2.4,2.9,5,6	c1.2,1.5,1.8,3.1,3.6,4.2c0.8,0.6,2.5,1.6,3.8,1.2C92.4,64,92,58.6,92,45.6c0-11.4,0.3-13.8-1.9-15.4c-2.9-2.2-8.8-1.4-12.7,0.7	c-2.7,1.4-4.1,3.4-6,2.8c-1.4-0.4-2.7-2.1-2.9-3.7c-0.3-5.2,11.2-8.3,10.5-11.7c-0.2-1.1-1.4-0.9-8.4-4.8c0,0-1.4-0.8-4.2-2.4	c-2.1-1.2-4.2-2.4-6.3-3.7c-3.7-2.2-5.6-3.2-5.6-3.2c-2-1.5-3-2.8-4.5-2.6c-0.5,0.1-0.7,0.2-2.4,1.2c-3.6,2.2-3.4,2.1-3.4,2.1	c-2.9,1.9-9.8,5.7-12,6.9C28.3,13.9,22.4,17.3,13.2,22.7z"/><path class="st2" d="M15.4,27.9c-0.1,0.5-0.3,1.1-0.4,2c0,0.8,0.1,1.5,0.2,2.3c0.5,2.2,1.4,4,1.7,4.6c1.3,2.6,1.9,3.9,2.9,4.2	c2,0.6,3-2,5.9-1.9c2.7,0.1,3.6,2.5,5.4,2c1.5-0.5,2.4-2.6,2.3-4.2c0-2.3-2.6-2.3-4.6-5.3c-2-3.2-0.6-5.3-2.6-6.8	c-2.3-1.7-6.1-0.3-6.8,0C17.5,25.6,16.1,27.1,15.4,27.9z"/><path class="st2" d="M15.6,46.4c-1.3,1.6,0.2,2.8,0.2,10.6c0,3.6-0.3,5.8,0.7,6.2c0.9,0.4,1.7-1.1,5-2.6c2-0.9,2.1-0.5,3.1-1.1	c2.6-1.7,1.6-4.5,3.9-6.2c2.2-1.7,4.2,0.1,6.2-1.6c2.2-1.8,2.7-6.3,1-7.8c-1.3-1.2-3,0-8,0.9C19.8,46.2,17.2,44.4,15.6,46.4z"/><path class="st3" d="M18,68.3c-1,1-1.8,2.7-1.2,3.7c0.1,0.2,0.6,0.9,3.4,0.8c5.3-0.3,6.9-3.1,9.8-2.2c2,0.6,2.5,2.3,3.9,2	c1.2-0.3,2.1-2.1,2.1-3.6c0-0.9-0.4-1.4-2.3-4.8c-1.4-2.4-1.5-2.8-1.4-3.3c0.3-1.8,2.7-2.3,2.6-3.3c-0.1-0.8-1.7-1.5-3.1-1.6	c-2.9-0.1-5.8,2.5-6.9,5.4c-0.9,2.3,0,3.2-1.1,4.4C22.1,67.6,19.9,66.4,18,68.3z"/><path class="st3" d="M36.4,58.7c-0.7,1-0.8,2.1-0.8,2.4c-0.1,2.1,1.1,2.6,2.6,6.1c1,2.4,1,3.6,1.9,3.8c0.9,0.2,2.1-0.9,2.7-1.9	c1.4-2.3,0-4.2,1.4-6c0.9-1.1,1.6-0.7,2.3-1.7c2.2-2.7-0.9-9.6-2.9-9.6c-1.2,0-0.9,2.6-3.7,4.4C38.5,57.3,37.4,57.3,36.4,58.7z"/><path class="st2" d="M26.7,74.8c-1,1-1.8,2.8-1.2,3.7c0.6,0.8,1.9,0,3.1,0.9c1.6,1.2,0.4,3.6,2,5.2c1.4,1.5,4.5,1.6,5.7,0.3	c1-1.1,0-2.3,0.9-5.1c0.8-2.5,2.1-2.8,1.9-3.9C38.5,73.4,30,71.4,26.7,74.8z"/><path class="st3" d="M45.9,66.6c-1.5,0.6,0.3,4.3-2.1,7.4c-1.6,2.2-3.4,1.7-4.6,4c-0.9,1.8-0.6,3.6-0.3,5.1c0.6,3.2,2.3,5.2,3.4,6.4	c1.1,1.2,1.9,2.1,2.7,1.9c0.3-0.1,1-0.3,2-4.7c0.9-3.9,0.6-4.8,1.7-6.7c0.8-1.6,1.2-1.3,1.9-2.7c0.2-0.4,1.6-3.5,0.2-6.7	C49.8,68.4,47.2,66,45.9,66.6z"/><path class="st2" d="M52.3,80.2c-1.8,0-3,3.7-3.3,5.4c-0.2,0.9-1.2,5.4,1.2,7.1c0.8,0.6,2.1,1,3,0.4c0.8-0.5,0.7-1.4,1.2-4.3	c0.6-3.5,1-3.7,0.8-4.9C54.9,82.3,53.7,80.2,52.3,80.2z"/><path class="st2" d="M67.2,55.8c-0.9,0.2-1.6,1-1.8,1.8c-0.7,2.3,2.6,5.3,4.3,4.9c0.4-0.1,0.4-0.3,1.8-1.7c1.1-1.1,1.7-1.6,2.2-1.9	c1.4-0.6,2.4,0,2.7-0.4c0.6-1-2.8-4.9-4.3-4.3c-0.9,0.3-0.6,1.9-1.7,2.3C69.4,56.8,68.6,55.5,67.2,55.8z"/><path class="st3" d="M72.7,63.3c0.4,1.1,1.2,1.4,2.4,2.4c2.7,2.2,2.2,3.4,4.7,5.3c0.8,0.6,3.3,2.6,4.7,1.8c0.7-0.4,0.8-1.8,0.9-4.4	c0.1-2.4,0.1-3.7-0.4-4.8c-0.1-0.3-1.1-2-3-2.7c-2.3-0.8-3.4,0.7-6-0.2c-1.2-0.4-1.7-1-2.3-0.8C72.7,60.4,72.2,62.1,72.7,63.3z"/><path class="st4" d="M18.6,28.1c-0.1,0-0.1,0.8-0.4,1.9c-0.2,1.1-0.4,1.2-0.3,1.6c0.4,1,3,1.5,3.7,0.5c0.4-0.5,0.4-1.4-0.1-1.7	c-0.6-0.5-1.5,0.4-2.2,0C18.5,29.9,18.8,28.1,18.6,28.1z"/><path class="st4" d="M24.1,26.3c-0.3,0-0.6,0.6-0.6,1c0,0.4,0.4,0.7,0.7,1c1.5,1.3,1.8,2.1,2,2c0.3-0.1-0.3-1.5-0.7-2.3	C25.2,27.3,24.7,26.2,24.1,26.3z"/><path class="st4" d="M20.7,34.7c0.3-0.2,0.8-0.1,1,0.2c0.3,0.5-0.5,1.2-0.2,1.7c0.4,0.6,2.1-0.1,2.5,0.5c0.2,0.4,0,1-0.4,1.3	c-0.7,0.7-2.2,0.4-3-0.4C19.7,37.1,19.9,35.1,20.7,34.7z"/><path class="st4" d="M25,33.2c-0.2,0.4,0.1,1.2,0.5,1.3c0.5,0.1,1.2-0.8,1-1.2C26.3,32.8,25.3,32.7,25,33.2z"/><path class="st4" d="M27.7,34.1c-0.4,0.5-0.3,1.5,0.2,1.8c0.7,0.5,1.8-0.3,2.2,0.2c0.5,0.5-0.5,1.8,0,2.2c0.3,0.3,1,0.1,1.4-0.4	c0.7-0.8,0-2.7-1.2-3.6C29.6,33.8,28.2,33.5,27.7,34.1z"/><path class="st4" d="M17.2,48.7c0.3-0.1,1,0.7,1.3,1.6c0.4,1.2,0,2.7-0.4,2.7c-0.4,0-0.8-1.5-1-2.2C17.1,50.5,16.8,48.8,17.2,48.7z"	/><path class="st4" d="M22.1,51.1c0.3-0.3,1.7,0.1,1.8,0.7c0,0.4-0.4,0.9-0.9,0.9C22.3,52.7,21.9,51.4,22.1,51.1z"/><path class="st4" d="M20.3,53.4c0.4,0,0.4,0.6,1.3,1.3c0.7,0.5,1.2,0.5,1.2,0.7c0,0.3-0.8,0.7-1.6,0.8c-0.2,0-1.8,0.2-2.2-0.6	C18.6,54.8,19.6,53.4,20.3,53.4z"/><path class="st4" d="M22.1,48.7c-0.7-0.2-1.4-0.8-1.3-1s0.9-0.3,1.6-0.2c0.7,0.2,1.5,0.7,1.4,1C23.7,48.8,22.8,48.9,22.1,48.7z"/><path class="st4" d="M26.3,47c0,0.3,2,0.6,2.1,1.5c0.1,0.6-0.8,1-0.7,1.5c0.2,0.5,1.5,0.8,2.1,0.2c0.7-0.6,0.4-2.3-0.6-3	C28.1,46.2,26.3,46.7,26.3,47z"/><path class="st4" d="M32.4,46.8c-0.2,0.4,0.3,1.5,1.3,1.5c0.7,0,1.3-0.7,1.3-1C34.8,46.6,32.7,46.3,32.4,46.8z"/><path class="st5" d="M24.5,69.4c0.4-0.2,0.6-0.8,0.4-1c-0.2-0.5-1.6-0.5-2.4,0.2c-0.9,0.7-0.9,2.1-0.7,2.2c0.2,0.1,0.5-1.1,1.4-1.3	C23.8,69.3,24.1,69.7,24.5,69.4z"/><path class="st5" d="M28.5,66.1c-0.1,0.1-0.9,1.1-0.5,2c0.5,1.2,3,1.5,4.1,0.4c0.4-0.4,0.7-1.1,0.4-1.5c-0.5-0.7-2.8,0.7-3.2,0.1	c-0.3-0.5,1-1.7,0.7-1.9C29.9,65,29,65.4,28.5,66.1z"/><path class="st5" d="M28.7,63.3c0.7,0.8,2.4,0.6,2.7-0.2c0.2-0.5-0.1-1.2-0.6-1.6c-0.7-0.5-1.9-0.4-2.3,0.3	C28.3,62.4,28.4,63,28.7,63.3z"/><path class="st5" d="M30.3,59.5c0.2,0.2,0.8,0.1,1-0.2c0.3-0.5-0.3-1.4-0.7-1.3C30.3,58,29.9,59.1,30.3,59.5z"/><path class="st4" d="M29.7,78.4c1.1,0.7,3.1-0.3,3.1-1c0-0.6-1-1.2-1.9-1.2c-0.7,0-1.7,0.3-1.9,1C29,77.7,29.3,78.2,29.7,78.4z"/><path class="st4" d="M35.4,79.3c0.3,0.3,0.9,0.3,1.1,0c0.4-0.4,0-1.3-0.4-1.4c-0.3-0.1-0.7,0.2-0.8,0.5	C35.1,78.7,35.2,79.1,35.4,79.3z"/><path class="st4" d="M31.7,80.5c-0.3,0.3-0.1,1.3,0.6,1.5c0.6,0.2,1.3-0.3,1.3-0.7C33.6,80.8,32.1,80.2,31.7,80.5z"/><path class="st5" d="M38.4,61.8c0.1,0.4-0.8,0.7-0.9,1.5c0,0.1-0.1,0.6,0.2,0.7c0.4,0.3,1.4-0.3,2-1.1c0.2-0.3,0.8-1.1,0.4-2	c-0.3-0.8-1.4-1.3-2.1-1c-0.5,0.2-0.8,0.9-0.6,1.3C37.6,61.7,38.3,61.5,38.4,61.8z"/><path class="st5" d="M41.6,59.2c0.8,0.3,1.2,1.3,0.9,1.6c-0.2,0.2-0.5,0-0.7,0c-0.8-0.2-1.4-1.1-1.2-1.5	C40.7,59.1,41.2,59.1,41.6,59.2z"/><path class="st5" d="M42.7,55.8c0.1,0.6,0.9,1,1.3,0.7c0.3-0.2,0.4-0.9,0.1-1.3c-0.2-0.3-0.7-0.5-1-0.4C42.7,55,42.6,55.5,42.7,55.8	z"/><path class="st5" d="M39.3,65.3c-0.3,0.1-0.2,1.9,0.9,2.4c0.5,0.2,1.2,0.2,1.3-0.1c0.1-0.1-0.1-0.3-1.1-1.4	C39.4,65.3,39.3,65.2,39.3,65.3z"/><path class="st5" d="M42.2,80c-0.3,0.6-0.5,1.2-0.3,1.7c0.4,0.9,1.8,1.3,2.1,1c0.2-0.3-0.7-0.8-0.9-2.1c-0.2-1.2,0.5-2,0.3-2.1	C43.2,78.4,42.5,79.2,42.2,80z"/><path class="st6" d="M45.6,76.7"/><path class="st5" d="M46,76.2c0,0.2,0.5,0.1,1.8,0.4c1.2,0.3,1.6,0.6,1.9,0.4c0.5-0.3,0.7-1.3,0.4-1.7C49.4,74.4,45.9,75.8,46,76.2z	"/><path class="st5" d="M47.2,73.8c0.2,0.2,0.5,0.4,0.8,0.3c0.4-0.1,0.7-0.6,0.6-1c-0.1-0.5-0.8-0.8-1.3-0.5	C46.9,72.8,46.9,73.5,47.2,73.8z"/><path class="st5" d="M48,71c0.6-0.1,0.9-0.8,0.9-1.3c0-0.4-0.2-0.9-0.6-1c-0.7-0.2-1.7,0.7-1.6,1.5C46.8,70.6,47.4,71.1,48,71z"/><path class="st5" d="M46.3,80.4c-0.5,0.6,0,1.6,0.4,1.6c0.5,0.1,1.4-1.1,1.1-1.6C47.6,80.1,46.7,79.9,46.3,80.4z"/><path class="st5" d="M43,84.2c0.2,0,0,0.9,0.5,1.4c0.7,0.6,1.6,0,2.4,0.6c0.6,0.5,0.8,1.5,0.4,1.8c-0.2,0.2-0.8,0.2-1.1,0.1	c-0.8-0.3-0.7-1.3-1.3-1.5c-0.5-0.1-0.7,0.4-1,0.2C42.3,86.5,42.8,84.2,43,84.2z"/><path class="st4" d="M53.6,84c-0.5-0.1-1.1,0.5-1,1.1c0.1,0.4,0.5,0.8,0.9,0.7c0.5,0,0.7-0.6,0.7-1C54.2,84.5,54,84.1,53.6,84z"/><path class="st4" d="M51.9,89c-0.3,0.3-0.1,1,0.3,2.1c0.2,0.5,0.2,0.7,0.4,0.7c0.4,0,1.3-1.8,0.6-2.6C52.9,88.9,52.2,88.8,51.9,89z"	/><path class="st4" d="M67.9,57.6c-0.3,0.5-0.1,1.2,0.4,1.7c0.3,0.3,1,0.7,1.6,0.4c0.7-0.3,0.8-1.3,0.5-1.8C70,57,68.4,56.9,67.9,57.6	z"/><path class="st4" d="M71.6,56.6c-0.6,0.4-0.6,2.1-0.1,2.3c0.4,0.2,1.7-0.9,1.3-0.6l0,0c0,0,0.6-0.3,1-0.7c0.5-0.6,0.5-1.6,0.2-1.7	c-0.2-0.1-0.5,0.5-1.3,0.7C72.1,56.7,71.9,56.4,71.6,56.6z"/><path class="st5" d="M75.7,62.4c-0.4,0.3-0.6,1.5,0.2,1.9c0.7,0.4,1.7-0.2,1.8-0.7C77.7,63,76.3,62.1,75.7,62.4z"/><path class="st5" d="M79.9,65.1c-0.3-0.2-0.9,0-1,0.3c-0.2,0.5,0.6,1.4,1,1.3C80.2,66.6,80.4,65.4,79.9,65.1z"/><path class="st5" d="M80.7,64.1c-0.6,0.8,0,2,0.1,2.1c0.5,0.9,1.6,1.4,1.8,1.2c0.2-0.2-0.4-0.7-0.6-1.8c-0.2-1.1,0.2-1.7-0.1-1.9	C81.6,63.4,81,63.7,80.7,64.1z"/><path class="st5" d="M82.4,69.1c-0.5,0.4-0.7,1.1-0.3,1.6c0.3,0.4,0.8,0.6,1.3,0.4c0.7-0.2,1.1-1.3,0.6-1.9	C83.7,68.9,82.9,68.8,82.4,69.1z"/><g>	<path class="st3" d="M84.6,25.2c-0.2-0.7-0.8-0.8-2.1-1.5c-1.8-1-1.7-1.5-2.6-1.7c-1.4-0.3-2.8,0.3-3.1,0.5c-2.7,1.3-3.3,4.4-3.6,6		c-0.2,0.7-0.4,1.9,0.2,2.1c0.5,0.3,1.5-0.4,2-0.8c1.3-0.9,1.2-1.5,2.1-1.8c1.2-0.5,1.7,0.3,2.9-0.3c0.7-0.4,0.6-0.9,1.3-1.1		c1.1-0.5,2.1,0.7,2.7,0.2C84.7,26.5,84.8,25.7,84.6,25.2z"/>	<path class="st5" d="M81.5,25.6c0.2-0.2-0.2-0.8-0.4-1.3c-0.3-0.6-0.6-1-1-1c-0.3,0-0.6,0.3-0.6,0.6c-0.1,0.4,0.3,0.8,0.6,1.1		C80.4,25.4,81.2,25.8,81.5,25.6z"/>	<path class="st5" d="M78.2,26c0.1-0.3,0.5-0.6,0.8-0.4c0.3,0.1,0.4,0.5,0.2,0.8c-0.1,0.2-0.4,0.3-0.6,0.2		C78.3,26.6,78.1,26.3,78.2,26z"/>	<path class="st5" d="M75.9,27.5c0-0.3-0.4-0.6-0.7-0.5c-0.4,0.2-0.5,1-0.3,1.1C75.1,28.3,75.8,27.9,75.9,27.5z"/>	<path class="st5" d="M77.7,24c-0.3-0.3-0.4-1-0.1-1.2c0.2-0.2,0.6,0,0.8,0.2c0.3,0.4,0.1,1-0.2,1.2C78,24.3,77.7,24,77.7,24z"/></g></svg>