<?xml version="1.0" encoding="utf-8"?><!-- Generator: Adobe Illustrator 26.0.3, SVG Export Plug-In . SVG Version: 6.00 Build 0)  --><svg version="1.1" id="Ebene_2_00000126308112139821010380000011903406711838980787_"	 xmlns="http://www.w3.org/2000/svg" xmlns:xlink="http://www.w3.org/1999/xlink" x="0px" y="0px" viewBox="0 0 100 100"	 style="enable-background:new 0 0 100 100;" xml:space="preserve"><style type="text/css">	.st0{fill:#8A3C8F;stroke:#000000;stroke-width:2;stroke-miterlimit:10;}	.st1{fill:#69B42D;stroke:#000000;stroke-miterlimit:10;}	.st2{fill:#DB8F00;stroke:#000000;stroke-width:0.5;stroke-miterlimit:10;}	.st3{fill:#493127;stroke:#000000;stroke-width:0.25;stroke-miterlimit:10;}	.st4{fill:#DB6500;stroke:#000000;stroke-width:0.5;stroke-miterlimit:10;}	.st5{fill:#493127;stroke:#000000;stroke-width:0.25;stroke-miterlimit:10;}	.st6{fill:none;stroke:#000000;stroke-width:0.25;stroke-miterlimit:10;}</style><polygon class="st0" points="91.6,25.7 49.6,1.5 7.6,25.7 7.6,74.2 49.6,98.5 91.6,74.2 "/><path class="st1" d="M40.2,74.4c0.5-0.9,2.2-4.3,5.2-4.9c1.4-0.3,2.2,0.4,3.7,0.4c3.5,0.2,5.9-0.5,9.2-1.3	c7.2-1.8,10.8-2.7,14.5-2.3c3,0.4,2.8,1,6.6,1.5c4,0.5,8.6,1.1,11-1.2c1.6-1.5,1.3-3.4,1.3-10.9c0-12,0.5-15.2-1-15.8	C89.3,39.6,88,42,83,46.3c-4.7,4-8.7,7.7-14.1,8.8c-6,1.2-12.4-0.9-12.6-2.9c-0.3-2.3,8.1-3.4,9-8.6c0.4-2.5-1.2-3.5-0.4-6.2	c0.8-2.7,2.6-2.5,4.8-5.8c2.2-3.3,0.8-4.5,3.2-8.9c1.8-3.3,3-3.6,2.9-5.1c-0.2-2-2.6-2.7-8.5-5.8c-8.1-4.1-10.6-6.2-12.1-5	c-1.1,0.9-1.2,3-0.9,4.3c0.4,2,1.8,2.3,2.3,4.1c0.2,0.8,0.3,2.1-1.5,5.7c-2.6,5.1-4,5.2-4.8,8c-1.2,4.2,1,7.7,0.4,8	c-1.1,0.4-5.3-8.5-9.4-11.3c-0.3-0.2-1.5-1-2.8-2.4c-0.9-0.9-1.6-1.8-1.9-2.4c-2.2-3.6,0.2-7.2-1.3-8.6c-1.5-1.3-5.3,0.7-10,3.2	c-7.1,3.8-11.3,6.1-11.1,8.8c0.1,2,2.6,3.4,6.5,5.4c5.6,3,8.5,2.6,13,6.1c5.1,3.9,6.7,8.8,7.4,11c0.7,2.1,1.4,4.1,0.4,5	c-1.4,1.4-4.7-1.2-10.8-0.9c-2.4,0.2-4.4,0.3-5.9,1.6c-2.8,2.4-1,6-2.4,11.6c-2,8.2-7.9,9.5-7,13.6c0.5,2.3,2.5,2.5,12.4,8	c7.7,4.3,9.5,5.8,10.8,4.9C41.3,89,36.5,81.9,40.2,74.4z"/><g>	<path class="st2" d="M10.3,29.2c-0.2,0.4-1.2,2.3-0.6,3.6c0.6,1.1,1.7,0.6,3.2,1.9c1.4,1.3,1.1,2.6,2.3,2.8		c0.8,0.1,1.9-0.1,2.3-0.9c0.4-0.9-0.7-1.6-0.5-3c0.2-1.5,1.6-1.9,1.4-3c-0.1-0.5-0.7-1-1.9-1.9c-0.3-0.2-1.1-0.8-2.1-1.2		c-0.4-0.2-0.7-0.3-1.1-0.3c-0.4,0-0.8,0-1,0C11.8,27.5,10.9,28.1,10.3,29.2z"/>	<path class="st3" d="M13.2,29.4c0.2,0.4-0.4,0.8-0.2,1.2c0.1,0.2,0.6,0.3,0.8,0.2c0.6-0.3,0.5-1.7,0-2c-0.1-0.1-0.2,0-0.8,0		c-0.6,0-1,0-1,0C12.1,29,13,29,13.2,29.4z"/>	<path class="st3" d="M11.4,32.6c0.4,0.3,1,0.7,1.1,0.5c0.1-0.1-0.3-0.3-0.8-1.2c-0.1-0.2-0.2-0.4-0.4-0.4c-0.2-0.1-0.5,0.1-0.6,0.2		C10.6,32,11.1,32.3,11.4,32.6z"/>	<path class="st3" d="M16.9,30.8c0.3,0.5,0.3,1.3-0.1,1.6c-0.2,0.2-0.5,0.3-0.7,0.1c-0.3-0.3,0.2-1.1-0.1-1.4		c-0.2-0.2-0.6,0.2-0.9,0c-0.1-0.1-0.1-0.4,0-0.6C15.4,30.1,16.4,30.1,16.9,30.8z"/>	<path class="st3" d="M14,33.5c0.2,0.1,0.7-0.2,0.7-0.5c0-0.2-0.4-0.5-0.6-0.4C13.8,32.8,13.8,33.4,14,33.5z"/>	<path class="st3" d="M14.2,35.6c0.3,0.7,1.2,1.2,1.7,0.9c0.2-0.2,0.4-0.5,0.3-0.7c-0.2-0.3-0.9,0.1-1.1-0.2		c-0.2-0.3,0.3-0.8,0.1-1.2c-0.2-0.3-0.6-0.4-0.9-0.3C13.9,34.4,14,35.2,14.2,35.6z"/></g><g>	<path class="st2" d="M13.5,66.7c1.6,2.5,1.5,4.1,2.8,3.7c1.7-0.5,4.5-4.1,4.8-6.3c0.2-2-1.8-1.4-1.6-3.5c0.2-2.2,2.5-3.9,2.5-6.2		c0-0.9-0.3-0.6-0.6-2c-0.5-2.3,0.2-3.8-0.4-3.8c-0.7-0.1-2,1.7-4.4,4.5c-5.2,5.9-6.6,6.2-7.1,7.9C8.7,63.2,11,62.7,13.5,66.7z"/>	<path class="st3" d="M12.9,58.3c0.5-0.5,1.7-1.5,1.9-1.3c0.1,0.2-0.7,1.4-1.7,2.2c-0.7,0.6-1.6,0.9-1.6,0.7		C11.4,59.6,12.7,58.5,12.9,58.3z"/>	<path class="st3" d="M16.7,59c0.2,0.2,0.1,0.7-0.2,1c-0.5,0.5-1.4,0.3-1.3-0.1C15.4,59.6,16.4,58.7,16.7,59z"/>	<path class="st3" d="M17,55.3c0.7-0.5,1.3,0.3,1.3,0.4c0.2,0.3,0.4,1,0.1,1.2c-0.2,0.2-0.4,0-1,0.1c-0.8,0.2-1.2,0.6-1.4,0.5		C15.7,57.2,16.2,55.8,17,55.3z"/>	<path class="st3" d="M14.2,62.6c-0.2,0.3-0.8,0.3-1.2,0.2c-0.4-0.1-0.7-0.4-0.6-0.7s0.8-0.4,1.2-0.3C14.1,61.9,14.4,62.3,14.2,62.6		z"/>	<path class="st3" d="M15.6,65.6c0.9-0.2,2.2-1.4,2.3-2.1c0.1-0.6-0.6-0.9-1-0.6c-0.4,0.3-0.2,0.9-0.7,1.4c-0.7,0.7-1.7,0.1-1.9,0.3		C14.1,64.9,14.5,65.9,15.6,65.6z"/>	<path class="st3" d="M18.1,67.6c0.3-0.3,0.5-1,0.2-1.3c-0.4-0.3-1.4,0.3-1.5,0.7C16.5,67.5,17.7,68,18.1,67.6z"/></g><g>	<path class="st4" d="M43.3,16.2c1.2,0.5,1.1,1.5,2.7,2.9c2,1.8,5,2.6,6.8,1.5c0.8-0.6,1.6-1.7,1.2-2.3c-0.4-0.9-2.1-0.3-3.1-1.5		c-0.3-0.4-0.4-0.7-0.6-3c-0.3-3.3-0.3-3.7-0.7-4.5c-0.7-1.1-2-2.1-2.9-1.9c-1,0.3-0.5,1.7-1.5,3c-1.4,1.8-3.7,0.2-7.1,2		c-1.8,1-1.8,1.7-1.8,1.9c0.1,0.9,1.3,1.9,2.4,2.3C40.7,17.2,41.6,15.5,43.3,16.2z"/>	<path class="st5" d="M41.4,13.7c-0.7,0.2-1.4-0.5-1.5-0.4c-0.1,0.1,0.6,1.1,1.4,1.3c0.8,0.2,1.7-0.4,1.6-0.8c0-0.3-0.4-0.6-0.7-0.6		C41.9,13.2,41.8,13.6,41.4,13.7z"/>	<path class="st5" d="M47.6,14.3c0-0.3-1.3-0.7-1.3-1.2c0-0.6,2-0.5,2-1.2c0-0.4-0.5-0.8-0.9-0.9c-1.1-0.4-2.6,0.8-2.4,1.9		c0.2,0.8,1.1,1.3,1.2,1.3C46.9,14.5,47.6,14.5,47.6,14.3z"/>	<path class="st5" d="M48.1,17.3c0.6,0.4,1.4,0,1.6-0.6c0.1-0.5,0-1.1-0.3-1.4c-0.6-0.5-1.7,0.1-1.8,0.9		C47.6,16.6,47.8,17.1,48.1,17.3z"/>	<path class="st5" d="M51.3,19.5c0.2-0.1,0.3-1-0.2-1.2c-0.3-0.2-0.7,0-0.8,0.2C50.3,18.9,51,19.6,51.3,19.5z"/></g><g>	<path class="st2" d="M51.8,86.8c1.1,0.1,1.2-1.3,3.6-2.4c2.6-1.3,4-0.4,4.9-1.6c1.1-1.4,0.5-4.4-1.1-5.6c-1.8-1.3-4.1,0.2-5.4-1.2		c-1-1.1-0.4-2.5-1.3-3c-0.9-0.5-2.6,0.6-3.5,1.7C46,78.5,49.2,86.6,51.8,86.8z"/>	<path class="st3" d="M51.6,76.8c-0.6,0.2-0.8,1.2-0.7,1.8c0.1,0.8,0.8,1.7,1.3,1.6c0.7-0.1,1.3-2,0.5-2.9		C52.5,76.9,52,76.7,51.6,76.8z"/>	<path class="st3" d="M53.5,82.3c-0.3,0.2-0.5,0.5-0.4,0.8c0.2,0.4,1,0.6,1.3,0.2c0.2-0.3,0.2-0.8-0.1-1		C54.1,82.1,53.7,82.1,53.5,82.3z"/>	<path class="st3" d="M55.9,80.3c0.3,0,0.7-0.7,0.4-1.2c-0.3-0.6-1.2-0.6-1.4-0.3C54.6,79.1,55.4,80.4,55.9,80.3z"/></g><g>	<path class="st4" d="M44.9,90.9c1.4,1,1.2,2.3,1.8,2.3c1,0,2.5-3.6,1.4-5.1c-0.4-0.5-0.7-0.3-1.2-0.9c-0.7-1,0-2-0.7-3.2		c-0.3-0.5-0.9-1.1-1.3-1c-0.4,0.1-0.4,0.7-0.9,2c-0.7,1.8-1.3,2.1-1.3,3.2c0,0.2,0,0.8,0.4,1.3C43.6,90.4,44.2,90.4,44.9,90.9z"/>	<path class="st5" d="M43.6,88.3c-0.1,0.2,0.1,0.5,0.3,0.7c0.3,0.2,0.9-0.1,1.1-0.5c0.2-0.5-0.1-0.9-0.2-1.1c-0.3-0.4-0.8-0.7-1-0.6		c-0.1,0.1-0.1,0.3-0.1,0.4c0.1,0.4,0.5,0.6,0.4,0.8C44.1,88.2,43.7,88.1,43.6,88.3z"/>	<path class="st5" d="M45.2,89.3c-0.1-0.2,0.2-0.7,0.6-0.8c0.1,0,0.3-0.1,0.3,0c0.1,0.1-0.1,0.7-0.4,0.9		C45.5,89.5,45.2,89.5,45.2,89.3z"/>	<path class="st5" d="M46.4,91.7c0.2,0.1,0.4,0,0.5-0.2c0.2-0.2,0.1-0.6,0-0.7c-0.2-0.1-0.6,0.1-0.7,0.4		C46.2,91.4,46.2,91.6,46.4,91.7z"/>	<path class="st5" d="M45,85.7c0.5-0.6,0.6-0.7,0.6-0.7c-0.1-0.1-0.4-0.2-0.6,0c-0.5,0.3-0.6,1.2-0.4,1.3		C44.5,86.2,44.6,86.2,45,85.7z"/></g><path class="st6" d="M45.2,23.3"/><g>	<path class="st4" d="M38.1,43.7c-1.4-3.2-4.6-4.3-5-4.4c-1.5-0.5-1.5,0-3.2-0.5c-2.1-0.5-2.6-1.4-6-3.4c-3.9-2.2-4.5-1.9-4.8-1.7		c-0.7,0.5-0.6,1.7-0.5,3.2c0.1,1.6,0.4,4.3,2.3,6.9c0.9,1.2,2,2.7,3.9,3.3c2.5,0.7,3.4-0.9,6-0.6c3.9,0.4,5.4,4.2,6.9,3.6		C39.1,49.5,39.1,46,38.1,43.7z"/>	<path class="st5" d="M27.3,43.8c0.1-0.2-1-0.3-1.7-1.2c-0.8-1-0.6-2-0.9-2.1c-0.4,0-1.1,1.3-0.7,2.2c0.3,0.5,0.8,0.7,1.4,0.9		C26.3,43.9,27.3,43.9,27.3,43.8z"/>	<path class="st5" d="M34.3,41c-0.1-0.6-0.9-1.1-1.5-0.9c-0.4,0.1-0.4,0.5-1.1,1.7c-0.7,1.3-1,1.5-0.9,1.6		C31.1,43.8,34.5,42.2,34.3,41z"/>	<path class="st5" d="M34.4,44.9c0.5-0.1,0.8-0.8,0.5-1.3c-0.2-0.4-0.8-0.5-1.2-0.3c-0.3,0.2-0.4,0.5-0.3,0.8		C33.5,44.6,34,45,34.4,44.9z"/>	<path class="st5" d="M35.8,47c0.5,0.7,1.9,0.5,2.1-0.1c0.2-0.4-0.1-0.9-0.4-1.1c-0.4-0.3-1-0.6-1.5-0.2		C35.6,45.9,35.5,46.6,35.8,47z"/>	<path class="st5" d="M29,39.2c-0.2-0.6-1.7-0.8-1.9-0.3c-0.2,0.4,0.1,1.4,0.9,1.4C28.6,40.3,29.2,39.6,29,39.2z"/>	<path class="st5" d="M21.1,38.4c0.1-0.3,0.6-0.2,0.9-0.6c0.3-0.6-0.5-1.1-0.2-1.9c0.1-0.4,0.5-0.8,0.8-0.8c0.5,0,1.1,0.8,1,1.6		c-0.1,1-1.2,1.2-1.2,2.1c0,0.8,0.8,1.2,0.7,1.3C22.9,40.3,20.8,39,21.1,38.4z"/></g><g>	<path class="st2" d="M74.2,28.2c0.2,1.8,0.9,1.9,3.6,6.4c2.3,3.9,2.5,5.2,4.1,5.4c1.8,0.2,3.9-1,5-2.3c3.3-3.8-0.4-9.5-1.1-10.7		c-1.4-2.2-5.2-6.7-8.3-5.7C75.2,22,74,25.6,74.2,28.2z"/>	<path class="st3" d="M76.3,28.9c0.2,0.6,0.9,1.1,1.7,0.9c0.8-0.2,1.3-1,1.2-1.5c-0.1-0.9-1.5-1.4-2.3-1		C76.4,27.6,76.2,28.3,76.3,28.9z"/>	<path class="st3" d="M80.1,34.4c-0.9,1.5,1.6,3.6,2.2,3.3c0.2-0.1,0.2-0.5,0.3-1.2c0.1-1.7,0.3-2.9-0.4-3.1		C81.6,33.2,80.6,33.7,80.1,34.4z"/></g><g>	<path class="st2" d="M67.6,79.1c-1.1,0.8-1.8-0.4-2.8,0.3c-1.7,1.1-2,6.4-0.9,6.3c0.5,0,0.9-1.3,2.5-2.2c0.6-0.4,1.4-0.6,3-1		c2-0.5,2.1-0.4,2.5-0.7c1.7-1.3,2.5-6,0.6-6.7c-0.6-0.2-1.7,0-2.5,0.7C68.5,76.8,68.7,78.3,67.6,79.1z"/>	<path class="st3" d="M68.4,79.8c0.1,0.6,0.8,1,1.6,0.5c0.7-0.4,1-1.2,1.1-1.7c0.1-0.7-0.2-1.3-0.7-1.3		C69.6,77.4,68.3,78.9,68.4,79.8z"/>	<path class="st3" d="M65.8,81.2c-0.8,0.7-1.4,0.6-1.5,0.9c-0.1,0.3,0.5,0.9,1.2,0.7c0.5-0.1,1.2-0.5,1.2-0.5l0,0		c-0.5,0.2,1.2-0.4,1.5-0.9c0.3-0.6-0.7-1.6-1.5-1.2C66.4,80.3,66.4,80.7,65.8,81.2z"/></g><g>	<path class="st4" d="M73.5,51.5c0.6-0.3,0.4-1.1,0.8-2.3c0.8-2.6,2.7-2.6,3.5-4.9c0.6-2-0.2-3.7-0.3-4c-0.5-1.1-1.5-1.9-3.5-3.3		c-2.2-1.5-3.3-2.3-4.1-2c-1.5,0.6-1.4,3.8-1.4,4.8c0,3.2,1.3,3.4,1.4,7c0,1.6-0.2,2.5,0.4,3.4C71,51.3,72.6,52,73.5,51.5z"/>	<path class="st5" d="M73.3,47.1c-0.5-0.2-1.5,0.2-1.6,1c-0.1,0.8,1,1.5,1.4,1.3C73.8,49.1,73.9,47.4,73.3,47.1z"/>	<path class="st5" d="M72.3,43.5c-0.3,0.2-0.1,1.4,0.4,1.5c0.4,0.1,0.8-0.3,0.9-0.6C73.7,43.8,72.6,43.3,72.3,43.5z"/>	<path class="st5" d="M76,43.8c0-0.4-0.7-0.4-1.5-1.2c-0.8-0.8-0.8-1.6-1.1-1.6c-0.3,0.1-0.5,1.2-0.1,2.1c0,0.1,0.6,1.3,1.6,1.3		C75.4,44.4,76,44.1,76,43.8z"/>	<path class="st5" d="M72.8,38.6c-0.2-0.7-1.3-1.1-1.9-0.7c-0.4,0.3-0.6,0.8-0.4,1.3c0.2,0.6,0.9,0.9,1.5,0.8		C72.6,39.8,72.9,39.1,72.8,38.6z"/></g><g>	<path class="st4" d="M85.9,72.3c-0.6-0.5-1.6,0.7-2.7,0.2c-0.7-0.3-0.6-0.7-1.3-1.1c-1.1-0.6-1.7,0.2-2.9-0.3		c-0.9-0.4-0.8-0.9-2.1-1.8c-0.5-0.3-1.5-1-2-0.8c-0.5,0.3-0.3,1.4-0.2,2.1c0.3,1.5,0.9,4.7,3.6,6c0.2,0.1,1.6,0.8,3.1,0.5		c1-0.2,0.8-0.6,2.6-1.7c1.3-0.7,1.9-0.8,2.1-1.5C86.3,73.4,86.3,72.6,85.9,72.3z"/>	<path class="st5" d="M81.5,74.1c-0.3,0.3-0.7,0.6-0.6,1.1c0.1,0.3,0.4,0.5,0.6,0.6c0.4,0.1,0.7-0.4,1-1c0.3-0.5,0.6-1.1,0.4-1.3		C82.8,73.3,82,73.7,81.5,74.1z"/>	<path class="st5" d="M80.1,72.5c0.2,0,0.5,0,0.6,0.2c0.2,0.3,0.1,0.6-0.2,0.8c-0.3,0.1-0.8-0.1-0.8-0.4		C79.7,72.8,79.9,72.5,80.1,72.5z"/>	<path class="st5" d="M76.4,71c-0.3,0.2-0.1,1,0.3,1.1c0.3,0.1,0.8-0.2,0.7-0.5C77.4,71.2,76.7,70.8,76.4,71z"/>	<path class="st5" d="M79.9,74.9c0.3,0.1,0.5,0.8,0.2,1.2c-0.2,0.2-0.6,0.4-0.8,0.2c-0.3-0.2-0.3-0.9,0.1-1.2		C79.3,75.1,79.6,74.8,79.9,74.9z"/></g></svg>