<?xml version="1.0" encoding="utf-8"?><!-- Generator: Adobe Illustrator 26.0.3, SVG Export Plug-In . SVG Version: 6.00 Build 0)  --><svg version="1.1" id="Ebene_2_00000008854137008483476280000003303031621812150931_"	 xmlns="http://www.w3.org/2000/svg" xmlns:xlink="http://www.w3.org/1999/xlink" x="0px" y="0px" viewBox="0 0 100 100"	 style="enable-background:new 0 0 100 100;" xml:space="preserve"><style type="text/css">	.st0{fill:#8A3C8F;stroke:#000000;stroke-width:2;stroke-miterlimit:10;}	.st1{fill:#69B42D;stroke:#000000;stroke-miterlimit:10;}	.st2{fill:#C78F55;stroke:#000000;stroke-width:0.5;stroke-miterlimit:10;}	.st3{fill:#C78F55;stroke:#000000;stroke-width:0.5;stroke-miterlimit:10;}	.st4{fill:#C78F55;stroke:#000000;stroke-width:0.5;stroke-miterlimit:10;}	.st5{fill:#493127;stroke:#000000;stroke-width:0.25;stroke-miterlimit:10;}	.st6{fill:#493127;stroke:#000000;stroke-width:0.25;stroke-miterlimit:10;}	.st7{fill:#493127;stroke:#000000;stroke-width:0.25;stroke-miterlimit:10;}	.st8{fill:#493127;stroke:#000000;stroke-width:0.25;stroke-miterlimit:10;}	.st9{fill:#493127;stroke:#000000;stroke-width:0.25;stroke-miterlimit:10;}</style><polygon class="st0" points="6.1,74.2 48.1,98.5 90.1,74.2 90.1,25.8 48.1,1.5 6.1,25.8 "/><path class="st1" d="M45.6,8.7c0,2.7,1,4,1.7,6.4c0.9,3.3,0.3,5.7-0.1,8.8c-1.5,12.1,2.9,14.6,0,20.3c-1.9,3.8-5.3,5.7-11.9,9.4	c-3.7,2.1-4.9,2.3-7.9,3.5c0,0-1.4,0.6-3.7,1.7c-7,3.4-15,11.1-17.2,9.4c-0.4-0.3-0.4-0.8-0.4-3.1c-0.1-5.4,0-8,0-9.3	C6,45,5.1,45,6.1,43.3c0.4-0.8,1.4-2.2,10.8-5.7c8.8-3.3,11.2-3.3,12.6-5.8c1.3-2.4-1.9-4.1-2-9.7c0-0.6,0-1.9-0.9-3.2	c-0.1-0.2-1.4-2.1-2.9-1.9c-1.8,0.2-2.2,3.5-3.4,3.4c-0.8-0.1-1.6-1.4-1.3-2.2c0.3-0.7,1.3-0.9,1.6-0.9c0,0,4-2.3,12-6.9	c10.7-6.1,13.2-7.6,13.9-6.8C47,4.3,45.7,5.6,45.6,8.7z"/><path class="st2" d="M26.5,19c-0.9-1.1-2.7-1.8-3.7-1.2c-0.7,0.4-0.4,1.2-1.2,2c-1.2,1.1-2.6,0.5-3.2,1.6c-0.5,0.8,0.1,1.6-0.3,2	c-0.6,0.5-1.8-0.9-3.6-0.9c-1.8,0-3.1,1.5-3.3,1.8c-1.2,1.4-1.7,3.4-1.1,5c0.4,1,0.9,0.9,1.6,2.2c0.8,1.7,0.3,2.3,0.9,3.1	c1.5,2,6.2,0.8,6.6,0.7c1.7-0.5,1.5-0.9,3.6-1.6c3.5-1.2,5.3-0.5,6.1-1.8c0.5-0.9,0.3-2.3-0.3-3c-0.7-0.8-1.6-0.3-3.3-1.1	c-1-0.5-2.5-1.5-2.3-2.1c0.2-0.7,2.1-0.2,3.4-1.4C27.4,23,27.8,20.6,26.5,19z"/><path class="st2" d="M56.8,8.8c1.8,1.7,1.4,2.7,3.4,4.7c1.9,1.9,3,1.7,3.3,2.9c0.4,1.5-0.9,3-3.1,5.6c-2.3,2.6-3.5,4-5.2,3.9	c-1.3-0.1-2.7-1-3-2.1c-0.1-0.6,0.2-0.9,0.2-1.9c0.1-1.3-0.5-2.2-0.8-2.9c-0.6-1.2-0.6-3.2-0.6-7c0-3.2,0-4.8,0.7-5.2	C53,5.9,55.5,7.7,56.8,8.8z"/><path class="st2" d="M72.9,23.3c0.8,0.2,0.9-0.2,1.7,0c2.1,0.4,2,3,3.9,3.6c1.6,0.4,2.4-1.2,3.9-0.6c1,0.4,1.5,1.7,1.7,2.6	c0.2,1.6-0.9,2.3-1.6,4c-1.5,3.8,1.2,6.2-0.3,8.1c-1.3,1.6-4.7,1.7-5.9,0.4c-0.8-0.8-0.1-1.8-0.9-2.6c-1.1-1.1-2.8,0.3-5.1-0.3	c-2.3-0.6-4.1-3-4.7-5c-0.8-2.8,0.7-4.2-0.7-6.4c-0.8-1.4-1.7-1.3-2-2.4c-0.5-1.8,0.9-4.4,3-5c1.9-0.5,3.7,0.7,3.9,0.9	C71.2,21.6,71.4,23,72.9,23.3z"/><path class="st3" d="M54.5,37.7c-0.3,1.5-1.2,4.9,0.6,6.7c0.7,0.7,1.2,0.5,3.1,1.2c3.9,1.5,3.9,3.3,6.9,4c0.6,0.1,3.5,0.8,5.2-0.9	c1.5-1.4,1.2-3.7,1.1-4.3c-0.1-0.5-0.3-2.2-1.6-3.4c-1.7-1.6-3.2-0.6-4.7-2.1C64,37.6,63.9,36,63.6,34c-0.2-1.7,0.1-2.8-0.4-4.9	c-0.3-1.2-0.4-1.8-0.8-2C60.9,26.4,56,31.6,54.5,37.7z"/><path class="st4" d="M81.5,50.3c-0.1,2.4,0.5,2.7,0.8,6.3c0.2,3.2-0.2,3.9-0.3,4.2c-0.9,1.5-3.1,2.4-4.3,1.8	c-0.6-0.3-0.5-0.6-1.7-2.3c-0.8-1.2-1.3-1.8-2-2.4c-1.5-1.3-2.4-0.8-3-1.7c-1-1.5,0.5-4.1,1.2-5.4c0.8-1.5,1.9-3.4,4.2-4.3	c1.7-0.7,4.3-0.9,5.2,0.3C82.2,47.5,81.6,48.1,81.5,50.3z"/><path class="st2" d="M58.9,51.7c-0.3,0.2-0.6,1.1-1.1,2.9c-0.9,3-0.9,3.7-0.7,4.2c0.3,0.7,0.9,1.5,1.8,1.7c0.8,0.2,1.4-0.3,2.8-0.9	c2.8-1.3,3.7-0.7,4.4-1.7c0.9-1.1,0.6-3,0-4.1C64.7,51.1,60.5,50.3,58.9,51.7z"/><path class="st4" d="M47.3,47.1c-0.3,1.3,1.7,2,1.4,3.2c-0.4,1.7-4.8,1.3-5.6,3.6c-0.3,0.9,0.2,1.6-0.4,2.2c-0.6,0.6-1.4,0.1-2,0.7	c-0.7,0.6-0.6,2.2,0.1,3.2c1.2,1.7,4.6,1.8,6.8,0.9c1-0.4,1.4-0.9,2.6-1.1c1.7-0.3,2.2,0.4,3.2,0c1.6-0.6,2.4-3.2,2.2-5.3	c-0.2-1.6-0.8-1.6-2.2-5c-1.1-2.7-1.1-3.6-2-4C50,44.8,47.6,45.8,47.3,47.1z"/><path class="st2" d="M77.9,76.8c-0.7,0.9-1.7,0.3-3.6,1.1c-2.1,0.9-2.4,2.3-3.6,2.1c-1.1-0.2-1.7-1.4-2-2c-0.5-1.1-0.5-1.8-0.4-4.9	c0-3.6,0-3.9,0.3-4.3c1.1-1.3,3.9-1.5,5.4-0.4c0.7,0.4,0.8,0.9,1.8,1.3c0.9,0.4,1.3,0.2,2.3,0.6c0.5,0.2,2.3,0.8,2.3,1.7	c0.1,0.8-1.2,0.9-2,2.4C77.9,75.5,78.5,76,77.9,76.8z"/><path class="st4" d="M50.8,67c-0.7,1.4,0,1.7-0.8,3.8c-1.3,3.6-3.5,3.7-3.9,6.3c-0.2,1.9,0.9,1.9,1,5.3c0,1.6-0.2,2.2,0.1,3.6	c0.4,1.6,0.9,1.7,1.2,3.2c0.5,2.2-0.3,3.1,0.3,3.8c0.9,0.9,3.4,0,4.7-0.7c1.7-0.9,1.8-1.7,3.6-2.7c1.4-0.8,1.9-0.6,3.3-1.1	c0.6-0.2,4.7-1.7,5.9-5c0.8-2.2,0-4.5-0.7-6.7c-0.7-2.2-1.3-2.5-1.3-4.1c0-2.1,1-2.6,1-4.6c0-1.6-0.7-3.5-1.9-4.6	C60.1,60.8,52.6,63.1,50.8,67z"/><path class="st3" d="M34.7,66.9c-0.4-0.8,0.2-1.6-0.6-3.3c-0.3-0.7-0.7-1.6-1.4-1.8c-1-0.2-1.6,1.1-3.4,1.6c-1.3,0.3-1.5-0.2-2.4,0	c-2,0.5-1.6,2.8-3.7,4.4c-2.3,1.8-4.5,0.2-6.6,2.2c-1.2,1.2-1.5,2.8-1.6,3.1c-0.5,3.7,3.3,7.5,6.6,9.3c5.6,3.2,8.2,0,12.8,3.1	c4,2.8,4.3,6.9,7.6,7.1c2.2,0.1,3.8-1.7,4-1.9c2-2.3,1.5-6.3-0.2-7.7c-0.6-0.5-1.3-0.5-1.6-1.2c-0.4-0.9,0.6-1.5,0.3-2.8	c-0.3-1.2-1.1-1.4-1.1-2.3c-0.1-1.4,1.5-1.8,2.3-3.6c0.5-1.1,0.8-3.1,0-4.2C43.7,66.2,35.9,69.4,34.7,66.9z"/><path class="st5" d="M79.9,35c-0.2,0.3-0.5,0.3-1,1c-0.7,0.8-0.8,1.3-1,1.3c-0.3,0-0.6-0.7-0.4-1.3c0.1-0.5,0.4-0.5,0.7-1.2	c0.2-0.4,0.7-1.3,0.4-1.8c-0.3-0.6-1.3-0.5-1.3-0.9c-0.1-0.4,0.7-1,1.3-0.9C79.7,31.2,80.7,33.8,79.9,35z"/><path class="st5" d="M73.6,30.7c-0.8,0.2-1.2-0.2-1.8,0.2c-0.5,0.4-0.7,1.1-0.7,1.7c0.1,1.1,1.2,2,1.8,1.8c0.3-0.1,0.6-0.4,0.6-0.7	c0.1-0.8-1.2-1.2-1-1.6c0.1-0.3,0.6-0.2,1.4-0.5c0.5-0.2,1.8-0.6,2.1-1.6c0.2-0.5,0-1.3-0.3-1.3C75.3,28.5,75,30.2,73.6,30.7z"/><path class="st5" d="M69,24.7c0-0.2,0.1-0.7,0.4-0.8c0.6-0.3,1.9,0.6,1.8,1.4c0,0.3-0.3,0.6-0.6,0.7C69.9,26.3,69,25.5,69,24.7z"/><path class="st5" d="M66.8,26.2c0.2,0.2,0.5,0.1,0.8,0.3c0.4,0.2,0.4,0.7,0.7,1.3c0.2,0.6,0.8,1.7,1.1,1.6c0.4-0.1,0.7-1.8-0.1-3	c-0.3-0.5-0.8-0.9-1.2-1.1c-0.4-0.3-0.6-0.5-0.9-0.4C66.8,25.2,66.6,25.9,66.8,26.2z"/><path class="st5" d="M66.7,21.9c-0.2-0.1-0.4,0.1-1.1,0.6c-1.1,0.7-1.4,0.7-1.5,1c-0.2,0.6,0.4,1.6,0.8,1.6c0.3,0,0.3-0.5,0.9-1	c0.7-0.5,1.2-0.3,1.4-0.7C67.5,22.9,67.2,22,66.7,21.9z"/><path class="st5" d="M77.2,39.1c0,0.6,0.3,1.3,0.7,1.3c0.4,0,0.8-0.7,0.7-1.3c-0.1-0.5-0.5-1-0.8-0.9C77.4,38.3,77.2,38.8,77.2,39.1	z"/><path class="st5" d="M74.5,35.9c-0.2,0.4,0.1,0.8,0.5,1c0.3,0.1,0.7,0,0.9-0.4c0.2-0.4-0.1-0.8-0.4-1C75.1,35.4,74.6,35.6,74.5,35.9	z"/><path class="st5" d="M67,35.1c0.1,0.5,0.5,1,1,0.9c0.5-0.1,0.8-0.7,0.7-1.2c-0.1-0.5-0.5-1-1-1C67.2,33.9,66.9,34.6,67,35.1z"/><path class="st6" d="M59.5,33.7c-1.2,1.8-1.4,2-1.3,2.4c0.2,0.5,0.8,0.8,1.4,0.7c0.6-0.1,1-0.6,1.1-1c0-0.4-0.2-0.4-0.2-0.8	c-0.1-0.9,0.9-1.3,0.8-2c-0.1-0.3-0.3-0.6-0.6-0.7C60.5,32.3,60.2,32.7,59.5,33.7z"/><path class="st6" d="M61.6,39.9c0,0.5,0.3,1.1,0.6,1c0.3,0,0.5-0.7,0.5-1c0.1-0.4,0-1.1-0.2-1.2C62.2,38.7,61.6,39.3,61.6,39.9z"/><path class="st6" d="M63.6,44c-0.3,0.4-0.1,1.2,0.4,1.5c0.5,0.3,1-0.2,1.7,0c0.9,0.3,0.8,1.6,1.6,1.8c0.6,0.1,1.2-0.5,1.4-1	c0.4-0.7,0.4-1.7-0.1-2.2c-0.4-0.5-0.9-0.1-3-0.2C64.3,43.8,63.8,43.7,63.6,44z"/><path class="st6" d="M57.2,42.5c-1.2,0.1-1.4,0.1-1.6-0.1C55,42,55,40.6,55.7,40.1c0.3-0.2,0.9-0.3,1.2-0.1c0.4,0.3,0.2,1,0.5,1.2	c0.3,0.2,0.6-0.3,1.1-0.3c0.7,0,1.4,1,1.2,1.4C59.6,42.6,59.1,42.4,57.2,42.5z"/><path class="st7" d="M76.9,50c0.1,0.3,0.7,0.1,1.3,0.4c0.8,0.5,0.6,1.6,0.9,1.6s0.7-1.1,0.3-2c-0.3-0.6-1-1.1-1.6-1	C77.2,49.2,76.8,49.7,76.9,50z"/><path class="st7" d="M72.6,55.5c0.4,0.4,1.6,0.1,1.8-0.6c0.1-0.3-0.1-0.7-0.4-1c-0.4-0.3-0.9-0.2-1.2,0	C72.3,54.4,72.3,55.2,72.6,55.5z"/><path class="st7" d="M77.2,58.4c0.2,0.3,0.6,0.1,1.4,0.3c0.9,0.3,1.2,0.7,1.4,0.6c0.2-0.2-0.2-1.1-0.7-1.7c-0.3-0.4-0.8-1-1.3-0.9	C77.4,56.8,76.9,57.9,77.2,58.4z"/><path class="st8" d="M75,70.1c-0.2,0.1-0.1,0.7,0.1,1.1c0.2,0.4,0.7,0.9,0.9,0.8s0.2-0.8-0.1-1.3C75.7,70.3,75.2,70,75,70.1z"/><path class="st8" d="M73.3,74.5c-0.2,0.6-0.2,1.4,0.2,1.6c0.1,0.1,0.3,0,1.5-1.1c1-0.9,1.1-1.1,1-1.3c-0.1-0.4-0.7-0.8-1.2-0.8	C73.8,72.9,73.3,74.4,73.3,74.5z"/><path class="st8" d="M71.4,75c-0.5,0.2-1.2,0-1.3-0.4C70,74.2,71,74,71.5,72.9c0.5-1.1-0.2-2.1,0.3-2.4c0.3-0.2,0.8,0,1,0.3	c0.1,0.2,0.3,0.5-0.3,2.2C71.9,74.8,71.5,75,71.4,75z"/><path class="st5" d="M58.9,68.6c-0.4,0.6-0.4,1.3-0.4,1.6c0,0.9,0.5,1.6,0.9,2.1c0.4,0.5,0.6,0.8,1,0.8c0.6,0,1-1.1,1.1-1.4	c0.2-0.7,0.4-1.7,0.1-1.8c-0.4-0.2-1.3,1.3-1.6,1.1c-0.2-0.1-0.2-1.2,0.4-1.7c0.6-0.5,1.4-0.1,1.6-0.4c0.1-0.3-0.3-0.9-0.8-1.1	C60.3,67.3,59.3,67.9,58.9,68.6z"/><path class="st5" d="M52.8,72.6c-0.2-0.1,0.1-0.7-0.2-1.2c-0.3-0.4-0.6-0.2-0.9-0.6c-0.3-0.4-0.3-1.1,0-1.3c0.4-0.3,1.3,0,1.7,0.5	c0.5,0.5,0.5,1.3,0.2,1.8C53.4,72.3,53,72.7,52.8,72.6z"/><path class="st5" d="M61.7,80.6c-0.6,0.3-0.5,0.8-1,1.5c-0.6,0.8-1,0.5-1.4,1c-0.8,1.1,0.4,2.7-0.2,3.1c-0.3,0.2-1.1,0-1.5-0.5	c-0.8-1,0.7-2.2,0.1-4.1c-0.2-0.7-0.7-1.2-0.4-1.6c0.2-0.3,0.6-0.4,0.9-0.3c0.6,0.2,0.5,1.1,1,1.2c0.3,0.1,0.5-0.2,1-0.7	c0.6-0.6,1.6-1.4,2.2-1.2c0.5,0.2,0.8,1,0.5,1.3C62.6,80.6,62.2,80.3,61.7,80.6z"/><path class="st5" d="M50.6,75.6c-0.4,0.5-0.1,1-0.4,1.7c-0.4,0.8-1.4,0.9-1.3,1.1c0.1,0.2,1.1,0.3,2-0.2c0.3-0.2,0.9-0.5,1.1-1.2	c0.2-0.7-0.2-1.7-0.7-1.8C50.9,75.2,50.6,75.6,50.6,75.6z"/><path class="st5" d="M52.2,86.7c-0.4,0.9-0.7,1-0.7,1.6c0,0.5,0.2,1.1,0.6,1.2c0.6,0.1,1.9-1.7,1.6-3.3c-0.1-0.7-0.5-1.4-0.8-1.3	C52.5,84.9,52.7,85.6,52.2,86.7z"/><path class="st6" d="M41.5,87.9C40.9,88,40.3,87,40,87.2c-0.3,0.1-0.3,0.8,0,1.3c0.4,0.6,1.4,0.7,2.1,0.4c0.7-0.2,1.3-0.8,1.4-1.6	c0.1-0.5-0.2-1.2-0.4-1.2C42.5,86,42.4,87.8,41.5,87.9z"/><path class="st6" d="M40.3,81.6C40,82.5,39.8,83,40,83.2c0.2,0.2,0.9,0,1.3-0.4c0.9-0.9,0.4-3,0-3C41,79.7,40.7,80.6,40.3,81.6z"/><path class="st6" d="M38.4,74.7c-0.1-0.6,0.3-1.3,0.6-1.3s0.4,0.7,0.8,0.7c0.4,0,0.7-0.7,0.7-0.7l0,0c0,0,0.7-1.7,1.5-1.7	c0.4,0,0.8,0.4,0.8,0.8c0,0.6-1,0.6-1.3,1.4c-0.2,0.5,0.1,0.8-0.2,1.3c-0.2,0.5-0.8,0.8-1.5,0.8C39.2,75.9,38.5,75.4,38.4,74.7z"/><path class="st6" d="M37,72.1c-0.3-0.1-0.3-0.9-0.1-1.3c0.6-0.9,2.6-1.1,3.2-0.2c0.2,0.4,0.2,1-0.1,1.3c-0.5,0.4-1.2-0.4-2.2,0	C37.4,71.9,37.2,72.2,37,72.1z"/><path class="st6" d="M34.9,79.2c0,0.7,0.3,1.6,0.6,1.6s0.7-0.9,0.5-1.8c-0.1-0.6-0.5-1.2-0.7-1.2C35,77.9,34.9,78.7,34.9,79.2z"/><path class="st6" d="M28.1,80.4c0.1,0.3,0.7,0.4,1.1,0.3c0.7-0.1,1.3-0.8,1.2-1.1c-0.1-0.3-0.8-0.3-1.2-0.2	C28.6,79.6,28,80.1,28.1,80.4z"/><path class="st6" d="M27.5,75.4c-0.5,0.5-0.3,1.5,0.2,1.8c0.3,0.2,0.8,0,1-0.2c0.5-0.5,0.2-1.7-0.4-1.8C28.1,75,27.7,75.2,27.5,75.4	z"/><path class="st6" d="M27.5,70.4c-0.3-0.3,0-1.1,0.5-1.4c0.4-0.2,0.6,0,1.3-0.2c0.9-0.2,1.2-0.9,1.5-0.8c0.3,0.1,0.4,0.9,0.1,1.2	c-0.1,0.1-0.2,0.1-1.1,0.4c-0.1,0-0.2,0.1-0.2,0.1c-0.7,0.3-0.8,0.6-1.2,0.8C28.2,70.6,27.7,70.7,27.5,70.4z"/><path class="st6" d="M21.6,71.3c-0.4,0.3-0.4,0.6-0.7,1.7c-0.4,1.3-0.7,1.6-0.4,1.9c0.2,0.3,0.8,0.4,1.1,0.2c0.4-0.3-0.1-1,0.3-1.5	c0.4-0.5,1.2-0.3,1.3-0.5c0-0.2-0.5-0.3-0.7-0.7c-0.2-0.5,0.2-1,0-1.2C22.3,71.1,21.9,71.2,21.6,71.3z"/><path class="st5" d="M51.4,52.4c-0.2,0.8-0.8,1-0.7,1.6c0.1,0.6,0.8,1.3,1.3,1.2c0.7-0.1,1-1.6,0.9-2.7c-0.2-1.7-1.5-2.9-1.8-2.7	C50.9,49.8,51.8,51,51.4,52.4z"/><path class="st5" d="M49.8,57.5c0,0.5,0.4,0.9,0.7,1c0.6,0,1.3-1,1-1.6c-0.2-0.3-0.7-0.6-1.1-0.4C49.9,56.5,49.8,57.1,49.8,57.5z"/><path class="st5" d="M45.8,55.2c-0.3,0.6,0,0.9-0.3,1.6c-0.3,0.8-1.1,1-1,1.3c0.1,0.3,1,0.2,1.5,0.1c0.6-0.1,1.5-0.3,1.7-0.9	c0.1-0.3-0.1-0.7-0.5-1.7c-0.3-0.7-0.4-0.9-0.6-0.9C46.3,54.5,46,54.9,45.8,55.2z"/><path class="st8" d="M51.6,11.2c0,0.2,0.3,0.4,0.8,0.9c1.1,0.9,1.2,1,1.3,1c0.3-0.1,0.3-1,0-1.6c-0.1-0.3-0.4-0.9-1-1	C52.3,10.4,51.6,10.8,51.6,11.2z"/><path class="st8" d="M56.9,16.4c0.7,0.3,1.8,0.2,2.2-0.5c0.2-0.4,0.3-0.9,0-1.3c-0.7-1-3.3-0.6-3.6,0.2	C55.4,15.3,56.1,16.1,56.9,16.4z"/><path class="st9" d="M59.9,18.4c0.5,0.1,1-0.4,1-0.7c0-0.5-1.2-0.8-1.5-0.5C59.2,17.4,59.3,18.2,59.9,18.4z"/><path class="st8" d="M55.8,20.1C55.3,20.8,55.2,21,55,21c-0.5,0-0.7-1.1-1-1c-0.3,0-0.6,0.9-0.4,1.6c0.1,0.8,0.8,1.6,1.6,1.8	c0.2,0.1,0.9,0.2,1.3-0.1c0.5-0.4,0-1.1,0.4-2.2c0.4-1.1,1.3-1.4,1.2-2c-0.1-0.4-0.5-0.6-0.9-0.6C56.7,18.4,56.6,18.9,55.8,20.1z"/><path class="st8" d="M54,18.5c0.2,0.3,0.6,0.3,0.7,0.3c0.1,0,0.7,0.1,0.8-0.2c0.2-0.4-0.6-1.5-1.1-1.3C54,17.4,53.7,18.1,54,18.5z"	/><path class="st5" d="M22.9,21.2c-0.5,0.7-1.1,0.7-1.1,1.1c0,0.4,0.4,0.8,0.8,0.9c0.5,0.1,0.8-0.4,0.9-0.4c0.8-0.9,0.2-2.6-0.1-2.6	C23.3,20.1,23.4,20.6,22.9,21.2z"/><path class="st5" d="M24.1,30.1c0,0.4,0.6,0.8,1.1,0.8c0.3,0,0.7-0.1,0.8-0.4c0.1-0.4-0.6-1.2-1.3-1C24.4,29.5,24.1,29.8,24.1,30.1z	"/><path class="st5" d="M18.9,28.9c-0.6,0.4-0.8,1.2-0.8,1.3c-0.1,0.6,0.1,1.4,0.4,1.4c0.3,0.1,0.4-0.6,1-1c0.8-0.4,1.6,0.3,2.1-0.1	c0.3-0.3,0.3-0.9,0.2-1.3C21.3,28.5,19.8,28.3,18.9,28.9z"/><path class="st5" d="M15.7,25.1c-0.4-0.6-1.2-1.5-1.9-1.3c-0.9,0.2-1.3,1.6-1.1,1.8c0.1,0.1,0.5-0.5,1.1-0.4c0.5,0,1,0.4,1.1,0.8	c0.1,0.5-0.3,0.6-0.4,1.3c-0.1,0.5,0,1.3,0.5,1.6c0.5,0.3,1.3,0.1,1.6-0.4C17.3,27.6,16.3,25.9,15.7,25.1z"/><path class="st5" d="M12,31.3c-0.1,0.7,0.3,1.6,0.8,1.6c0.3,0,0.5-0.2,0.7-0.4c0.4-0.5,0.4-1.1,0.4-1.3c0-0.2,0-1.1-0.4-1.3	C13,29.8,12.1,30.5,12,31.3z"/></svg>