<?xml version="1.0" encoding="utf-8"?><!-- Generator: Adobe Illustrator 26.0.3, SVG Export Plug-In . SVG Version: 6.00 Build 0)  --><svg version="1.1" id="Ebene_2_00000126308112139821010380000011903406711838980787_"	 xmlns="http://www.w3.org/2000/svg" xmlns:xlink="http://www.w3.org/1999/xlink" x="0px" y="0px" viewBox="0 0 100 100"	 style="enable-background:new 0 0 100 100;" xml:space="preserve"><style type="text/css">	.st0{fill:#8A3C8F;stroke:#000000;stroke-width:2;stroke-miterlimit:10;}	.st1{fill:#69B42D;stroke:#000000;stroke-miterlimit:10;}	.st2{fill:#DB6500;stroke:#000000;stroke-width:0.5;stroke-miterlimit:10;}	.st3{fill:#DB6500;stroke:#000000;stroke-width:0.5;stroke-miterlimit:10;}	.st4{fill:#493127;stroke:#000000;stroke-width:0.25;stroke-miterlimit:10;}	.st5{fill:#493127;stroke:#000000;stroke-width:0.25;stroke-miterlimit:10;}	.st6{fill:none;stroke:#000000;stroke-width:0.25;stroke-miterlimit:10;}</style><polygon class="st0" points="92,25.7 50,1.5 8,25.7 8,74.2 50,98.5 92,74.2 "/><path class="st1" d="M22.1,67.3c11.3,5.6,15,0.9,21.2,5.9c7.6,6.2,11.5,20.9,14.1,20.9c0.1,0,0.3,0,0.3,0c0.8-0.1,1.7-1.1,8.8-5.2	c1.9-1.1,2.9-1.7,4.2-2.4c7-3.9,8.2-3.8,8.4-4.8c0.7-3.4-10.9-6.5-10.5-11.7c0.1-1.7,1.4-3.3,2.9-3.7c1.9-0.5,3.4,1.4,6,2.8	c3.9,2.1,9.8,2.9,12.7,0.7c2.1-1.6,1.8-4,1.9-15.4c0-13,0.4-18.5-1.9-19.2c-1.2-0.4-2.9,0.7-3.8,1.2c-1.8,1.1-2.4,2.7-3.6,4.2	c-2.5,3.2-3.4,4.8-5,6c-4,3.2-11.5,3.1-13.7-0.1c-1.4-2.1-0.7-5.6,0.9-7.8c2.1-2.9,4.7-1.9,7.7-5.1c2.5-2.8,1.5-4.4,3.8-6.6	c3.7-3.5,9.3-1.3,9.9-2.9c0.3-0.8-0.9-2.6-13.5-9.5C60.3,7.8,58.2,7.7,57.4,8.5c-1,1.1,1.1,3,1,6.9c-0.1,6.1-4.5,8.2-7.4,15.1	c-2.6,6.2,0,6.5-2.3,13.9c-0.6,1.8-0.9,2.8-1.3,3.2C43.7,51.7,12,26.5,8,30.6c-0.6,0.6-0.3,1.5,0.1,3.6c2.1,11.6-1.8,15,0,20.9	C10.1,61.4,16.6,64.6,22.1,67.3z"/><path class="st2" d="M70.4,43.5c1.1,0.4,0.8,2,1.7,2.3c1.6,0.6,5-3.4,4.3-4.3c-0.3-0.5-1.2,0.2-2.7-0.4c-0.6-0.2-1.1-0.8-2.2-1.9	c-1.4-1.4-1.4-1.6-1.8-1.7c-1.7-0.5-5,2.6-4.3,4.9c0.2,0.7,0.9,1.6,1.8,1.8C68.6,44.5,69.4,43.2,70.4,43.5z"/><path class="st3" d="M73.6,40c0.6,0.3,1.1-0.3,2.3-0.8c2.6-0.9,3.7,0.6,6-0.2c1.9-0.7,2.9-2.4,3-2.7c0.6-1.1,0.5-2.3,0.4-4.8	c-0.1-2.7-0.2-4-0.9-4.4c-1.4-0.8-3.9,1.2-4.7,1.8c-2.5,2-1.9,3.1-4.7,5.3c-1.3,1-2.1,1.3-2.4,2.4C72.2,37.9,72.7,39.6,73.6,40z"/><g>	<path class="st2" d="M12.5,74.6c0.4,0.1,2.4,0.9,3.7,0c1-0.7,0.3-1.8,1.4-3.4c1-1.5,2.4-1.5,2.5-2.7c0-0.8-0.4-1.9-1.3-2.1		c-1-0.3-1.5,1-2.9,1c-1.5,0-2.1-1.3-3.2-0.9c-0.5,0.2-0.9,0.8-1.6,2.1c-0.2,0.3-0.6,1.2-0.9,2.3C10,71.2,10,71.6,10,72		c0,0.4,0.1,0.8,0.2,1C10.6,73.4,11.3,74.1,12.5,74.6z"/>	<path class="st4" d="M12.3,71.7c0.4-0.2,0.9,0.2,1.2,0c0.2-0.2,0.2-0.6,0-0.9c-0.4-0.5-1.8-0.2-2,0.3c-0.1,0.2,0,0.2,0.2,0.8		c0.1,0.6,0.1,1,0.2,1C12,72.9,11.8,72,12.3,71.7z"/>	<path class="st4" d="M15.7,72.9c0.2-0.4,0.5-1.1,0.4-1.2c-0.1-0.1-0.3,0.3-1.1,1c-0.2,0.1-0.3,0.3-0.4,0.5c0,0.2,0.1,0.5,0.3,0.5		C15.2,73.8,15.5,73.3,15.7,72.9z"/>	<path class="st4" d="M13,67.8c0.4-0.4,1.2-0.5,1.6-0.2c0.2,0.2,0.3,0.5,0.2,0.7c-0.2,0.3-1.2-0.1-1.4,0.3c-0.2,0.2,0.3,0.6,0.1,0.9		c-0.1,0.1-0.4,0.2-0.6,0.1C12.6,69.4,12.5,68.4,13,67.8z"/>	<path class="st4" d="M16.2,70.3c0.1-0.2-0.3-0.7-0.6-0.6c-0.2,0.1-0.4,0.4-0.3,0.6C15.5,70.6,16.1,70.5,16.2,70.3z"/>	<path class="st4" d="M18.2,69.7c0.7-0.4,1-1.4,0.6-1.8c-0.2-0.2-0.6-0.3-0.8-0.2c-0.2,0.2,0.3,0.9,0,1.1c-0.2,0.2-0.8-0.2-1.2,0.1		c-0.3,0.2-0.3,0.7-0.1,0.9C17.1,70.2,17.8,70,18.2,69.7z"/></g><g>	<path class="st2" d="M28.1,73.1c-4.9-0.3-6.7-1.2-7.9-0.1c-1.6,1.5-0.8,5.3,1.5,6.7c2.1,1.3,3.9-0.5,6.2,0.9		c2.3,1.3,1.6,3.8,4.3,5.1c1,0.5,1.1,0.1,3.1,0.7c3.3,1,4.3,2.2,5.1,1.8c0.9-0.4,0.5-2.3,0.2-5.5c-0.5-6.8,0.8-7.9-0.5-9.2		C38.3,71.8,35.9,73.6,28.1,73.1z"/>	<path class="st4" d="M38.8,77.3c-0.1,0.6-0.4,2-0.8,2c-0.4,0-0.9-1.2-0.6-2.4c0.2-0.8,0.9-1.5,1.2-1.5C39,75.6,38.8,77.1,38.8,77.3		z"/>	<path class="st4" d="M33.2,79.6c-0.4,0-0.9-0.3-0.9-0.7c0-0.6,1.4-1.1,1.7-0.8C34.3,78.3,33.9,79.5,33.2,79.6z"/>	<path class="st4" d="M37.3,81.7c-0.4,0.8-1.9,0.7-2.1,0.7c-0.7,0-1.6-0.3-1.6-0.6c0-0.2,0.5-0.3,1.1-0.7c0.8-0.6,0.8-1.2,1.2-1.2		C36.6,79.8,37.7,81,37.3,81.7z"/>	<path class="st4" d="M32.2,75.9c-0.1-0.3,0.6-0.7,1.3-1c0.6-0.2,1.4-0.2,1.5,0c0.1,0.2-0.5,0.8-1.2,1		C33.1,76.2,32.2,76.1,32.2,75.9z"/>	<path class="st4" d="M26.8,75.1c-0.9,0.8-1.1,2.2-0.4,2.7c0.6,0.4,1.9,0.1,2-0.4c0.1-0.4-0.8-0.7-0.8-1.2c0.1-0.8,2-1.2,1.9-1.5		C29.5,74.5,27.8,74.3,26.8,75.1z"/>	<path class="st4" d="M21.2,75.7c-0.1,0.3,0.6,0.9,1.3,0.8c0.9-0.1,1.4-1.1,1.1-1.4C23.3,74.7,21.3,75.2,21.2,75.7z"/></g><g>	<path class="st3" d="M35.5,36.7c1.3,0.5,1.1,1.5,2.8,2.8c2.1,1.7,5.1,2.5,6.8,1.3c0.8-0.6,1.5-1.7,1.2-2.4		c-0.4-0.8-2.1-0.2-3.1-1.4c-0.3-0.4-0.4-0.7-0.7-3c-0.4-3.3-0.4-3.7-0.8-4.4c-0.7-1.1-2.1-2-3-1.8c-1,0.3-0.5,1.8-1.5,3		c-1.4,1.8-3.7,0.3-7.1,2.2c-1.8,1-1.8,1.8-1.8,1.9c0.1,0.9,1.4,1.9,2.5,2.2C33,37.8,33.8,36,35.5,36.7z"/>	<path class="st5" d="M33.6,34.3c-0.7,0.2-1.4-0.5-1.5-0.4C32,34,32.7,35,33.6,35.2c0.8,0.2,1.6-0.4,1.6-0.9c0-0.3-0.4-0.6-0.8-0.6		C34,33.7,34,34.1,33.6,34.3z"/>	<path class="st5" d="M39.8,34.7c0-0.3-1.3-0.7-1.4-1.1c0-0.6,2-0.5,2-1.2c0-0.4-0.5-0.8-1-0.9c-1.2-0.4-2.6,0.8-2.3,1.9		c0.2,0.8,1.2,1.2,1.3,1.3C39.1,34.9,39.8,34.9,39.8,34.7z"/>	<path class="st5" d="M40.4,37.7c0.6,0.4,1.4,0,1.6-0.7c0.1-0.5,0-1.1-0.4-1.4c-0.6-0.4-1.7,0.1-1.8,1C39.8,37,40,37.5,40.4,37.7z"		/>	<path class="st5" d="M43.6,39.8c0.2-0.1,0.2-1-0.2-1.2c-0.3-0.2-0.7,0-0.7,0.2C42.5,39.2,43.3,39.9,43.6,39.8z"/></g><g>	<path class="st2" d="M39,24.1c0.2-1-1.1-1.3-1.9-3.9c-0.9-2.8,0.1-4.1-0.9-5.1C35,13.9,32,14,30.6,15.4c-1.6,1.6-0.4,4.1-2,5.2		c-1.2,0.9-2.6,0.1-3.1,0.9c-0.6,0.8,0.2,2.6,1.2,3.7C30,28.6,38.5,26.6,39,24.1z"/>	<path class="st4" d="M29,22.8c0.1,0.6,1,1,1.7,0.9c0.8,0,1.8-0.6,1.8-1.1c0-0.7-1.8-1.6-2.8-0.9C29.3,22,29,22.4,29,22.8z"/>	<path class="st4" d="M34.7,21.7c0.1,0.3,0.5,0.5,0.7,0.5c0.4-0.1,0.7-0.9,0.4-1.3c-0.2-0.2-0.7-0.3-1,0		C34.6,21.1,34.6,21.5,34.7,21.7z"/>	<path class="st4" d="M33.1,19.1c0-0.3-0.6-0.8-1.1-0.6c-0.7,0.2-0.8,1.1-0.5,1.3C31.8,20.2,33.2,19.6,33.1,19.1z"/></g><g>	<path class="st3" d="M45.3,90.9c1.4,1,1.2,2.3,1.8,2.3c1,0,2.5-3.6,1.4-5.1c-0.4-0.5-0.7-0.3-1.2-0.9c-0.7-1,0-2-0.7-3.2		c-0.3-0.5-0.9-1.1-1.3-1c-0.4,0.1-0.4,0.7-0.9,2c-0.7,1.8-1.3,2.1-1.3,3.2c0,0.2,0,0.8,0.4,1.3C44,90.4,44.5,90.4,45.3,90.9z"/>	<path class="st5" d="M44,88.3c-0.1,0.2,0.1,0.5,0.3,0.7c0.3,0.2,0.9-0.1,1.1-0.5c0.2-0.5-0.1-0.9-0.2-1.1c-0.3-0.4-0.8-0.7-1-0.6		c-0.1,0.1-0.1,0.3-0.1,0.4c0.1,0.4,0.5,0.6,0.4,0.8C44.5,88.2,44.1,88.1,44,88.3z"/>	<path class="st5" d="M45.6,89.3c-0.1-0.2,0.2-0.7,0.6-0.8c0.1,0,0.3-0.1,0.3,0c0.1,0.1-0.1,0.7-0.4,0.9		C45.9,89.5,45.6,89.5,45.6,89.3z"/>	<path class="st5" d="M46.8,91.7c0.2,0.1,0.4,0,0.5-0.2c0.2-0.2,0.1-0.6,0-0.7c-0.2-0.1-0.6,0.1-0.7,0.4		C46.6,91.4,46.6,91.6,46.8,91.7z"/>	<path class="st5" d="M45.4,85.7C45.9,85.1,46,85,46,85c-0.1-0.1-0.4-0.2-0.6,0c-0.5,0.3-0.6,1.2-0.4,1.3		C44.9,86.2,45,86.2,45.4,85.7z"/></g><path class="st6" d="M45.6,23.3"/><g>	<path class="st3" d="M50.8,29.2c1.4-3.2,0-6.3-0.2-6.7c-0.7-1.4-1-1.1-1.9-2.7c-1-1.9-0.8-2.8-1.7-6.7c-1-4.3-1.7-4.6-2-4.7		c-0.8-0.2-1.6,0.7-2.7,1.9c-1.1,1.2-2.9,3.2-3.4,6.4c-0.3,1.5-0.6,3.3,0.3,5.1c1.2,2.3,2.9,1.8,4.6,4c2.4,3.2,0.6,6.8,2.1,7.4		C47.2,34,49.8,31.6,50.8,29.2z"/>	<path class="st5" d="M43.3,21.5c0.2-0.1-0.5-0.9-0.3-2.1c0.2-1.2,1.1-1.8,0.9-2.1c-0.2-0.3-1.7,0-2.1,1c-0.2,0.5,0,1.1,0.3,1.7		C42.5,20.8,43.2,21.6,43.3,21.5z"/>	<path class="st5" d="M50.1,24.7c0.4-0.4,0.1-1.4-0.4-1.7c-0.4-0.2-0.7,0-1.9,0.4c-1.4,0.4-1.8,0.3-1.8,0.4		C45.9,24.2,49.4,25.6,50.1,24.7z"/>	<path class="st5" d="M47.3,27.4c0.4,0.3,1.1,0,1.3-0.5c0.1-0.4-0.2-0.9-0.6-1c-0.3-0.1-0.6,0.1-0.8,0.3		C46.9,26.5,46.9,27.1,47.3,27.4z"/>	<path class="st5" d="M46.7,29.8c-0.2,0.8,0.9,1.7,1.6,1.5c0.4-0.1,0.6-0.7,0.6-1c0-0.5-0.3-1.2-0.9-1.3		C47.4,28.9,46.8,29.4,46.7,29.8z"/>	<path class="st5" d="M47.8,19.5c0.3-0.5-0.6-1.7-1.1-1.6c-0.4,0.1-0.9,1.1-0.4,1.6C46.7,20,47.6,19.9,47.8,19.5z"/>	<path class="st5" d="M43,13.2c0.3-0.1,0.6,0.3,1,0.2c0.6-0.2,0.5-1.1,1.3-1.5c0.4-0.2,0.9-0.2,1.1,0.1c0.4,0.4,0.1,1.4-0.4,1.8		c-0.8,0.6-1.7,0-2.4,0.6C43,15,43.2,15.8,43,15.8C42.8,15.8,42.3,13.5,43,13.2z"/></g><g>	<path class="st2" d="M55.2,16c0.2-1.2-0.1-1.4-0.8-4.9c-0.5-3-0.4-3.9-1.2-4.3c-0.9-0.5-2.2-0.2-3,0.4c-2.4,1.7-1.4,6.2-1.2,7.1		c0.4,1.7,1.6,5.4,3.3,5.4C53.7,19.8,54.9,17.7,55.2,16z"/>	<path class="st4" d="M54.2,15.1c0-0.4-0.3-0.9-0.7-1c-0.4,0-0.8,0.3-0.9,0.7c-0.1,0.6,0.5,1.2,1,1.1C54,15.9,54.2,15.5,54.2,15.1z"		/>	<path class="st4" d="M53.2,10.7c0.7-0.8-0.2-2.6-0.6-2.6c-0.1,0-0.2,0.2-0.4,0.7c-0.4,1-0.6,1.8-0.3,2.1		C52.2,11.2,52.9,11.1,53.2,10.7z"/></g><path class="st4" d="M70.4,42.1c0.3-0.6,0.1-1.5-0.5-1.8c-0.6-0.3-1.3,0.1-1.6,0.4c-0.4,0.5-0.7,1.2-0.4,1.7	C68.4,43.1,70,43,70.4,42.1z"/><path class="st4" d="M72.7,43.4c0.8,0.1,1.1,0.8,1.3,0.7c0.3-0.1,0.3-1.1-0.2-1.7c-0.3-0.4-1-0.7-1-0.7l0,0c0.4,0.3-0.9-0.8-1.3-0.6	c-0.5,0.2-0.6,1.9,0.1,2.3C71.9,43.6,72.1,43.3,72.7,43.4z"/><path class="st5" d="M77.6,36.3c-0.1-0.5-1.1-1.1-1.8-0.7c-0.7,0.4-0.6,1.6-0.2,1.9C76.3,37.9,77.7,37,77.6,36.3z"/><path class="st5" d="M79.8,33.3c-0.4-0.1-1.2,0.8-1,1.3c0.2,0.3,0.7,0.5,1,0.3C80.4,34.6,80.2,33.4,79.8,33.3z"/><path class="st5" d="M81.9,36.4c0.3-0.2-0.1-0.8,0.1-1.9c0.2-1.1,0.8-1.6,0.6-1.8c-0.2-0.2-1.3,0.3-1.8,1.2c0,0.1-0.7,1.3-0.1,2.1	C81,36.3,81.6,36.6,81.9,36.4z"/><path class="st5" d="M84,30.7c0.5-0.6,0.1-1.7-0.6-1.9c-0.4-0.1-1,0-1.3,0.4c-0.3,0.5-0.2,1.3,0.3,1.6C82.9,31.2,83.7,31.1,84,30.7z	"/><g>	<path class="st3" d="M84.3,73.2c-0.6-0.5-1.6,0.7-2.7,0.2c-0.7-0.3-0.6-0.7-1.3-1.1c-1.1-0.6-1.7,0.2-2.9-0.3		c-0.9-0.4-0.8-0.9-2.1-1.8c-0.5-0.3-1.5-1-2-0.8c-0.5,0.3-0.3,1.4-0.2,2.1c0.3,1.5,0.9,4.7,3.6,6c0.2,0.1,1.6,0.8,3.1,0.5		c1-0.2,0.8-0.6,2.6-1.7c1.3-0.7,1.9-0.8,2.1-1.5C84.8,74.3,84.7,73.5,84.3,73.2z"/>	<path class="st5" d="M79.9,75c-0.3,0.3-0.7,0.6-0.6,1.1c0.1,0.3,0.4,0.5,0.6,0.6c0.4,0.1,0.7-0.4,1-1c0.3-0.5,0.6-1.1,0.4-1.3		C81.2,74.2,80.4,74.6,79.9,75z"/>	<path class="st5" d="M78.6,73.4c0.2,0,0.5,0,0.6,0.2c0.2,0.3,0.1,0.6-0.2,0.8c-0.3,0.1-0.8-0.1-0.8-0.4		C78.1,73.7,78.3,73.4,78.6,73.4z"/>	<path class="st5" d="M74.8,71.9c-0.3,0.2-0.1,1,0.3,1.1c0.3,0.1,0.8-0.2,0.7-0.5C75.8,72.1,75.1,71.7,74.8,71.9z"/>	<path class="st5" d="M78.3,75.8c0.3,0.1,0.5,0.8,0.2,1.2c-0.2,0.2-0.6,0.4-0.8,0.2c-0.3-0.2-0.3-0.9,0.1-1.2		C77.7,76,78,75.7,78.3,75.8z"/></g></svg>