<?xml version="1.0" encoding="utf-8"?><!-- Generator: Adobe Illustrator 26.0.3, SVG Export Plug-In . SVG Version: 6.00 Build 0)  --><svg version="1.1" id="Ebene_2_00000008854137008483476280000003303031621812150931_"	 xmlns="http://www.w3.org/2000/svg" xmlns:xlink="http://www.w3.org/1999/xlink" x="0px" y="0px" viewBox="0 0 100 100"	 style="enable-background:new 0 0 100 100;" xml:space="preserve"><style type="text/css">	.st0{fill:#8A3C8F;stroke:#000000;stroke-width:2;stroke-miterlimit:10;}	.st1{fill:#69B42D;stroke:#000000;stroke-miterlimit:10;}	.st2{fill:#C78F55;stroke:#000000;stroke-width:0.5;stroke-miterlimit:10;}	.st3{fill:#DB6500;stroke:#000000;stroke-width:0.5;stroke-miterlimit:10;}	.st4{fill:#C78F55;stroke:#000000;stroke-width:0.5;stroke-miterlimit:10;}	.st5{fill:#493127;stroke:#000000;stroke-width:0.25;stroke-miterlimit:10;}	.st6{fill:#493127;stroke:#000000;stroke-width:0.25;stroke-miterlimit:10;}	.st7{fill:#493127;stroke:#000000;stroke-width:0.25;stroke-miterlimit:10;}	.st8{fill:#493127;stroke:#000000;stroke-width:0.25;stroke-miterlimit:10;}	.st9{fill:#493127;stroke:#000000;stroke-width:0.25;stroke-miterlimit:10;}</style><polygon class="st0" points="89.7,25.8 47.7,1.5 5.7,25.8 5.7,74.2 47.7,98.5 89.7,74.2 "/><path class="st1" d="M50.1,91.3c0-2.7-1-4-1.7-6.4c-0.9-3.3-0.3-5.7,0.1-8.8c1.5-12.1-2.9-14.6,0-20.3c1.9-3.8,5.3-5.7,11.9-9.4	c3.7-2.1,4.9-2.3,7.9-3.5c0,0,1.4-0.6,3.7-1.7c7-3.4,15-11.1,17.2-9.4c0.4,0.3,0.4,0.8,0.4,3.1c0.1,5.4,0,8,0,9.3	c0.1,10.9,0.9,10.9,0,12.6c-0.4,0.8-1.4,2.2-10.8,5.7c-8.8,3.3-11.2,3.3-12.6,5.8c-1.3,2.4,1.9,4.1,2,9.7c0,0.6,0,1.9,0.9,3.2	c0.1,0.2,1.4,2.1,2.9,1.9c1.8-0.2,2.2-3.5,3.4-3.4c0.8,0.1,1.6,1.4,1.3,2.2c-0.3,0.7-1.3,0.9-1.6,0.9c0,0-4,2.3-12,6.9	c-10.7,6.2-13.2,7.6-13.9,6.8C48.7,95.7,50.1,94.4,50.1,91.3z"/><path class="st2" d="M69.2,81c0.9,1.2,2.7,1.8,3.7,1.2c0.7-0.4,0.4-1.2,1.2-2c1.2-1.2,2.6-0.5,3.2-1.6c0.5-0.8-0.1-1.6,0.3-2	c0.6-0.5,1.8,0.9,3.6,0.9c1.8,0,3.1-1.5,3.3-1.8c1.2-1.4,1.7-3.4,1.1-5c-0.4-1-0.9-0.9-1.6-2.2c-0.8-1.7-0.3-2.3-0.9-3.1	c-1.5-2-6.2-0.8-6.6-0.7c-1.7,0.5-1.5,0.9-3.6,1.6c-3.5,1.2-5.3,0.5-6.1,1.8c-0.5,0.9-0.3,2.3,0.3,3c0.7,0.8,1.6,0.3,3.3,1.1	c1,0.5,2.5,1.5,2.3,2.1c-0.2,0.7-2.1,0.2-3.4,1.4C68.3,76.9,68,79.4,69.2,81z"/><path class="st2" d="M39,91.2c-1.8-1.7-1.4-2.7-3.4-4.7c-1.9-1.9-3-1.7-3.3-2.9c-0.4-1.5,0.9-3,3.1-5.6c2.3-2.6,3.5-4,5.2-3.9	c1.3,0.1,2.7,1,3,2.1c0.1,0.6-0.2,0.9-0.2,1.9c-0.1,1.3,0.5,2.2,0.8,2.9c0.6,1.2,0.6,3.2,0.6,7c0,3.2,0,4.8-0.7,5.2	C42.7,94.1,40.2,92.3,39,91.2z"/><path class="st2" d="M22.9,76.7c-0.8-0.2-0.9,0.2-1.7,0c-2.1-0.4-2-3-3.9-3.6c-1.6-0.4-2.4,1.2-3.9,0.6c-1-0.4-1.6-1.7-1.7-2.6	c-0.2-1.6,0.9-2.3,1.6-4c1.5-3.7-1.2-6.1,0.3-8.1c1.3-1.6,4.7-1.7,5.9-0.4c0.8,0.8,0.1,1.8,0.9,2.6c1.1,1.1,2.9-0.3,5.1,0.3	c2.3,0.6,4.1,3,4.7,5c0.8,2.8-0.7,4.2,0.7,6.4c0.8,1.3,1.7,1.3,2,2.4c0.5,1.8-0.9,4.4-3,5c-1.9,0.5-3.7-0.7-3.9-0.9	C24.5,78.4,24.4,77,22.9,76.7z"/><path class="st3" d="M41.2,62.3c0.3-1.5,1.2-4.9-0.6-6.7c-0.7-0.7-1.2-0.5-3.1-1.2c-3.9-1.5-3.9-3.3-6.9-4c-0.6-0.1-3.5-0.8-5.2,0.9	c-1.5,1.4-1.2,3.7-1.1,4.3c0.1,0.5,0.3,2.2,1.6,3.4c1.7,1.6,3.2,0.6,4.7,2.1c1.2,1.1,1.4,2.8,1.6,4.8c0.2,1.7-0.1,2.8,0.4,4.9	c0.3,1.2,0.4,1.8,0.8,2C34.9,73.6,39.7,68.4,41.2,62.3z"/><path class="st4" d="M14.2,49.7c0.1-2.4-0.5-2.7-0.8-6.3c-0.2-3.2,0.1-3.9,0.3-4.2c0.9-1.5,3.1-2.4,4.3-1.8c0.6,0.3,0.5,0.6,1.7,2.3	c0.8,1.2,1.3,1.8,2,2.4c1.5,1.3,2.4,0.8,3,1.7c1,1.5-0.5,4.1-1.2,5.4c-0.8,1.5-1.9,3.4-4.2,4.3c-1.7,0.7-4.3,0.9-5.2-0.3	C13.6,52.5,14.1,51.9,14.2,49.7z"/><path class="st2" d="M36.9,48.3c0.3-0.2,0.6-1.1,1.1-2.9c0.9-3,0.9-3.7,0.7-4.2c-0.3-0.7-0.9-1.5-1.8-1.7c-0.8-0.2-1.4,0.3-2.8,0.9	c-2.8,1.3-3.7,0.7-4.4,1.7c-0.9,1.1-0.6,3,0,4.1C31.1,48.9,35.3,49.7,36.9,48.3z"/><path class="st4" d="M48.4,52.9c0.3-1.3-1.7-2-1.4-3.2c0.4-1.7,4.8-1.3,5.6-3.6c0.3-0.9-0.2-1.6,0.4-2.2c0.6-0.6,1.4-0.1,2-0.7	c0.7-0.6,0.6-2.2-0.1-3.2c-1.2-1.7-4.6-1.8-6.8-0.9c-1,0.4-1.4,0.9-2.6,1.1c-1.7,0.3-2.2-0.4-3.2,0c-1.6,0.6-2.4,3.2-2.2,5.3	c0.2,1.6,0.8,1.6,2.2,5c1.1,2.7,1.1,3.6,2,4C45.8,55.2,48.2,54.2,48.4,52.9z"/><path class="st2" d="M17.9,23.2c0.7-0.9,1.7-0.3,3.6-1.1c2.1-0.9,2.4-2.3,3.6-2.1c1.1,0.2,1.7,1.4,2,2c0.5,1.1,0.5,1.8,0.4,4.9	c0,3.6,0,3.9-0.3,4.3c-1.1,1.3-3.9,1.5-5.4,0.4c-0.7-0.4-0.8-0.9-1.8-1.3c-0.9-0.4-1.3-0.2-2.3-0.6c-0.5-0.2-2.3-0.8-2.3-1.7	c-0.1-0.8,1.2-0.9,2-2.4C17.8,24.5,17.3,24,17.9,23.2z"/><path class="st4" d="M45,33c0.7-1.4,0-1.7,0.8-3.8c1.3-3.6,3.5-3.7,3.9-6.3c0.2-1.9-0.9-1.9-1-5.3c0-1.6,0.2-2.2-0.1-3.6	c-0.4-1.6-0.9-1.7-1.2-3.2C46.8,8.6,47.7,7.6,47,7c-0.9-0.9-3.4,0-4.7,0.7c-1.7,0.9-1.8,1.7-3.6,2.7c-1.4,0.8-1.9,0.6-3.3,1.1	c-0.6,0.2-4.7,1.7-5.9,5c-0.8,2.2,0,4.5,0.7,6.7c0.7,2.2,1.3,2.5,1.3,4.1c0,2.1-1,2.6-1,4.6c0,1.6,0.7,3.5,1.9,4.6	C35.7,39.2,43.1,36.9,45,33z"/><path class="st3" d="M61.1,33.1c0.4,0.8-0.2,1.6,0.6,3.3c0.3,0.7,0.7,1.6,1.4,1.8c1,0.2,1.5-1.1,3.4-1.6c1.3-0.3,1.5,0.2,2.4,0	c2-0.5,1.6-2.8,3.7-4.4c2.3-1.8,4.5-0.2,6.6-2.2c1.2-1.2,1.5-2.8,1.6-3.1c0.5-3.7-3.3-7.5-6.6-9.3c-5.6-3.2-8.2,0-12.8-3.1	c-4-2.8-4.3-6.9-7.6-7.1c-2.2-0.1-3.8,1.7-4,1.9c-2,2.3-1.5,6.3,0.2,7.7c0.6,0.5,1.3,0.5,1.6,1.2c0.4,0.9-0.6,1.5-0.3,2.8	c0.3,1.2,1.1,1.4,1.1,2.3c0.1,1.4-1.5,1.8-2.3,3.6c-0.5,1.1-0.8,3.1,0,4.2C52.1,33.8,59.8,30.6,61.1,33.1z"/><path class="st5" d="M15.8,65c0.2-0.3,0.5-0.3,1-1c0.7-0.8,0.8-1.3,1-1.3c0.3,0,0.6,0.7,0.4,1.3c-0.1,0.5-0.4,0.6-0.7,1.2	c-0.2,0.4-0.7,1.3-0.4,1.8c0.3,0.6,1.3,0.5,1.3,0.9c0,0.4-0.6,1-1.3,0.9C16.1,68.8,15.1,66.2,15.8,65z"/><path class="st5" d="M22.1,69.3c0.8-0.2,1.2,0.2,1.8-0.2c0.5-0.4,0.7-1.1,0.7-1.7c-0.1-1.1-1.2-2-1.9-1.8c-0.3,0.1-0.6,0.4-0.6,0.7	c0,0.8,1.2,1.2,1,1.6c-0.1,0.3-0.6,0.2-1.4,0.5c-0.5,0.2-1.8,0.7-2.1,1.6c-0.2,0.5,0,1.3,0.3,1.3C20.5,71.5,20.8,69.8,22.1,69.3z"/><path class="st5" d="M26.8,75.3c0,0.2-0.1,0.7-0.4,0.8c-0.6,0.3-1.9-0.6-1.8-1.4c0-0.3,0.3-0.6,0.6-0.7	C25.8,73.7,26.7,74.5,26.8,75.3z"/><path class="st5" d="M29,73.8c-0.2-0.2-0.4-0.1-0.8-0.3c-0.4-0.2-0.4-0.7-0.7-1.3c-0.2-0.6-0.8-1.7-1.1-1.6c-0.4,0.1-0.7,1.8,0.1,3	c0.3,0.5,0.8,0.9,1.2,1.1c0.4,0.3,0.6,0.5,0.9,0.4C29,74.8,29.2,74.1,29,73.8z"/><path class="st5" d="M29,78.1c0.2,0.1,0.4-0.1,1.1-0.6c1.1-0.7,1.4-0.7,1.5-1c0.2-0.6-0.4-1.6-0.8-1.6c-0.3,0-0.3,0.5-0.9,1	c-0.7,0.5-1.2,0.3-1.4,0.7C28.2,77.1,28.6,77.9,29,78.1z"/><path class="st5" d="M18.6,60.9c0-0.6-0.3-1.3-0.7-1.3s-0.8,0.7-0.7,1.3c0.1,0.5,0.5,1,0.8,0.9C18.4,61.7,18.6,61.2,18.6,60.9z"/><path class="st5" d="M21.3,64.1c0.2-0.4-0.1-0.8-0.5-1c-0.3-0.1-0.7,0-0.9,0.4c-0.2,0.4,0.1,0.8,0.4,1	C20.6,64.6,21.1,64.4,21.3,64.1z"/><path class="st5" d="M28.7,64.9c-0.1-0.5-0.5-1-1-0.9c-0.5,0.1-0.8,0.7-0.7,1.2c0.1,0.5,0.5,1,1,1C28.5,66.1,28.8,65.4,28.7,64.9z"	/><path class="st6" d="M36.2,66.3c1.2-1.8,1.4-2,1.3-2.4c-0.2-0.5-0.8-0.8-1.4-0.7c-0.6,0.1-1,0.6-1.1,1c0,0.4,0.2,0.4,0.2,0.8	c0.1,0.9-0.9,1.3-0.8,2c0.1,0.3,0.3,0.6,0.6,0.7C35.3,67.7,35.5,67.3,36.2,66.3z"/><path class="st6" d="M34.1,60.1c0-0.5-0.3-1.1-0.6-1c-0.3,0-0.5,0.7-0.5,1c-0.1,0.4,0,1.1,0.2,1.2C33.5,61.3,34.1,60.7,34.1,60.1z"	/><path class="st6" d="M32.2,56c0.3-0.4,0.1-1.2-0.4-1.5c-0.5-0.3-1,0.2-1.7,0c-0.9-0.3-0.8-1.6-1.6-1.8c-0.6-0.1-1.2,0.5-1.4,1	c-0.4,0.7-0.4,1.7,0.1,2.2c0.4,0.5,0.9,0.1,3,0.2C31.4,56.2,31.9,56.3,32.2,56z"/><path class="st6" d="M38.5,57.5c1.2-0.1,1.4-0.1,1.6,0.1c0.6,0.5,0.7,1.9-0.1,2.4c-0.3,0.2-0.9,0.3-1.2,0.1c-0.4-0.3-0.2-1-0.5-1.2	c-0.3-0.2-0.6,0.3-1.1,0.3c-0.7,0-1.4-1-1.2-1.4C36.2,57.4,36.7,57.6,38.5,57.5z"/><path class="st7" d="M18.9,50c-0.1-0.3-0.7-0.1-1.3-0.4c-0.8-0.5-0.6-1.6-0.9-1.6s-0.7,1.1-0.3,2c0.3,0.6,1,1.1,1.6,1	C18.6,50.8,19,50.3,18.9,50z"/><path class="st7" d="M23.1,44.5c-0.4-0.4-1.6-0.1-1.8,0.6c-0.1,0.3,0.1,0.7,0.4,1c0.4,0.3,0.9,0.2,1.2,0	C23.4,45.6,23.5,44.8,23.1,44.5z"/><path class="st7" d="M18.5,41.6c-0.2-0.3-0.6-0.1-1.4-0.3c-0.9-0.3-1.2-0.7-1.4-0.6c-0.2,0.2,0.2,1.1,0.7,1.7c0.4,0.4,0.8,1,1.3,0.9	C18.3,43.2,18.8,42.1,18.5,41.6z"/><path class="st8" d="M20.7,29.9c0.2-0.1,0.1-0.7-0.1-1.1c-0.2-0.4-0.7-0.9-0.9-0.8c-0.2,0.1-0.2,0.8,0.1,1.3	C20.1,29.7,20.5,30,20.7,29.9z"/><path class="st8" d="M22.4,25.5c0.2-0.6,0.2-1.4-0.1-1.6c-0.1-0.1-0.3,0-1.5,1.1c-0.9,0.9-1.1,1.1-1,1.3c0.1,0.4,0.7,0.8,1.2,0.8	C22,27.1,22.4,25.6,22.4,25.5z"/><path class="st8" d="M24.4,25c0.5-0.2,1.2,0,1.3,0.4c0.1,0.4-0.9,0.7-1.3,1.7c-0.5,1.1,0.2,2.1-0.3,2.4c-0.3,0.2-0.8,0-1-0.3	c-0.1-0.2-0.3-0.5,0.3-2.2C23.9,25.2,24.2,25,24.4,25z"/><path class="st5" d="M36.9,31.4c0.4-0.6,0.4-1.3,0.4-1.6c0-0.9-0.5-1.6-0.9-2.1c-0.4-0.5-0.6-0.8-1-0.8c-0.6,0-1,1.1-1.1,1.4	c-0.2,0.7-0.4,1.7-0.1,1.8c0.4,0.2,1.3-1.3,1.6-1.1c0.2,0.1,0.2,1.2-0.4,1.7c-0.6,0.5-1.4,0.1-1.6,0.4c-0.1,0.3,0.3,0.9,0.8,1.1	C35.5,32.7,36.4,32.1,36.9,31.4z"/><path class="st5" d="M43,27.4c0.2,0.1-0.1,0.7,0.2,1.2c0.3,0.4,0.6,0.2,0.9,0.6c0.3,0.4,0.3,1.1,0,1.3c-0.4,0.3-1.3,0-1.7-0.5	c-0.5-0.5-0.5-1.3-0.2-1.8C42.3,27.7,42.8,27.3,43,27.4z"/><path class="st5" d="M34.1,19.4c0.6-0.3,0.5-0.8,1-1.5c0.6-0.8,1-0.5,1.4-1c0.8-1.1-0.4-2.7,0.2-3.1c0.3-0.2,1.1,0,1.5,0.5	c0.8,1-0.7,2.2-0.1,4.1c0.2,0.7,0.7,1.2,0.4,1.6c-0.2,0.3-0.6,0.4-0.9,0.3c-0.6-0.2-0.5-1.1-1-1.2c-0.3-0.1-0.5,0.2-1,0.7	c-0.6,0.6-1.6,1.4-2.2,1.2c-0.5-0.2-0.8-1-0.5-1.3C33.2,19.4,33.6,19.7,34.1,19.4z"/><path class="st5" d="M45.2,24.4c0.4-0.5,0.1-1,0.4-1.7c0.4-0.8,1.4-0.9,1.3-1.1c-0.1-0.2-1.1-0.3-2,0.2c-0.3,0.2-0.9,0.5-1.1,1.2	c-0.2,0.7,0.2,1.7,0.7,1.8C44.8,24.8,45.2,24.4,45.2,24.4z"/><path class="st5" d="M43.6,13.3c0.4-0.9,0.7-1,0.7-1.6c0-0.5-0.2-1.1-0.6-1.2c-0.6-0.1-1.9,1.7-1.6,3.3c0.1,0.7,0.5,1.4,0.8,1.3	C43.2,15.1,43.1,14.4,43.6,13.3z"/><path class="st6" d="M54.2,12.1c0.7-0.1,1.2,0.9,1.6,0.7c0.3-0.1,0.3-0.8,0-1.3c-0.4-0.6-1.4-0.7-2.1-0.4c-0.7,0.2-1.3,0.8-1.4,1.6	c-0.1,0.5,0.2,1.2,0.4,1.2C53.2,14,53.4,12.2,54.2,12.1z"/><path class="st6" d="M55.5,18.4c0.3-0.8,0.5-1.3,0.3-1.6c-0.2-0.2-0.9,0-1.3,0.4c-0.9,0.9-0.4,3,0,3C54.7,20.3,55.1,19.4,55.5,18.4z	"/><path class="st6" d="M57.3,25.3c0.1,0.6-0.3,1.3-0.6,1.3s-0.4-0.7-0.8-0.7c-0.4,0-0.7,0.7-0.7,0.7l0,0c0,0-0.7,1.7-1.5,1.7	c-0.4,0-0.8-0.4-0.8-0.8c0-0.6,1-0.6,1.3-1.4c0.2-0.5-0.1-0.8,0.2-1.3c0.2-0.5,0.8-0.8,1.5-0.8C56.5,24.1,57.2,24.6,57.3,25.3z"/><path class="st6" d="M58.8,27.9c0.3,0.1,0.3,0.9,0.1,1.3c-0.6,0.9-2.6,1.1-3.2,0.2c-0.2-0.4-0.2-1,0.1-1.3c0.5-0.4,1.2,0.4,2.2,0	C58.4,28.1,58.5,27.8,58.8,27.9z"/><path class="st6" d="M60.9,20.8c0-0.7-0.3-1.6-0.6-1.6s-0.7,0.9-0.5,1.8c0.1,0.6,0.5,1.2,0.7,1.2C60.8,22.1,60.9,21.3,60.9,20.8z"/><path class="st6" d="M67.6,19.6c-0.1-0.3-0.7-0.4-1.1-0.3c-0.7,0.1-1.3,0.8-1.2,1.1c0.1,0.3,0.8,0.3,1.2,0.2	C67.1,20.4,67.7,19.9,67.6,19.6z"/><path class="st6" d="M68.2,24.6c0.5-0.5,0.3-1.5-0.2-1.8c-0.3-0.2-0.8,0-1,0.2c-0.5,0.5-0.2,1.7,0.4,1.8C67.7,25,68,24.8,68.2,24.6z	"/><path class="st6" d="M68.2,29.6c0.3,0.3,0,1.1-0.5,1.4c-0.4,0.2-0.6,0-1.3,0.2c-0.9,0.2-1.2,0.9-1.5,0.8c-0.3-0.1-0.4-0.9-0.1-1.2	c0.1-0.1,0.2-0.1,1.1-0.4c0.1,0,0.2-0.1,0.2-0.1c0.7-0.3,0.8-0.6,1.2-0.8C67.6,29.4,68,29.3,68.2,29.6z"/><path class="st6" d="M74.2,28.7c0.4-0.3,0.4-0.6,0.7-1.7c0.4-1.3,0.7-1.6,0.4-1.9c-0.2-0.3-0.8-0.4-1.1-0.2c-0.4,0.3,0.1,1-0.3,1.5	c-0.4,0.5-1.2,0.3-1.3,0.5c0,0.2,0.5,0.3,0.7,0.7c0.2,0.5-0.2,1,0,1.2C73.4,28.9,73.9,28.8,74.2,28.7z"/><path class="st5" d="M44.4,47.6c0.2-0.8,0.8-1,0.7-1.6c-0.1-0.6-0.8-1.3-1.3-1.2c-0.7,0.1-1,1.6-0.9,2.7c0.2,1.7,1.5,2.9,1.8,2.7	C44.9,50.2,44,49,44.4,47.6z"/><path class="st5" d="M45.9,42.5c0-0.5-0.4-0.9-0.7-1c-0.6,0-1.3,1-1,1.6c0.2,0.3,0.7,0.6,1.1,0.4C45.8,43.5,46,42.9,45.9,42.5z"/><path class="st5" d="M49.9,44.8c0.3-0.6,0-0.9,0.3-1.6c0.3-0.8,1.1-1,1-1.3c-0.1-0.3-1-0.2-1.5-0.1c-0.6,0.1-1.5,0.3-1.7,0.9	c-0.1,0.3,0.1,0.7,0.5,1.7c0.3,0.7,0.4,0.9,0.6,0.9C49.4,45.5,49.8,45.1,49.9,44.8z"/><path class="st8" d="M44.1,88.8c0-0.2-0.3-0.4-0.8-0.9c-1.1-0.9-1.2-1-1.3-1c-0.3,0.1-0.3,1,0,1.6c0.1,0.3,0.4,0.9,1,1	C43.5,89.6,44.1,89.2,44.1,88.8z"/><path class="st8" d="M38.9,83.6c-0.7-0.3-1.8-0.2-2.2,0.5c-0.2,0.4-0.3,0.9,0,1.3c0.7,1,3.3,0.6,3.6-0.2	C40.4,84.7,39.7,83.9,38.9,83.6z"/><path class="st9" d="M35.8,81.6c-0.5-0.1-1,0.4-1,0.7c0,0.4,1.2,0.8,1.5,0.5C36.6,82.6,36.4,81.8,35.8,81.6z"/><path class="st8" d="M39.9,79.9c0.5-0.8,0.7-0.9,0.8-0.9c0.5,0,0.7,1.1,1,1c0.3,0,0.6-0.9,0.4-1.6c-0.1-0.8-0.8-1.6-1.6-1.8	c-0.2-0.1-0.9-0.2-1.3,0.2c-0.5,0.4,0,1.1-0.4,2.2c-0.4,1.1-1.3,1.4-1.2,2c0.1,0.3,0.5,0.6,0.9,0.6C39,81.6,39.1,81.1,39.9,79.9z"/><path class="st8" d="M41.8,81.5c-0.2-0.3-0.6-0.3-0.7-0.3c-0.1,0-0.7-0.1-0.8,0.2c-0.2,0.4,0.6,1.5,1.1,1.3	C41.7,82.6,42,81.9,41.8,81.5z"/><path class="st5" d="M72.8,78.8c0.5-0.7,1.1-0.7,1.1-1.1c0-0.4-0.4-0.8-0.8-0.9c-0.5-0.1-0.8,0.3-0.9,0.4c-0.8,0.9-0.2,2.6,0.1,2.6	C72.4,79.9,72.4,79.4,72.8,78.8z"/><path class="st5" d="M71.7,69.9c0-0.4-0.6-0.8-1.1-0.8c-0.3,0-0.7,0.1-0.8,0.4c-0.1,0.4,0.6,1.2,1.3,1	C71.4,70.5,71.7,70.2,71.7,69.9z"/><path class="st5" d="M76.8,71.1c0.6-0.4,0.8-1.2,0.8-1.3c0.1-0.6-0.1-1.3-0.4-1.4c-0.3-0.1-0.4,0.7-1,1c-0.8,0.4-1.6-0.3-2.1,0.1	c-0.3,0.3-0.3,0.9-0.2,1.3C74.4,71.6,75.9,71.7,76.8,71.1z"/><path class="st5" d="M80.1,74.9c0.4,0.6,1.2,1.5,1.9,1.3c0.9-0.2,1.3-1.6,1.1-1.8c-0.1-0.1-0.5,0.5-1.1,0.4c-0.5,0-1-0.4-1.1-0.8	c-0.1-0.5,0.3-0.6,0.4-1.3c0.1-0.5,0-1.3-0.5-1.6c-0.5-0.3-1.3-0.1-1.6,0.4C78.5,72.4,79.5,74.1,80.1,74.9z"/><path class="st5" d="M83.8,68.7c0.1-0.7-0.3-1.6-0.8-1.6c-0.3,0-0.5,0.2-0.7,0.4c-0.4,0.5-0.4,1.1-0.4,1.3c0,0.2,0,1.1,0.4,1.3	C82.8,70.2,83.6,69.5,83.8,68.7z"/></svg>