<?xml version="1.0" encoding="utf-8"?>
<!-- Generator: Adobe Illustrator 26.0.3, SVG Export Plug-In . SVG Version: 6.00 Build 0)  -->
<svg version="1.1" id="Ebene_2_00000020371425143906055610000010711333585448278916_"
	 xmlns="http://www.w3.org/2000/svg" xmlns:xlink="http://www.w3.org/1999/xlink" x="0px" y="0px" viewBox="0 0 100 100"
	 style="enable-background:new 0 0 100 100;" xml:space="preserve">
<style type="text/css">
	.st0{fill:#8A3C8F;stroke:#000000;stroke-width:2;stroke-miterlimit:10;}
	.st1{fill:#69B42D;stroke:#000000;stroke-miterlimit:10;}
	.st2{fill:#DB6500;stroke:#000000;stroke-width:0.5;stroke-miterlimit:10;}
	.st3{fill:#C78F55;stroke:#000000;stroke-width:0.5;stroke-miterlimit:10;}
	.st4{fill:#DB8F00;stroke:#000000;stroke-width:0.5;stroke-miterlimit:10;}
	.st5{fill:#804122;stroke:#000000;stroke-width:0.25;stroke-miterlimit:10;}
	.st6{fill:#804122;stroke:#000000;stroke-width:0.75;stroke-miterlimit:10;}
	.st7{fill:#493127;stroke:#000000;stroke-width:0.25;stroke-miterlimit:10;}
	.st8{fill:#5D4135;stroke:#000000;stroke-width:0.25;stroke-miterlimit:10;}
	.st9{fill:#5D4135;stroke:#030300;stroke-width:0.25;stroke-miterlimit:10;}
</style>
<g id="Ebene_1_00000178169986029889010870000017977382286501971088_">
	<path class="st0" d="M8.6,25.8c2.5-1.5,5-2.9,7.6-4.4c11.5-6.6,23-13.2,34.4-19.8c14,8.1,28,16.1,42,24.2l0,48.4l-42,24.2l-42-24.2
		L8.6,25.8z"/>
</g>
<path class="st1" d="M25.8,35.5c2.8,7,14.9,8.2,21.2,14.9c11.2,11.9,7,44.3,7.6,44.6c0.2,0.1,0.4,0.1,0.4,0.1c0.1,0,0.3,0.1,0.5,0.1
	c1.9,0.1,4.3-2.4,19.1-10.5c9.9-5.4,15.2-8,14.8-10c-0.4-1.6-4.5-0.3-8.8-2c-13.2-5.4-7.3-31.2-20.3-37.4c-2.1-1-8.9-3.5-10.1-7
	c-0.2-0.6-0.8-2.7-2.3-5.1c-0.3-0.5-0.6-0.9-0.8-1.2c-0.6-0.8-1-1.4-1.1-1.5c-1.3-1.7,3-13.4,0.9-15.3c-1.5-1.4-5.8,2.5-16.6,8.3
	c-7.8,4.2-12.1,5.6-12.1,8.5c0,1.8,1.6,2.3,4.4,6.8C24.4,31.9,25.3,34.2,25.8,35.5z"/>
<path class="st2" d="M16,30.5c-1.3,0.2-1.9,4.6-1.8,8.4c0.3,7.9,3.6,8.9,3.7,15.7c0.1,5.5-2.1,7.2-0.4,11.1c1.1,2.8,3.8,5.7,5.6,5.2
	c2.5-0.6,0.7-6.4,4.9-12.2c2.9-3.9,6.2-4.5,5.9-6.8c-0.2-2.2-3.2-2.2-5.5-6.2c-1.3-2.2-0.6-2.7-1.9-4.6c-1.7-2.5-3.2-2.2-5.8-4.6
	C17.3,33.5,17.1,30.4,16,30.5z"/>
<path class="st3" d="M36.8,58.3c-1.2-1.6,0.2-3-0.4-6.4c-0.6-3.9-3.8-5.5-3-7c0.4-0.6,1.2-0.9,1.9-0.8c1.4,0.1,1.5,1.9,3.2,3.5
	c2.5,2.5,5.1,1.4,6.4,3.8c0.4,0.8,0.1,0.9,0.6,2.6c1,3.6,2.6,4.6,2.1,5.5c-0.5,0.9-2.4,0.7-5.1,0.4C39.3,59.6,37.7,59.4,36.8,58.3z"
	/>
<path class="st4" d="M32.7,61.2c-2.9,2.2,0,8.1-3.1,10.2c-2.5,1.7-6.1-1.2-7.7,0.6c-1.4,1.6,0.5,5.3,0.7,5.8
	c1.5,2.7,4.5,5.1,7.9,5.2c0.7,0,2.8-0.9,7.1-2.7c4-1.7,4.3-1.9,4.9-2.4c2.4-2.2,1.5-4,3.7-5.6c2.2-1.7,3.8-0.4,5.5-2.1
	c1.8-1.7,2.3-5.2,0.9-6.8c-1.2-1.4-3.2-0.5-7.4-0.6C37.4,62.7,35,59.5,32.7,61.2z"/>
<path class="st2" d="M38.1,83c-0.8,1.2-0.7,2.9-0.2,4c0.8,1.7,2.1,1.8,5,3.6c4.2,2.6,4.4,4.3,6.2,4.2c2.1-0.2,4-2.5,4.6-4.7
	c0.3-1.2,0-1.3-0.2-4.9c-0.2-4.1,0.2-4.3-0.3-5.6c-0.9-2.3-3.5-4.6-5.5-4.2c-2,0.4-1.5,3.2-4.4,5.2C41,82,39.2,81.2,38.1,83z"/>
<path class="st4" d="M87.6,39.3c1.9,1-1,6.5-0.3,14.8c0.5,6.5,2.8,9.9,0.7,12c-0.9,0.9-2.6,1.4-3.7,0.9c-2.1-1.1-0.4-5.1-3.1-7.8
	c-1.6-1.7-3-0.9-4.2-2.7c-1.4-2.1-1.1-5.6,0.4-6.5c1.6-0.9,3.4,1.4,4.9,0.6c2.3-1.3-0.7-7.8,2.6-10.5C85.5,39.5,86.8,38.8,87.6,39.3
	z"/>
<path class="st3" d="M86.7,32.3c-1.2,1.5-3,0.5-4.4,2.2c-0.5,0.6-0.9,1.3-1,6.1c-0.2,4.8,0.2,5.3-0.4,6.2c-1.7,2.4-7.1,2.8-9,0.6
	c-1.6-1.8,0.4-3.9-1.2-7.3c-1.5-3.2-4.2-3-4.6-5.6c-0.2-1.5,0.7-1.6,2.4-6.2c1.1-3.1,1.1-4.1,2.2-5c0.6-0.5,1.6-1,4.4-1
	c4.8-0.1,8-0.1,10.2,2.2C87.2,26.6,88.1,30.5,86.7,32.3z"/>
<path class="st2" d="M72,17.6c0.1,1.7-2.5,1.7-4.2,5.2c-1.1,2.4-0.5,3.5-1.9,5c-0.2,0.2-2,2.2-4.3,1.9c-2.7-0.3-2.4-3.5-6.4-6.2
	c-2.7-1.8-4.3-1.5-5.3-3.4c-0.3-0.6-0.2-0.8-0.4-4.3c-0.2-4.3-0.3-4.9,0-6.1c0.2-0.7,1-3.3,2.5-3.6c1.3-0.2,2.1,1.5,4.4,3.3
	c2.1,1.6,3,1.2,7.1,2.8C67.9,14,71.9,15.6,72,17.6z"/>
<path class="st4" d="M45.8,7.1c-0.6,0-0.5,1.6-1.9,2.8c-1.4,1.2-2.7,0.5-3.4,1.5c-0.8,1.1-0.1,3.3,1.2,4.4c2,1.8,5.6,1.5,6.5,0
	c0.2-0.3,0.3-0.7-0.3-3.4C47.2,9.9,46.6,7.1,45.8,7.1z"/>
<path class="st5" d="M115,66.5"/>
<path class="st6" d="M120.5,36.5"/>
<path class="st7" d="M71.3,30.1c-0.6-0.1-1.6,1.6-1.2,2.7c0.3,0.8,1,0.6,1.8,1.8c0.5,0.8,0.5,1.3,1.1,1.6c0.4,0.2,0.9,0.2,1.1-0.1
	c0.2-0.4-0.5-1.1-1.2-2.3C71.6,31.6,71.8,30.2,71.3,30.1z"/>
<path class="st7" d="M76.7,29.5c-0.4-0.1-0.2-0.9-0.7-1.9c-0.6-1.1-1.4-1.2-1.3-1.7c0.1-0.9,3.6-1.4,3.9-0.8
	c0.2,0.3-0.6,0.6-0.8,1.7c-0.1,0.8,0.2,1,0,1.7C77.6,29.1,77.1,29.6,76.7,29.5z"/>
<path class="st7" d="M83.4,29.3c-0.2,0.3,1,1.7,1.9,1.4c0.9-0.3,0.8-2.5,0.6-2.6c-0.1,0-0.2,0.7-0.9,1
	C84.2,29.5,83.5,29.1,83.4,29.3z"/>
<path class="st7" d="M77.4,33.8c0.2-0.2,1.2,0.4,1.4,1.3c0.1,0.5,0,1.2-0.2,1.2C78.1,36.5,77,34.1,77.4,33.8z"/>
<path class="st7" d="M73.8,38.9c0.3-0.4,1.8-0.3,2,0.3c0.1,0.4-0.3,1.1-0.9,1.1C74.2,40.4,73.6,39.3,73.8,38.9z"/>
<path class="st7" d="M76.8,42.3c-0.7,0.2-1.4-0.1-1.4,0.1c-0.1,0.2,0.7,0.5,1.4,1.2c1.1,1,1.5,2.1,1.7,2c0.2-0.1-0.4-1.2,0.1-2.2
	c0.3-0.5,0.6-0.5,0.9-1c0.5-0.9,0.2-2.2-0.2-2.3C78.7,39.9,78.3,41.9,76.8,42.3z"/>
<path class="st7" d="M85.2,44.8c-0.2,0-0.8,1-0.8,2.1c0,0.9,0.4,1.9,0.7,1.9C85.5,48.8,85.6,44.9,85.2,44.8z"/>
<path class="st7" d="M84.8,52.2c-0.2-0.2-0.8,0-1,0.3c-0.2,0.5,0.4,1.2,0.7,1.1C84.8,53.5,85.2,52.4,84.8,52.2z"/>
<path class="st7" d="M84.7,56.2c-0.2-0.2-1.1,0.3-1.4,1.1c0,0.1-0.2,0.4-0.2,1c0,0.7,0.3,1.4,0.6,1.4c0.2,0,0.2-0.4,0.7-1.9
	C84.7,56.5,84.8,56.2,84.7,56.2z"/>
<path class="st7" d="M83.6,62c0.3-0.7,2.1-0.5,2.2-0.1c0.1,0.2-0.4,0.4-0.7,1.2c0,0,0,0.1-0.1,0.2c-0.3,1.1,0.5,2.1,0.2,2.5
	c-0.2,0.3-0.9,0.2-1.2-0.1c-0.4-0.5,0.2-1.1-0.1-2.4C83.8,62.6,83.4,62.3,83.6,62z"/>
<path class="st7" d="M79.9,57.2c-0.2,0-0.1-0.8-0.6-1.6c-0.5-0.8-1.2-0.9-1.1-1.2c0.1-0.6,2.6-1,2.9-0.4c0.1,0.2-0.3,0.5-0.7,1.3
	C80,56.3,80.1,57.2,79.9,57.2z"/>
<path class="st8" d="M57.6,20.3c0.2-0.2,1,0.9,3,1.5c0.5,0.1,0.9,0.2,1.3,0.2c2.3,0.2,3.3-0.3,3.7,0.2c0.2,0.4,0.1,1-0.3,1.3
	c-0.8,0.6-2.4-0.5-2.6-0.2c-0.2,0.3,1.3,1.4,1.1,1.8c-0.1,0.3-1,0.1-1.7-0.1C59.1,23.9,57.3,20.5,57.6,20.3z"/>
<path class="st8" d="M63.7,16.9c0.2-0.6,3-0.6,3.3,0.2c0.1,0.4-0.3,0.9-0.7,1.1C65.3,18.9,63.6,17.4,63.7,16.9z"/>
<path class="st8" d="M60.4,15.5c-0.5-0.1-1.5,1.2-1.2,1.7c0.2,0.3,1.1,0.5,1.6-0.1C61.2,16.4,60.7,15.6,60.4,15.5z"/>
<path class="st8" d="M54.5,16.3c-0.2-0.2-1.1,0.3-1.3,1c-0.3,1,0.9,2.1,1.1,2c0.2-0.1-0.1-0.6,0-1.7C54.4,16.7,54.6,16.4,54.5,16.3z
	"/>
<path class="st8" d="M55.5,12.5c-0.3,0.9-2.7,1-3,0.4c-0.2-0.3,0.5-0.7,0.6-1.7c0-0.9-0.6-1.3-0.4-1.4C52.8,9.6,55.8,11.4,55.5,12.5
	z"/>
<path class="st7" d="M44.5,10.9c0.4,0.3,0.9,0.9,0.7,1.3c-0.2,0.5-1,0.6-1.6,0.3c-0.7-0.3-1-1.4-0.6-1.8
	C43.3,10.5,44,10.6,44.5,10.9z"/>
<path class="st7" d="M42.3,14.1c-0.3,0.4,0.3,1.6,1,1.6c0.4,0,0.9-0.6,0.8-1C43.9,14,42.5,13.8,42.3,14.1z"/>
<path class="st7" d="M48.6,79.4c-0.4-0.2-1.7,1-1.2,1.9c0.5,0.9,2.3,1.2,2.3,0.8c0-0.2-0.5-0.3-0.9-0.9
	C48.4,80.4,48.8,79.6,48.6,79.4z"/>
<path class="st7" d="M50.9,89.2c-0.4,0-1.1,1.2-0.7,1.9c0.2,0.4,0.7,0.7,1,0.6c0.4-0.2,0.3-0.9,0.3-1.1
	C51.5,89.9,51.3,89.2,50.9,89.2z"/>
<path class="st7" d="M46.4,88.9c-0.1,0,0.2-0.7-0.1-1.7c-0.2-0.7-0.5-0.9-0.6-1c-0.2-0.2-0.5-0.2-0.6-0.2c-0.1,0-0.5-0.1-0.9,0.1
	c-0.2,0.1-0.3,0.2-0.4,0.1c-0.2-0.1-0.3-1,0.1-1.3c0.5-0.4,1.4,0.5,2.1,0c0.4-0.2,0.7-0.8,0.7-0.9c0-0.1,0-0.1,0-0.1l0,0
	c0,0,0.9,1.3,0.9,1.3l0,0c0,0-0.2,0.9-0.3,1.6C47.1,88,46.5,89,46.4,88.9z"/>
<path class="st7" d="M48.7,67.5c0.6-0.3,1.4-1,1.7-0.3c0.2,0.5,0.1,1.2-0.3,1.6c-0.4,0.3-0.8,0.2-2,0.1c-0.9,0-2.2-0.4-2.3-0.1
	c-0.1,0.4,2,1.3,1.9,1.9c-0.1,0.3-1.3-0.6-1.9-0.7c-0.8-0.1-1.4,0.4-1.4-0.6c0-0.9,0.8-1.5,0.9-1.6c0,0,0.7-0.4,1.4-0.3
	c0.2,0,0.2,0.1,0.4,0.1C47.5,67.7,48,67.8,48.7,67.5z"/>
<path class="st7" d="M41.9,65.7c0.4,0,0.6,2-0.2,3.2c-0.6,1-1.4,1.1-1.6,0.8c-0.1-0.2,0.3-0.5,0.8-1.6
	C41.7,66.5,41.7,65.7,41.9,65.7z"/>
<path class="st7" d="M35.6,66.5c1.2,0.6,1.9,0.4,2,0.8c0.1,0.3-0.5,0.9-1.1,1c-0.8,0.1-1.4-0.7-1.8-0.4c-0.3,0.2,0,0.9-0.3,1.2
	c-0.4,0.4-1.4,0.2-1.8-0.3c-0.5-0.9,0.7-2.9,1.8-2.9C34.8,65.8,34.8,66.1,35.6,66.5z"/>
<path class="st7" d="M34.2,71.7c0.7,0.2,0.7,1.1,1.2,1.1c0.4,0,1-0.4,1.1-0.9c0.1-0.3-0.1-0.6,0-0.7c0.2-0.1,1,0.5,1,1.1
	c0,0.8-1.4,0.8-2.1,2c-0.5,0.9-0.3,1.9-0.6,1.9c-0.2,0,0-2-1-3c-0.7-0.7-1.5-0.1-1.5-0.5C32.5,72.2,33.5,71.5,34.2,71.7z"/>
<path class="st7" d="M31.1,75.5c0.7,0,1.5,0.4,1.6,0.8c0,0.5-1,1-2,0.9c-0.7-0.1-1.4-0.6-1.3-1C29.4,75.7,30.4,75.4,31.1,75.5z"/>
<path class="st7" d="M25.9,75.6c1.1,0.4,2.1,1.7,1.8,2.6c-0.2,0.4-0.7,0.8-1,0.7c-0.4-0.1-0.1-0.8-0.6-1.6c-0.7-1.2-2.5-1.1-2.4-1.4
	C23.7,75.6,24.9,75.2,25.9,75.6z"/>
<path class="st8" d="M21.5,62c-0.6,1.3,0.6,3.2,1,3.1c0.4-0.1,0-1.4,0.9-2.7c0.8-1.1,2-1.2,2-1.4C25.3,60.7,22.3,60.4,21.5,62z"/>
<path class="st8" d="M29,53c1,0.6,2.5,0.2,2.8-0.6c0.3-0.8-0.9-1.9-1.7-2.3c-0.4-0.2-1.1-0.6-1.6-0.3C27.9,50.2,27.9,52.3,29,53z"/>
<path class="st8" d="M23.3,53.3c0,0-0.5-0.6-0.7-1.2c-0.3-0.4-2-0.3-0.3-1.3c0,0,0,0,0,0c-0.1-0.8-0.4-1.7-0.7-1.7
	c-0.4,0-1.3,1.4-0.9,2.4C21.1,52.8,23.4,53.2,23.3,53.3z"/>
<path class="st8" d="M19.5,47.2c-0.4,0-1.2,1.2-0.8,2.3c0.2,0.6,0.9,1.2,1.2,1C20.5,50.2,20.1,47.2,19.5,47.2z"/>
<path class="st8" d="M19.9,40.2c-0.2,0.9-1.3,1.7-1.8,1.4c-0.5-0.2-0.2-1.2-0.6-2.9c-0.5-2.4-1.7-3.7-1.4-3.9
	c0.3-0.2,2.2,2.3,2.3,2.4C20,39.3,20,39.9,19.9,40.2z"/>
<path class="st8" d="M36.6,47.7C35.9,48,36,50.5,37,50.9c0.7,0.2,1.7-0.3,1.9-1.1C39.1,48.6,37.3,47.4,36.6,47.7z"/>
<path class="st8" d="M38.2,55c-0.3,0.3,0.4,1.7,1.6,2.1c0.9,0.3,2-0.1,2-0.4c0-0.3-0.5-0.1-1.7-0.6C39,55.6,38.4,54.9,38.2,55z"/>
<path class="st9" d="M42.2,52.3c0,0.4,1.3,0.1,1.7,1c0.4,0.8-0.4,2-0.1,2.1c0.3,0.1,1.1-0.6,1.3-1.6c0.1-0.6,0.1-1.5-0.7-2
	C43.5,51.3,42.2,51.8,42.2,52.3z"/>
</svg>
