<?xml version="1.0" encoding="utf-8"?>
<!-- Generator: Adobe Illustrator 26.0.3, SVG Export Plug-In . SVG Version: 6.00 Build 0)  -->
<svg version="1.1" id="Ebene_1" xmlns="http://www.w3.org/2000/svg" xmlns:xlink="http://www.w3.org/1999/xlink" x="0px" y="0px"
	 viewBox="0 0 100 100" style="enable-background:new 0 0 100 100;" xml:space="preserve">
<style type="text/css">
	.st0{fill:url(#SVGID_1_);stroke:#000000;stroke-width:2;stroke-miterlimit:10;}
	.st1{fill:none;stroke:#000000;stroke-width:1.5;stroke-miterlimit:10;}
	.st2{fill:none;stroke:#000000;stroke-miterlimit:10;}
	.st3{fill:none;stroke:#000000;stroke-width:0.75;stroke-miterlimit:10;}
	.st4{fill:none;stroke:#000000;stroke-width:0.5;stroke-miterlimit:10;}
	
		.st5{fill:url(#SVGID_00000065075385020179579730000014291154503769556141_);stroke:#797979;stroke-width:0.75;stroke-miterlimit:10;}
	.st6{fill:none;stroke:#797979;stroke-width:0.75;stroke-miterlimit:10;}
	
		.st7{fill:url(#SVGID_00000163036746143837606470000003989285541791590035_);stroke:#797979;stroke-width:0.75;stroke-miterlimit:10;}
	.st8{stroke:#000000;stroke-width:2;stroke-miterlimit:10;}
	.st9{fill:#FF0000;stroke:#000000;stroke-width:0.25;stroke-miterlimit:10;}
	.st10{fill:none;stroke:#C2C2C2;stroke-width:0.5;stroke-miterlimit:10;}
	.st11{fill:#818080;stroke:#797979;stroke-width:0.75;stroke-miterlimit:10;}
</style>
<g id="Ebene_2_00000106115020321929722670000009173737682671299512_">
</g>
<g id="Ebene_1_00000153672420012526310020000002768640152473526447_">
	<radialGradient id="SVGID_1_" cx="24.8889" cy="48.1608" r="46.4131" fx="56.5291" fy="49.5899" gradientUnits="userSpaceOnUse">
		<stop  offset="0" style="stop-color:#FFFFFF"/>
		<stop  offset="7.600183e-03" style="stop-color:#FCFEFB"/>
		<stop  offset="0.1266" style="stop-color:#D0E9C6"/>
		<stop  offset="0.2472" style="stop-color:#ABD799"/>
		<stop  offset="0.367" style="stop-color:#8CC974"/>
		<stop  offset="0.4859" style="stop-color:#74BE57"/>
		<stop  offset="0.6037" style="stop-color:#63B642"/>
		<stop  offset="0.72" style="stop-color:#59B136"/>
		<stop  offset="0.8328" style="stop-color:#55AF31"/>
	</radialGradient>
	<polygon class="st0" points="8,25.4 50,1.2 92,25.5 92,74 50,98.2 8,73.9 	"/>
</g>
<g id="Ebene_1_00000008148679719185401880000010327063767149471627_">
	<polygon class="st1" points="16.4,29.4 50.6,8.8 84.9,29.4 84.9,70.6 50.7,91.2 16.4,70.6 	"/>
</g>
<g id="Ebene_1_00000062187643299469697090000011013914807161665682_">
	<polygon class="st2" points="22.1,34.5 50.6,19.1 79.2,34.6 79.2,65.6 50.7,81.1 22.1,65.6 	"/>
</g>
<g id="Ebene_1_00000016794767414720981740000005902253830500182660_">
	<polygon class="st3" points="30.6,39.4 50,28.7 69.3,39.4 69.4,60.7 50,71.4 30.7,60.7 	"/>
</g>
<g id="Ebene_1_00000012437766120518804730000006179489447427513513_">
	<polygon class="st3" points="39.8,43.8 50.7,37.6 61.5,43.8 61.5,56.3 50.7,62.6 39.8,56.3 	"/>
</g>
<g id="Ebene_1_00000003064746939039854190000007432400249568416416_">
	<polygon class="st4" points="47.1,47.8 51.2,45.5 55.3,47.8 55.3,52.4 51.2,54.7 47.1,52.4 	"/>
</g>
<line class="st2" x1="50" y1="1.6" x2="51.2" y2="50.1"/>
<line class="st2" x1="92" y1="25.8" x2="51.2" y2="50.1"/>
<line class="st2" x1="92" y1="74.3" x2="51.2" y2="50.1"/>
<line class="st2" x1="50" y1="98.6" x2="51.2" y2="50.1"/>
<line class="st2" x1="8" y1="74.3" x2="51.2" y2="50.1"/>
<line class="st2" x1="51.2" y1="50.1" x2="8" y2="25.8"/>
<radialGradient id="SVGID_00000014617488265078107170000003931766808252335777_" cx="31.1343" cy="44.9366" r="9.0489" fx="32.4461" fy="35.9833" gradientUnits="userSpaceOnUse">
	<stop  offset="0" style="stop-color:#FFFFFF"/>
	<stop  offset="0.169" style="stop-color:#C6C6C6"/>
	<stop  offset="0.3961" style="stop-color:#818181"/>
	<stop  offset="0.6011" style="stop-color:#494949"/>
	<stop  offset="0.7764" style="stop-color:#212121"/>
	<stop  offset="0.9151" style="stop-color:#090909"/>
	<stop  offset="1" style="stop-color:#000000"/>
</radialGradient>
<path style="fill:url(#SVGID_00000014617488265078107170000003931766808252335777_);stroke:#797979;stroke-width:0.75;stroke-miterlimit:10;" d="
	M33.4,33.9c-2.9-0.4-6.1,6.1-7.2,9.3c-1,2.9-2.9,8.4,0.2,11.2c2.2,1.9,6.4,2.1,8.8,0.3c1.3-1,1.8-2.5,2.1-4.8
	C38.1,43.8,36.9,34.3,33.4,33.9z"/>
<line class="st6" x1="46.6" y1="36.5" x2="36.9" y2="41.3"/>
<line class="st6" x1="46.7" y1="36.6" x2="43.8" y2="31.9"/>
<line class="st6" x1="37.8" y1="42.8" x2="44.3" y2="39.4"/>
<line class="st6" x1="48" y1="44.3" x2="44.2" y2="39.2"/>
<line class="st6" x1="36.7" y1="46.3" x2="45.4" y2="42.5"/>
<line class="st6" x1="47.2" y1="46.1" x2="45" y2="42.6"/>
<line class="st6" x1="37.4" y1="49.8" x2="46" y2="46.5"/>
<line class="st6" x1="47" y1="49.8" x2="45.5" y2="46.5"/>
<line class="st6" x1="25.6" y1="49.5" x2="18.5" y2="43.8"/>
<line class="st6" x1="15.9" y1="47.6" x2="19" y2="43.8"/>
<path class="st6" d="M25.7,45.4c-2.5-1.9-5-3.9-7.5-5.8"/>
<line class="st6" x1="16.3" y1="41.5" x2="18.5" y2="39.4"/>
<line class="st6" x1="27.4" y1="41.5" x2="20.8" y2="36.5"/>
<line class="st6" x1="18.2" y1="38.3" x2="21.1" y2="36.9"/>
<line class="st6" x1="29" y1="39.5" x2="23.7" y2="34.8"/>
<line class="st6" x1="25.1" y1="31.6" x2="23.1" y2="35.1"/>
<radialGradient id="SVGID_00000057865959631654246420000015440217299215904160_" cx="33.5782" cy="32.8329" r="3.8722" fx="30.2733" fy="34.8506" gradientUnits="userSpaceOnUse">
	<stop  offset="3.527961e-02" style="stop-color:#FFFFFF"/>
	<stop  offset="9.340267e-02" style="stop-color:#DCDCDC"/>
	<stop  offset="0.1884" style="stop-color:#A9A9A9"/>
	<stop  offset="0.2879" style="stop-color:#7C7C7C"/>
	<stop  offset="0.39" style="stop-color:#565656"/>
	<stop  offset="0.4953" style="stop-color:#363636"/>
	<stop  offset="0.6047" style="stop-color:#1E1E1E"/>
	<stop  offset="0.7202" style="stop-color:#0D0D0D"/>
	<stop  offset="0.8457" style="stop-color:#030303"/>
	<stop  offset="1" style="stop-color:#000000"/>
</radialGradient>
<path style="fill:url(#SVGID_00000057865959631654246420000015440217299215904160_);stroke:#797979;stroke-width:0.75;stroke-miterlimit:10;" d="
	M33.8,29.1c-1.7-0.2-4,0.8-4.2,2.7c-0.2,1.9,1.7,4.5,3.6,4.8c2.1,0.3,4.4-1.9,4.3-3.9C37.5,30.8,35.4,29.3,33.8,29.1z"/>
<path class="st8" d="M35.9,24.8"/>
<path class="st9" d="M28.5,31.7c-0.1,0.2-0.4,1.4-0.1,2.3c0.4,0.9,1.5,0.9,2.1,0c0.7-1.2,0.3-3.6-0.4-4
	C29.6,29.6,28.8,30.6,28.5,31.7z"/>
<path class="st9" d="M36.1,32.4c-0.1,0.2-0.4,1.4-0.1,2.2c0.4,0.9,1.5,0.9,2.1,0c0.7-1.1,0.3-3.5-0.3-3.9
	C37.1,30.4,36.4,31.4,36.1,32.4z"/>
<line class="st10" x1="32.7" y1="28.2" x2="32.8" y2="29.9"/>
<line class="st10" x1="35.6" y1="27.9" x2="35" y2="29.9"/>
<path class="st9" d="M30.1,46.2c-0.8,0.7-2.4-0.8-3.4,0c-0.4,0.3-0.7,0.9-0.5,1.3c0.5,0.9,3.3-0.4,4.3,0.7c1.2,1.4-1.7,5-0.6,6
	c0.5,0.4,1.5,0.2,2.1-0.3c1.3-1.3-0.7-4,0.5-5.4c1.1-1.2,3.4,0,4.2-1.3c0.3-0.4,0.3-1.1,0.1-1.4c-0.7-0.7-3,1.2-3.8,0.6
	c-0.6-0.6,0.5-2.3-0.2-3c-0.5-0.4-1.5-0.3-2,0.2C29.8,44.3,30.7,45.6,30.1,46.2z"/>
<path class="st9" d="M31.1,30.8c0,0.1-0.2,0.8,0,1.3c0.2,0.5,0.8,0.5,1.1,0c0.4-0.7,0.2-2.1-0.2-2.3C31.6,29.5,31.2,30.1,31.1,30.8z
	"/>
<path class="st9" d="M34.9,31.2c0,0.1-0.2,0.8,0,1.3c0.2,0.5,0.8,0.5,1.1,0c0.4-0.7,0.2-2.1-0.2-2.3C35.5,30,35.1,30.6,34.9,31.2z"
	/>
<path class="st11" d="M30.6,56"/>
<path class="st9" d="M137.2,42.3"/>
</svg>
