<?xml version="1.0" encoding="utf-8"?>
<!-- Generator: Adobe Illustrator 26.0.3, SVG Export Plug-In . SVG Version: 6.00 Build 0)  -->
<svg version="1.1" id="Ebene_1" xmlns="http://www.w3.org/2000/svg" xmlns:xlink="http://www.w3.org/1999/xlink" x="0px" y="0px"
	 viewBox="0 0 100 100" style="enable-background:new 0 0 100 100;" xml:space="preserve">
<style type="text/css">
	.st0{fill:#69B42D;stroke:#000000;stroke-width:2;stroke-miterlimit:10;}
	.st1{fill:#69B42D;stroke:#000000;stroke-width:0.5;stroke-miterlimit:10;}
	.st2{fill:#E41C1C;stroke:#000000;stroke-miterlimit:10;}
	.st3{fill:#FF5F64;stroke:#000000;stroke-width:0.5;stroke-miterlimit:10;}
	.st4{fill:#FFFFFF;stroke:#000000;stroke-width:0.75;stroke-miterlimit:10;}
</style>
<g id="Ebene_1_00000105394206495958893710000000907105606858611385_">
	<g id="Ebene_2_00000037695081456361326870000000537167486581588369_">
	</g>
	<g id="Ebene_1_00000061445211855329728190000003209767103334527892_">
		<polygon class="st0" points="8,25.8 50,1.6 92,25.8 92,74.3 50,98.6 8,74.3 		"/>
	</g>
	<path class="st1" d="M62.1,86.1"/>
</g>
<path class="st2" d="M54.3,6.6C48,5.3,40.5,7.8,36.5,13.2c-6.6,9.1,1.1,20.4,2,21.7c1,1.5,7.9,11.2,16.4,9.2
	c8.4-1.9,13.5-14.1,11.9-23.3C66.6,19.8,64.5,8.7,54.3,6.6z"/>
<path class="st3" d="M48.4,8.6c-3.7,2.9-2.1,12.2,1.8,17.6c0.6,0.8,4.8,6.9,8.8,5.7c4.2-1.2,7.1-10.1,4.5-16.3
	C60.8,9,52,5.8,48.4,8.6z"/>
<path class="st4" d="M90.2,53.2c-1-0.8-3.4-0.1-4,0.1c-3.8,1-9.2,0.5-15-0.1c-3.3-0.3-12.1-1.2-15.9-5.9c-0.7-0.8-1.9-2.6-1.5-2.8
	c0.4-0.2,2,0.9,3.1,1.6c3.7,2.6,4,3.8,6.1,4.3c0.3,0.1,2.3,0.4,4-0.5c0.4-0.2,1.2-0.8,1.6-1.7c0-0.1,0.6-1.3-0.1-2.5
	c-1-1.7-3.8-2.1-6.9-2.5c-1.9-0.3-3.2-0.5-5-0.2c-1.1,0.1-2.2,0.4-4,0.5c-0.9,0-1.7,0-2.1,0c-6-0.3-9.9-1.5-13.7-0.5
	c-2.7,0.7-5.3,2.5-5,3.8c0.4,1.5,4.6,2.1,7.4,2c3.2-0.1,5.8-1.1,6.5-1.4c3.5-1.5,4.9-3.5,6.3-3c0.6,0.2,1.1,0.9,1.1,1.5
	c-0.2,3.1-13.8,4.9-15.1,5c-6.1,0.8-6.2,0-14.5,0.9c-4.9,0.5-13,1.6-13.8,4.1c0,0.1-0.3,0.9,0.1,1.1c0.5,0.3,2-0.9,2.4-1.2
	c3.3-2.5,10.5-2.8,23.9-3.3c1,0,2.7-0.1,5-0.5c0.9-0.2,3.1-0.6,6-1.6c4.4-1.6,5.7-2.9,6.6-2.4c0.7,0.4,0.4,1.6-0.1,4.6
	c-1,5.3-0.6,4.9-1.1,6.8c-1.1,4.4-3.5,8.8-8.4,17.5c-2.2,4-2.7,8.5-5,12.4c-0.2,0.3-0.9,1.5-0.3,2c0.2,0.3,0.7,0.4,1.1,0.3
	c1.1-0.2,1.2-2,1.5-3.5c0.1-0.3,0.9-2.2,2.4-6.1c0.9-2.2,2.1-4.6,4.6-9.3c3.2-6.1,2.8-5.1,3.3-6.3c1.8-4.3,3.2-7.6,3.4-11.9
	c0.1-1.6,0-3.7,0.9-3.9c0.6-0.1,1.2,0.6,1.6,1c1.8,1.7,5.2,2.1,12,3c3.3,0.4,5.7,0.5,10.6,0.8c3.7,0.2,0.2-0.1,8.5-0.6
	c0.5,0,1.6-0.1,1.9-0.6C90.7,53.8,90.5,53.4,90.2,53.2z M61.3,44.5c2.5,0.5,5.6,1.2,5.8,2.4c0.1,1.1-2,2.5-3.5,2.3
	c-1.5-0.2-1.4-1.8-3.8-3.4c-1.9-1.3-3.7-1.4-3.6-1.7C56.2,43.8,58.9,44,61.3,44.5z M45.3,45.9c-2.7,0.9-4,1.3-5.1,1.4
	c-2.7,0.2-6-0.6-6.1-1.6c-0.1-1,2.8-2.3,5.5-2.3c1.6,0,1.8,0.5,4.5,0.8c2.6,0.3,4.2,0.1,4.3,0.4C48.4,44.7,48.3,44.9,45.3,45.9z"/>
</svg>
