<?xml version="1.0" encoding="utf-8"?>
<!-- Generator: Adobe Illustrator 26.0.3, SVG Export Plug-In . SVG Version: 6.00 Build 0)  -->
<svg version="1.1" id="Ebene_1" xmlns="http://www.w3.org/2000/svg" xmlns:xlink="http://www.w3.org/1999/xlink" x="0px" y="0px"
	 viewBox="0 0 100 100" style="enable-background:new 0 0 100 100;" xml:space="preserve">
<style type="text/css">
	.st0{fill:#8A3C8F;stroke:#000000;stroke-width:2;stroke-miterlimit:10;}
	.st1{fill:#3C0606;stroke:#000000;stroke-miterlimit:10;}
	.st2{fill:#FFFFFF;stroke:#000000;stroke-width:0.5;stroke-miterlimit:10;}
	.st3{stroke:#000000;stroke-width:0.5;stroke-miterlimit:10;}
	.st4{fill:#AC1C1C;stroke:#000000;stroke-miterlimit:10;}
	.st5{fill:#078B38;stroke:#000000;stroke-miterlimit:10;}
	.st6{fill:#3C3F00;stroke:#000000;stroke-miterlimit:10;}
	.st7{fill:#C6D300;stroke:#000000;stroke-miterlimit:10;}
	.st8{fill:#C81C1C;stroke:#000000;stroke-miterlimit:10;}
	.st9{fill:#E44E1C;stroke:#000000;stroke-miterlimit:10;}
	.st10{fill:#E4801C;stroke:#000000;stroke-miterlimit:10;}
</style>
<g id="Ebene_1_00000009555231547046583080000011892253992037278349_">
	<g id="Ebene_2_00000037695081456361326870000000537167486581588369_">
	</g>
	<g id="Ebene_1_00000061445211855329728190000003209767103334527892_">
		<polygon class="st0" points="8,25.8 50,1.6 92,25.8 92,74.3 50,98.6 8,74.3 		"/>
	</g>
</g>
<path class="st1" d="M32.5,29.9c3.7-1.6,5.1,0.3,17.2,0.4C63.1,30.4,65.1,28,69,30c10.6,5.4,13.9,32.4,2.7,41.2
	c-3.8,3-10.1,2.9-22.7,2.7c-12.4-0.2-18.5-0.3-22.1-3.4C16.5,61.4,21.4,34.9,32.5,29.9z"/>
<path class="st2" d="M49.4,69.3c-0.2,1-0.4,1.7,0,2.2c0.6,0.8,2.3,0.9,3,0.1c0.6-0.7-0.1-1.5-0.1-3.7c-0.1-2.9,1.1-4.2,0.3-5
	c-0.6-0.6-1.8-0.7-2.5-0.1C48.9,63.6,50.2,65.3,49.4,69.3z"/>
<path class="st3" d="M51.7,60c-0.1,0-0.8,1.5-0.3,2.1c0.1,0.1,0.2,0.2,0.3,0.2c0.1-0.1-0.1-0.4-0.2-0.9C51.4,60.6,51.7,60,51.7,60z"
	/>
<path class="st4" d="M33.7,29.1c-0.1,2.1,8.3,4.8,16.1,4.9c8.4,0.1,17.5-2.6,17.5-4.9c0-1.7-5.2-3.9-9.8-3.4
	c-2.8,0.3-3.6,1.4-6.8,1.3c-3.1,0-3.9-1.1-6.6-1.5C39.4,24.9,33.8,27.3,33.7,29.1z"/>
<path class="st5" d="M39,30c-0.4-1.2,5.5-3.9,11.7-3.5c4.5,0.3,9.2,2.2,8.9,3.2C58.9,31.8,39.7,32,39,30z"/>
<path class="st6" d="M47.3,27.9c-0.8-0.3,0.6-10.4,5.8-12.4c1-0.4,2.5-0.6,2.7-0.3c0.2,0.4-1.6,1-3.1,2.7c-1.9,2.1-1.2,3.6-3.3,7.3
	C48.7,26.2,47.7,28.1,47.3,27.9z"/>
<path class="st7" d="M55.7,15.2c0.5,0.4-3.2,5-4.5,9.9c-0.1,0.4-0.4,1.7-1.5,2.7c-0.8,0.7-2.1,1.5-2.5,1.1
	c-0.9-0.8,2.3-6.3,5.1-10.1C52.7,18.3,55.3,14.9,55.7,15.2z"/>
<path class="st8" d="M82.3,50.2c-0.5-12.7-11-24.9-17-23.5c-3.4,0.8-5.2,6.1-6.2,11.4c1.2-0.4,1.6-1,2.4-1.4
	c2.1-1.1,5.6-0.7,6.9,1.1c1.6,2.3-1,6.1-2.1,7.6c-0.2,0.3-3.5,5-5.6,4.3c-1-0.4-0.7-1.6-2.1-4.9c-0.1-0.2-0.2-0.4-0.3-0.6
	c-0.2,3.1-0.3,5.5-0.3,6c0,2.6,0.2,6.1,0.6,9.6c0.4,0.3,0.7,0.6,1.2,0.6c0.7-0.1,0.9-0.8,2.1-1.8c1-0.8,1.3-0.6,2.1-1.2
	c1.9-1.4,1.7-3.7,2.2-3.7c0.6,0,1.7,3.7,0.7,7.6c-0.8,3.1-2.8,6.2-4.1,5.9c-1.2-0.2-1.4-3.4-3-3.6c-0.2,0-0.4,0-0.6,0.1
	c1.2,6,3.3,11.4,6.8,12.1C72.3,77.1,82.9,63.6,82.3,50.2z"/>
<path class="st8" d="M35.1,64.1c-1.7-2.8-2.6-6.7-1.5-7.4c0.8-0.5,3,1.1,5.8,3.1c0.6,0.4,1.2,0.9,1.9,1c0.6-4.6,0.7-8.7,0.8-9.9
	c0-1.1,0.1-2.6,0.1-4.3c-0.2,0.1-0.4,0.3-0.7,0.6c-2.1,2.4-1.3,5.3-2.4,5.7c-1,0.4-2.4-1.2-3.3-2.2c-2.4-2.7-5.9-8.2-4-10.3
	c1.1-1.3,3.8-0.9,4.6-0.7c2.5,0.4,3.1,1.7,5.2,1.6c0.2,0,0.4,0,0.6-0.1c-0.3-6.1-1.5-12.6-5.2-13.9c-6-2-18.7,9.9-19.7,23.4
	c-1,13.8,10.4,27.6,16.7,26.4c2.8-0.6,4.6-4.1,5.8-8.4C38.3,68,36.4,66.3,35.1,64.1z"/>
<path class="st9" d="M45.7,62.5c-0.6,0.2-0.6,1-2.1,2.2c-0.7,0.6-0.8,0.5-1.2,0.9c-1.2,1.3-0.4,2.9-1,3.4c-0.9,0.7-4.3-1.5-6.4-4.9
	c-1.7-2.8-2.6-6.7-1.5-7.4c0.8-0.5,3,1.1,5.8,3.1c0.7,0.5,1.5,1.1,2.5,1c1.1-0.1,1.7-0.9,2.4-1.5c2.3-2,5.6-2.1,7.3-2
	c0.1-1.5,0.2-3.1,0.2-4.5c0-9.8-3.5-24.2-10-25s-15.4,12-15.6,24.3c-0.3,13,9,26.5,15.6,25.7c3.7-0.5,6.4-5.4,8.1-11.4
	C48.3,64.9,46.9,62.1,45.7,62.5z M31.6,40.4c1.1-1.3,3.8-0.9,4.6-0.7c2.5,0.4,3.1,1.7,5.2,1.6c2-0.1,2.8-1.4,3.4-0.9
	c0.8,0.6,0.1,3.4-1.5,5.2c-0.8,1-1.1,0.7-1.9,1.6c-2.1,2.4-1.3,5.3-2.4,5.7c-1,0.4-2.4-1.2-3.3-2.2C33.3,48,29.8,42.5,31.6,40.4z"/>
<path class="st9" d="M75.1,50.7C74.6,38.4,65,25.9,58.1,27c-6.8,1.1-10,15.7-10,25c0,1.7,0.1,3.6,0.3,5.5c1.6-0.3,3.1-0.1,3.8-0.1
	c2.1,0.2,4.3,0.3,5.9,1.9c0.5,0.5,1,1.3,1.8,1.2c0.7-0.1,0.9-0.8,2.1-1.8c1-0.8,1.3-0.6,2.1-1.2c1.9-1.4,1.7-3.7,2.2-3.7
	c0.6,0,1.7,3.7,0.7,7.6c-0.8,3.1-2.8,6.2-4.1,5.9c-1.2-0.2-1.4-3.4-3-3.6c-0.4,0-0.6,0.2-1.3,0.1c-1-0.1-1.4-0.6-1.9-0.7
	c-1.7-0.4-2.8,4-4.9,4.1c-0.5,0-1-0.2-1.5-0.6c1.7,5.4,4.3,9.7,7.8,10.3C65.1,78.1,75.6,64.2,75.1,50.7z M66.3,45.4
	c-0.2,0.3-3.5,5-5.6,4.3c-1-0.4-0.7-1.6-2.1-4.9c-1.5-3.6-3.1-5.2-2.5-6c0.4-0.5,1.1-0.1,2.8-0.6c1.4-0.5,1.8-1,2.7-1.5
	c2.1-1.1,5.6-0.7,6.9,1.1C70,40.1,67.4,43.9,66.3,45.4z"/>
<path class="st10" d="M56.7,63.2c-1.7-0.4-2.8,4-4.9,4.1c-2.4,0.2-4.4-5.4-6.1-4.9c-0.6,0.2-0.6,1-2.1,2.2c-0.7,0.6-0.8,0.5-1.2,0.9
	c0,0,0,0.1-0.1,0.1c1.8,6.9,4.9,11.4,8.4,11.4c3.8,0,7.1-5.4,8.8-13.2c-0.3,0.1-0.5,0.2-1,0.1C57.6,63.9,57.2,63.3,56.7,63.2z"/>
<path class="st10" d="M41.9,60.8c1.1-0.1,1.7-0.9,2.4-1.5c2.6-2.3,6.6-2,8-1.9c2.1,0.2,4.3,0.3,5.9,1.9c0.5,0.5,1,1.3,1.8,1.2
	c0.1,0,0.2,0,0.3-0.1c0.4-2.6,0.6-5.5,0.6-8.4c0-0.8,0-1.6,0-2.3c-1-0.4-0.7-1.6-2.1-4.9c-1.5-3.6-3.1-5.2-2.5-6
	c0.4-0.5,1.1-0.1,2.8-0.6c0.1,0,0.1,0,0.2-0.1c-1.8-6.7-4.8-11-8.3-11c-4,0-7.4,5.8-9,14.2c1.7-0.2,2.5-1.3,3.1-0.8
	c0.8,0.6,0.1,3.4-1.5,5.2c-0.8,1-1.1,0.7-1.9,1.6c-0.2,0.2-0.3,0.4-0.5,0.6c-0.1,1.4-0.1,2.8-0.1,4.2c0,3.1,0.2,6,0.6,8.8
	C41.6,60.8,41.7,60.8,41.9,60.8z"/>
<path class="st7" d="M56.1,13.6"/>
<path class="st8" d="M68.5,76.1"/>
<path class="st3" d="M50.6,80.7c0.1,0,0.4-1.5,0.6-2.1c0-0.2,0.1-0.7-0.1-1.2c0,0-0.2-0.3-0.3-0.2c-0.1,0,0,0.6,0,1.3
	C50.8,79.9,50.5,80.7,50.6,80.7z"/>
</svg>
