<?xml version="1.0" encoding="utf-8"?>
<!-- Generator: Adobe Illustrator 26.0.3, SVG Export Plug-In . SVG Version: 6.00 Build 0)  -->
<svg version="1.1" id="Background" xmlns="http://www.w3.org/2000/svg" xmlns:xlink="http://www.w3.org/1999/xlink" x="0px" y="0px"
	 viewBox="0 0 1920 1080" style="enable-background:new 0 0 1920 1080;" xml:space="preserve">
<style type="text/css">
	.st0{fill:#949386;}
	.st1{fill:#BDB8A5;stroke:#000000;stroke-width:5;stroke-miterlimit:10;}
</style>
<path id="Boden" class="st0" d="M-0.1,0c434,0,868,0,1302.1,0c206,0,412,0,617.9,0c0,360,0,720,0,1080H-0.1V0z"/>
<g id="Adern_00000005947651541785902080000012084823895880745147_">
	<path class="st1" d="M1019.9,784.6c-39.9,4.8-70.7-2-81-4c-59.9-11.6-191.5-6.8-447-9c-309.1-2.7-488.6-12.9-489-6
		c-0.2,3.3,40.7,8.1,66,11c153.3,17.8,193.7-1.4,320,13c73.3,8.4,83.3,17.6,144,18c52.9,0.4,58.5-6.5,132-7c23.1-0.2,27.5,0.5,130,4
		c79.5,2.7,83.1,2.9,92,3c70.7,1.1,106,1.7,138-2c59.6-6.9,78.4-18.3,126-12c22.4,3,23.9,6.3,54,12c49.4,9.4,85.8,5.9,118,8
		c125,8,188.2,11.9,221,7c38.6-5.7,56.7-13,121-21c29.4-3.7,18.7-1,86-7c77.3-6.9,88.7-10,112-3c25.4,7.6,48.4,22.1,53,16
		c2.6-3.4-2.2-11-4-14c-9.3-15-25.9-20.3-35-23c-30.7-9-50.7-0.1-85,4c-36.5,4.3-30.9-3.8-87-3c-19.1,0.3-64.8,1.9-120,14
		c-51.1,11.2-41.8,16.4-76,22c-47.5,7.7-87.3,1.3-157-10c-32.6-5.3-28.9-6.1-61-11c-49.6-7.6-86.6-10-118-12c-47.6-3-71.9-4.4-93-1
		C1053.1,776,1046.3,781.4,1019.9,784.6z"/>
	<path class="st1" d="M1041.4,517.7c-24.9-6.9-44.1,2.9-50.5,5.7c-37.4,16.6-119.5,9.8-278.9,12.9c-192.8,3.9-304.8,18.5-305.1,8.6
		c-0.1-4.7,25.4-11.6,41.2-15.8c95.6-25.5,120.8,2,199.6-18.6c45.7-12,52-25.2,89.8-25.8c33-0.6,36.5,9.3,82.3,10
		c14.4,0.3,17.2-0.7,81.1-5.7c49.6-3.9,51.8-4.2,57.4-4.3c44.1-1.6,66.1-2.4,86.1,2.9c37.2,9.9,48.9,26.2,78.6,17.2
		c14-4.3,14.9-9,33.7-17.2c30.8-13.5,53.5-8.5,73.6-11.5c78-11.5,117.4-17.1,137.9-10c24.1,8.2,35.4,18.6,75.5,30.1
		c18.3,5.3,11.7,1.4,53.7,10c48.2,9.9,55.3,14.3,69.9,4.3c15.8-10.9,30.2-31.7,33.1-23c1.6,4.9-1.4,15.8-2.5,20.1
		c-5.8,21.5-16.2,29.1-21.8,33c-19.2,12.9-31.6,0.1-53-5.7c-22.8-6.2-19.3,5.5-54.3,4.3c-11.9-0.4-40.4-2.7-74.9-20.1
		c-31.9-16.1-26.1-23.5-47.4-31.6c-29.6-11-54.5-1.9-97.9,14.3c-20.3,7.6-18,8.7-38.1,15.8c-30.9,10.9-54,14.3-73.6,17.2
		c-29.7,4.3-44.9,6.3-58,1.4C1062.2,530.1,1057.9,522.3,1041.4,517.7z"/>
	<path class="st1" d="M1099.9,851.6c4.9-4.5,31.5,33.9,79,54c38,16.1,72.3,13.1,141,7c59.5-5.2,59.6-11.9,115-16
		c34.2-2.5,64.5-1.3,125,1c104.4,4,90.6,8.9,131,7c49.9-2.4,76.5-10.2,122,1c26.9,6.6,52.9,18,52,22c-0.9,3.8-25.5,1.5-73-3
		c-33.6-3.2-33.5-4.1-45-4c-30.9,0.2-38.7,7-66,8c-19.2,0.7-18.7-2.5-57-7c-30.6-3.6-52.8-4.1-91-5c-35.8-0.8-53.7-1.2-69,1
		c-28.9,4.3-32,10-69,19c-9.2,2.2-40.6,9.5-82,12c-24.4,1.5-45.6,0-88-3c-13.6-1-27.5-2.2-44-9c-13.2-5.5-22.6-12.3-29-17
		c-17.7-13-28.3-26.2-32-31C1112.1,878.4,1096.1,855.1,1099.9,851.6z"/>
	<path class="st1" d="M1886.4,713.9c-3.1,5.2-20.2-39.2-50.7-62.5c-24.4-18.6-46.4-15.2-90.6-8.1c-38.2,6-38.3,13.8-73.9,18.5
		c-22,2.9-41.4,1.5-80.3-1.2c-67.1-4.6-58.2-10.3-84.2-8.1c-32.1,2.8-49.1,11.8-78.4-1.2c-17.3-7.6-34-20.8-33.4-25.5
		c0.6-4.4,16.4-1.7,46.9,3.5c21.6,3.7,21.5,4.7,28.9,4.6c19.8-0.2,24.9-8.1,42.4-9.3c12.3-0.8,12,2.9,36.6,8.1
		c19.7,4.2,33.9,4.7,58.5,5.8c23,0.9,34.5,1.4,44.3-1.2c18.6-5,20.6-11.6,44.3-22c5.9-2.5,26.1-11,52.7-13.9
		c15.7-1.7,29.3,0,56.5,3.5c8.7,1.2,17.7,2.5,28.3,10.4c8.5,6.4,14.5,14.2,18.6,19.7c11.4,15,18.2,30.3,20.6,35.9
		C1878.6,682.9,1888.9,709.8,1886.4,713.9z"/>
	<path class="st1" d="M27.9,1049.6c16.4-22.1,46.2-26.8,83-30c58-5,62.6-0.1,117-4c40.5-2.9,81.3-8.8,97-11c41.2-5.9,40.4-7.4,55-8
		c49.7-2.2,65.2,14.5,105,19c53,6,52.4-20.6,134-30c30.1-3.5,20.1,1.3,128,0c33.2-0.4,56-0.7,88-2c60.1-2.5,65.8-5.1,98-4
		c43.2,1.4,64.8,2.1,92,13c27.9,11.1,32,21,59,27c20.9,4.6,32.6,1.9,65,0c20.3-1.2,53.6-3.1,87,0c65.6,6,79.2,26.5,121,16
		c18.2-4.6,31.7-12.5,35-8c3.9,5.4-8.5,27.4-27,33c-15.9,4.8-23.1-6.6-58-15c-22-5.3-39.8-5.8-51-6c-19.7-0.4-27.4,1.8-51,4
		c-15.2,1.4-47.9,4.5-84,2c-13.4-0.9-40.3-3.5-73-12c-46.2-12.1-48.9-21.8-79-24c-28.1-2.1-26.5,6.3-65,6c-32.1-0.3-36.4-6.1-71-6
		c-25.7,0.1-25,3.3-54,4c-31.7,0.7-33.8-3.1-72-4c-14-0.3-41.3-0.5-75,3c-21,2.2-36.4,5-53,8c-75,13.7-72.1,22-94,19
		c-35-4.9-42.7-26.1-80-24c-6.5,0.4-6,1-32,4c-22.3,2.6-33,3.3-50,5c-33.9,3.3-30.7,4.3-66,8c-44,4.6-45.1,2.8-69,7
		c-19.7,3.5-23.4,5.5-37,6c-21.8,0.8-26.9-3.9-47-2c-13.9,1.3-24.2,4.7-37,9c-28.8,9.6-42.4,20-46,16
		C18.1,1065.5,23.2,1055.9,27.9,1049.6z"/>
	<path class="st1" d="M16.4,667.9c9-22.1,25.3-26.8,45.4-30c31.7-5,34.2-0.1,64-4c22.2-2.9,44.5-8.8,53.1-11
		c22.5-5.9,22.1-7.4,30.1-8c27.2-2.2,35.7,14.5,57.4,19c29,6,28.7-20.6,73.3-30c16.5-3.5,11,1.3,70,0c18.2-0.4,30.6-0.7,48.1-2
		c32.9-2.5,36-5.1,53.6-4c23.6,1.4,35.4,2.1,50.3,13c15.3,11.1,17.5,21,32.3,27c11.4,4.6,17.8,1.9,35.6,0c11.1-1.2,29.3-3.1,47.6,0
		c35.9,6,43.3,26.5,66.2,16c10-4.6,17.3-12.5,19.1-8c2.1,5.4-4.7,27.4-14.8,33c-8.7,4.8-12.6-6.6-31.7-15c-12-5.3-21.8-5.8-27.9-6
		c-10.8-0.4-15,1.8-27.9,4c-8.3,1.4-26.2,4.5-46,2c-7.3-0.9-22-3.5-39.9-12c-25.3-12.1-26.8-21.8-43.2-24c-15.4-2.1-14.5,6.3-35.6,6
		c-17.6-0.3-19.9-6.1-38.8-6c-14.1,0.1-13.7,3.3-29.5,4c-17.3,0.7-18.5-3.1-39.4-4c-7.7-0.3-22.6-0.5-41,3c-11.5,2.2-19.9,5-29,8
		c-41,13.7-39.4,22-51.4,19c-19.1-4.9-23.4-26.1-43.8-24c-3.6,0.4-3.3,1-17.5,4c-12.2,2.6-18.1,3.3-27.4,5
		c-18.5,3.3-16.8,4.3-36.1,8c-24.1,4.6-24.7,2.8-37.7,7c-10.8,3.5-12.8,5.5-20.2,6c-11.9,0.8-14.7-3.9-25.7-2
		c-7.6,1.3-13.2,4.7-20.2,9c-15.8,9.6-23.2,20-25.2,16C11.1,683.8,13.8,674.2,16.4,667.9z"/>
	<path class="st1" d="M904.8,318.4c39.9-4.8,70.7,2,81,4c59.9,11.6,191.5,6.8,447,9c309.1,2.7,488.6,12.9,489,6
		c0.2-3.3-40.7-8.1-66-11c-153.3-17.8-193.7,1.4-320-13c-73.3-8.4-83.3-17.6-144-18c-52.9-0.4-58.5,6.5-132,7
		c-23.1,0.2-27.5-0.5-130-4c-79.5-2.7-83.1-2.9-92-3c-70.7-1.1-106-1.7-138,2c-59.6,6.9-78.4,18.3-126,12c-22.4-3-23.9-6.3-54-12
		c-49.4-9.4-85.8-5.9-118-8c-125-8-188.2-11.9-221-7c-38.6,5.7-56.7,13-121,21c-29.4,3.7-18.7,1-86,7c-77.3,6.9-88.7,10-112,3
		c-25.4-7.6-48.4-22.1-53-16c-2.6,3.4,2.2,11,4,14c9.3,15,25.9,20.3,35,23c30.7,9,50.7,0.1,85-4c36.5-4.3,30.9,3.8,87,3
		c19.1-0.3,64.8-1.9,120-14c51.1-11.2,41.8-16.4,76-22c47.5-7.7,87.3-1.3,157,10c32.6,5.3,28.9,6.1,61,11c49.6,7.6,86.6,10,118,12
		c47.6,3,71.9,4.4,93,1C871.6,327,878.4,321.6,904.8,318.4z"/>
	<path class="st1" d="M12.1,161.6c2.8,12.9,57.2,4.2,57.2,4.2C120,157.7,176,153.3,213.1,154c62,1.2,60,16.6,108.4,11
		c36.4-4.2,52.4-14.6,83.5-5.9c16.4,4.6,27,11.7,52.7,16c6.4,1.1,20.6,3.2,42.9,2.5c52.1-1.5,58.4-15.4,99.4-16
		c32.7-0.5,30.1,8.3,70.8,8.4c27.4,0.1,49.5-3.8,70-7.6c53.3-9.8,51.4-17.6,73.8-16c38.4,2.8,46,26.3,78.3,22
		c23.2-3,21.8-15.5,48.2-24.5c39.6-13.4,50.4,12.1,115.2,11c34.6-0.6,40.7-8,73-4.2c14.2,1.7,26,4.6,45.9,3.4
		c23.9-1.5,23.6-6.8,38.4-5.9c29.4,1.8,31.5,22.7,60.2,24.5c19.3,1.2,24.8-7.9,44.4-2.5c13.8,3.8,13.7,9.1,26.3,11.8
		c18.2,3.9,21.2-6.6,45.9-7.6c10.4-0.4,27.9,0.7,45.9,4.2c9.3,1.9,17.2,4,21.1-0.8c3.5-4.3,3.4-13.8-0.8-18.6
		c-7.6-8.7-20.9,6.8-39.9-0.8c-8.4-3.4-11.7-8.9-22.6-10.1c-6.2-0.8-11,0.3-13.5,0.8c-17.8,3.9-21.5,15.8-30.1,13.5
		c-1.4-0.3-6.5-6.4-16.6-18.6c-7-8.4-10.2-12.3-14.3-11.8c-2.8,0.3-3.8,2.5-7.5,6.8c-2.6,3-13.2,14.8-23.3,15.2
		c-5.9,0.3-10.4-3.5-13.5-5.9c-19.1-14.7-47.3-24.3-67.7-24.5c-17.2-0.1-16.6,6.6-33.9,5.1c-18.9-1.7-23.5-10-38.4-11
		c-18.3-1.1-21.7,11-43.7,18.6c-26,9-50.3,2.2-82.8-6.8c-29-8-30.6-13.8-47.4-13.5c-24.7,0.5-29,13.2-52.7,16.9
		c-30.1,4.7-37.6-13.5-73-17.7c-29.1-3.5-29.8,8.1-79.8,16c-22.1,3.5-19.9,0.9-101.6,3.4c-46.2,1.4-69.4,2.1-81.3,4.2
		c-31.6,5.7-51,23.1-72.3,11.8c-7.6-4.1-11.9-9.5-26-15.6c-5.9-2.5-16.3-6.4-31.2-8c-30.7-3.4-37.9,7.4-66.2,7.6
		c-26.4,0.2-27.5-9.2-56.8-11.4c-24.2-1.8-37.7,3.5-61,8.4c-20.5,4.3-67.2,4.7-160.7,5.5c-18.6,0.2-37.3,3.9-55.7,0.8
		c-9.3-1.5-28.2-5.6-30.9,0.8c-0.9,2.2,0.7,4.1,0.8,11.8C12.9,157.5,11.7,159.8,12.1,161.6z"/>
	<path class="st1" d="M1912.3,42.1c-2.8-12.9-57.2-4.2-57.2-4.2c-50.7,8.1-106.7,12.6-143.8,11.8c-62-1.2-60-16.6-108.4-11
		c-36.4,4.2-52.4,14.6-83.5,5.9c-16.4-4.6-27-11.7-52.7-16c-6.4-1.1-20.6-3.2-42.9-2.5c-52.1,1.5-58.4,15.4-99.4,16
		c-32.7,0.5-30.1-8.3-70.8-8.4c-27.4-0.1-49.5,3.8-70,7.6c-53.3,9.8-51.4,17.6-73.8,16c-38.4-2.8-46-26.3-78.3-22
		c-23.2,3-21.8,15.5-48.2,24.5c-39.6,13.4-50.4-12.1-115.2-11c-34.6,0.6-40.7,8-73,4.2c-14.2-1.7-26-4.6-45.9-3.4
		c-23.9,1.5-23.6,6.8-38.4,5.9c-29.4-1.8-31.5-22.7-60.2-24.5c-19.3-1.2-24.8,7.9-44.4,2.5c-13.8-3.8-13.7-9.1-26.3-11.8
		c-18.2-3.9-21.2,6.6-45.9,7.6c-10.4,0.4-27.9-0.7-45.9-4.2c-9.3-1.9-17.2-4-21.1,0.8c-3.5,4.3-3.4,13.8,0.8,18.6
		c7.6,8.7,20.9-6.8,39.9,0.8c8.4,3.4,11.7,8.9,22.6,10.1c6.2,0.8,11-0.3,13.5-0.8c17.8-3.9,21.5-15.8,30.1-13.5
		c1.4,0.3,6.5,6.4,16.6,18.6c7,8.4,10.2,12.3,14.3,11.8c2.8-0.3,3.8-2.5,7.5-6.8c2.6-3,13.2-14.8,23.3-15.2
		c5.9-0.3,10.4,3.5,13.5,5.9c19.1,14.7,47.3,24.3,67.7,24.5c17.2,0.1,16.6-6.6,33.9-5.1c18.9,1.7,23.5,10,38.4,11
		c18.3,1.1,21.7-11,43.7-18.6c26-9,50.3-2.2,82.8,6.8c29,8,30.6,13.8,47.4,13.5c24.7-0.5,29-13.2,52.7-16.9
		c30.1-4.7,37.6,13.5,73,17.7c29.1,3.5,29.8-8.1,79.8-16c22.1-3.5,19.9-0.9,101.6-3.4c46.2-1.4,69.4-2.1,81.3-4.2
		c31.6-5.7,51-23.1,72.3-11.8c7.6,4.1,11.9,9.5,26,15.6c5.9,2.5,16.3,6.4,31.2,8c30.7,3.4,37.9-7.4,66.2-7.6
		c26.4-0.2,27.5,9.2,56.8,11.4c24.2,1.8,37.7-3.5,61-8.4c20.5-4.3,67.2-4.7,160.7-5.5c18.6-0.2,37.3-3.9,55.7-0.8
		c9.3,1.5,28.2,5.6,30.9-0.8c0.9-2.2-0.7-4.1-0.8-11.8C1911.5,46.2,1912.7,44,1912.3,42.1z"/>
</g>
</svg>
