<?xml version="1.0" encoding="utf-8"?>
<!-- Generator: Adobe Illustrator 26.0.3, SVG Export Plug-In . SVG Version: 6.00 Build 0)  -->
<svg version="1.1" id="Ebene_1" xmlns="http://www.w3.org/2000/svg" xmlns:xlink="http://www.w3.org/1999/xlink" x="0px" y="0px"
	 viewBox="0 0 1920 360" style="enable-background:new 0 0 1920 360;" xml:space="preserve">
<style type="text/css">
	.st0{fill:#007CBE;}
	.st1{opacity:0.25;fill:#FF155D;enable-background:new    ;}
	.st2{opacity:0.5;fill:#FF155D;enable-background:new    ;}
	.st3{opacity:0.75;fill:#FF155D;enable-background:new    ;}
	.st4{fill:#FF155D;}
	.st5{fill:#756567;stroke:#000000;stroke-width:4;stroke-miterlimit:10;}
	.st6{fill:#FDD0B4;stroke:#CCAC00;stroke-width:4;stroke-miterlimit:10;}
	.st7{fill:#A69F94;stroke:#000000;stroke-width:4;stroke-miterlimit:10;}
	.st8{stroke:#CCAC00;stroke-width:5;stroke-miterlimit:10;}
	.st9{fill:#8C6239;stroke:#000000;stroke-width:3;stroke-miterlimit:10;}
	.st10{fill:#FFBFD8;stroke:#000000;stroke-width:0.75;stroke-miterlimit:10;}
	.st11{fill:#39B54A;stroke:#000000;stroke-width:0.75;stroke-miterlimit:10;}
	.st12{stroke:#000000;stroke-width:0.75;stroke-miterlimit:10;}
	.st13{fill:#FFA3D8;stroke:#000000;stroke-width:0.75;stroke-miterlimit:10;}
	.st14{fill:#DD86B7;stroke:#000000;stroke-width:0.75;stroke-miterlimit:10;}
	.st15{fill:#00DCFF;stroke:#000000;stroke-width:0.75;stroke-miterlimit:10;}
	.st16{fill:#A67C52;stroke:#000000;stroke-miterlimit:10;}
	.st17{fill:#A67C52;stroke:#000000;stroke-width:0.75;stroke-miterlimit:10;}
	.st18{fill:#754C24;stroke:#000000;stroke-width:0.75;stroke-miterlimit:10;}
	.st19{fill:#754C24;stroke:#000000;stroke-miterlimit:10;}
	.st20{fill:#603813;stroke:#000000;stroke-width:0.75;stroke-miterlimit:10;}
	.st21{fill:#72CC6B;stroke:#000000;stroke-width:4;stroke-miterlimit:10;}
	.st22{fill:#72CC6B;stroke:#000000;stroke-width:3.9996;stroke-miterlimit:9.999;}
	.st23{fill:#C9D774;}
	.st24{fill:#47B36E;stroke:#000000;stroke-width:4;stroke-miterlimit:10;}
	.st25{fill:#47B36E;stroke:#000000;stroke-width:3.9998;stroke-miterlimit:9.9994;}
	.st26{fill:#47B36E;stroke:#000000;stroke-width:4;stroke-miterlimit:9.9998;}
	.st27{fill:#47B36E;stroke:#000000;stroke-width:3.9998;stroke-miterlimit:9.9996;}
	.st28{fill:#A5D371;}
	.st29{fill:#5DC175;stroke:#000000;stroke-width:2;stroke-miterlimit:10;}
	.st30{fill:#5DC175;stroke:#000000;stroke-width:2.0002;stroke-miterlimit:10.0006;}
	.st31{fill:#5DC175;stroke:#000000;stroke-width:1.9998;stroke-miterlimit:9.9994;}
	.st32{fill:#5DC175;stroke:#000000;stroke-width:2.0002;stroke-miterlimit:10.001;}
</style>
<polyline class="st0" points="1922,-0.2 1922,233.2 0,233.2 0,-0.2 "/>
<line class="st0" x1="0" y1="-0.2" x2="714.8" y2="-0.2"/>
<g id="Sonne">
	<path class="st1" d="M1637.8,1.4h-528c-6.3,18.3-12.7,44.2-12,75.1c1,46,17.8,98.7,48.2,145.6c23.2,1.8,46.1,7.2,69.1,11
		c12.6,2.1,25.4,3.5,38.1,3.5c13.3,0,26.2-2.2,39.2-4.6c12.6-2.4,25.3-4.9,38.1-6.3c13-1.5,26.2-1.2,39.2-0.3
		c13.2,0.9,26.3,2.5,39.4,3.9c12.3,1.4,24.7,2.1,37,3.3c21.5,2.2,41.9,7.6,60.4,18.9c23.1-1.3,46.2,1.1,69.3,1.7
		c44.8-53.7,69.9-120.6,72.2-176.8C1649,47.3,1644.1,21.8,1637.8,1.4z"/>
	<path class="st2" d="M1577.4,21.1c-2.3-8.3-4.7-15-6.6-19.7h-397c-1.7,4.3-4,10.6-6.2,18.3c0,0-7.8,27.8-7.8,57.3
		c0,62.9,27.3,119.4,70.7,158.3c7.5,0.8,15.1,1.4,22.7,1.3c13.3,0,26.2-2.2,39.2-4.6c12.6-2.4,25.3-4.9,38.1-6.3
		c13-1.5,26.2-1.2,39.2-0.3c13.2,0.9,26.3,2.5,39.4,3.9c12.3,1.4,24.7,2.1,37,3.3c18.8,1.9,36.6,6.2,53.2,14.9
		c52-38.7,85.6-100.7,85.6-170.5C1584.8,48.3,1577.4,21.1,1577.4,21.1z"/>
	<path class="st3" d="M1291.6,232.1c0.2,0,0.5-0.1,0.7-0.1c12.6-2.4,25.3-4.9,38.1-6.3c13-1.5,26.2-1.2,39.2-0.3
		c13.2,0.9,26.3,2.5,39.4,3.9c12.3,1.4,24.7,2.1,37,3.3c1.3,0.1,2.7,0.3,4,0.4c57.4-28.7,96.8-88.1,96.8-156.6
		c0-26.6-7.7-51.7-7.7-51.7c-3-9.7-6.4-17.6-9.3-23.5c-105.3,0.1-210.7,0.1-316,0.1c-3.1,6.4-6.7,15-9.9,25.5c0,0-7.1,24.1-7.1,49.6
		C1196.8,144.2,1235.3,203,1291.6,232.1z"/>
	<g>
		<path class="st4" d="M1348.2,224.6c7.1-0.1,14.3,0.2,21.4,0.7c3.6,0.2,7.3,0.5,10.9,0.9c78.7-4.5,141.3-69.9,141.3-149.7
			c0-22-6.3-43.1-6.3-43.1c-4-13.6-9.3-24.3-13.7-32h-260c-4.4,7.7-9.7,18.5-13.7,32.1c0,0-6.3,21.1-6.3,43
			C1221.8,151.3,1276.6,213.3,1348.2,224.6z"/>
	</g>
</g>
<path class="st5" d="M701.7-0.2c30.2,26.4,65.7,57.1,111,89c92.7,65.2,140,74.1,136.2,90.9c-7,31.5-173.6,5.2-417.9,3.3
	c-246.7-2-518.2,56.5-533.2,5.9c-1.4-4.7-0.8-18.9,0.4-47.2c1.5-35.7,2.3-53.5,5.3-59.6C21.2,46.7,74.6,65.2,153,19.5
	c10.6-6.2,14.1-9.1,26.8-16.8"/>
<path class="st5" d="M179.8,2.7c1.5-0.9,3.1-1.9,4.8-2.9l517,0"/>
<g>
	<path class="st6" d="M1921.7-1.2c-23.8,0.1-47.7,0.2-71.5,0.2c-3.3,3.6-8.6,8.8-16,14c-25.2,17.8-49.1,15.1-66,20.6
		c-62.7,20.4-90.3,81.2-86.3,83.8c1.5,1,17-10.5,30.5-20.6c15.9-11.8,17.4-14.2,24.4-18.2c11.3-6.5,24.7-10.3,50.8-12.6
		c34.6-3.2,61.8-1.2,79.2,0c12.3,0.8,32.7,2.2,55.2,3.6L1921.7-1.2z"/>
</g>
<path class="st7" d="M-1.7,186.9c321,0,642,0,963,0c414.8,0,957,0,957,0s0,0,0,0.1c6,62,3.6,67.6,1,70.9c-7.5,9.7-22.8,9.3-37,9
	c-29.6-0.7-34.5-17.8-57-14c-25.1,4.2-32.5,20.9-49,17c-20.1-4.8-21.1-32.7-38-34c-14.7-1.1-17.2,19.9-37,24
	c-15.9,3.3-21.7-8.7-64-25c-17.3-6.7-25.9-10-36-11c-27-2.7-34.4,8.8-60,6c-21.3-2.3-22.3-10.9-41-13c-24.2-2.7-32,10.7-61,20
	c-56.6,18.2-116.2-4.2-129-9c-19.6-7.4-20.6-11.2-34-13c-33.6-4.5-48.8,16.8-82,21c-30,3.8-37.4-10.9-75-19
	c-44.4-9.5-54.5,6.7-133,16c-14.5,1.7-58.3,2.5-146,4c-79.2,1.4-84.4,0.4-103,5c-36.4,8.9-53.1,21.5-83,16
	c-26.6-4.9-26.3-17.3-55-26c-35.3-10.7-48,4.3-100,5c-46,0.6-46.8-10.9-99-13c-27.6-1.1-28.5,2.1-98,9c-58.3,5.8-95.7,9.6-145,9
	c-31.9-0.4-36.3-2.1-74-2c-39.3,0.2-85,2.3-85,2C-1.7,241.9-1.7,241.9-1.7,186.9z"/>
<path class="st8" d="M-1.7,261.9c3.7,15.3,76,5,76,5c67.4-9.6,141.8-14.9,191-14c82.4,1.4,79.7,19.6,144,13c48.4-5,69.6-17.3,111-7
	c21.8,5.4,35.9,13.8,70,19c8.5,1.3,27.4,3.8,57,3c69.2-1.8,77.6-18.2,132-19c43.4-0.6,40,9.8,94,10c36.4,0.1,65.7-4.5,93-9
	c70.8-11.6,68.3-20.9,98-19c51,3.3,61.1,31.1,104,26c30.8-3.6,28.9-18.4,64-29c52.6-15.9,67,14.3,153,13c46-0.7,54.1-9.5,97-5
	c18.9,2,34.5,5.5,61,4c31.7-1.8,31.4-8.1,51-7c39,2.1,41.9,26.9,80,29c25.7,1.4,33-9.4,59-3c18.3,4.5,18.2,10.8,35,14
	c24.2,4.6,28.2-7.8,61-9c13.8-0.5,37.1,0.8,61,5c12.4,2.2,22.8,4.7,28-1c4.6-5.1,4.5-16.3-1-22c-10.1-10.3-27.8,8.1-53-1
	c-11.2-4-15.5-10.5-30-12c-8.2-0.9-14.6,0.3-18,1c-23.6,4.6-28.6,18.7-40,16c-1.8-0.4-8.6-7.6-22-22c-9.3-10-13.6-14.6-19-14
	c-3.7,0.4-5,3-10,8c-3.5,3.5-17.6,17.5-31,18c-7.9,0.3-13.8-4.1-18-7c-25.4-17.4-62.8-28.8-90-29c-22.9-0.1-22.1,7.8-45,6
	c-25.1-2-31.2-11.9-51-13c-24.3-1.3-28.8,13-58,22c-34.5,10.6-66.8,2.6-110-8c-38.5-9.5-40.6-16.4-63-16c-32.8,0.6-38.5,15.6-70,20
	c-40,5.6-49.9-16-97-21c-38.7-4.1-39.6,9.6-106,19c-29.3,4.1-26.5,1.1-135,4c-61.4,1.7-92.2,2.5-108,5c-42,6.7-67.8,27.4-96,14
	c-10.1-4.8-15.8-11.3-34.5-18.5c-7.8-3-21.7-7.6-41.5-9.5c-40.8-4-50.4,8.8-88,9c-35.1,0.2-36.6-10.9-75.5-13.5
	c-32.2-2.1-50.1,4.2-81,10c-27.3,5.1-89.3,5.6-213.5,6.5c-24.7,0.2-49.6,4.6-74,1c-12.3-1.8-37.5-6.6-41,1c-1.2,2.6,0.9,4.9,1,14
	C-0.6,257-2.2,259.7-1.7,261.9"/>
<g id="Baum">
	<path class="st9" d="M453.5,155.5c-13.8-16.3-21.3-25.2-21.5-37.4c-0.2-8,3-14.4-1-18c-2.9-2.6-6.3-0.8-10-2
		c-12.6-4.1-19.6-40.3-7-67c1.8-3.8,6.2-10.9,15-25c1.3-2.1,2.4-3.9,3.4-5.4c-0.4,0-0.8,0-1.2-0.1c-3.2-0.2-6.4-0.3-9.7-0.4
		c-2,2.6-4.2,5.3-6.5,7.9c-4.9,5.7-9.4,10.2-12,9c-1.8-0.8-2.1-4.2-2-7c0.1-3.5,0.6-6.8,1.4-10.1c-4.5,0.1-9,0.4-13.6,0.4
		c-5.4,0.1-10.8-0.3-16.2-0.6c8.8,28,13,43.2,6.2,49.3c-11.1,10.1-32.8-14.2-72-11c-31.5,2.5-58.2,21.4-57,25c0.8,2.6,16.9-0.3,21-1
		c14-2.5,23.4-6.7,27-8c22.9-8.5,63,3.5,77,28c6.5,11.3,5,28.2,2,62c-0.6,7-1.5,12.3-2.5,16.5c-2.2,9.8-2.6,14.8-3.5,17.3
		c-6.5,16.5-30.1,20.7-29.5,22.8c0.5,1.8,17.2-2.3,28.4-4.1c48-8.1,87,8.5,89.5,1.2c1.2-3.6-7.9-9.2-6.5-11.3
		c1.4-2.2,12.4,3.1,20.1,5.9c28.5,10.6,56.6,5.4,56.9,3c0.3-2.6-32.4-0.8-59.9-23.1C462.8,166.5,457.7,160.4,453.5,155.5z"/>
	<g>
		<g>
			<g>
				<path class="st10" d="M234.8,1.4c-0.2,0.4-0.5,0.7-0.8,1.1l4.7,8.2h9.4l4.7-8.2c-0.3-0.4-0.7-0.7-1-1.1
					C246.1,1.4,240.5,1.4,234.8,1.4z"/>
				<path class="st10" d="M251.5,1.3l0.7,1.2l-4.4,7.8H239l-4.4-7.7l0.8-1.4c-0.4,0-0.8,0-1.2,0l-0.8,1.4l5,8.7h10l5-8.7l-0.6-1.2
					C252.4,1.4,252,1.3,251.5,1.3z"/>
			</g>
			<g>
				<polygon class="st10" points="231.8,19.5 227.1,11.3 231.8,3.2 241.2,3.2 245.9,11.3 241.2,19.5 				"/>
				<path class="st10" d="M240.9,3.7l4.4,7.7l-4.4,7.7h-8.8l-4.4-7.7l4.4-7.7L240.9,3.7 M241.6,2.7h-10l-5,8.7l5,8.7h10l5-8.7
					L241.6,2.7L241.6,2.7z"/>
			</g>
			<g>
				<polygon class="st11" points="258.8,49.5 254.1,41.3 258.8,33.2 268.3,33.2 272.9,41.3 268.3,49.5 				"/>
				<path class="st12" d="M267.9,33.7l4.4,7.7l-4.4,7.7h-8.8l-4.4-7.7l4.4-7.7H267.9 M268.6,32.7h-10l-5,8.7l5,8.7h10l5-8.7
					L268.6,32.7L268.6,32.7z"/>
			</g>
			<g>
				<polygon class="st10" points="211.8,73.5 207.1,65.3 211.8,57.2 221.2,57.2 225.9,65.3 221.2,73.5 				"/>
				<path class="st10" d="M220.9,57.7l4.4,7.7l-4.4,7.7h-8.8l-4.4-7.7l4.4-7.7H220.9 M221.6,56.7h-10l-5,8.7l5,8.7h10l5-8.7
					L221.6,56.7L221.6,56.7z"/>
			</g>
			<g>
				<polygon class="st10" points="262.8,88.5 258.2,80.3 262.8,72.2 272.3,72.2 276.9,80.3 272.3,88.5 				"/>
				<path class="st10" d="M271.9,72.7l4.4,7.7l-4.4,7.7h-8.8l-4.3-7.7l4.4-7.7H271.9 M272.6,71.7h-10l-5,8.7l5,8.7h10l5-8.7
					L272.6,71.7L272.6,71.7z"/>
			</g>
			<g>
				<polygon class="st10" points="296.8,24.5 292.2,16.3 296.8,8.2 306.2,8.2 310.9,16.3 306.2,24.5 				"/>
				<path class="st10" d="M305.9,8.7l4.4,7.7l-4.4,7.7h-8.8l-4.3-7.7l4.4-7.7L305.9,8.7 M306.6,7.7h-10l-5,8.7l5,8.7h10l5-8.7
					L306.6,7.7L306.6,7.7z"/>
			</g>
			<g>
				<polygon class="st10" points="289.8,64.5 285.2,56.3 289.8,48.2 299.2,48.2 303.9,56.3 299.2,64.5 				"/>
				<path class="st10" d="M298.9,48.7l4.4,7.7l-4.4,7.7h-8.8l-4.3-7.7l4.4-7.7L298.9,48.7 M299.6,47.7h-10l-5,8.7l5,8.7h10l5-8.7
					L299.6,47.7L299.6,47.7z"/>
			</g>
			<g>
				<polygon class="st10" points="209.8,40.5 205.1,32.3 209.8,24.2 219.2,24.2 223.9,32.3 219.2,40.5 				"/>
				<path class="st10" d="M218.9,24.7l4.4,7.7l-4.4,7.7h-8.8l-4.4-7.7l4.4-7.7H218.9 M219.6,23.7h-10l-5,8.7l5,8.7h10l5-8.7
					L219.6,23.7L219.6,23.7z"/>
			</g>
			<g>
				<polygon class="st10" points="238.8,63.5 234.1,55.3 238.8,47.2 248.2,47.2 252.9,55.3 248.2,63.5 				"/>
				<path class="st10" d="M247.9,47.7l4.4,7.7l-4.4,7.7h-8.8l-4.4-7.7l4.4-7.7H247.9 M248.6,46.7h-10l-5,8.7l5,8.7h10l5-8.7
					L248.6,46.7L248.6,46.7z"/>
			</g>
			<g>
				<polygon class="st10" points="284.8,24.5 280.2,16.3 284.8,8.2 294.2,8.2 298.9,16.3 294.2,24.5 				"/>
				<path class="st10" d="M293.9,8.7l4.4,7.7l-4.4,7.7h-8.8l-4.3-7.7l4.4-7.7L293.9,8.7 M294.6,7.7h-10l-5,8.7l5,8.7h10l5-8.7
					L294.6,7.7L294.6,7.7z"/>
			</g>
			<g>
				<polygon class="st10" points="255.8,76.5 251.1,68.3 255.8,60.2 265.3,60.2 269.9,68.3 265.3,76.5 				"/>
				<path class="st10" d="M264.9,60.7l4.4,7.7l-4.4,7.7h-8.8l-4.4-7.7l4.4-7.7H264.9 M265.6,59.7h-10l-5,8.7l5,8.7h10l5-8.7
					L265.6,59.7L265.6,59.7z"/>
			</g>
			<g>
				<polygon class="st10" points="231.8,37.5 227.1,29.3 231.8,21.2 241.2,21.2 245.9,29.3 241.2,37.5 				"/>
				<path class="st10" d="M240.9,21.7l4.4,7.7l-4.4,7.7h-8.8l-4.4-7.7l4.4-7.7H240.9 M241.6,20.7h-10l-5,8.7l5,8.7h10l5-8.7
					L241.6,20.7L241.6,20.7z"/>
			</g>
			<g>
				<polygon class="st10" points="255.8,37.5 251.1,29.3 255.8,21.2 265.3,21.2 269.9,29.3 265.3,37.5 				"/>
				<path class="st10" d="M264.9,21.7l4.4,7.7l-4.4,7.7h-8.8l-4.4-7.7l4.4-7.7H264.9 M265.6,20.7h-10l-5,8.7l5,8.7h10l5-8.7
					L265.6,20.7L265.6,20.7z"/>
			</g>
			<g>
				<polygon class="st13" points="270.8,69.5 266.2,61.3 270.8,53.2 280.3,53.2 284.9,61.3 280.3,69.5 				"/>
				<path class="st13" d="M279.9,53.7l4.4,7.7l-4.4,7.7h-8.8l-4.3-7.7l4.4-7.7L279.9,53.7 M280.6,52.7h-10l-5,8.7l5,8.7h10l5-8.7
					L280.6,52.7L280.6,52.7z"/>
			</g>
			<g>
				<polygon class="st13" points="219.8,52.5 215.1,44.3 219.8,36.2 229.2,36.2 233.9,44.3 229.2,52.5 				"/>
				<path class="st13" d="M228.9,36.7l4.4,7.7l-4.4,7.7h-8.8l-4.4-7.7l4.4-7.7H228.9 M229.6,35.7h-10l-5,8.7l5,8.7h10l5-8.7
					L229.6,35.7L229.6,35.7z"/>
			</g>
			<g>
				<polygon class="st13" points="245.8,49.5 241.1,41.3 245.8,33.2 255.3,33.2 259.9,41.3 255.3,49.5 				"/>
				<path class="st13" d="M254.9,33.7l4.4,7.7l-4.4,7.7h-8.8l-4.4-7.7l4.4-7.7H254.9 M255.6,32.7h-10l-5,8.7l5,8.7h10l5-8.7
					L255.6,32.7L255.6,32.7z"/>
			</g>
			<g>
				<polygon class="st13" points="284.8,50.5 280.2,42.3 284.8,34.2 294.2,34.2 298.9,42.3 294.2,50.5 				"/>
				<path class="st13" d="M293.9,34.7l4.4,7.7l-4.4,7.7h-8.8l-4.3-7.7l4.4-7.7H293.9 M294.6,33.7h-10l-5,8.7l5,8.7h10l5-8.7
					L294.6,33.7L294.6,33.7z"/>
			</g>
			<g>
				<polygon class="st13" points="221.8,85.5 217.1,77.3 221.8,69.2 231.2,69.2 235.9,77.3 231.2,85.5 				"/>
				<path class="st13" d="M230.9,69.7l4.4,7.7l-4.4,7.7h-8.8l-4.4-7.7l4.4-7.7H230.9 M231.6,68.7h-10l-5,8.7l5,8.7h10l5-8.7
					L231.6,68.7L231.6,68.7z"/>
			</g>
			<g>
				<polygon class="st13" points="204.8,28.5 200.1,20.3 204.8,12.2 214.2,12.2 218.9,20.3 214.2,28.5 				"/>
				<path class="st13" d="M213.9,12.7l4.4,7.7l-4.4,7.7h-8.8l-4.4-7.7l4.4-7.7L213.9,12.7 M214.6,11.7h-10l-5,8.7l5,8.7h10l5-8.7
					L214.6,11.7L214.6,11.7z"/>
			</g>
			<g>
				<polygon class="st13" points="265.8,28.5 261.2,20.3 265.8,12.2 275.3,12.2 279.9,20.3 275.3,28.5 				"/>
				<path class="st13" d="M274.9,12.7l4.4,7.7l-4.4,7.7h-8.8l-4.3-7.7l4.4-7.7L274.9,12.7 M275.6,11.7h-10l-5,8.7l5,8.7h10l5-8.7
					L275.6,11.7L275.6,11.7z"/>
			</g>
			<g>
				<polygon class="st13" points="221.8,28.5 217.1,20.3 221.8,12.2 231.2,12.2 235.9,20.3 231.2,28.5 				"/>
				<path class="st13" d="M230.9,12.7l4.4,7.7l-4.4,7.7h-8.8l-4.4-7.7l4.4-7.7L230.9,12.7 M231.6,11.7h-10l-5,8.7l5,8.7h10l5-8.7
					L231.6,11.7L231.6,11.7z"/>
			</g>
			<g>
				<polygon class="st13" points="250.8,69.5 246.1,61.3 250.8,53.2 260.3,53.2 264.9,61.3 260.3,69.5 				"/>
				<path class="st13" d="M259.9,53.7l4.4,7.7l-4.4,7.7h-8.8l-4.4-7.7l4.4-7.7L259.9,53.7 M260.6,52.7h-10l-5,8.7l5,8.7h10l5-8.7
					L260.6,52.7L260.6,52.7z"/>
			</g>
			<g>
				<path class="st13" d="M250.8,1.4c-0.3,0-0.7,0-1,0c1,2,2,4,3,6.1h9.4c1.2-2,2.4-4,3.5-6.1C260.8,1.4,255.8,1.4,250.8,1.4z"/>
				<path class="st13" d="M264.8,1.4c-0.9,1.9-1.9,3.8-2.8,5.7h-8.8c-1.1-1.9-2.2-3.8-3.3-5.7c-0.3,0-0.7,0-1,0
					c1.2,2.2,2.5,4.4,3.8,6.7h10c1.1-2.2,2.2-4.4,3.2-6.7C265.5,1.4,265.1,1.4,264.8,1.4z"/>
			</g>
			<g>
				<polygon class="st13" points="299.8,73.5 295.2,65.3 299.8,57.2 309.2,57.2 313.9,65.3 309.2,73.5 				"/>
				<path class="st13" d="M308.9,57.7l4.4,7.7l-4.4,7.7h-8.8l-4.3-7.7l4.4-7.7H308.9 M309.6,56.7h-10l-5,8.7l5,8.7h10l5-8.7
					L309.6,56.7L309.6,56.7z"/>
			</g>
			<g>
				<polygon class="st13" points="248.8,97.5 244.1,89.3 248.8,81.2 258.3,81.2 262.9,89.3 258.3,97.5 				"/>
				<path class="st13" d="M257.9,81.7l4.4,7.7l-4.4,7.7h-8.8l-4.4-7.7l4.4-7.7H257.9 M258.6,80.7h-10l-5,8.7l5,8.7h10l5-8.7
					L258.6,80.7L258.6,80.7z"/>
			</g>
			<g>
				<polygon class="st13" points="270.8,49.5 266.2,41.3 270.8,33.2 280.3,33.2 284.9,41.3 280.3,49.5 				"/>
				<path class="st13" d="M279.9,33.7l4.4,7.7l-4.4,7.7h-8.8l-4.3-7.7l4.4-7.7H279.9 M280.6,32.7h-10l-5,8.7l5,8.7h10l5-8.7
					L280.6,32.7L280.6,32.7z"/>
			</g>
			<g>
				<polygon class="st13" points="245.8,22.5 241.1,14.3 245.8,6.2 255.3,6.2 259.9,14.3 255.3,22.5 				"/>
				<path class="st13" d="M254.9,6.7l4.4,7.7l-4.4,7.7h-8.8l-4.4-7.7l4.4-7.7L254.9,6.7 M255.6,5.7h-10l-5,8.7l5,8.7h10l5-8.7
					L255.6,5.7L255.6,5.7z"/>
			</g>
			<g>
				<path class="st13" d="M210.8,1.4c-1.2,2.3-2.4,4.6-3.7,6.9l4.7,8.2h9.4l4.7-8.2L222,1.5c-1.7,0-3.5,0-5.2-0.1
					C214.8,1.4,212.8,1.4,210.8,1.4z"/>
				<path class="st13" d="M221.4,1.5l3.9,6.8l-4.4,7.7h-8.8l-4.3-7.6l4-7.1c-0.3-0.1-0.7-0.2-1-0.3l-4.2,7.4l5,8.7h10l5-8.7l-4-7
					C222.2,1.4,221.8,1.5,221.4,1.5z"/>
			</g>
			<g>
				<polygon class="st13" points="201.8,64.5 197.1,56.3 201.8,48.2 211.2,48.2 215.9,56.3 211.2,64.5 				"/>
				<path class="st13" d="M210.9,48.7l4.4,7.7l-4.4,7.7h-8.8l-4.4-7.7l4.4-7.7L210.9,48.7 M211.6,47.7h-10l-5,8.7l5,8.7h10l5-8.7
					L211.6,47.7L211.6,47.7z"/>
			</g>
			<g>
				<path class="st13" d="M284.8,1.4c-0.9,1.3-1.8,2.6-2.7,3.9l4.7,8.2h9.4l4.7-8.2c-0.7-1.3-1.4-2.6-2.2-3.9
					C294.1,1.4,289.5,1.4,284.8,1.4z"/>
				<path class="st13" d="M298.8,1.4c0.5,1.3,1,2.6,1.5,4l-4.4,7.7h-8.8l-4.3-7.7c0.7-1.3,1.4-2.6,2-4c-0.3,0-0.7,0-1,0
					c-0.8,1.3-1.5,2.6-2.2,4l5,8.7h10l5-8.7c-0.6-1.3-1.2-2.6-1.8-4C299.5,1.4,299.1,1.4,298.8,1.4z"/>
			</g>
			<g>
				<polygon class="st13" points="306.8,50.5 302.2,42.3 306.8,34.2 316.2,34.2 320.9,42.3 316.2,50.5 				"/>
				<path class="st13" d="M315.9,34.7l4.4,7.7l-4.4,7.7h-8.8l-4.3-7.7l4.4-7.7H315.9 M316.6,33.7h-10l-5,8.7l5,8.7h10l5-8.7
					L316.6,33.7L316.6,33.7z"/>
			</g>
			<g>
				<polygon class="st13" points="284.8,97.5 280.2,89.3 284.8,81.2 294.2,81.2 298.9,89.3 294.2,97.5 				"/>
				<path class="st13" d="M293.9,81.7l4.4,7.7l-4.4,7.7h-8.8l-4.3-7.7l4.4-7.7H293.9 M294.6,80.7h-10l-5,8.7l5,8.7h10l5-8.7
					L294.6,80.7L294.6,80.7z"/>
			</g>
			<g>
				<polygon class="st14" points="275.8,91.5 271.2,83.3 275.8,75.2 285.3,75.2 289.9,83.3 285.3,91.5 				"/>
				<path class="st14" d="M284.9,75.7l4.4,7.7l-4.4,7.7h-8.8l-4.3-7.7l4.4-7.7H284.9 M285.6,74.7h-10l-5,8.7l5,8.7h10l5-8.7
					L285.6,74.7L285.6,74.7z"/>
			</g>
			<g>
				<polygon class="st14" points="233,88.8 228.4,80.7 233,72.8 242.2,72.8 246.8,80.7 242.2,88.8 				"/>
				<path class="st14" d="M241.9,73.2l4.3,7.6l-4.3,7.6h-8.6l-4.3-7.6l4.3-7.6H241.9 M242.6,72.3h-9.8l-4.9,8.5l4.9,8.5h9.8l4.9-8.5
					L242.6,72.3L242.6,72.3z"/>
			</g>
			<g>
				<polygon class="st14" points="223.2,70.1 218.6,62.1 223.2,54.1 232.4,54.1 237,62.1 232.4,70.1 				"/>
				<path class="st14" d="M232.1,54.6l4.3,7.6l-4.3,7.6h-8.6l-4.3-7.6l4.3-7.6H232.1 M232.8,53.6H223l-4.9,8.5l4.9,8.5h9.8l4.9-8.5
					L232.8,53.6L232.8,53.6z"/>
			</g>
			<g>
				<polygon class="st14" points="232,50.5 227.4,42.4 232,34.5 241.2,34.5 245.9,42.4 241.2,50.5 				"/>
				<path class="st14" d="M241,34.9l4.3,7.6l-4.3,7.6h-8.6l-4.3-7.6l4.3-7.6H241 M241.6,34h-9.8l-4.9,8.5l4.9,8.5h9.8l4.9-8.5
					L241.6,34L241.6,34z"/>
			</g>
			<g>
				<polygon class="st14" points="245.8,35.7 241.1,27.7 245.8,19.7 255.1,19.7 259.6,27.7 255.1,35.7 				"/>
				<path class="st14" d="M254.7,20.2l4.3,7.6l-4.3,7.6h-8.6l-4.3-7.6l4.3-7.6H254.7 M255.4,19.2h-9.8l-4.9,8.5l4.9,8.5h9.8l4.9-8.5
					L255.4,19.2L255.4,19.2z"/>
			</g>
			<g>
				<polygon class="st14" points="193.7,50.5 189.1,42.4 193.7,34.5 202.9,34.5 207.6,42.4 202.9,50.5 				"/>
				<path class="st14" d="M202.6,34.9l4.3,7.6l-4.3,7.6H194l-4.3-7.6l4.3-7.6H202.6 M203.3,34h-9.8l-4.9,8.5l4.9,8.5h9.8l4.9-8.5
					L203.3,34L203.3,34z"/>
			</g>
			<g>
				<polygon class="st14" points="279.8,35.5 275.2,27.3 279.8,19.2 289.3,19.2 293.9,27.3 289.3,35.5 				"/>
				<path class="st14" d="M288.9,19.7l4.4,7.7l-4.4,7.7h-8.8l-4.3-7.7l4.4-7.7H288.9 M289.6,18.7h-10l-5,8.7l5,8.7h10l5-8.7
					L289.6,18.7L289.6,18.7z"/>
			</g>
			<g>
				<polygon class="st14" points="292.8,85.5 288.2,77.3 292.8,69.2 302.2,69.2 306.9,77.3 302.2,85.5 				"/>
				<path class="st14" d="M301.9,69.7l4.4,7.7l-4.4,7.7h-8.8l-4.3-7.7l4.4-7.7H301.9 M302.6,68.7h-10l-5,8.7l5,8.7h10l5-8.7
					L302.6,68.7L302.6,68.7z"/>
			</g>
			<g>
				<path class="st14" d="M268.8,1.4c-0.2,0.3-0.4,0.6-0.7,0.9l4.7,8.2h9.4l4.7-8.2c-0.4-0.3-0.8-0.6-1.2-0.9
					C280.1,1.4,274.5,1.4,268.8,1.4z"/>
				<path class="st14" d="M285.8,1.4c0.2,0.3,0.4,0.6,0.5,1l-4.4,7.7h-8.8c-1.5-2.6-2.9-5.1-4.4-7.7c0-0.3,0-0.6,0-1
					c-0.3,0-0.7,0-1,0c-0.1,0.3-0.2,0.6-0.2,1l5,8.7h10l5-8.7c-0.2-0.3-0.5-0.6-0.8-1C286.5,1.4,286.1,1.4,285.8,1.4z"/>
			</g>
			<g>
				<polygon class="st14" points="256.8,55.5 252.1,47.3 256.8,39.2 266.3,39.2 270.9,47.3 266.3,55.5 				"/>
				<path class="st14" d="M265.9,39.7l4.4,7.7l-4.4,7.7h-8.8l-4.4-7.7l4.4-7.7H265.9 M266.6,38.7h-10l-5,8.7l5,8.7h10l5-8.7
					L266.6,38.7L266.6,38.7z"/>
			</g>
			<g>
				<polygon class="st14" points="199.6,23.9 195,15.9 199.6,7.9 208.8,7.9 213.4,15.9 208.8,23.9 				"/>
				<path class="st14" d="M208.5,8.4l4.3,7.6l-4.3,7.6h-8.6l-4.3-7.6l4.3-7.6H208.5 M209.2,7.4h-9.8l-4.9,8.5l4.9,8.5h9.8l4.9-8.5
					L209.2,7.4L209.2,7.4z"/>
			</g>
			<g>
				<polygon class="st14" points="299.8,37.5 295.2,29.3 299.8,21.2 309.2,21.2 313.9,29.3 309.2,37.5 				"/>
				<path class="st14" d="M308.9,21.7l4.4,7.7l-4.4,7.7h-8.8l-4.3-7.7l4.4-7.7H308.9 M309.6,20.7h-10l-5,8.7l5,8.7h10l5-8.7
					L309.6,20.7L309.6,20.7z"/>
			</g>
			<g>
				<polygon class="st14" points="312.8,64.5 308.2,56.3 312.8,48.2 322.2,48.2 326.9,56.3 322.2,64.5 				"/>
				<path class="st14" d="M321.9,48.7l4.4,7.7l-4.4,7.7h-8.8l-4.3-7.7l4.4-7.7L321.9,48.7 M322.6,47.7h-10l-5,8.7l5,8.7h10l5-8.7
					L322.6,47.7L322.6,47.7z"/>
			</g>
			<path class="st15" d="M210.8,1.4"/>
		</g>
	</g>
	<path class="st16" d="M425.4,101.6c-2.2-0.3-3.8,1.8-4,2c-1.5,2-1.5,5,0,7c1.6,2.2,5.1,3.4,7,2c2.1-1.6,1.2-5.3,1-6
		C429.3,106,428.3,102,425.4,101.6z"/>
	<path class="st17" d="M437.5,137.6c-2.9-4.6-7.5-12.1-6-20c0.4-1.9,1.3-4.8,1-9c-0.2-2.8-0.4-5.2-2-7c-2.7-3-6.5-1.2-11-3
		c-4.6-1.9-6.7-6.2-9-11c-4.7-9.8-4.4-19.1-4-28c0.2-4.6,0.6-11.5,3-20c2.5-8.6,5.6-13.7,17-32c1.6-2.6,3.1-4.9,4.4-7
		c-1-0.1-1.9-0.1-2.8-0.1c-2.2,2.9-4.7,6.3-7.6,10.2c-9,12.1-12,16-12,16c-8.9,11.9-8.9,11.8-9,12c-7.4,12.5-6.2,26.5-5,39
		c1,10.6,3.3,18.3,5,24c3.5,11.6,6,19.8,13,28c5.7,6.7,11.7,10.3,18,14c9.2,5.5,19.2,9.3,20,8C451.2,150.4,443.5,147.2,437.5,137.6z
		"/>
	<path class="st16" d="M402,0c-1.5,0-3.1,0.1-4.6,0.2c-0.2,1.7-0.2,3.5,0.1,5.3c0.6,5.8,3,11.2,4,11C402.6,16.3,400.6,9.4,402,0z"/>
	<path class="st18" d="M377.4,140.6c0.6-4.4,1.3-10.5,2-18c0.8-9.7,1.3-14.5,1-19c-0.1-0.9-1.1-15.3-9-27c-12.7-18.8-37.3-22-37-23
		c0.2-0.7,15.1-0.3,28,8c40.4,26,33,111.2,28.7,111.9c-0.4,0.1-2.2-4.2-5.8-12.6C382.1,153.4,379.5,146.6,377.4,140.6z"/>
	<path class="st19" d="M379.4,0.2c-2.1-0.1-4.2-0.2-6.4-0.3c2.2,7.5,4.3,15.1,6.5,22.6c0.3,1.1,1.6,5.4,2,11c0.3,3.5,0.1,5.9,0,7
		c-0.4,3.9-1.2,5.9-1,6c0.3,0.1,4.1-7.3,5-17c0.2-1.6,0.4-4.8,0-9C384.7,13.1,382.5,7.4,379.4,0.2z"/>
	<path class="st20" d="M425.4,102.6c-1.5,0.4-2.3,3-2,5c0.4,2.9,3.2,5.5,5,5c1.4-0.4,2-2.5,2-4C430.4,105.3,427.3,102.1,425.4,102.6
		z"/>
</g>
<g>
	<rect x="37.3" y="160.4" class="st21" width="15.4" height="45.7"/>
	<rect x="37.3" y="107.6" class="st21" width="15.4" height="45.7"/>
	
		<rect x="23.9" y="69.3" transform="matrix(7.676916e-02 -0.997 0.997 7.676916e-02 -33.6079 117.7025)" class="st22" width="45.7" height="15.4"/>
	<path class="st23" d="M63.4,101.2c12.1-5.3,38-6.2,40.9-3.8c2.7,2.2-13.8,8.5-31.2,9.4c-1.5,0.1-12.4,0.6-14.6-1.1
		C56.6,104.2,62.3,101.7,63.4,101.2z"/>
	<path class="st23" d="M60.6,132.3c7.1-9.6,26.9-21.8,30.3-21.1c3.1,0.6-6.9,13-20,21.4c-1.1,0.7-9.4,6-11.9,5.5
		C56.6,137.7,60,133.2,60.6,132.3z"/>
	<path class="st23" d="M64.8,48c9-9.7,32.5-20.8,36-19.7c3.4,1-9.2,13.3-24.8,21c-1.4,0.7-11.1,5.5-13.9,4.8
		C59.7,53.5,63.9,48.9,64.8,48z"/>
	<path class="st23" d="M96.9,79.7c2.3-4.4-18.6-11-38.7-8.5"/>
	<path class="st23" d="M44,104.1c-12.1-5.3-38-6.2-40.9-3.8c-2.7,2.2,13.8,8.5,31.2,9.4c1.5,0.1,12.4,0.6,14.6-1.1
		C50.8,107.1,45.1,104.6,44,104.1z"/>
	<path class="st23" d="M46.8,135.2c-7.1-9.6-26.9-21.8-30.3-21.1c-3.1,0.6,6.9,13,20,21.4c1.1,0.7,9.4,6,11.9,5.5
		C50.8,140.7,47.4,136.1,46.8,135.2z"/>
	<path class="st23" d="M42.6,50.9c-9-9.7-32.5-20.8-36-19.7c-3.4,1,9.2,13.3,24.8,21c1.4,0.7,11.1,5.5,13.9,4.8
		C47.7,56.4,43.5,51.8,42.6,50.9z"/>
	<path class="st23" d="M10.6,82.6c-2.3-4.4,18.6-11,38.7-8.5"/>
</g>
<g>
	<rect x="627.5" y="150.9" class="st21" width="15.4" height="45.7"/>
	<rect x="627.5" y="98" class="st21" width="15.4" height="45.7"/>
	
		<rect x="614" y="59.9" transform="matrix(7.676916e-02 -0.997 0.997 7.676916e-02 520.5389 697.3381)" class="st22" width="45.7" height="15.4"/>
	<path class="st23" d="M653.6,91.6c12.1-5.3,38-6.2,40.9-3.8c2.7,2.2-13.8,8.5-31.2,9.4c-1.5,0.1-12.4,0.6-14.6-1.1
		C646.7,94.6,652.4,92.1,653.6,91.6z"/>
	<path class="st23" d="M640.3,136.2c7.1-9.6,26.9-21.8,30.3-21.1c3.1,0.6-6.9,13-20,21.4c-1.1,0.7-9.4,6-11.9,5.5
		C636.3,141.6,639.7,137.1,640.3,136.2z"/>
	<path class="st23" d="M654.9,38.4c9-9.7,32.5-20.8,36-19.7c3.4,1-9.2,13.3-24.8,21c-1.4,0.7-11.1,5.5-13.9,4.8
		C649.8,43.9,654.1,39.3,654.9,38.4z"/>
	<path class="st23" d="M687,70.1c2.3-4.4-18.6-11-38.7-8.5"/>
	<path class="st23" d="M634.1,94.5c-12.1-5.3-38-6.2-40.9-3.8c-2.7,2.2,13.8,8.5,31.2,9.4c1.5,0.1,12.4,0.6,14.6-1.1
		C641,97.5,635.3,95,634.1,94.5z"/>
	<path class="st23" d="M623.8,161.2c-7.1-9.6-26.9-21.8-30.3-21.1c-3.1,0.6,6.9,13,20,21.4c1.1,0.7,9.4,6,11.9,5.5
		C627.8,166.6,624.4,162.1,623.8,161.2z"/>
	<path class="st23" d="M632.8,41.3c-9-9.7-32.5-20.8-36-19.7c-3.4,1,9.2,13.3,24.8,21c1.4,0.7,11.1,5.5,13.9,4.8
		C637.9,46.8,633.6,42.2,632.8,41.3z"/>
	<path class="st23" d="M600.7,73c-2.3-4.4,18.6-11,38.7-8.5"/>
</g>
<g>
	<rect x="662" y="150.9" class="st21" width="15.4" height="45.7"/>
	<rect x="662" y="98" class="st21" width="15.4" height="45.7"/>
	
		<rect x="657.2" y="42.7" transform="matrix(0.9299 -0.3678 0.3678 0.9299 22.5002 249.1458)" class="st21" width="15.4" height="45.7"/>
	<path class="st23" d="M681.5,83c12.1-5.3,38-6.2,40.9-3.8c2.7,2.2-13.8,8.5-31.2,9.4c-1.5,0.1-12.4,0.6-14.6-1.1
		C674.7,86,680.4,83.5,681.5,83z"/>
	<path class="st23" d="M685.3,122.7c7.1-9.6,26.9-21.8,30.3-21.1c3.1,0.6-6.9,13-20,21.4c-1.1,0.7-9.4,6-11.9,5.5
		C681.3,128.2,684.7,123.6,685.3,122.7z"/>
	<path class="st23" d="M674.9,40.8c9-9.7,32.5-20.8,36-19.7c3.4,1-9.2,13.3-24.8,21c-1.4,0.7-11.1,5.5-13.9,4.8
		C669.8,46.2,674.1,41.7,674.9,40.8z"/>
	<path class="st23" d="M710.8,64.2c2.3-4.4-18.6-11-38.7-8.5"/>
	<path class="st23" d="M668.7,94.5c-12.1-5.3-38-6.2-40.9-3.8c-2.7,2.2,13.8,8.5,31.2,9.4c1.5,0.1,12.4,0.6,14.6-1.1
		C675.5,97.5,669.8,95,668.7,94.5z"/>
	<path class="st23" d="M671.4,125.6c-7.1-9.6-26.9-21.8-30.3-21.1c-3.1,0.6,6.9,13,20,21.4c1.1,0.7,9.4,6,11.9,5.5
		C675.4,131.1,672.1,126.5,671.4,125.6z"/>
	<path class="st23" d="M639.3,41.9c-9-9.7-32.5-20.8-36-19.7c-3.4,1,9.2,13.3,24.8,21c1.4,0.7,11.1,5.5,13.9,4.8
		C644.4,47.4,640.2,42.8,639.3,41.9z"/>
	<path class="st23" d="M635.2,73c-2.3-4.4,18.6-11,38.7-8.5"/>
</g>
<g>
	<rect x="994.3" y="153.2" class="st21" width="15.4" height="45.7"/>
	<rect x="994.3" y="100.4" class="st21" width="15.4" height="45.7"/>
	
		<rect x="980.8" y="62.2" transform="matrix(7.676916e-02 -0.997 0.997 7.676916e-02 856.8717 1065.1696)" class="st22" width="45.7" height="15.4"/>
	<path class="st23" d="M1020.4,94c12.1-5.3,38-6.2,40.9-3.8c2.7,2.2-13.8,8.5-31.2,9.4c-1.5,0.1-12.4,0.6-14.6-1.1
		C1013.5,96.9,1019.3,94.4,1020.4,94z"/>
	<path class="st23" d="M1017.6,125.1c7.1-9.6,26.9-21.8,30.3-21.1c3.1,0.6-6.9,13-20,21.4c-1.1,0.7-9.4,6-11.9,5.5
		C1013.6,130.5,1016.9,126,1017.6,125.1z"/>
	<path class="st23" d="M1021.7,40.8c9-9.7,32.5-20.8,36-19.7c3.4,1-9.2,13.3-24.8,21c-1.4,0.7-11.1,5.5-13.9,4.8
		C1016.6,46.2,1020.9,41.7,1021.7,40.8z"/>
	<path class="st23" d="M1053.8,72.5c2.3-4.4-18.6-11-38.7-8.5"/>
	<path class="st23" d="M1001,96.9c-12.1-5.3-38-6.2-40.9-3.8c-2.7,2.2,13.8,8.5,31.2,9.4c1.5,0.1,12.4,0.6,14.6-1.1
		C1007.8,99.8,1002.1,97.4,1001,96.9z"/>
	<path class="st23" d="M1003.7,128c-7.1-9.6-26.9-21.8-30.3-21.1c-3.1,0.6,6.9,13,20,21.4c1.1,0.7,9.4,6,11.9,5.5
		C1007.7,133.4,1004.4,128.9,1003.7,128z"/>
	<path class="st23" d="M999.6,43.7c-9-9.7-32.5-20.8-36-19.7c-3.4,1,9.2,13.3,24.8,21c1.4,0.7,11.1,5.5,13.9,4.8
		C1004.7,49.1,1000.4,44.6,999.6,43.7z"/>
	<path class="st23" d="M967.5,75.4c-2.3-4.4,18.6-11,38.7-8.5"/>
</g>
<g>
	<rect x="1425.8" y="154" class="st21" width="15.4" height="45.7"/>
	<rect x="1425.8" y="101.1" class="st21" width="15.4" height="45.7"/>
	
		<rect x="1412.2" y="63" transform="matrix(7.676916e-02 -0.997 0.997 7.676916e-02 1254.4288 1496.1099)" class="st22" width="45.7" height="15.4"/>
	<path class="st23" d="M1451.8,94.7c12.1-5.3,38.1-6.2,40.9-3.8c2.7,2.2-13.8,8.5-31.2,9.4c-1.5,0.1-12.4,0.6-14.6-1.1
		C1445,97.7,1450.7,95.2,1451.8,94.7z"/>
	<path class="st23" d="M1449.1,125.8c7.1-9.6,26.9-21.8,30.3-21.1c3.1,0.6-6.9,13-20,21.4c-1.1,0.7-9.4,6-11.9,5.5
		C1445.1,131.3,1448.4,126.7,1449.1,125.8z"/>
	<path class="st23" d="M1453.2,41.5c9-9.7,32.5-20.8,36-19.7c3.4,1-9.2,13.3-24.8,21c-1.4,0.7-11.1,5.5-13.9,4.8
		C1448.1,47,1452.4,42.4,1453.2,41.5z"/>
	<path class="st23" d="M1485.3,73.2c2.3-4.4-18.6-11-38.7-8.5"/>
	<path class="st23" d="M1432.4,97.6c-12.1-5.3-38-6.2-40.9-3.8c-2.7,2.2,13.8,8.5,31.2,9.4c1.5,0.1,12.4,0.6,14.6-1.1
		C1439.3,100.6,1433.6,98.1,1432.4,97.6z"/>
	<path class="st23" d="M1435.2,128.8c-7.1-9.6-26.9-21.8-30.3-21.1c-3.1,0.6,6.9,13,20,21.4c1.1,0.7,9.4,6,11.9,5.5
		C1439.2,134.2,1435.9,129.6,1435.2,128.8z"/>
	<path class="st23" d="M1431.1,44.5c-9-9.7-32.5-20.8-36-19.7c-3.4,1,9.2,13.3,24.8,21c1.4,0.7,11.1,5.5,13.9,4.8
		C1436.2,49.9,1431.9,45.3,1431.1,44.5z"/>
	<path class="st23" d="M1399,76.1c-2.3-4.4,18.6-11,38.7-8.5"/>
</g>
<g>
	<rect x="1857.7" y="150.9" class="st21" width="15.4" height="45.7"/>
	<rect x="1857.7" y="98.1" class="st21" width="15.4" height="45.7"/>
	
		<rect x="1844.1" y="59.9" transform="matrix(7.676916e-02 -0.997 0.997 7.676916e-02 1656.2482 1923.8574)" class="st22" width="45.7" height="15.4"/>
	<path class="st23" d="M1883.8,91.6c12.1-5.3,38-6.2,40.9-3.8c2.7,2.2-13.8,8.5-31.2,9.4c-1.5,0.1-12.4,0.6-14.6-1.1
		C1876.9,94.6,1882.7,92.1,1883.8,91.6z"/>
	<path class="st23" d="M1881,122.8c7.1-9.6,26.9-21.8,30.3-21.1c3.1,0.6-6.9,13-20,21.4c-1.1,0.7-9.4,6-11.9,5.5
		C1877,128.2,1880.4,123.7,1881,122.8z"/>
	<path class="st23" d="M1885.1,38.5c9-9.7,32.5-20.8,36-19.7c3.4,1-9.2,13.3-24.8,21c-1.4,0.7-11.1,5.5-13.9,4.8
		C1880,43.9,1884.3,39.3,1885.1,38.5z"/>
	<path class="st23" d="M1917.2,70.1c2.3-4.4-18.6-11-38.7-8.5"/>
	<path class="st23" d="M1864.4,94.6c-12.1-5.3-38.1-6.2-40.9-3.8c-2.7,2.2,13.8,8.5,31.2,9.4c1.5,0.1,12.4,0.6,14.6-1.1
		C1871.2,97.5,1865.5,95,1864.4,94.6z"/>
	<path class="st23" d="M1867.1,125.7c-7.1-9.6-26.9-21.8-30.3-21.1c-3.1,0.6,6.9,13,20,21.4c1.1,0.7,9.4,6,11.9,5.5
		C1871.1,131.1,1867.8,126.6,1867.1,125.7z"/>
	<path class="st23" d="M1863,41.4c-9-9.7-32.5-20.8-36-19.7c-3.4,1,9.2,13.3,24.8,21c1.4,0.7,11.1,5.5,13.9,4.8
		C1868.1,46.8,1863.8,42.3,1863,41.4z"/>
	<path class="st23" d="M1830.9,73.1c-2.3-4.4,18.6-11,38.7-8.5"/>
</g>
<g>
	<rect x="1817.7" y="144.9" class="st21" width="15.4" height="58.5"/>
	<rect x="1817.7" y="77.2" class="st21" width="15.4" height="58.5"/>
	<polygon class="st21" points="1817.7,68.2 1833,66.6 1829.5,8.3 1814.2,9.8 	"/>
	<path class="st23" d="M1807,69.1c-12.1-6.7-38-7.9-40.9-4.8c-2.7,2.9,13.8,10.9,31.2,12.1c1.5,0.1,12.4,0.8,14.6-1.4
		C1813.8,72.9,1808.1,69.7,1807,69.1z"/>
	<path class="st23" d="M1809.7,108.9c-7.1-12.3-26.9-27.9-30.3-27c-3.1,0.8,6.9,16.7,20,27.4c1.1,0.9,9.4,7.6,11.9,7.1
		C1813.7,115.8,1810.4,110,1809.7,108.9z"/>
	<path class="st23" d="M1790.1-0.2c1.4,1,2.8,2,4.3,2.9c1.4,0.9,11.1,7,13.9,6.1c2.4-0.8-1.9-6.7-2.7-7.8c-0.3-0.4-0.6-0.8-0.9-1.2"
		/>
	<path class="st23" d="M1773.5,41.5c-2.3-5.6,18.6-14.1,38.7-10.8"/>
	<path class="st23" d="M1826.4,72.8c12.1-6.7,38-7.9,40.9-4.8c2.7,2.9-13.8,10.9-31.2,12.1c-1.5,0.1-12.4,0.8-14.6-1.4
		C1819.5,76.6,1825.3,73.4,1826.4,72.8z"/>
	<path class="st23" d="M1823.6,112.6c7.1-12.3,26.9-27.9,30.3-27c3.1,0.8-6.9,16.7-20,27.4c-1.1,0.9-9.4,7.6-11.9,7.1
		C1819.6,119.6,1823,113.7,1823.6,112.6z"/>
	<path class="st23" d="M1847.9-0.2c-2.8,2.3-5.9,4.6-9,6.6c-1.4,0.9-11.1,7-13.9,6.1c-2.4-0.8,1.9-6.7,2.7-7.8
		c1.1-1.5,2.5-3.1,4-4.7"/>
	<path class="st23" d="M1859.8,45.3c2.3-5.6-18.6-14.1-38.7-10.8"/>
</g>
<g>
	<rect x="1464.2" y="142" class="st21" width="15.4" height="58.5"/>
	<rect x="1464.2" y="74.3" class="st21" width="15.4" height="58.5"/>
	<polygon class="st21" points="1464.2,65.2 1479.6,63.7 1476.1,5.4 1460.7,6.9 	"/>
	<path class="st23" d="M1453.5,66.1c-12.1-6.7-38-7.9-40.9-4.8c-2.7,2.9,13.8,10.9,31.2,12.1c1.5,0.1,12.4,0.8,14.6-1.4
		C1460.4,69.9,1454.6,66.8,1453.5,66.1z"/>
	<path class="st23" d="M1456.3,106c-7.1-12.3-26.9-27.9-30.3-27c-3.1,0.8,6.9,16.7,20,27.4c1.1,0.9,9.4,7.6,11.9,7.1
		C1460.3,112.9,1457,107.1,1456.3,106z"/>
	<path class="st23" d="M1420.1,38.6c-2.3-5.6,18.6-14.1,38.7-10.8"/>
	<path class="st23" d="M1472.9,69.9c12.1-6.7,38-7.9,40.9-4.8c2.7,2.9-13.8,10.9-31.2,12.1c-1.5,0.1-12.4,0.8-14.6-1.4
		C1466.1,73.7,1471.8,70.5,1472.9,69.9z"/>
	<path class="st23" d="M1470.2,109.7c7.1-12.3,26.9-27.9,30.3-27c3.1,0.8-6.9,16.7-20,27.4c-1.1,0.9-9.4,7.6-11.9,7.1
		C1466.2,116.7,1469.5,110.8,1470.2,109.7z"/>
	<path class="st23" d="M1506.4,42.3c2.3-5.6-18.6-14.1-38.7-10.8"/>
</g>
<g>
	<rect x="688.2" y="140.8" class="st21" width="15.4" height="58.5"/>
	<rect x="688.2" y="73.1" class="st21" width="15.4" height="58.5"/>
	<polygon class="st21" points="688.2,64 703.5,62.5 700,4.1 684.7,5.6 	"/>
	<path class="st23" d="M677.5,64.9c-12.1-6.7-38-7.9-40.9-4.8c-2.7,2.9,13.8,10.9,31.2,12.1c1.5,0.1,12.4,0.8,14.6-1.4
		C684.3,68.7,678.6,65.5,677.5,64.9z"/>
	<path class="st23" d="M680.2,104.7c-7.1-12.3-26.9-27.9-30.3-27c-3.1,0.8,6.9,16.7,20,27.4c1.1,0.9,9.4,7.6,11.9,7.1
		C684.2,111.7,680.9,105.8,680.2,104.7z"/>
	<path class="st23" d="M667-0.2c3.4,2,9.6,5.5,11.8,4.8c1.4-0.5,0.5-2.8-0.7-4.8"/>
	<path class="st23" d="M644,37.4c-2.3-5.6,18.6-14.1,38.7-10.8"/>
	<path class="st23" d="M696.9,68.6c12.1-6.7,38-7.9,40.9-4.8c2.7,2.9-13.8,10.9-31.2,12.1c-1.5,0.1-12.4,0.8-14.6-1.4
		C690,72.4,695.8,69.2,696.9,68.6z"/>
	<path class="st23" d="M694.1,108.4c7.1-12.3,26.9-27.9,30.3-27c3.1,0.8-6.9,16.7-20,27.4c-1.1,0.9-9.4,7.6-11.9,7.1
		C690.1,115.4,693.5,109.6,694.1,108.4z"/>
	<path class="st23" d="M709.4,2.2c-1.4,0.9-11.1,7-13.9,6.1c-2.4-0.8,1.9-6.6,2.7-7.8c0.4-0.6,0.8-1.1,1.3-1.7"/>
	<path class="st23" d="M730.3,41.1c2.3-5.6-18.6-14.1-38.7-10.8"/>
</g>
<g>
	<rect x="89.2" y="156" class="st21" width="15.4" height="58.5"/>
	<rect x="89.2" y="88.3" class="st21" width="15.4" height="58.5"/>
	<polygon class="st21" points="89.2,79.2 104.6,77.7 101.1,19.3 85.7,20.8 	"/>
	<path class="st23" d="M78.5,80.1c-12.1-6.7-38-7.9-40.9-4.8c-2.7,2.9,13.8,10.9,31.2,12.1c1.5,0.1,12.4,0.8,14.6-1.4
		C85.4,83.9,79.6,80.7,78.5,80.1z"/>
	<path class="st23" d="M81.3,119.9C74.2,107.6,54.4,92,51,92.9c-3.1,0.8,6.9,16.7,20,27.4c1.1,0.9,9.4,7.6,11.9,7.1
		C85.3,126.9,81.9,121,81.3,119.9z"/>
	<path class="st23" d="M49.2-0.1C53.7,4.6,59.6,9.6,66,13.7c1.4,0.9,11.1,7,13.9,6.1c2.4-0.8-1.9-6.7-2.7-7.8
		c-3-4.1-7.5-8.4-12.4-12.2"/>
	<path class="st23" d="M45.1,52.6C42.8,47,63.7,38.4,83.8,41.7"/>
	<path class="st23" d="M97.9,83.8c12.1-6.7,38-7.9,40.9-4.8c2.7,2.9-13.8,10.9-31.2,12.1c-1.5,0.1-12.4,0.8-14.6-1.4
		C91.1,87.6,96.8,84.4,97.9,83.8z"/>
	<path class="st23" d="M95.2,123.6c7.1-12.3,26.9-27.9,30.3-27c3.1,0.8-6.9,16.7-20,27.4c-1.1,0.9-9.4,7.6-11.9,7.1
		C91.2,130.6,94.5,124.8,95.2,123.6z"/>
	<path class="st23" d="M130.7-0.1c-4.7,5.5-12,12.3-20.2,17.5c-1.4,0.9-11.1,7-13.9,6.1c-2.4-0.8,1.9-6.6,2.7-7.8
		c4-5.4,10.7-11.2,17.3-15.9"/>
	<path class="st23" d="M131.4,56.3c2.3-5.6-18.6-14.1-38.7-10.8"/>
</g>
<rect x="198.4" y="160.4" class="st24" width="15" height="45.7"/>
<rect x="193.8" y="108.3" transform="matrix(0.9875 -0.1574 0.1574 0.9875 -18.1337 33.3194)" class="st25" width="15" height="45.7"/>
<rect x="182.2" y="56.6" transform="matrix(0.9686 -0.2486 0.2486 0.9686 -13.7963 49.6546)" class="st26" width="15" height="45.7"/>
<rect x="160.5" y="9.5" transform="matrix(0.866 -0.5 0.5 0.866 6.3334 88.3341)" class="st27" width="15" height="45.7"/>
<path class="st28" d="M222.2,155.1c-1.7-1.1,0-9.2,4.7-14.8c9.2-10.8,27.8-10,28.4-7.7c0.5,1.6-8,3.1-20.7,13
	C227,151.6,223.7,156,222.2,155.1z"/>
<path class="st28" d="M184.9,121.9c-1.3-1.3-8.5,2.4-13,8.3c-5.9,7.6-6.7,18.2-4.7,19c1.4,0.6,4.6-4.2,10.1-12.4
	C182.3,129,186.2,123.2,184.9,121.9z"/>
<path class="st28" d="M214.5,114.8c-2.3-1.4-0.5-14.1,7.7-18.4c5.2-2.7,12.3-1.7,13,0.6c0.3,0.9-0.4,2-10.1,10.1
	C215.7,115,215,115.1,214.5,114.8z"/>
<path class="st28" d="M170.4,55.9c0.3-1.7-6.3-7.2-12.9-9.2c-12.8-3.8-23.2,6.4-22,8.6c0.8,1.5,6.8-1.7,21.1-0.4
	C165.3,55.6,170.2,57.4,170.4,55.9z"/>
<path class="st28" d="M152.7,16.4c2.6-3.3-4.7-6.7-17.5,1.2c-8.1,5-17.4,13.9-17.6,15.8c-0.1,0.8,1.3,0.4,17.6-7.7
	C151.2,17.8,152.2,17,152.7,16.4z"/>
<path class="st28" d="M170.7,53c2-1.4,0.4-14.1-6.6-18.4c-4.4-2.7-10.5-1.7-11.1,0.6c-0.3,0.9,0.4,2,8.6,10.1
	C169.7,53.2,170.3,53.3,170.7,53z"/>
<path class="st28" d="M207.7,22.2c-1.3-1.3-8.5,2.4-13,8.3c-5.9,7.6-6.7,18.2-4.7,19c1.4,0.6,4.6-4.2,10.1-12.4
	C205.1,29.3,208.9,23.5,207.7,22.2z"/>
<path class="st28" d="M221,38.5c-0.4-1.9-8.4-2.8-15.4-0.5c-9.2,3-15.7,11.3-14.6,13c0.9,1.3,6.2-0.9,15.3-4.6
	C214.9,42.9,221.4,40.3,221,38.5z"/>
<path class="st28" d="M199,173.3c-1-1.6-9.8-5.1-16.5-5.7c-8.6-0.8-12.7,3.4-10.9,5.1c1.4,1.3,6.2,1.5,14.6,1.7
	C194,174.6,199.9,174.8,199,173.3z"/>
<rect x="648.7" y="160.4" class="st24" width="15" height="45.7"/>
<rect x="644" y="108.2" transform="matrix(0.9875 -0.1574 0.1574 0.9875 -12.5061 104.1791)" class="st25" width="15" height="45.7"/>
<rect x="632.4" y="56.5" transform="matrix(0.9686 -0.2486 0.2486 0.9686 0.3625 161.5713)" class="st26" width="15" height="45.7"/>
<rect x="610.7" y="9.4" transform="matrix(0.866 -0.5 0.5 0.866 66.6975 313.4156)" class="st27" width="15" height="45.7"/>
<path class="st28" d="M672.5,155c-1.7-1.1,0-9.2,4.7-14.8c9.2-10.8,27.8-10,28.4-7.7c0.5,1.6-8,3.1-20.7,13
	C677.2,151.5,673.9,155.9,672.5,155z"/>
<path class="st28" d="M635.1,121.8c-1.3-1.3-8.5,2.4-13,8.3c-5.9,7.6-6.7,18.2-4.7,19c1.4,0.6,4.6-4.2,10.1-12.4
	C632.5,128.9,636.4,123.1,635.1,121.8z"/>
<path class="st28" d="M664.8,114.7c-2.3-1.4-0.5-14.1,7.7-18.4c5.2-2.7,12.3-1.7,13,0.6c0.3,0.9-0.4,2-10.1,10.1
	C665.9,114.9,665.2,115,664.8,114.7z"/>
<path class="st28" d="M620.7,55.8c0.3-1.7-6.3-7.2-12.9-9.2c-12.8-3.8-23.2,6.4-22,8.6c0.8,1.5,6.8-1.7,21.1-0.4
	C615.5,55.5,620.5,57.3,620.7,55.8z"/>
<path class="st28" d="M620.9,52.9c2-1.4,0.4-14.1-6.6-18.4c-4.4-2.7-10.5-1.7-11.1,0.6c-0.3,0.9,0.4,2,8.6,10.1
	C619.9,53.1,620.5,53.2,620.9,52.9z"/>
<path class="st28" d="M657.9,22.1c-1.3-1.3-8.5,2.4-13,8.3c-5.9,7.6-6.7,18.2-4.7,19c1.4,0.6,4.6-4.2,10.1-12.4
	C655.3,29.2,659.2,23.4,657.9,22.1z"/>
<path class="st28" d="M671.3,38.5c-0.4-1.9-8.4-2.8-15.4-0.5c-9.2,3-15.7,11.3-14.6,13c0.9,1.3,6.2-0.9,15.3-4.6
	C665.1,42.9,671.6,40.2,671.3,38.5z"/>
<path class="st28" d="M649.2,173.2c-1-1.6-9.8-5.1-16.5-5.7c-8.6-0.8-12.7,3.4-10.9,5.1c1.4,1.3,6.2,1.5,14.6,1.7
	C644.3,174.5,650.2,174.7,649.2,173.2z"/>
<rect x="824.7" y="160.1" class="st24" width="15" height="45.7"/>
<rect x="814" y="123.3" transform="matrix(0.1574 -0.9875 0.9875 0.1574 575.9055 936.6104)" class="st25" width="45.7" height="15"/>
<rect x="825.6" y="71.5" transform="matrix(0.2486 -0.9686 0.9686 0.2486 561.0155 881.1056)" class="st26" width="45.7" height="15"/>
<rect x="847.2" y="24.5" transform="matrix(0.5 -0.866 0.866 0.5 407.2889 769.4893)" class="st27" width="45.7" height="15"/>
<path class="st28" d="M815.9,154.7c1.7-1.1,0-9.2-4.7-14.8c-9.2-10.8-27.8-10-28.4-7.7c-0.5,1.6,8,3.1,20.7,13
	C811.1,151.2,814.4,155.7,815.9,154.7z"/>
<path class="st28" d="M853.2,121.6c1.3-1.3,8.5,2.4,13,8.3c5.9,7.6,6.7,18.2,4.7,19c-1.4,0.6-4.6-4.2-10.1-12.4
	C855.8,128.6,851.9,122.8,853.2,121.6z"/>
<path class="st28" d="M823.6,114.4c2.3-1.4,0.5-14.1-7.7-18.4c-5.2-2.7-12.3-1.7-13,0.6c-0.3,0.9,0.4,2,10.1,10.1
	C822.4,114.6,823.1,114.7,823.6,114.4z"/>
<path class="st28" d="M867.6,55.5c-0.3-1.7,6.3-7.2,12.9-9.2c12.8-3.8,23.2,6.4,22,8.6c-0.8,1.5-6.8-1.7-21.1-0.4
	C872.8,55.2,867.8,57,867.6,55.5z"/>
<path class="st28" d="M867.4,52.6c-2-1.4-0.4-14.1,6.6-18.4c4.4-2.7,10.5-1.7,11.1,0.6c0.3,0.9-0.4,2-8.6,10.1
	C868.4,52.8,867.8,52.9,867.4,52.6z"/>
<path class="st28" d="M830.4,21.8c1.3-1.3,8.5,2.4,13,8.3c5.9,7.6,6.7,18.2,4.7,19c-1.4,0.6-4.6-4.2-10.1-12.4
	C833,28.9,829.1,23.1,830.4,21.8z"/>
<path class="st28" d="M817.1,38.2c0.4-1.9,8.4-2.8,15.4-0.5c9.2,3,15.7,11.3,14.6,13c-0.9,1.3-6.2-0.9-15.3-4.6
	C823.2,42.6,816.7,39.9,817.1,38.2z"/>
<path class="st28" d="M839.1,172.9c1-1.6,9.8-5.1,16.5-5.7c8.6-0.8,12.7,3.4,10.9,5.1c-1.4,1.3-6.2,1.5-14.6,1.7
	C844,174.3,838.1,174.4,839.1,172.9z"/>
<rect x="427.7" y="155.2" class="st24" width="15" height="47.6"/>
<polygon class="st24" points="435.9,98.9 450.7,101.4 443.5,148.4 428.7,145.9 "/>
<polygon class="st24" points="449.9,40.4 464.4,44.2 453.1,90.4 438.5,86.5 "/>
<polyline class="st24" points="491.1,-0.4 468.2,40.9 455.2,33 474.2,-1.2 "/>
<path class="st28" d="M418.9,144.2c1.7-1.1,0-9.6-4.7-15.4c-9.2-11.3-27.8-10.5-28.4-8c-0.5,1.7,8,3.3,20.7,13.6
	C414.2,140.6,417.5,145.1,418.9,144.2z"/>
<path class="st28" d="M456.3,109.6c1.3-1.4,8.5,2.5,13,8.6c5.9,8,6.7,18.9,4.7,19.7c-1.4,0.6-4.6-4.4-10.1-13
	C458.9,117,455,110.9,456.3,109.6z"/>
<path class="st28" d="M426.6,102.2c2.3-1.4,0.5-14.7-7.7-19.1c-5.2-2.8-12.3-1.8-13,0.6c-0.3,1,0.4,2.1,10.1,10.5
	C425.5,102.4,426.2,102.5,426.6,102.2z"/>
<path class="st28" d="M470.7,40.9c-0.3-1.8,6.3-7.5,12.9-9.5c12.8-3.9,23.2,6.7,22,8.9c-0.8,1.6-6.8-1.7-21.1-0.5
	C475.9,40.6,470.9,42.4,470.7,40.9z"/>
<path class="st28" d="M470.5,37.8c-2-1.4-0.4-14.7,6.6-19.1c4.4-2.8,10.5-1.8,11.1,0.6c0.3,1-0.4,2.1-8.6,10.5
	C471.5,38,470.9,38.1,470.5,37.8z"/>
<path class="st28" d="M433.5,5.8c1.3-1.4,8.5,2.5,13,8.6c5.9,8,6.7,18.9,4.7,19.7c-1.4,0.6-4.6-4.4-10.1-13
	C436.1,13.2,432.2,7.1,433.5,5.8z"/>
<path class="st28" d="M420.1,22.8c0.4-1.9,8.4-2.9,15.4-0.5c9.2,3.1,15.7,11.7,14.6,13.5c-0.9,1.4-6.2-0.9-15.3-4.8
	C426.3,27.4,419.8,24.6,420.1,22.8z"/>
<path class="st28" d="M442.2,163.1c1-1.6,9.8-5.3,16.5-6c8.6-0.8,12.7,3.5,10.9,5.3c-1.4,1.4-6.2,1.5-14.6,1.8
	C447.1,164.5,441.2,164.7,442.2,163.1z"/>
<rect x="1235.2" y="147" class="st24" width="15" height="47.6"/>
<polygon class="st24" points="1243.5,91.7 1258.4,94.2 1251.2,141.2 1236.3,138.8 "/>
<polygon class="st24" points="1257.3,37.6 1271.9,41.5 1260.5,87.6 1246,83.7 "/>
<polyline class="st24" points="1296.9,-0.2 1275.7,38.1 1262.7,30.3 1279.6,-0.2 "/>
<path class="st28" d="M1226.4,141.5c1.7-1.1,0-9.6-4.7-15.4c-9.2-11.3-27.8-10.5-28.4-8c-0.5,1.7,8,3.3,20.7,13.6
	C1221.7,137.8,1224.9,142.4,1226.4,141.5z"/>
<path class="st28" d="M1263.7,106.9c1.3-1.4,8.5,2.5,13,8.6c5.9,8,6.7,18.9,4.7,19.7c-1.4,0.6-4.6-4.4-10.1-13
	C1266.3,114.3,1262.4,108.2,1263.7,106.9z"/>
<path class="st28" d="M1234.1,99.5c2.3-1.4,0.5-14.7-7.7-19.1c-5.2-2.8-12.3-1.8-13,0.6c-0.3,1,0.4,2.1,10.1,10.5
	C1232.9,99.7,1233.6,99.8,1234.1,99.5z"/>
<path class="st28" d="M1278.2,38.1c-0.3-1.8,6.3-7.5,12.9-9.5c12.8-3.9,23.2,6.7,22,8.9c-0.8,1.6-6.8-1.7-21.1-0.5
	C1283.3,37.8,1278.4,39.7,1278.2,38.1z"/>
<path class="st28" d="M1277.9,35.1c-2-1.4-0.4-14.7,6.6-19.1c4.4-2.8,10.5-1.8,11.1,0.6c0.3,1-0.4,2.1-8.6,10.5
	C1278.9,35.3,1278.3,35.4,1277.9,35.1z"/>
<path class="st28" d="M1241,3c1.3-1.4,8.5,2.5,13,8.6c5.9,8,6.7,18.9,4.7,19.7c-1.4,0.6-4.6-4.4-10.1-13
	C1243.5,10.4,1239.7,4.3,1241,3z"/>
<path class="st28" d="M1227.6,20.1c0.4-1.9,8.4-2.9,15.4-0.5c9.2,3.1,15.7,11.7,14.6,13.5c-0.9,1.4-6.2-0.9-15.3-4.8
	C1233.7,24.6,1227.2,21.9,1227.6,20.1z"/>
<path class="st28" d="M1249.6,160.4c1-1.6,9.8-5.3,16.5-6c8.6-0.8,12.7,3.5,10.9,5.3c-1.4,1.4-6.2,1.5-14.6,1.8
	C1254.6,161.8,1248.7,161.9,1249.6,160.4z"/>
<rect x="1483" y="155.7" class="st24" width="15" height="47.6"/>
<polygon class="st24" points="1491.4,100.4 1506.2,102.9 1499,149.9 1484.2,147.4 "/>
<polygon class="st24" points="1505.2,46.3 1519.7,50.2 1508.4,96.3 1493.8,92.4 "/>
<polygon class="st24" points="1533.4,-2.2 1546.4,5.6 1523.5,46.8 1510.5,39 "/>
<path class="st28" d="M1474.2,150.1c1.7-1.1,0-9.6-4.7-15.4c-9.2-11.3-27.8-10.5-28.4-8c-0.5,1.7,8,3.3,20.7,13.6
	C1469.5,146.5,1472.8,151.1,1474.2,150.1z"/>
<path class="st28" d="M1511.5,115.6c1.3-1.4,8.5,2.5,13,8.6c5.9,8,6.7,18.9,4.7,19.7c-1.4,0.6-4.6-4.4-10.1-13
	C1514.1,123,1510.3,116.9,1511.5,115.6z"/>
<path class="st28" d="M1481.9,108.2c2.3-1.4,0.5-14.7-7.7-19.1c-5.2-2.8-12.3-1.8-13,0.6c-0.3,1,0.4,2.1,10.1,10.5
	C1480.8,108.4,1481.5,108.4,1481.9,108.2z"/>
<path class="st28" d="M1526,46.8c-0.3-1.8,6.3-7.5,12.9-9.5c12.8-3.9,23.2,6.7,22,8.9c-0.8,1.6-6.8-1.7-21.1-0.5
	C1531.2,46.5,1526.2,48.4,1526,46.8z"/>
<path class="st28" d="M1525.8,43.8c-2-1.4-0.4-14.7,6.6-19.1c4.4-2.8,10.5-1.8,11.1,0.6c0.3,1-0.4,2.1-8.6,10.5
	C1526.8,44,1526.1,44.1,1525.8,43.8z"/>
<path class="st28" d="M1488.8,11.7c1.3-1.4,8.5,2.5,13,8.6c5.9,8,6.7,18.9,4.7,19.7c-1.4,0.6-4.6-4.4-10.1-13
	C1491.4,19.1,1487.5,13,1488.8,11.7z"/>
<path class="st28" d="M1475.4,28.7c0.4-1.9,8.4-2.9,15.4-0.5c9.2,3.1,15.7,11.7,14.6,13.5c-0.9,1.4-6.2-0.9-15.3-4.8
	C1481.6,33.3,1475.1,30.6,1475.4,28.7z"/>
<path class="st28" d="M1497.5,169.1c1-1.6,9.8-5.3,16.5-6c8.6-0.8,12.7,3.5,10.9,5.3c-1.4,1.4-6.2,1.5-14.6,1.8
	C1502.4,170.5,1496.5,170.6,1497.5,169.1z"/>
<rect x="1221.2" y="147.8" class="st24" width="15" height="47.6"/>
<polygon class="st24" points="1227.8,92.5 1213,95 1220.2,142 1235,139.5 "/>
<polygon class="st24" points="1214,38.4 1199.5,42.3 1210.8,88.4 1225.4,84.5 "/>
<polyline class="st24" points="1174,-0.2 1195.7,38.9 1208.7,31.1 1191.3,-0.2 "/>
<path class="st28" d="M1245,142.2c-1.7-1.1,0-9.6,4.7-15.4c9.2-11.3,27.8-10.5,28.4-8c0.5,1.7-8,3.3-20.7,13.6
	C1249.7,138.6,1246.4,143.2,1245,142.2z"/>
<path class="st28" d="M1207.6,107.7c-1.3-1.4-8.5,2.5-13,8.6c-5.9,8-6.7,18.9-4.7,19.7c1.4,0.6,4.6-4.4,10.1-13
	C1205,115,1208.9,109,1207.6,107.7z"/>
<path class="st28" d="M1237.3,100.3c-2.3-1.4-0.5-14.7,7.7-19.1c5.2-2.8,12.3-1.8,13,0.6c0.3,1-0.4,2.1-10.1,10.5
	C1238.4,100.4,1237.7,100.5,1237.3,100.3z"/>
<path class="st28" d="M1193.2,38.9c0.3-1.8-6.3-7.5-12.9-9.5c-12.8-3.9-23.2,6.7-22,8.9c0.8,1.6,6.8-1.7,21.1-0.5
	C1188,38.6,1193,40.4,1193.2,38.9z"/>
<path class="st28" d="M1193.4,35.9c2-1.4,0.4-14.7-6.6-19.1c-4.4-2.8-10.5-1.8-11.1,0.6c-0.3,1,0.4,2.1,8.6,10.5
	C1192.4,36.1,1193,36.1,1193.4,35.9z"/>
<path class="st28" d="M1230.4,3.8c-1.3-1.4-8.5,2.5-13,8.6c-5.9,8-6.7,18.9-4.7,19.7c1.4,0.6,4.6-4.4,10.1-13
	C1227.8,11.2,1231.7,5.1,1230.4,3.8z"/>
<path class="st28" d="M1243.7,20.8c-0.4-1.9-8.4-2.9-15.4-0.5c-9.2,3.1-15.7,11.7-14.6,13.5c0.9,1.4,6.2-0.9,15.3-4.8
	C1237.6,25.4,1244.1,22.7,1243.7,20.8z"/>
<path class="st28" d="M1221.7,161.2c-1-1.6-9.8-5.3-16.5-6c-8.6-0.8-12.7,3.5-10.9,5.3c1.4,1.4,6.2,1.5,14.6,1.8
	C1216.8,162.5,1222.7,162.7,1221.7,161.2z"/>
<rect x="1898.2" y="154.3" class="st24" width="15" height="47.6"/>
<polygon class="st24" points="1904.8,99 1890,101.5 1897.2,148.5 1912,146 "/>
<polygon class="st24" points="1891,44.9 1876.5,48.8 1887.8,94.9 1902.4,91 "/>
<polygon class="st24" points="1862.8,-3.6 1849.8,4.2 1872.6,45.4 1885.7,37.6 "/>
<path class="st28" d="M1924.1,148c-1,0.8-1.6,1-2.1,0.7c-1.2-0.8-0.7-5.5,1.5-10.2"/>
<path class="st28" d="M1884.6,114.2c-1.3-1.4-8.5,2.5-13,8.6c-5.9,8-6.7,18.9-4.7,19.7c1.4,0.6,4.6-4.4,10.1-13
	C1882,121.5,1885.9,115.5,1884.6,114.2z"/>
<path class="st28" d="M1924.8,98.8c-9.4,8.2-10.1,8.2-10.6,8c-2.3-1.4-0.5-14.7,7.7-19.1c0.7-0.4,1.5-0.7,2.2-0.9"/>
<path class="st28" d="M1870.2,45.4c0.3-1.8-6.3-7.5-12.9-9.5c-12.8-3.9-23.2,6.7-22,8.9c0.8,1.6,6.8-1.7,21.1-0.5
	C1865,45.1,1870,47,1870.2,45.4z"/>
<path class="st28" d="M1870.4,42.4c2-1.4,0.4-14.7-6.6-19.1c-4.4-2.8-10.5-1.8-11.1,0.6c-0.3,1,0.4,2.1,8.6,10.5
	C1869.4,42.6,1870,42.7,1870.4,42.4z"/>
<path class="st28" d="M1907.4,10.3c-1.3-1.4-8.5,2.5-13,8.6c-5.9,8-6.7,18.9-4.7,19.7c1.4,0.6,4.6-4.4,10.1-13
	C1904.8,17.7,1908.7,11.6,1907.4,10.3z"/>
<path class="st28" d="M1920.7,27.3c-0.4-1.9-8.4-2.9-15.4-0.5c-9.2,3.1-15.7,11.7-14.6,13.5c0.9,1.4,6.2-0.9,15.3-4.8
	C1914.6,31.9,1921.1,29.2,1920.7,27.3z"/>
<path class="st28" d="M1898.7,167.7c-1-1.6-9.8-5.3-16.5-6c-8.6-0.8-12.7,3.5-10.9,5.3c1.4,1.4,6.2,1.5,14.6,1.8
	C1893.8,169.1,1899.7,169.2,1898.7,167.7z"/>
<rect x="111.3" y="180.8" class="st29" width="12.9" height="29"/>
<rect x="111" y="145.4" class="st29" width="13.2" height="29.8"/>
<rect x="410.4" y="170.6" class="st29" width="12.9" height="29"/>
<rect x="410.1" y="135.3" class="st29" width="13.2" height="29.8"/>
<rect x="708.2" y="178.5" transform="matrix(3.808403e-02 -0.9993 0.9993 3.808403e-02 510.372 900.1127)" class="st30" width="29" height="12.9"/>
<rect x="710" y="144.3" transform="matrix(0.1574 -0.9875 0.9875 0.1574 461.8157 842.9989)" class="st31" width="29.8" height="13.2"/>
<rect x="840.9" y="187.2" transform="matrix(3.808403e-02 -0.9993 0.9993 3.808403e-02 629.3334 1041.0825)" class="st30" width="29" height="12.9"/>
<rect x="842.8" y="152.9" transform="matrix(0.1574 -0.9875 0.9875 0.1574 565.2162 981.3898)" class="st31" width="29.8" height="13.2"/>
<rect x="1219.8" y="181.9" transform="matrix(3.808403e-02 -0.9993 0.9993 3.808403e-02 999.1042 1414.621)" class="st30" width="29" height="12.9"/>
<rect x="1221.5" y="147.5" transform="matrix(0.1574 -0.9875 0.9875 0.1574 889.5783 1350.897)" class="st31" width="29.8" height="13.2"/>
<rect x="1645" y="170.6" class="st29" width="12.9" height="29"/>
<rect x="1645" y="136.3" class="st29" width="12.9" height="29"/>
<rect x="1645" y="99.3" class="st29" width="12.9" height="29"/>
<rect x="1650" y="180.4" transform="matrix(0.3352 -0.9422 0.9422 0.3352 930.498 1692.4364)" class="st32" width="29" height="12.9"/>
<rect x="1662.3" y="149.7" transform="matrix(0.3352 -0.9422 0.9422 0.3352 967.6127 1683.6331)" class="st32" width="29" height="12.9"/>
<rect x="1679.8" y="118.7" transform="matrix(0.5746 -0.8184 0.8184 0.5746 618.2881 1439.9449)" class="st31" width="29" height="12.9"/>
<rect x="1645" y="62.8" class="st29" width="12.9" height="29"/>
<rect x="1839.9" y="195.9" class="st29" width="12.9" height="29"/>
<rect x="1839.9" y="161.6" class="st29" width="12.9" height="29"/>
<rect x="1783" y="171.6" class="st29" width="12.9" height="29"/>
<rect x="1783" y="137.3" class="st29" width="12.9" height="29"/>
<rect x="1879.2" y="189.5" class="st29" width="12.9" height="29"/>
<rect x="1879.2" y="155.2" class="st29" width="12.9" height="29"/>
<rect x="1688" y="204.5" class="st29" width="12.9" height="29"/>
<rect x="1688" y="170.2" class="st29" width="12.9" height="29"/>
<rect x="1394.5" y="198.3" class="st29" width="12.9" height="29"/>
<rect x="1394.5" y="164" class="st29" width="12.9" height="29"/>
<rect x="1369.3" y="181.1" class="st29" width="12.9" height="29"/>
<rect x="1369.3" y="146.8" class="st29" width="12.9" height="29"/>
<rect x="1341.3" y="195.7" class="st29" width="12.9" height="29"/>
<rect x="1341.3" y="161.4" class="st29" width="12.9" height="29"/>
<rect x="1182.4" y="182.6" class="st29" width="12.9" height="29"/>
<rect x="1182.4" y="148.3" class="st29" width="12.9" height="29"/>
<rect x="1156.2" y="173.4" class="st29" width="12.9" height="29"/>
<rect x="1156.2" y="139.1" class="st29" width="12.9" height="29"/>
<rect x="1095.5" y="168.9" class="st29" width="12.9" height="29"/>
<rect x="1095.5" y="134.6" class="st29" width="12.9" height="29"/>
<rect x="745.8" y="196.3" class="st29" width="12.9" height="29"/>
<rect x="745.8" y="162" class="st29" width="12.9" height="29"/>
<rect x="776.2" y="182.6" class="st29" width="12.9" height="29"/>
<rect x="776.2" y="148.3" class="st29" width="12.9" height="29"/>
<rect x="888.7" y="193.7" class="st29" width="12.9" height="29"/>
<rect x="888.7" y="159.4" class="st29" width="12.9" height="29"/>
<rect x="906.8" y="171.5" class="st29" width="12.9" height="29"/>
<rect x="906.8" y="137.2" class="st29" width="12.9" height="29"/>
<rect x="933.3" y="173.3" class="st29" width="12.9" height="29"/>
<rect x="933.3" y="139" class="st29" width="12.9" height="29"/>
<rect x="963" y="191" class="st29" width="12.9" height="29"/>
<rect x="963" y="156.8" class="st29" width="12.9" height="29"/>
<rect x="676.3" y="208.8" class="st29" width="12.9" height="29"/>
<rect x="676.3" y="174.5" class="st29" width="12.9" height="29"/>
<rect x="586.5" y="177.1" class="st29" width="12.9" height="29"/>
<rect x="586.5" y="142.8" class="st29" width="12.9" height="29"/>
<rect x="534.2" y="184.3" class="st29" width="12.9" height="29"/>
<rect x="534.2" y="150" class="st29" width="12.9" height="29"/>
<rect x="482" y="173.6" class="st29" width="12.9" height="29"/>
<rect x="482" y="139.3" class="st29" width="12.9" height="29"/>
<rect x="296.3" y="187.8" class="st29" width="12.9" height="29"/>
<rect x="296.3" y="153.5" class="st29" width="12.9" height="29"/>
<rect x="274.1" y="177.2" class="st29" width="12.9" height="29"/>
<rect x="274.1" y="142.9" class="st29" width="12.9" height="29"/>
<rect x="321.1" y="174.5" class="st29" width="12.9" height="29"/>
<rect x="321.1" y="140.2" class="st29" width="12.9" height="29"/>
<rect x="139.1" y="194.3" class="st29" width="12.9" height="29"/>
<rect x="139.1" y="160" class="st29" width="12.9" height="29"/>
<rect x="9.5" y="194.3" class="st29" width="12.9" height="29"/>
<rect x="9.5" y="160" class="st29" width="12.9" height="29"/>
</svg>
