<?xml version="1.0" encoding="utf-8"?>
<!-- Generator: Adobe Illustrator 26.0.3, SVG Export Plug-In . SVG Version: 6.00 Build 0)  -->
<svg version="1.1" id="Ebene_1" xmlns="http://www.w3.org/2000/svg" xmlns:xlink="http://www.w3.org/1999/xlink" x="0px" y="0px"
	 viewBox="0 0 130 150" style="enable-background:new 0 0 130 150;" xml:space="preserve">
<style type="text/css">
	.st0{fill:#603726;stroke:#000000;stroke-width:4;stroke-miterlimit:10;}
	.st1{fill:#493127;stroke:#000000;stroke-miterlimit:10;}
	.st2{fill:#493127;stroke:#000000;stroke-width:0.5;stroke-miterlimit:10;}
	.st3{fill:#5D4135;stroke:#000000;stroke-width:0.5;stroke-miterlimit:10;}
</style>
<g>
	<g id="Ebene_1_00000099629605514773496110000007842360851402516897_">
		<polygon class="st0" points="2.7,39.3 64.9,3.4 127.1,39.4 127.1,111.2 65,147.1 2.8,111.1 		"/>
	</g>
	<path class="st1" d="M18.3,111.2c2.8,4.3,9.7,5.6,13.7,3.4c8.2-4.6,6-25.8,0-27.8c-4.3-1.5-12,6.6-14.2,14.7
		C17.2,103.7,16,107.8,18.3,111.2z"/>
	<path class="st1" d="M23.6,86.2c0.9,1,8.2-6.7,12.7-4.4c3.7,1.9,3.1,9.3,3.9,9.3c1,0-1.1-10.4,3.4-19.5c4.7-9.5,12.1-9,15.1-18.1
		c2.2-6.6,0.7-14.2-1.5-14.7c-2.1-0.4-4.3,6.3-9.3,15.1C37.1,73.3,22.4,85,23.6,86.2z"/>
	<path class="st1" d="M65.6,41.3c-1.5,4.9,13.7,6.8,20.5,20c9.8,19.2-9.5,40.1,2,55.7c0.9,1.2,4.4,6.1,7.8,5.4
		c3.2-0.7,5.2-6.3,5.4-10.7c0.2-7.4-4.7-9.1-3.9-15.1c0.8-6.3,6.4-6.9,6.4-12.2c-0.1-5-5.1-5.5-8.3-13.2c-1.8-4.4-0.5-5.1-2-13.2
		c-1.6-9.2-2.5-14.4-6.4-17.6C80.4,34.7,67,36.9,65.6,41.3z"/>
	<path class="st2" d="M51,69.6c-3.4,1.4-6.2,5.4-5.4,8.3c0.7,2.4,3.7,3.4,9.3,4.9c16.7,4.3,25,6.5,28.8,2.9s4.2-10.7,2-12.2
		c-2.6-1.8-7.4,5.3-14.2,3.9c-4-0.8-3.9-3.6-10.3-6.4C58,69.7,54.5,68.2,51,69.6z"/>
	<path class="st3" d="M20.7,98.9c0.5,1.1,2.1,1.7,3.4,1.5c3.2-0.5,4.5-5.7,5.4-5.4c0.7,0.2-0.4,3.3,1,4.4c1,0.8,2.9,0.4,3.9-0.5
		c1.9-1.8,1.4-6.1-1-7.8c-1.7-1.2-3.9-0.7-4.9-0.5C23.7,91.7,19.7,96.7,20.7,98.9z"/>
	<path class="st3" d="M24.1,105.8c-0.1,0.4-0.5,2.6,1,3.9c1.8,1.6,4.7,0.1,4.9,0c1.3-0.7,3.5-2.6,2.9-4.9c-0.5-2.1-2.9-3.2-4.9-2.9
		C25.8,102.2,24.5,104.1,24.1,105.8z"/>
	<path class="st3" d="M50.5,73.5c-0.9,0.1-2,2.9-1,4.9c1.2,2.4,4.8,3.1,6.4,2c1.4-1.1,0.7-3.7,1.5-3.9c1-0.2,2,4,3.4,3.9
		c0.9-0.1,1.9-2.1,1.5-3.9c0-0.1-0.5-2-2-2.4c-1.8-0.6-3.2,1.6-4.4,1c-1.5-0.7-1-4.4-1.5-4.4s-0.8,4.2-2,4.4
		C51.7,75.1,51.2,73.5,50.5,73.5z"/>
	<path class="st3" d="M68.1,80.4c-0.6,0.8,0.4,3,2,3.9c2,1.2,4.3,0.2,4.9,0c2.1-0.9,2.2-2.1,5.4-4.9c2.3-2,3.6-2.5,3.4-2.9
		c-0.3-0.7-3.7-0.7-6.4,1c-1.7,1-1.5,1.7-2.9,2.4C71.5,81.3,68.8,79.3,68.1,80.4z"/>
	<path class="st3" d="M65.6,77.5c-1.3,0.7-1.6,2.4-1.5,3.4c0.2,1.3,1,2.5,1.5,2.4c0.8-0.2-0.2-3.9,1.5-4.9c1-0.6,2.4,0.2,2.4,0
		C69.6,78.2,67.5,76.5,65.6,77.5z"/>
	<path class="st3" d="M55.9,46.2c-1.9,0.9-1.7,3.3-3.4,7.3c-1.6,3.8-3.4,5.5-2.9,5.9c0.4,0.4,2.8-0.9,4.4-2.9
		c1.4-1.8,0.8-2.6,2.4-5.9c1.3-2.6,2.4-3.8,2-4.4C57.9,45.7,56.8,45.8,55.9,46.2z"/>
	<path class="st3" d="M32.4,78.4c0,0.3,2.4,1.5,4.4,0.5c0.4-0.2,1.9-1,2-2.4c0.1-1.7-1.9-3.2-2.4-2.9c-0.6,0.3,0.6,2.6-0.5,3.9
		C34.8,78.7,32.5,78.1,32.4,78.4z"/>
	<path class="st3" d="M41.7,66.7c-0.8,1.4-1.5,3.5-1,3.9c0.5,0.3,1.8-0.8,2-1c2.4-2.1,1.5-4.3,3.4-5.9c1.7-1.4,3.8-0.7,3.9-1.5
		c0.2-0.8-1.7-2.3-3.4-2c-1,0.2-0.7,1.7-2.4,3.4c-0.3,0.3-0.5,0.5-1,1C42.9,65,42.2,65.8,41.7,66.7z"/>
	<path class="st3" d="M71.5,41.8c-0.4,1,2.2,2.3,6.8,6.8c0.7,0.7,5.3,5.2,8.3,9.8c5.5,8.4,5.4,16.7,5.9,16.6
		c0.4-0.1-0.3-7.9-2.4-17.1c-2.5-10.9-4.4-13-5.9-14.2C79.5,39.9,72.1,40.2,71.5,41.8z"/>
	<path class="st3" d="M95.4,81.9c-2.1,0.1-4.7,1.6-4.9,3.9c-0.2,2.1,1.7,3.8,3.4,4.4c3.1,1.1,7.3-1.3,7.3-3.9
		C101.4,84,98.3,81.7,95.4,81.9z"/>
	<path class="st3" d="M88.6,100.9c-0.2,0.3-0.8,1-0.5,4.4c0.3,3.5,0.5,5.9,2,6.4c1.1,0.4,2.7-0.4,2.9-1.5c0.4-1.4-2.1-2.1-2.4-4.4
		c-0.3-2.6,2.6-4.3,2-5.4C92,99.6,89.7,99.7,88.6,100.9z"/>
	<path class="st3" d="M94.5,107.3c-0.4,0.5,2.1,1.8,2.4,4.4c0.4,3.4-3.2,5.7-2.4,6.8c0.5,0.7,2.6,0.4,3.9-0.5
		c2.3-1.6,2.9-5.3,1.5-7.8C98.4,107.6,94.9,106.7,94.5,107.3z"/>
</g>
</svg>
