<?xml version="1.0" encoding="utf-8"?>
<!-- Generator: Adobe Illustrator 26.0.3, SVG Export Plug-In . SVG Version: 6.00 Build 0)  -->
<svg version="1.1" id="Ebene_1" xmlns="http://www.w3.org/2000/svg" xmlns:xlink="http://www.w3.org/1999/xlink" x="0px" y="0px"
	 viewBox="0 0 130 150" style="enable-background:new 0 0 130 150;" xml:space="preserve">
<style type="text/css">
	.st0{fill:#603726;stroke:#000000;stroke-width:4;stroke-miterlimit:10;}
	.st1{fill:#5D4135;stroke:#000000;stroke-miterlimit:10;}
	.st2{fill:#493127;stroke:#000000;stroke-width:0.5;stroke-miterlimit:10;}
</style>
<g>
	<g id="Ebene_1_00000040567977227246982970000008734429678400113052_">
		<polygon class="st0" points="2.7,39.2 64.8,3.4 127,39.3 127.1,111.1 64.9,147 2.7,111.1 		"/>
	</g>
	<path class="st1" d="M89.3,55.7c5.5,0.5,12.2-1.7,13.7-5.9c2.2-6.1-7.7-14.3-9.3-15.6C79.4,22.6,56,22.6,38.5,31.3
		c-5.1,2.5-19.2,9.5-23,23.9c-2.7,10.2,0.7,21.3,3.4,21.5c3.3,0.2,2.3-15.2,13.7-27.4c6.9-7.3,20.3-15.6,31.8-12.2
		C76.5,40.7,77.3,54.5,89.3,55.7z"/>
	<path class="st1" d="M66.8,79.1c-2.9,3.7-1,11.4,2,12.2c3.5,0.9,5.6-9,14.7-11.7c3.8-1.1,9.9-1.4,13.2,2c4.9,5-0.3,14.2,3.9,17.1
		c2.7,1.9,8,0,10.7-2.9c6.5-7,3-23.8-4.9-27.4c-7.3-3.3-12.5,7.6-30.3,8.3C72.7,76.8,68.9,76.5,66.8,79.1z"/>
	<path class="st1" d="M14.6,82c-1.8,2.1,2.1,11.1,7.3,11.7c7.1,0.9,13.5-14,12.2-15.1c-0.7-0.6-2.8,2.8-7.8,3.9
		C20,84,16,80.4,14.6,82z"/>
	<path class="st1" d="M36.5,92.8c-5.4-1.4-13.2,2.8-14.2,7.8c-1.7,9.1,18.2,25,33.7,21.5c6.1-1.4,11.8-5.8,11.2-8.3
		c-0.7-2.9-9.1-0.1-17.1-5.4C41.8,102.9,43,94.5,36.5,92.8z"/>
	<path class="st1" d="M93.2,104.5c-4.1-1.6-6.8,3.2-13.7,3.9c-7.5,0.7-12.7-4.3-13.7-2.9c-1.4,1.9,10.4,10.5,8.3,15.1
		c-1.4,3.1-8.3,2.5-8.3,3.4s6.3,2.7,13.2,1.5c8.7-1.5,19-8,18.6-14.7C97.4,108.3,95.7,105.5,93.2,104.5z"/>
	<path class="st2" d="M82.7,39.3c-0.1,0.2-1.5,3.2,0,6.4c1,2.1,2.8,2.9,4.9,3.9c1.9,0.9,4,1.9,5.9,1c1.2-0.6,2.3-2,2-2.9
		c-0.5-1.3-3.8-0.3-4.9-2c-0.4-0.7-0.1-2.1,0.5-4.9c0.5-2.4,0.8-2.8,0.5-3.4c-0.7-1.4-3.1-1.9-4.9-1.5C84.1,36.5,83,38.7,82.7,39.3z
		"/>
	<path class="st2" d="M72.5,32c-0.9-0.8-2.3-0.6-2.9-0.5c-4.9,0.7-6.4-1.5-11.2-1c-2.9,0.3-2.4,1.1-9.3,3.9
		c-6.3,2.6-7.3,2.2-11.7,4.4c-4.1,2.1-8.1,4.8-7.8,5.4c0.2,0.4,3.7-0.9,10.7-3.4c4.4-1.6,6.5-2.4,8.8-3.4c4-1.9,4.1-2.3,6.4-2.9
		c1.4-0.4,4.8-1.3,8.8-0.5c0.8,0.2,2.3,0.5,4.9,1c2.6,0.5,3.5,0.5,3.9,0C73.5,34.2,73.3,32.7,72.5,32z"/>
	<path class="st2" d="M18.7,56.4c-0.4,2.5-0.1,5.2,0.5,10.7c0.2,1.4,0.2,1.9,0.5,2c1.2,0.3,4.8-9.3,3.9-9.8c-0.5-0.2-2,2.2-2.4,2
		s0.7-2,1-4.4c0.3-2.8-0.7-5.8-1.5-5.9C19.6,51,18.8,56,18.7,56.4z"/>
	<path class="st2" d="M72,77.9c-2.2-0.1-4,3.3-4.4,5.9c-0.4,2.4,0.4,4.9,1,4.9c0.7,0,0.4-3.4,2.9-5.4c1.6-1.3,3.1-0.9,3.4-2
		C75.3,80.1,73.6,78,72,77.9z"/>
	<path class="st2" d="M102.7,73.5c-1.9,2.2,0.2,5.1,0.5,11.2c0.2,4.9-0.9,8,0,8.3c0.7,0.2,1.9-1.2,2.4-2.4c0.2-0.5,0.7-1.6,0.5-3.9
		c-0.3-4.1-2-5.7-1-7.3c0.5-0.8,1-0.6,1.5-1.5c1-1.9-0.3-5.1-2-5.4C103.7,72.4,102.8,73.4,102.7,73.5z"/>
	<path class="st2" d="M16.8,84.2c-0.4,0.2-0.6,2.8,1,4.4c1.5,1.4,4.3,1.8,5.4,0.5c0.7-0.8,0.7-2.4,0-2.9c-0.9-0.6-2.2,1-3.9,0.5
		C17.6,86.2,17.2,84.1,16.8,84.2z"/>
	<path class="st2" d="M26,86.7c-0.5,1.2-0.4,2.8,0,2.9c0.2,0.1,0.5-0.2,1.5-1.5c0,0,0.4-0.5,2.4-2.9c1.5-1.9,2.1-2.3,2-2.4
		c-0.2-0.3-2.1,0.6-3.4,1.5C27.4,85,26.5,85.6,26,86.7z"/>
	<path class="st2" d="M29,96.9c-2.2,0.9-2.4,5.3-2,7.8c0.2,1.2,0.6,4.1,2.9,5.4c0.5,0.3,1.6,0.9,2.4,0.5c1.8-0.9,0.4-5,2-5.9
		c1-0.5,2,0.9,5.4,2c1.9,0.6,3.8,1.2,4.4,0.5c1-1.2-1.2-6-4.9-7.8c-1.5-0.7-1.7-0.2-5.9-1.5C30.3,97,29.8,96.6,29,96.9z"/>
	<path class="st2" d="M39.2,112.6c-0.5,0.6,1.7,4.1,5.4,6.4c0.6,0.4,4,2.4,4.9,1.5c0.8-0.8-0.2-3.7-2-4.4c-1.3-0.5-2.1,0.5-2.9,0
		c-1.3-0.9,0.6-3.9-1-5.9c-0.9-1.1-2.5-1.4-2.9-1c-0.6,0.6,1.1,2.7,0.5,3.4C40.7,113.1,39.5,112.2,39.2,112.6z"/>
	<path class="st2" d="M51,112.1c-0.5,0.3,0.1,3.8,2.4,6.4c0.6,0.7,1.1,1.2,2,1.5c2.8,0.8,6.2-2.5,5.9-3.4c-0.2-0.4-1-0.1-3.4-0.5
		c-1.1-0.2-2.3-0.4-3.4-1C52,113.8,51.4,111.9,51,112.1z"/>
	<path class="st2" d="M73.4,111.1c-0.2,0.2,3.6,2.7,4.4,6.8c0.4,2.2-0.2,3.6,0.5,3.9c0.9,0.4,3.2-1.8,4.4-3.9c0.6-1.1,0.4-1.1,2-4.9
		c0.7-1.8,1.2-2.8,1-2.9c-0.4-0.3-1.9,2.7-4.9,3.4c-1.3,0.3-2.5,0.1-2.9,0C75.1,113,73.6,111,73.4,111.1z"/>
	<path class="st2" d="M90,109.6c-2.3,3.7-3.2,4.3-2.9,5.4c0.4,1.3,2.4,2.3,3.9,2c2.3-0.5,2.8-3.8,2.9-4.9c0.4-2.7-0.4-5.8-1.5-5.9
		C91.9,106.2,91.7,107,90,109.6z"/>
</g>
</svg>
