<?xml version="1.0" encoding="utf-8"?>
<!-- Generator: Adobe Illustrator 26.0.3, SVG Export Plug-In . SVG Version: 6.00 Build 0)  -->
<svg version="1.1" id="Ebene_1" xmlns="http://www.w3.org/2000/svg" xmlns:xlink="http://www.w3.org/1999/xlink" x="0px" y="0px"
	 viewBox="0 0 130 150" style="enable-background:new 0 0 130 150;" xml:space="preserve">
<style type="text/css">
	.st0{fill:#603726;stroke:#000000;stroke-width:4;stroke-miterlimit:10;}
	.st1{fill:#493127;stroke:#000000;stroke-miterlimit:10;}
	.st2{fill:#5D4135;stroke:#000000;stroke-width:0.5;stroke-miterlimit:10;}
</style>
<g>
	<g id="Ebene_1_00000001655423054774677710000017338776755074228671_">
		<polygon class="st0" points="2.7,39.3 64.9,3.4 127,39.4 127.1,111.2 64.9,147.1 2.8,111.1 		"/>
	</g>
	<path class="st1" d="M17.5,109.5c3.8,7.5,16.3,11.9,23.4,8.3c18.9-9.5,8.7-78-2-79.1c-1.9-0.2-3.5,1.8-4.9,3.4
		c-9,11,3.3,25.2-4.4,38.1c-3.5,5.9-7.2,4.8-10.7,12.2C18.1,94.2,14.1,102.7,17.5,109.5z"/>
	<path class="st1" d="M79.6,23.5c7.1-5.6,28,2.5,36.1,17.6c2.9,5.4,2.9,12.7,2.9,27.4c0,21.1-0.2,34.7-8.8,40.5
		c-3.9,2.6-9,3.2-9.8,2c-1.2-1.9,7.9-6.5,7.8-13.7c-0.1-6.5-7.6-11.5-8.8-12.2c-6.5-4.3-12.3-3.3-12.7-5.4
		c-0.6-3.5,15.4-5.8,16.6-13.2c0.8-5-5.5-10.4-13.2-17.1c-7.4-6.4-11-7.3-12.7-12.2C75.6,32.8,76,26.3,79.6,23.5z"/>
	<path class="st1" d="M54.2,70.9c-1.4-2.2-2.6-4-2-5.4c0.9-2,4.9-2.3,19.5-0.5c13.5,1.7,23.4,3,23.4,5.4c0.1,2.2-8.3,1.6-14.2,8.8
		C78,82.7,78,85.3,75.5,86c-1.9,0.5-3.1-0.7-11.2-6.4C58.8,75.7,56.4,74.3,54.2,70.9z"/>
	<path class="st2" d="M36.6,50.3c-2.1,1.2-1.5,5.8-1,10.3c0.6,5.4,1.8,6.3,1.2,9.5c-0.7,3.7-2.7,4.9-2,6.4c1.1,2,6.5,2.6,8.8,0
		c2.1-2.3,0.9-6.2,0.5-7.8c-1.3-4.4-3.8-4.7-3.9-7.8c-0.2-3.8,3.3-5.3,2.4-7.8C41.9,50.8,38.3,49.3,36.6,50.3z"/>
	<path class="st2" d="M31.9,86.2c-2.2-0.7-7,9.1-7.3,9.8c-0.8,1.7-3.9,8.1-2.4,9.3c0.9,0.7,3.6-0.5,4.9-2.4c1.6-2.5,0.1-4.9,2-6.8
		c0.9-0.9,1.5-0.6,2.4-1.5C33.9,92.3,33.4,86.7,31.9,86.2z"/>
	<path class="st2" d="M44.1,90.6c-2.8-2.2-10.8,1-13.2,6.8c-1.4,3.4-1.4,8.6,1.5,10.3c2.8,1.6,6.9-1.1,7.3-1.5
		C45.3,102.4,47.1,93,44.1,90.6z"/>
	<path class="st2" d="M57.8,69.2c-0.7,2,8.1,8.2,9.8,6.8c1-0.8,0.1-4.4-2.4-6.4C62.4,67.5,58.3,67.9,57.8,69.2z"/>
	<path class="st2" d="M83.2,72.1c0.4,0.6-5.5,7.1-7.8,5.9c-1.4-0.8-1.3-4.2,0-6.4c0.7-1.1,1.9-2.2,2.4-2c0.7,0.3-0.4,2.6,0.5,3.4
		C79.5,74.1,82.9,71.7,83.2,72.1z"/>
	<path class="st2" d="M101.3,77.9c-1.9-0.7-4.7,0.3-4.9,1.5c-0.3,1.5,3.2,4.2,6.8,4.4c3.8,0.2,7-2.3,6.8-2.9s-3.5,0.9-6.4-1
		C102.5,79.1,102.5,78.4,101.3,77.9z"/>
	<path class="st2" d="M106.7,106.8c0.4,0.3,2.8-2,4.4-4.9c2.3-4.2,3.2-9.8,1.5-10.7c-0.8-0.4-2.1,0.2-2.9,1c-1.9,1.9,0.1,4.5-1,9.3
		C107.9,104.7,106.3,106.5,106.7,106.8z"/>
	<path class="st2" d="M82.7,27.1c-2.3,1.3-1.2,6.9-1,7.8c1.1,5.3,5.2,11.4,8.8,10.7c2.7-0.5,4.6-4.8,4.4-8.3
		C94.5,30.5,85.7,25.4,82.7,27.1z"/>
</g>
</svg>
