<?xml version="1.0" encoding="utf-8"?>
<!-- Generator: Adobe Illustrator 26.0.3, SVG Export Plug-In . SVG Version: 6.00 Build 0)  -->
<svg version="1.1" id="Ebene_1" xmlns="http://www.w3.org/2000/svg" xmlns:xlink="http://www.w3.org/1999/xlink" x="0px" y="0px"
	 viewBox="0 0 130 150" style="enable-background:new 0 0 130 150;" xml:space="preserve">
<style type="text/css">
	.st0{fill:#603726;stroke:#000000;stroke-width:4;stroke-miterlimit:10;}
	.st1{fill:#493127;stroke:#000000;stroke-miterlimit:10;}
	.st2{fill:#5D4135;stroke:#000000;stroke-width:0.5;stroke-miterlimit:10;}
</style>
<g>
	<g id="Ebene_1_00000037677613727411312580000016748752525226518180_">
		<polygon class="st0" points="3,39.2 65.1,3.4 127.3,39.3 127.4,111.1 65.2,147 3,111.1 		"/>
	</g>
	<path class="st1" d="M13.2,46.6C3,52.7,9.2,94,32.7,113c8.6,7,19.6,11.1,21.5,8.8c2-2.5-9-10-11.2-24.4
		c-1.9-12.3,4.7-16.2,2.9-25.9C43,55.8,21.1,41.9,13.2,46.6z"/>
	<path class="st1" d="M57.1,111.1c1.4,3.2,4.3,4.5,3.9,7.8c-0.6,5.2-8.4,7.2-7.8,9.8c0.4,2,5.7,3.6,10.3,2.4
		c9.2-2.3,13.1-15.3,17.1-28.8c4.7-15.7,4.8-28.4,3.9-37.6c-0.6-6-2.2-15.7-3.9-15.6c-1.8,0-0.8,10.1-4.9,22.5
		C68.7,92.6,53.1,101.8,57.1,111.1z"/>
	<path class="st1" d="M85.5,114.5c-0.1,2.7,2.4,5.4,4.9,6.4c8.4,3.3,24.2-9.8,30.8-23.9c11.6-25.1-4.6-56.3-9.3-55.7
		c-2.1,0.3-2.9,7.7-4.4,22.5c-2.5,24.4,0.9,30.6-4.9,37.6C96.1,109.2,85.6,109,85.5,114.5z"/>
	<path class="st2" d="M14.6,70.6c-1.9-3.3-2.2-7.9,0-11.7c1.7-2.9,5.2-6.2,9.3-5.9c3.6,0.3,5.7,3.2,9.3,8.3c2.4,3.3,5.8,8.1,4.4,9.8
		c-1.4,1.7-7.6,0.4-10.7-3.4c-3-3.6-1.9-7.8-3.9-8.3c-1.8-0.5-4.7,2.3-5.4,5.4c-1.2,5.2,4.3,10,3.4,10.7C20.3,76,16.6,74,14.6,70.6z
		"/>
	<path class="st2" d="M30.3,75.9c-0.7,0.1,1.1,5.4-1,11.2c-1.5,4.4-4.1,5.8-3.4,8.3c0.6,2.2,3.4,4,4.9,3.4
		c2.8-1.1-0.1-10.2,4.4-13.2c0.7-0.5,1.9-1,2.9-2.4c0.5-0.7,1.6-2.3,1-3.9c-0.7-1.7-3.2-2.7-4.4-2c-1.4,0.8-0.8,3.8-1.5,3.9
		C32.3,81.4,31,75.8,30.3,75.9z"/>
	<path class="st2" d="M34.2,104.8c0,0.7,0.3,3.3,4.4,7.3c1.6,1.5,5.1,4.6,5.9,3.9c0.5-0.4-0.3-2.3-1.5-4.9c-1.1-2.4-1.3-2.4-2-3.9
		c-1.6-4-0.6-6.1-2-6.8c-1.2-0.7-3.5,0.4-4.4,2C34.5,102.6,34.1,103.4,34.2,104.8z"/>
	<path class="st2" d="M72.3,88.1c-1.5-0.6-6.2,5.7-8.3,13.2c-0.8,2.9-1.7,7.8-0.5,8.3c0.9,0.4,2.8-1.6,3.9-3.4
		c1.6-2.8,0.6-4.5,2.4-6.8c0.4-0.5,1.2-1.1,2.9-2.4c3-2.3,3.3-2.1,3.9-2.9c0.3-0.4,1-1.4,1-6.8c0-3-0.2-6.3-0.5-6.4
		c-0.3,0-0.1,2.9-1.5,6.8c-0.6,1.9-1.8,4.5-2.4,4.4C72.5,91.9,73.3,88.5,72.3,88.1z"/>
	<path class="st2" d="M79.6,66.2c-1.8-0.1-4.9,5.7-2.9,9.3c1.1,1.9,3.5,3.1,4.4,2.4c0.7-0.5-0.2-1.7,0-4.9c0.1-2.6,0.8-3.8,0-5.4
		C80.9,67.2,80.3,66.2,79.6,66.2z"/>
	<path class="st2" d="M68.4,114.5c-0.5,2-1.9,7.5-5.9,11.2c-2,1.8-3.6,2.4-3.4,2.9c0.3,0.7,3.7,0.8,5.9-1c0.7-0.6,1.1-1.2,2.4-4.9
		c1.5-4.3,1.2-4.1,2-5.9c1.9-4.3,4.1-5.6,3.4-7.3c-0.4-1-1.6-1.7-2.4-1.5C69.1,108.5,69.3,110.9,68.4,114.5z"/>
	<path class="st2" d="M94.7,109.6c-2.5,1-5.2,3.9-4.4,6.4c0.8,2.4,4.6,3.4,7.3,2.4c3.3-1.2,5.3-5.6,3.9-7.8
		C100.4,108.7,97,108.7,94.7,109.6z"/>
	<path class="st2" d="M107,105.2c-0.6-2.7-1-4.6,0-6.4c0.5-0.8,1.5-2.1,2.4-2c1.5,0.3,1.2,4.2,2.4,4.4c1.1,0.2,3.2-2.4,2.9-4.9
		c-0.2-1.7-1.4-2-3.4-5.4c-1.2-2.1-2-3.4-1.5-4.4c0.6-1.2,2.8-1.5,4.4-1c2.3,0.8,3.2,3.2,3.4,3.9c0.3,0.7,0.8,2.5-1,8.8
		c-1.3,4.5-2.2,7.6-3.9,7.8c-1.5,0.2-2.5-1.9-3.4-1.5c-1.2,0.5-0.5,4.3-1,4.4C108.1,109.2,107.4,107.2,107,105.2z"/>
	<path class="st2" d="M108.4,77.4c0.7,1.1,2.3,1.2,5.4,1.5c3.4,0.3,5.2,0.4,5.9-0.5c1.2-1.5-0.4-5.3-2.9-7.3c-2.1-1.6-3.5-1-4.4-2.4
		c-1.7-2.7,1.9-7.2,1-7.8c-0.6-0.4-2.8,0.9-3.9,2.9c-1.3,2.4,0.1,3.7-0.5,8.3C108.5,75.3,107.6,76.3,108.4,77.4z"/>
	<path class="st2" d="M112.8,52c-1.2,1.2,3.6,5.1,2.9,10.7c-0.3,2.4-1.3,3.7-0.5,4.9c0.9,1.2,3.2,1.5,4.4,0.5c1-0.9,0.7-3,0-7.3
		c-0.9-5.7-1.9-6.8-2.4-7.3C115.8,52.2,113.5,51.3,112.8,52z"/>
</g>
</svg>
