<?xml version="1.0" encoding="utf-8"?>
<!-- Generator: Adobe Illustrator 26.0.3, SVG Export Plug-In . SVG Version: 6.00 Build 0)  -->
<svg version="1.1" id="Ebene_1" xmlns="http://www.w3.org/2000/svg" xmlns:xlink="http://www.w3.org/1999/xlink" x="0px" y="0px"
	 viewBox="0 0 130 150" style="enable-background:new 0 0 130 150;" xml:space="preserve">
<style type="text/css">
	.st0{fill:#603726;stroke:#000000;stroke-width:4;stroke-miterlimit:10;}
	.st1{fill:#493127;stroke:#000000;stroke-miterlimit:10;}
	.st2{fill:#5D4135;stroke:#000000;stroke-width:0.5;stroke-miterlimit:10;}
</style>
<g>
	<g id="Ebene_1_00000098910885826510733920000001858551084224072583_">
		<polygon class="st0" points="2.7,39.3 64.9,3.4 127,39.4 127.1,111.2 65,147.1 2.8,111.1 		"/>
	</g>
	<path class="st1" d="M21.7,42.8c-3.1,15.7,35.9,28.8,33.2,43c-2.1,11.1-27.5,10.9-28.8,23c-0.6,5.6,4.2,11.7,9.3,13.2
		c9.7,2.9,20.2-10.9,23.4-15.1c3.1-4.1,9.8-12.8,9.8-25.9c0-2.8,0-18-10.3-26.4c-9.4-7.7-21.1-4.7-24.9-13.2
		c-1.7-3.9-0.6-7.7-2.4-8.3C28.5,32.2,22.7,37.4,21.7,42.8z"/>
	<path class="st1" d="M82.2,25.2C78.9,24,70.8,38,66.6,50.6c-1.2,3.7-2.1,7.1-1,7.8c1.4,0.8,3.8-3.4,9.8-6.4
		c7.5-3.7,11.7-0.9,15.1-4.9c2.3-2.7,3.1-7.1,1.5-9.3c-1.3-1.7-3.1-0.9-5.4-2.4C82.4,32.4,84.4,26,82.2,25.2z"/>
	<path class="st1" d="M71.5,80.9c0.8,7.7-0.9,7.1,0,11.7c2.6,13.2,17.3,23.6,29.8,23.9c2.5,0.1,7,0.2,9.3-2.9c1.7-2.4,1.7-6.1,0-8.3
		c-1.8-2.3-4.8-2.4-8.3-2.9c0,0-8.4-1.4-15.6-5.9C73.5,88.3,81.3,58.1,74,56.4c-1.9-0.5-4,1.3-4.9,2.4C65.8,63,70.3,69,71.5,80.9z"
		/>
	<path class="st2" d="M26.1,41.8c-1.3,0.5-1.9,4.5-0.5,7.8c2.1,4.9,7,4.7,16.6,10.3c8.6,4.9,11.2,8.9,12.7,7.8
		c1.8-1.3,0.3-8.7-4.4-11.7c-3.6-2.3-5.9,0-10.7-1.5C31,51.8,28.4,41,26.1,41.8z"/>
	<path class="st2" d="M37.8,104.3c-0.4,0.4-6,5.9-4.4,8.8c1.8,3.4,13.5,3.8,17.1-2.4c2-3.5,1.5-9-1.5-10.7
		C45,97.5,38.4,103.7,37.8,104.3z"/>
	<path class="st2" d="M77.4,36.4c-1.8,0.6-1.3,3.7-2.9,8.3c-2.3,6.6-6.5,9.1-5.9,9.8c0.7,0.8,7.2-2.8,11.2-8.8c2.7-4,2.1-5.8,2-6.4
		C81.1,37.5,78.8,35.9,77.4,36.4z"/>
	<path class="st2" d="M71,61.3c-0.3,0.1,0.9,2.9,2,7.8c2.5,11.3,1.3,19,2,19.1c0.6,0,2.5-6.4,1.5-13.7C75.3,67,71.5,61.1,71,61.3z"
		/>
	<path class="st2" d="M75.9,96c-0.8,1.9,8.7,9.1,10.3,7.8c0.9-0.8-0.4-4.8-3.4-6.8C80.1,95.2,76.4,95,75.9,96z"/>
	<path class="st2" d="M95.4,105.3c0.6,2.6-1.8,4-1,5.9c1,2.3,6,2.3,8.3,2c0.3,0,6.6-0.9,6.8-3.4c0.2-1.7-2.5-3.3-5.4-4.9
		c-6.9-3.9-13.9-5.1-14.2-4.4C89.9,101,94.7,102,95.4,105.3z"/>
</g>
</svg>
