<?xml version="1.0" encoding="utf-8"?>
<!-- Generator: Adobe Illustrator 26.0.3, SVG Export Plug-In . SVG Version: 6.00 Build 0)  -->
<svg version="1.1" id="Ebene_1" xmlns="http://www.w3.org/2000/svg" xmlns:xlink="http://www.w3.org/1999/xlink" x="0px" y="0px"
	 viewBox="0 0 130 150" style="enable-background:new 0 0 130 150;" xml:space="preserve">
<style type="text/css">
	.st0{fill:#603726;stroke:#000000;stroke-width:4;stroke-miterlimit:10;}
	.st1{fill:#5D4135;stroke:#000000;stroke-miterlimit:10;}
	.st2{fill:#493127;stroke:#000000;stroke-width:0.5;stroke-miterlimit:10;}
	.st3{fill:#493127;stroke:#000000;stroke-miterlimit:10;}
</style>
<g>
	<g id="Ebene_1_00000000937101513831761050000003265987761307837593_">
		<polygon class="st0" points="2.8,39.3 64.9,3.4 127.1,39.4 127.1,111.2 65,147.1 2.8,111.1 		"/>
	</g>
	<path class="st1" d="M95.7,44.5c-2-3.8-5.3-8.9-10.7-13.2C66.6,17,35.6,21.4,24.4,36.2c-3.2,4.3-5.9,10.9-4.4,12.2
		c1.2,1,4.4-1.4,10.3-4.4c0,0,4-2,16.1-6.4C59.5,33,84.8,40.7,95.7,44.5z"/>
	<path class="st1" d="M29.3,49.9c4.8,1.7,4.7,22-1.5,24.4c-3.4,1.4-9.1-2.6-10.7-7.3C14,58.2,25.3,48.4,29.3,49.9z"/>
	<path class="st1" d="M23.4,84c-7.5,4.9-6.6,17.5-2,24.4c3.1,4.6,8.9,8.4,11.7,6.8c2.2-1.2,0.7-4.7,2-11.7
		c1.9-10.8,7.2-13.9,5.4-17.6C38.5,81.8,29.1,80.3,23.4,84z"/>
	<path class="st1" d="M38.1,72.8c-1.4,1.7-0.9,4.6,0,6.4c6.6,12.9,56.8,6.2,59.1-5.9c0.5-2.4-0.9-5.4-2.9-6.4
		c-4.3-2.1-8.8,5.9-17.6,9.3C60.2,82.5,42.6,67.1,38.1,72.8z"/>
	<path class="st1" d="M39.1,111.9c-2.3,2.9,0.7,11.4,6.4,15.6c19.3,14.4,71.4-19.5,69.4-24.9c-0.3-0.9-2.2-0.9-5.4-1
		c-21-0.2-28,13.8-45,14.7C50.5,117,42,108.3,39.1,111.9z"/>
	<path class="st2" d="M24.4,58.2C22.7,59.3,20,61,20,63.6c0,1.2,0.6,2.8,1.5,2.9c1,0.1,1.5-1.7,4.4-5.9c1.8-2.6,2.7-3.5,2.4-3.9
		C27.9,56.2,25.7,57.3,24.4,58.2z"/>
	<path class="st2" d="M28.1,64.8c-0.7,2.3-2.8,2.5-2.9,3.9c-0.1,1.6,2.4,3.4,3.4,2.9c0.6-0.3,0.3-1.1,1-3.4c0.6-2,1.2-2.4,1-3.4
		c-0.3-1.2-1.4-2.2-2-2C28.2,63,28.4,63.7,28.1,64.8z"/>
	<path class="st2" d="M26.1,37.4c-1.2,1.4-1.3,3.8-0.5,4.4c1.2,0.9,3.4-3.1,9.3-5.4c4.2-1.6,7.1-1.1,8.3-3.4c0.5-0.9,0.6-2.3,0-2.9
		c-1.3-1.4-5.6,0.8-5.9,1c-2.8,1.5-2.4,2.6-4.9,3.9C29.3,36.7,27.5,35.6,26.1,37.4z"/>
	<path class="st3" d="M52.5,29.1c-0.4,0.6,1,2.6,2.9,3.4c3.3,1.5,8.2-0.2,9.3-2.9c0.6-1.5-0.1-3,1-3.9c1-0.8,2.4-0.3,2.4-0.5
		c0.1-0.4-7.3-3.2-9.8-0.5c-1.2,1.3-0.5,3-2,3.9C54.8,29.6,52.9,28.4,52.5,29.1z"/>
	<path class="st2" d="M44.7,76.5c-1.1,1-0.7,3.5,0.5,4.9c0.6,0.7,1.2,0.9,5.9,1.5c4.9,0.6,5.5,0.5,5.9,0c0.6-0.9-0.1-3.1-1.5-3.9
		c-1.9-1.1-3.7,1.1-5.9,0c-1.7-0.9-1.8-2.8-3.4-2.9C46.1,76,45.3,75.9,44.7,76.5z"/>
	<path class="st2" d="M84.7,77C79,79.6,74,78.6,73,81.4c-0.1,0.2-0.4,1,0,1.5c1.1,1.5,7-0.7,11.2-3.4c5-3.2,8.1-7.6,7.8-7.8
		C91.8,71.4,89.6,74.8,84.7,77z"/>
	<path class="st2" d="M24.2,88.7c-1.6,0.5-1.7,5.4-1,9.3c0.8,4.3,3,10.4,5.4,10.3c1.3-0.1,2.3-2.1,2.9-3.4c1.6-3.3,0.3-4.6,1.5-8.3
		c1.2-3.9,3.1-4.3,2.9-6.8c-0.2-2.6-2.5-5.1-3.9-4.9c-1.9,0.3-1.7,5.5-3.9,5.9C26.5,90.9,25.4,88.3,24.2,88.7z"/>
	<path class="st2" d="M44.2,117c-1.7,2.3-0.2,5.9,2,6.8c0.2,0.1,1.3,0.5,2.4,0c2.5-1.1,3.6-6.1,1.5-7.8
		C48.6,114.8,45.6,115.2,44.2,117z"/>
	<path class="st2" d="M54,122.4c-0.4,0-0.7,0.8-1,1.5c-0.5,1.3-1.1,2.8-0.5,3.9c0.9,1.6,3.8,1.4,5.4,1c0.8-0.2,2.6-0.7,2.9-2
		c0.5-1.8-2.5-3.3-2-4.9c0.5-1.4,3.4-1.2,3.4-2s-3.7-2.2-4.9-1c-0.7,0.7-0.1,1.6-0.5,3.9c-0.3,1.6-1,3.5-1.5,3.4
		C54.7,126.3,54.7,122.5,54,122.4z"/>
	<path class="st2" d="M72.5,119.5c-2,1.2-3.9,3.3-3.4,4.4s3.3,1.1,5.4,0.5c3.6-1,3.7-3.3,7.8-5.4c3.5-1.8,6-1.4,6.4-2.9
		c0.3-1.2-0.8-2.8-2-2.9c-1.5-0.2-1.9,2.2-4.4,3.9C78.9,119.3,76.4,117.1,72.5,119.5z"/>
	<path class="st2" d="M82.8,113.6c-0.4-0.2-0.4-1.2,0-2c0.6-1,1.9-0.7,3.9-1.5c2.6-0.9,2.5-2.1,4.4-2.4c0.1,0,2.7-0.4,4.4,1.5
		c1.1,1.2,1.7,3.3,1,3.9c-0.6,0.6-1.9-0.5-5.9-1.5c-2-0.5-3-0.7-3.9-0.5C84.4,111.7,83.4,114,82.8,113.6z"/>
</g>
</svg>
