<?xml version="1.0" encoding="utf-8"?>
<!-- Generator: Adobe Illustrator 26.0.3, SVG Export Plug-In . SVG Version: 6.00 Build 0)  -->
<svg version="1.1" id="Ebene_1" xmlns="http://www.w3.org/2000/svg" xmlns:xlink="http://www.w3.org/1999/xlink" x="0px" y="0px"
	 viewBox="0 0 130 150" style="enable-background:new 0 0 130 150;" xml:space="preserve">
<style type="text/css">
	.st0{fill:#603722;stroke:#000000;stroke-width:4;stroke-miterlimit:10;}
	.st1{fill:#5D4135;stroke:#000000;stroke-miterlimit:10;}
	.st2{fill:#493127;stroke:#000000;stroke-width:0.5;stroke-miterlimit:10;}
	.st3{fill:#493127;stroke:#000000;stroke-miterlimit:10;}
	.st4{fill:#5D4135;stroke:#000000;stroke-width:0.5;stroke-miterlimit:10;}
</style>
<g id="Titel">
	<g>
		<g id="Ebene_1_00000017510764199299988230000010460311392665681541_">
			<polygon class="st0" points="2.7,39.3 64.9,3.4 127.1,39.4 127.1,111.2 65,147.1 2.8,111.1 			"/>
		</g>
		<path class="st1" d="M51.1,118.8c-4,1.3-7.9,4.8-7.7,8.1c0.3,4.9,9.6,7.6,11.1,8c13.3,3.8,29.5-3.2,39-14.3
			c2.8-3.3,10.5-12.3,8.8-23.3c-1.2-7.9-6.8-14.5-8.7-13.8c-2.3,0.8,2.9,11.2-1.4,22.9c-2.6,7.1-9.4,16.8-18.4,17.8
			C64.4,125.4,59.8,116.1,51.1,118.8z"/>
		<path class="st2" d="M60.5,128.2c0-0.2,0.1-2.7-1.9-4.4c-1.4-1.1-2.8-1.2-4.5-1.3c-1.6-0.1-3.3-0.2-4.4,1.1
			c-0.7,0.8-1,2.1-0.5,2.6c0.8,0.8,2.7-1,4-0.1c0.5,0.4,0.7,1.4,1.1,3.5c0.4,1.8,0.3,2.2,0.7,2.5c0.9,0.8,2.7,0.4,3.8-0.5
			C60.4,130.5,60.5,128.6,60.5,128.2z"/>
		<path class="st2" d="M69.8,130.2c0.8,0.3,1.8-0.3,2.2-0.5c3.2-2,4.9-0.9,8-2.6c1.9-1.1,1.4-1.5,5.3-5.4c3.5-3.6,4.4-3.6,6.8-6.5
			c2.3-2.6,4.1-5.7,3.8-6c-0.3-0.2-2.3,1.7-6.4,5.6c-2.6,2.4-3.8,3.6-5,5c-2.3,2.5-2.1,2.8-3.5,3.9c-0.8,0.7-2.9,2.3-5.9,2.9
			c-0.6,0.2-1.7,0.3-3.7,0.8c-2,0.5-2.6,0.7-2.7,1.1C68.4,129,69,129.9,69.8,130.2z"/>
		<path class="st2" d="M99.7,97.4c-0.5-1.9-1.5-3.7-3.5-7.3c-0.5-0.9-0.8-1.3-0.9-1.2c-0.9,0.2-0.5,7.8,0.2,7.9
			c0.4,0,0.8-2.1,1.1-2.1c0.3,0.1,0.1,1.6,0.6,3.3c0.7,2,2.2,3.8,2.8,3.6C100.6,101.4,99.8,97.7,99.7,97.4z"/>
		<path class="st1" d="M47.1,56.2c3.6,1.3,3.5,16.5-1.1,18.4c-2.6,1.1-6.8-2-8-5.5C35.6,62.5,44.1,55.2,47.1,56.2z"/>
		<path class="st2" d="M43.4,62.5c-1.3,0.8-3.3,2.1-3.3,4.1c0,0.9,0.5,2.1,1.1,2.2c0.8,0.1,1.1-1.3,3.3-4.4c1.4-2,2-2.6,1.8-2.9
			C46,61,44.4,61.8,43.4,62.5z"/>
		<path class="st2" d="M46.1,67.4c-0.5,1.7-2.1,1.9-2.2,2.9c-0.1,1.2,1.8,2.6,2.6,2.2c0.5-0.2,0.2-0.8,0.8-2.6
			c0.5-1.5,0.9-1.8,0.8-2.6c-0.2-0.9-1.1-1.7-1.5-1.5C46.2,66.1,46.3,66.6,46.1,67.4z"/>
		<path class="st3" d="M51.7,66.4c-1.2-0.2-0.2,9.8-4.6,10.8c-3.5,0.8-8.5-4.9-9-4.4c-0.6,0.6,8,6.8,11.8,16.2
			c3.9,9.6-1,13.7,3.7,22.1c3.4,6.1,9.7,10.7,11.4,9.7c1.6-1-1.9-7.1-5.1-16.5C52.7,83.7,53.3,66.5,51.7,66.4z"/>
		<path class="st4" d="M60.6,114.6c0.5-1.8-1.3-3.4-3.2-7.4c-1.7-3.7-1.9-5.9-2.4-6c-0.6,0-1.1,2.3-0.6,4.7c0.5,2.2,1.4,2.3,2.7,5.7
			c1.1,2.6,1.2,4.1,2,4.4C59.7,116.2,60.4,115.4,60.6,114.6z"/>
		<path class="st4" d="M51.9,77.3c-0.2-0.2-2.5,0.4-3,2.3c-0.1,0.4-0.5,1.8,0.5,2.9c1.2,1.4,3.4,1.2,3.5,0.7
			c0.2-0.6-2.2-1.5-2.5-3.1C50.2,78.5,52.1,77.5,51.9,77.3z"/>
		<path class="st4" d="M54.6,91.3c-0.5-1.5-1.6-3.5-2.2-3.4c-0.5,0.1-0.5,1.7-0.5,1.9c0.1,2.9,2.2,4.1,2.1,6.3
			c-0.1,2-1.8,2.7-1.4,3.4c0.5,0.7,2.6,0.7,3.5-0.6c0.5-0.8-0.8-1.7-1-3.9c0-0.4,0-0.7-0.1-1.3C55.1,93.2,54.9,92.2,54.6,91.3z"/>
		<path class="st3" d="M96.2,27.2c-3-5-31.7-11.4-47.3-6.8c-5.7,1.7-9.7,4.9-8.4,6c1.4,1.3,7.8-1.2,17.9,1
			c8.6,1.9,10.5,5.1,17.2,6.5C86.6,36.2,98.4,31.1,96.2,27.2z"/>
		<path class="st4" d="M79.7,22.7c2.5,0,5.6,0.9,8,2.5c1.8,1.2,3.6,3.2,2.9,4.7c-0.6,1.3-2.9,1.4-6.7,1.7c-2.6,0.2-6.2,0.4-7.1-0.5
			c-1-0.8,0.6-2.9,3.5-3.2c2.8-0.4,5.5,0.9,6.1,0.3c0.5-0.5-1-2.2-3-3.1c-3.4-1.5-7.2-0.5-7.7-1C75.4,23.6,77.2,22.7,79.7,22.7z"/>
		<path class="st4" d="M74.3,27.3c0-0.3-3.8-0.8-7.5-2.7c-2.8-1.5-3.5-2.7-5.3-3c-1.6-0.2-3.1,0.4-2.9,1.1c0.5,1.3,6.9,2.1,8.4,4.4
			c0.2,0.4,0.5,0.9,1.4,1.6c0.4,0.3,1.4,1.1,2.6,1.2c1.3,0.2,2.2-0.6,1.8-1.2c-0.4-0.7-2.5-1.1-2.5-1.4
			C70.3,26.9,74.3,27.6,74.3,27.3z"/>
		<path class="st4" d="M54.3,22.7c-0.5-0.2-2.3-0.6-5.5,0.1c-1.2,0.2-3.7,0.9-3.3,1.4c0.2,0.3,1.6,0.4,3.5,0.5
			c1.8,0.2,1.8,0,2.9,0.1c2.9,0.2,4.2,1.1,4.9,0.8c0.6-0.3,0.2-1.4-0.8-2C55.7,23.2,55.2,23,54.3,22.7z"/>
		<path class="st3" d="M61.7,43.9c2.9-4.7,12.7-5.2,19.6-2.5c5.2,2,11.4,6.6,10.4,10c-1.4,5.1-18.1,2.3-20,7.7
			c-2,5.6,14.5,11.1,14.7,22.7c0.2,6.8-5.6,13.2-7.9,12.6c-1.4-0.3,0.2-5-2.6-11.4c-1.1-2.4-1.8-4.1-3.6-5.3
			c-4.5-2.9-9.8,1.6-12.3-0.7c-3.3-3.1,3.7-10,2.6-22.3C62.1,48.4,59.9,46.6,61.7,43.9z"/>
		<path class="st4" d="M67.7,48.6c2.1-1.7,4.1-3.5,6.1-2.7c2.4,0.9,3.2,4.9,2.1,5.9c-1.3,1.1-4.7-1.5-6.1-0.2c-1,0.9-0.1,2.6-1,3
			c-1,0.5-3.5-0.8-3.7-2.4C64.9,50.9,66.1,49.9,67.7,48.6z"/>
		<path class="st4" d="M65.5,66.4c-1.7,0.8-2,3.2-1.1,4.7c1.1,1.7,3.8,2.5,5.3,1.3c1.3-1.1,1.1-3.2,0.1-4.5
			C68.9,66.6,67,65.6,65.5,66.4z"/>
		<path class="st4" d="M79.6,43.9c0.5-0.7,2-0.9,2.6-0.4c0.9,0.8-0.4,2.3,0.5,3.5c1.2,1.8,5.2,0.6,5.6,1.9c0.2,0.7-0.6,1.7-1.4,2.1
			c-1.4,0.8-2.6-0.1-3.6,0.8c-0.8,0.7-0.3,1.5-1.1,2.1c-1,0.8-2.9,0.4-3.1-0.2c-0.2-0.6,1.7-1.1,2-2.6c0.2-0.7-0.2-1-0.6-2.2
			C79.6,46.6,78.9,44.8,79.6,43.9z"/>
		<path class="st3" d="M36.2,41c-3.5-8-13.3-12.1-18.4-7.7c-13.2,11.7,0.8,86.6,9,87.1c1.4,0.1,2.5-2.2,3.3-4.1
			c5.7-12.6-4.9-27.6-0.3-42.3c2.1-6.7,5-5.8,6.9-14.1C37.2,57.9,39.3,48.2,36.2,41z"/>
		<path class="st4" d="M27.4,107.4c1.4-1.4,0.6-6.5-0.2-11.4c-1-5.9-2-6.8-1.8-10.5c0.2-4.1,1.6-5.6,0.8-7.1c-1-2.2-5.1-2.4-6.6,0.6
			c-1.4,2.7-0.2,6.9,0.4,8.6c1.4,4.8,3.2,5,3.7,8.3c0.5,4.1-2,6-1.1,8.8C23.4,107.2,26.2,108.6,27.4,107.4z"/>
		<path class="st4" d="M27.5,67.5c1.7,0.7,4.4-10.5,4.6-11.2c0.5-2,2.2-9.3,1-10.4c-0.8-0.7-2.7,0.8-3.5,3c-0.9,2.8,0.5,5.4-0.8,7.7
			c-0.6,1.1-1.1,0.8-1.7,1.8C25.5,61,26.4,67,27.5,67.5z"/>
		<path class="st4" d="M18,63.4c2.3,2.2,8-1.9,9.3-8.4c0.8-3.8,0.2-9.6-2.1-11.2c-2.3-1.6-5,1.7-5.3,2.1C16,50.6,15.5,61.1,18,63.4z
			"/>
		<path class="st3" d="M108.5,117.9c-3.2-2.1,4.7-10.6,2.1-21.4c-3.6-15.8-24.8-18.5-25.8-33c-0.1-1.1-0.4-5.6,1.9-6.8
			c2.2-1.2,6,1.1,8.3,3.6c3.8,4.1,1.7,7.5,5,10.6c3.5,3.2,7.1,0.9,9.6,4c2.3,2.9-0.3,5.7,1.6,11.6c1.1,3.4,2.2,3.2,5.3,8.6
			c3.5,6.1,5.5,9.5,4.8,13.2C120.2,114.6,111.3,119.8,108.5,117.9z"/>
		<path class="st4" d="M111.6,114.7c-0.8-0.4,0.2-2.4,0.6-7.2c0.1-0.8,0.5-5.6,0.1-9.6c-0.9-7.5-5-12.3-4.7-12.4
			c0.3-0.2,3.6,4.7,6.8,11.1c3.8,7.5,3.8,9.6,3.5,11C117.1,112,112.7,115.4,111.6,114.7z"/>
		<path class="st4" d="M106,80.1c-1.3,0.9-3.5,1.4-4.7,0.1c-1.1-1.1-0.8-3-0.2-4.2c1.3-2.1,4.8-2.7,6.1-1.3
			C108.4,76,107.8,78.8,106,80.1z"/>
		<path class="st4" d="M92.9,72.5c-0.3,0-0.9-0.2-2.4-2.3s-2.6-3.7-2-4.6c0.5-0.8,1.7-1.1,2.4-0.6c0.9,0.7-0.2,2.3,0.8,3.7
			c1.1,1.7,3.6,1.2,3.8,2.2C95.4,71.6,94.1,72.6,92.9,72.5z"/>
		<path class="st4" d="M93.2,65.9c-0.5-0.1,0.4-2-0.8-3.7c-1.4-2.1-4.7-1.7-4.7-2.8c-0.1-0.7,1.3-1.5,2.5-1.6
			c2.1-0.2,4.2,1.7,4.6,3.8C95.3,63.9,93.7,66.1,93.2,65.9z"/>
		<path class="st1" d="M121.6,57.8c4.7-4.7,2.2-13.9-2.3-18.3c-3-2.9-7.9-4.8-9.7-3.2c-1.4,1.2,0.2,3.6,0.4,9
			c0.3,8.3-3.2,11.4-1.2,13.8C110.9,61.8,118,61.5,121.6,57.8z"/>
		<path class="st2" d="M120.3,54.5c1.1-0.6,0.4-4.2-0.8-7c-1.2-3-3.8-7.1-5.6-6.7c-1,0.2-1.4,1.9-1.7,3c-0.6,2.7,0.5,3.5,0.2,6.3
			c-0.3,3.1-1.7,3.6-1.1,5.5c0.5,1.9,2.6,3.4,3.6,3c1.4-0.5,0.5-4.3,2-4.9C118.3,53.2,119.5,54.9,120.3,54.5z"/>
		<path class="st3" d="M73,96.2c1.7-2.6,2-8.6,0.7-11.4c-2.4-5.2-11.1-1.1-13,6.6c-1,3.8-0.4,8.9,1.3,10.1c1.4,1,2.4-1.5,6.4-3.2
			C71.4,97,72.1,97.7,73,96.2z"/>
		<path class="st4" d="M71.6,92.5c0.6-0.6,1-3.2,0.5-4.9c-0.6-2.2-2.6-1.9-3.8-1.7c-1.7,0.3-5.2,1.7-5.9,5.3
			c-0.4,1.8,0.1,4.1,0.8,4.3c0.9,0.3,1.5-2.6,3.5-3.8c1.3-0.8,2.3-0.5,2.5-0.4C70.8,91.8,71.1,93.1,71.6,92.5z"/>
		<path class="st4" d="M69.5,95.2c0.2-1.3-0.4-2-0.5-2.1c-0.8-1.1-2.3,0-2.8,1.4C66,95,66,95.7,66,95.9c0.2,0.2,0.5-0.6,0.9-0.5
			c0.2,0.1,0.2,0.3,0.7,1.1c0.4,0.6,0.5,0.9,0.8,0.9C68.8,97.2,69.3,96.2,69.5,95.2z"/>
		<path class="st1" d="M46.6,52.9c2.7,3,8.6,4.5,10.9,2.7c4.1-3.3-2.1-19.2-12.3-24.4c-4-2-8.8-2.6-9.3-1.2
			c-0.6,1.6,5.3,4.1,8.1,9.9C46.9,46.1,43.4,49.4,46.6,52.9z"/>
		<path class="st2" d="M52.3,54.4c1.6,0.5,3.2-1.4,3.8-2.6c0.3-0.6,1-2.1,0.1-3.7c-0.2-0.4-0.6-1.1-1.3-1.3
			c-1.3-0.4-1.9,2.1-3.1,1.7c-0.8-0.2-0.8-1.3-2.5-3.2c-0.9-1.1-1.8-2.2-2.4-2.2c-1,0.1-1.4,3.2,0.2,5.6c0.6,1,0.9,0.8,2.9,3.2
			C51.6,53.7,51.7,54.2,52.3,54.4z"/>
		<path class="st2" d="M51.7,42.9c0.5-0.1,0.4-2.6-1-5.2c-0.2-0.5-1.5-2.8-2.3-2.8c-0.8,0-1.1,1.7-0.4,2.9c0.6,0.8,1.4,0.7,1.7,1.3
			c0.5,1-1.7,1.5-1.4,3.1c0.2,0.8,1,1.7,1.4,1.7c0.5,0,0.2-1.7,0.9-1.7C51,42,51.4,42.9,51.7,42.9z"/>
		<path class="st2" d="M44.7,37.9c0.4,0.2,1.2-1.7,0.8-3.9c-0.2-0.6-0.2-1.1-0.7-1.5c-1.4-1.6-4.5-1.6-4.6-1.1
			c-0.1,0.2,0.5,0.5,1.8,1.7c0.5,0.5,1.2,1.2,1.7,2C44.7,36.7,44.4,37.9,44.7,37.9z"/>
		<path class="st1" d="M42.6,84.3c-1.8-0.8-6.4,1.2-8.4,3.9c-6.9,9.1,15.2,27.6,18.1,26.3c0.5-0.2,0.4-1,0.2-2.3
			c-1.1-8.6-9.4-10.3-10.9-17.1C40.5,89.5,44.9,85.2,42.6,84.3z"/>
		<path class="st2" d="M40.1,86.9c-1.4-0.5-3.3,0.4-3.7,1.4c0,0.1-0.2,0.6,0.2,1c0.8,0.9,3.6,1,4.4-0.1
			C41.6,88.5,41.2,87.3,40.1,86.9z"/>
		<path class="st2" d="M37.7,91.3c0-0.2-0.5-0.2-0.9-0.3c-0.8-0.1-1.7-0.2-2.3,0.2c-0.8,0.5-0.5,1.7-0.2,2.3c0.2,0.3,0.5,1,1.3,1.1
			c1.1,0.1,1.7-1.3,2.6-1.2c0.8,0.1,0.9,1.3,1.3,1.2c0.5-0.1,1-1.7,0.2-2.1c-0.4-0.2-0.9,0.1-2.3,0.2c-0.9,0-2-0.1-2-0.3
			C35.5,91.9,37.7,91.6,37.7,91.3z"/>
		<path class="st2" d="M40.4,98.7c-0.8-0.7-2.1-1.4-2.7-1.1c-0.6,0.3-0.4,1.4,0.1,2.3c0.8,1.4,2,1.3,3.5,2.8c1.2,1.3,1.1,2.3,2,2.3
			c0.7,0,1.5-0.5,1.5-1.1c0-0.6-1.4-0.6-2.5-1.5C40.9,101.3,42,100.1,40.4,98.7z"/>
		<path class="st2" d="M44.3,102.4c0.1-0.2,0.7-0.3,1.1-0.2c0.6,0.2,0.5,0.7,1.1,1.5c0.7,1,1.4,0.8,1.7,1.6c0,0.1,0.4,1.1-0.5,2
			c-0.6,0.5-1.7,1-2.1,0.8c-0.4-0.2,0.2-0.8,0.5-2.5c0.2-0.8,0.2-1.3,0.1-1.7C45.4,102.9,44.1,102.7,44.3,102.4z"/>
		<path class="st3" d="M104.5,34.9c-2.9-2.6-8.1-2.2-10.6,0.2c-5,4.9,0.7,19.9,5.4,20.2c3.4,0.2,7.4-7.1,7.4-13.4
			C106.8,40,106.8,36.8,104.5,34.9z"/>
		<path class="st4" d="M105.1,44.2c-0.5-0.7-1.9-0.8-2.8-0.4c-2.2,1-2.2,5-2.9,5c-0.5,0-0.3-2.5-1.6-3c-0.8-0.4-2.2,0.2-2.7,1.1
			c-1.1,1.7,0.2,4.7,2.3,5.5c1.5,0.5,2.9-0.2,3.6-0.6C104.3,50,106.3,45.6,105.1,44.2z"/>
		<path class="st4" d="M101.3,39.9c0-0.3-0.2-2-1.5-2.6c-1.6-0.8-3.4,0.8-3.5,1c-0.8,0.8-2,2.6-1.2,4.1c0.8,1.4,2.7,1.8,4.1,1.2
			C100.8,42.8,101.4,41.2,101.3,39.9z"/>
	</g>
</g>
</svg>
