<?xml version="1.0" encoding="utf-8"?>
<!-- Generator: Adobe Illustrator 26.0.3, SVG Export Plug-In . SVG Version: 6.00 Build 0)  -->
<svg version="1.1" id="Ebene_1" xmlns="http://www.w3.org/2000/svg" xmlns:xlink="http://www.w3.org/1999/xlink" x="0px" y="0px"
	 viewBox="0 0 130 150" style="enable-background:new 0 0 130 150;" xml:space="preserve">
<style type="text/css">
	.st0{fill:#603726;stroke:#000000;stroke-width:4;stroke-miterlimit:10;}
	.st1{fill:#493127;stroke:#000000;stroke-miterlimit:10;}
	.st2{fill:#5D4135;stroke:#000000;stroke-width:0.5;stroke-miterlimit:10;}
</style>
<g>
	<g id="Ebene_1_00000060733523499085104970000016498330172028460940_">
		<polygon class="st0" points="2.7,39.2 64.9,3.4 127.1,39.3 127.1,111.1 65,147 2.8,111.1 		"/>
	</g>
	<path class="st1" d="M16.3,43.7c-7.1,9.1-3.9,28.3,6.4,36.6C41.5,95.6,88.8,78.2,93,52.9c2.1-12.5-6-28.4-16.6-31.3
		c-8.7-2.4-12.6,5.9-34.7,13.2C25.6,40.3,20.6,38.2,16.3,43.7z"/>
	<path class="st1" d="M29,89.6c-6.5,5-5.3,19.3,0,28.8c4,7.1,12.2,15.2,17.1,13.2c7.4-3,0-26.6,7.8-30.3c8-3.8,19.6,18.9,37.1,17.1
		c10.4-1.1,18.8-10.4,17.6-13.7c-0.7-1.9-7.5,1.2-17.6-1.6c-3.9-1.1-6.6-1.8-8.8-4.2c-5.3-6,0.5-14.4-3.4-17.6
		c-5.3-4.2-14.4,7.1-33.2,7.8C36,89.5,32.8,86.7,29,89.6z"/>
	<path class="st2" d="M28,54.4c-3.1,2.2-2.8,10.8,1.5,15.6c5.8,6.6,17,4.6,23.4,3.4c9.4-1.7,29-7.9,29.8-19.5
		c0.4-6-4.3-12.8-8.8-13.2c-5.5-0.4-6.7,9-17.6,13.7c-6.7,2.9-13.4,2.5-14.2,2.4C34,56.3,30.7,52.6,28,54.4z"/>
	<path class="st2" d="M38.3,45.2c0.3,4.1,4.1,6.2,4.4,6.4c5.4,2.9,13.2-1,15.1-5.9c0.7-1.7,0.8-3.9,0-4.4c-1-0.5-2.4,2-4.9,2
		c-1.4-0.1-1.8-0.9-4.9-2.9c-2.7-1.8-4.1-2.6-5.4-2.4C40.2,38.2,38.1,41.8,38.3,45.2z"/>
	<path class="st2" d="M37.3,97.4c-2.3,3.4-4.4,6.6-2.9,9.3c1.8,3.3,8,3.8,9.3,2c1.4-2-3.2-6.4-1.5-8.8c1.1-1.6,3.8-0.6,4.4-2
		c0.6-1.5-1.8-4.9-4.4-4.9C40.2,93,39,95,37.3,97.4z"/>
	<path class="st2" d="M63.7,91.1c0.9-2.5,4.4-3.5,6.8-2.4c2.9,1.2,4.4,5.1,2.9,7.3c-1.3,2-4.6,2.2-6.8,1
		C64.7,95.9,62.9,93.4,63.7,91.1z"/>
	<path class="st2" d="M83.7,109.1c2.2,3.5,8.6,2.8,11.7,2c2.1-0.6,6-2,5.9-3.4c-0.1-1.5-5-3.3-8.8-2c-2.2,0.8-2.8,2.2-4.4,2
		c-2.5-0.3-3.5-4.2-4.4-3.9C82.9,104,82.4,107,83.7,109.1z"/>
	<path class="st2" d="M32.4,115.5c-1,0.9-0.9,3.1,0,3.9c1.3,1.2,3.4-0.9,5.4,0c2.9,1.4,1.9,7.4,3.9,7.8c1,0.2,2.4-1.2,2.9-2.4
		c1-2.2-0.6-3.8,0.5-5.4c0.9-1.2,2.2-0.7,2.9-2c1-1.6,0-4.3-1-4.4s-1.2,2.7-3.4,3.4c-0.9,0.3-1.5,0-3.4-0.5
		C36.6,115,33.7,114.3,32.4,115.5z"/>
</g>
</svg>
