<?xml version="1.0" encoding="utf-8"?>
<!-- Generator: Adobe Illustrator 26.0.3, SVG Export Plug-In . SVG Version: 6.00 Build 0)  -->
<svg version="1.1" id="Ebene_1" xmlns="http://www.w3.org/2000/svg" xmlns:xlink="http://www.w3.org/1999/xlink" x="0px" y="0px"
	 viewBox="0 0 1920 200" style="enable-background:new 0 0 1920 200;" xml:space="preserve">
<style type="text/css">
	.st0{stroke:#000000;stroke-width:4;stroke-miterlimit:10;}
</style>
<g id="VGras">
	<path class="st0" d="M1029.7,147.2c18.3,0.8,50.3-60.1,25.6-78c-4.3-3.1-11.9-6.1-13.8-4.9c-2.4,1.5,7.3,8.4,11.3,19.3
		c4.6,12.3,2.2,30.2-12.3,39.7c-9.7,6.3-19.9,5.7-21.7,11.2C1017.2,139.6,1023.5,146.9,1029.7,147.2z"/>
	<path class="st0" d="M1017.4,146.3c2.2,1.5,7.1,1.3,10.1-0.7c7.2-4.6-2-15.5,0-34.8c1.3-12.4,6.4-20.9,4.6-21.4
		c-1.5-0.5-6.2,5.8-8.9,10.7c-1,1.9-3.8,7.2-5.1,15.4c-1.5,9.7,1.2,9.8-0.4,19.4C1016.8,141.2,1015.1,144.6,1017.4,146.3z"/>
	<path class="st0" d="M398.2,150c2.2,1.5,7.1,1.3,10.1-0.7c7.2-4.6-2-15.5,0-34.8c1.3-12.4,6.4-20.9,4.6-21.4
		c-1.5-0.5-6.2,5.8-8.9,10.7c-1,1.9-3.8,7.2-5.1,15.4c-1.5,9.7,1.2,9.8-0.4,19.4C397.6,145,395.9,148.3,398.2,150z"/>
	<path class="st0" d="M564.4,75.9c0.4,0.5-6.3,3.6-11,10.5c-11.2,16.6,0.3,39.1-7.5,42.1c-2.8,1.1-6.9-0.9-9-3.1
		c-7.2-7.7,0.1-27.2,11-38.5C555.1,79.4,564,75.3,564.4,75.9z"/>
	<path class="st0" d="M689.6,130.9c7.7-2.1,3.1-17.1,5.5-48.8c0.8-11,1.6-12.1,1.5-19.6c-0.2-12.4-0.4-32.4-14.1-37.4
		c-3.9-1.4-9.4-1.7-10.1-0.7c-0.7,1.1,5.4,3.1,9,6.3c14,12.2,8.9,54.1-1.9,79.8c-1.5,3.5-5.2,11.7-1.6,16.7
		C680.3,130.5,685.6,132,689.6,130.9z"/>
	<path class="st0" d="M536,134.7c-2.2,1.5-7.1,1.3-10.1-0.7c-7.2-4.6,2-15.5,0-34.8c-1.3-12.4-6.4-20.9-4.6-21.4
		c1.5-0.5,6.2,5.8,8.9,10.7c1,1.9,3.8,7.2,5.1,15.4c1.5,9.7-1.2,9.8,0.4,19.4C536.7,129.6,538.4,133,536,134.7z"/>
	<path class="st0" d="M687.8,79.9c-1.3-0.7-6.3,2.5-10.3,6.9c-14.6,15.9-11.5,41.9,0.5,47c0.6,0.3,4,1.7,6.3,0.7
		c3.2-1.5,2.6-7.1,1.3-10.7c-1.6-4.3-4.5-6.4-6.1-8.4C670.2,104,691,81.6,687.8,79.9z"/>
	<path class="st0" d="M852.1,52.8c1.4-1.7,8.8,6.5,13.7,16.3c1.8,3.6,4.1,8.9,6.4,19.1c2.9,13.1,8.8,39.1,2,46.7
		c-4.1,4.5-12.3,2.1-14.2-3.5c-1.9-5.6,3.7-11,5.9-21.2C871.2,84.4,849.6,55.7,852.1,52.8z"/>
	<path class="st0" d="M859.7,102.2c19.8,13.6,16.1,38.5,5.5,40.2c-2.3,0.4-4.9-0.3-6.4-1.2c-4.5-2.7,0.9-8.1,3-13.7
		c5.3-14.6-13.3-27.6-9.8-28.7C853.9,98.3,859.1,101.8,859.7,102.2z"/>
	<path class="st0" d="M1368.8,154.4c-0.7,0.8-4,4.2-2.5,6.7s7.5,3,9.7,2.7c17.4-2.5,15.2-85.7,11.8-85.8
		C1384.8,77.9,1379.9,141.9,1368.8,154.4z"/>
	<path class="st0" d="M1341.9,119.3c1.1,1.2,2.9,3.4,5.1,11.8c3.5,13.4,1,16-1.3,17.3c-1.7,1-4.6,2.2-6.4,1.7
		c-3.1-0.9,0-6.4,0.9-11.6c2.6-14.9-13.2-25.8-10.2-26.7C1331.8,111.3,1338.2,115.3,1341.9,119.3z"/>
	<path class="st0" d="M1446.7,136.8c1.3-0.5,6.3,1.8,10.4,4.9c14.8,11.4,11.6,30.1-0.5,33.8c-0.6,0.2-4,1.2-6.3,0.5
		c-3.2-1.1-2.6-5.1-1.3-7.7c1.6-3.1,4.5-4.6,6.2-6C1464.5,154.1,1443.6,138,1446.7,136.8z"/>
</g>
</svg>
