<?xml version="1.0" encoding="utf-8"?>
<!-- Generator: Adobe Illustrator 26.0.3, SVG Export Plug-In . SVG Version: 6.00 Build 0)  -->
<svg version="1.1" id="Ebene_1" xmlns="http://www.w3.org/2000/svg" xmlns:xlink="http://www.w3.org/1999/xlink" x="0px" y="0px"
	 viewBox="0 0 100 100" style="enable-background:new 0 0 100 100;" xml:space="preserve">
<style type="text/css">
	.st0{fill:#603726;stroke:#000000;stroke-width:2;stroke-miterlimit:10;}
	.st1{fill:#493127;stroke:#000000;stroke-width:0.5;stroke-miterlimit:10;}
	.st2{fill:#5D4135;stroke:#000000;stroke-width:0.25;stroke-miterlimit:10;}
	.st3{fill:#804122;stroke:#000000;stroke-miterlimit:10;}
</style>
<g id="Ebene_2_00000093860788734264317370000010671531211922489223_">
</g>
<g id="Ebene_1_00000017510764199299988230000010460311392665681541_">
	<polygon class="st0" points="8,25.8 50,1.6 92,25.8 92,74.3 50,98.6 8,74.3 	"/>
</g>
<path class="st1" d="M15.3,29.3c-2.1,1.1-2.7,3.6-3.7,7.9c-2,8.5-1.2,17.9,0.9,18.2c1.6,0.2,1.7-5.2,5.8-7.1
	c6-2.8,13.5,5.6,16.3,3.3c2.1-1.7,0.1-7.8-2.1-11.6C28.5,33,20,26.8,15.3,29.3z"/>
<path class="st1" d="M20.4,57.3c-2.8,1.9-5.1,5.7-4.4,9.8c0.1,0.7,0.7,4.8,3.4,5.8c2.4,0.9,4.5-1.5,12.7-7.6
	c7.1-5.2,9.5-6.2,9.2-7.6c-0.6-2.4-9-2.2-12.4-2.1C24.6,55.7,22.5,55.8,20.4,57.3z"/>
<path class="st2" d="M14.1,45.1c-0.4-0.1-0.8-2.1,0.2-3s2.7-0.4,3.6,0.6c0.7,0.8,0.8,2,0.4,2.2c-0.5,0.3-1.5-1.7-2.7-1.4
	C14.7,43.6,14.5,45.2,14.1,45.1z"/>
<path class="st2" d="M17,33.3c-0.8,1.1-0.9,3.1,0,3.9c1.5,1.3,4.4-1.3,6.7,0.1c1.6,1,1.4,3.2,2,3.1c0.7-0.1,1.6-3,0.3-5.2
	c-0.9-1.6-2.6-2.2-3.6-2.4C21.6,32.5,18.4,31.5,17,33.3z"/>
<path class="st2" d="M22.4,44.8c0,0.9,2.6,2.3,4.3,1.6c1.9-0.9,1.7-4,2.7-4s1.7,3.8,2.2,3.7c0.3-0.1,0.4-1.9,0-3.7
	c-0.1-0.5-0.9-3.8-2.1-3.8c-0.9,0-0.9,1.7-2.7,3.4C24.8,44.1,22.5,43.9,22.4,44.8z"/>
<path class="st2" d="M21.9,60.2c-1.6,1.1-2.7,1.9-3.4,3.4c-0.3,0.6-1.1,2.4-0.4,3.1c1.1,1.2,6.2-0.4,7.8-3.9c0.7-1.6,0.9-3.8,0-4.3
	C25,58.1,23.7,59,21.9,60.2z"/>
<path class="st2" d="M33.6,59.3c-1.3,0.5-3.1,1.5-3,2s1.6,0.4,2,0.4c3.4,0,6.9-2.1,6.7-2.9C39,58.2,35.9,58.5,33.6,59.3z"/>
<path class="st3" d="M15.4,22.6c-0.1,6.1,25.1,9.2,25.6,18.2c0.2,3.7-3.9,7.4-2.2,9.3c1.2,1.4,3.8-0.1,5.4,1.6
	c1.5,1.5,0.2,3.7,0.6,8.8c0.3,5.4,2,5.8,1.2,8c-1.5,4.2-9.1,5.7-13,6.4c-4.8,0.9-8.6,0.7-10.1,3.2c-0.2,0.3-0.9,1.5-0.6,2.9
	c0.3,1.3,1.5,2,2,2.3c8.5,5.3,4,3.5,12.1,7.7c7,3.6,5.6,2.5,8.1,4c2.4,1.5,3.6,2.4,5.4,2.4c2.8,0,4.9-2,5.8-2.9
	c4.3-4,4.7-1.8,19.4-10.5c9.5-5.6,14.2-8.4,15.5-10.6c1.8-3,1.7-10.1,1.3-24.3c-0.3-12.9-1.3-16.8-0.1-20c0.2-0.4,0.8-2,0.1-3.3
	c-0.8-1.6-3.1-2-3.8-2.1c-1.3-0.2-6.9-3.5-18.2-10C60.2,8,55.3,5.2,54.6,4.3C54,3.6,52.2,1.5,50,1.6c-1.9,0.1-3.2,1.7-3.7,2.3
	C46,4.3,41.6,6.9,33,12C18.5,20.6,15.5,20.4,15.4,22.6z"/>
</svg>
