<?xml version="1.0" encoding="utf-8"?>
<!-- Generator: Adobe Illustrator 26.0.3, SVG Export Plug-In . SVG Version: 6.00 Build 0)  -->
<svg version="1.1" id="Ebene_1" xmlns="http://www.w3.org/2000/svg" xmlns:xlink="http://www.w3.org/1999/xlink" x="0px" y="0px"
	 viewBox="0 0 1920 1080" style="enable-background:new 0 0 1920 1080;" xml:space="preserve">
<style type="text/css">
	.st0{fill:#0A0035;}
	.st1{fill:#FFFFAF;stroke:#FFFFFF;stroke-width:0.25;stroke-miterlimit:10;}
	.st2{opacity:0.3;}
	.st3{fill:#FFFFFF;stroke:#000000;stroke-width:5;stroke-miterlimit:10;}
	.st4{fill:#F5FFC9;enable-background:new    ;}
	.st5{fill:#FFFFFF;stroke:#000000;stroke-width:2;stroke-miterlimit:10;}
	.st6{fill:#A67C52;stroke:#000000;stroke-miterlimit:10;}
	.st7{fill:#754C24;stroke:#000000;stroke-miterlimit:10;}
	.st8{fill:#603813;stroke:#000000;stroke-miterlimit:10;}
	.st9{fill:#8C6239;stroke:#000000;stroke-miterlimit:10;}
	.st10{opacity:0.2;fill:#F5FFC9;stroke:#000000;stroke-miterlimit:10;enable-background:new    ;}
	.st11{display:none;fill:#644128;stroke:#000000;stroke-width:4;stroke-miterlimit:10;}
	.st12{fill:#FFFFFF;stroke:#000000;stroke-width:4;stroke-miterlimit:10;}
	.st13{fill:#603726;stroke:#000000;stroke-width:5;stroke-miterlimit:10;}
	.st14{fill:#8C6239;stroke:#000000;stroke-width:2;stroke-miterlimit:10;}
	.st15{fill:#A67C52;stroke:#000000;stroke-width:2;stroke-miterlimit:10;}
	.st16{fill:#754C24;stroke:#000000;stroke-width:2;stroke-miterlimit:10;}
	.st17{fill:#603813;stroke:#000000;stroke-width:2;stroke-miterlimit:10;}
	.st18{fill:#E90006;stroke:#000000;stroke-miterlimit:10;}
	.st19{fill:#FFFFFF;stroke:#000000;stroke-miterlimit:10;}
	.st20{fill:#EDD4C5;stroke:#000000;stroke-miterlimit:10;}
	.st21{fill:#FF3573;stroke:#000000;stroke-miterlimit:10;}
	.st22{fill:#FFFFFF;stroke:#000000;stroke-width:0.5;stroke-miterlimit:10;}
	.st23{stroke:#000000;stroke-miterlimit:10;}
	.st24{fill:#624A2E;stroke:#000000;stroke-miterlimit:10;}
	.st25{fill:#01796F;stroke:#000000;stroke-miterlimit:10;}
	.st26{fill:#815438;stroke:#000000;stroke-miterlimit:10;}
</style>
<g id="Hintergrund">
	<path id="Boden_00000127760330557036601970000010972434931181197959_" class="st0" d="M1.9,0c434,0,868,0,1302.1,0
		c206,0,412,0,617.9,0c0,360.7,0,721.4,0,1082.1H1.9V0z"/>
	<path class="st1" d="M622,716.4c-4.4-0.5-4,25.7-22.5,43.6c-25.4,24.7-73.4,21.1-73.1,23.7c0.3,2.7,52.7-8.4,74.5,13.7
		c13.1,13.3,10.3,33.6,15.5,33.7c5.7,0.1,3.2-25,21.1-37.4c17.2-11.9,42.9-5.1,43.6-8.7c0.7-3.9-30.3-4.2-46.4-22.4
		C618.3,743.9,626.6,716.9,622,716.4z"/>
	<path class="st1" d="M1595.2,853.3c-2.2-0.4-2,20.3-11.4,34.5c-12.9,19.6-37.2,16.7-37.1,18.7c0.1,2.2,26.7-6.6,37.8,10.8
		c6.6,10.5,5.2,26.6,7.8,26.6c2.9,0.1,1.6-19.7,10.7-29.6c8.7-9.4,21.8-4,22.1-6.9c0.4-3.1-15.4-3.3-23.5-17.8
		C1593.3,875.1,1597.5,853.7,1595.2,853.3z"/>
	<path class="st1" d="M1075.4,876.3c-1.9-0.3-1.8,16-9.9,27.1c-11.2,15.4-32.3,13.1-32.1,14.7c0.1,1.7,23.2-5.2,32.8,8.5
		c5.8,8.3,4.5,20.9,6.8,20.9c2.5,0,1.4-15.5,9.3-23.3c7.6-7.4,18.9-3.2,19.2-5.4c0.3-2.4-13.3-2.6-20.4-14
		C1073.7,893.4,1077.4,876.6,1075.4,876.3z"/>
	<path class="st1" d="M1107.5,531.4c-1.7,2,12,11.2,15.2,26.8c4.3,21.4-13.8,43.6-12.4,44.4c1.5,0.8,13.5-28.9,32.4-31.6
		c11.4-1.6,21,7,22.8,4.5c2-2.8-12-10.5-12.4-23.8c-0.4-12.7,11.9-22.9,10.2-24.5c-1.8-1.7-12.4,13.4-27.4,14.7
		C1120.6,543.2,1109.3,529.4,1107.5,531.4z"/>
	<path class="st1" d="M1508,727.9c-0.1-1.4-10.5,1.2-19.1-2.7c-11.7-5.4-13.9-20.5-14.9-20.2c-1.1,0.3,7.3,15.4,0.1,24.2
		c-4.3,5.3-12.6,6.4-12.3,8c0.4,1.8,10.2-1.4,16.5,2.9c6,4.1,5.2,12.7,6.7,12.6c1.6-0.2-0.6-9.7,5.5-16.4
		C1496.8,729.4,1508.2,729.4,1508,727.9z"/>
	<path class="st1" d="M832.7,833.1c-0.1-1.4-11.5,1.5-20.8-2.1c-12.7-5-14.6-19.8-15.7-19.5c-1.2,0.4,7.5,14.9-0.6,23.8
		c-4.9,5.3-14,6.7-13.6,8.2c0.4,1.7,11.2-1.7,17.9,2.4c6.5,3.9,5.4,12.4,7,12.2c1.8-0.2-0.4-9.6,6.5-16.3
		C820.4,834.9,832.9,834.6,832.7,833.1z"/>
	<path class="st1" d="M323.7,921.4c-0.1-1.4-10.7,1.3-19.3-2.6c-11.9-5.4-14-20.4-15-20.1c-1.1,0.4,7.3,15.3,0,24.2
		c-4.4,5.3-12.8,6.5-12.4,8c0.4,1.7,10.3-1.5,16.7,2.8c6.1,4.1,5.2,12.7,6.8,12.5c1.6-0.2-0.6-9.7,5.6-16.4
		C312.3,923,323.8,922.9,323.7,921.4z"/>
	<g id="Adern_00000179624904206937706560000013952985208509286040_" class="st2">
		<path class="st3" d="M1021.9,813.2c-39.9,10.8-70.7-4.5-81-9c-59.9-26-191.5-15.2-447-20.2c-309.1-6-488.6-28.9-489-13.4
			c-0.2,7.4,40.7,18.1,66,24.6c153.3,39.9,193.7-3.1,320,29.1c73.3,18.8,83.3,39.4,144,40.3c52.9,0.9,58.5-14.6,132-15.7
			c23.1-0.4,27.5,1.1,130,9c79.5,6,83.1,6.5,92,6.7c70.7,2.5,106,3.8,138-4.5c59.6-15.5,78.4-41,126-26.9
			c22.4,6.7,23.9,14.1,54,26.9c49.4,21.1,85.8,13.2,118,17.9c125,17.9,188.2,26.7,221,15.7c38.6-12.8,56.7-29.1,121-47.1
			c29.4-8.3,18.7-2.2,86-15.7c77.3-15.5,88.7-22.4,112-6.7c25.4,17,48.4,49.5,53,35.9c2.6-7.6-2.2-24.6-4-31.4
			c-9.3-33.6-25.9-45.5-35-51.5c-30.7-20.2-50.7-0.2-85,9c-36.5,9.6-30.9-8.5-87-6.7c-19.1,0.7-64.8,4.3-120,31.4
			c-51.1,25.1-41.8,36.7-76,49.3c-47.5,17.3-87.3,2.9-157-22.4c-32.6-11.9-28.9-13.7-61-24.6c-49.6-17-86.6-22.4-118-26.9
			c-47.6-6.7-71.9-9.9-93-2.2C1055.1,793.9,1048.3,806,1021.9,813.2z"/>
		<path class="st3" d="M1101.9,853.8c4.9-5.9,31.5,44.3,79,70.6c38,21.1,72.3,17.1,141,9.2c59.5-6.8,59.6-15.6,115-20.9
			c34.2-3.3,64.5-1.7,125,1.3c104.4,5.2,90.6,11.6,131,9.2c49.9-3.1,76.5-13.3,122,1.3c26.9,8.6,52.9,23.5,52,28.8
			c-0.9,5-25.5,2-73-3.9c-33.6-4.2-33.5-5.4-45-5.2c-30.9,0.3-38.7,9.2-66,10.5c-19.2,0.9-18.7-3.3-57-9.2
			c-30.6-4.7-52.8-5.4-91-6.5c-35.8-1-53.7-1.6-69,1.3c-28.9,5.6-32,13.1-69,24.8c-9.2,2.9-40.6,12.4-82,15.7c-24.4,2-45.6,0-88-3.9
			c-13.6-1.3-27.5-2.9-44-11.8c-13.2-7.2-22.6-16.1-29-22.2c-17.7-17-28.3-34.3-32-40.5C1114.1,888.9,1098.1,858.4,1101.9,853.8z"/>
		<path class="st3" d="M1888.4,716c-3.1,5.2-20.2-39.2-50.7-62.5c-24.4-18.6-46.4-15.2-90.6-8.1c-38.2,6-38.3,13.8-73.9,18.5
			c-22,2.9-41.4,1.5-80.3-1.2c-67.1-4.6-58.2-10.3-84.2-8.1c-32.1,2.8-49.1,11.8-78.4-1.2c-17.3-7.6-34-20.8-33.4-25.5
			c0.6-4.4,16.4-1.7,46.9,3.5c21.6,3.7,21.5,4.7,28.9,4.6c19.8-0.2,24.9-8.1,42.4-9.3c12.3-0.8,12,2.9,36.6,8.1
			c19.7,4.2,33.9,4.7,58.5,5.8c23,0.9,34.5,1.4,44.3-1.2c18.6-5,20.6-11.6,44.3-22c5.9-2.5,26.1-11,52.7-13.9
			c15.7-1.7,29.3,0,56.5,3.5c8.7,1.2,17.7,2.5,28.3,10.4c8.5,6.4,14.5,14.2,18.6,19.7c11.4,15,18.2,30.3,20.6,35.9
			C1880.6,685,1890.9,711.9,1888.4,716z"/>
		<path class="st3" d="M29.9,1068.6c16.4-27.4,46.2-33.2,83-37.2c58-6.2,62.6-0.1,117-5c40.5-3.6,81.3-10.9,97-13.6
			c41.2-7.3,40.4-9.2,55-9.9c49.7-2.7,65.2,18,105,23.6c53,7.4,52.4-25.5,134-37.2c30.1-4.3,20.1,1.6,128,0c33.2-0.5,56-0.9,88-2.5
			c60.1-3.1,65.8-6.3,98-5c43.2,1.7,64.8,2.6,92,16.1c27.9,13.8,32,26,59,33.5c20.9,5.7,32.6,2.4,65,0c20.3-1.5,53.6-3.8,87,0
			c65.6,7.4,79.2,32.9,121,19.8c18.2-5.7,31.7-15.5,35-9.9c3.9,6.7-8.5,34-27,40.9c-15.9,6-23.1-8.2-58-18.6
			c-22-6.6-39.8-7.2-51-7.4c-19.7-0.5-27.4,2.2-51,5c-15.2,1.7-47.9,5.6-84,2.5c-13.4-1.1-40.3-4.3-73-14.9
			c-46.2-15-48.9-27-79-29.8c-28.1-2.6-26.5,7.8-65,7.4c-32.1-0.4-36.4-7.6-71-7.4c-25.7,0.1-25,4.1-54,5c-31.7,0.9-33.8-3.8-72-5
			c-14-0.4-41.3-0.6-75,3.7c-21,2.7-36.4,6.2-53,9.9c-75,17-72.1,27.3-94,23.6c-35-6.1-42.7-32.4-80-29.8c-6.5,0.5-6,1.2-32,5
			c-22.3,3.2-33,4.1-50,6.2c-33.9,4.1-30.7,5.3-66,9.9c-44,5.7-45.1,3.5-69,8.7c-19.7,4.3-23.4,6.8-37,7.4c-21.8,1-26.9-4.8-47-2.5
			c-13.9,1.6-24.2,5.8-37,11.2c-28.8,11.9-42.4,24.8-46,19.8C20.1,1088.3,25.2,1076.4,29.9,1068.6z"/>
		<path class="st3" d="M18.4,711.4c9-35.1,25.3-42.6,45.4-47.7c31.7-7.9,34.2-0.2,64-6.4c22.2-4.6,44.5-14,53.1-17.5
			c22.5-9.4,22.1-11.8,30.1-12.7c27.2-3.5,35.7,23,57.4,30.2c29,9.5,28.7-32.7,73.3-47.7c16.5-5.6,11,2.1,70,0
			c18.2-0.6,30.6-1.1,48.1-3.2c32.9-4,36-8.1,53.6-6.4c23.6,2.2,35.4,3.3,50.3,20.7c15.3,17.6,17.5,33.4,32.3,42.9
			c11.4,7.3,17.8,3,35.6,0c11.1-1.9,29.3-4.9,47.6,0c35.9,9.5,43.3,42.1,66.2,25.4c10-7.3,17.3-19.9,19.1-12.7
			c2.1,8.6-4.7,43.5-14.8,52.4c-8.7,7.6-12.6-10.5-31.7-23.8c-12-8.4-21.8-9.2-27.9-9.5c-10.8-0.6-15,2.9-27.9,6.4
			c-8.3,2.2-26.2,7.2-46,3.2c-7.3-1.4-22-5.6-39.9-19.1c-25.3-19.2-26.8-34.6-43.2-38.1c-15.4-3.3-14.5,10-35.6,9.5
			c-17.6-0.5-19.9-9.7-38.8-9.5c-14.1,0.2-13.7,5.2-29.5,6.4c-17.3,1.1-18.5-4.9-39.4-6.4c-7.7-0.5-22.6-0.8-41,4.8
			c-11.5,3.5-19.9,7.9-29,12.7c-41,21.8-39.4,35-51.4,30.2c-19.1-7.8-23.4-41.5-43.8-38.1c-3.6,0.6-3.3,1.6-17.5,6.4
			c-12.2,4.1-18.1,5.2-27.4,7.9c-18.5,5.2-16.8,6.8-36.1,12.7c-24.1,7.3-24.7,4.4-37.7,11.1c-10.8,5.6-12.8,8.7-20.2,9.5
			c-11.9,1.3-14.7-6.2-25.7-3.2c-7.6,2.1-13.2,7.5-20.2,14.3c-15.8,15.3-23.2,31.8-25.2,25.4C13.1,736.7,15.8,721.4,18.4,711.4z"/>
	</g>
	<g id="Sonne">
		<path class="st4" d="M1301.7-1.8C1324.6,32.1,1338,73,1338,117c0,117.4-95.1,212.5-212.5,212.5S913,234.4,913,117
			c0-43.6,13.1-84.2,35.7-117.9"/>
	</g>
	<g id="Baum">
		<path class="st5" d="M336.7,429.7c-3.6-7.7,2.7-11.2,5-37c3-33.8,4.5-50.7-2-62c-14-24.5-54.1-36.5-77-28c-3.6,1.3-13,5.5-27,8
			c-4.1,0.7-20.2,3.6-21,1c-1.2-3.6,25.5-22.5,57-25c39.2-3.2,60.9,21.1,72,11c7.4-6.7,1.6-24.3-9-58c-4.7-14.8-7-22.2-11-29
			c-11.3-19.2-22.9-22.4-44-47c-6.4-7.4-7.9-14-16-21c-8.1-7-15.3-9.5-24-13c-36.9-14.8-39.8-22.1-63-26c-18-3-25.2-0.2-29,4
			c-3.1,3.4-3.8,7.6-4,9c-2.5,17.1,19.1,32.8,18,34c-0.7,0.7-8.6-4-15-13c-5.8-8.1-6.1-14.1-8-14c-5.1,0.2-7.1,42.1-8,42
			c-0.5,0-1.1-10,1-22c2.3-12.7,7-23.4,9-28c4.5-10.1,5.9-10.2,6-14c0.3-13.5-16.9-23.9-16-25c0.4-0.5,3.7,1.2,7,4
			c8.2,6.9,8,13.2,14,17c4.4,2.8,9,2.2,13,2c16.3-0.7,33.9,7.2,69,23c10.9,4.9,15.7,7.6,17,6c2.4-2.8-10.4-15.1-32-45
			c-5.9-8.2-15.9-22.4-24-43c-3.1-7.9-4.4-12.9-4-13c1-0.4,12.4,32.6,28,50c2.8,3.1,7.1,7.3,13,15c5.2,6.8,7.1,10.4,8,10
			c1.7-0.7-3.6-12.8-7-33c-2.4-14.5-1-15.9-4-24c-4.1-11-11.1-20.2-10-21c0.4-0.3,1.6,0.7,2,1c8.8,7.3,12.8,28.8,14,35
			c2.4,12.7,3.6,19.1,5,25c3.6,15.3,8.3,29.2,9,29c0.2,0,0.2-1-5-27c0,0-0.7-3.5-5-29c-1.3-7.8-2-11.8-1-16
			c2.4-10.4,10.9-17.7,12-17c0.9,0.6-4.3,6-7,16c-2.3,8.5-0.8,12.9,4,42c2.5,15.5,2.7,18,5,19c10,4.2,34-31.8,35-31
			c0.4,0.3-3.3,5.5-5,8c-4.4,6.3-9,12.9-16,20c-9.2,9.4-10.6,7.6-12,11c-3.6,8.7,6.3,19.3,32,49c23.9,27.5,28.3,33.4,34,32
			c7.9-1.9,10.6-15.7,15-39c3.8-20,5.9-31.9-1-43c-0.8-1.3-8.9-13.8-20-14c-6-0.1-11.8,3.5-12,3c-0.3-0.6,9.5-4.2,9-7
			c-0.4-2.5-9-3.1-9-3s5.2,0.4,13,3c9.4,3.1,12.5,6.2,14,5c2.8-2.4-5.7-16.6-7.1-18.9c-5.4-8.9-10-16.5-17.9-22.1
			c-18.6-13.3-44-7.5-44-9c0-0.7,6-1.9,13-2c13-0.2,19.6,3.2,21,1c2.2-3.5-11-16-11-16s8.2,10.1,10,9c1.6-0.9-2.1-10-2-10
			s1.7,7.1,5,13c4.7,8.6,10.4,10.5,18,17c15.1,12.9,19.7,28.6,21,28c0.8-0.4-2.3-7-6-18c-9.5-28-8.1-41.1-6-49c0.9-3.6,2.3-7.1,3-7
			c1.9,0.4-3.3,29.2,0,30c2.8,0.7,10.1-19.4,11-19c0.5,0.2-0.5,5.4-3,11c-3.8,8.7-7.7,11-7,16c0.4,2.5,1.9,5.6,4,6s3.5-2,7-2
			c1.8,0,3.1,0.6,4,1c7.9,3.6,14,19.3,20,19c4-0.2,6.2-7.4,7-7c0.6,0.3-0.1,4.4-3,7c-2.3,2.1-4.1,1.4-5,3c-1.3,2.3,1.3,5.4,4,11
			c3,6.3,4.4,11.8,4,12c-1,0.5-16.4-42.3-31-42c-0.7,0-3.8,0.1-5,2c-2.2,3.4,3,10.2,5,13c7.4,10.7,7.7,22.3,9,37
			c0.7,8,0.4,14,0.1,19.6c-1.2,20.7-5.4,25.8-8.1,49.4c-1.2,10.6-1.8,15.9-1,23c1.7,14.7,8.5,34.7,17,35c6.7,0.2,13.1-11.8,19-23
			c3-5.6,4.6-10,5-11c3.3-8.9,4.4-16.3,6-34c1.4-15.6,2.1-26,3-26c1.5,0-0.2,26,7,28c6.1,1.7,15.5-14.4,16-14
			c0.4,0.3-8.7,11.8-16,25c-9.2,16.8-4.9,17.5-14,36c-6.4,13-14.7,25.4-15,40c-0.1,2.8,0.2,6.2,2,7c2.6,1.2,7.1-3.3,12-9
			c18-20.7,28.8-42.5,31-47c5-10.1,6.3-14.2,7-14c1.4,0.5-1.6,20.6-12,40c-2.7,5.1-2.9,4.4-12,19c-8.8,14.1-13.2,21.2-15,25
			c-12.6,26.7-5.6,62.9,7,67c3.7,1.2,7.1-0.6,10,2c4.4,4,1.5,12.5,1,18c-1.7,17.6,18.5,30.6,36,49c14.6,15.3,15,17.1,14.6,19.1
			C443.4,452.6,350.3,459,336.7,429.7z"/>
		<path class="st6" d="M390.2,350.2c-2.2-0.3-3.8,1.8-4,2c-1.5,2-1.5,5,0,7c1.6,2.2,5.1,3.4,7,2c2.1-1.6,1.2-5.3,1-6
			C394.1,354.6,393.1,350.6,390.2,350.2z"/>
		<path class="st6" d="M415.2,400.2c-0.8,1.3-10.8-2.5-20-8c-6.3-3.7-12.3-7.3-18-14c-7-8.2-9.5-16.4-13-28c-1.7-5.7-4-13.4-5-24
			c-1.2-12.5-2.4-26.5,5-39c0.1-0.2,0.1-0.1,9-12c0,0,3-3.9,12-16c18.1-24.1,21.7-29.2,22-29s-3.7,6.4-16,26
			c-11.4,18.3-14.5,23.4-17,32c-2.4,8.5-2.8,15.4-3,20c-0.4,8.9-0.7,18.2,4,28c2.3,4.8,4.4,9.1,9,11c4.5,1.8,8.3,0,11,3
			c1.6,1.8,1.8,4.2,2,7c0.3,4.2-0.6,7.1-1,9c-1.5,7.9,3.1,15.4,6,20C408.2,395.8,415.9,399,415.2,400.2z"/>
		<path class="st6" d="M366.2,265.2c-1,0.2-3.4-5.2-4-11c-1.5-14.2,8.3-24.3,10-26c0.5-0.5,3.4-3.5,4-3c1,0.8-6.4,8.8-9,21
			C364.9,256.8,367.4,265,366.2,265.2z"/>
		<path class="st6" d="M345.2,230.2c-0.3,0.1-7.9-9.6-11-24c-2.1-9.8-1.2-17.5,0-28c0.8-7.1,1-4.5,5-26c3.6-19.4,4.2-25.9,4-32
			c0-1-0.2-3.9,0-8c0.3-6.3,1.3-14,2-14c0.9,0,1.5,12.7,1,24c-0.4,8.7-1.5,15.8-2,19c-1,6.1-1.4,6.3-3,15c-1.5,7.8-2.3,13.7-3,19
			c-1.4,10.2-2.1,15.4-2,20c0.1,3.2,0.4,9,2,16C340.9,222.9,345.4,230.1,345.2,230.2z"/>
		<path class="st7" d="M342.2,389.2c0.6-4.4,1.3-10.5,2-18c0.8-9.7,1.3-14.5,1-19c-0.1-0.9-1.1-15.3-9-27c-12.7-18.8-37.3-22-37-23
			c0.3-0.8,15-0.6,28,8c36.1,23.9,30.4,94.4,27,95c-0.7,0.1-1.3-2.7-6-9C345.9,393.2,343.8,390.8,342.2,389.2z"/>
		<path class="st7" d="M346.2,282.2c-0.4-5.6-1.7-9.9-2-11c-2.7-9.3-5.2-18.7-8-28c-6.6-21.5-6.5-24.5-11-32c-3.6-5.9-7.2-10-9-12
			c-8.2-9.1-13-10.5-23-21c-4.8-5-9.4-10.6-9-11c0.3-0.3,5.5,4.5,16,14c8.2,7.5,12.2,11.3,16,15c3.9,3.8,5.9,5.7,7,7
			c6.6,7.4,7.5,13.2,13,27c7.3,18.6,12.8,26.3,14,39c0.4,4.2,0.2,7.4,0,9c-0.9,9.7-4.7,17.1-5,17c-0.2-0.1,0.6-2.1,1-6
			C346.3,288.1,346.5,285.7,346.2,282.2z"/>
		<path class="st8" d="M390.2,351.2c-1.5,0.4-2.3,3-2,5c0.4,2.9,3.2,5.5,5,5c1.4-0.4,2-2.5,2-4C395.2,353.9,392.1,350.7,390.2,351.2
			z"/>
		<path class="st9" d="M379.7,348.1c0.6-0.1,1.1,2.8,3.4,3.3c0.9,0.2,1.4-0.1,1.9,0.3c0.8,0.7,0.1,1.9,0.1,4.1
			c0,0.8,0.1,3.1,1.5,5.2c0.3,0.5,1.4,2,3.3,2.7c3,1.1,5.7-0.7,6.3,0.3c0.3,0.5-0.1,1.3-0.4,1.6c-1.1,1.4-3.5,1-4.9,0.7
			c-0.6-0.1-2.8-0.5-5.3-2.2c-2.6-1.8-4-4-4.4-4.7C378.1,354.3,378.8,348.3,379.7,348.1z"/>
	</g>
	<path class="st10" d="M469.3,2.1C346.1,288.1,398.5,399.9,434.4,445c95.7,119.9,280.1,23.4,771.5,41
		c375.2,13.4,512,78.4,599.1-15.9c102.5-111,36.6-334.5-14.8-467.9C1349.9,2.1,909.6,2.1,469.3,2.1z"/>
</g>
<path id="Boden2_x3F_" class="st11" d="M1920,1080H0c0-94.8,0-189.6,0-284.4c0-46.9,0-93.7,0-140.6c640,0,1280,0,1920,0V1080z"/>
<path class="st12" d="M1.4,434c321,0,642,0,963,0c414.8,0,957,0,957,0s0,0,0,0.1c6,62,3.6,67.6,1,70.9c-7.5,9.7-22.8,9.3-37,9
	c-29.6-0.7-34.5-17.8-57-14c-25.1,4.2-32.5,20.9-49,17c-20.1-4.8-21.1-32.7-38-34c-14.7-1.1-17.2,19.9-37,24
	c-15.9,3.3-21.7-8.7-64-25c-17.3-6.7-25.9-10-36-11c-27-2.7-34.4,8.8-60,6c-21.3-2.3-22.3-10.9-41-13c-24.2-2.7-32,10.7-61,20
	c-56.6,18.2-116.2-4.2-129-9c-19.6-7.4-20.6-11.2-34-13c-33.6-4.5-48.8,16.8-82,21c-30,3.8-37.4-10.9-75-19
	c-44.4-9.5-54.5,6.7-133,16c-14.5,1.7-58.3,2.5-146,4c-79.2,1.4-84.4,0.4-103,5c-36.4,8.9-53.1,21.5-83,16
	c-26.6-4.9-26.3-17.3-55-26c-35.3-10.7-48,4.3-100,5c-46,0.6-46.8-10.9-99-13c-27.6-1.1-28.5,2.1-98,9c-58.3,5.8-95.7,9.6-145,9
	c-31.9-0.4-36.3-2.1-74-2c-39.3,0.2-85,2.3-85,2C1.4,489,1.4,489,1.4,434z"/>
<path class="st13" d="M1.4,509c3.7,15.3,76,5,76,5c67.4-9.6,141.8-14.9,191-14c82.4,1.4,79.7,19.6,144,13c48.4-5,69.6-17.3,111-7
	c21.8,5.4,35.9,13.8,70,19c8.5,1.3,27.4,3.8,57,3c69.2-1.8,77.6-18.2,132-19c43.4-0.6,40,9.8,94,10c36.4,0.1,65.7-4.5,93-9
	c70.8-11.6,68.3-20.9,98-19c51,3.3,61.1,31.1,104,26c30.8-3.6,28.9-18.4,64-29c52.6-15.9,67,14.3,153,13c46-0.7,54.1-9.5,97-5
	c18.9,2,34.5,5.5,61,4c31.7-1.8,31.4-8.1,51-7c39,2.1,41.9,26.9,80,29c25.7,1.4,33-9.4,59-3c18.3,4.5,18.2,10.8,35,14
	c24.2,4.6,28.2-7.8,61-9c13.8-0.5,37.1,0.8,61,5c12.4,2.2,22.8,4.7,28-1c4.6-5.1,4.5-16.3-1-22c-10.1-10.3-27.8,8.1-53-1
	c-11.2-4-15.5-10.5-30-12c-8.2-0.9-14.6,0.3-18,1c-23.6,4.6-28.6,18.7-40,16c-1.8-0.4-8.6-7.6-22-22c-9.3-10-13.6-14.6-19-14
	c-3.7,0.4-5,3-10,8c-3.5,3.5-17.6,17.5-31,18c-7.9,0.3-13.8-4.1-18-7c-25.4-17.4-62.8-28.8-90-29c-22.9-0.1-22.1,7.8-45,6
	c-25.1-2-31.2-11.9-51-13c-24.3-1.3-28.8,13-58,22c-34.5,10.6-66.8,2.6-110-8c-38.5-9.5-40.6-16.4-63-16c-32.8,0.6-38.5,15.6-70,20
	c-40,5.6-49.9-16-97-21c-38.7-4.1-39.6,9.6-106,19c-29.3,4.1-26.5,1.1-135,4c-61.4,1.7-92.2,2.5-108,5c-42,6.7-67.8,27.4-96,14
	c-10.1-4.8-15.8-11.3-34.5-18.5c-7.8-3-21.7-7.6-41.5-9.5c-40.8-4-50.4,8.8-88,9c-35.1,0.2-36.6-10.9-75.5-13.5
	c-32.2-2.1-50.1,4.2-81,10c-27.3,5.1-89.3,5.6-213.5,6.5c-24.7,0.2-49.6,4.6-74,1c-12.3-1.8-37.5-6.6-41,1c-1.2,2.6,0.9,4.9,1,14
	C2.5,504.1,0.9,506.8,1.4,509z"/>
<g id="Baum_00000162344678067551632250000012019085641931293078_">
	<path class="st14" d="M421.3,401.6c-13.8-16.3-21.3-25.2-21.5-37.4c-0.2-8,3-14.4-1-18c-2.9-2.6-6.3-0.8-10-2
		c-12.6-4.1-19.6-40.3-7-67c2-4.2,9.3-11.7,15-25c1.4-3.3,2.4-6.1,3-7.9c-1,0.7-3,1.8-5.7,2.2c-2.1,0.3-3.8,0.1-4.9-0.2
		c-2,2.6-4.2,5.3-6.5,7.9c-5.5,6.2-8.7,9.4-12,9c-4.6-0.6-7.1-8.2-7.3-8.8c-4.4-14.2,11.8-29.9,13.9-31.9
		c-5.7,9.5-14.3,21.2-23.3,20.2c-12.9-1.5-20.1-28.9-21.7-28.3c-0.7,0.3,0.1,5.2,7.3,27.9c14.5,35.2,12.4,48.1,6.8,52.9
		c-11,9.5-33.5-14.1-72-11c-31.5,2.5-58.2,21.4-57,25c0.8,2.6,16.9-0.3,21-1c14-2.5,23.4-6.7,27-8c22.9-8.5,63,3.5,77,28
		c6.5,11.3,5,28.2,2,62c-0.6,7-1.5,12.3-2.5,16.5c-2.2,9.8-2.6,14.8-3.5,17.3c-6.5,16.5-30.1,20.7-29.5,22.8
		c0.5,1.8,17.2-2.3,28.4-4.1c48-8.1,87,8.5,89.5,1.2c1.2-3.6-7.9-9.2-6.5-11.3c1.4-2.2,12.4,3.1,20.1,5.9c28.5,10.6,56.6,5.4,56.9,3
		c0.3-2.6-32.4-0.8-59.9-23.1C430.6,412.6,425.5,406.5,421.3,401.6z"/>
	<path class="st15" d="M391,347.7c-2.2-0.3-3.8,1.8-4,2c-1.5,2-1.5,5,0,7c1.6,2.2,5.1,3.4,7,2c2.1-1.6,1.2-5.3,1-6
		C394.9,352.1,393.9,348.1,391,347.7z"/>
	<path class="st15" d="M404.4,383.7c-2.9-4.6-7.5-12.1-6-20c0.4-1.9,1.3-4.8,1-9c-0.2-2.8-0.4-5.2-2-7c-2.7-3-6.5-1.2-11-3
		c-4.6-1.9-6.7-6.2-9-11c-4.7-9.8-4.4-19.1-4-28c0.2-4.6,0.6-11.5,3-20c2.5-8.6,5.6-13.7,17-32c1.6-2.6,3.1-4.9,4.4-7
		c-1-0.1-1.9-0.1-2.8-0.1c-2.2,2.9-4.7,6.3-7.6,10.2c-9,12.1-12,16-12,16c-8.9,11.9-8.9,11.8-9,12c-7.4,12.5-6.2,26.5-5,39
		c1,10.6,3.3,18.3,5,24c3.5,11.6,6,19.8,13,28c5.7,6.7,11.7,10.3,18,14c9.2,5.5,19.2,9.3,20,8C418.1,396.5,410.4,393.3,404.4,383.7z
		"/>
	<path class="st16" d="M344.2,399.4c0.6-5,1.3-12,2.1-20.6c0.8-11.1,1.3-16.6,1-21.8c-0.1-1-1.1-17.5-9.3-30.9
		c-13.1-21.5-38.4-25.2-38.1-26.3c0.3-0.9,15.4-0.7,28.8,9.2c37.1,27.4,31.3,108.1,27.8,108.8c-0.7,0.1-1.3-3.1-6.2-10.3
		C348.2,404,345.9,401.2,344.2,399.4z"/>
	<path class="st16" d="M345,246.3c-5.3-5.5-7-6.2-7.5-5.8c-0.8,0.6,0.4,3.6,6.7,20.6c1.1,2.8,2,6.2,2.4,9.8c0.4,3.2,0.1,3.9,0.5,8.7
		c0,0,0.3,3,0.1,5.7c0,0.5-0.1,0.9-0.1,1.3c-0.4,3.9-1.2,5.9-1,6c0.3,0.1,4.1-7.3,5-17c0.2-1.6,0.4-4.8,0-9
		C350.3,259.2,348.1,253.5,345,246.3z"/>
	<path class="st17" d="M391,348.7c-1.5,0.4-2.3,3-2,5c0.4,2.9,3.2,5.5,5,5c1.4-0.4,2-2.5,2-4C396,351.4,392.9,348.2,391,348.7z"/>
	<path class="st5" d="M216.9,308.8c0.5,0.8,12.2-9.6,32-15.1c11.7-3.3,21.8-3.6,27.3-3.6c8.1,0.1,14.1,1.2,18.7,2
		c21.9,4,28.2,10.7,41.5,8.1c5.6-1.1,10.5-3.4,10.4-4.1c-0.2-0.9-7.9,1.4-17.2,0.6c-10.2-0.9-13.8-4.6-24.3-8.2
		c-13.2-4.5-24.5-4.5-29.6-4.4c-19.1,0.3-33,6.8-37.6,9.1C225.1,299.5,216.4,308.1,216.9,308.8z"/>
	<path class="st5" d="M377.7,257.5c-0.8-0.6-6.4,7.1-9.1,5.7c-1.4-0.7-1.1-3.3-1.8-3.3c-1,0-3,4.6-1.2,6.5c1.4,1.5,4.4,0.5,5,0.3
		C376,264.9,378.4,258,377.7,257.5z"/>
	<path class="st5" d="M388.1,346.7c0.3,1-0.4,2-1.1,3c-0.9,1.2-1.8,2.5-3.3,2.6c-1.6,0.2-3.4-1-3.9-2.4c-0.6-2,1.4-4,0.9-4.4
		c-0.5-0.4-2.1,0.8-2.1,0.9c0.1,0.1,3.1-2.3,6.5-1.7C385.4,344.8,387.7,345.2,388.1,346.7z"/>
</g>
<path class="st16" d="M227.6,167.6"/>
<g>
	<path class="st18" d="M649.3,433.7c0,2.1,20.6,2.1,23.5,11.5c1.5,4.7-2.1,9.1,0.3,11.2c1.8,1.5,6.2,0.6,8.2-1.8
		c2.6-3.2,0.3-7.9,2.6-9.1c1.2-0.6,3.2,0.3,3.5,0.6c3.5,1.8,2.6,6.2,5.6,7.6c1.8,0.9,4.7,0.6,6.2-0.9c2.6-2.4,0-5.9,1.5-9.7
		c2.4-6.8,14.7-7.1,14.7-8.5C715.1,431,649.3,430.7,649.3,433.7z"/>
	<path class="st18" d="M726.3,421.9c-14.7,23.5-72.3,22.3-85.8-3.8c-8.8-17.6,3.8-42.9,19.4-55.6c4.4-3.5,15.9-12.9,30.3-10.6
		c9.4,1.5,15.6,7.6,19.7,11.8C722.8,376.9,737.2,404.3,726.3,421.9z"/>
	<path class="st19" d="M715.4,424.3c-18.8,9.4-48.5,9.4-66.1-1.8c-5-2.9-10.9-7.9-13.5-6.2c-1.8,1.2-1.5,5.3-0.6,7.6
		c5.3,15,47,13.2,58.8,12.9c30.6-1.2,35.3-8.8,36.2-10.9c1.2-2.1,2.1-5.9,0.6-7.3C728.3,416.6,721.3,421.6,715.4,424.3z"/>
	<path class="st19" d="M683.1,374c-0.9,0.3,1.8,8.2,2.9,12.3c1.8,6.2,2.4,6.5,3.2,9.7c2.1,7.6,2.4,14.1,2.4,20.6
		c0.3,9.1-0.9,14.4-0.3,14.4c0.9,0.3,3.2-6.5,4.1-14.1c0,0,1.8-13.8-4.1-28.8c-1.5-4.1-3.2-7.3-4.4-9.1
		C685.4,376.3,684,374,683.1,374z"/>
	<path class="st20" d="M654.6,349.9c1.5,13.8,15.3,20.3,16.2,20.9c10,4.7,24.4,4.1,33.2-5c10.3-10.6,8.5-27.6-0.6-37.3
		c-0.3-0.3-10-10.3-23.8-8.5C664.8,322,653.1,335.8,654.6,349.9z"/>
	<path class="st20" d="M704.8,340.2c1.8,2.6,10,2.1,12.3-2.1c0.6-1.2,1.2-2.9,0.3-4.4c-1.5-2.4-5.9-3.2-9.1-1.5
		C705.1,334,703.4,338.4,704.8,340.2z"/>
	<path class="st20" d="M658.7,341.1c-1.8,2.6-10,2.1-12.3-2.1c-0.6-1.2-1.2-2.9-0.3-4.4c1.5-2.4,5.9-3.2,9.1-1.5
		C658.4,334.9,659.8,339,658.7,341.1z"/>
	<path class="st18" d="M717.5,378.7c-1.2-0.6-2.6-2.1-2.6-10.9c0-3.5,0.3-19.7,5.3-20.6c1.8-0.3,2.1,1.2,5.6,2.4
		c5.3,1.8,7.6-0.6,9.4,0.6c4.1,2.9-0.9,22-12.1,27.9C719.5,379.9,718.1,379.3,717.5,378.7z"/>
	<path class="st19" d="M728.6,345.8c-4.7-0.3-6.8-4.7-9.4-3.8c-1.5,0.3-2.4,2.4-2.4,3.8c0.3,3.5,5.9,5.6,9.1,6.2
		c5,0.9,12.1-0.3,13.5-4.1c0.6-1.2,0.6-3.2-0.6-4.1C736.9,342.2,733.6,346.6,728.6,345.8z"/>
	<path class="st19" d="M699.5,354.6c-4.4,2.1-8.2-6.5-18.2-7.3c-10.9-1.2-17.3,7.9-21.5,5.3c-5-3.2,2.6-18.2,0-19.4
		c-2.1-1.2-10.6,9.4-13.5,21.8c-2.4,9.4,0.3,12.3,0.9,13.2c1.8,2.1,4.7,3.2,6.8,2.4c1.5-0.6,1.5-2.1,3.2-5.9
		c2.1-4.1,4.4-6.5,4.4-6.5s-9.4,8.8-7.3,15.9c1.5,5.6,9.7,9.1,13.5,7.1c4.1-2.6,2.6-12.6,2.9-12.6s-2.1,11.8,2.9,15.3
		c2.9,2.1,8.8,1.2,11.5-1.8c3.2-3.5,2.1-9.7,2.6-9.7c0.6,0-0.6,6.5,2.6,9.1c2.9,2.6,9.7,1.8,13.2-1.8c5.3-5,3.5-15.3,3.8-15.3
		s-1.5,9.1,1.8,10.9c2.6,1.5,8.8-2.4,10.9-7.6c1.2-3.5,0.6-6.5-2.6-14.4c-5-12.6-9.1-22.3-11.8-21.8
		C701.9,332.2,706.6,352.2,699.5,354.6z"/>
	<path class="st18" d="M647.5,369.9c1.2,0.6,2.6,2.1,2.6,10.9c0,3.5-0.3,19.7-5.3,20.6c-1.8,0.3-2.1-1.2-5.6-2.4
		c-5.3-1.8-7.6,0.6-9.4-0.6c-4.1-2.9,0.9-22,12.1-27.9C645.4,368.7,646.9,369.3,647.5,369.9z"/>
	<path class="st19" d="M636.3,402.8c4.7,0.3,6.8,4.7,9.4,3.8c1.5-0.3,2.4-2.4,2.4-3.8c-0.3-3.5-5.9-5.6-9.1-6.2
		c-5-0.9-12.1,0.3-13.5,4.1c-0.6,1.2-0.6,3.2,0.6,4.1C628.1,406.3,631.3,401.9,636.3,402.8z"/>
	<path class="st18" d="M645.1,414.3c0,1.5,0,3.2-0.9,3.8c-1.2,0.9-3.2-0.6-4.4-1.8c-1.8-2.1-1.8-4.4-2.1-4.4
		c-0.6,0,1.8,8.5-1.2,10.6c-1.8,1.2-5.6-0.3-7.3-2.6c-1.5-2.4-1.2-5-0.6-9.4c0.6-3.5,0.9-5,2.1-6.2c2.6-2.6,8.8-2.4,12.1,0.9
		C645.1,407.8,645.1,411,645.1,414.3z"/>
	<path class="st21" d="M679.8,351.4c-4.7-0.9-7.3-2.6-8.2-1.5c-1.2,1.5,0.3,5.3,2.1,7.6c3.2,4.4,9.7,8.2,14.7,4.7
		c3.5-2.4,5.6-8.2,4.1-10.3C691,349.6,687.5,353.1,679.8,351.4z"/>
	<path class="st19" d="M683.7,344.6c-3.2,1.5-5-1.2-8.8-0.6c-3.2,0.6-2.9,2.6-7.3,5c-4.4,2.4-7.9,1.8-8.2,2.9c0,1.5,3.8,3.2,6.8,3.8
		c1.5,0.3,8.2,1.8,12.1-1.8c2.4-2.4,1.5-5.9,3.2-6.2c1.8-0.3,2.6,3.5,7.3,6.5c1.5,0.9,5,3.2,8.5,2.1c4.4-1.2,7.1-6.5,5.9-8.2
		c-1.2-1.8-4.7,0.6-8.8-1.5c-3.5-1.8-3.8-5-6.2-5C686.3,341.7,686,343.4,683.7,344.6z"/>
	<path class="st22" d="M683.7,330.8c-0.3,2.4,1.5,4.4,3.5,5c2.4,0.6,5-0.3,5.9-2.1c1.5-2.6-1.5-7.1-4.7-7.1
		C686.3,327,684,328.4,683.7,330.8z"/>
	<path class="st22" d="M672.8,329.6c-0.3,2.4,1.5,4.4,3.5,5c2.4,0.6,5-0.3,5.9-2.1c1.5-2.6-1.5-7.1-4.7-7.1
		C675.4,325.5,673.4,327.2,672.8,329.6z"/>
	<path class="st18" d="M661.3,311.4c6.8-4.7,11.8-7.1,12.1-6.8c0.3,0.6-15.9,10-14.4,14.1c1.2,2.6,8.2,0,25.9,0.9
		c13.2,0.6,21.5,2.4,23.8-1.5c0.9-1.8,0.3-3.5,0-5c-2.4-9.1-14.4-14.7-23.8-16.2c-12.9-2.1-22.9,3.5-24.7,4.7
		c-15,8.5-19.7,25.6-18.2,26.5C643.1,329,648.1,320.8,661.3,311.4z"/>
	<path class="st18" d="M676.9,339.3c0.3,1.8,3.2,3.8,5.9,3.2c2.9-0.6,4.7-3.2,4.4-5.9c0-1.2-0.6-2.6-2.1-3.2
		C681.9,332.2,676.6,336.4,676.9,339.3z"/>
	<path class="st19" d="M712.5,324.6c-0.6-6.5-15.3-11.8-27.6-12.1c-10.6-0.3-26.2,3.2-28.8,12.1c-0.6,2.1-0.9,5.9,1.2,7.3
		c5,3.2,14.4-12.1,27.6-10.9c10.9,0.9,15.9,12.6,22.6,10C710.1,330.2,712.5,327.2,712.5,324.6z"/>
	<path class="st19" d="M635.2,328.1c0,2.1,1.2,4.4,3.2,5c2.6,0.6,5.3-2.1,5.6-4.7c0-2.4-2.1-5.3-4.4-5.3
		C637.2,323.1,635.4,326.1,635.2,328.1z"/>
	<path class="st23" d="M679,393.4c0.6,1.8,2.6,2.6,4.4,1.8c1.5-0.6,2.1-2.4,1.5-3.8c-0.6-1.2-1.8-2.1-3.2-1.8
		C679.8,389.9,678.4,391.9,679,393.4z"/>
	<path class="st23" d="M680.1,402.8c0,2.4,3.5,4.1,5.9,3.2c1.2-0.3,2.1-1.8,2.1-2.9c0-1.8-1.8-3.5-3.8-3.5
		C682.2,399.6,680.4,401.3,680.1,402.8z"/>
	<path class="st23" d="M681.3,417.2c0,2.4,2.6,4.7,4.7,4.1c1.8-0.3,2.6-2.6,2.6-4.4c0-1.5-0.9-3.2-2.4-3.8
		C684.2,412.5,681.3,414.6,681.3,417.2z"/>
	<path class="st23" d="M685.7,334c0.6,0.6,1.8,0.3,2.4-0.6c0.6-1.2-0.9-2.6-1.5-2.6C685.7,330.8,684.8,333.4,685.7,334z"/>
	<path class="st23" d="M679.8,334c-0.6,0.6-1.8,0.3-2.4-0.6c-0.6-1.2,0.9-2.6,1.5-2.6C679.8,330.8,680.7,333.4,679.8,334z"/>
	<path class="st19" d="M691.9,324.6c0.6,2.4,7.6,6.5,10.9,5.9c0.9,0,1.8-0.6,1.5-1.8c-0.3-1.8-3.8-4.7-7.1-5.6
		C693.9,322.2,691.3,323.1,691.9,324.6z"/>
	<path class="st19" d="M673.7,324c-0.6,2.4-7.6,6.5-10.9,5.9c-0.9,0-1.8-0.6-1.5-1.8c0.3-1.8,3.8-4.7,7.1-5.6
		C671.6,321.7,674.5,322.5,673.7,324z"/>
	<path class="st18" d="M719.8,334.3c0-1.5,0-3.2,0.9-3.8c1.2-0.9,3.2,0.6,4.4,1.8c1.8,2.1,1.8,4.4,2.1,4.4c0.6,0-1.8-8.5,1.2-10.6
		c1.8-1.2,5.6,0.3,7.3,2.6c1.5,2.4,1.2,5,0.6,9.4c-0.6,3.5-0.9,5-2.1,6.2c-2.6,2.6-8.8,2.4-12.1-0.9
		C719.5,340.8,719.5,337.5,719.8,334.3z"/>
	<path class="st24" d="M673.1,456.3c-0.6,0.9-3.8-0.9-5.3,0.6c-0.9,1.2-0.3,3.5,0.3,4.7c2.4,4.7,10.6,7.1,13.8,4.1
		c1.5-1.2,1.5-3.5,1.5-7.9c0.3-4.4,0.3-6.5-1.2-7.9c-2.9-3.5-10.9-2.1-11.8,0.3C669.8,452.2,674,454.8,673.1,456.3z"/>
	<path class="st24" d="M698.6,454.5c0.6,0.9,3.8-0.9,5.3,0.6c0.9,1.2,0.3,3.5-0.3,4.7c-2.4,4.7-10.6,7.1-13.8,4.1
		c-1.5-1.2-1.5-3.5-1.5-7.9c-0.3-4.4-0.3-6.5,1.2-7.9c2.9-3.5,10.9-2.1,11.8,0.3C701.9,450.4,697.8,453.1,698.6,454.5z"/>
</g>
<g>
	<path class="st25" d="M1356.5,278c-6.2,9.4-13.8,11.2-20.9,25c-1.8,3.2-3.8,7.6-2.4,9.1c3.8,3.8,25.9-15.3,29.1-12.1
		c2.1,2.1-5.6,11.5-17.6,31.5c-12.6,20.6-15.6,28.8-14.4,29.4c1.8,1.2,11.5-15.6,26.5-16.5c1.8,0,5.6-0.3,7.1,2.1
		c2.9,4.4-4.7,14.4-8.5,19.1c-16.5,21.2-33.2,27.3-31.7,32.6c1.5,4.7,15.9,4.4,17.6,4.4c20.3-0.6,22.9-11.5,39.7-14.1
		c21.2-3.2,30.9,12.1,55.3,5.6c1.5-0.3,10.6-2.9,10.6-5.9c0-3.8-15.9-4.1-34.1-14.4c-7.3-4.4-17.6-10.3-17-17.3
		c0.6-6.2,8.8-10.9,15.3-12.6c12.3-3.2,22,3.8,23.5,1.8c1.5-2.4-8.8-11.8-18.8-19.4c-17.9-13.8-30.6-18.8-29.7-21.5
		c1.2-4.1,32.3,4.4,33.8,0.3c0.3-1.2-0.9-2.9-20.6-15s-24.1-13.5-28.2-20.3c-5.9-9.4-4.7-19.1-6.5-19.1
		C1361.8,250.7,1365.1,265.1,1356.5,278z"/>
	<path class="st19" d="M1336.9,302.7c-0.9-1.2,3.8-5,15.6-19.4c5.9-7.3,7.9-10,9.1-13.8c2.6-7.6,1.8-13.8,2.9-13.8
		c1.5-0.3,1.5,7.1,6.2,14.1c2.6,4.1,5,5.6,21.8,16.8c12.3,7.9,18.5,12.1,17.9,12.9c-0.3,0.3-1.2,0-1.8,0c-8.2-1.8-30.6-7.3-37.9-8.2
		C1352.7,289.2,1338.3,305.1,1336.9,302.7z"/>
	<path class="st19" d="M1332.7,354.1c-1.5-1.2,7.6-10,17-28.5c2.9-5.9,4.7-10.3,9.1-11.5c4.7-1.2,7.9,2.6,16.5,2.4
		c4.1,0,6.8-0.9,8.2-1.2c16.8-3.5,52.3,26.2,50.6,28.5c-0.9,1.2-8.2-8.2-22.3-8.8s-21.8,8.5-31.7,3.8c-5.3-2.4-4.4-5.6-8.8-7.1
		C1356.5,326.8,1335.1,356.2,1332.7,354.1z"/>
	<path class="st19" d="M1332.1,388.8c-0.6-1.2,4.4-3.2,12.9-11.2s8.2-10,14.1-13.8c2.1-1.2,9.1-5.9,18.5-5.9
		c7.1,0,11.2,2.9,21.8,8.5c21.8,12.1,32.9,15.3,32.3,17.1c-0.6,2.1-16.2-1.5-17.6-1.8c-18.5-4.1-23.2-10-33.8-8.5
		c-4.4,0.6-3.8,1.5-14.7,6.2C1350.7,385.9,1333.3,390.9,1332.1,388.8z"/>
	<path class="st26" d="M1370.4,295.9c1.2-0.6,2.9,1.2,4.1,2.4c1.2,1.5,2.4,2.9,4.7,8.8c1.5,4.1,2.4,6.2,1.8,7.1
		c-1.8,3.8-11.8,3.8-13.8,0.3c-0.9-1.5,0.6-2.6,1.5-8.2C1369.8,299.8,1368.9,296.5,1370.4,295.9z"/>
	<path class="st26" d="M1366,443.8c-0.3-0.6,8.5-1.8,13.2-7.6c9.7-12.9-10-36.2-1.2-45.6c4.1-4.4,12.9-4.1,18.5-1.2
		c9.4,5,5.9,16.2,14.1,27c13.8,18.8,46.2,16.5,45.9,19.7c-0.3,1.5-6.2,2.1-10,2.4c-6.2,0.6-10.9,0-12.6-0.3
		c-13.8-2.1-25.3-6.8-25.3-6.2c20.2,13.4,24.5,17.2,24.1,17.9c-0.5,0.9-8.7-3.6-24.7-7.9c-4.9-1.3-7.9-2.3-11.5-2.6
		C1379.5,437.6,1366.2,444.7,1366,443.8z"/>
	<path class="st26" d="M1367.4,336.2c-0.9,0.6,0.9,3.2,2.4,10.3c1.2,5.3,0.9,6.8,2.4,7.9c2.1,1.5,3.8,0,9.4,0.3
		c5.9,0.3,7.9,2.4,9.1,1.2c1.5-1.8-0.9-7.6-5-10.6c-1.8-1.2-2.6-1.2-5.6-2.4C1371.8,340,1368.9,335.3,1367.4,336.2z"/>
</g>
<g>
	<path class="st25" d="M1472.3,249.5c-1.8,0-0.6,9.7-6.5,19.1c-4.1,6.8-8.5,8.2-28.2,20.3c-19.7,12.1-20.9,13.8-20.6,15
		c1.5,4.1,32.6-4.4,33.8-0.3c0.9,2.6-11.8,7.6-29.7,21.5c-10,7.6-20.3,17.1-18.8,19.4c1.5,2.1,11.2-5,23.5-1.8
		c6.5,1.8,14.7,6.5,15.3,12.6c0.6,7.1-9.7,12.9-17.1,17.3c-18.2,10.3-34.1,10.6-34.1,14.4c0,2.9,9.1,5.6,10.6,5.9
		c24.4,6.5,34.1-8.8,55.3-5.6c16.8,2.6,19.4,13.5,39.7,14.1c1.8,0,16.2,0.3,17.6-4.4c1.5-5.3-15.3-11.5-31.7-32.6
		c-3.8-4.7-11.5-14.7-8.5-19.1c1.5-2.4,5.3-2.1,7.1-2.1c15,0.9,24.7,17.6,26.5,16.5c1.2-0.6-1.8-8.8-14.4-29.4
		c-12.1-20-19.7-29.4-17.6-31.5c3.2-3.2,25.3,15.9,29.1,12.1c1.5-1.5-0.6-5.9-2.4-9.1c-7.1-13.8-14.7-15.6-20.9-25
		C1471.7,263.9,1475,249.5,1472.3,249.5z"/>
	<path class="st19" d="M1466.2,290c-7.3,0.9-29.7,6.5-37.9,8.2c-0.6,0-1.5,0.3-1.8,0c-0.6-0.9,5.6-5,17.9-12.9
		c16.8-11.2,19.1-12.6,21.8-16.8c4.7-7.1,4.7-14.4,6.2-14.1c1.2,0,0.3,6.2,2.9,13.8c1.2,3.8,3.2,6.5,9.1,13.8
		c11.8,14.4,16.5,18.2,15.6,19.4C1498.5,303.9,1484.1,288,1466.2,290z"/>
	<path class="st19" d="M1465.6,330.6c-4.4,1.5-3.5,4.7-8.8,7.1c-10,4.7-17.6-4.4-31.7-3.8c-14.1,0.6-21.5,10-22.3,8.8
		c-1.8-2.4,33.8-32,50.6-28.5c1.5,0.3,4.1,1.2,8.2,1.2c8.5,0.3,11.8-3.5,16.5-2.4c4.4,1.2,6.2,5.6,9.1,11.5
		c9.4,18.5,18.5,27.3,17.1,28.5C1501.7,355,1480.3,325.6,1465.6,330.6z"/>
	<path class="st19" d="M1471.2,378.2c-10.9-4.7-10.3-5.6-14.7-6.2c-10.6-1.5-15.3,4.4-33.8,8.5c-1.5,0.3-17.1,3.8-17.6,1.8
		c-0.6-1.8,10.6-5,32.3-17.1c10.6-5.6,14.7-8.5,21.8-8.5c9.4,0,16.5,4.7,18.5,5.9c5.9,3.8,5.6,5.9,14.1,13.8
		c8.5,7.9,13.5,10,12.9,11.2C1503.5,389.7,1486.1,384.7,1471.2,378.2z"/>
	<path class="st26" d="M1468.2,305c0.9,5.6,2.4,6.8,1.5,8.2c-2.1,3.5-12.1,3.5-13.8-0.3c-0.6-0.9,0.3-2.9,1.8-7.1
		c2.4-5.9,3.5-7.3,4.7-8.8c1.2-1.2,2.9-2.9,4.1-2.4C1467.9,295.3,1467,298.6,1468.2,305z"/>
	<path class="st26" d="M1447.3,442.3c-6.4,2.1-6.9,4.2-14.7,7.6c-15.3,6.8-31.7,6.7-32.1,5c-0.1-0.5,1.2-1.7,8.1-4.2
		c2.1-0.1,6.7-0.7,11.1-4c7.6-5.6,8.3-14.5,8.4-15.9c-1.6,9.8-5.3,14-8.4,15.9c-5.4,3.3-10.8,1.3-27.6,2.2
		c-4.5,0.2-8.2,0.6-10.7,0.9c28.9-10.2,40-23.7,44.6-34.6c4.4-10.3,4.6-22.2,14.1-27c5.7-2.9,14.5-3.2,18.5,1.2
		c6.1,6.7-3.9,18.3,0.1,33.4c2.5,9.6,9.4,16,14.7,20C1467.1,440.8,1457.5,439,1447.3,442.3z"/>
	<path class="st26" d="M1456.7,341.8c-2.9,1.2-3.8,1.2-5.6,2.4c-4.1,2.9-6.5,8.8-5,10.6c1.2,1.2,3.2-0.9,9.1-1.2
		c5.6-0.3,7.3,1.2,9.4-0.3c1.5-1.2,1.2-2.6,2.4-7.9c1.5-7.1,3.2-9.7,2.4-10.3C1467.9,334.1,1465,338.8,1456.7,341.8z"/>
</g>
<g>
	<path class="st25" d="M137.1,278c-6.2,9.4-13.8,11.2-20.9,25c-1.8,3.2-3.8,7.6-2.4,9.1c3.8,3.8,25.9-15.3,29.1-12.1
		c2.1,2.1-5.6,11.5-17.6,31.5c-12.6,20.6-15.6,28.8-14.4,29.4c1.8,1.2,11.5-15.6,26.5-16.5c1.8,0,5.6-0.3,7.1,2.1
		c2.9,4.4-4.7,14.4-8.5,19.1c-16.5,21.2-33.2,27.3-31.7,32.6c1.5,4.7,15.9,4.4,17.6,4.4c20.3-0.6,22.9-11.5,39.7-14.1
		c21.2-3.2,30.9,12.1,55.3,5.6c1.5-0.3,10.6-2.9,10.6-5.9c0-3.8-15.9-4.1-34.1-14.4c-7.3-4.4-17.6-10.3-17.1-17.3
		c0.6-6.2,8.8-10.9,15.3-12.6c12.3-3.2,22,3.8,23.5,1.8c1.5-2.4-8.8-11.8-18.8-19.4c-17.9-13.8-30.6-18.8-29.7-21.5
		c1.2-4.1,32.3,4.4,33.8,0.3c0.3-1.2-0.9-2.9-20.6-15s-24.1-13.5-28.2-20.3c-5.9-9.4-4.7-19.1-6.5-19.1
		C142.4,250.7,145.6,265.1,137.1,278z"/>
	<path class="st19" d="M117.4,302.7c-0.9-1.2,3.8-5,15.6-19.4c5.9-7.3,7.9-10,9.1-13.8c2.6-7.6,1.8-13.8,2.9-13.8
		c1.5-0.3,1.5,7.1,6.2,14.1c2.6,4.1,5,5.6,21.8,16.8c12.3,7.9,18.5,12.1,17.9,12.9c-0.3,0.3-1.2,0-1.8,0c-8.2-1.8-30.6-7.3-37.9-8.2
		C133.3,289.2,118.9,305.1,117.4,302.7z"/>
	<path class="st19" d="M113.3,354.1c-1.5-1.2,7.6-10,17.1-28.5c2.9-5.9,4.7-10.3,9.1-11.5c4.7-1.2,7.9,2.6,16.5,2.4
		c4.1,0,6.8-0.9,8.2-1.2c16.8-3.5,52.3,26.2,50.6,28.5c-0.9,1.2-8.2-8.2-22.3-8.8s-21.8,8.5-31.7,3.8c-5.3-2.4-4.4-5.6-8.8-7.1
		C137.1,326.8,115.6,356.2,113.3,354.1z"/>
	<path class="st19" d="M112.7,388.8c-0.6-1.2,4.4-3.2,12.9-11.2s8.2-10,14.1-13.8c2.1-1.2,9.1-5.9,18.5-5.9c7.1,0,11.2,2.9,21.8,8.5
		c21.8,12.1,32.9,15.3,32.3,17.1c-0.6,2.1-16.2-1.5-17.6-1.8c-18.5-4.1-23.2-10-33.8-8.5c-4.4,0.6-3.8,1.5-14.7,6.2
		C131.2,385.9,113.9,390.9,112.7,388.8z"/>
	<path class="st26" d="M150.9,295.9c1.2-0.6,2.9,1.2,4.1,2.4c1.2,1.5,2.4,2.9,4.7,8.8c1.5,4.1,2.4,6.2,1.8,7.1
		c-1.8,3.8-11.8,3.8-13.8,0.3c-0.9-1.5,0.6-2.6,1.5-8.2C150.3,299.8,149.4,296.5,150.9,295.9z"/>
	<path class="st26" d="M146.5,443.8c-0.3-0.6,8.5-1.8,13.2-7.6c9.7-12.9-10-36.2-1.2-45.6c4.1-4.4,12.9-4.1,18.5-1.2
		c9.4,5,5.9,16.2,14.1,27c13.8,18.8,46.2,16.5,45.9,19.7c-0.3,1.5-6.2,2.1-10,2.4c-6.2,0.6-10.9,0-12.6-0.3
		c-13.8-2.1-25.3-6.8-25.3-6.2c-0.3,0.6,14.7,7.1,20.6,13.2c1.8,2.1,3.5,4.7,3.5,4.7c2.6,3.5,4.1,5.6,3.5,6.2
		c-1.2,1.2-11.2-8.8-28.2-14.1c-2.9-0.9-6.5-2.1-11.5-2.6C160,437.6,146.8,444.7,146.5,443.8z"/>
	<path class="st26" d="M148,336.2c-0.9,0.6,0.9,3.2,2.4,10.3c1.2,5.3,0.9,6.8,2.4,7.9c2.1,1.5,3.8,0,9.4,0.3
		c5.9,0.3,7.9,2.4,9.1,1.2c1.5-1.8-0.9-7.6-5-10.6c-1.8-1.2-2.6-1.2-5.6-2.4C152.4,340,149.4,335.3,148,336.2z"/>
</g>
<g>
	<path class="st25" d="M1296.9,278.7c-7,8.8-14.8,9.8-23.2,22.9c-2.1,3.1-4.5,7.2-3.2,8.8c3.4,4.2,27.2-12.7,30.1-9.2
		c1.9,2.2-6.7,10.9-20.6,29.6c-14.5,19.3-18.3,27.2-17.1,27.9c1.6,1.3,12.9-14.4,27.9-13.9c1.8,0.2,5.6,0.2,6.8,2.7
		c2.5,4.7-6.1,13.9-10.3,18.2c-18.4,19.5-35.7,24-34.7,29.5c1,4.8,15.4,5.9,17.1,6.1c20.2,1.3,23.9-9.2,40.9-10.3
		c21.4-1.2,29.6,14.9,54.5,10.8c1.5-0.2,10.8-1.9,11.1-4.8c0.4-3.8-15.4-5.6-32.6-17.6c-6.9-5.1-16.6-11.9-15.3-18.9
		c1.2-6.1,9.8-10,16.4-11.1c12.6-2,21.6,5.9,23.2,4c1.7-2.2-7.7-12.5-16.9-21.1c-16.5-15.5-28.6-21.6-27.5-24.2
		c1.6-4,31.8,7.5,33.6,3.5c0.4-1.1-0.6-3-19.1-16.9s-22.7-15.8-26.2-22.9c-5-9.9-2.9-19.5-4.6-19.6
		C1304.8,252,1306.6,266.6,1296.9,278.7z"/>
	<path class="st19" d="M1275,301.4c-0.8-1.3,4.3-4.6,17.4-17.8c6.6-6.8,8.9-9.2,10.4-12.9c3.4-7.4,3.1-13.6,4.2-13.5
		c1.5-0.2,0.8,7.2,4.8,14.6c2.2,4.3,4.4,6,20.1,18.8c11.5,9.1,17.3,13.8,16.6,14.6c-0.3,0.3-1.2-0.1-1.8-0.2
		c-8-2.5-29.7-10.2-37-11.8C1292.1,289.5,1276.2,303.9,1275,301.4z"/>
	<path class="st19" d="M1266,352.2c-1.4-1.3,8.6-9.2,19.7-26.8c3.5-5.6,5.7-9.8,10.2-10.5c4.8-0.7,7.6,3.4,16.2,3.9
		c4.1,0.4,6.8-0.2,8.3-0.4c17-1.9,49.6,31,47.6,33.2c-1,1.1-7.4-9-21.4-10.9s-22.5,6.4-32,0.8c-5-2.8-3.9-6-8.1-7.9
		C1292.3,327.3,1268.1,354.5,1266,352.2z"/>
	<path class="st19" d="M1262.1,386.7c-0.5-1.2,4.7-2.8,13.9-9.9c9.2-7.1,9.1-9.2,15.4-12.4c2.2-1,9.6-5,19-4.1
		c7,0.7,10.8,4,20.8,10.6c20.5,14.1,31.3,18.4,30.6,20.1c-0.8,2-16-3-17.4-3.4c-18-5.9-22.2-12.2-32.8-11.7
		c-4.4,0.2-3.9,1.1-15.2,4.7C1280.8,385.5,1263,388.9,1262.1,386.7z"/>
	<path class="st26" d="M1309,297.9c1.2-0.5,2.8,1.5,3.9,2.7c1,1.6,2.1,3.2,3.8,9.2c1.1,4.2,1.8,6.4,1.1,7.2
		c-2.1,3.6-12.1,2.7-13.8-1c-0.7-1.5,0.8-2.6,2.2-8.1C1308,301.6,1307.4,298.3,1309,297.9z"/>
	<path class="st26" d="M1290.5,444.6c-0.2-0.6,8.7-0.9,13.9-6.3c10.9-12-6.5-36.9,3.2-45.5c4.5-4,13.3-2.9,18.5,0.6
		c8.9,5.9,4.3,16.7,11.5,28.3c12,20,44.4,20.8,43.8,24c-0.4,1.4-6.3,1.5-10.2,1.4c-6.2,0-10.8-1-12.6-1.5
		c-13.6-3.4-24.5-9.1-24.6-8.6c-0.3,0.6,14,8.4,19.2,15.1c1.6,2.2,3.1,5,3.1,5c2.3,3.8,3.6,6,2.9,6.5c-1.3,1.1-10.3-9.8-26.7-16.7
		c-2.8-1.2-6.2-2.7-11.2-3.7C1304.5,439.8,1290.7,445.5,1290.5,444.6z"/>
	<path class="st26" d="M1302.2,337.7c-0.9,0.5,0.6,3.3,1.4,10.5c0.7,5.4,0.2,6.8,1.6,8.1c1.9,1.7,3.8,0.4,9.3,1.2
		c5.8,0.9,7.7,3.1,9,2c1.6-1.6-0.1-7.7-4-11c-1.6-1.3-2.5-1.4-5.3-2.9C1306.2,341.9,1303.7,336.9,1302.2,337.7z"/>
</g>
</svg>
