<?xml version="1.0" encoding="utf-8"?>
<!-- Generator: Adobe Illustrator 26.0.3, SVG Export Plug-In . SVG Version: 6.00 Build 0)  -->
<svg version="1.1" xmlns="http://www.w3.org/2000/svg" xmlns:xlink="http://www.w3.org/1999/xlink" x="0px" y="0px"
	 viewBox="0 0 100 100" style="enable-background:new 0 0 100 100;" xml:space="preserve">
<style type="text/css">
	.st0{fill:#804122;stroke:#000000;stroke-width:2;stroke-miterlimit:10;}
	.st1{fill:#493127;stroke:#000000;stroke-miterlimit:10;}
	.st2{opacity:0.7;fill:url(#SVGID_1_);stroke:#000000;stroke-width:0.5;stroke-miterlimit:10;}
	
		.st3{fill:url(#SVGID_00000129175460162603884690000004785576933354713989_);stroke:#000000;stroke-width:0.5;stroke-miterlimit:10;}
	
		.st4{fill:url(#SVGID_00000162313953211605545710000009133884505286024323_);stroke:#000000;stroke-width:0.5;stroke-miterlimit:10;}
	
		.st5{opacity:0.8;fill:url(#SVGID_00000013172380423457353630000009004920296523529351_);stroke:#000000;stroke-width:0.25;stroke-miterlimit:10;}
</style>
<g id="Ebene_1">
	<g id="Ebene_2_00000093860788734264317370000010671531211922489223_">
	</g>
	<g id="Ebene_1_00000017510764199299988230000010460311392665681541_">
		<polygon class="st0" points="8,25.8 50,1.6 92,25.8 92,74.3 50,98.6 8,74.3 		"/>
	</g>
</g>
<g id="Ebene_2">
	<path class="st1" d="M39.9,16.7c-17.5,7.6-26.2,11.5-28,14.1C3.3,43.3,15.7,69.3,32.2,82c4.8,3.7,12.3,9.5,20.9,8.1
		c5.9-0.9,7.3-4.3,21.3-12.4c9.8-5.7,10.6-4.9,12.7-7.4c7.5-8.9,4-25.5-1.5-35.7c-6.4-12-20.1-24-33.8-22.5
		C50.7,12.2,49.6,12.4,39.9,16.7z"/>
	<linearGradient id="SVGID_1_" gradientUnits="userSpaceOnUse" x1="51.3633" y1="15.6" x2="49.051" y2="90.4138">
		<stop  offset="0.2145" style="stop-color:#334496"/>
		<stop  offset="0.4003" style="stop-color:#2F3D89"/>
		<stop  offset="0.684" style="stop-color:#2B357C"/>
		<stop  offset="0.9431" style="stop-color:#293377"/>
	</linearGradient>
	<path class="st2" d="M11.9,38.4c3.6-6,12.7-0.9,37.8-4.3c17-2.3,26.7-6.5,32.6-0.8c1.5,1.5,2.4,4.3,4.3,9.9
		c2.4,7.4,4.9,15.2,1.3,21.3c-0.8,1.4-2.1,2.5-4.6,4.7c-4.8,4.3-8.6,6.1-13.8,9c-12.8,7.3-11.6,8.9-15.9,9.5c-7,1-12.9-2.9-17.6-6.1
		C28,76.5,23.8,69.8,20.7,64.7C14.4,54.4,8.4,44.4,11.9,38.4z"/>
	
		<linearGradient id="SVGID_00000008123434701468835540000014209645735668561065_" gradientUnits="userSpaceOnUse" x1="46.9587" y1="26.1534" x2="46.422" y2="43.5181">
		<stop  offset="0.3991" style="stop-color:#334496"/>
		<stop  offset="0.4477" style="stop-color:#3B4B97"/>
		<stop  offset="0.602" style="stop-color:#515C9A"/>
		<stop  offset="0.7505" style="stop-color:#5E669C"/>
		<stop  offset="0.8859" style="stop-color:#636A9C"/>
	</linearGradient>
	
		<path style="fill:url(#SVGID_00000008123434701468835540000014209645735668561065_);stroke:#000000;stroke-width:0.5;stroke-miterlimit:10;" d="
		M11.1,40.5c0.9,2,5.7,1.5,8,1.3c17.5-1.8,24.7-2.8,30-3.2c8-0.6,14.7-0.2,25.6-2.2c2.7-0.5,7.6-1.5,7.6-3c0-1-1.9-1.8-2.6-2.1
		c-4.3-1.8-8.7-0.6-9.4-0.4c-7.1,1.9-14.6,1.4-21.9,2.2c-14.9,1.6-22.3,2.5-25.6,2.2c-2.8-0.2-8.3-1.1-10.7,1.9
		C11.3,38,10.6,39.5,11.1,40.5z"/>
	
		<linearGradient id="SVGID_00000111181451571677259850000015223595321808174732_" gradientUnits="userSpaceOnUse" x1="-33.1111" y1="64.0741" x2="-33.1111" y2="64.0741">
		<stop  offset="0.2145" style="stop-color:#334496"/>
		<stop  offset="0.2873" style="stop-color:#3B4B97"/>
		<stop  offset="0.5181" style="stop-color:#515C9A"/>
		<stop  offset="0.7404" style="stop-color:#5E669C"/>
		<stop  offset="0.9431" style="stop-color:#636A9C"/>
	</linearGradient>
	
		<path style="fill:url(#SVGID_00000111181451571677259850000015223595321808174732_);stroke:#000000;stroke-width:0.5;stroke-miterlimit:10;" d="
		M-33.1,64.1"/>
	
		<linearGradient id="SVGID_00000052805906756412007680000009211727461051682183_" gradientUnits="userSpaceOnUse" x1="57.9365" y1="64.0779" x2="45.7755" y2="83.4496">
		<stop  offset="0.2129" style="stop-color:#7F6B2D"/>
		<stop  offset="0.4095" style="stop-color:#7F6929"/>
		<stop  offset="0.6166" style="stop-color:#7F631C"/>
		<stop  offset="0.8278" style="stop-color:#7F5907"/>
		<stop  offset="0.8859" style="stop-color:#7F5600"/>
	</linearGradient>
	
		<path style="opacity:0.8;fill:url(#SVGID_00000052805906756412007680000009211727461051682183_);stroke:#000000;stroke-width:0.25;stroke-miterlimit:10;" d="
		M24.4,69.1c1.1-3,12.4,1,28.4,0.6c19.1-0.4,34.5-6.8,35.1-5c0.1,0.3-0.8,1.1-2.6,2.8c-2.1,2-3.5,3.3-5.7,4.9
		c-7.3,5.5-10.3,4.6-16.9,10.2c-1.5,1.2-3.8,3.4-7.6,4.6C52.5,88,50.3,88,49.7,88c-0.9,0-3.6-0.2-8.3-2.7c-1.7-0.9-4.7-2.7-9.2-6.8
		C26.6,73.2,23.8,70.6,24.4,69.1z"/>
</g>
</svg>
