<?xml version="1.0" encoding="utf-8"?>
<!-- Generator: Adobe Illustrator 26.0.3, SVG Export Plug-In . SVG Version: 6.00 Build 0)  -->
<svg version="1.1" xmlns="http://www.w3.org/2000/svg" xmlns:xlink="http://www.w3.org/1999/xlink" x="0px" y="0px"
	 viewBox="0 0 100 100" style="enable-background:new 0 0 100 100;" xml:space="preserve">
<style type="text/css">
	.st0{fill:none;stroke:#000000;stroke-width:2;stroke-miterlimit:10;}
	.st1{fill:#B27726;stroke:#4C2F12;stroke-width:2;stroke-miterlimit:10;}
	.st2{fill:#4EAF44;stroke:#123E1E;stroke-miterlimit:10;}
	.st3{fill:#4EAF44;stroke:#000000;stroke-miterlimit:10;}
</style>
<g id="Ebene_2">
	<polygon class="st0" points="6.68,25.22 49.58,0.5 92.51,25.28 92.55,74.78 49.64,99.5 6.71,74.72 	"/>
</g>
<g id="Ebene_1">
	<polygon class="st0" points="9.2,26.68 49.57,3.41 89.97,26.73 90,73.32 49.63,96.59 9.23,73.27 	"/>
	<path class="st1" d="M24.44,30.98c-0.59,0.52-4.31,3.85-4.25,8.84c0.06,5.27,4.31,9.46,8.15,11.25c6.51,3.03,9.72-1.86,20.9-1.61
		c10.85,0.25,12.82,4.97,19.86,3.1c7.27-1.93,14.21-9.36,13.09-15.04c-1.41-7.14-15.59-11.83-24-7.92
		c-4.69,2.18-5.22,5.94-9.18,6.08c-5.34,0.2-6.67-6.56-13.89-7.69C34.57,27.91,28.89,27.11,24.44,30.98z"/>
	<path class="st2" d="M47.75,13.65c0.25,0.41-2.14,3.02-3.21,2.53c-1.23-0.56-1.19-5.41,1.49-7.81c0.42-0.38,1.69-1.52,3.1-1.26
		c2.66,0.48,3.53,5.5,3.67,6.31c0.55,3.16,0.44,9.07-3.21,11.71c-2.47,1.78-4.48,0.57-11.48,0.23c-1.09-0.05-17.98-0.77-20.05,4.61
		c-0.57,1.48-0.28,2.64-0.28,2.64c0.49,1.97,2.48,2.49,2.74,4.6c0.03,0.28,0.15,1.17-0.25,1.39c-0.69,0.39-2.68-1.43-3.74-3.37
		c-0.45-0.81-1.58-2.86-1.03-5.17c0.77-3.26,4.34-4.74,6.2-5.51c0.75-0.31,2.75-1.08,7.23-1.26c5.15-0.22,8.18,0.56,15.38,0.46
		c2.26-0.03,3.54-0.13,4.71-1.03c2.68-2.07,2.27-6.44,2.18-7.35c-0.17-1.77-0.95-5.67-2.76-5.86c-1.92-0.2-4.15,3.89-3.51,4.62
		C45.41,14.68,47.53,13.3,47.75,13.65z"/>
	<path class="st3" d="M35.12,41.78"/>
	<path class="st2" d="M19.28,40.79c-0.96,1.83-0.16,3.75,0.58,6.47c1.46,5.34,0.62,6.14,1.49,7.95c2.4,5.03,11.95,5.32,16.19,5.4
		c17.74,0.34,28.28-7.11,43.97-7.12c1.01,0,7.11,0.03,7.12,0.34c0.01,0.18-1.86,0.39-3.44,0.57c-2.21,0.26-3.31,0.38-5.4,0.46
		c-5.44,0.2-17.57,4.25-17.57,4.25c-14.96,4.99-27.4,2.03-27.67,4.25c-0.31,2.6,17.03,4.14,27.78,16.88
		c1.36,1.61,3.71,4.7,3.44,4.94c-0.33,0.3-4.01-4.41-9.76-8.73c-8.21-6.17-10.57-3.97-25.03-11.71c-3.04-1.63-6.37-3.56-7.14-2.7
		c-0.64,0.72,0.9,2.88,2.32,5.34c4.99,8.66,6.19,17.14,5.97,17.22c-0.16,0.06-1.37-4.04-4.36-10.45
		c-4.46-9.55-6.46-10.49-8.04-16.53c-1.43-5.46-1.18-9.99-1.72-9.99c-0.57,0-0.19,5.05-2.76,11.02c-1.78,4.16-4.24,7.02-4.48,6.89
		c-0.26-0.15,2.6-3.97,4.13-10.22c0.52-2.13,0.81-4.29,1.38-8.61c0.65-4.95,0.83-7.9,2.39-8.42c0.55-0.18,1.35-0.09,1.58,0.3
		C20.56,39.11,19.73,39.92,19.28,40.79z"/>
</g>
</svg>
