<?xml version="1.0" encoding="utf-8"?>
<!-- Generator: Adobe Illustrator 26.0.3, SVG Export Plug-In . SVG Version: 6.00 Build 0)  -->
<svg version="1.1" xmlns="http://www.w3.org/2000/svg" xmlns:xlink="http://www.w3.org/1999/xlink" x="0px" y="0px"
	 viewBox="0 0 100 100" style="enable-background:new 0 0 100 100;" xml:space="preserve">
<style type="text/css">
	.st0{fill:none;stroke:#000000;stroke-width:2;stroke-miterlimit:10;}
	.st1{fill:url(#SVGID_1_);stroke:#000000;stroke-miterlimit:10;}
	.st2{fill:url(#SVGID_00000059305360476105369360000016770293842644069288_);stroke:#000000;stroke-miterlimit:10;}
	.st3{fill:url(#SVGID_00000129193838023361558050000012646612511520884126_);stroke:#000000;stroke-miterlimit:10;}
	.st4{fill:url(#SVGID_00000168812974932129624560000007720901224300826264_);stroke:#000000;stroke-miterlimit:10;}
</style>
<g id="Ebene_2">
	<polygon class="st0" points="6.68,25.22 49.58,0.5 92.51,25.28 92.55,74.78 49.64,99.5 6.71,74.72 	"/>
</g>
<g id="Ebene_1">
	<polygon class="st0" points="9.2,26.68 49.57,3.41 89.97,26.73 90,73.32 49.63,96.59 9.23,73.27 	"/>
	<radialGradient id="SVGID_1_" cx="49.1781" cy="58.1091" r="33.038" gradientUnits="userSpaceOnUse">
		<stop  offset="0.4571" style="stop-color:#FFFFFF;stop-opacity:0"/>
		<stop  offset="0.4592" style="stop-color:#FEFEFE;stop-opacity:3.857791e-03"/>
		<stop  offset="0.6635" style="stop-color:#939393;stop-opacity:0.3802"/>
		<stop  offset="0.8274" style="stop-color:#444444;stop-opacity:0.6821"/>
		<stop  offset="0.943" style="stop-color:#131313;stop-opacity:0.8949"/>
		<stop  offset="1" style="stop-color:#000000"/>
	</radialGradient>
	<path class="st1" d="M86.32,66.8c4.07-13.62-17.91-38.19-38.81-36.28c-11.36,1.04-19.34,9.63-23.69,14.31
		c-5.2,5.59-14.27,15.35-11.9,23.69c3.97,14.04,39.26,20.48,62.92,8.61C79.55,74.78,84.75,72.08,86.32,66.8z"/>
	
		<radialGradient id="SVGID_00000153689776363172634240000012215257791337495725_" cx="49.4696" cy="65.6567" r="0" gradientUnits="userSpaceOnUse">
		<stop  offset="0.4571" style="stop-color:#FFFFFF;stop-opacity:0"/>
		<stop  offset="0.4592" style="stop-color:#FEFEFE;stop-opacity:3.857791e-03"/>
		<stop  offset="0.6635" style="stop-color:#939393;stop-opacity:0.3802"/>
		<stop  offset="0.8274" style="stop-color:#444444;stop-opacity:0.6821"/>
		<stop  offset="0.943" style="stop-color:#131313;stop-opacity:0.8949"/>
		<stop  offset="1" style="stop-color:#000000"/>
	</radialGradient>
	<path style="fill:url(#SVGID_00000153689776363172634240000012215257791337495725_);stroke:#000000;stroke-miterlimit:10;" d="
		M49.47,65.66"/>
	
		<linearGradient id="SVGID_00000062871602520120364870000014093847294220500668_" gradientUnits="userSpaceOnUse" x1="49.6311" y1="82.4016" x2="49.6311" y2="50.7428">
		<stop  offset="0" style="stop-color:#312783"/>
		<stop  offset="3.857791e-03" style="stop-color:#302884"/>
		<stop  offset="0.3802" style="stop-color:#0060AC"/>
		<stop  offset="0.6821" style="stop-color:#0084CC"/>
		<stop  offset="0.8949" style="stop-color:#0098DD"/>
		<stop  offset="1" style="stop-color:#009FE3"/>
	</linearGradient>
	<path style="fill:url(#SVGID_00000062871602520120364870000014093847294220500668_);stroke:#000000;stroke-miterlimit:10;" d="
		M19.04,53.83c5.71-4.83,11.56-0.76,28.13-0.76c19.06,0.01,25.9-5.36,32.72,0.19c3.81,3.1,6.46,8.67,5.28,13.43
		c-0.34,1.38-1.59,5.06-10.45,9.53c-13.77,6.95-27.03,6.25-29.51,6.08c-8.82-0.57-27.16-1.76-30.77-12.51
		C12.68,64.51,14.66,57.54,19.04,53.83z"/>
	
		<linearGradient id="SVGID_00000043419492760786884730000002309430664532733359_" gradientUnits="userSpaceOnUse" x1="23.956" y1="54.0226" x2="76.6619" y2="54.0226">
		<stop  offset="0" style="stop-color:#009FE3"/>
		<stop  offset="0.3726" style="stop-color:#009EE3"/>
		<stop  offset="0.5069" style="stop-color:#009CE1"/>
		<stop  offset="0.6026" style="stop-color:#0097DD"/>
		<stop  offset="0.68" style="stop-color:#0091D7"/>
		<stop  offset="0.7463" style="stop-color:#0088CF"/>
		<stop  offset="0.805" style="stop-color:#007CC5"/>
		<stop  offset="0.8581" style="stop-color:#006DB8"/>
		<stop  offset="0.9069" style="stop-color:#005BA8"/>
		<stop  offset="0.9523" style="stop-color:#114496"/>
		<stop  offset="0.9926" style="stop-color:#2E2C86"/>
		<stop  offset="1" style="stop-color:#312783"/>
	</linearGradient>
	<path style="fill:url(#SVGID_00000043419492760786884730000002309430664532733359_);stroke:#000000;stroke-miterlimit:10;" d="
		M46.6,53.14c4.51-0.17,5.24-0.52,15.62-1.2C71.8,51.31,76.59,51,76.66,51.4c0.16,0.95-14.26,6.3-31.09,5.3
		c-12.12-0.72-21.73-4.5-21.61-5.09C24.07,51.04,32.95,53.65,46.6,53.14z"/>
</g>
</svg>
