<?xml version="1.0" encoding="utf-8"?><!-- Generator: Adobe Illustrator 26.0.3, SVG Export Plug-In . SVG Version: 6.00 Build 0)  --><svg version="1.1" id="Ebene_2" xmlns="http://www.w3.org/2000/svg" xmlns:xlink="http://www.w3.org/1999/xlink" x="0px" y="0px"	 viewBox="0 0 100 100" style="enable-background:new 0 0 100 100;" xml:space="preserve"><style type="text/css">	.st0{fill:#8A3C8F;stroke:#000000;stroke-width:2;stroke-miterlimit:10;}	.st1{fill:#69B42D;stroke:#000000;stroke-miterlimit:10;}	.st2{fill:#DB6500;stroke:#000000;stroke-width:0.5;stroke-miterlimit:10;}	.st3{fill:#C78F55;stroke:#000000;stroke-width:0.5;stroke-miterlimit:10;}	.st4{fill:#C78F55;stroke:#000000;stroke-width:0.5;stroke-miterlimit:10;}	.st5{fill:#493127;stroke:#000000;stroke-width:0.25;stroke-miterlimit:10;}	.st6{fill:#493127;stroke:#000000;stroke-width:0.25;stroke-miterlimit:10;}	.st7{fill:#493127;stroke:#000000;stroke-width:0.25;stroke-miterlimit:10;}	.st8{fill:#493127;stroke:#000000;stroke-width:0.25;stroke-miterlimit:10;}	.st9{fill:#493127;stroke:#000000;stroke-width:0.25;stroke-miterlimit:10;}</style><polygon class="st0" points="89.67,25.75 47.67,1.5 5.66,25.75 5.66,74.25 47.67,98.5 89.67,74.25 "/><path class="st1" d="M49.33,3.67c0.73-0.79,3.25,0.67,13.9,6.82c7.97,4.6,11.96,6.91,11.96,6.91c0.3,0.06,1.35,0.24,1.61,0.93	c0.3,0.79-0.49,2.14-1.28,2.19c-1.26,0.09-1.6-3.16-3.41-3.4c-1.45-0.19-2.77,1.71-2.89,1.89c-0.87,1.28-0.87,2.66-0.89,3.22	c-0.14,5.56-3.35,7.29-2,9.67c1.39,2.46,3.73,2.48,12.56,5.78c9.34,3.49,10.34,4.89,10.78,5.67c0.94,1.65,0.05,1.67,0,12.56	c-0.01,1.28,0.05,3.96,0,9.33c-0.02,2.34-0.04,2.81-0.45,3.11c-2.2,1.62-10.25-6.07-17.22-9.44c-2.22-1.08-3.66-1.68-3.67-1.68	c-2.99-1.26-4.22-1.47-7.89-3.54c-6.6-3.71-10-5.63-11.89-9.44c-2.86-5.76,1.5-8.25,0-20.33c-0.39-3.13-1-5.48-0.11-8.78	c0.66-2.47,1.69-3.73,1.67-6.44C50.09,5.58,48.74,4.31,49.33,3.67z"/><path class="st2" d="M69.56,24.22c1.3,1.25,3.28,0.7,3.44,1.44c0.15,0.66-1.29,1.64-2.33,2.11c-1.73,0.79-2.6,0.32-3.33,1.11	c-0.66,0.72-0.88,2.11-0.33,3c0.79,1.29,2.57,0.56,6.11,1.78c2.09,0.71,1.82,1.09,3.56,1.56c0.35,0.09,5.08,1.32,6.56-0.67	c0.63-0.84,0.06-1.45,0.89-3.11c0.66-1.32,1.16-1.24,1.56-2.22c0.63-1.57,0.08-3.64-1.11-5c-0.24-0.28-1.52-1.75-3.33-1.78	c-1.79-0.03-2.94,1.38-3.56,0.89c-0.47-0.37,0.17-1.18-0.33-2c-0.64-1.04-2.06-0.41-3.22-1.56c-0.84-0.84-0.49-1.57-1.22-2	c-0.98-0.58-2.76,0.07-3.67,1.22C68,20.56,68.35,23.05,69.56,24.22z"/><path class="st2" d="M44,6.67c0.66,0.4,0.67,2.01,0.67,5.22c0,3.84,0,5.76-0.56,7c-0.31,0.69-0.83,1.59-0.78,2.89	c0.04,0.97,0.37,1.25,0.22,1.89c-0.27,1.12-1.71,2.03-3,2.11c-1.71,0.11-2.94-1.27-5.22-3.89c-2.21-2.53-3.53-4.06-3.11-5.56	c0.34-1.2,1.41-0.99,3.33-2.89c2-1.97,1.59-2.94,3.44-4.67C40.22,7.65,42.73,5.89,44,6.67z"/><path class="st2" d="M26,20.56c0.23-0.16,2.03-1.41,3.89-0.89c2.09,0.59,3.48,3.2,3,5c-0.31,1.17-1.17,1.09-2,2.44	c-1.35,2.21,0.17,3.67-0.67,6.44c-0.61,2-2.35,4.38-4.67,5c-2.26,0.6-4.03-0.76-5.11,0.33c-0.77,0.77-0.14,1.72-0.89,2.56	c-1.15,1.29-4.56,1.2-5.89-0.44c-1.58-1.96,1.2-4.36-0.33-8.11c-0.69-1.69-1.76-2.41-1.56-4c0.12-0.9,0.65-2.12,1.67-2.56	c1.45-0.61,2.33,1,3.89,0.56c1.84-0.52,1.83-3.13,3.89-3.56c0.79-0.16,0.86,0.2,1.67,0C24.39,22.96,24.53,21.61,26,20.56z"/><path class="st3" d="M33.33,27.11c-0.35,0.16-0.49,0.77-0.78,2c-0.5,2.14-0.26,3.16-0.44,4.89c-0.21,1.96-0.39,3.63-1.56,4.78	c-1.49,1.47-3.01,0.5-4.67,2.11c-1.29,1.26-1.5,2.95-1.56,3.44c-0.07,0.58-0.35,2.89,1.11,4.33c1.7,1.69,4.61,1.03,5.22,0.89	c2.96-0.67,3.03-2.53,6.89-4c1.86-0.71,2.38-0.48,3.11-1.22c1.74-1.78,0.91-5.21,0.56-6.67C39.74,31.56,34.9,26.4,33.33,27.11z"/><path class="st4" d="M14.11,46.78c0.91-1.24,3.54-1.01,5.22-0.33c2.3,0.92,3.4,2.86,4.22,4.33c0.74,1.31,2.24,3.98,1.22,5.44	c-0.61,0.87-1.49,0.41-3,1.67c-0.72,0.6-1.16,1.23-2,2.44c-1.2,1.72-1.11,2.06-1.67,2.33c-1.25,0.61-3.39-0.28-4.33-1.78	c-0.18-0.28-0.57-1-0.33-4.22c0.27-3.66,0.87-3.97,0.78-6.33C14.13,48.12,13.57,47.52,14.11,46.78z"/><path class="st2" d="M29.67,53.78c-0.61,1.15-0.88,2.99,0,4.11c0.76,0.98,1.6,0.4,4.44,1.67c1.41,0.63,1.93,1.09,2.78,0.89	c0.85-0.21,1.49-0.97,1.78-1.67c0.22-0.55,0.27-1.18-0.67-4.22c-0.54-1.75-0.82-2.64-1.11-2.89C35.26,50.27,31.08,51.1,29.67,53.78z	"/><path class="st4" d="M44.33,45.44c-0.91,0.43-0.86,1.28-2,4c-1.44,3.43-2.07,3.39-2.22,5c-0.2,2.1,0.63,4.74,2.22,5.33	c0.98,0.36,1.52-0.32,3.22,0c1.21,0.23,1.52,0.68,2.56,1.11c2.2,0.91,5.54,0.83,6.78-0.89c0.71-0.99,0.78-2.6,0.11-3.22	c-0.57-0.53-1.38-0.07-2-0.67c-0.61-0.58-0.16-1.34-0.44-2.22c-0.73-2.25-5.16-1.85-5.56-3.56c-0.27-1.18,1.72-1.93,1.44-3.22	C48.17,45.82,45.78,44.76,44.33,45.44z"/><path class="st2" d="M17.22,74.33c-0.76-1.54-2.06-1.66-2-2.44c0.07-0.9,1.85-1.5,2.33-1.67c1.07-0.36,1.4-0.14,2.33-0.56	c0.96-0.43,1.11-0.89,1.78-1.33c1.56-1.03,4.33-0.89,5.44,0.44c0.38,0.46,0.3,0.74,0.33,4.33c0.03,3.06,0.09,3.82-0.44,4.89	c-0.29,0.57-0.93,1.85-2,2c-1.17,0.16-1.46-1.24-3.56-2.11c-1.84-0.77-2.82-0.18-3.56-1.11C17.3,76.04,17.81,75.53,17.22,74.33z"/><path class="st4" d="M32.44,63.67c-1.21,1.08-1.9,2.94-1.89,4.56c0.01,1.95,1.03,2.48,1,4.56c-0.02,1.59-0.63,1.94-1.33,4.11	c-0.69,2.15-1.44,4.48-0.67,6.67c1.17,3.28,5.25,4.77,5.89,5c1.41,0.51,1.94,0.36,3.33,1.11c1.81,0.98,1.87,1.76,3.56,2.67	c1.28,0.69,3.73,1.58,4.67,0.67c0.67-0.66-0.15-1.57,0.33-3.78c0.34-1.54,0.85-1.61,1.22-3.22c0.32-1.4,0.07-1.95,0.11-3.56	c0.08-3.39,1.25-3.44,1-5.33c-0.34-2.6-2.58-2.7-3.89-6.33c-0.77-2.12-0.12-2.4-0.78-3.78C43.13,63.11,35.7,60.75,32.44,63.67z"/><path class="st3" d="M50.1,69.05c-0.81,1.15-0.5,3.1,0,4.22c0.8,1.8,2.41,2.2,2.33,3.56c-0.05,0.91-0.81,1.1-1.11,2.33	c-0.31,1.26,0.7,1.87,0.33,2.78c-0.28,0.7-0.93,0.74-1.56,1.22c-1.71,1.34-2.2,5.32-0.22,7.67c0.17,0.2,1.75,2.02,4,1.89	c3.29-0.2,3.54-4.33,7.56-7.11c4.53-3.14,7.17,0.07,12.78-3.11c3.3-1.87,7.09-5.66,6.56-9.33c-0.05-0.35-0.32-1.92-1.56-3.11	c-2.06-1.98-4.26-0.43-6.56-2.22c-2.05-1.61-1.69-3.94-3.67-4.44c-0.97-0.25-1.17,0.28-2.44,0c-1.89-0.42-2.41-1.81-3.44-1.56	c-0.74,0.18-1.12,1.05-1.44,1.78c-0.76,1.72-0.14,2.52-0.56,3.33C59.85,69.41,52.07,66.23,50.1,69.05z"/><path class="st5" d="M17.26,31.04c0.61-0.08,1.31,0.53,1.26,0.89c-0.06,0.4-1.03,0.27-1.33,0.89c-0.29,0.59,0.22,1.47,0.44,1.85	c0.37,0.64,0.65,0.7,0.74,1.19c0.12,0.6-0.15,1.3-0.44,1.33c-0.26,0.03-0.36-0.49-1.04-1.26c-0.58-0.66-0.8-0.61-1.04-0.96	C15.08,33.8,16.1,31.18,17.26,31.04z"/><path class="st5" d="M20,28.59c-0.29,0.07-0.45,0.78-0.3,1.33c0.28,0.98,1.56,1.44,2.07,1.63c0.84,0.3,1.33,0.24,1.41,0.52	c0.12,0.45-1.09,0.87-1.04,1.63c0.02,0.34,0.3,0.66,0.59,0.74c0.68,0.19,1.73-0.77,1.85-1.85c0.06-0.58-0.13-1.33-0.67-1.7	c-0.58-0.4-0.99,0.03-1.78-0.22C20.78,30.24,20.48,28.47,20,28.59z"/><path class="st5" d="M25.19,26.07c-0.31-0.1-0.56-0.41-0.59-0.74c-0.09-0.83,1.19-1.7,1.78-1.41c0.3,0.15,0.37,0.57,0.37,0.81	C26.73,25.53,25.83,26.28,25.19,26.07z"/><path class="st5" d="M28.52,25.04c-0.26-0.08-0.51,0.09-0.91,0.37c-0.38,0.26-0.84,0.58-1.16,1.11c-0.73,1.2-0.44,2.89-0.07,2.96	c0.3,0.06,0.86-0.98,1.11-1.63c0.25-0.66,0.26-1.08,0.67-1.33c0.36-0.22,0.65-0.07,0.81-0.3C29.19,25.91,28.95,25.17,28.52,25.04z"	/><path class="st5" d="M28.52,23.41c0.24,0.43,0.75,0.21,1.41,0.74c0.59,0.47,0.58,0.95,0.89,0.96c0.44,0.01,1.03-0.92,0.81-1.56	c-0.12-0.34-0.37-0.32-1.48-1.04c-0.73-0.48-0.87-0.66-1.11-0.59C28.58,22.05,28.25,22.92,28.52,23.41z"/><path class="st5" d="M18.07,38.22c-0.35-0.06-0.74,0.43-0.81,0.89c-0.1,0.58,0.3,1.26,0.67,1.26c0.37,0,0.71-0.68,0.67-1.26	C18.57,38.78,18.4,38.28,18.07,38.22z"/><path class="st5" d="M20.3,35.56c-0.37,0.14-0.61,0.59-0.44,0.96c0.15,0.34,0.56,0.47,0.89,0.37c0.39-0.12,0.68-0.57,0.52-0.96	C21.11,35.57,20.65,35.42,20.3,35.56z"/><path class="st5" d="M28,33.85c-0.5-0.07-0.97,0.45-1.04,0.96c-0.06,0.5,0.23,1.11,0.74,1.19c0.5,0.07,0.95-0.42,1.04-0.89	C28.84,34.58,28.52,33.92,28,33.85z"/><path class="st6" d="M34.96,32.3c-0.27,0.03-0.53,0.35-0.59,0.67c-0.13,0.74,0.89,1.13,0.81,2c-0.04,0.4-0.27,0.46-0.22,0.81	c0.06,0.48,0.54,0.95,1.11,1.04c0.6,0.09,1.24-0.26,1.41-0.74c0.12-0.35-0.08-0.58-1.26-2.37C35.54,32.67,35.29,32.26,34.96,32.3z"	/><path class="st6" d="M33.26,38.74c-0.26,0.08-0.28,0.78-0.22,1.19c0.05,0.34,0.22,1.02,0.52,1.04c0.27,0.02,0.6-0.53,0.59-1.04	C34.14,39.27,33.54,38.65,33.26,38.74z"/><path class="st6" d="M30.22,43.93c-2.11,0.13-2.59-0.25-3.04,0.22c-0.48,0.5-0.46,1.48-0.07,2.15c0.25,0.44,0.84,1.07,1.41,0.96	c0.75-0.15,0.63-1.44,1.56-1.78c0.69-0.25,1.17,0.34,1.7,0c0.47-0.3,0.66-1.11,0.37-1.48C31.91,43.69,31.44,43.85,30.22,43.93z"/><path class="st6" d="M36.07,42.3c-0.19-0.41,0.49-1.36,1.19-1.41c0.51-0.03,0.8,0.45,1.11,0.3c0.35-0.17,0.1-0.86,0.52-1.19	c0.32-0.24,0.86-0.15,1.19,0.07c0.72,0.5,0.67,1.9,0.07,2.37c-0.26,0.21-0.48,0.13-1.63,0.07C36.65,42.42,36.2,42.57,36.07,42.3z"/><path class="st7" d="M18.07,49.11c-0.65-0.16-1.35,0.38-1.63,0.96c-0.43,0.89,0.05,2,0.3,2c0.25,0,0.12-1.1,0.89-1.63	c0.56-0.38,1.16-0.16,1.26-0.44C18.98,49.73,18.56,49.23,18.07,49.11z"/><path class="st7" d="M22.89,54c-0.32-0.22-0.82-0.28-1.19,0c-0.31,0.23-0.45,0.63-0.37,0.96c0.17,0.68,1.34,1.01,1.78,0.59	C23.46,55.23,23.42,54.37,22.89,54z"/><path class="st7" d="M17.63,56.67c-0.5-0.07-0.91,0.45-1.26,0.89c-0.51,0.64-0.88,1.53-0.67,1.7c0.17,0.13,0.5-0.33,1.41-0.59	c0.84-0.24,1.22-0.03,1.41-0.3C18.82,57.94,18.33,56.76,17.63,56.67z"/><path class="st8" d="M19.85,70.74c-0.27,0.48-0.29,1.16-0.07,1.26c0.22,0.1,0.67-0.36,0.89-0.81c0.19-0.41,0.28-1,0.07-1.11	C20.54,69.96,20.08,70.33,19.85,70.74z"/><path class="st8" d="M20.96,72.89c-0.53-0.02-1.14,0.37-1.19,0.81c-0.02,0.21,0.09,0.38,1.04,1.26c1.2,1.11,1.36,1.16,1.48,1.11	c0.33-0.14,0.31-0.98,0.15-1.56C22.42,74.43,21.98,72.92,20.96,72.89z"/><path class="st8" d="M23.26,72.96c-0.56-1.7-0.41-2-0.3-2.15c0.24-0.3,0.75-0.48,1.04-0.3c0.48,0.3-0.19,1.31,0.3,2.44	c0.45,1.04,1.46,1.26,1.33,1.7c-0.09,0.33-0.77,0.54-1.26,0.37C24.22,74.99,23.87,74.82,23.26,72.96z"/><path class="st5" d="M34.67,67.63c-0.53,0.21-0.95,0.82-0.81,1.11c0.16,0.34,0.95-0.03,1.56,0.44c0.62,0.48,0.69,1.57,0.44,1.7	c-0.33,0.18-1.2-1.31-1.63-1.11c-0.32,0.15-0.17,1.18,0.07,1.85c0.11,0.32,0.5,1.39,1.11,1.41c0.34,0.01,0.58-0.31,0.96-0.81	c0.36-0.48,0.85-1.12,0.89-2.07c0.01-0.3,0.04-0.95-0.37-1.56C36.43,67.91,35.46,67.32,34.67,67.63z"/><path class="st5" d="M42.15,71.85c-0.25-0.53-0.24-1.3,0.22-1.85c0.44-0.52,1.31-0.86,1.7-0.52c0.31,0.27,0.29,0.95,0,1.33	c-0.28,0.36-0.63,0.23-0.89,0.59c-0.34,0.48-0.01,1.09-0.22,1.19C42.78,72.68,42.35,72.29,42.15,71.85z"/><path class="st5" d="M32.96,80.37c-0.24-0.31,0.03-1.16,0.52-1.33c0.63-0.23,1.61,0.64,2.22,1.19c0.5,0.44,0.69,0.72,0.96,0.67	c0.45-0.1,0.39-1,0.96-1.19c0.31-0.1,0.73,0.04,0.89,0.3c0.25,0.4-0.2,0.9-0.44,1.63c-0.61,1.85,0.82,3.07,0.07,4.07	c-0.38,0.51-1.17,0.75-1.48,0.52c-0.55-0.41,0.61-2.03-0.15-3.11c-0.38-0.55-0.79-0.29-1.41-1.04c-0.57-0.68-0.48-1.21-1.04-1.48	C33.56,80.34,33.16,80.63,32.96,80.37z"/><path class="st5" d="M44.44,75.26c-0.51,0.09-0.87,1.04-0.67,1.78c0.19,0.69,0.81,1.02,1.11,1.19c0.89,0.48,1.94,0.43,2,0.22	c0.06-0.2-0.95-0.29-1.33-1.11c-0.31-0.66,0.07-1.18-0.37-1.7C45.16,75.6,44.81,75.19,44.44,75.26z"/><path class="st5" d="M42.96,84.89c-0.27-0.04-0.69,0.65-0.81,1.33c-0.29,1.58,0.92,3.36,1.56,3.26c0.35-0.06,0.59-0.69,0.59-1.19	c0-0.59-0.36-0.75-0.74-1.63C43.09,85.6,43.22,84.93,42.96,84.89z"/><path class="st6" d="M52.74,86.07c-0.28,0.03-0.49,0.67-0.44,1.19c0.06,0.81,0.75,1.41,1.41,1.63c0.65,0.22,1.66,0.19,2.07-0.44	c0.29-0.44,0.26-1.12,0-1.26c-0.36-0.19-0.88,0.85-1.56,0.74C53.38,87.79,53.21,86.03,52.74,86.07z"/><path class="st6" d="M54.44,79.78c-0.43,0.06-0.94,2.12,0,3.04c0.4,0.39,1.09,0.6,1.33,0.37c0.22-0.21,0.02-0.74-0.3-1.56	C55.09,80.62,54.74,79.73,54.44,79.78z"/><path class="st6" d="M55.85,75.93c-0.63,0.03-1.23-0.33-1.48-0.81c-0.25-0.49,0.06-0.72-0.15-1.26c-0.33-0.84-1.31-0.86-1.33-1.41	c-0.02-0.37,0.42-0.82,0.81-0.81c0.76,0,1.48,1.7,1.48,1.7l0,0c0,0,0.37,0.72,0.74,0.74c0.37,0.02,0.49-0.68,0.81-0.67	c0.32,0.01,0.71,0.71,0.59,1.33C57.21,75.4,56.54,75.89,55.85,75.93z"/><path class="st6" d="M57.93,71.78c-1.04-0.37-1.77,0.37-2.22,0c-0.31-0.25-0.31-0.89-0.07-1.26c0.55-0.85,2.63-0.72,3.19,0.22	c0.27,0.46,0.21,1.19-0.07,1.33C58.54,72.17,58.36,71.93,57.93,71.78z"/><path class="st6" d="M60.52,77.85c-0.26-0.04-0.64,0.6-0.74,1.19c-0.15,0.83,0.22,1.78,0.52,1.78c0.3,0,0.58-0.91,0.59-1.63	C60.9,78.68,60.8,77.9,60.52,77.85z"/><path class="st6" d="M66.52,79.41c-0.43-0.12-1.08-0.11-1.19,0.15c-0.12,0.31,0.48,0.98,1.19,1.11c0.44,0.08,1.03-0.03,1.11-0.3	C67.72,80.06,67.11,79.57,66.52,79.41z"/><path class="st6" d="M67.33,75.11c-0.59,0.19-0.87,1.32-0.37,1.85c0.25,0.26,0.7,0.38,1.04,0.22c0.57-0.27,0.68-1.28,0.22-1.78	C68.02,75.18,67.65,75.01,67.33,75.11z"/><path class="st6" d="M67.33,70.52c-0.41-0.15-0.51-0.48-1.16-0.75c-0.02-0.01-0.07-0.03-0.17-0.07c-0.92-0.35-1.01-0.33-1.11-0.44	c-0.29-0.31-0.21-1.06,0.07-1.19c0.31-0.14,0.58,0.58,1.48,0.81c0.63,0.16,0.86-0.1,1.26,0.15c0.51,0.31,0.78,1.11,0.52,1.41	C68.04,70.65,67.6,70.62,67.33,70.52z"/><path class="st6" d="M73.26,71.26c-0.22,0.23,0.21,0.67,0,1.19c-0.19,0.46-0.7,0.54-0.67,0.74c0.05,0.26,0.87,0.06,1.26,0.52	c0.4,0.48-0.07,1.18,0.3,1.48c0.27,0.22,0.88,0.11,1.11-0.22c0.22-0.32-0.08-0.63-0.44-1.93c-0.3-1.05-0.27-1.44-0.67-1.7	C73.86,71.15,73.43,71.08,73.26,71.26z"/><path class="st5" d="M44.67,49.7c-0.23-0.13-1.56,1.07-1.78,2.74c-0.15,1.15,0.22,2.62,0.89,2.74c0.49,0.09,1.17-0.54,1.26-1.19	c0.08-0.61-0.42-0.83-0.67-1.63C43.95,50.99,44.88,49.82,44.67,49.7z"/><path class="st5" d="M45.33,56.37c-0.44-0.15-0.93,0.1-1.11,0.44c-0.33,0.64,0.39,1.67,0.96,1.63c0.37-0.03,0.7-0.51,0.74-0.96	C45.96,57.1,45.81,56.54,45.33,56.37z"/><path class="st5" d="M49.11,54.59c-0.17,0.03-0.29,0.18-0.59,0.89c-0.41,0.96-0.61,1.44-0.52,1.7c0.22,0.59,1.06,0.76,1.7,0.89	c0.46,0.09,1.38,0.2,1.48-0.07c0.1-0.25-0.65-0.45-0.96-1.26c-0.25-0.65,0.05-0.98-0.3-1.56C49.77,54.92,49.43,54.54,49.11,54.59z"	/><path class="st8" d="M42.96,10.52c-0.58,0.1-0.85,0.7-0.96,0.96c-0.26,0.59-0.29,1.42,0,1.56c0.12,0.06,0.24-0.04,1.33-0.96	c0.55-0.47,0.83-0.7,0.81-0.89C44.12,10.81,43.5,10.43,42.96,10.52z"/><path class="st8" d="M40.22,14.74c-0.27-0.84-2.87-1.24-3.56-0.22c-0.26,0.38-0.23,0.95,0,1.33c0.42,0.71,1.5,0.78,2.22,0.52	C39.67,16.09,40.39,15.27,40.22,14.74z"/><path class="st9" d="M36.37,17.19c-0.27-0.31-1.44,0.07-1.48,0.52c-0.03,0.31,0.47,0.78,0.96,0.67	C36.43,18.24,36.58,17.42,36.37,17.19z"/><path class="st8" d="M38.67,18.37c-0.34-0.06-0.79,0.24-0.89,0.59c-0.16,0.59,0.78,0.87,1.19,2c0.38,1.08-0.14,1.78,0.37,2.22	c0.4,0.35,1.04,0.2,1.26,0.15c0.86-0.2,1.49-0.98,1.63-1.78c0.13-0.75-0.14-1.6-0.44-1.63c-0.35-0.04-0.54,1.04-1.04,1.04	c-0.16,0-0.31-0.12-0.81-0.89C39.14,18.87,39.04,18.43,38.67,18.37z"/><path class="st8" d="M41.33,17.26c-0.54-0.13-1.32,0.94-1.11,1.33c0.14,0.27,0.72,0.23,0.81,0.22c0.19-0.01,0.56-0.04,0.74-0.3	C42.05,18.12,41.73,17.36,41.33,17.26z"/><path class="st5" d="M72.3,20.15c-0.27,0.01-0.85,1.69-0.07,2.59c0.08,0.09,0.43,0.5,0.89,0.44c0.45-0.05,0.85-0.51,0.81-0.89	c-0.04-0.42-0.6-0.41-1.11-1.11C72.38,20.6,72.44,20.14,72.3,20.15z"/><path class="st5" d="M71.04,29.41c-0.65-0.13-1.37,0.6-1.26,1.04c0.07,0.29,0.51,0.44,0.81,0.44c0.52,0.01,1.13-0.37,1.11-0.81	C71.69,29.75,71.36,29.47,71.04,29.41z"/><path class="st5" d="M74,29.26c-0.19,0.38-0.17,0.99,0.15,1.26c0.49,0.41,1.24-0.32,2.07,0.07c0.66,0.31,0.73,1.02,1.04,0.96	c0.3-0.06,0.48-0.81,0.37-1.41c-0.02-0.09-0.16-0.82-0.81-1.26C75.91,28.28,74.41,28.45,74,29.26z"/><path class="st5" d="M79.19,28.52c0.36,0.45,1.14,0.66,1.63,0.37c0.53-0.31,0.6-1.14,0.52-1.63c-0.11-0.71-0.55-0.88-0.44-1.33	c0.1-0.44,0.64-0.8,1.11-0.81c0.63-0.02,0.98,0.55,1.11,0.44c0.19-0.15-0.23-1.59-1.11-1.78c-0.78-0.17-1.48,0.75-1.93,1.33	C79.5,25.87,78.48,27.63,79.19,28.52z"/><path class="st5" d="M82.3,30c-0.45,0.18-0.44,1.09-0.44,1.26c0,0.2,0,0.8,0.44,1.26c0.14,0.14,0.38,0.39,0.67,0.37	c0.5-0.04,0.95-0.91,0.81-1.63C83.63,30.46,82.76,29.81,82.3,30z"/></svg>