<?xml version="1.0" encoding="utf-8"?><!-- Generator: Adobe Illustrator 26.0.3, SVG Export Plug-In . SVG Version: 6.00 Build 0)  --><svg version="1.1" id="Ebene_2_00000126308112139821010380000011903406711838980787_"	 xmlns="http://www.w3.org/2000/svg" xmlns:xlink="http://www.w3.org/1999/xlink" x="0px" y="0px" viewBox="0 0 100 100"	 style="enable-background:new 0 0 100 100;" xml:space="preserve"><style type="text/css">	.st0{fill:#8A3C8F;stroke:#000000;stroke-width:2;stroke-miterlimit:10;}	.st1{fill:#69B42D;stroke:#000000;stroke-miterlimit:10;}	.st2{fill:#C78F55;stroke:#000000;stroke-width:0.5;stroke-miterlimit:10;}	.st3{fill:#493127;stroke:#000000;stroke-width:0.25;stroke-miterlimit:10;}	.st4{fill:#DB6500;stroke:#000000;stroke-width:0.5;stroke-miterlimit:10;}	.st5{fill:#493127;stroke:#000000;stroke-width:0.25;stroke-miterlimit:10;}	.st6{fill:none;stroke:#000000;stroke-width:0.25;stroke-miterlimit:10;}</style><polygon class="st0" points="91.6,25.7 49.6,1.5 7.6,25.7 7.6,74.2 49.6,98.5 91.6,74.2 "/><path class="st1" d="M59.3,7.4c-6.4-3.4-7.5-5.6-9-5c-2.5,0.8-0.5,6-3.6,12c-3.4,6.6-8.1,5-11.4,11.9c-2.2,4.5-1.3,7.7-4.4,10.1	c-1.4,1-2.9,1.4-5.9,1.6c-10.2,0.7-15.3,1-17.2,3.7c-0.4,0.6-0.3,3.2-0.2,8.4c0.2,7.1,0.4,8.6,1.3,9c1.2,0.5,2.3-1.2,5.5-2.9	c4.4-2.4,5.6-0.9,11.8-3.1c4.5-1.6,5-2.7,9-3.6c3.1-0.6,5.5-0.1,7,0.1c3,0.4,6.7-0.4,14.1-1.9c5.5-1.2,4.5-1.4,6.5-1.6	c9.7-1,18.2,5.8,20.2,7.5c4.8,3.8,6.1,6.8,7.6,6.2c1.5-0.6,0.9-3.8,1-15.8c0-7.4,0.4-9.3-1.3-10.9c-2.4-2.3-7-1.7-11-1.2	c-1.6,0.2-2.8,0.6-3.2,0.7c-1.8,0.5-23.2,1.5-23.7-2.2c-0.5-3.9,23.5-8.2,23-13.3c-0.1-1.4-3.6-3.2-10.5-6.9C62.5,9,62.2,9,59.3,7.4	z"/><g>	<path class="st2" d="M12.2,72.8c0.2,0,0.6,0.1,1,0c0.4,0,0.7-0.1,1.1-0.3c1.1-0.4,1.8-1,2.1-1.2c1.2-0.9,1.8-1.3,1.9-1.9		c0.2-1.1-1.2-1.5-1.4-3c-0.2-1.5,1-2.1,0.5-3c-0.3-0.8-1.5-1.1-2.3-0.9c-1.1,0.2-0.9,1.6-2.3,2.8c-1.4,1.3-2.6,0.7-3.2,1.9		c-0.7,1.4,0.4,3.3,0.6,3.6C10.9,71.9,11.8,72.5,12.2,72.8z"/>	<path class="st3" d="M12.1,71.1c0,0.1,0.4,0,1,0c0.6,0,0.7,0.1,0.8,0c0.5-0.3,0.5-1.7,0-2c-0.3-0.2-0.7-0.1-0.8,0.2		c-0.2,0.3,0.3,0.8,0.2,1.2C13,71,12.1,71,12.1,71.1z"/>	<path class="st3" d="M10.7,68.3c0.1,0.2,0.3,0.3,0.6,0.2c0.2-0.1,0.3-0.2,0.4-0.4c0.5-0.9,0.9-1.1,0.8-1.2		c-0.1-0.1-0.7,0.3-1.1,0.5C11.1,67.6,10.6,68,10.7,68.3z"/>	<path class="st3" d="M15.2,69.5c-0.1-0.2-0.1-0.4,0-0.6c0.2-0.2,0.7,0.2,0.9,0c0.3-0.2-0.2-1.1,0.1-1.4c0.2-0.2,0.5-0.1,0.7,0.1		c0.4,0.3,0.4,1.1,0.1,1.6C16.4,69.8,15.4,69.8,15.2,69.5z"/>	<path class="st3" d="M14.1,67.3c0.2,0.1,0.6-0.1,0.6-0.4c0-0.3-0.5-0.6-0.7-0.5C13.8,66.6,13.8,67.2,14.1,67.3z"/>	<path class="st3" d="M14.3,65.8c0.3,0.2,0.7,0,0.9-0.3c0.2-0.4-0.3-0.9-0.1-1.2c0.2-0.3,0.9,0.1,1.1-0.2c0.1-0.2-0.1-0.6-0.3-0.7		c-0.5-0.3-1.3,0.2-1.7,0.9C14,64.8,13.9,65.6,14.3,65.8z"/></g><g>	<path class="st4" d="M35.5,80.2c-1.1,0.4-2.3,1.4-2.4,2.3c0,0.2,0,0.9,1.8,1.9c3.5,1.8,5.7,0.3,7.1,2c1,1.2,0.5,2.7,1.5,3		c0.9,0.2,2.3-0.7,2.9-1.9c0.4-0.7,0.4-1.2,0.7-4.5c0.2-2.3,0.3-2.7,0.6-3c1-1.2,2.7-0.7,3.1-1.5c0.3-0.7-0.4-1.8-1.2-2.3		c-1.8-1.1-4.8-0.3-6.8,1.5c-1.6,1.4-1.5,2.4-2.7,2.9C38.4,81.2,37.5,79.5,35.5,80.2z"/>	<path class="st5" d="M39.1,83.5c0.3,0,0.7-0.3,0.7-0.6c0.1-0.4-0.8-1-1.6-0.8c-0.9,0.2-1.5,1.2-1.4,1.3c0.1,0.1,0.8-0.6,1.5-0.4		C38.7,83.1,38.7,83.5,39.1,83.5z"/>	<path class="st5" d="M43.1,82.5c-0.1,0-1.1,0.5-1.2,1.3c-0.2,1.1,1.2,2.3,2.4,1.9c0.4-0.2,1-0.6,0.9-0.9c0-0.7-2-0.6-2-1.2		c0-0.5,1.4-0.9,1.3-1.2C44.4,82.2,43.7,82.2,43.1,82.5z"/>	<path class="st5" d="M44.4,80.5c0,0.9,1.2,1.4,1.8,0.9c0.4-0.3,0.5-0.9,0.3-1.4c-0.2-0.7-1-1-1.6-0.6		C44.6,79.6,44.4,80.1,44.4,80.5z"/>	<path class="st5" d="M47.2,78.2c0.1,0.3,0.5,0.4,0.8,0.2c0.4-0.3,0.4-1.1,0.2-1.2C47.8,77.1,47.1,77.8,47.2,78.2z"/></g><g>	<path class="st4" d="M79.5,26.8c0.5,0.7,1.1,1.1,1.4,1.3c1.3,0.9,2,0.6,4.6,1.4c1.9,0.5,2.6,1,2.9,0.7c0.4-0.3-0.1-1.3-0.5-1.9		c-1.1-1.5-2.7-1.7-3.5-3c-0.5-0.8-0.1-1-0.5-1.7c-1.2-2-6.5-3.5-7-2.6c-0.3,0.5,1.5,1.4,1.9,3.3C79.2,25.3,78.9,25.8,79.5,26.8z"/>	<path class="st5" d="M82.1,27.2c0.3,0.1,0.2,0.6,0.7,1c0,0,0.3,0.3,0.5,0.2c0.3,0,0.2-0.7-0.2-1.3c-0.1-0.2-0.5-0.8-1.2-1		c-0.6-0.2-1.2,0.1-1.2,0.5c0,0.3,0.4,0.7,0.7,0.8C81.8,27.5,81.9,27.1,82.1,27.2z"/>	<path class="st5" d="M81.2,24.8c0.4-0.2,1.2,0.1,1.3,0.3c0.1,0.1-0.1,0.2-0.2,0.3c-0.4,0.2-1.1,0.1-1.3-0.1		C80.9,25.1,81,24.9,81.2,24.8z"/>	<path class="st5" d="M79.2,23c0.4,0.2,0.9,0,0.8-0.3c0-0.2-0.5-0.5-0.8-0.6c-0.2,0-0.5,0.1-0.5,0.3C78.7,22.7,79,22.9,79.2,23z"/>	<path class="st5" d="M84.5,28.2c0,0.2,1.2,0.9,1.8,0.6c0.3-0.1,0.4-0.4,0.3-0.6c-0.1-0.1-0.2-0.1-1.2-0.1		C84.6,28.2,84.5,28.2,84.5,28.2z"/></g><path class="st6" d="M45.2,76.7"/><g>	<path class="st4" d="M32.9,14.1c-1.7-0.3-2.2,4.2-6.1,5.8c-2.7,1.1-4.1-0.3-6.5,1.2c-1.8,1.2-2.6,3.1-3.2,4.6		c-1.3,3.3-0.8,6.2-0.4,7.9c0.3,1.7,0.6,3,1.4,3.3c0.3,0.1,1.1,0.2,4.5-3.2c3-3.1,3.3-4.1,5.3-5.3c1.7-1,1.9-0.5,3.2-1.4		c0.4-0.3,3.4-2.4,4-6.1C35.5,18,34.5,14.4,32.9,14.1z"/>	<path class="st5" d="M21.9,24.6c-0.6,0.4-1.1,0.8-1.2,1.4c-0.2,1.1,1,2.2,1.4,2c0.3-0.1-0.2-1.2,0.3-2.4c0.5-1.2,1.5-1.6,1.4-1.8		C23.7,23.7,22.7,24,21.9,24.6z"/>	<path class="st5" d="M27.6,23.2c-0.1,0.2,0.4,0.3,1.5,1.4c1,1,1.1,1.4,1.6,1.4c0.6,0,1.4-0.8,1.3-1.4		C31.7,23.4,27.8,22.7,27.6,23.2z"/>	<path class="st5" d="M30,21.7c0,0.3,0.3,0.6,0.6,0.7c0.5,0.1,1-0.2,1.1-0.6c0.2-0.6-0.3-1.2-0.9-1.2C30.4,20.6,29.9,21.2,30,21.7z"		/>	<path class="st5" d="M32.4,19.4c0.6,0.2,1.3-0.2,1.5-0.7c0.2-0.4,0.3-1,0-1.3c-0.5-0.6-2-0.3-2.3,0.5		C31.5,18.5,31.8,19.2,32.4,19.4z"/>	<path class="st5" d="M25.5,27.3c-0.8,0.3-0.9,1.5-0.5,1.8c0.4,0.4,1.9-0.3,1.9-0.9C26.9,27.7,26.1,27.1,25.5,27.3z"/>	<path class="st5" d="M20.4,28.9c0.1,0.1-0.5,0.8-0.3,1.6c0.3,1,1.5,0.9,1.9,1.9c0.3,0.8-0.1,1.8-0.6,2c-0.4,0.1-0.8-0.2-1.1-0.6		c-0.5-0.7,0.1-1.6-0.3-2.1c-0.4-0.4-0.9-0.1-1.1-0.4C18.4,30.8,20.2,28.8,20.4,28.9z"/></g><g>	<path class="st2" d="M77.5,78.7c3.1,1,6.9-3.5,8.3-5.7c0.8-1.2,4.5-6.9,1.1-10.7c-1.1-1.3-3.3-2.6-5-2.3c-1.6,0.2-1.8,1.5-4.1,5.4		c-2.7,4.5-3.5,4.6-3.6,6.4C74,74.3,75.2,78,77.5,78.7z"/>	<path class="st3" d="M76.9,72.7c0.8,0.4,2.2-0.1,2.3-1c0.1-0.6-0.4-1.4-1.2-1.5c-0.8-0.2-1.5,0.3-1.7,0.9		C76.2,71.6,76.4,72.4,76.9,72.7z"/>	<path class="st3" d="M82.2,66.6c0.7-0.2,0.6-1.4,0.4-3.1c-0.1-0.8-0.1-1.2-0.3-1.2c-0.7-0.3-3.1,1.8-2.2,3.3		C80.6,66.2,81.6,66.8,82.2,66.6z"/></g><g>	<path class="st2" d="M68,31.2c1.1-0.1,2-0.7,2.3-1.3c1-1.8-2.9-4.6-5-4.4c-0.5,0-0.5,0.2-2.3,1.2c-1.4,0.8-2.1,1.2-2.9,1.3		c-1.8,0.4-2.9-0.3-3.3,0.1c-0.8,0.7,3.1,4.3,5,4c1.1-0.2,0.9-1.5,2.2-1.7C65.4,30.1,66.3,31.3,68,31.2z"/>	<path class="st3" d="M67.2,29.7c0.4-0.3,0.2-1-0.3-1.4c-0.4-0.3-1.2-0.7-2-0.5c-0.8,0.2-1.1,1-0.8,1.5C64.7,30,66.6,30.2,67.2,29.7		z"/>	<path class="st3" d="M62.7,30.1c0.8-0.2,0.9-1.6,0.2-1.9c-0.5-0.2-2.2,0.5-1.7,0.3l0,0c0,0-0.8,0.2-1.2,0.5		c-0.7,0.4-0.7,1.2-0.4,1.4c0.3,0.1,0.7-0.4,1.7-0.4C62.1,30,62.3,30.2,62.7,30.1z"/></g><g>	<path class="st4" d="M56.2,55.1c-1.4,2-0.9,3.7-1,7c-0.3,7.2-2.9,7.7-3,14.3c0,2-0.2,8.6,2.8,9.8c1.6,0.6,3.9-1,8.4-4.2		c4.1-2.9,6.2-4.4,7.3-6.7c0.3-0.6,1.9-4.2,0.7-8.2c-1.5-4.7-5.4-4.6-7.1-9.9c-0.8-2.6-0.4-4-1.6-4.7C61,51.3,57.7,52.8,56.2,55.1z"		/>	<path class="st5" d="M62.1,56.8c-1-0.3-3.1,1-3,2.7c0.1,1.7,2.4,2.5,3.3,2C63.6,60.8,63.4,57.2,62.1,56.8z"/>	<path class="st5" d="M62.9,66.9c-0.1-0.8-1.1-1.5-1.8-1.3c-1.1,0.3-1.5,2.7-0.9,3.1C60.9,69.2,63,68.1,62.9,66.9z"/>	<path class="st5" d="M65.6,66.8c-2.1,0-3.3,2.6-3.3,2.7c-0.8,2-0.3,4.3,0.2,4.4c0.5,0.1,0.6-1.5,2.2-3.2c1.6-1.6,3.1-1.8,3.1-2.6		C67.7,67.5,66.6,66.8,65.6,66.8z"/>	<path class="st5" d="M59.5,76c-1.3-0.4-2.6,0.4-3.1,1.6c-0.3,1,0.1,2.1,0.8,2.6c1.3,0.9,3.6,0,3.9-1.5C61.4,77.7,60.7,76.4,59.5,76		z"/></g><g>	<path class="st4" d="M73.2,21.3c-0.6,0.3-0.6,0.9-1,2.2c-0.6,1.8-1,1.8-1,2.7c0,1.3,0.8,2.4,1,2.6c1.6,2,4.5,1.9,5.9,1.9		c0.7,0,1.7-0.1,1.8-0.6c0.1-0.5-0.7-1.2-1-1.6c-1-1-1.5-0.7-2-1.4c-0.7-0.9,0-1.6-0.8-2.4c-0.5-0.6-0.9-0.4-1.2-0.9		c-0.6-0.9,0.2-1.9-0.3-2.4C74.3,21,73.6,21.1,73.2,21.3z"/>	<path class="st5" d="M74.1,24c-0.2-0.1-0.7,0.3-1,0.7c-0.5,0.4-0.8,0.7-0.7,1.1c0.1,0.2,0.4,0.4,0.6,0.4c0.4,0,0.7-0.4,0.8-0.7		C74.1,24.9,74.3,24.2,74.1,24z"/>	<path class="st5" d="M75.1,26.8c-0.3,0-0.6-0.4-0.5-0.7c0.1-0.3,0.4-0.4,0.6-0.3c0.2,0.1,0.3,0.3,0.3,0.5		C75.5,26.6,75.3,26.8,75.1,26.8z"/>	<path class="st5" d="M76.8,28.5c-0.3,0.1-0.4,0.5-0.3,0.8c0.2,0.3,0.9,0.3,1,0C77.6,29,77.1,28.4,76.8,28.5z"/>	<path class="st5" d="M73.4,27.6c-0.2,0.4-0.8,0.5-1,0.3c-0.2-0.2-0.1-0.6,0-0.8c0.3-0.3,0.9-0.3,1-0.1		C73.6,27.3,73.4,27.6,73.4,27.6z"/></g><g>	<path class="st2" d="M22.7,69.1c1.2,1.3,2.6,1,9.9,4.1c3.4,1.4,5.4,2.5,5.9,2.1c0.5-0.3-0.7-1.3-1.3-3.6c-0.4-1.4,0-1.3-0.3-2.1		c-1-2.1-3.8-2.6-4.9-4.5c-1.1-1.8,1-2.1-0.1-3.9c-1.2-1.9-5.2-3.9-7-3.6c-1.4,0.2-0.6,1.6-0.9,4.5C23.5,66.8,21.2,67.4,22.7,69.1z"		/>	<path class="st3" d="M25.2,69.1c0-0.2,0.9-0.3,1.7-0.1c1.2,0.3,2.5,1.1,2.5,1.3c-0.1,0.2-1.6-0.2-2.3-0.4		C26.8,69.9,25.2,69.4,25.2,69.1z"/>	<path class="st3" d="M28.5,67.5c-0.3-0.3,0.5-0.9,1.1-0.6c0.4,0.1,0.7,0.6,0.6,0.8C30.1,68,28.8,67.8,28.5,67.5z"/>	<path class="st3" d="M30.3,69.4c0.1-0.2,0.7,0,1.5-0.2c0.6-0.2,0.7-0.4,1-0.3c0.3,0.1,0.5,0.7,0.4,1.1c0,0.1-0.2,1-1,0.9		C31.2,70.8,30.1,69.7,30.3,69.4z"/>	<path class="st3" d="M26.3,66.6c-0.3,0.3-1,0.4-1.2,0.2s-0.1-0.6,0.2-0.9c0.3-0.3,0.9-0.5,1.2-0.4C26.7,65.7,26.6,66.3,26.3,66.6z"		/>	<path class="st3" d="M25.6,63.7c0.3,0.2,1-0.8,1.8-0.5c0.6,0.2,0.8,0.8,1.2,0.9c0.5,0.1,1-0.5,0.7-1c-0.4-0.6-2-1.1-3-0.9		C25.3,62.4,25.3,63.5,25.6,63.7z"/>	<path class="st3" d="M26.8,60.4c0.3,0.2,1.4,0.4,1.7-0.1c0.2-0.4-0.3-1-0.7-1.1C27.2,59.1,26.4,60.1,26.8,60.4z"/></g><g>	<path class="st2" d="M40.9,51.5c-1.4-0.2-3.3,0.1-3.7,1.1c-0.4,0.9,1.1,1.6,1,3.1c0,2-2.7,2.4-3.2,4.6c-0.4,2,1.2,4.6,3,4.9		c1.4,0.3,1.9-1.3,4.7-2.2c2.6-0.8,3.5,0.1,4.3-0.7C48.7,60.4,45.6,52.3,40.9,51.5z"/>	<path class="st3" d="M39.7,55.9c0.1,1.2,1.8,2.2,2.4,1.8c0.4-0.3,0.4-1.4-0.1-2.1c-0.4-0.5-1.2-1.1-1.7-0.8		C39.9,54.9,39.7,55.5,39.7,55.9z"/>	<path class="st3" d="M42,60.6c-0.1,0.4,0.3,0.8,0.6,0.8c0.5,0.1,1-0.6,0.8-1.1c-0.1-0.3-0.5-0.4-0.8-0.3		C42.3,60.1,42.1,60.3,42,60.6z"/>	<path class="st3" d="M39.2,58.4c-0.3-0.1-1,0.6-0.8,1.2c0.2,0.6,0.9,0.8,1.2,0.6C39.9,60,39.6,58.5,39.2,58.4z"/></g></svg>