<?xml version="1.0" encoding="utf-8"?><!-- Generator: Adobe Illustrator 26.0.3, SVG Export Plug-In . SVG Version: 6.00 Build 0)  --><svg version="1.1" id="Ebene_2" xmlns="http://www.w3.org/2000/svg" xmlns:xlink="http://www.w3.org/1999/xlink" x="0px" y="0px"	 viewBox="0 0 100 100" style="enable-background:new 0 0 100 100;" xml:space="preserve"><style type="text/css">	.st0{fill:#8A3C8F;stroke:#000000;stroke-width:2;stroke-miterlimit:10;}	.st1{fill:#DB8F00;stroke:#000000;stroke-width:0.5;stroke-miterlimit:10;}	.st2{fill:#69B42D;stroke:#000000;stroke-miterlimit:10;}	.st3{fill:#493127;stroke:#000000;stroke-width:0.25;stroke-miterlimit:10;}	.st4{fill:none;stroke:#000000;stroke-width:0.5;stroke-miterlimit:10;}</style><polygon class="st0" points="92,25.75 50,1.5 8,25.75 8,74.25 50,98.5 92,74.25 "/><path class="st1" d="M11.48,29.41c0.87-0.72,2.14-1.75,3.7-2.96c7.29-5.62,10.95-8.44,16-10.37c6.56-2.5,8.37-0.79,11.56-3.7	c3.55-3.25,2.71-6.69,5.63-7.85c3.54-1.41,9.08,1.92,11.26,6.07c1.23,2.35,1.22,4.93,1.19,10.07c-0.02,3.07-0.36,4.23-0.59,4.89	c-0.93,2.61-2.25,3.09-3.26,5.48c-1.35,3.18,0.18,4.24-0.74,6.22c-2.02,4.38-10.38,1.23-20.59,6.52c-3.8,1.97-3.39,2.79-6.67,4	c-5.82,2.14-14.25,2.17-17.19-2.22c-0.94-1.41-1.02-3.07-1.19-6.37C10.39,35.01,10.97,31.6,11.48,29.41z"/><path class="st2" d="M69.96,13.03c8.79,4.84,10.64,7.17,10.26,8.38c-0.34,1.08-2.27,0.62-4.3,2.07c-3.24,2.32-2.45,6.54-4,13.48	c-1.94,8.72-4.01,7.84-4.15,12.89c-0.15,5.73,2.54,5.81,4.15,14.52c1.35,7.35,0.28,11.85,2.81,13.04c2.25,1.06,5.53-1.56,6.37-0.44	c0.18,0.23,0.4,0.82-0.52,2.43c-1.98,3.52-5.35,4.86-9.33,6.9c-8.01,4.1-8.72,6-10.81,5.27c-2.83-0.99-3.86-5.29-4.82-9.27	c-1.37-5.69-0.15-7.48-1.78-10.52c-2.14-3.99-6.68-5.45-8.74-6.07c-10.32-3.14-22.07,2.26-24.89,3.56	c-4.52,2.08-6.58,3.85-8.74,2.81c-2.92-1.39-3.2-6.5-3.48-11.56c-0.26-4.67-0.62-11.08,2.15-12.3c2.57-1.13,4.47,3.7,10.07,4.89	c6.24,1.33,8.28-3.72,19.7-6.96c8.99-2.55,12.3-0.74,15.26-4.3c2.38-2.87,0.79-4.74,3.7-11.26c2.68-5.99,4.74-6.02,5.19-9.63	c0.78-6.34-5.15-11.04-4-12.3C60.61,8.08,62.61,8.3,69.96,13.03z"/><path class="st1" d="M82.89,23.19c0.64,0.56,1.63,1.35,2.96,2.07c2.06,1.11,3.15,1.08,3.85,1.48c3.06,1.75-1.51,11.67-1.93,22.07	c-0.5,12.49,5.33,16.94,1.63,22.37c-2.98,4.37-9.92,6.14-12.89,4c-2.24-1.61-0.44-4.77-2.52-11.85c-1.8-6.14-4.05-6.85-4.3-11.41	c-0.17-3.28,0.96-3.58,2.52-9.48c2.7-10.2,0.8-14.96,4.44-17.78C77.69,23.87,79.53,22.94,82.89,23.19z"/><path class="st1" d="M13.7,74.44c0.07-2.21,4.88-3.61,12.3-5.78c9.4-2.75,15.6-4.56,20.3-1.33c1.66,1.14,2.98,3.77,5.63,9.04	c3.09,6.15,4.61,9.29,3.56,12.74c-0.7,2.28-2.63,5.13-5.33,5.63c-3.72,0.69-6.64-3.48-10.67-7.11C27.38,76.72,13.58,78.2,13.7,74.44	z"/><path class="st3" d="M15.48,35.63c-1.43,3.37-1.39,4.64-0.89,5.04c0.4,0.31,0.8-0.14,1.78,0c1.62,0.24,1.83,1.65,4,2.67	c0.69,0.32,1.87,0.74,2.07,0.44c0.29-0.43-1.95-1.52-2.96-4.15c-0.67-1.75-0.27-2.79-1.19-3.56C17.51,35.41,16.35,35.47,15.48,35.63	z"/><path class="st3" d="M26.74,28.67c0.26,0.43,0.88,0.74,1.33,0.59c0.79-0.25,0.8-1.78,1.19-1.78c0.36,0.01,0.3,1.37,1.33,2.22	c0.13,0.11,0.79,0.65,1.19,0.44c0.65-0.33,0.5-2.57-0.59-4.15c-0.35-0.51-1.01-1.46-1.93-1.48C27.6,24.48,26.01,27.46,26.74,28.67z"	/><path class="st3" d="M43.04,20.52c-0.41,0.83-0.53,1.82-0.3,1.93c0.37,0.17,1.02-2.12,2.81-2.67c1.81-0.55,3.19,1.16,4.15,0.44	c0.66-0.49,0.1-1.37,0.89-3.41c0.34-0.87,0.75-1.92,1.63-2.22c1.03-0.35,2.05,0.54,2.22,0.3c0.2-0.29-1.53-1.24-2.07-3.11	c-0.42-1.45,0.12-2.58-0.15-2.67c-0.34-0.11-1.39,1.62-2.07,3.56c-0.78,2.22-0.39,2.78-1.19,3.7c-0.68,0.79-1.01,0.44-3.26,1.78	C43.82,19.27,43.31,19.96,43.04,20.52z"/><path class="st3" d="M52.07,30c-0.27,0.04,0.09,1.46-0.74,2.07c-0.72,0.53-1.46-0.17-2.37,0.3c-1.02,0.53-1.61,2.2-1.04,2.96	c0.41,0.54,1.3,0.48,1.93,0.44c0.58-0.04,2.15-0.13,2.96-1.33C54.05,32.63,52.45,29.95,52.07,30z"/><path class="st3" d="M22.59,74.3c-0.12-0.93,1.58-2.32,3.11-2.22c1.99,0.13,2.65,2.73,4,2.52c1.5-0.23,1.68-3.58,2.67-3.56	c0.86,0.02,1.45,2.59,1.63,4c0.13,1.02,0.49,3.77-0.59,4.3c-0.79,0.39-1.63-0.79-3.85-2.07C25.61,74.97,22.74,75.46,22.59,74.3z"/><path class="st3" d="M40.22,79.78c-0.61,0.36-0.31,1.15-0.89,3.41c-0.45,1.76-0.87,2.17-0.59,2.52c0.56,0.7,3.26,0.29,4.3-1.48	c0.49-0.84,0.73-2.19,0-3.26C42.37,79.97,40.97,79.35,40.22,79.78z"/><path class="st3" d="M44.67,73.41c0.05,0.12,0.64,1.5,2.07,1.78c0.72,0.14,1.98,0.06,2.37-0.74c0.49-1-0.77-2.25-0.89-2.37	c-1.02-1-2.87-1.49-3.56-0.74C44.08,71.97,44.6,73.25,44.67,73.41z"/><path class="st4" d="M48.37,73.7"/><path class="st3" d="M50.15,84.22c-0.38-0.07-1.6,1.89-1.04,3.56c0.79,2.33,4.6,2.68,4.74,2.37c0.11-0.25-2.13-0.82-3.11-2.96	C50.03,85.63,50.46,84.28,50.15,84.22z"/><path class="st3" d="M71.19,50.15c-0.22,0.38,1.35,2.51,3.41,2.37c1.21-0.08,2.46-0.95,2.81-2.22c0.42-1.53-0.57-3.17-1.04-3.11	c-0.54,0.07-0.04,2.4-1.33,3.26C73.65,51.36,71.42,49.74,71.19,50.15z"/><path class="st3" d="M78.89,33.7c-1.38-0.9-1.39-4.04,0.15-5.63c0.89-0.92,2.07-1.1,2.67-1.19c1.03-0.16,2.66-0.11,2.81,0.44	c0.19,0.65-1.98,1.01-2.81,2.96c-0.66,1.55,0.1,2.75-0.74,3.41C80.4,34.15,79.46,34.08,78.89,33.7z"/><path class="st3" d="M87.04,38.89c-0.43-0.17-0.89,1.52-2.96,3.11c-1.73,1.32-2.8,1.21-3.11,2.22c-0.32,1.04,0.39,2.53,1.63,3.11	c0.1,0.05,1.34,0.61,2.37,0c0.74-0.44,0.95-1.24,1.33-3.11C87.01,40.76,87.37,39.02,87.04,38.89z"/><path class="st3" d="M76.37,58.59c-0.04-0.76,1.26-0.9,2.81-2.52c1.62-1.69,1.97-3.37,2.37-3.26c0.44,0.12-0.35,2.03,0.59,4.3	c0.44,1.06,0.91,1.37,0.74,1.93c-0.3,0.96-2.14,1.29-3.41,1.19C78.2,60.11,76.42,59.47,76.37,58.59z"/><path class="st3" d="M86.74,61.41c-0.45,0-0.34,1.24-1.63,2.37c-0.77,0.68-1.53,0.86-1.48,1.19c0.05,0.34,0.9,0.19,1.63,0.74	c1.22,0.92,0.86,2.9,1.33,2.96c0.33,0.04,0.79-0.87,1.04-1.78C88.34,64.28,87.42,61.41,86.74,61.41z"/><path class="st3" d="M78,69.26c0.4-0.38,2.82,0.54,2.96,2.22c0.09,1-0.68,1.72-0.74,1.78c-0.99,0.9-2.64,0.75-2.81,0.3	c-0.14-0.36,0.75-0.64,1.04-1.63C78.82,70.6,77.68,69.57,78,69.26z"/></svg>