<?xml version="1.0" encoding="utf-8"?><!-- Generator: Adobe Illustrator 26.0.3, SVG Export Plug-In . SVG Version: 6.00 Build 0)  --><svg version="1.1" id="Ebene_2_00000074422167821747138070000012155992511794515371_"	 xmlns="http://www.w3.org/2000/svg" xmlns:xlink="http://www.w3.org/1999/xlink" x="0px" y="0px" viewBox="0 0 100 100"	 style="enable-background:new 0 0 100 100;" xml:space="preserve"><style type="text/css">	.st0{fill:#8A3C8F;stroke:#000000;stroke-width:2;stroke-miterlimit:10;}	.st1{fill:#69B42D;stroke:#000000;stroke-miterlimit:10;}	.st2{fill:#C78F55;stroke:#000000;stroke-width:0.5;stroke-miterlimit:10;}	.st3{fill:#C78F55;stroke:#000000;stroke-width:0.5;stroke-miterlimit:10;}	.st4{fill:#493127;stroke:#000000;stroke-width:0.25;stroke-miterlimit:10;}	.st5{fill:#493127;stroke:#000000;stroke-width:0.25;stroke-miterlimit:10;}</style><polygon class="st0" points="8,74.2 50,98.5 92,74.2 92,25.8 50,1.5 8,25.8 "/><path class="st1" d="M8,68c2.3-1.4,9.1-4.3,13.7-6.7c5.8-3.1,7.5-3.6,12.9-6.5c12-6.4,13.5-9,14.2-10.4c1.4-3,0.5-3.9,2.5-7.8	c1-2,3-5.2,6.5-7.9c2.5-1.9,4.5-2.7,7.8-4c6.1-2.3,9.2-3.6,12-2.4c0.7,0.3,2.1,1.1,3,0.4c0.6-0.5,0.6-1.5,0.6-1.8	c-0.1-3-7.3-5.8-14.6-9.9C57.2,5.8,56,3,50.9,3c-3.9,0-8.5,1.8-9,4.3c-0.4,1.9,1.8,2.8,2.1,6.2c0.2,2.1-0.5,3.8-1.3,6.1	c-1.2,3.1-1.8,3-3.3,6.2c-1.6,3.6-1,4.4-2.5,7.1c-0.6,1.1-1.8,3.3-4,4.9c-3.6,2.6-8.3,1.8-14.1,1c-5.8-0.8-6.6-1.9-8.1-1	C8.4,39.2,8.1,42.7,8,54.7C8,59.9,8,64.4,8,68z"/><path class="st2" d="M42.9,93.4c0.3-0.6,0.6-1.5,0.7-2.7c0.2-1.5-0.1-3.3-1.8-6.4c-2.7-4.8-4.3-4.6-4.6-6.8	c-0.3-2.9,2.5-3.6,3.3-7.7c0.4-2.3,0.4-6.3-1.9-8.3c-2-1.7-3.6-0.1-15.7,1.8c-3,0.5-5.4,0.7-7.6,2.7c-0.7,0.6-2.8,2.4-2.8,5	c-0.1,3.5,3.8,6.1,6.4,7.8c2.8,1.9,5.2,2.7,5.6,2.8C28.4,83,34.2,85.9,42.9,93.4z"/><path class="st2" d="M53.9,87.9c2-0.4,1.8-3.5,5.5-8.3c1.8-2.3,2.7-3.5,4.3-4c4.5-1.4,9.2,4.3,10.2,3.4c0.8-0.8-1.2-5.6-5.2-9.2	c-4.4-3.9-12.4-7.5-19.4-4.3c-0.3,0.2-7.3,3.4-7.4,8.6c-0.1,2.6,1.8,4.6,5.5,8.7C50.6,86.5,52.2,88.3,53.9,87.9z"/><path class="st2" d="M83.7,73.6c1-0.2,1.5-1.9,1.7-2.8c0.1-0.2,0.3-1.1,0.3-1.9c0.1-3.1-3-4.6-4.2-8.4c-0.9-3.1,0.5-3.6-0.6-5.6	c-1.5-2.6-4-1.7-7.7-4.4c-3.6-2.6-2.8-4.6-5.9-6.4c-3.3-1.9-8.2-1.9-9.6,0.2c-1.2,1.8,1.2,3.7,0.4,8c-0.6,3-2.1,3.7-1.6,5.3	c0.7,2.4,4.4,3.3,7,4c4.7,1.2,5.1-0.2,7.4,1c3.2,1.6,3.3,4.5,7.3,8.2c0.4,0.4,1.6,1.1,4,2.5C82.7,73.4,83.1,73.7,83.7,73.6z"/><path class="st3" d="M51.7,62.9c1.2,0,2.2-1.2,2.7-2.2c0.6-1.6-0.4-2.4-1-5.8c-0.5-2.6,0-3.2-0.7-5.5c-0.6-1.8-0.9-3-1.8-3.3	c-1.5-0.4-2.5,2.7-6.5,5.5c-3,2-4.9,1.9-5.3,3.6c-0.4,1.4,0.7,3.3,2.1,4.2c2.2,1.4,3.9-0.5,6.7,0.7C49.8,61.1,50.1,63,51.7,62.9z"/><path class="st3" d="M84.1,50.7c1.1-0.6,1.3-2.1,1.6-4c0.8-4.9-1.2-6.1-1-10.5c0.2-4.9,2.9-6.3,1.6-9c-0.8-1.9-2.9-3.1-4.7-3.4	c-5.1-1-8,4.5-12.9,3.1c-1.8-0.5-1.6-1.3-3.1-1.5c-4-0.5-7.8,4.5-9.9,7.3c-2.8,3.7-4.5,5.2-4,7c0.6,2,3.2,3.2,5.3,3.4	c2.8,0.2,3.5-1.6,6.2-1.9c2.4-0.3,3.6,0.8,11.1,5.5C80.8,50.6,82.7,51.5,84.1,50.7z"/><path class="st2" d="M29.4,34.6c2.1-0.1,3.6-2,4-2.5c1.4-1.8,0.8-2.9,1.8-5.8c1.4-4.3,3.5-4.5,4-8c0.1-0.5,0.5-4.1-1.2-5.2	c-2.1-1.3-7.4,1.5-9.9,5.5c-1.3,2.1-1.3,3.6-2.8,4.2c-1.9,0.7-3-1.3-5.8-1.5c-3.5-0.2-7.7,2.8-8.6,6.8c-0.2,0.8-0.7,3.6,1,5.9	c2.1,2.8,6.7,3.5,8.6,1.9c1.7-1.4,0.7-4.1,2.1-4.6C24.3,30.7,26.2,34.8,29.4,34.6z"/><path class="st4" d="M81.7,68.9c0.5-1.1,0.4-1.6,0.2-1.8c-0.2-0.2-0.4-0.2-0.7-0.5c-0.1-0.1-0.3-0.3-0.4-0.9c-0.3-1,0-1.3-0.2-2.2	c-0.1-0.2-0.2-1-0.5-1c-0.2,0-0.3,0.6-0.8,1.5c-0.6,0.9-1,1-1,1.4c0.1,0.4,0.6,0.4,1.1,1.2c0.2,0.4,0.2,0.6,0.4,0.9	C79.9,67.9,80.4,68.5,81.7,68.9z"/><path class="st4" d="M73.8,54.6c0.2-0.2-0.3-1.1-0.7-1.9c-0.9-1.6-1.7-2-1.9-2.2c-0.3-0.1-0.7-0.3-1.1-0.2c-0.4,0.2-0.3,0.7-0.7,0.8	c-0.4,0.1-0.8-0.2-1.3-0.5c-0.8-0.6-1.1-1.1-1.3-1c-0.3,0.1-0.4,0.7-0.4,1.1c0,2.3,2.9,4.5,3.6,4.1c0.4-0.3-0.2-1.4,0.2-1.8	C70.9,52.5,73.4,55,73.8,54.6z"/><path class="st4" d="M64.1,57.6c0-0.7-1.2-1.2-1.8-1.6c-1.1-0.5-1.7-0.5-1.8-0.8c-0.2-0.7,1.7-1.4,1.6-2c-0.1-0.4-1.1-0.5-1.9-0.2	c-1.1,0.4-1.8,1.8-1.5,2.9c0.2,0.8,0.8,1.2,1.8,1.8c0.8,0.5,1.8,1.2,2.7,0.8C63.5,58.4,64.1,58,64.1,57.6z"/><path class="st4" d="M62.2,50c-0.5,0-0.4-0.8-1.2-1.6c-0.8-0.8-1.5-0.6-1.7-1.1c-0.4-0.9,1.1-2.7,1.7-2.4c0.4,0.1,0,1,0.7,2	c0.6,1,1.5,1,1.6,1.7C63.3,49.3,62.6,50,62.2,50z"/><path class="st5" d="M50.2,55.5c0.6-0.3,1.7,0.3,1.8,0.9c0,0.4-0.6,0.5-1,1.3c-0.5,0.8-0.1,1.3-0.4,1.6c-0.8,0.7-4.2-1.7-4-2.1	c0.1-0.3,1.9,0.8,2.8,0C49.9,56.7,49.6,55.8,50.2,55.5z"/><path class="st4" d="M71.7,75.7c0.1-0.3-0.5-0.4-1-1.3c-0.4-0.8-0.2-1.4-0.6-1.6c-0.3-0.1-0.5,0.3-1.4,0.6c-0.9,0.3-1.3,0.1-1.5,0.4	c-0.2,0.4,0.1,1,0.4,1.3C68.8,76.6,71.6,76.3,71.7,75.7z"/><path class="st4" d="M63.3,70.4c-0.1-0.5-1.9-0.7-3.3-0.1c-0.3,0.1-1.7,0.7-1.6,1.6c0,0.4,0.4,0.9,0.8,1c0.2,0.1,0.6,0.2,2.5-1.2	C62.8,71,63.3,70.6,63.3,70.4z"/><path class="st4" d="M56.8,77.4c0.3-0.2-0.1-0.8,0.3-1.5c0.3-0.5,0.8-0.6,0.8-0.8c0-0.3-0.8-0.5-1.5-0.4c-0.7,0.1-1.5,0.7-1.5,1.5	C55.1,77.2,56.4,77.7,56.8,77.4z"/><path class="st4" d="M52.7,81.5c0.3-0.4,0.5-0.4,0.9-1c0.3-0.5,0.5-1.1,0.3-1.3c-0.2-0.2-0.8,0.7-1.9,0.9c-0.9,0.2-1.3-0.3-1.7,0	c-0.5,0.4-0.4,1.6,0.2,2.4c0.5,0.7,1.5,1.2,1.8,0.9C52.7,83.2,52.1,82.3,52.7,81.5z"/><path class="st4" d="M48.4,77c0.4-0.5,0.2-1.2,0-1.6c-0.4-0.8-1.4-1-1.8-1c-0.7-0.1-1.7-0.1-1.7,0.2c-0.1,0.3,1.1,0.4,1.8,1.5	c0.4,0.6,0.4,1.1,0.8,1.3C47.8,77.4,48.2,77.2,48.4,77z"/><path class="st5" d="M49.4,52.8c0.2,0-0.1-1,0-2.4c0.1-1.4,0.6-2,0.4-2.2c-0.1-0.1-0.4,0-2.4,1.5c-1.3,1-1.7,1.3-1.6,1.5	c0.1,0.2,1.4-0.6,2.4-0.1C49.1,51.6,49.2,52.9,49.4,52.8z"/><path class="st5" d="M81.2,44.8c-0.2,0.3-0.6,0.6-1,0.6c-1.1,0.1-2.3-1.8-2-3.2c0-0.2,0.2-0.8,0.6-1c0.4-0.2,0.7,0.2,1.2,0.1	c1-0.1,1.6-1.6,1.7-1.6c0.1,0-1,1.3-0.7,2.5c0.2,0.6,0.7,0.9,0.6,1.6C81.6,44.4,81.3,44.7,81.2,44.8z"/><path class="st5" d="M73.4,40.6c0.3-0.2-0.1-0.9,0.1-2.1c0.2-1.3,0.9-2.1,0.7-2.2c-0.1-0.1-0.7,0.3-1.6,1.2c-1,0.9-1.1,1-1.4,1.1	c-0.9,0.2-1.5-0.5-2-0.2c-0.4,0.3-0.5,1.2-0.2,1.5c0.4,0.4,1.1-0.4,2.3-0.2C72.5,39.9,73.1,40.8,73.4,40.6z"/><path class="st5" d="M62,37.3c0.1-0.4-0.4-1-0.7-1c-0.3,0-0.4,0.4-1,0.6c-0.1,0-0.2,0-0.2,0c-0.7,0-0.6-1.8-1.4-2.1	c-0.8-0.3-2.1,1-2.3,1.3c-0.1,0.1-0.4,0.6-1,1.5c-0.6,0.9-0.7,1.1-0.7,1.2c0.2,0.2,1-0.7,2.6-1c0.6-0.1,0.7,0,1.8,0	C60.5,37.9,61.9,37.9,62,37.3z"/><path class="st5" d="M77.9,35.6c-0.2,0-0.5-0.7-0.5-1.2c-0.3-1.6,0.6-2.8,0.4-2.9c-0.3-0.2-1.7,2.6-3.3,2.5	c-0.6-0.1-1.2-0.5-1.2-0.8c0-0.4,1.1-0.2,1.8-1c0.7-0.8,0-1.5,0.6-2.5c0.5-0.8,1.4-1,2.5-1.3c0.4-0.1,0.3,0,2.1-0.3	c1-0.2,1.3-0.2,1.4-0.1c0.2,0.3-1.5,0.9-2.3,2.5c-0.2,0.4-0.1,0.4-0.6,2.8C78.2,35.2,78.1,35.6,77.9,35.6z"/><path class="st5" d="M67.6,30.1c1.2-0.2,1.8-0.7,1.9-0.4c0.1,0.1-0.1,0.3-0.7,1.6c-0.5,0.9-0.5,1.1-0.9,1.3	c-0.3,0.1-0.8,0.2-1.1-0.1c-0.4-0.3-0.2-0.8-0.5-1.3c-0.4-0.7-1.2-0.7-1.1-0.9C65.2,30,66.2,30.3,67.6,30.1z"/><path class="st4" d="M49.6,71.8c-0.7,0.2-1.1-0.9-1.9-0.9c-1,0.1-1.3,1.7-1.8,1.6c-0.5-0.1-0.8-1.7-0.2-3c0.1-0.2,0.6-1.5,1.5-1.6	c0.5,0,0.6,0.3,1.6,1c1.2,0.8,1.7,0.8,1.8,1.3C50.6,70.9,50.2,71.7,49.6,71.8z"/><path class="st4" d="M40.9,87.7c0.2-0.2-0.4-0.7-0.5-1.8c-0.1-1,0.2-1.6-0.1-1.7c-0.2-0.1-0.5,0.7-1.4,1c-0.7,0.3-1.4,0.1-2.7-0.3	c-1.2-0.3-1.6-0.6-1.7-0.4c-0.2,0.2,0.3,1.3,1.2,1.9c0.9,0.5,1.3,0.1,2.7,0.4C39.9,87.2,40.7,87.9,40.9,87.7z"/><path class="st4" d="M34.2,81c0.2-0.3-0.1-0.6-0.3-1.4c-0.3-1.3,0-2-0.3-2.1c-0.3-0.1-0.5,0.3-1.2,0.7c-1.4,0.8-2.6,0.2-2.8,0.7	c-0.2,0.6,1.2,2,2.9,2.4C32.7,81.2,33.9,81.5,34.2,81z"/><path class="st4" d="M30.2,74.2c0.4,0,1-0.9,0.7-1.4c-0.3-0.6-1.3-0.5-1.6-0.2C29,73,29.6,74.2,30.2,74.2z"/><path class="st4" d="M34.6,69.7c0.6-0.6,0.6-1.3,0.9-2.7c0.4-2.1,0.8-3,0.6-3c-0.3-0.1-1.3,3-3,3.2c-1,0.1-1.5-0.9-3-0.8	c-0.9,0-1.7,0.5-1.7,0.7c0.1,0.5,2.6-0.1,3.7,1.3c0.7,0.9,0.4,1.9,1,2.2C33.7,70.7,34.5,69.8,34.6,69.7z"/><path class="st4" d="M24.8,72.4c1.1-0.5,1.4-1.6,1.7-1.5c0.4,0.2,0.1,1.8,0.1,2.1c-0.2,0.9-0.3,1.1-0.7,2.3c-0.4,1.5-0.3,2-0.6,2.1	c-0.4,0.1-0.7-0.9-2.1-2.7c-0.9-1.2-1.4-1.7-1.3-2C22.3,72.2,23.5,73,24.8,72.4z"/><path class="st4" d="M20.2,70.2c0.7-0.6,1.4-1.3,1.3-2.2c-0.1-0.5-0.4-1-0.7-1c-0.4,0-0.3,1.3-1,1.6c-1,0.5-2.8-1.3-2.8-1.3	c-0.1,0.1,1.4,0.9,1.6,2.2c0.1,0.8-0.3,1.5-0.1,1.6C18.8,71.4,20,70.3,20.2,70.2z"/><path class="st4" d="M18.5,74.5c0.3-0.5-1.6-1.3-2.1-3.2c-0.3-1.2,0.1-2.1-0.3-2.2c-0.4-0.2-1.1,0.8-1.2,1c-0.3,0.4-0.8,1.2-0.7,2.1	c0.2,1.4,1.7,2.2,2.7,2.4C16.9,74.6,18.3,74.9,18.5,74.5z"/><path class="st4" d="M32,31.8c0.2-0.1,0.4-0.4,0.5-0.7c0.1-0.4,0-0.7-0.2-1c-0.6-1.4-1-1.5-1-2c0.1-0.9,1.5-1,1.6-1.8	c0-0.6-0.5-1.2-0.9-1.2c-0.6,0.1-0.3,2-1.6,3c-0.9,0.7-1.8,0.2-2.1,0.7C28,29.7,30.9,32.4,32,31.8z"/><path class="st4" d="M29.9,24c0.2-0.1-0.2-0.6-0.2-1.3c0.1-0.9,1.1-1.2,1-1.8c-0.1-0.4-0.7-0.8-1.3-0.7c-0.8,0.1-1.4,1.3-1.2,2.3	C28.5,23.5,29.6,24.2,29.9,24z"/><path class="st4" d="M35.3,18.9c0.4-0.5-0.3-1.2,0.2-2c0.3-0.5,0.8-0.4,0.9-0.9s-0.2-1-0.7-1.3c-1-0.5-2.5,1-2.7,1.2	c-0.4,0.4-1.5,1.5-1.1,2.4C32.4,19.5,34.8,19.6,35.3,18.9z"/><path class="st4" d="M20.2,28.6c0.4-0.2,0.2-0.8,0.9-2.6c0.5-1.3,0.8-1.7,0.6-2c-0.4-0.5-1.9-0.3-2.2,0.4c-0.3,0.6,0.4,1.2,0.1,1.6	c-0.3,0.4-1.3-0.2-1.6,0.2C17.7,26.6,19.4,28.9,20.2,28.6z"/><path class="st4" d="M23.3,29.5c0.5-0.2,0.6-1.2,0.3-1.3c-0.3-0.2-1.2,0.6-1.1,1C22.5,29.4,23,29.6,23.3,29.5z"/><path class="st4" d="M17.3,33.4c0.1-0.8,0.2-1.5-0.3-1.9c-0.6-0.4-1.7-0.2-2,0.4c-0.3,0.6,0.5,1.2,0.2,2.1c-0.2,0.8-1.1,0.9-1,1.3	c0.1,0.5,1.1,1,1.8,0.7C17,35.7,17.2,34.2,17.3,33.4z"/></svg>