<?xml version="1.0" encoding="utf-8"?><!-- Generator: Adobe Illustrator 26.0.3, SVG Export Plug-In . SVG Version: 6.00 Build 0)  --><svg version="1.1" id="Ebene_2" xmlns="http://www.w3.org/2000/svg" xmlns:xlink="http://www.w3.org/1999/xlink" x="0px" y="0px"	 viewBox="0 0 100 100" style="enable-background:new 0 0 100 100;" xml:space="preserve"><style type="text/css">	.st0{fill:#8A3C8F;stroke:#000000;stroke-width:2;stroke-miterlimit:10;}	.st1{fill:#69B42D;stroke:#000000;stroke-miterlimit:10;}	.st2{fill:#DB8F00;stroke:#000000;stroke-width:0.5;stroke-miterlimit:10;}	.st3{fill:#DB6500;stroke:#000000;stroke-width:0.5;stroke-miterlimit:10;}	.st4{fill:#493127;stroke:#000000;stroke-width:0.25;stroke-miterlimit:10;}	.st5{fill:#493127;stroke:#000000;stroke-width:0.25;stroke-miterlimit:10;}</style><polygon class="st0" points="92,25.75 50,1.5 8,25.75 8,74.25 50,98.5 92,74.25 "/><path class="st1" d="M92,32c-2.3,1.38-9.12,4.32-13.71,6.74c-5.82,3.07-7.46,3.61-12.89,6.52C53.4,51.7,51.87,54.22,51.19,55.63	c-1.44,2.98-0.48,3.9-2.52,7.85c-1.04,2.02-3.04,5.16-6.52,7.85c-2.46,1.9-4.52,2.7-7.85,4c-6.05,2.35-9.17,3.57-12,2.37	c-0.68-0.29-2.13-1.05-2.96-0.44c-0.63,0.46-0.6,1.5-0.59,1.78c0.09,3.01,7.31,5.76,14.64,9.88c9.42,5.29,10.63,8.11,15.73,8.05	c3.93-0.04,8.5-1.77,9.04-4.3c0.4-1.89-1.77-2.75-2.07-6.22c-0.18-2.11,0.45-3.77,1.33-6.07c1.18-3.08,1.85-3,3.26-6.22	c1.58-3.61,1.05-4.42,2.52-7.11c0.61-1.11,1.79-3.28,4-4.89c3.58-2.6,8.3-1.85,14.07-1.04c5.79,0.82,6.55,1.86,8.07,1	c2.32-1.31,2.58-4.86,2.67-16.78C92.04,40.1,92.03,35.58,92,32z"/><path class="st2" d="M57.11,6.59c-0.28,0.61-0.63,1.52-0.74,2.67c-0.15,1.48,0.09,3.29,1.78,6.37c2.65,4.83,4.35,4.56,4.59,6.81	c0.31,2.91-2.48,3.62-3.26,7.7c-0.43,2.27-0.38,6.33,1.93,8.3c1.98,1.69,3.58,0.1,15.7-1.78c3.02-0.47,5.39-0.75,7.56-2.67	c0.66-0.59,2.77-2.45,2.81-5.04c0.07-3.55-3.78-6.12-6.37-7.85c-2.78-1.86-5.23-2.68-5.63-2.81C71.67,17,65.8,14.05,57.11,6.59z"/><path class="st2" d="M46.15,12.07c-1.99,0.44-1.75,3.47-5.48,8.3c-1.8,2.33-2.71,3.5-4.3,4c-4.54,1.43-9.2-4.33-10.22-3.41	c-0.83,0.76,1.18,5.6,5.19,9.19c4.37,3.91,12.37,7.46,19.41,4.3c0.33-0.15,7.29-3.38,7.41-8.59c0.06-2.55-1.79-4.61-5.48-8.74	C49.47,13.54,47.83,11.7,46.15,12.07z"/><path class="st2" d="M16.37,26.44c-1.01,0.25-1.47,1.86-1.74,2.83c-0.06,0.22-0.31,1.08-0.33,1.91c-0.09,3.12,2.96,4.62,4.15,8.44	c0.95,3.06-0.52,3.63,0.59,5.63c1.45,2.59,3.99,1.73,7.7,4.44c3.61,2.64,2.76,4.59,5.93,6.37c3.34,1.88,8.23,1.91,9.63-0.15	c1.22-1.8-1.24-3.72-0.44-8c0.57-3.05,2.11-3.65,1.63-5.33c-0.68-2.37-4.38-3.33-6.96-4c-4.65-1.2-5.06,0.15-7.41-1.04	c-3.16-1.6-3.31-4.51-7.26-8.15c-0.41-0.38-1.61-1.09-4-2.52C17.34,26.58,16.88,26.32,16.37,26.44z"/><path class="st3" d="M48.37,37.11c-1.18,0.05-2.24,1.15-2.67,2.22c-0.62,1.56,0.42,2.36,1.04,5.78c0.47,2.64,0.04,3.19,0.74,5.48	c0.56,1.84,0.92,3.01,1.78,3.26c1.53,0.44,2.45-2.73,6.52-5.48c3.01-2.03,4.92-1.93,5.33-3.56c0.36-1.44-0.7-3.28-2.07-4.15	c-2.22-1.4-3.92,0.54-6.67-0.74C50.18,38.9,49.94,37.04,48.37,37.11z"/><path class="st3" d="M15.93,49.26c-1.11,0.64-1.34,2.11-1.63,4c-0.75,4.87,1.24,6.14,1.04,10.52c-0.23,4.89-2.86,6.33-1.63,9.04	c0.84,1.86,2.93,3.05,4.74,3.41c5.06,0.99,8.04-4.51,12.89-3.11c1.76,0.51,1.56,1.29,3.11,1.48c4.04,0.51,7.81-4.46,9.93-7.26	c2.76-3.65,4.49-5.22,4-6.96c-0.56-2.02-3.22-3.24-5.33-3.41c-2.84-0.22-3.5,1.58-6.22,1.93c-2.37,0.3-3.63-0.85-11.11-5.48	C19.18,49.37,17.28,48.47,15.93,49.26z"/><path class="st2" d="M70.59,65.41c-2.12,0.12-3.6,2.01-4,2.52c-1.4,1.79-0.82,2.87-1.78,5.78c-1.42,4.33-3.54,4.49-4,8	c-0.06,0.47-0.54,4.12,1.19,5.19c2.13,1.31,7.39-1.47,9.93-5.48c1.31-2.07,1.34-3.59,2.81-4.15c1.89-0.72,3.04,1.33,5.78,1.48	c3.49,0.19,7.65-2.8,8.59-6.81c0.2-0.84,0.7-3.63-1.04-5.93c-2.14-2.83-6.66-3.55-8.59-1.93c-1.69,1.42-0.74,4.06-2.07,4.59	C75.71,69.35,73.84,65.22,70.59,65.41z"/><path class="st4" d="M18.37,31.11c-0.51,1.12-0.43,1.61-0.22,1.85c0.18,0.21,0.43,0.2,0.74,0.52c0.08,0.08,0.28,0.31,0.44,0.89	c0.27,0.96-0.02,1.28,0.22,2.22c0.06,0.22,0.25,0.96,0.52,0.96c0.25,0,0.27-0.62,0.81-1.48c0.56-0.88,1.03-1,0.96-1.41	c-0.07-0.43-0.63-0.43-1.11-1.19c-0.24-0.38-0.23-0.58-0.37-0.89C20.15,32.12,19.65,31.54,18.37,31.11z"/><path class="st4" d="M26.22,45.41c-0.23,0.21,0.26,1.08,0.74,1.93c0.92,1.63,1.65,2.02,1.93,2.15c0.27,0.13,0.74,0.34,1.11,0.15	c0.39-0.2,0.32-0.67,0.67-0.81c0.35-0.14,0.78,0.18,1.26,0.52c0.84,0.61,1.07,1.11,1.33,1.04c0.28-0.07,0.37-0.71,0.37-1.11	c0.01-2.31-2.91-4.5-3.56-4.07c-0.4,0.27,0.25,1.43-0.22,1.78C29.09,47.52,26.65,45.02,26.22,45.41z"/><path class="st4" d="M35.93,42.44c-0.02,0.68,1.21,1.25,1.85,1.56c1.11,0.52,1.68,0.46,1.78,0.81c0.18,0.67-1.73,1.44-1.56,2	c0.12,0.38,1.14,0.54,1.93,0.22c1.08-0.43,1.75-1.78,1.48-2.89c-0.2-0.81-0.83-1.23-1.78-1.85c-0.77-0.5-1.77-1.16-2.74-0.81	C36.48,41.63,35.94,42,35.93,42.44z"/><path class="st4" d="M37.85,50c0.45,0.04,0.39,0.79,1.19,1.56c0.81,0.78,1.48,0.58,1.7,1.11c0.38,0.92-1.11,2.65-1.7,2.44	c-0.39-0.13-0.03-0.97-0.67-2c-0.62-1.01-1.47-1-1.56-1.7C36.73,50.74,37.38,49.96,37.85,50z"/><path class="st5" d="M49.85,44.52c-0.62,0.3-1.74-0.32-1.78-0.89c-0.03-0.43,0.6-0.51,1.04-1.33c0.45-0.84,0.12-1.35,0.44-1.63	c0.84-0.72,4.19,1.69,4,2.07c-0.13,0.27-1.9-0.78-2.81,0C50.1,43.28,50.45,44.22,49.85,44.52z"/><path class="st4" d="M28.3,24.3c-0.08,0.28,0.51,0.41,0.96,1.33c0.41,0.84,0.24,1.4,0.59,1.56c0.32,0.13,0.52-0.28,1.41-0.59	c0.87-0.31,1.29-0.13,1.48-0.44c0.22-0.36-0.09-0.98-0.37-1.33C31.26,23.43,28.47,23.72,28.3,24.3z"/><path class="st4" d="M36.74,29.63c0.13,0.49,1.88,0.67,3.26,0.07c0.28-0.12,1.67-0.73,1.63-1.63c-0.02-0.44-0.38-0.89-0.81-1.04	c-0.19-0.06-0.64-0.15-2.52,1.19C37.22,28.99,36.68,29.38,36.74,29.63z"/><path class="st4" d="M43.19,22.59c-0.29,0.22,0.11,0.82-0.3,1.48c-0.32,0.53-0.85,0.58-0.81,0.81c0.04,0.28,0.81,0.52,1.48,0.37	c0.65-0.14,1.54-0.71,1.48-1.48C44.96,22.85,43.58,22.31,43.19,22.59z"/><path class="st4" d="M47.33,18.52c-0.29,0.43-0.55,0.41-0.89,0.96c-0.27,0.45-0.49,1.11-0.3,1.26c0.24,0.19,0.78-0.7,1.93-0.89	c0.92-0.15,1.31,0.3,1.7,0c0.52-0.4,0.43-1.65-0.15-2.44c-0.5-0.68-1.45-1.17-1.85-0.89C47.36,16.81,47.91,17.65,47.33,18.52z"/><path class="st4" d="M51.63,23.04c-0.38,0.47-0.21,1.17,0,1.56c0.43,0.8,1.39,0.96,1.85,1.04c0.72,0.12,1.65,0.05,1.7-0.22	c0.06-0.31-1.13-0.39-1.85-1.48c-0.41-0.62-0.4-1.14-0.81-1.26C52.19,22.58,51.82,22.8,51.63,23.04z"/><path class="st5" d="M50.59,47.19c-0.17,0.05,0.13,1.02,0,2.37c-0.13,1.39-0.62,2.04-0.37,2.22c0.14,0.1,0.42,0,2.37-1.48	c1.33-1.01,1.7-1.34,1.63-1.48c-0.12-0.24-1.36,0.58-2.37,0.07C50.93,48.42,50.78,47.13,50.59,47.19z"/><path class="st5" d="M18.78,55.17c0.24-0.3,0.63-0.59,1.03-0.62c1.07-0.07,2.29,1.78,1.99,3.16c-0.03,0.15-0.17,0.77-0.62,0.96	c-0.41,0.17-0.68-0.18-1.17-0.14c-0.97,0.08-1.56,1.63-1.65,1.58c-0.08-0.05,1.01-1.3,0.69-2.47c-0.17-0.63-0.66-0.87-0.62-1.58	C18.47,55.6,18.71,55.27,18.78,55.17z"/><path class="st5" d="M26.59,59.41c-0.32,0.2,0.09,0.88-0.07,2.07c-0.18,1.33-0.91,2.09-0.74,2.22c0.14,0.1,0.66-0.34,1.63-1.19	c1.01-0.88,1.06-1.02,1.41-1.11c0.93-0.25,1.51,0.49,2,0.15c0.42-0.29,0.49-1.17,0.15-1.48c-0.42-0.38-1.11,0.4-2.3,0.22	C27.48,60.12,26.96,59.18,26.59,59.41z"/><path class="st5" d="M38,62.67c-0.12,0.38,0.38,0.98,0.74,0.96c0.29-0.02,0.4-0.44,1.01-0.62c0.12-0.04,0.19-0.05,0.25-0.05	c0.67,0.05,0.61,1.76,1.41,2.07c0.83,0.32,2.1-1.04,2.3-1.26c0.12-0.13,0.42-0.58,1.04-1.48c0.63-0.93,0.73-1.11,0.67-1.19	c-0.16-0.19-1.05,0.71-2.59,0.96c-0.64,0.1-0.65-0.03-1.85,0C39.57,62.1,38.17,62.13,38,62.67z"/><path class="st5" d="M22.15,64.44c0.23-0.01,0.46,0.66,0.55,1.17c0.27,1.58-0.61,2.83-0.41,2.95c0.28,0.17,1.68-2.6,3.3-2.47	c0.61,0.05,1.2,0.51,1.17,0.82c-0.04,0.42-1.14,0.25-1.78,1.03c-0.66,0.79-0.01,1.54-0.62,2.47c-0.5,0.76-1.43,1.02-2.47,1.3	c-0.42,0.12-0.26,0.03-2.06,0.34c-1.03,0.18-1.31,0.25-1.37,0.14c-0.15-0.28,1.53-0.89,2.33-2.54c0.2-0.42,0.1-0.4,0.62-2.81	C21.82,64.83,21.97,64.44,22.15,64.44z"/><path class="st5" d="M32.44,69.93c-1.16,0.19-1.75,0.66-1.93,0.44c-0.11-0.13,0.09-0.35,0.74-1.56c0.46-0.86,0.55-1.11,0.89-1.26	c0.32-0.14,0.8-0.17,1.11,0.07c0.39,0.31,0.15,0.75,0.52,1.33c0.42,0.66,1.15,0.73,1.11,0.89C34.84,70.04,33.8,69.7,32.44,69.93z"/><path class="st4" d="M50.44,28.15c0.72-0.15,1.1,0.94,1.93,0.89c1.01-0.07,1.35-1.73,1.85-1.63c0.48,0.1,0.76,1.72,0.22,3.04	c-0.06,0.16-0.62,1.52-1.48,1.56c-0.46,0.02-0.56-0.35-1.56-1.04c-1.18-0.81-1.71-0.75-1.85-1.26	C49.39,29.12,49.87,28.27,50.44,28.15z"/><path class="st4" d="M59.11,12.3c-0.19,0.2,0.36,0.69,0.52,1.78c0.14,0.98-0.15,1.6,0.07,1.7c0.25,0.12,0.55-0.71,1.41-1.04	c0.69-0.26,1.39-0.07,2.67,0.3c1.16,0.33,1.56,0.61,1.7,0.44c0.21-0.25-0.29-1.31-1.19-1.85c-0.86-0.52-1.32-0.08-2.74-0.44	C60.1,12.82,59.34,12.05,59.11,12.3z"/><path class="st4" d="M65.78,18.96c-0.18,0.28,0.1,0.56,0.3,1.41c0.29,1.27-0.03,1.99,0.3,2.15c0.26,0.12,0.54-0.3,1.19-0.67	c1.43-0.82,2.61-0.21,2.81-0.67c0.24-0.55-1.22-1.98-2.89-2.37C67.3,18.77,66.09,18.49,65.78,18.96z"/><path class="st4" d="M69.85,25.85c-0.44,0.03-0.98,0.85-0.67,1.41c0.32,0.56,1.3,0.51,1.56,0.15C71.05,26.96,70.4,25.81,69.85,25.85	z"/><path class="st4" d="M65.41,30.3c-0.58,0.64-0.6,1.27-0.89,2.74c-0.4,2.06-0.78,2.96-0.59,3.04c0.34,0.14,1.26-3.04,3.04-3.19	c1.02-0.08,1.49,0.9,2.96,0.81c0.9-0.05,1.73-0.48,1.7-0.74c-0.05-0.45-2.58,0.14-3.7-1.26c-0.7-0.87-0.4-1.94-1.04-2.15	C66.28,29.35,65.51,30.19,65.41,30.3z"/><path class="st4" d="M75.19,27.56c-1.09,0.5-1.37,1.6-1.7,1.48c-0.4-0.15-0.11-1.85-0.07-2.07c0.16-0.92,0.34-1.07,0.67-2.3	c0.4-1.5,0.32-2.01,0.59-2.07c0.38-0.09,0.71,0.89,2.07,2.74c0.91,1.24,1.43,1.71,1.26,2C77.75,27.77,76.49,26.95,75.19,27.56z"/><path class="st4" d="M79.85,29.85c-0.66,0.64-1.37,1.32-1.26,2.15c0.06,0.47,0.38,0.98,0.67,0.96c0.44-0.02,0.35-1.31,1.04-1.63	c0.97-0.45,2.76,1.33,2.81,1.26c0.05-0.06-1.41-0.85-1.63-2.15c-0.14-0.85,0.32-1.45,0.07-1.63C81.19,28.56,80.01,29.7,79.85,29.85z	"/><path class="st4" d="M81.56,25.48c-0.26,0.51,1.58,1.26,2.07,3.19c0.3,1.16-0.07,2.08,0.3,2.22c0.39,0.15,1.07-0.81,1.19-0.96	c0.32-0.44,0.84-1.17,0.74-2.07c-0.15-1.43-1.73-2.21-2.67-2.44C83.09,25.38,81.77,25.06,81.56,25.48z"/><path class="st4" d="M68.07,68.15c-0.23,0.12-0.44,0.43-0.52,0.74c-0.09,0.37,0.01,0.69,0.15,1.04c0.57,1.43,1,1.52,0.96,2	c-0.07,0.86-1.49,0.97-1.56,1.85c-0.04,0.58,0.51,1.23,0.89,1.19c0.63-0.07,0.28-2,1.56-2.96c0.93-0.71,1.85-0.24,2.07-0.74	C72.06,70.3,69.11,67.61,68.07,68.15z"/><path class="st4" d="M70.15,76c-0.17,0.12,0.25,0.55,0.15,1.26c-0.14,0.95-1.06,1.21-0.96,1.78c0.08,0.45,0.74,0.81,1.26,0.74	c0.85-0.11,1.41-1.35,1.19-2.3C71.54,76.46,70.38,75.82,70.15,76z"/><path class="st4" d="M64.74,81.11c-0.37,0.51,0.28,1.25-0.22,2c-0.32,0.49-0.78,0.45-0.89,0.89c-0.11,0.44,0.22,1.04,0.67,1.26	c1.01,0.49,2.47-0.98,2.67-1.19c0.41-0.42,1.49-1.54,1.11-2.44C67.62,80.52,65.27,80.37,64.74,81.11z"/><path class="st4" d="M79.78,71.41c-0.42,0.15-0.25,0.78-0.89,2.59c-0.47,1.31-0.81,1.69-0.59,2c0.36,0.5,1.88,0.32,2.22-0.37	c0.29-0.58-0.39-1.25-0.07-1.63c0.34-0.42,1.34,0.16,1.56-0.15C82.34,73.38,80.63,71.11,79.78,71.41z"/><path class="st4" d="M76.74,70.52c-0.54,0.2-0.55,1.19-0.3,1.33c0.29,0.17,1.24-0.6,1.11-1.04C77.48,70.57,77.05,70.41,76.74,70.52z	"/><path class="st4" d="M82.74,66.59c-0.1,0.81-0.19,1.54,0.3,1.93c0.57,0.45,1.7,0.2,2-0.37c0.32-0.61-0.51-1.19-0.22-2.07	c0.25-0.79,1.09-0.88,1.04-1.33c-0.05-0.49-1.09-1-1.85-0.74C83.02,64.33,82.84,65.8,82.74,66.59z"/></svg>