<?xml version="1.0" encoding="utf-8"?><!-- Generator: Adobe Illustrator 26.0.3, SVG Export Plug-In . SVG Version: 6.00 Build 0)  --><svg version="1.1" id="Ebene_2_00000020371425143906055610000010711333585448278916_"	 xmlns="http://www.w3.org/2000/svg" xmlns:xlink="http://www.w3.org/1999/xlink" x="0px" y="0px" viewBox="0 0 100 100"	 style="enable-background:new 0 0 100 100;" xml:space="preserve"><style type="text/css">	.st0{fill:#8A3C8F;stroke:#000000;stroke-width:2;stroke-miterlimit:10;}	.st1{fill:#DB8F00;stroke:#000000;stroke-width:0.5;stroke-miterlimit:10;}	.st2{fill:#DB8F00;stroke:#000000;stroke-width:0.5;stroke-miterlimit:10;}	.st3{fill:#DB8F00;stroke:#000000;stroke-width:0.5;stroke-miterlimit:10;}	.st4{fill:#493127;stroke:#000000;stroke-width:0.25;stroke-miterlimit:10;}	.st5{fill:#804122;stroke:#000000;stroke-width:0.75;stroke-miterlimit:10;}	.st6{fill:#493127;stroke:#000000;stroke-width:0.25;stroke-miterlimit:10;}	.st7{fill:#493127;stroke:#000000;stroke-width:0.25;stroke-miterlimit:10;}	.st8{fill:#5D4135;stroke:#030300;stroke-width:0.25;stroke-miterlimit:10;}	.st9{fill:#69B42D;stroke:#000000;stroke-miterlimit:10;}</style><g id="Ebene_1_00000178169986029889010870000017977382286501971088_">	<path class="st0" d="M8.6,25.8l42-24.2l42,24.2v48.4c-14,8.1-28,16.1-42,24.2c-11.4-6.6-22.9-13.2-34.4-19.8		c-2.6-1.5-5.1-2.9-7.6-4.4L8.6,25.8z"/></g><path class="st1" d="M50.3,43.5c-1.1,3.3-2.6,3.8-2.9,6.8c-0.2,2.3,0.5,2.4,0.5,5c0,4.6-2.6,6.1-1.8,8.1c0.9,2.1,4.1,1,8.5,3.1	c6.4,3,7.6,8.9,10.1,8.3c1.9-0.5,2.8-4.3,2.5-7.3c-0.4-4.1-3.1-4.6-5.7-9.5c-3.2-6.1-0.8-8.6-4.3-15.6c-1.7-3.5-4.4-7-5.6-6.6	C50.6,36.1,51.8,39,50.3,43.5z"/><path class="st1" d="M42.5,40.1c2.7-0.3,4.6-0.5,5.1,0.4s-1.1,1.9-2.1,5.5c-0.5,1.7-0.2,1.8-0.6,2.6c-1.3,2.4-3.9,1.3-6.4,3.8	c-1.7,1.6-1.8,3.4-3.2,3.5c-0.7,0.1-1.5-0.2-1.9-0.8c-0.8-1.5,2.4-3.1,3-7c0.6-3.4-0.8-4.8,0.4-6.4C37.7,40.6,39.3,40.4,42.5,40.1z"	/><path class="st2" d="M43.3,19.4c2.9,2,2.4,4.8,4.4,5.2s4.6-1.9,5.5-4.2c0.5-1.3,0.1-1.5,0.3-5.6c0.2-3.6,0.5-3.7,0.2-4.9	c-0.6-2.2-2.5-4.5-4.6-4.7c-1.8-0.1-2,1.6-6.2,4.2c-2.9,1.8-4.2,1.9-5,3.6c-0.5,1.1-0.6,2.8,0.2,4C39.2,18.8,41,18,43.3,19.4z"/><path class="st3" d="M34.1,25.5c7.6-5.6,18.9,4,23.1-0.3c2.8-2.8-0.7-7.8,2.2-10.8c3-2.7,10.1-1.7,13.5,2.4	c2.7,3.3,0.2,6.1,2.5,10.3c3.8,7,13,5.5,13.7,10.5c0.3,2.8-1.8,6-4.4,7.6c-5.5,3.4-10.9-3.1-23.7-7.5c-16.4-5.3-29.6-1.8-30.2-6.5	C30.4,28.8,32.5,26.6,34.1,25.5z"/><path class="st2" d="M86.6,73.7c-2.2,2.3-5.4,2.3-10.2,2.2c-2.8,0-3.8-0.5-4.4-1c-1.1-0.9-1.1-1.9-2.2-5c-1.7-4.6-2.6-4.7-2.4-6.2	c0.4-2.6,3.1-2.4,4.6-5.6c1.6-3.4-0.4-5.5,1.2-7.3c1.9-2.2,7.3-1.8,9,0.6c0.6,0.9,0.2,1.4,0.4,6.2c0.1,4.8,0.5,5.5,1,6.1	c1.4,1.7,3.2,0.7,4.4,2.2C89.5,67.8,88.6,71.6,86.6,73.7z"/><path class="st1" d="M25.4,48c-4.1,1.6-5,1.2-7.1,2.8c-2.3,1.8-3.1,3.5-4.4,3.3c-1.5-0.3-2.3-2.9-2.5-3.6c-0.3-1.2-0.2-1.8,0-6.1	c0.2-3.5,0.1-3.7,0.4-4.3c1-1.9,2.6-1.6,5.3-3.4c4-2.7,3.7-5.9,6.4-6.2c2.3-0.3,4.1,1.7,4.3,1.9c1.4,1.5,0.8,2.6,1.9,5	c1.7,3.5,4.3,3.5,4.2,5.2C33.9,44.7,29.8,46.3,25.4,48z"/><path class="st2" d="M22.2,66.6c0.6-2.7,0.5-3.1,0.3-3.4c-0.9-1.5-4.5-1.8-6.5,0c-1.3,1.1-2,3.3-1.2,4.4c0.7,1,2,0.3,3.4,1.5	c1.4,1.2,1.3,2.8,1.9,2.8C20.9,71.9,21.5,69.1,22.2,66.6z"/><path class="st4" d="M115,33.5"/><path class="st5" d="M120.5,63.5"/><path class="st6" d="M73.4,65.2c0.7-1.2,1.4-1.9,1.2-2.3c-0.2-0.3-0.7-0.3-1.1-0.1c-0.6,0.3-0.6,0.8-1.1,1.6c-0.8,1.2-1.5,1-1.8,1.8	c-0.4,1.1,0.6,2.8,1.2,2.7S72.2,67.5,73.4,65.2z"/><path class="st6" d="M78.4,70.6c0.2,0.7-0.1,0.9,0,1.7c0.2,1.1,1,1.4,0.8,1.7c-0.3,0.6-3.8,0.1-3.9-0.8c-0.1-0.5,0.7-0.6,1.3-1.7	c0.5-1,0.3-1.8,0.7-1.9C77.6,69.5,78.2,70,78.4,70.6z"/><path class="st6" d="M85,70.9c0.7,0.3,0.8,1,0.9,1c0.2-0.1,0.3-2.3-0.6-2.6c-0.9-0.3-2.1,1.1-1.9,1.4C83.5,70.9,84.2,70.5,85,70.9z"	/><path class="st6" d="M78.6,63.7c0.2,0,0.3,0.7,0.2,1.2c-0.2,0.9-1.2,1.5-1.4,1.3C77,65.9,78.1,63.5,78.6,63.7z"/><path class="st6" d="M74.9,59.7c0.6,0,1,0.7,0.9,1.1c-0.2,0.6-1.7,0.7-2,0.3C73.6,60.7,74.2,59.6,74.9,59.7z"/><path class="st6" d="M79.3,59.9c0.4-0.1,0.7-1.4,0.2-2.3c-0.3-0.5-0.6-0.5-0.9-1c-0.5-1,0.1-2.1-0.1-2.2s-0.6,1-1.7,2	c-0.7,0.7-1.5,1-1.4,1.2c0,0.2,0.7-0.1,1.4,0.1C78.3,58.1,78.7,60.1,79.3,59.9z"/><path class="st6" d="M51.6,29.9c0.2-0.7-1.4-1.9-3.3-2.4c-2.2-0.5-4.7,0.3-4.8,0.7C43.4,29.4,51.3,31.1,51.6,29.9z"/><path class="st6" d="M61.9,31.1c0.2-0.7-0.7-2.2-1.9-1.9c-0.9,0.2-1.7,1.3-1.5,2C58.9,32.1,61.4,31.9,61.9,31.1z"/><path class="st6" d="M70.1,33.1c3.3-0.4,4.1-0.1,4.2-0.6c0.1-0.5-1.1-1.6-2.4-2c-1.1-0.2-1.7-0.1-2,0c-1.8,0.4-3.3,1.8-3.3,2.4	C66.9,33.3,67.3,33.1,70.1,33.1z"/><path class="st6" d="M82,34.9c2.4,1.2,4.2,0.2,4.8,1.5c0.4,0.9,0.1,2.3-0.6,2.6c-0.9,0.5-2.5-1.5-4.9-1.6c-0.2-0.1-0.5-0.1-0.5-0.1	c-1.8,0.1-2.5,1-2.8,0.8c-0.8-0.3,0.2-4.4,1.7-4.8C80.1,33.2,80.4,34,82,34.9z"/><path class="st6" d="M67.8,23.2c-2.1,0.5-2.6,1.2-3.1,0.8c-1-1,1.7-6.2,2.9-6.1c0.8,0,0.5,1.5,1.7,2.9c1.4,1.6,2.8,1.7,2.8,2	C72,23.4,70.4,22.8,67.8,23.2z"/><path class="st7" d="M24,35.3c0.7-0.2,1.6-0.4,1.7-0.1c0.2,0.4-1.3,1.5-1.1,1.8c0.2,0.3,1.8-0.8,2.6-0.2c0.4,0.3,0.5,1,0.3,1.3	c-0.4,0.5-1.4,0-3.7,0.2c-0.4,0-0.8,0.1-1.3,0.2c-2,0.6-2.8,1.7-3,1.5C19.2,39.7,21,36.3,24,35.3z"/><path class="st7" d="M28.2,42c0.4,0.2,0.8,0.7,0.7,1.1c-0.3,0.8-3.1,0.8-3.3,0.2C25.5,42.8,27.2,41.4,28.2,42z"/><path class="st7" d="M22.7,43.2c-0.5-0.6-1.4-0.4-1.6-0.1c-0.3,0.5,0.7,1.8,1.2,1.7C22.7,44.7,23.1,43.8,22.7,43.2z"/><path class="st7" d="M16.2,42.7c-0.1-1.1,0.2-1.6,0-1.7c-0.2-0.1-1.4,1-1.1,2c0.2,0.7,1.1,1.2,1.3,1C16.6,43.9,16.3,43.5,16.2,42.7z	"/><path class="st7" d="M14.6,50.4C14.4,50.3,15,49.9,15,49s-0.7-1.3-0.6-1.6c0.3-0.6,2.7-0.5,3,0.4C17.8,48.8,14.8,50.7,14.6,50.4z"/><path class="st6" d="M17.3,68.3c-0.4-0.4-0.1-1.5,0.6-1.8c0.6-0.3,1.4-0.2,1.6,0.3c0.2,0.4-0.3,1-0.7,1.3	C18.3,68.4,17.6,68.5,17.3,68.3z"/><path class="st6" d="M18.4,64.2c0.1-0.4-0.4-1-0.8-1c-0.7,0-1.3,1.2-1,1.6C16.8,65.2,18.2,64.9,18.4,64.2z"/><path class="st6" d="M48.8,18.8c0.4-0.6,0.9-0.7,0.9-0.9c0-0.4-1.8-0.1-2.3,0.8s0.8,2.1,1.2,1.9C48.8,20.4,48.4,19.6,48.8,18.8z"/><path class="st6" d="M51.5,9.4c0-0.2,0.1-0.9-0.3-1.1c-0.3-0.1-0.8,0.2-1,0.6c-0.4,0.7,0.3,1.9,0.7,1.9	C51.3,10.8,51.5,10.1,51.5,9.4z"/><path class="st6" d="M47.3,13.2c0.1,0.7,0.3,1.6,0.3,1.6l0,0l-0.9,1.3l0,0c0,0,0,0,0-0.1s-0.3-0.7-0.7-0.9c-0.7-0.5-1.6,0.4-2.1,0	c-0.4-0.3-0.3-1.2-0.1-1.3c0.1-0.1,0.2,0,0.4,0.1c0.4,0.2,0.8,0.1,0.9,0.1s0.4,0,0.6-0.2c0.1-0.1,0.4-0.3,0.6-1c0.3-1,0-1.7,0.1-1.7	C46.5,11,47.1,12,47.3,13.2z"/><path class="st7" d="M59,67.6c0,0.2,1.1-0.3,2.4,0.3c1.4,0.6,1.8,2,2.1,1.9c0.4-0.1,0.6-2.3-0.6-3.2C61.4,65.6,58.9,67.3,59,67.6z"	/><path class="st7" d="M50.8,59.4c-0.5-0.1-1,0.6-1.2,1c-0.4,0.7-1,2.2-0.3,2.8c0.6,0.6,2.2,0.2,2.7-0.8	C52.6,61.1,51.6,59.4,50.8,59.4z"/><path class="st7" d="M58.7,57c-0.2-1.1-1.7-1.9-2-1.7c-0.2,0.1-0.1,1.1,0.2,1.8l0,0c1.9,0.1,0.4,0.8,0.3,1.3c0,0.6-0.1,1.4-0.1,1.4	C57,59.8,58.8,58.4,58.7,57z"/><path class="st7" d="M58.8,56c0.4,0,0.7-0.8,0.6-1.5c-0.1-1.2-1.5-1.9-1.8-1.7C57.1,53.2,58.1,56,58.8,56z"/><path class="st7" d="M53.7,43.4c0-0.2,0.5-3.3,0.9-3.3c0.3,0.1-0.2,1.8,0.6,4.2c0.5,1.7,1.2,2.5,0.9,2.9c-0.4,0.5-1.7,0.3-2.3-0.4	C53.6,46.6,53.2,46.1,53.7,43.4z"/><path class="st7" d="M38.9,50.2c-0.2-0.8-1.2-1.3-1.9-1.1c-1,0.4-1.1,2.9-0.4,3.2C37.3,52.6,39.1,51.4,38.9,50.2z"/><path class="st7" d="M40.1,43.9c1.2-0.5,1.7-0.3,1.7-0.6s-1.1-0.7-2-0.4c-1.2,0.4-1.9,1.8-1.6,2.1C38.4,45.1,39,44.4,40.1,43.9z"/><path class="st8" d="M44.4,48.2c0.8-0.5,0.8-1.4,0.7-2c-0.2-1-1-1.7-1.3-1.6c-0.3,0.1,0.5,1.3,0.1,2.1c-0.4,0.9-1.7,0.6-1.7,1	C42.2,48.2,43.5,48.7,44.4,48.2z"/><path class="st9" d="M20.9,79.7c0.1-2,3-2,4.3-5.1c1.5-3.7-1.6-6.3,0.1-9.1c1.3-2.1,4.2-2.5,5.7-2.7c2.8-0.4,4.7,0.4,8.9,1.8	c7.3,2.4,6.6,1.7,9.5,2.9c8.4,3.3,8.1,6.5,14.8,9.3c8.3,3.5,14.9,1,15.4,3.1c0.2,0.8-0.8,1.8-9.6,7.4C60.8,93,58.8,94,57.6,93.1	c-1.8-1.2,0.6-4.6-1.3-8.7c-2.4-5.5-10.5-8.8-13.8-6.5c-1.2,0.8-1.6,2.2-1.9,3.6c-1.4,5.4,1.8,9.1,0.5,10.2	c-0.9,0.8-3.2-0.7-9.6-4.3C23.3,82.7,20.8,81.6,20.9,79.7z"/><path class="st1" d="M53.3,91.6c-0.8,2.3-1.4,4-2.3,4c-0.9,0.1-1-1.6-3.4-3.7c-1.1-1-1.3-0.8-1.8-1.4c-1.4-1.9,0.5-3.7-0.5-6.6	c-0.6-2-1.9-2.7-1.5-3.9c0.2-0.6,0.7-1.2,1.4-1.3c1.5-0.1,1.5,3.1,4.2,5c2.4,1.7,4,1.1,4.8,2.7C54.8,87.4,54.3,88.8,53.3,91.6z"/><path class="st7" d="M46.9,84.9c0.7,0.1,1.5-0.5,1.6-1.2c0.1-1-1.8-2-2.3-1.5C45.7,82.7,45.9,84.6,46.9,84.9z"/><path class="st7" d="M51.3,88.2c-0.1,1.2-0.4,1.5-0.2,1.6c0.2,0.1,1-0.6,1.1-1.5c0.2-1.1-0.7-2.2-1-2.1C51,86.4,51.3,87.1,51.3,88.2	z"/><path class="st8" d="M46.3,90.2c0.1,0.8,0.8,1.2,1.3,1.3c0.9,0.2,1.7-0.2,1.7-0.5s-1.2-0.1-1.7-0.7c-0.5-0.7,0.2-1.6-0.1-1.8	C47.2,88.4,46.3,89.2,46.3,90.2z"/><path class="st9" d="M-5.1,98.3"/></svg>