<?xml version="1.0" encoding="utf-8"?><!-- Generator: Adobe Illustrator 26.0.3, SVG Export Plug-In . SVG Version: 6.00 Build 0)  --><svg version="1.1" id="Ebene_2_00000126308112139821010380000011903406711838980787_"	 xmlns="http://www.w3.org/2000/svg" xmlns:xlink="http://www.w3.org/1999/xlink" x="0px" y="0px" viewBox="0 0 100 100"	 style="enable-background:new 0 0 100 100;" xml:space="preserve"><style type="text/css">	.st0{fill:#418052;stroke:#000000;stroke-width:2;stroke-miterlimit:10;}	.st1{fill:#e6be00;stroke:#000000;stroke-miterlimit:10;}	.st2{fill:#b92a36;stroke:#000000;stroke-width:0.5;stroke-miterlimit:10;}	.st3{fill:#e6be00;stroke:#000000;stroke-width:0.25;stroke-miterlimit:10;}	.st4{fill:#31455a;stroke:#000000;stroke-width:0.5;stroke-miterlimit:10;}	.st5{fill:#e6be00;stroke:#000000;stroke-width:0.25;stroke-miterlimit:10;}	.st6{fill:none;stroke:#000000;stroke-width:0.25;stroke-miterlimit:10;}</style><polygon class="st0" points="91.6,25.7 49.6,1.5 7.6,25.7 7.6,74.2 49.6,98.5 91.6,74.2 "/><path class="st1" d="M21.8,67.3c2.7,1.3,4.4-1.2,9.3-0.9c1,0.1,0.2,0.1,7.9,2.2c2.3,0.6,4.1,1.1,6.5,1.5c0.6,0.1,2.2,0.4,3.7,0.4	c3.5,0.2,5.9-0.5,9.2-1.3c7.2-1.8,10.8-2.7,14.5-2.3c3,0.4,2.8,1,6.6,1.5c4,0.5,8.6,1.1,11-1.2c1.6-1.5,1.3-3.4,1.3-10.9	c0-12,0.5-15.2-1-15.8c-1.4-0.5-2.6,1.9-7.6,6.2c-4.7,4-8.7,7.7-14.1,8.8c-6,1.2-12.4-0.9-12.6-2.9c-0.3-2.3,8.1-3.4,9-8.6	c0.4-2.5-1.2-3.5-0.4-6.2c0.8-2.7,2.6-2.5,4.8-5.8c2.1-3.1,0.9-4,3.2-8.9c1.9-4,3.2-4.5,2.9-6.1c-0.5-2.2-3.5-2.1-8.5-4.8	C60.8,9,59.1,5.3,56.7,6.2c-1.8,0.7-2.8,3.5-2.4,5.6c0.4,1.9,1.8,2.1,2.3,4.1c0.2,0.8,0.3,2.1-1.5,5.7c-2.6,5.1-4,5.2-4.8,8	c-1.2,4.2,1,7.7,0.4,8c-1.1,0.4-5.3-8.5-9.4-11.3c-0.3-0.2-1.5-1-2.8-2.4c-0.6-0.6-1.2-1.3-1.9-2.4c-3.9-5.9-4.1-8.5-6.2-8.9	c-1.4-0.2-1.4,0.8-8.4,4.8c-3,1.8-4.5,2.6-5,2.9c-2.4,1.2-3.1,1.3-3.3,1.9c-0.8,2,3.6,5.8,7.1,8.1c6.4,4.2,8.2,2.3,13,6.1	c5.1,3.9,6.7,8.8,7.4,11c0.2,0.8,1.4,4.5,0.4,5c-1.2,0.7-4-4.4-9.9-6.2c-3.1-0.9-3.6,0.1-6.5-0.4C14.9,44,8.7,29.9,7.6,30.6	c0,0,0,0-0.1,0.1c-0.1,0.3,0,0.8,0.2,3.5c0.1,2.9,0,4.6-0.1,7.2C7.4,49.8,7.1,54,7.7,55c2.4,4,6.7,2,10.6,7.2	C20.2,64.9,19.9,66.4,21.8,67.3z"/><g>	<path class="st2" d="M12.1,74.6c0.4,0.1,2.4,0.9,3.7,0c1-0.7,0.3-1.8,1.4-3.4c1-1.5,2.4-1.5,2.5-2.7c0-0.8-0.4-1.9-1.3-2.1		c-1-0.3-1.5,1-2.9,1c-1.5,0-2.1-1.3-3.2-0.9c-0.5,0.2-0.9,0.8-1.6,2.1c-0.2,0.3-0.6,1.2-0.9,2.3c-0.1,0.4-0.2,0.8-0.1,1.2		c0,0.4,0.1,0.8,0.2,1C10.2,73.4,10.9,74.1,12.1,74.6z"/>	<path class="st3" d="M11.9,71.7c0.4-0.2,0.9,0.2,1.2,0c0.2-0.2,0.2-0.6,0-0.9c-0.4-0.5-1.8-0.2-2,0.3c-0.1,0.2,0,0.2,0.2,0.8		c0.1,0.6,0.1,1,0.2,1C11.6,72.9,11.5,72,11.9,71.7z"/>	<path class="st3" d="M15.3,72.9c0.2-0.4,0.5-1.1,0.4-1.2c-0.1-0.1-0.3,0.3-1.1,1c-0.2,0.1-0.3,0.3-0.4,0.5c0,0.2,0.1,0.5,0.3,0.5		C14.8,73.8,15.1,73.3,15.3,72.9z"/>	<path class="st3" d="M12.6,67.8c0.4-0.4,1.2-0.5,1.6-0.2c0.2,0.2,0.3,0.5,0.2,0.7c-0.2,0.3-1.2-0.1-1.4,0.3		c-0.2,0.2,0.3,0.6,0.1,0.9c-0.1,0.1-0.4,0.2-0.6,0.1C12.2,69.4,12.1,68.4,12.6,67.8z"/>	<path class="st3" d="M15.8,70.3c0.1-0.2-0.3-0.7-0.6-0.6c-0.2,0.1-0.4,0.4-0.3,0.6C15.1,70.6,15.7,70.5,15.8,70.3z"/>	<path class="st3" d="M17.9,69.7c0.7-0.4,1-1.4,0.6-1.8c-0.2-0.2-0.6-0.3-0.8-0.2c-0.2,0.2,0.3,0.9,0,1.1c-0.2,0.2-0.8-0.2-1.2,0.1		c-0.3,0.2-0.3,0.7-0.1,0.9C16.7,70.2,17.4,70,17.9,69.7z"/></g><g>	<path class="st2" d="M27.7,73.1c-4.9-0.3-6.7-1.2-7.9-0.1c-1.6,1.5-0.8,5.3,1.5,6.7c2.1,1.3,3.9-0.5,6.2,0.9		c2.3,1.3,1.6,3.8,4.3,5.1c1,0.5,1.1,0.1,3.1,0.7c3.3,1,4.3,2.2,5.1,1.8c0.9-0.4,0.5-2.3,0.2-5.5c-0.5-6.8,0.8-7.9-0.5-9.2		C37.9,71.8,35.5,73.6,27.7,73.1z"/>	<path class="st3" d="M38.4,77.3c-0.1,0.6-0.4,2-0.8,2c-0.4,0-0.9-1.2-0.6-2.4c0.2-0.8,0.9-1.5,1.2-1.5		C38.6,75.6,38.4,77.1,38.4,77.3z"/>	<path class="st3" d="M32.8,79.6c-0.4,0-0.9-0.3-0.9-0.7c0-0.6,1.4-1.1,1.7-0.8C33.9,78.3,33.5,79.5,32.8,79.6z"/>	<path class="st3" d="M36.9,81.7c-0.4,0.8-1.9,0.7-2.1,0.7c-0.7,0-1.6-0.3-1.6-0.6c0-0.2,0.5-0.3,1.1-0.7c0.8-0.6,0.8-1.2,1.2-1.2		C36.2,79.8,37.3,81,36.9,81.7z"/>	<path class="st3" d="M31.8,75.9c-0.1-0.3,0.6-0.7,1.3-1c0.6-0.2,1.4-0.2,1.5,0c0.1,0.2-0.5,0.8-1.2,1		C32.8,76.2,31.9,76.1,31.8,75.9z"/>	<path class="st3" d="M26.4,75.1c-0.9,0.8-1.1,2.2-0.4,2.7c0.6,0.4,1.9,0.1,2-0.4c0.1-0.4-0.8-0.7-0.8-1.2c0.1-0.8,2-1.2,1.9-1.5		C29.1,74.5,27.4,74.3,26.4,75.1z"/>	<path class="st3" d="M20.8,75.7c-0.1,0.3,0.6,0.9,1.3,0.8c0.9-0.1,1.4-1.1,1.1-1.4C22.9,74.7,20.9,75.2,20.8,75.7z"/></g><g>	<path class="st4" d="M43.3,16.2c1.2,0.5,1.1,1.5,2.7,2.9c2,1.8,5,2.6,6.8,1.5c0.8-0.6,1.6-1.7,1.2-2.3c-0.4-0.9-2.1-0.3-3.1-1.5		c-0.3-0.4-0.4-0.7-0.6-3c-0.3-3.3-0.3-3.7-0.7-4.5c-0.7-1.1-2-2.1-2.9-1.9c-1,0.3-0.5,1.7-1.5,3c-1.4,1.8-3.7,0.2-7.1,2		c-1.8,1-1.8,1.7-1.8,1.9c0.1,0.9,1.3,1.9,2.4,2.3C40.7,17.2,41.6,15.5,43.3,16.2z"/>	<path class="st5" d="M41.4,13.7c-0.7,0.2-1.4-0.5-1.5-0.4c-0.1,0.1,0.6,1.1,1.4,1.3c0.8,0.2,1.7-0.4,1.6-0.8c0-0.3-0.4-0.6-0.7-0.6		C41.9,13.2,41.8,13.6,41.4,13.7z"/>	<path class="st5" d="M47.6,14.3c0-0.3-1.3-0.7-1.3-1.2c0-0.6,2-0.5,2-1.2c0-0.4-0.5-0.8-0.9-0.9c-1.1-0.4-2.6,0.8-2.4,1.9		c0.2,0.8,1.1,1.3,1.2,1.3C46.9,14.5,47.6,14.5,47.6,14.3z"/>	<path class="st5" d="M48.1,17.3c0.6,0.4,1.4,0,1.6-0.6c0.1-0.5,0-1.1-0.3-1.4c-0.6-0.5-1.7,0.1-1.8,0.9		C47.6,16.6,47.8,17.1,48.1,17.3z"/>	<path class="st5" d="M51.3,19.5c0.2-0.1,0.3-1-0.2-1.2c-0.3-0.2-0.7,0-0.8,0.2C50.3,18.9,51,19.6,51.3,19.5z"/></g><g>	<path class="st2" d="M51.8,86.8c1.1,0.1,1.2-1.3,3.6-2.4c2.6-1.3,4-0.4,4.9-1.6c1.1-1.4,0.5-4.4-1.1-5.6c-1.8-1.3-4.1,0.2-5.4-1.2		c-1-1.1-0.4-2.5-1.3-3c-0.9-0.5-2.6,0.6-3.5,1.7C46,78.5,49.2,86.6,51.8,86.8z"/>	<path class="st3" d="M51.6,76.8c-0.6,0.2-0.8,1.2-0.7,1.8c0.1,0.8,0.8,1.7,1.3,1.6c0.7-0.1,1.3-2,0.5-2.9		C52.5,76.9,52,76.7,51.6,76.8z"/>	<path class="st3" d="M53.5,82.3c-0.3,0.2-0.5,0.5-0.4,0.8c0.2,0.4,1,0.6,1.3,0.2c0.2-0.3,0.2-0.8-0.1-1		C54.1,82.1,53.7,82.1,53.5,82.3z"/>	<path class="st3" d="M55.9,80.3c0.3,0,0.7-0.7,0.4-1.2c-0.3-0.6-1.2-0.6-1.4-0.3C54.6,79.1,55.4,80.4,55.9,80.3z"/></g><g>	<path class="st4" d="M44.9,90.9c1.4,1,1.2,2.3,1.8,2.3c1,0,2.5-3.6,1.4-5.1c-0.4-0.5-0.7-0.3-1.2-0.9c-0.7-1,0-2-0.7-3.2		c-0.3-0.5-0.9-1.1-1.3-1c-0.4,0.1-0.4,0.7-0.9,2c-0.7,1.8-1.3,2.1-1.3,3.2c0,0.2,0,0.8,0.4,1.3C43.6,90.4,44.2,90.4,44.9,90.9z"/>	<path class="st5" d="M43.6,88.3c-0.1,0.2,0.1,0.5,0.3,0.7c0.3,0.2,0.9-0.1,1.1-0.5c0.2-0.5-0.1-0.9-0.2-1.1c-0.3-0.4-0.8-0.7-1-0.6		c-0.1,0.1-0.1,0.3-0.1,0.4c0.1,0.4,0.5,0.6,0.4,0.8C44.1,88.2,43.7,88.1,43.6,88.3z"/>	<path class="st5" d="M45.2,89.3c-0.1-0.2,0.2-0.7,0.6-0.8c0.1,0,0.3-0.1,0.3,0c0.1,0.1-0.1,0.7-0.4,0.9		C45.5,89.5,45.2,89.5,45.2,89.3z"/>	<path class="st5" d="M46.4,91.7c0.2,0.1,0.4,0,0.5-0.2c0.2-0.2,0.1-0.6,0-0.7c-0.2-0.1-0.6,0.1-0.7,0.4		C46.2,91.4,46.2,91.6,46.4,91.7z"/>	<path class="st5" d="M45,85.7c0.5-0.6,0.6-0.7,0.6-0.7c-0.1-0.1-0.4-0.2-0.6,0c-0.5,0.3-0.6,1.2-0.4,1.3		C44.5,86.2,44.6,86.2,45,85.7z"/></g><path class="st6" d="M45.2,23.3"/><g>	<path class="st4" d="M36,40.6c-1.4-3.2-4.6-4.3-5-4.4c-1.5-0.5-1.5,0-3.2-0.5c-2.1-0.5-2.6-1.4-6-3.4c-3.9-2.2-4.5-1.9-4.8-1.7		c-0.7,0.5-0.6,1.7-0.5,3.2c0.1,1.6,0.4,4.3,2.3,6.9c0.9,1.2,2,2.7,3.9,3.3c2.5,0.7,3.4-0.9,6-0.6c3.9,0.4,5.4,4.2,6.9,3.6		C37,46.5,37,43,36,40.6z"/>	<path class="st5" d="M25.2,40.7c0.1-0.2-1-0.3-1.7-1.2c-0.8-1-0.6-2-0.9-2.1c-0.4,0-1.1,1.3-0.7,2.2c0.3,0.5,0.8,0.7,1.4,0.9		C24.2,40.9,25.2,40.9,25.2,40.7z"/>	<path class="st5" d="M32.2,37.9c-0.1-0.6-0.9-1.1-1.5-0.9c-0.4,0.1-0.4,0.5-1.1,1.7c-0.7,1.3-1,1.5-0.9,1.6		C29,40.7,32.4,39.1,32.2,37.9z"/>	<path class="st5" d="M32.3,41.9c0.5-0.1,0.8-0.8,0.5-1.3c-0.2-0.4-0.8-0.5-1.2-0.3c-0.3,0.2-0.4,0.5-0.3,0.8		C31.3,41.6,31.8,42,32.3,41.9z"/>	<path class="st5" d="M33.6,44c0.5,0.7,1.9,0.5,2.1-0.1c0.2-0.4-0.1-0.9-0.4-1.1c-0.4-0.3-1-0.6-1.5-0.2		C33.4,42.8,33.4,43.6,33.6,44z"/>	<path class="st5" d="M26.9,36.1c-0.2-0.6-1.7-0.8-1.9-0.3c-0.2,0.4,0.1,1.4,0.9,1.4C26.5,37.3,27,36.5,26.9,36.1z"/>	<path class="st5" d="M18.9,35.3c0.1-0.3,0.6-0.2,0.9-0.6c0.3-0.6-0.5-1.1-0.2-1.9c0.1-0.4,0.5-0.8,0.8-0.8c0.5,0,1.1,0.8,1,1.6		c-0.1,1-1.2,1.2-1.2,2.1c0,0.8,0.8,1.2,0.7,1.3C20.7,37.2,18.7,36,18.9,35.3z"/></g><g>	<path class="st2" d="M74.2,28.2c0.2,1.8,0.9,1.9,3.6,6.4c2.3,3.9,2.5,5.2,4.1,5.4c1.8,0.2,3.9-1,5-2.3c3.3-3.8-0.4-9.5-1.1-10.7		c-1.4-2.2-5.2-6.7-8.3-5.7C75.2,22,74,25.6,74.2,28.2z"/>	<path class="st3" d="M76.3,28.9c0.2,0.6,0.9,1.1,1.7,0.9c0.8-0.2,1.3-1,1.2-1.5c-0.1-0.9-1.5-1.4-2.3-1		C76.4,27.6,76.2,28.3,76.3,28.9z"/>	<path class="st3" d="M80.1,34.4c-0.9,1.5,1.6,3.6,2.2,3.3c0.2-0.1,0.2-0.5,0.3-1.2c0.1-1.7,0.3-2.9-0.4-3.1		C81.6,33.2,80.6,33.7,80.1,34.4z"/></g><g>	<path class="st2" d="M67.6,79.1c-1.1,0.8-1.8-0.4-2.8,0.3c-1.7,1.1-2,6.4-0.9,6.3c0.5,0,0.9-1.3,2.5-2.2c0.6-0.4,1.4-0.6,3-1		c2-0.5,2.1-0.4,2.5-0.7c1.7-1.3,2.5-6,0.6-6.7c-0.6-0.2-1.7,0-2.5,0.7C68.5,76.8,68.7,78.3,67.6,79.1z"/>	<path class="st3" d="M68.4,79.8c0.1,0.6,0.8,1,1.6,0.5c0.7-0.4,1-1.2,1.1-1.7c0.1-0.7-0.2-1.3-0.7-1.3		C69.6,77.4,68.3,78.9,68.4,79.8z"/>	<path class="st3" d="M65.8,81.2c-0.8,0.7-1.4,0.6-1.5,0.9c-0.1,0.3,0.5,0.9,1.2,0.7c0.5-0.1,1.2-0.5,1.2-0.5l0,0		c-0.5,0.2,1.2-0.4,1.5-0.9c0.3-0.6-0.7-1.6-1.5-1.2C66.4,80.3,66.4,80.7,65.8,81.2z"/></g><g>	<path class="st4" d="M73.5,51.5c0.6-0.3,0.4-1.1,0.8-2.3c0.8-2.6,2.7-2.6,3.5-4.9c0.6-2-0.2-3.7-0.3-4c-0.5-1.1-1.5-1.9-3.5-3.3		c-2.2-1.5-3.3-2.3-4.1-2c-1.5,0.6-1.4,3.8-1.4,4.8c0,3.2,1.3,3.4,1.4,7c0,1.6-0.2,2.5,0.4,3.4C71,51.3,72.6,52,73.5,51.5z"/>	<path class="st5" d="M73.3,47.1c-0.5-0.2-1.5,0.2-1.6,1c-0.1,0.8,1,1.5,1.4,1.3C73.8,49.1,73.9,47.4,73.3,47.1z"/>	<path class="st5" d="M72.3,43.5c-0.3,0.2-0.1,1.4,0.4,1.5c0.4,0.1,0.8-0.3,0.9-0.6C73.7,43.8,72.6,43.3,72.3,43.5z"/>	<path class="st5" d="M76,43.8c0-0.4-0.7-0.4-1.5-1.2c-0.8-0.8-0.8-1.6-1.1-1.6c-0.3,0.1-0.5,1.2-0.1,2.1c0,0.1,0.6,1.3,1.6,1.3		C75.4,44.4,76,44.1,76,43.8z"/>	<path class="st5" d="M72.8,38.6c-0.2-0.7-1.3-1.1-1.9-0.7c-0.4,0.3-0.6,0.8-0.4,1.3c0.2,0.6,0.9,0.9,1.5,0.8		C72.6,39.8,72.9,39.1,72.8,38.6z"/></g><g>	<path class="st4" d="M85.9,72.3c-0.6-0.5-1.6,0.7-2.7,0.2c-0.7-0.3-0.6-0.7-1.3-1.1c-1.1-0.6-1.7,0.2-2.9-0.3		c-0.9-0.4-0.8-0.9-2.1-1.8c-0.5-0.3-1.5-1-2-0.8c-0.5,0.3-0.3,1.4-0.2,2.1c0.3,1.5,0.9,4.7,3.6,6c0.2,0.1,1.6,0.8,3.1,0.5		c1-0.2,0.8-0.6,2.6-1.7c1.3-0.7,1.9-0.8,2.1-1.5C86.3,73.4,86.3,72.6,85.9,72.3z"/>	<path class="st5" d="M81.5,74.1c-0.3,0.3-0.7,0.6-0.6,1.1c0.1,0.3,0.4,0.5,0.6,0.6c0.4,0.1,0.7-0.4,1-1c0.3-0.5,0.6-1.1,0.4-1.3		C82.8,73.3,82,73.7,81.5,74.1z"/>	<path class="st5" d="M80.1,72.5c0.2,0,0.5,0,0.6,0.2c0.2,0.3,0.1,0.6-0.2,0.8c-0.3,0.1-0.8-0.1-0.8-0.4		C79.7,72.8,79.9,72.5,80.1,72.5z"/>	<path class="st5" d="M76.4,71c-0.3,0.2-0.1,1,0.3,1.1c0.3,0.1,0.8-0.2,0.7-0.5C77.4,71.2,76.7,70.8,76.4,71z"/>	<path class="st5" d="M79.9,74.9c0.3,0.1,0.5,0.8,0.2,1.2c-0.2,0.2-0.6,0.4-0.8,0.2c-0.3-0.2-0.3-0.9,0.1-1.2		C79.3,75.1,79.6,74.8,79.9,74.9z"/></g></svg>