<?xml version="1.0" encoding="utf-8"?><!-- Generator: Adobe Illustrator 26.0.3, SVG Export Plug-In . SVG Version: 6.00 Build 0)  --><svg version="1.1" id="Ebene_1" xmlns="http://www.w3.org/2000/svg" xmlns:xlink="http://www.w3.org/1999/xlink" x="0px" y="0px"	 viewBox="0 0 100 100" style="enable-background:new 0 0 100 100;" xml:space="preserve"><style type="text/css">	.st0{fill:#418052;stroke:#000000;stroke-width:2;stroke-miterlimit:10;}	.st1{fill:#b92a36;stroke:#000000;stroke-width:0.5;stroke-miterlimit:10;}	.st2{fill:#e6be00;stroke:#000000;stroke-width:0.25;stroke-miterlimit:10;}	.st3{fill:#b92a36;stroke:#000000;stroke-width:0.5;stroke-miterlimit:10;}	.st4{fill:#e6be00;stroke:#000000;stroke-width:0.25;stroke-miterlimit:10;}	.st5{fill:#e6be00;stroke:#000000;stroke-miterlimit:10;}	.st6{fill:#e6be00;stroke:#000000;stroke-miterlimit:10;}</style><g id="Ebene_2_00000093860788734264317370000010671531211922489223_"></g><g id="Ebene_1_00000017510764199299988230000010460311392665681541_">	<polygon class="st0" points="8,25.9 50,1.6 92,25.9 92,74.4 50,98.6 8,74.4 	"/></g><path class="st1" d="M51,8c1.4-1,3.4-0.5,6.8,0.3c6.7,1.6,13.1,5.4,12.7,6.8c-0.3,1.1-4.3-0.7-6.9,1.3c-3.9,3-0.2,10.7-2.8,11.7	c-1.9,0.8-5.6-2.7-7.6-5.3C49.5,17.9,47.8,10.2,51,8z"/><path class="st1" d="M69.4,20.9c2.3-1.2,5.7-1.3,8.4,0.5c0.5,0.3,3.2,2.1,3,4.2c-0.1,1.9-2.5,2.4-9.4,5.7c-5.9,2.8-7.4,4-8.3,3.4	c-1.5-1.2,1.3-6.6,2.4-8.8C67,23.2,67.7,21.8,69.4,20.9z"/><path class="st2" d="M62.7,12.7c0.1-0.3-1.2-1.2-2.2-0.9c-0.9,0.3-1.2,1.6-0.7,2.5c0.4,0.7,1.2,1.2,1.4,1.1c0.3-0.2-0.7-1.6-0.2-2.2	C61.5,12.6,62.6,12.9,62.7,12.7z"/><path class="st2" d="M53.4,10.5c1-0.2,2.5,0.4,2.8,1.3c0.5,1.4-2.3,2.4-2,4.4c0.2,1.4,1.8,2,1.6,2.4s-2.6,0-3.8-1.6	c-0.9-1.2-0.7-2.5-0.6-3.2C51.4,13.2,51.7,10.8,53.4,10.5z"/><path class="st2" d="M59.8,18c0.7,0.3,0.8,2.5-0.3,3.4c-1.2,0.9-3.4-0.2-3.7,0.4c-0.3,0.7,2.1,2.4,1.9,2.7c-0.2,0.2-1.5-0.4-2.6-1.3	c-0.3-0.2-2.4-1.9-2-2.7c0.3-0.6,1.5,0,3.3-0.5C58.6,19.3,59.2,17.7,59.8,18z"/><path class="st2" d="M71,22.9c1.2-0.6,2.2-1.1,3.5-1.1c0.5,0,2.1,0.1,2.4,0.8c0.5,1.1-2.2,3.9-5.2,3.7c-1.3-0.1-3-0.7-3.1-1.5	C68.5,24.2,69.5,23.7,71,22.9z"/><path class="st2" d="M66.7,30.2c0.8-0.7,2-1.5,2.4-1.3c0.3,0.2-0.2,1.2-0.3,1.5c-1.1,2.2-3.7,3.7-4.2,3.3	C64.2,33.4,65.3,31.5,66.7,30.2z"/><path class="st1" d="M50.7,36.8c-1.2-2.1-2.4-6.4-2.5-11.1c0-0.8-0.2-5.5,0.7-6.7c0.8-1.1,1.8,1.6,5.3,8.3c3.1,5.7,4,6.8,4,8.4	c0,2.8-3.1,2.7-4.3,2.7C52.4,38.4,51.6,38.4,50.7,36.8z"/><path class="st2" d="M51,33.3c-0.7-1.2-1.2-2.1-1.6-3.8c-0.2-0.7-0.6-2.7-0.5-3.6c0.3-1.4,2.3,0.3,3.2,4.2c0.4,1.8,0.7,4.3,0.4,5	C52.3,35.7,51.7,34.7,51,33.3z"/><path class="st2" d="M55.3,34c-0.5-0.5-1.3-1.6-1.3-2.2c0-0.5,0.5-0.6,0.7-0.6c1.2-0.1,2.7,2.2,2.7,3.1C57.4,35.1,56.2,35,55.3,34z"	/><path class="st1" d="M11.1,29c1.2-1.5,2.9-0.6,5.3-1.8c2.8-1.4,3.3-4.1,4.2-3.8c0.9,0.3,1.5,3,0.4,5c-0.9,1.8-2.3,1.5-5.3,4	c-2.5,2-3,3.5-4,3.2c-1.1-0.3-1.5-2.6-1.5-3.8C10.4,30.9,10.4,29.9,11.1,29z"/><path class="st2" d="M12.6,33c0.1-2.2-0.3-3.1,0.2-3.5c0.4-0.3,1.2-0.1,1.6,0.3c1,1.3-1.4,5.1-1.8,4.9C12.4,34.8,12.5,34.4,12.6,33z	"/><path class="st3" d="M17.6,74c-2.6,1.4-6.4,0.4-6.9-1.4c-0.2-0.8,0.2-1.5,0.5-2.1c1.9-3.4,7-5.4,8.8-3.8c1,0.9,0.6,2.9,0.5,3.5	C20.5,70.3,20,72.8,17.6,74z"/><path class="st4" d="M12.3,72c0.6-0.1,1.8-0.1,3.1,0.1c0.2,0,1.5,0.2,1.8,0.5c0.3,0.2-0.5,0.3-2.5,0.6c-1.7,0.3-2,0.4-2.5,0.4	c-0.7-0.1-0.6-0.7-0.5-1C11.8,72.2,11.8,72.1,12.3,72z"/><path class="st4" d="M18.8,68.2c-0.1,1.3-0.3,3-0.8,3.1c-0.6,0.1-1.7-1.7-1.3-2.9c0.1-0.2,0.4-0.6,1-1.3c0.8-1,0.9-1,1-1	C19,66.2,18.9,67.7,18.8,68.2z"/><path class="st1" d="M45.8,66.3"/><path class="st3" d="M-35.6,5.2"/><path class="st5" d="M-52.1,58.8"/><path class="st5" d="M54.9,41.6"/><path class="st6" d="M21.6,19.9c0.5-1.4,1.4-2.4,9.4-7.2c12.4-7.4,13.6-7,14.1-6.7c2.4,1.7-2.4,7.7-1.4,17.2	c1,10.2,8.1,19.5,12.4,18.9c1.8-0.3,1.9-2.1,5.2-4c3.7-2.1,5.3-0.8,9.2-2c4.6-1.4,5.4-4.6,14.7-9.6c3-1.6,4.5-2,5.5-1.4	c1.5,0.9,1.3,3.5,1.2,5.9c-0.2,5.4,0.4,10.8,0,16.1c-0.3,5.2-0.2,9.8,0,14c0.2,6.8,0.7,9.4-1.1,12.3c-0.6,1-1.6,2.2-6.3,5.1	c-5.9,3.7-10.7,5.8-11,5.9c-15.2,6.6-16.1,13.2-23.7,12.9c-1.8-0.1-2.1-0.5-14.1-7.7C22,81.5,18.6,79.9,18.7,76.9	c0.1-4.7,8.3-6.4,7.7-10.7c-0.5-3-4.8-5.4-8.3-6c-3.7-0.6-5.1,1.4-7,0.3C8.3,59,8.5,53.9,8.7,48.7c0.2-5.6,0.3-8.4,2-10.3	c3.9-4.4,11.1-0.9,13.2-4.4C26.1,30.3,19.5,25.5,21.6,19.9z"/></svg>