<?xml version="1.0" encoding="utf-8"?><!-- Generator: Adobe Illustrator 26.0.3, SVG Export Plug-In . SVG Version: 6.00 Build 0)  --><svg version="1.1" id="Ebene_2_00000126308112139821010380000011903406711838980787_"	 xmlns="http://www.w3.org/2000/svg" xmlns:xlink="http://www.w3.org/1999/xlink" x="0px" y="0px" viewBox="0 0 100 100"	 style="enable-background:new 0 0 100 100;" xml:space="preserve"><style type="text/css">	.st0{fill:#418052;stroke:#000000;stroke-width:2;stroke-miterlimit:10;}	.st1{fill:#e6be00;stroke:#000000;stroke-miterlimit:10;}	.st2{fill:#31455a;stroke:#000000;stroke-width:0.5;stroke-miterlimit:10;}	.st3{fill:#e6be00;stroke:#000000;stroke-width:0.25;stroke-miterlimit:10;}	.st4{fill:#31455a;stroke:#000000;stroke-width:0.5;stroke-miterlimit:10;}	.st5{fill:#e6be00;stroke:#000000;stroke-width:0.25;stroke-miterlimit:10;}	.st6{fill:none;stroke:#000000;stroke-width:0.25;stroke-miterlimit:10;}</style><polygon class="st0" points="7.6,74.2 49.6,98.5 91.6,74.2 91.6,25.7 49.6,1.5 7.6,25.7 "/><path class="st1" d="M77.5,32.6c-2.1-1.7-4.3-2-7.4-2.6c-6-1.2-9.2,0.4-13.8-3.3C48.6,20.5,44.8,5.8,42.2,5.8c-0.1,0-0.3,0-0.3,0	c-0.8,0.1-1.7,1.1-8.8,5.2c-1.9,1.1-2.9,1.7-4.2,2.4c-7,3.9-8.2,3.8-8.4,4.8c-0.8,4.1,11.3,8.2,10.5,11.7c-0.1,0.6-0.5,0.8-4.6,3	c-5.1,2.6-7.6,4-8,4.1c-5.8,1.7-9.5-0.7-10.8,1.4c-0.6,0.9,0,1.3,0,5c0,3.9-0.7,4.6,0,5.6c1.5,2.3,6.8,1.3,8.5,1	c5.9-1,7.2-3.3,14.2-5.9c3.8-1.4,9.5-3.5,11.3-1.4c1.6,1.9-2.1,5.1-0.7,9.6c0.9,3.3,3.2,3,7.6,7.9c3.9,4.4,2.9,5.6,7.3,10.8	c3.6,4.3,4.5,3.3,7.1,7.3c3.9,5.9,4.1,8.5,6.2,8.9c1.4,0.2,1.4-0.8,8.4-4.8c3-1.8,4.5-2.6,5-2.9c2.4-1.2,3.1-1.3,3.3-1.9	c0.8-2-3.6-5.8-7.1-8.1c-6.4-4.2-8.2-2.3-13-6.1c-5.1-3.9-6.7-8.8-7.4-11c-0.2-0.8-1.4-4.5-0.4-5c1.2-0.7,4,4.4,9.9,6.2	c3.1,0.9,3.6-0.1,6.5,0.4c10.1,1.9,16.3,16,17.5,15.2c0,0,0,0,0.1-0.1c0.1-0.3,0-0.8-0.2-3.5c-0.1-2.9,0-4.6,0.1-7.2	c0.2-8.4,0.5-12.6-0.1-13.7c-2.4-4-6.7-2-10.6-7.2C79.3,35.5,79.5,34.3,77.5,32.6z"/><g>	<path class="st2" d="M87.1,25.4c-0.4-0.1-2.4-0.9-3.7,0c-1,0.7-0.3,1.8-1.4,3.4c-1,1.5-2.4,1.5-2.5,2.7c0,0.8,0.4,1.9,1.3,2.1		c1,0.3,1.5-1,2.9-1c1.5,0,2.1,1.3,3.2,0.9c0.5-0.2,0.9-0.8,1.6-2.1c0.2-0.3,0.6-1.2,0.9-2.3c0.1-0.4,0.2-0.8,0.1-1.2		c0-0.4-0.1-0.8-0.2-1C89,26.6,88.3,25.8,87.1,25.4z"/>	<path class="st3" d="M87.3,28.3c-0.4,0.2-0.9-0.2-1.2,0c-0.2,0.2-0.2,0.6,0,0.9c0.4,0.5,1.8,0.2,2-0.3c0.1-0.2,0-0.2-0.2-0.8		c-0.1-0.6-0.1-1-0.2-1C87.6,27.1,87.8,28,87.3,28.3z"/>	<path class="st3" d="M84,27c-0.2,0.4-0.5,1.1-0.4,1.2c0.1,0.1,0.3-0.3,1.1-1c0.2-0.1,0.3-0.3,0.4-0.5c0-0.2-0.1-0.5-0.3-0.5		C84.4,26.1,84.1,26.7,84,27z"/>	<path class="st3" d="M86.6,32.1c-0.4,0.4-1.2,0.5-1.6,0.2c-0.2-0.2-0.3-0.5-0.2-0.7c0.2-0.3,1.2,0.1,1.4-0.3		c0.2-0.2-0.3-0.6-0.1-0.9c0.1-0.1,0.4-0.2,0.6-0.1C87,30.6,87.1,31.6,86.6,32.1z"/>	<path class="st3" d="M83.4,29.7c-0.1,0.2,0.3,0.7,0.6,0.6c0.2-0.1,0.4-0.4,0.3-0.6C84.1,29.4,83.5,29.5,83.4,29.7z"/>	<path class="st3" d="M81.4,30.2c-0.7,0.4-1,1.4-0.6,1.8c0.2,0.2,0.6,0.3,0.8,0.2c0.2-0.2-0.3-0.9,0-1.1c0.2-0.2,0.8,0.2,1.2-0.1		c0.3-0.2,0.3-0.7,0.1-0.9C82.5,29.8,81.8,30,81.4,30.2z"/></g><g>	<path class="st2" d="M71.5,26.9c4.9,0.3,6.7,1.2,7.9,0.1c1.6-1.5,0.8-5.3-1.5-6.7c-2.1-1.3-3.9,0.5-6.2-0.9		c-2.3-1.3-1.6-3.8-4.3-5.1c-1-0.5-1.1-0.1-3.1-0.7c-3.3-1-4.3-2.2-5.1-1.8c-0.9,0.4-0.5,2.3-0.2,5.5c0.5,6.8-0.8,7.9,0.5,9.2		C61.3,28.2,63.7,26.4,71.5,26.9z"/>	<path class="st3" d="M60.8,22.6c0.1-0.6,0.4-2,0.8-2c0.4,0,0.9,1.2,0.6,2.4c-0.2,0.8-0.9,1.5-1.2,1.5		C60.6,24.3,60.8,22.9,60.8,22.6z"/>	<path class="st3" d="M66.4,20.4c0.4,0,0.9,0.3,0.9,0.7c0,0.6-1.4,1.1-1.7,0.8C65.4,21.7,65.7,20.5,66.4,20.4z"/>	<path class="st3" d="M62.3,18.2c0.4-0.8,1.9-0.7,2.1-0.7c0.7,0,1.6,0.3,1.6,0.6c0,0.2-0.5,0.3-1.1,0.7c-0.8,0.6-0.8,1.2-1.2,1.2		C63,20.1,61.9,19,62.3,18.2z"/>	<path class="st3" d="M67.5,24.1c0.1,0.3-0.6,0.7-1.3,1c-0.6,0.2-1.4,0.2-1.5,0c-0.1-0.2,0.5-0.8,1.2-1		C66.5,23.8,67.4,23.8,67.5,24.1z"/>	<path class="st3" d="M72.8,24.8c0.9-0.8,1.1-2.2,0.4-2.7c-0.6-0.4-1.9-0.1-2,0.4c-0.1,0.4,0.8,0.7,0.8,1.2c-0.1,0.8-2,1.2-1.9,1.5		C70.1,25.4,71.8,25.7,72.8,24.8z"/>	<path class="st3" d="M78.4,24.2c0.1-0.3-0.6-0.9-1.3-0.8c-0.9,0.1-1.4,1.1-1.1,1.4C76.3,25.3,78.3,24.8,78.4,24.2z"/></g><g>	<path class="st4" d="M51.7,82.4c-1.3,0.3-1.7-0.7-3.8-1c-2.6-0.4-5.6,0.5-6.5,2.4c-0.4,0.9-0.4,2.2,0.2,2.6		c0.8,0.5,1.9-0.9,3.4-0.4c0.4,0.1,0.7,0.4,2.1,2.2c2.1,2.6,2.3,3,3,3.4c1.2,0.6,2.8,0.7,3.5,0c0.7-0.8-0.5-1.8-0.3-3.3		c0.3-2.3,3-2.2,4.9-5.6c1-1.8,0.6-2.4,0.5-2.6c-0.6-0.7-2.1-0.9-3.3-0.6C53.3,80.2,53.5,82.1,51.7,82.4z"/>	<path class="st5" d="M54.6,83.5c0.4-0.5,1.4-0.3,1.4-0.4c0-0.2-1.1-0.7-1.9-0.3c-0.8,0.3-1.2,1.2-0.9,1.5c0.2,0.2,0.7,0.3,1,0.1		C54.5,84.2,54.4,83.8,54.6,83.5z"/>	<path class="st5" d="M49.1,86.4c0.1,0.2,1.5-0.1,1.8,0.3c0.3,0.5-1.4,1.5-1.1,2.1c0.2,0.3,0.9,0.4,1.3,0.3c1.2-0.3,1.8-2.1,1-2.8		c-0.6-0.6-1.7-0.4-1.7-0.4C49.6,85.8,49,86.2,49.1,86.4z"/>	<path class="st5" d="M47,84.1c-0.7,0-1.2,0.7-1,1.4c0.1,0.5,0.6,0.9,1,1c0.7,0.1,1.4-1,1-1.7C47.9,84.4,47.5,84.1,47,84.1z"/>	<path class="st5" d="M43.2,84c-0.1,0.2,0.3,1,0.8,1c0.3,0,0.6-0.4,0.5-0.6C44.4,83.9,43.4,83.7,43.2,84z"/></g><g>	<path class="st2" d="M49.7,66.6c-1.1-0.1-1.2,1.3-3.6,2.4c-2.6,1.3-4,0.4-4.9,1.6c-1.1,1.4-0.5,4.4,1.1,5.6		c1.8,1.3,4.1-0.2,5.4,1.2c1,1.1,0.4,2.5,1.3,3c0.9,0.5,2.6-0.6,3.5-1.7C55.4,74.9,52.2,66.8,49.7,66.6z"/>	<path class="st3" d="M49.8,76.7c0.6-0.2,0.8-1.2,0.7-1.8c-0.1-0.8-0.8-1.7-1.3-1.6c-0.7,0.1-1.3,2-0.5,2.9		C48.9,76.5,49.4,76.8,49.8,76.7z"/>	<path class="st3" d="M47.9,71.2c0.3-0.2,0.5-0.5,0.4-0.8c-0.2-0.4-1-0.6-1.3-0.2c-0.2,0.3-0.2,0.8,0.1,1		C47.4,71.4,47.7,71.4,47.9,71.2z"/>	<path class="st3" d="M45.5,73.1c-0.3,0-0.7,0.7-0.4,1.2c0.3,0.6,1.2,0.6,1.4,0.3C46.8,74.3,46,73.1,45.5,73.1z"/></g><g>	<path class="st4" d="M54.3,9c-1.4-1-1.2-2.3-1.8-2.3c-1,0-2.5,3.6-1.4,5.1c0.4,0.5,0.7,0.3,1.2,0.9c0.7,1,0,2,0.7,3.2		c0.3,0.5,0.9,1.1,1.3,1c0.4-0.1,0.4-0.7,0.9-2c0.7-1.8,1.3-2.1,1.3-3.2c0-0.2,0-0.8-0.4-1.3C55.6,9.5,55.1,9.5,54.3,9z"/>	<path class="st5" d="M55.6,11.6c0.1-0.2-0.1-0.5-0.3-0.7c-0.3-0.2-0.9,0.1-1.1,0.5c-0.2,0.5,0.1,0.9,0.2,1.1c0.3,0.4,0.8,0.7,1,0.6		c0.1-0.1,0.1-0.3,0.1-0.4c-0.1-0.4-0.5-0.6-0.4-0.8C55.2,11.8,55.5,11.9,55.6,11.6z"/>	<path class="st5" d="M54,10.6c0.1,0.2-0.2,0.7-0.6,0.8c-0.1,0-0.3,0.1-0.3,0c-0.1-0.1,0.1-0.7,0.4-0.9C53.7,10.5,54,10.5,54,10.6z"		/>	<path class="st5" d="M52.8,8.2c-0.2-0.1-0.4,0-0.5,0.2c-0.2,0.2-0.1,0.6,0,0.7c0.2,0.1,0.6-0.1,0.7-0.4C53.1,8.6,53,8.3,52.8,8.2z"		/>	<path class="st5" d="M54.2,14.3c-0.5,0.6-0.6,0.7-0.6,0.7c0.1,0.1,0.4,0.2,0.6,0c0.5-0.3,0.6-1.2,0.4-1.3		C54.7,13.7,54.6,13.8,54.2,14.3z"/></g><path class="st6" d="M54.1,76.7"/><g>	<path class="st4" d="M63.3,59.4c1.4,3.2,4.6,4.3,5,4.4c1.5,0.5,1.5,0,3.2,0.5c2.1,0.5,2.6,1.4,6,3.4c3.9,2.2,4.5,1.9,4.8,1.7		c0.7-0.5,0.6-1.7,0.5-3.2c-0.1-1.6-0.4-4.3-2.3-6.9c-0.9-1.2-2-2.7-3.9-3.3c-2.5-0.7-3.4,0.9-6,0.6c-3.9-0.4-5.4-4.2-6.9-3.6		C62.2,53.5,62.2,57,63.3,59.4z"/>	<path class="st5" d="M74,59.2c-0.1,0.2,1,0.3,1.7,1.2c0.8,1,0.6,2,0.9,2.1c0.4,0,1.1-1.3,0.7-2.2c-0.3-0.5-0.8-0.7-1.4-0.9		C75,59.1,74.1,59.1,74,59.2z"/>	<path class="st5" d="M67,62c0.1,0.6,0.9,1.1,1.5,0.9c0.4-0.1,0.4-0.5,1.1-1.7c0.7-1.3,1-1.5,0.9-1.6C70.2,59.3,66.9,60.8,67,62z"/>	<path class="st5" d="M67,58.1c-0.5,0.1-0.8,0.8-0.5,1.3c0.2,0.4,0.8,0.5,1.2,0.3c0.3-0.2,0.4-0.5,0.3-0.8		C67.9,58.4,67.4,58,67,58.1z"/>	<path class="st5" d="M65.6,56c-0.5-0.7-1.9-0.5-2.1,0.1c-0.2,0.4,0.1,0.9,0.4,1.1c0.4,0.3,1,0.6,1.5,0.2		C65.8,57.1,65.9,56.4,65.6,56z"/>	<path class="st5" d="M72.3,63.9c0.2,0.6,1.7,0.8,1.9,0.3c0.2-0.4-0.1-1.4-0.9-1.4C72.7,62.7,72.2,63.5,72.3,63.9z"/>	<path class="st5" d="M80.3,64.7c-0.1,0.3-0.6,0.2-0.9,0.6c-0.3,0.6,0.5,1.1,0.2,1.9c-0.1,0.4-0.5,0.8-0.8,0.8c-0.5,0-1.1-0.8-1-1.6		c0.1-1,1.2-1.2,1.2-2.1c0-0.8-0.8-1.2-0.7-1.3C78.5,62.7,80.5,64,80.3,64.7z"/></g><g>	<path class="st2" d="M25.1,71.8c-0.2-1.8-0.9-1.9-3.6-6.4c-2.3-3.9-2.5-5.2-4.1-5.4c-1.8-0.2-3.9,1-5,2.3C9,66.1,12.7,71.8,13.4,73		c1.4,2.2,5.2,6.7,8.3,5.7C24.1,78,25.2,74.3,25.1,71.8z"/>	<path class="st3" d="M22.9,71.1c-0.2-0.6-0.9-1.1-1.7-0.9c-0.8,0.2-1.3,1-1.2,1.5c0.1,0.9,1.5,1.4,2.3,1		C22.8,72.4,23.1,71.6,22.9,71.1z"/>	<path class="st3" d="M19.1,65.6c0.9-1.5-1.6-3.6-2.2-3.3c-0.2,0.1-0.2,0.5-0.3,1.2c-0.1,1.7-0.3,2.9,0.4,3.1		C17.6,66.8,18.7,66.2,19.1,65.6z"/></g><g>	<path class="st2" d="M32.3,53.2c1.5-1.1,2.4,0.3,3.6-0.6c2.2-1.6,3.1-8.5,1.7-8.4c-0.7,0.1-1.3,1.7-3.4,3.1		c-0.8,0.6-1.9,0.9-3.9,1.6c-2.6,0.9-2.8,0.7-3.3,1.1c-2.3,1.9-3.7,8.1-1.3,8.8c0.8,0.2,2.2-0.1,3.4-1.1		C30.9,56.3,30.8,54.3,32.3,53.2z"/>	<path class="st3" d="M31.3,52.3c-0.1-0.8-1-1.2-2-0.6c-0.9,0.6-1.4,1.7-1.5,2.4c-0.2,0.9,0.1,1.7,0.8,1.6		C29.6,55.6,31.4,53.5,31.3,52.3z"/>	<path class="st3" d="M34.7,50.3c1-0.9,1.8-0.8,2-1.2c0.2-0.4-0.5-1.1-1.5-0.9c-0.6,0.2-1.6,0.8-1.6,0.8l0,0c0.7-0.3-1.6,0.6-2,1.3		c-0.4,0.8,0.8,2,1.8,1.4C33.9,51.4,34,51,34.7,50.3z"/></g><g>	<path class="st4" d="M33.3,54.8c-0.6,0.3-0.4,1.1-0.8,2.3c-0.8,2.6-2.7,2.6-3.5,4.9c-0.6,2,0.2,3.7,0.3,4c0.5,1.1,1.5,1.9,3.5,3.3		c2.2,1.5,3.3,2.3,4.1,2c1.5-0.6,1.4-3.8,1.4-4.8c0-3.2-1.3-3.4-1.4-7c0-1.6,0.2-2.5-0.4-3.4C35.7,55,34.2,54.3,33.3,54.8z"/>	<path class="st5" d="M33.4,59.3c0.5,0.2,1.5-0.2,1.6-1c0.1-0.8-1-1.5-1.4-1.3C33,57.2,32.8,58.9,33.4,59.3z"/>	<path class="st5" d="M34.4,62.8c0.3-0.2,0.1-1.4-0.4-1.5c-0.4-0.1-0.8,0.3-0.9,0.6C33.1,62.5,34.1,63,34.4,62.8z"/>	<path class="st5" d="M30.8,62.6c0,0.4,0.7,0.4,1.5,1.2c0.8,0.8,0.8,1.6,1.1,1.6c0.3-0.1,0.5-1.2,0.1-2.1c0-0.1-0.6-1.3-1.6-1.3		C31.4,61.9,30.8,62.2,30.8,62.6z"/>	<path class="st5" d="M34,67.7c0.2,0.7,1.3,1.1,1.9,0.7c0.4-0.3,0.6-0.8,0.4-1.3c-0.2-0.6-0.9-0.9-1.5-0.8		C34.2,66.5,33.9,67.2,34,67.7z"/></g><g>	<path class="st4" d="M13.3,27.7c0.6,0.5,1.6-0.7,2.7-0.2c0.7,0.3,0.6,0.7,1.3,1.1c1.1,0.6,1.7-0.2,2.9,0.3c0.9,0.4,0.8,0.9,2.1,1.8		c0.5,0.3,1.5,1,2,0.8c0.5-0.3,0.3-1.4,0.2-2.1c-0.3-1.5-0.9-4.7-3.6-6c-0.2-0.1-1.6-0.8-3.1-0.5c-1,0.2-0.8,0.6-2.6,1.7		c-1.3,0.7-1.9,0.8-2.1,1.5C12.9,26.6,12.9,27.4,13.3,27.7z"/>	<path class="st5" d="M17.7,25.8c0.3-0.3,0.7-0.6,0.6-1.1c-0.1-0.3-0.4-0.5-0.6-0.6c-0.4-0.1-0.7,0.4-1,1c-0.3,0.5-0.6,1.1-0.4,1.3		C16.4,26.7,17.2,26.3,17.7,25.8z"/>	<path class="st5" d="M19.1,27.5c-0.2,0-0.5,0-0.6-0.2c-0.2-0.3-0.1-0.6,0.2-0.8c0.3-0.1,0.8,0.1,0.8,0.4		C19.5,27.2,19.4,27.4,19.1,27.5z"/>	<path class="st5" d="M22.8,29c0.3-0.2,0.1-1-0.3-1.1c-0.3-0.1-0.8,0.2-0.7,0.5C21.8,28.8,22.6,29.2,22.8,29z"/>	<path class="st5" d="M19.3,25.1c-0.3-0.1-0.5-0.8-0.2-1.2c0.2-0.2,0.6-0.4,0.8-0.2c0.3,0.2,0.3,0.9-0.1,1.2		C19.9,24.9,19.6,25.2,19.3,25.1z"/></g></svg>