<?xml version="1.0" encoding="utf-8"?><!-- Generator: Adobe Illustrator 26.0.3, SVG Export Plug-In . SVG Version: 6.00 Build 0)  --><svg version="1.1" id="Ebene_2_00000164498973440230773120000016072219408072498307_"	 xmlns="http://www.w3.org/2000/svg" xmlns:xlink="http://www.w3.org/1999/xlink" x="0px" y="0px" viewBox="0 0 100 100"	 style="enable-background:new 0 0 100 100;" xml:space="preserve"><style type="text/css">	.st0{fill:#418052;stroke:#000000;stroke-width:2;stroke-miterlimit:10;}	.st1{fill:#e6be00;stroke:#000000;stroke-miterlimit:10;}	.st2{fill:#b92a36;stroke:#000000;stroke-width:0.5;stroke-miterlimit:10;}	.st3{fill:#b92a36;stroke:#000000;stroke-width:0.5;stroke-miterlimit:10;}	.st4{fill:none;stroke:#000000;stroke-miterlimit:10;}	.st5{fill:#b92a36;stroke:#000000;stroke-width:0.5;stroke-miterlimit:10;}	.st6{fill:#e6be00;stroke:#000000;stroke-width:0.25;stroke-miterlimit:10;}	.st7{fill:#e6be00;stroke:#000000;stroke-width:0.25;stroke-miterlimit:10;}</style><polygon class="st0" points="8,74.2 50,98.5 92,74.2 92,25.8 50,1.5 8,25.8 "/><path class="st1" d="M29.6,13.3c-10.5,6.5-15.8,9.4-15.3,10.8c0.7,1.8,11-1.1,12.6,2.4c0.4,0.9-0.1,1.7,0.6,3.1c1,2,2.9,1.6,4,3.1	c1.5,2.1-1,4.9-1.3,9.8c-0.2,2.7,0.4,4.6,1.5,7.8c5,15.5,17.2,27.4,17.2,27.4c1.5,1.3,3.7,3.1,4.6,6.2c1.7,6.1-3.7,11.1-2.2,12.6	c1.4,1.5,7.4-2.9,19-9.7c11.7-6.8,15.5-8.1,15.4-10.8c-0.1-3.3-5.9-3.4-15.3-9.8c-4.6-3.1-13.9-9.6-18.2-20.9	c-1.2-3.2-2.5-6.5-2.5-11c0-6.6,2.6-10,0.4-15.1c-0.9-2-1.5-2-2.7-4.9c-2-4.9-1-7.1-2.4-8.1C42.9,4.8,38.7,7.6,29.6,13.3z"/><path class="st2" d="M71.2,23.3c-2.7-2.6-2.1-4.6-5.5-6.8c-2-1.4-2.6-0.9-4.7-2.5c-2.5-1.9-2.7-3.4-5-4.6C54.4,8.6,52,8,51.3,8.8	c-0.4,0.6,0.1,1.5,1.3,4.3c1.4,3.3,2.2,4.9,2.5,6.4c0.8,3.1,0,3.7,1,6.4c0.7,2,1.2,1.7,1.9,3.7c1.4,3.6,0.5,5.8,1.8,6.5	c0.9,0.5,1.7-0.2,3.7-0.7c0,0,3.6-1.1,8-0.6c5.1,0.5,7.3,3.3,8.9,2.1c0.6-0.4,0.8-1.3,1.2-3c0.4-1.5,0.8-3.2,0.4-4.4	C81.2,26.1,75.7,27.7,71.2,23.3z"/><path class="st3" d="M88.3,41.3c0.3,1.9,0.3,3.3,0.3,5.2c-0.1,2.9-0.1,4.4-0.9,5.3c-1.1,1.2-2.2,0.5-4.6,1.3	c-4.2,1.5-4.8,5.2-7.7,5.2c-1.7,0-2.1-1.2-3.6-0.9c-1.7,0.4-1.7,2.1-3.6,3c-1.7,0.8-4,0.5-5.5-0.9c-0.2-0.2-1.7-1.6-1.5-3.4	c0.2-1.2,1.2-1.4,2.4-3.1c1.7-2.5,2.6-3.8,3.1-5.5c0.8-2.7-0.1-3.6,1-5.3c0.1-0.2,1.4-2.1,3.6-2.5c2.7-0.5,3.6,1.8,7.6,1.9	c1.1,0,3.3,0.1,4-1c0.8-1.3-0.9-3.2,0-4.4c0.6-0.7,1.8-0.9,2.7-0.6C87.4,36.1,87.9,38.7,88.3,41.3z"/><path class="st4" d="M61.4,56.1"/><path class="st2" d="M88.4,58.2c0.5,1.3-1.5,2.1-1.6,4.3c-0.1,1.2,0.4,1.2,1,3.4c0.5,1.8,1.2,4.2,0.2,6.2c-0.2,0.4-0.9,1.9-2.3,2.2	c-1.3,0.4-2.3-0.6-5-2.3c-4.8-3.1-6.1-3-7.6-5.3c-0.6-0.9-1.6-2.4-1.2-4c0.4-1.5,1.8-2.2,2.1-2.4c2.4-1.3,3.9,0.5,6.1-0.6	c2.2-1.1,2-3.8,3.8-4c0.7-0.1,1.3,0.2,2.4,0.7C87.4,57.1,88.1,57.5,88.4,58.2z"/><path class="st5" d="M35.5,78.7c-0.6,0.2-1.7-0.3-4-1.3c-4.3-1.9-5.3-2.4-5.9-1.9c-0.8,0.5-0.9,2.1-0.6,3.3c0.8,2.8,4.3,3.1,9.5,5.3	c8.1,3.5,11.8,7.8,13.2,6.5c0.7-0.6,0.2-2.3-0.2-3.6c-1-3.5-3.2-3.7-4-6.8c-0.5-2.1,0.3-3.1-0.7-4.3c-0.8-0.9-2.3-1.7-3.6-1.3	C37.2,75.2,37.4,78.2,35.5,78.7z"/><path class="st2" d="M31.2,62.6c-1.7-3.2-0.9-5.1-2.8-6.4c-0.3-0.2-0.7-0.4-5.2-0.6c-4.7-0.2-5.4,0-6.1,0.4	c-0.9,0.6-1.3,1.4-2.2,4.2c-3,8.4-3.1,9.4-2.5,10.5c0.7,1.3,2.1,2.5,3.7,2.8c3.1,0.5,4.3-2.9,7.4-3c4.2-0.1,5.8,6,9,5.5	c2.4-0.4,4.5-4.1,4-7C36,66.3,33.3,66.6,31.2,62.6z"/><path class="st3" d="M27.8,46.8c-0.4-3.2-2-3.8-1.9-6.7c0-2,0.8-2.1,0.6-3.6c-0.3-1.9-2-3.1-5.5-5.3c-4.2-2.7-5.4-2.5-5.9-2.4	c-1,0.2-2.1,1-2.5,2.1c-0.6,1.5,0.5,2.5,1,4.6c0.4,1.6,0,2-1,7.7c-1.1,6.1-0.9,7.1-0.3,8c1.2,1.7,3.5,2,4,2.1	c1.5,0.2,1.9-0.2,4.3-0.6c4-0.6,5,0.4,6.2-0.6C28.3,50.8,27.9,47.9,27.8,46.8z"/><path class="st3" d="M26.3,27.6c0.7-1.5,1-2.2,0.9-3c-0.2-1.1-1.2-2.3-2.2-2.2c-1,0-1,1.2-2.4,2.2c-2.1,1.4-4.6,0.3-4.9,1.1	c-0.2,0.6,0.8,1.4,1.3,1.8c0.9,0.6,1.4,0.4,2.7,0.9c1.9,0.8,2.1,1.8,3,1.6C25.2,29.9,25.6,29.1,26.3,27.6z"/><path class="st2" d="M64.1,41.7c0.2,1-0.9,1.2-2.1,3.4c-1.5,2.7-0.6,4.1-2.2,6.1c-0.9,1-2.2,2-2.7,1.6c-0.6-0.4,0.6-2.1-0.2-3.7	c-0.8-1.6-2.5-1.2-3.6-3c-0.6-1-0.5-1.9-0.4-3.7c0.2-3.3,1.2-3.7,1-5.9c-0.2-2.1-1.3-3.5-0.7-4c0.5-0.4,1.9,0,1.9,0l0,0l3.7,5.9	C61.4,40.7,63.8,40.2,64.1,41.7z"/><path class="st6" d="M73.6,29.9c-0.2,0.5,0.4,1,0.2,1.6c-0.2,0.6-1.1,0.7-1.1,1c0,0.2,0.4,0.3,0.8,0.4c1.6,0.3,2.7,0.6,3.2-0.1	c0.3-0.4,0.3-1.1,0-1.4c-0.5-0.5-1.4,0-1.9-0.4c-0.3-0.3-0.3-0.9-0.1-1.5C74.1,29.5,73.7,29.6,73.6,29.9z"/><path class="st6" d="M64.4,24.1c0.2-0.4,1-0.6,1.3-0.3c0.4,0.3-0.2,1,0.2,1.5c0.4,0.5,1,0.2,1.4,0.7c0.3,0.4,0.2,1.1-0.1,1.3	c-0.4,0.2-1.1-0.4-1.5-0.7C65.6,26.4,64,24.9,64.4,24.1z"/><path class="st6" d="M64.1,21c-0.1,0-1.1-0.1-1.2,0.1c-0.1,0.2,0.8,0.4,1.1,1.2c0.2,0.5,0.1,0.8,0.4,1c0.2,0.1,0.5,0,0.8-0.1	c0.1-0.1,0.4-0.2,0.7-0.5c0.1-0.2,0.3-0.5,0.3-0.7C66,21.2,64.3,21.1,64.1,21z"/><path class="st6" d="M57.9,15.5c-1.1-0.7-1-1.4-2.2-2.2c-0.7-0.5-1.6-0.8-1.7-0.7c-0.1,0.1,0.3,0.4,1,1.4c0.9,1.1,1.3,1.6,1.6,2.1	c0.4,0.9,0.5,1.4,0.8,1.5c0.3,0,0.4-0.3,1-0.7c0.9-0.5,1.6-0.5,1.6-0.7C60,16,59,16.1,57.9,15.5z"/><path class="st6" d="M63.3,33.3c-0.4,0.7-1.6,0.9-2.3,0.4c-0.8-0.6-0.4-2-0.3-2.2c0.3-0.9,1.1-1.6,1.3-1.5c0.2,0.1-0.5,1.1-0.1,1.6	c0.3,0.3,0.9-0.1,1.3,0.3C63.5,32.2,63.5,32.9,63.3,33.3z"/><path class="st6" d="M55.2,37.7c0.2,0.4,0.5,0.3,0.8,0.7c0.4,0.6,0.3,1.1,0.5,1.1c0.2,0,0.6-0.5,0.7-1.1c0.2-1.2-1-2.7-1.6-2.5	C55.2,36,54.8,37.1,55.2,37.7z"/><path class="st6" d="M59.8,46.1c0.2,0.4,0.5,0.9,0.7,0.9c0.3-0.1,0.1-1.1,0.8-2.2c0.6-0.9,1.4-1.1,1.3-1.4c-0.1-0.3-1.1-0.1-1.6-0.7	c-0.4-0.5-0.1-1.1-0.2-1.2C60.5,41.5,58.9,44,59.8,46.1z"/><path class="st6" d="M55.6,45.1c-0.4,0.4-0.9,0.2-1,0.4c-0.2,0.4,0.5,1.4,1,1.3c0.5-0.1,0.8-1,0.8-1.3c0.2-1-0.1-1.9-0.3-1.9	S56.1,44.6,55.6,45.1z"/><path class="st7" d="M84.5,42.4c0.2,0.6,0.7,1.4,1,1.3c0.3-0.1,0.3-1.1,0.1-2c-0.2-0.6-0.7-1.4-1-1.3C84.3,40.5,84.2,41.6,84.5,42.4	z"/><path class="st7" d="M83.4,45c0.2,0.2-0.4,0.9-0.7,1.2c-0.5,0.6-0.8,1-1.3,0.9c-0.6-0.1-1-1.2-0.7-1.6c0.2-0.2,0.6,0,1.5-0.2	C83,45.2,83.3,44.9,83.4,45z"/><path class="st7" d="M76.8,46.1c-0.4,0.2,0.3,1.3-0.2,2.4c-0.5,1-1.5,1.1-1.4,1.4c0.1,0.5,1.9,0.9,3.1,0c0.5-0.4,1-1.1,0.8-1.5	c-0.2-0.5-1.2-0.3-1.4-0.8c-0.1-0.3,0.1-0.5,0-0.9C77.5,46.3,77,46,76.8,46.1z"/><path class="st7" d="M71.2,43.6c-0.4,0.5-0.6,1.4-0.2,2c0.3,0.3,0.8,0.6,1,0.4c0.3-0.2,0-0.9,0.4-1.2c0.5-0.4,1.6,0.7,2.2,0.4	c0.3-0.2,0.3-1,0.1-1.4C74,42.9,72,42.7,71.2,43.6z"/><path class="st7" d="M69.4,50.4c-0.8-0.1-1.2-0.5-1.4-0.4c-0.2,0.2,0.1,1,0.7,1.5c0.5,0.4,1.3,0.5,1.9,0.2c0.8-0.4,1.2-1.4,1-1.6	C71.3,49.8,70.6,50.5,69.4,50.4z"/><path class="st7" d="M76.5,51.7c-1.1-0.2-1.3-0.2-1.5,0c-0.4,0.4,0,1.1-0.4,1.7c-0.4,0.5-0.9,0.2-1.4,0.7c-0.6,0.5-0.8,1.5-0.5,1.8	c0.3,0.2,1.1-0.3,1.6-0.7c1-0.9,0.8-1.6,1.6-1.9c0.6-0.2,0.9,0.2,1.8-0.1c0.6-0.2,1.2-0.6,1.2-0.9C78.8,52.1,78.6,52,76.5,51.7z"/><path class="st7" d="M68.6,54.1c-0.5,0-0.5,0.9-1.3,1.8c-1.1,1.1-2.2,0.8-2.6,1.7c-0.4,0.8,0.1,2,0.5,2.1c0.6,0.1,0.9-1.5,2-1.6	c0.7,0,1.1,0.5,1.6,0.3c0.3-0.1,0.5-0.4,0.5-0.7c0-0.5-1-0.6-1-1.1c-0.1-0.5,1.1-0.8,1.1-1.5C69.4,54.6,69,54.1,68.6,54.1z"/><path class="st6" d="M82.2,60.8c0.2-0.3,1.5-0.1,1.6,0.4c0,0.2-0.2,0.3-0.3,0.8c-0.1,0.4-0.1,0.8-0.1,1c0,0.6,0.2,0.7,0.4,1.4	c0.3,0.8,0.5,1.4,0.2,1.7c-0.3,0.3-1.2,0.2-1.6-0.3c-0.4-0.5-0.1-1.3-0.4-1.4c-0.3-0.1-0.7,1-1.3,1c-0.7,0-1.4-1.1-1.2-1.6	c0.2-0.4,1.3,0,1.7-0.6c0.3-0.4,0.1-0.9,0-1.3c0.7,0.1,1.3,0.2,1.4-0.1C82.8,61.6,82,61.1,82.2,60.8z"/><path class="st6" d="M76.2,66.5c-0.4-0.1-0.6-0.8-0.7-1.3c-0.1-0.5-0.2-0.8-0.1-1c0.4-0.6,2.1-0.6,2.4,0.2	C78.2,65.1,76.8,66.7,76.2,66.5z"/><path class="st6" d="M82.4,71.4c0.1,0.1,0.3-0.1,0.8-0.1c1,0,1.7,0.8,1.8,0.7c0.1-0.1-0.2-0.6-0.4-1c-0.3-0.3-0.6-0.8-1.1-0.7	C82.8,70.3,82.2,71.2,82.4,71.4z"/><path class="st7" d="M23.5,26.4c0-0.1,0-0.5,0.3-0.7c0.4-0.3,1-0.3,1.2,0c0.3,0.5-0.4,1.7-0.9,1.7C23.8,27.3,23.5,26.8,23.5,26.4z"	/><path class="st7" d="M17.7,32.9c-1-0.3-1.4-0.9-1.6-0.7c-0.2,0.1-0.1,0.4,0.1,1.5c0.3,1.8,0.4,2.2,0.6,2.2c0.2,0,0.2-0.4,0.7-0.7	c0.6-0.4,1-0.1,1.4-0.5c0.4-0.3,0.5-0.9,0.3-1.3C18.9,33,18.5,33.2,17.7,32.9z"/><path class="st7" d="M21.8,36.4c-0.4-0.3-1.1-0.4-1.3-0.1c-0.3,0.3-0.1,1,0.2,1.2c0.3,0.2,0.8,0,0.9,0.2c0.2,0.3-0.7,1.2-0.5,1.5	c0.1,0.2,0.6,0.2,1-0.1C22.7,38.6,22.7,37,21.8,36.4z"/><path class="st7" d="M17.2,41.4c-0.5,0-1.4,0.1-1.5,0.4c-0.1,0.3,0.4,0.7,0.7,0.9c1,0.5,2.5-0.1,2.5-0.5C19,41.8,18,41.5,17.2,41.4z	"/><path class="st7" d="M22,43.3c-0.1,1,0.4,1.9,0.5,2.1c0.5,0.8,1.1,0.8,1.1,1.4c0,0.5-0.4,0.6-0.4,1.2c0,0.7,0.8,0.9,0.7,1.3	c-0.1,0.4-1.2,0.8-1.6,0.4c-0.5-0.4-0.1-1.4-0.3-1.5c-0.3-0.1-1.4,2.3-1.7,2.2c-0.2-0.1-0.2-0.9,0.2-1.7c0.5-1.1,1.5-1.2,1.6-1.9	c0-0.4-0.4-0.4-0.7-1.2c-0.1-0.1-0.7-1.5-0.2-2.5c0.4-0.7,1.2-1.1,1.3-1C22.6,42.1,22.1,42.5,22,43.3z"/><path class="st7" d="M14.7,48c-0.1,0.7,0,1.6,0.3,1.6c0.1,0,0.2,0,1.3-1.8c0.3-0.5,0.4-0.7,0.4-1c-0.1-0.3-0.4-0.7-0.7-0.7	C15.3,46.1,14.9,47.2,14.7,48z"/><path class="st6" d="M26,59c-1-0.1-2.5,0-2.7,0.6c-0.1,0.6,1.3,0.7,2,2.2c0.6,1.2,0,2.4,0.5,2.6c0.3,0.1,1-0.3,1.2-0.9	c0.3-0.9-0.6-1.4-0.4-2.6c0.1-0.7,0.5-1.1,0.3-1.5C26.8,59.2,26.7,59,26,59z"/><path class="st6" d="M17.9,59.9c-0.7-0.3-1.5,0.4-1.6,0.5c-1.1,0.9-1.3,2.7-0.7,3.2c0.4,0.3,0.7-0.2,2.2-0.2c0.7,0,0.9,0.1,1.8,0.1	c0.5,0,1.2-0.1,1.3-0.3c0-0.2-0.8-0.3-1.5-1C18.3,61.3,18.6,60.2,17.9,59.9z"/><path class="st6" d="M29.3,65.7c-0.5,0.1-0.6,1.3-0.6,1.4c0,0.1-0.1,1.2,0.3,1.3c0.4,0.1,1.4-0.9,1.2-1.8	C30.1,66.2,29.7,65.7,29.3,65.7z"/><path class="st6" d="M23.3,66.4c-0.1,0.1,0.1,0.3,0.2,1.3c0.1,0.6,0.1,0.8,0.2,0.9c0.2,0.1,0.8-0.1,0.9-0.4	C24.9,67.4,23.5,66.3,23.3,66.4z"/><path class="st6" d="M15.8,68.7c-0.3,0.3,0.6,1.3,0.3,1.6c-0.2,0.2-0.9-0.3-1.2-0.1c-0.2,0.2-0.2,0.9,0.2,1.2	c0.4,0.4,1.2,0.1,1.6-0.3c0.5-0.5,0.7-1.5,0.2-2C16.6,68.7,15.9,68.6,15.8,68.7z"/><path class="st6" d="M30.5,70.7c-1.1,0.7-2.3,0.2-2.4,0.5c-0.1,0.4,1.5,1.2,2.6,1.6c0.8,0.3,1.9,0.7,2.2,0.4	c0.2-0.3-0.4-0.8-0.7-1.9c-0.3-1.3,0.1-2.4-0.2-2.4C31.7,68.7,31.5,70,30.5,70.7z"/><path class="st7" d="M38.5,80.4c-0.1-0.2-0.1-0.3,0.2-1.1c0.6-2.3,0.7-2.6,0.9-2.6c0.2,0,0.3,0.6,0.9,1.6c0.7,1,1.2,1.1,1.1,1.5	C41.4,80.5,39,81,38.5,80.4z"/><path class="st7" d="M34.6,81.1c-0.4,0.4-0.1,1.4,0.5,1.8c0.4,0.2,1,0.3,1.3,0c0.4-0.4,0.1-1.2-0.4-1.6	C35.6,80.9,34.9,80.8,34.6,81.1z"/><path class="st7" d="M29,79.5c-0.1,0.4,0.7,1,1.2,1.2c0.6,0.3,1.6,0.5,1.8,0.2c0.2-0.4-0.5-1.6-1.6-1.8C29.8,78.9,29.1,79.1,29,79.5	z"/><path class="st7" d="M39.3,82.2c-0.3,0.1-0.1,0.7-0.6,1.6c-0.4,0.8-0.9,1-0.8,1.3c0.1,0.2,0.7,0.1,1.6,0.2c1.3,0.1,2.1,0.8,2.2,0.6	c0.1-0.1-0.4-0.7-0.9-1c-0.6-0.4-1.1-0.4-1.1-0.7c0-0.3,0.5-0.3,0.6-0.7C40.4,82.9,39.7,82.1,39.3,82.2z"/><path class="st7" d="M42.2,86.9c0,0.4,0.7,0.8,1.3,1.1c1.2,0.6,2.4,0.7,2.4,0.6c0-0.1-0.7-0.2-1.3-0.9c-0.6-0.8-0.2-1.5-0.7-1.8	C43.5,85.6,42.2,86.3,42.2,86.9z"/></svg>