<?xml version="1.0" encoding="utf-8"?><!-- Generator: Adobe Illustrator 26.0.3, SVG Export Plug-In . SVG Version: 6.00 Build 0)  --><svg version="1.1" id="Ebene_2_00000126308112139821010380000011903406711838980787_"	 xmlns="http://www.w3.org/2000/svg" xmlns:xlink="http://www.w3.org/1999/xlink" x="0px" y="0px" viewBox="0 0 100 100"	 style="enable-background:new 0 0 100 100;" xml:space="preserve"><style type="text/css">	.st0{fill:#418052;stroke:#000000;stroke-width:2;stroke-miterlimit:10;}	.st1{fill:#e6be00;stroke:#000000;stroke-miterlimit:10;}	.st2{fill:#b92a36;stroke:#000000;stroke-width:0.5;stroke-miterlimit:10;}	.st3{fill:#e6be00;stroke:#000000;stroke-width:0.25;stroke-miterlimit:10;}	.st4{fill:#b92a36;stroke:#000000;stroke-width:0.5;stroke-miterlimit:10;}	.st5{fill:#e6be00;stroke:#000000;stroke-width:0.25;stroke-miterlimit:10;}	.st6{fill:none;stroke:#000000;stroke-width:0.25;stroke-miterlimit:10;}</style><polygon class="st0" points="91.6,25.7 49.6,1.5 7.6,25.7 7.6,74.2 49.6,98.5 91.6,74.2 "/><path class="st1" d="M65,89.6c6.9-3.7,10.4-5.5,10.5-6.9c0.1-1.4-1.9-2.6-9.2-6.1c-11.8-5.7-13.9-6.2-13.8-7.2	c0.3-3.3,21.8-2.7,23.7-2.2c0.3,0.1,1.5,0.5,3.2,0.7c4,0.5,8.6,1.1,11-1.2c1.6-1.5,1.3-3.4,1.3-10.9c0-12,0.5-15.2-1-15.8	c-1.5-0.6-2.8,2.4-7.6,6.2c-0.6,0.5-9.2,7.1-20.2,7.5c-8.7,0.3-9.7-3.7-15.3-1.9c-5.6,1.8-5.4,6.1-13.4,10.3c-2.9,1.5-3,1-10,3.6	c-9.9,3.7-14.9,5.5-15,7.9c-0.1,1.4,1.3,2.5,12.6,8.6c11,6,12.9,6.8,14.6,5.9c4.1-2.3,1.2-12.2,4.4-13.2c1.7-0.5,4,1.6,5,3.4	c1.3,2.2,0.8,4,0.9,7.1c0.1,3.5,0.9,11.3,3.7,12c2.1,0.6,5.1-2.9,9-5C62.2,91,62.5,90.9,65,89.6z"/><g>	<path class="st2" d="M10.3,29.2c-0.2,0.4-1.2,2.3-0.6,3.6c0.6,1.1,1.7,0.6,3.2,1.9c1.4,1.3,1.1,2.6,2.3,2.8		c0.8,0.1,1.9-0.1,2.3-0.9c0.4-0.9-0.7-1.6-0.5-3c0.2-1.5,1.6-1.9,1.4-3c-0.1-0.5-0.7-1-1.9-1.9c-0.3-0.2-1.1-0.8-2.1-1.2		c-0.4-0.2-0.7-0.3-1.1-0.3c-0.4,0-0.8,0-1,0C11.8,27.5,10.9,28.1,10.3,29.2z"/>	<path class="st3" d="M13.2,29.4c0.2,0.4-0.4,0.8-0.2,1.2c0.1,0.2,0.6,0.3,0.8,0.2c0.6-0.3,0.5-1.7,0-2c-0.1-0.1-0.2,0-0.8,0		c-0.6,0-1,0-1,0C12.1,29,13,29,13.2,29.4z"/>	<path class="st3" d="M11.4,32.6c0.4,0.3,1,0.7,1.1,0.5c0.1-0.1-0.3-0.3-0.8-1.2c-0.1-0.2-0.2-0.4-0.4-0.4c-0.2-0.1-0.5,0.1-0.6,0.2		C10.6,32,11.1,32.3,11.4,32.6z"/>	<path class="st3" d="M16.9,30.8c0.3,0.5,0.3,1.3-0.1,1.6c-0.2,0.2-0.5,0.3-0.7,0.1c-0.3-0.3,0.2-1.1-0.1-1.4		c-0.2-0.2-0.6,0.2-0.9,0c-0.1-0.1-0.1-0.4,0-0.6C15.4,30.1,16.4,30.1,16.9,30.8z"/>	<path class="st3" d="M14,33.5c0.2,0.1,0.7-0.2,0.7-0.5c0-0.2-0.4-0.5-0.6-0.4C13.8,32.8,13.8,33.4,14,33.5z"/>	<path class="st3" d="M14.2,35.6c0.3,0.7,1.2,1.2,1.7,0.9c0.2-0.2,0.4-0.5,0.3-0.7c-0.2-0.3-0.9,0.1-1.1-0.2		c-0.2-0.3,0.3-0.8,0.1-1.2c-0.2-0.3-0.6-0.4-0.9-0.3C13.9,34.4,14,35.2,14.2,35.6z"/></g><g>	<path class="st4" d="M40.1,19.5c1.2,0.5,1.1,1.5,2.7,2.9c2,1.8,5,2.6,6.8,1.5c0.8-0.6,1.6-1.7,1.2-2.3c-0.4-0.9-2.1-0.3-3.1-1.5		c-0.3-0.4-0.4-0.7-0.6-3c-0.3-3.3-0.3-3.7-0.7-4.5c-0.7-1.1-2-2.1-2.9-1.9c-1,0.3-0.5,1.7-1.5,3c-1.4,1.8-3.7,0.2-7.1,2		c-1.8,1-1.8,1.7-1.8,1.9c0.1,0.9,1.3,1.9,2.4,2.3C37.5,20.5,38.4,18.8,40.1,19.5z"/>	<path class="st5" d="M38.2,17c-0.7,0.2-1.4-0.5-1.5-0.4c-0.1,0.1,0.6,1.1,1.4,1.3c0.8,0.2,1.7-0.4,1.6-0.8c0-0.3-0.4-0.6-0.7-0.6		C38.7,16.5,38.7,16.9,38.2,17z"/>	<path class="st5" d="M44.5,17.6c0-0.3-1.3-0.7-1.3-1.2c0-0.6,2-0.5,2-1.2c0-0.4-0.5-0.8-0.9-0.9c-1.1-0.4-2.6,0.8-2.4,1.9		c0.2,0.8,1.1,1.3,1.2,1.3C43.7,17.8,44.4,17.7,44.5,17.6z"/>	<path class="st5" d="M45,20.6c0.6,0.4,1.4,0,1.6-0.6c0.1-0.5,0-1.1-0.3-1.4c-0.6-0.5-1.7,0.1-1.8,0.9C44.4,19.9,44.6,20.3,45,20.6z		"/>	<path class="st5" d="M48.1,22.8c0.2-0.1,0.3-1-0.2-1.2c-0.3-0.2-0.7,0-0.8,0.2C47.1,22.1,47.8,22.9,48.1,22.8z"/></g><g>	<path class="st4" d="M65.6,69.3c-2.8,0.9-5.8-0.5-6.2,0.2c-0.6,1.2,6.9,6.3,10.7,6.2c1.3,0,1-0.6,2.5-0.7c2.5,0,4.4,1.7,7.5,1.9		c1.3,0.1,2.9-0.1,2.9-0.8c0-0.6-1.4-1.1-4-2.9c-3.8-2.5-4.2-3.5-6.6-4.4c-0.4-0.2-1.7-0.6-3.1-0.6C67.4,68.1,67.1,68.8,65.6,69.3z"		/>	<path class="st5" d="M72.1,70c-0.4-0.3-1.2-0.4-1.6-0.2c-0.6,0.3-0.3,1.2,0.6,1.8c0.9,0.6,2.1,0.6,2.5,0.7c1.1,0,2-0.4,1.8-0.7		c-0.1-0.2-0.7-0.4-0.8-0.4c-1-0.3-1.6,0.1-2-0.1C72.2,70.7,72.6,70.3,72.1,70z"/>	<path class="st5" d="M69.1,71c0.5,0,1.4,0.8,1.5,1.4c0,0.1,0.1,0.4-0.2,0.4c-0.4,0-1.6-0.7-1.7-1.3C68.6,71.3,68.7,71,69.1,71z"/>	<path class="st5" d="M63.1,70.4c-0.3,0.2-0.1,0.6,0.2,0.8c0.4,0.4,1.3,0.7,1.6,0.6c0.4-0.1,0.1-0.8-0.6-1.2		C64,70.5,63.4,70.3,63.1,70.4z"/>	<path class="st5" d="M77.3,74c1.1,1.2,1.2,1.3,1.4,1.3c0.3,0,0.5-0.3,0.4-0.7c-0.3-0.9-2.5-1.8-2.7-1.7C76.4,73,76.4,73,77.3,74z"		/></g><path class="st6" d="M45.2,23.3"/><g>	<path class="st4" d="M30.4,56.7c-0.5-3.7-3.5-5.8-4-6.1c-1.4-0.9-1.6-0.5-3.2-1.4c-2-1.2-2.3-2.2-5.3-5.3c-3.4-3.5-4.2-3.3-4.5-3.2		c-0.8,0.3-1.1,1.6-1.4,3.3c-0.3,1.7-0.9,4.6,0.4,7.9c0.6,1.5,1.3,3.4,3.2,4.6c2.4,1.5,3.7,0.1,6.5,1.2c4,1.6,4.4,6,6.1,5.8		C29.8,63.1,30.8,59.5,30.4,56.7z"/>	<path class="st5" d="M19.1,53.6c0.1-0.2-0.9-0.6-1.4-1.8c-0.5-1.2,0-2.3-0.3-2.4c-0.4-0.2-1.6,1-1.4,2c0.1,0.6,0.7,1,1.2,1.4		C18,53.4,19,53.8,19.1,53.6z"/>	<path class="st5" d="M27.2,52.8c0.1-0.6-0.7-1.4-1.3-1.4c-0.5,0-0.6,0.4-1.6,1.4c-1.1,1.1-1.5,1.3-1.5,1.4		C23.1,54.7,27.1,54.1,27.2,52.8z"/>	<path class="st5" d="M26.2,56.9c0.5,0,1-0.6,0.9-1.2c-0.1-0.5-0.7-0.8-1.1-0.6c-0.3,0.1-0.5,0.4-0.6,0.7		C25.3,56.3,25.7,56.9,26.2,56.9z"/>	<path class="st5" d="M27,59.5c0.3,0.8,1.8,1.1,2.3,0.5c0.3-0.3,0.2-0.9,0-1.3c-0.3-0.5-0.9-0.9-1.5-0.7C27.1,58.3,26.8,59,27,59.5z		"/>	<path class="st5" d="M22.2,49.3c0-0.6-1.5-1.3-1.9-0.9c-0.3,0.3-0.2,1.5,0.5,1.8C21.5,50.4,22.2,49.7,22.2,49.3z"/>	<path class="st5" d="M14.1,46.1c0.2-0.3,0.7,0,1.1-0.4c0.5-0.5-0.2-1.3,0.3-2.1c0.2-0.4,0.7-0.7,1.1-0.6c0.5,0.1,0.9,1.2,0.6,2		c-0.4,1-1.6,0.9-1.9,1.9c-0.2,0.8,0.5,1.5,0.3,1.6C15.5,48.6,13.7,46.7,14.1,46.1z"/></g><g>	<path class="st2" d="M74.2,28.2c0.2,1.8,0.9,1.9,3.6,6.4c2.3,3.9,2.5,5.2,4.1,5.4c1.8,0.2,3.9-1,5-2.3c3.3-3.8-0.4-9.5-1.1-10.7		c-1.4-2.2-5.2-6.7-8.3-5.7C75.2,22,74,25.6,74.2,28.2z"/>	<path class="st3" d="M76.3,28.9c0.2,0.6,0.9,1.1,1.7,0.9c0.8-0.2,1.3-1,1.2-1.5c-0.1-0.9-1.5-1.4-2.3-1		C76.4,27.6,76.2,28.3,76.3,28.9z"/>	<path class="st3" d="M80.1,34.4c-0.9,1.5,1.6,3.6,2.2,3.3c0.2-0.1,0.2-0.5,0.3-1.2c0.1-1.7,0.3-2.9-0.4-3.1		C81.6,33.2,80.6,33.7,80.1,34.4z"/></g><g>	<path class="st2" d="M43.9,85.6c0.3-1.3,1.6-1,1.8-2.1c0.4-2-3-6-3.8-5.2c-0.4,0.4,0.2,1.5-0.2,3.3c-0.2,0.7-0.6,1.4-1.4,2.8		c-1,1.8-1.2,1.8-1.3,2.2c-0.3,2.1,2.4,6.1,4.2,5.2c0.6-0.3,1.2-1.2,1.4-2.3C44.8,87.9,43.7,87,43.9,85.6z"/>	<path class="st3" d="M42.8,85.7c-0.5-0.4-1.3-0.1-1.5,0.7c-0.2,0.8,0.1,1.6,0.5,2c0.4,0.5,1.1,0.8,1.4,0.4		C43.7,88.2,43.5,86.2,42.8,85.7z"/>	<path class="st3" d="M43.7,82.9c0.1-1,0.6-1.4,0.5-1.7c-0.1-0.3-0.9-0.3-1.4,0.3c-0.3,0.4-0.5,1.2-0.5,1.2l0,0		c0.2-0.5-0.6,1.1-0.4,1.7c0.2,0.6,1.6,0.6,1.9-0.2C43.9,83.9,43.6,83.6,43.7,82.9z"/></g><g>	<path class="st4" d="M62.8,47.7c1.2-0.7,0.8-2.2,1.6-4.7c1.7-5.3,5.6-5.2,7.1-9.9c1.2-4-0.4-7.7-0.7-8.2c-1.1-2.3-3.2-3.8-7.3-6.7		c-4.5-3.2-6.8-4.8-8.4-4.2c-3,1.2-2.9,7.8-2.8,9.8c0.1,6.5,2.7,7.1,3,14.3c0.1,3.3-0.4,5,1,7C57.7,47.2,61,48.7,62.8,47.7z"/>	<path class="st5" d="M62.4,38.5c-0.9-0.5-3.2,0.3-3.3,2c-0.2,1.7,2,3,3,2.7C63.4,42.7,63.6,39.2,62.4,38.5z"/>	<path class="st5" d="M60.3,31.2c-0.6,0.4-0.3,2.9,0.9,3.1c0.7,0.2,1.7-0.5,1.8-1.3C63,31.8,60.9,30.7,60.3,31.2z"/>	<path class="st5" d="M67.8,31.8c0-0.8-1.5-0.9-3.1-2.6C63.1,27.6,63,26,62.5,26c-0.6,0.1-1.1,2.4-0.2,4.4c0.1,0.1,1.3,2.8,3.3,2.7		C66.6,33.1,67.7,32.5,67.8,31.8z"/>	<path class="st5" d="M61.2,21.2c-0.3-1.5-2.6-2.4-3.9-1.5c-0.8,0.5-1.2,1.6-0.8,2.6c0.4,1.2,1.8,1.9,3.1,1.6		C60.7,23.6,61.4,22.3,61.2,21.2z"/></g><g>	<path class="st4" d="M10.2,65.1c0.7,0.2,1.1-1,2.2-1c0.6,0,0.7,0.5,1.4,0.6c1.1,0.2,1.4-0.7,2.5-0.6c0.8,0.1,0.9,0.6,2.2,1		c0.5,0.2,1.6,0.5,1.9,0.1c0.4-0.4-0.1-1.3-0.4-1.9c-0.7-1.2-2-3.8-4.6-4.1c-0.2,0-1.6-0.2-2.7,0.5c-0.8,0.5-0.5,0.8-1.8,2.2		c-0.9,1-1.4,1.2-1.4,1.9C9.6,64.3,9.8,64.9,10.2,65.1z"/>	<path class="st5" d="M13.4,62.2c0.2-0.3,0.4-0.7,0.2-1.1c-0.1-0.2-0.5-0.4-0.7-0.3c-0.3,0.1-0.4,0.5-0.6,1.1		c-0.1,0.5-0.3,1.1,0,1.2C12.6,63.3,13.1,62.7,13.4,62.2z"/>	<path class="st5" d="M15,63.3c-0.2,0.1-0.4,0.1-0.6,0c-0.2-0.2-0.3-0.5-0.1-0.7c0.2-0.2,0.7-0.1,0.8,0.1		C15.4,62.9,15.3,63.1,15,63.3z"/>	<path class="st5" d="M18.6,63.5c0.2-0.2-0.2-0.9-0.5-0.9c-0.3,0-0.6,0.4-0.5,0.6C17.7,63.6,18.4,63.7,18.6,63.5z"/>	<path class="st5" d="M14.6,61.1c-0.3,0-0.6-0.6-0.5-0.9c0.1-0.3,0.4-0.5,0.7-0.4c0.3,0.1,0.5,0.7,0.3,1.1		C15.1,60.8,14.9,61.1,14.6,61.1z"/></g><g>	<path class="st2" d="M24,37.8c0.3,2.9-0.4,4.3,0.9,4.5c1.8,0.3,5.8-1.7,7-3.6c1.1-1.7-1-2.1,0.1-3.9c1.1-1.9,3.9-2.4,4.9-4.5		c0.4-0.8,0-0.6,0.3-2.1c0.6-2.3,1.8-3.3,1.3-3.6c-0.6-0.4-2.6,0.7-5.9,2.1c-7.2,3.1-8.7,2.7-9.9,4.1C21.2,32.6,23.5,33.2,24,37.8z"		/>	<path class="st3" d="M27.1,30c0.7-0.2,2.2-0.6,2.3-0.4c0.1,0.2-1.2,1-2.5,1.3c-0.9,0.2-1.8,0.1-1.7-0.1		C25.2,30.6,26.8,30.1,27.1,30z"/>	<path class="st3" d="M30.3,32.3c0.1,0.2-0.2,0.7-0.6,0.8c-0.6,0.2-1.3-0.3-1.1-0.6C28.8,32.2,30.1,31.9,30.3,32.3z"/>	<path class="st3" d="M32.1,29.1c0.9-0.1,1,0.8,1,0.9c0.1,0.4-0.1,1-0.4,1.1c-0.2,0.1-0.3-0.2-1-0.3c-0.8-0.2-1.4,0-1.5-0.2		C30.1,30.3,31.2,29.2,32.1,29.1z"/>	<path class="st3" d="M26.4,34.4c-0.3,0.2-0.9-0.1-1.2-0.4c-0.3-0.3-0.5-0.7-0.2-0.9c0.3-0.2,0.9,0,1.2,0.2		C26.6,33.7,26.7,34.2,26.4,34.4z"/>	<path class="st3" d="M26.4,37.7c0.9,0.2,2.5-0.3,3-0.9c0.4-0.5-0.2-1.1-0.7-1c-0.5,0.1-0.6,0.7-1.2,0.9c-0.9,0.3-1.5-0.7-1.8-0.5		C25.3,36.4,25.3,37.5,26.4,37.7z"/>	<path class="st3" d="M27.8,40.7c0.4-0.1,0.9-0.7,0.7-1.1c-0.2-0.5-1.4-0.3-1.7-0.1C26.4,39.9,27.2,40.8,27.8,40.7z"/></g><g>	<path class="st2" d="M47,37.7c-0.7-0.8-1.7,0.1-4.3-0.7c-2.8-0.8-3.3-2.4-4.7-2.2c-1.7,0.3-3.3,2.9-3,4.9c0.4,2.2,3.1,2.6,3.2,4.6		c0,1.5-1.4,2.1-1,3.1c0.4,1,2.3,1.3,3.7,1.1C45.6,47.7,48.7,39.6,47,37.7z"/>	<path class="st3" d="M40.3,45.2c0.6,0.3,1.4-0.3,1.7-0.8c0.5-0.7,0.5-1.8,0.1-2.1c-0.6-0.4-2.3,0.6-2.4,1.8		C39.7,44.5,39.9,45,40.3,45.2z"/>	<path class="st3" d="M42.6,39.9c0.3,0.1,0.7-0.1,0.8-0.3c0.2-0.4-0.3-1.1-0.8-1.1c-0.3,0-0.6,0.4-0.6,0.8		C42.1,39.7,42.3,39.9,42.6,39.9z"/>	<path class="st3" d="M39.5,39.7c-0.3-0.2-1,0-1.2,0.6c-0.2,0.7,0.5,1.3,0.8,1.2C39.6,41.4,39.9,40,39.5,39.7z"/></g></svg>