<?xml version="1.0" encoding="utf-8"?><!-- Generator: Adobe Illustrator 26.0.3, SVG Export Plug-In . SVG Version: 6.00 Build 0)  --><svg version="1.1" id="Ebene_2_00000008854137008483476280000003303031621812150931_"	 xmlns="http://www.w3.org/2000/svg" xmlns:xlink="http://www.w3.org/1999/xlink" x="0px" y="0px" viewBox="0 0 100 100"	 style="enable-background:new 0 0 100 100;" xml:space="preserve"><style type="text/css">	.st0{fill:#418052;stroke:#000000;stroke-width:2;stroke-miterlimit:10;}	.st1{fill:#e6be00;stroke:#000000;stroke-miterlimit:10;}	.st2{fill:#31455a;stroke:#000000;stroke-width:0.5;stroke-miterlimit:10;}	.st3{fill:#b92a36;stroke:#000000;stroke-width:0.5;stroke-miterlimit:10;}	.st4{fill:#b92a36;stroke:#000000;stroke-width:0.5;stroke-miterlimit:10;}	.st5{fill:#e6be00;stroke:#000000;stroke-width:0.25;stroke-miterlimit:10;}	.st6{fill:#e6be00;stroke:#000000;stroke-width:0.25;stroke-miterlimit:10;}	.st7{fill:#e6be00;stroke:#000000;stroke-width:0.25;stroke-miterlimit:10;}	.st8{fill:#e6be00;stroke:#000000;stroke-width:0.25;stroke-miterlimit:10;}	.st9{fill:#e6be00;stroke:#000000;stroke-width:0.25;stroke-miterlimit:10;}</style><polygon class="st0" points="6.1,74.2 48.1,98.5 90.1,74.2 90.1,25.8 48.1,1.5 6.1,25.8 "/><path class="st1" d="M46.4,96.3c-0.7,0.8-3.2-0.7-13.9-6.8c-8-4.6-12-6.9-12-6.9c-0.3-0.1-1.3-0.2-1.6-0.9c-0.3-0.8,0.5-2.1,1.3-2.2	c1.3-0.1,1.6,3.2,3.4,3.4c1.4,0.2,2.8-1.7,2.9-1.9c0.9-1.3,0.9-2.7,0.9-3.2c0.1-5.6,3.3-7.3,2-9.7c-1.4-2.5-3.7-2.5-12.6-5.8	c-9.3-3.5-10.3-4.9-10.8-5.7C5.1,55,6,55,6.1,44.1c0-1.3-0.1-4,0-9.3c0-2.3,0-2.8,0.4-3.1c2.2-1.6,10.2,6.1,17.2,9.4	c2.2,1.1,3.7,1.7,3.7,1.7c3,1.3,4.2,1.5,7.9,3.5c6.6,3.7,10,5.6,11.9,9.4c2.9,5.8-1.5,8.2,0,20.3c0.4,3.1,1,5.5,0.1,8.8	c-0.7,2.5-1.7,3.7-1.7,6.4C45.7,94.4,47,95.7,46.4,96.3z"/><path class="st2" d="M26.2,75.8c-1.3-1.2-3.3-0.7-3.4-1.4c-0.2-0.7,1.3-1.6,2.3-2.1c1.7-0.8,2.6-0.3,3.3-1.1c0.7-0.7,0.9-2.1,0.3-3	c-0.8-1.3-2.6-0.6-6.1-1.8c-2.1-0.7-1.8-1.1-3.6-1.6c-0.3-0.1-5.1-1.3-6.6,0.7c-0.6,0.8-0.1,1.4-0.9,3.1c-0.7,1.3-1.2,1.2-1.6,2.2	c-0.6,1.6-0.1,3.6,1.1,5c0.2,0.3,1.5,1.8,3.3,1.8c1.8,0,2.9-1.4,3.6-0.9c0.5,0.4-0.2,1.2,0.3,2c0.6,1,2.1,0.4,3.2,1.6	c0.8,0.8,0.5,1.6,1.2,2c1,0.6,2.8-0.1,3.7-1.2C27.8,79.4,27.4,76.9,26.2,75.8z"/><path class="st2" d="M51.8,93.3c-0.7-0.4-0.7-2-0.7-5.2c0-3.8,0-5.8,0.6-7c0.3-0.7,0.8-1.6,0.8-2.9c0-1-0.4-1.2-0.2-1.9	c0.3-1.1,1.7-2,3-2.1c1.7-0.1,2.9,1.3,5.2,3.9c2.2,2.5,3.5,4.1,3.1,5.6c-0.3,1.2-1.4,1-3.3,2.9c-2,2-1.6,2.9-3.4,4.7	C55.5,92.3,53,94.1,51.8,93.3z"/><path class="st2" d="M69.8,79.4c-0.2,0.2-2,1.4-3.9,0.9c-2.1-0.6-3.5-3.2-3-5c0.3-1.2,1.2-1.1,2-2.4c1.4-2.2-0.2-3.7,0.7-6.4	c0.6-2,2.3-4.4,4.7-5c2.3-0.6,4,0.8,5.1-0.3c0.8-0.8,0.1-1.7,0.9-2.6c1.2-1.3,4.6-1.2,5.9,0.4c1.6,2-1.2,4.4,0.3,8.1	c0.7,1.7,1.8,2.4,1.6,4c-0.1,0.9-0.7,2.1-1.7,2.6c-1.5,0.6-2.3-1-3.9-0.6c-1.8,0.5-1.8,3.1-3.9,3.6c-0.8,0.2-0.9-0.2-1.7,0	C71.4,77,71.2,78.4,69.8,79.4z"/><path class="st3" d="M62.4,72.9c0.3-0.2,0.5-0.8,0.8-2c0.5-2.1,0.3-3.2,0.4-4.9c0.2-2,0.4-3.6,1.6-4.8c1.5-1.5,3-0.5,4.7-2.1	c1.3-1.3,1.5-3,1.6-3.4c0.1-0.6,0.3-2.9-1.1-4.3c-1.7-1.7-4.6-1-5.2-0.9c-3,0.7-3,2.5-6.9,4c-1.9,0.7-2.4,0.5-3.1,1.2	c-1.7,1.8-0.9,5.2-0.6,6.7C56,68.4,60.9,73.6,62.4,72.9z"/><path class="st4" d="M81.6,53.2c-0.9,1.2-3.5,1-5.2,0.3c-2.3-0.9-3.4-2.9-4.2-4.3c-0.7-1.3-2.2-4-1.2-5.4c0.6-0.9,1.5-0.4,3-1.7	c0.7-0.6,1.2-1.2,2-2.4c1.2-1.7,1.1-2.1,1.7-2.3c1.2-0.6,3.4,0.3,4.3,1.8c0.2,0.3,0.6,1,0.3,4.2c-0.3,3.7-0.9,4-0.8,6.3	C81.6,51.9,82.2,52.5,81.6,53.2z"/><path class="st2" d="M66.1,46.2c0.6-1.2,0.9-3,0-4.1c-0.8-1-1.6-0.4-4.4-1.7c-1.4-0.6-1.9-1.1-2.8-0.9c-0.8,0.2-1.5,1-1.8,1.7	c-0.2,0.5-0.3,1.2,0.7,4.2c0.5,1.8,0.8,2.6,1.1,2.9C60.5,49.7,64.7,48.9,66.1,46.2z"/><path class="st4" d="M51.4,54.6c0.9-0.4,0.9-1.3,2-4c1.4-3.4,2.1-3.4,2.2-5c0.2-2.1-0.6-4.7-2.2-5.3c-1-0.4-1.5,0.3-3.2,0	c-1.2-0.2-1.5-0.7-2.6-1.1c-2.2-0.9-5.5-0.8-6.8,0.9c-0.7,1-0.8,2.6-0.1,3.2c0.6,0.5,1.4,0.1,2,0.7c0.6,0.6,0.2,1.3,0.4,2.2	c0.7,2.2,5.2,1.8,5.6,3.6c0.3,1.2-1.7,1.9-1.4,3.2C47.6,54.2,50,55.2,51.4,54.6z"/><path class="st2" d="M78.5,25.7c0.8,1.5,2.1,1.7,2,2.4c-0.1,0.9-1.9,1.5-2.3,1.7c-1.1,0.4-1.4,0.1-2.3,0.6c-1,0.4-1.1,0.9-1.8,1.3	c-1.6,1-4.3,0.9-5.4-0.4c-0.4-0.5-0.3-0.7-0.3-4.3c0-3.1-0.1-3.8,0.4-4.9c0.3-0.6,0.9-1.8,2-2c1.2-0.2,1.5,1.2,3.6,2.1	c1.8,0.8,2.8,0.2,3.6,1.1C78.5,24,77.9,24.5,78.5,25.7z"/><path class="st4" d="M63.3,36.3c1.2-1.1,1.9-2.9,1.9-4.6c0-1.9-1-2.5-1-4.6c0-1.6,0.6-1.9,1.3-4.1c0.7-2.2,1.4-4.5,0.7-6.7	c-1.2-3.3-5.2-4.8-5.9-5c-1.4-0.5-1.9-0.4-3.3-1.1c-1.8-1-1.9-1.8-3.6-2.7C52.1,7,49.7,6.1,48.8,7c-0.7,0.7,0.2,1.6-0.3,3.8	c-0.3,1.5-0.8,1.6-1.2,3.2c-0.3,1.4-0.1,1.9-0.1,3.6c-0.1,3.4-1.2,3.4-1,5.3c0.3,2.6,2.6,2.7,3.9,6.3c0.8,2.1,0.1,2.4,0.8,3.8	C52.6,36.9,60.1,39.2,63.3,36.3z"/><path class="st3" d="M45.7,30.9c0.8-1.2,0.5-3.1,0-4.2c-0.8-1.8-2.4-2.2-2.3-3.6c0-0.9,0.8-1.1,1.1-2.3c0.3-1.3-0.7-1.9-0.3-2.8	c0.3-0.7,0.9-0.7,1.6-1.2c1.7-1.3,2.2-5.3,0.2-7.7c-0.2-0.2-1.8-2-4-1.9c-3.3,0.2-3.5,4.3-7.6,7.1c-4.5,3.1-7.2-0.1-12.8,3.1	c-3.3,1.9-7.1,5.7-6.6,9.3c0.1,0.3,0.3,1.9,1.6,3.1c2.1,2,4.3,0.4,6.6,2.2c2.1,1.6,1.7,3.9,3.7,4.4c1,0.2,1.2-0.3,2.4,0	c1.9,0.4,2.4,1.8,3.4,1.6c0.7-0.2,1.1-1,1.4-1.8c0.8-1.7,0.1-2.5,0.6-3.3C35.9,30.6,43.7,33.8,45.7,30.9z"/><path class="st5" d="M78.5,69c-0.6,0.1-1.3-0.5-1.3-0.9c0.1-0.4,1-0.3,1.3-0.9c0.3-0.6-0.2-1.5-0.4-1.8c-0.4-0.6-0.7-0.7-0.7-1.2	c-0.1-0.6,0.1-1.3,0.4-1.3c0.3,0,0.4,0.5,1,1.3c0.6,0.7,0.8,0.6,1,1C80.7,66.2,79.7,68.8,78.5,69z"/><path class="st5" d="M75.8,71.4c0.3-0.1,0.5-0.8,0.3-1.3c-0.3-1-1.6-1.4-2.1-1.6c-0.8-0.3-1.3-0.2-1.4-0.5c-0.1-0.4,1.1-0.9,1-1.6	c0-0.3-0.3-0.7-0.6-0.7c-0.7-0.2-1.7,0.8-1.8,1.8c-0.1,0.6,0.1,1.3,0.7,1.7c0.6,0.4,1,0,1.8,0.2C75,69.8,75.3,71.5,75.8,71.4z"/><path class="st5" d="M70.6,73.9c0.3,0.1,0.6,0.4,0.6,0.7c0.1,0.8-1.2,1.7-1.8,1.4c-0.3-0.2-0.4-0.6-0.4-0.8	C69,74.5,69.9,73.7,70.6,73.9z"/><path class="st5" d="M67.2,75c0.3,0.1,0.5-0.1,0.9-0.4c0.4-0.3,0.8-0.6,1.2-1.1c0.7-1.2,0.4-2.9,0.1-3c-0.3-0.1-0.9,1-1.1,1.6	c-0.2,0.7-0.3,1.1-0.7,1.3c-0.4,0.2-0.7,0.1-0.8,0.3C66.6,74.1,66.8,74.8,67.2,75z"/><path class="st5" d="M67.2,76.6c-0.2-0.4-0.8-0.2-1.4-0.7c-0.6-0.5-0.6-0.9-0.9-1c-0.4,0-1,0.9-0.8,1.6c0.1,0.3,0.4,0.3,1.5,1	c0.7,0.5,0.9,0.7,1.1,0.6C67.2,78,67.5,77.1,67.2,76.6z"/><path class="st5" d="M77.7,61.8c0.4,0.1,0.7-0.4,0.8-0.9c0.1-0.6-0.3-1.3-0.7-1.3c-0.4,0-0.7,0.7-0.7,1.3	C77.2,61.2,77.4,61.7,77.7,61.8z"/><path class="st5" d="M75.5,64.4c0.4-0.1,0.6-0.6,0.4-1c-0.2-0.3-0.6-0.5-0.9-0.4c-0.4,0.1-0.7,0.6-0.5,1	C74.6,64.4,75.1,64.6,75.5,64.4z"/><path class="st5" d="M67.8,66.2c0.5,0.1,1-0.4,1-1c0.1-0.5-0.2-1.1-0.7-1.2c-0.5-0.1-0.9,0.4-1,0.9C66.9,65.4,67.2,66.1,67.8,66.2z"	/><path class="st6" d="M60.8,67.7c0.3,0,0.5-0.3,0.6-0.7c0.1-0.7-0.9-1.1-0.8-2c0-0.4,0.3-0.5,0.2-0.8c-0.1-0.5-0.5-1-1.1-1	c-0.6-0.1-1.2,0.3-1.4,0.7c-0.1,0.4,0.1,0.6,1.3,2.4C60.2,67.3,60.5,67.7,60.8,67.7z"/><path class="st6" d="M62.5,61.3c0.3-0.1,0.3-0.8,0.2-1.2c0-0.3-0.2-1-0.5-1c-0.3,0-0.6,0.5-0.6,1C61.6,60.7,62.2,61.3,62.5,61.3z"/><path class="st6" d="M65.5,56.1c2.1-0.1,2.6,0.2,3-0.2c0.5-0.5,0.5-1.5,0.1-2.2c-0.2-0.4-0.8-1.1-1.4-1c-0.8,0.2-0.6,1.4-1.6,1.8	c-0.7,0.2-1.2-0.3-1.7,0c-0.5,0.3-0.7,1.1-0.4,1.5C63.8,56.3,64.3,56.2,65.5,56.1z"/><path class="st6" d="M59.7,57.7c0.2,0.4-0.5,1.4-1.2,1.4c-0.5,0-0.8-0.5-1.1-0.3C57,59,57.3,59.7,56.9,60c-0.3,0.2-0.9,0.2-1.2-0.1	C55,59.4,55,58,55.6,57.6c0.3-0.2,0.5-0.1,1.6-0.1C59.1,57.6,59.6,57.4,59.7,57.7z"/><path class="st7" d="M77.7,50.9c0.7,0.2,1.4-0.4,1.6-1c0.4-0.9-0.1-2-0.3-2s-0.1,1.1-0.9,1.6c-0.6,0.4-1.2,0.2-1.3,0.4	C76.8,50.3,77.2,50.8,77.7,50.9z"/><path class="st7" d="M72.9,46c0.3,0.2,0.8,0.3,1.2,0c0.3-0.2,0.5-0.6,0.4-1c-0.2-0.7-1.3-1-1.8-0.6C72.3,44.8,72.3,45.6,72.9,46z"/><path class="st7" d="M78.1,43.3c0.5,0.1,0.9-0.5,1.3-0.9c0.5-0.6,0.9-1.5,0.7-1.7c-0.2-0.1-0.5,0.3-1.4,0.6c-0.8,0.2-1.2,0-1.4,0.3	C76.9,42.1,77.4,43.2,78.1,43.3z"/><path class="st8" d="M75.9,29.3c0.3-0.5,0.3-1.2,0.1-1.3s-0.7,0.4-0.9,0.8c-0.2,0.4-0.3,1-0.1,1.1C75.2,30,75.7,29.7,75.9,29.3z"/><path class="st8" d="M74.8,27.1c0.5,0,1.1-0.4,1.2-0.8c0-0.2-0.1-0.4-1-1.3c-1.2-1.1-1.4-1.2-1.5-1.1c-0.3,0.1-0.3,1-0.2,1.6	C73.3,25.6,73.8,27.1,74.8,27.1z"/><path class="st8" d="M72.5,27c0.6,1.7,0.4,2,0.3,2.2c-0.2,0.3-0.8,0.5-1,0.3c-0.5-0.3,0.2-1.3-0.3-2.4c-0.5-1-1.5-1.3-1.3-1.7	c0.1-0.3,0.8-0.5,1.3-0.4C71.5,25,71.9,25.2,72.5,27z"/><path class="st5" d="M61.1,32.4c0.5-0.2,1-0.8,0.8-1.1c-0.2-0.3-1,0-1.6-0.4c-0.6-0.5-0.7-1.6-0.4-1.7c0.3-0.2,1.2,1.3,1.6,1.1	c0.3-0.2,0.2-1.2-0.1-1.8C61.3,28.1,61,27,60.3,27c-0.3,0-0.6,0.3-1,0.8c-0.4,0.5-0.8,1.1-0.9,2.1c0,0.3,0,0.9,0.4,1.6	C59.3,32.1,60.3,32.7,61.1,32.4z"/><path class="st5" d="M53.6,28.2c0.2,0.5,0.2,1.3-0.2,1.8c-0.4,0.5-1.3,0.9-1.7,0.5c-0.3-0.3-0.3-0.9,0-1.3c0.3-0.4,0.6-0.2,0.9-0.6	c0.3-0.5,0-1.1,0.2-1.2C53,27.3,53.4,27.7,53.6,28.2z"/><path class="st5" d="M62.8,19.6c0.2,0.3,0,1.2-0.5,1.3c-0.6,0.2-1.6-0.6-2.2-1.2c-0.5-0.4-0.7-0.7-1-0.7c-0.5,0.1-0.4,1-1,1.2	c-0.3,0.1-0.7,0-0.9-0.3c-0.2-0.4,0.2-0.9,0.4-1.6c0.6-1.8-0.8-3.1-0.1-4.1c0.4-0.5,1.2-0.8,1.5-0.5c0.5,0.4-0.6,2,0.2,3.1	c0.4,0.6,0.8,0.3,1.4,1c0.6,0.7,0.5,1.2,1,1.5C62.2,19.7,62.6,19.4,62.8,19.6z"/><path class="st5" d="M51.3,24.7c0.5-0.1,0.9-1,0.7-1.8c-0.2-0.7-0.8-1-1.1-1.2c-0.9-0.5-1.9-0.4-2-0.2c-0.1,0.2,1,0.3,1.3,1.1	c0.3,0.7-0.1,1.2,0.4,1.7C50.6,24.4,50.9,24.8,51.3,24.7z"/><path class="st5" d="M52.8,15.1c0.3,0,0.7-0.7,0.8-1.3c0.3-1.6-0.9-3.4-1.6-3.3c-0.3,0.1-0.6,0.7-0.6,1.2c0,0.6,0.4,0.8,0.7,1.6	C52.7,14.4,52.5,15.1,52.8,15.1z"/><path class="st6" d="M43,13.9c0.3,0,0.5-0.7,0.4-1.2c-0.1-0.8-0.8-1.4-1.4-1.6c-0.7-0.2-1.7-0.2-2.1,0.4c-0.3,0.4-0.3,1.1,0,1.3	c0.4,0.2,0.9-0.8,1.6-0.7C42.4,12.2,42.5,14,43,13.9z"/><path class="st6" d="M41.3,20.2c0.4-0.1,0.9-2.1,0-3c-0.4-0.4-1.1-0.6-1.3-0.4c-0.2,0.2,0,0.7,0.3,1.6C40.7,19.4,41,20.3,41.3,20.2z	"/><path class="st6" d="M39.9,24.1c0.6,0,1.2,0.3,1.5,0.8c0.2,0.5-0.1,0.7,0.2,1.3c0.3,0.8,1.3,0.9,1.3,1.4c0,0.4-0.4,0.8-0.8,0.8	c-0.8,0-1.5-1.7-1.5-1.7l0,0c0,0-0.4-0.7-0.7-0.7c-0.4,0-0.5,0.7-0.8,0.7s-0.7-0.7-0.6-1.3C38.5,24.6,39.2,24.1,39.9,24.1z"/><path class="st6" d="M37.8,28.2c1,0.4,1.8-0.4,2.2,0c0.3,0.2,0.3,0.9,0.1,1.3c-0.5,0.8-2.6,0.7-3.2-0.2c-0.3-0.5-0.2-1.2,0.1-1.3	C37.2,27.8,37.4,28.1,37.8,28.2z"/><path class="st6" d="M35.2,22.2c0.3,0,0.6-0.6,0.7-1.2c0.2-0.8-0.2-1.8-0.5-1.8s-0.6,0.9-0.6,1.6C34.9,21.3,35,22.1,35.2,22.2z"/><path class="st6" d="M29.2,20.6c0.4,0.1,1.1,0.1,1.2-0.2c0.1-0.3-0.5-1-1.2-1.1c-0.4-0.1-1,0-1.1,0.3C28,19.9,28.6,20.4,29.2,20.6z"	/><path class="st6" d="M28.4,24.9c0.6-0.2,0.9-1.3,0.4-1.8c-0.2-0.3-0.7-0.4-1-0.2c-0.6,0.3-0.7,1.3-0.2,1.8	C27.7,24.8,28.1,25,28.4,24.9z"/><path class="st6" d="M28.4,29.5c0.4,0.2,0.5,0.5,1.2,0.8c0,0,0.1,0,0.2,0.1c0.9,0.3,1,0.3,1.1,0.4c0.3,0.3,0.2,1.1-0.1,1.2	c-0.3,0.1-0.6-0.6-1.5-0.8c-0.6-0.2-0.9,0.1-1.3-0.2c-0.5-0.3-0.8-1.1-0.5-1.4C27.7,29.3,28.2,29.4,28.4,29.5z"/><path class="st6" d="M22.5,28.7c0.2-0.2-0.2-0.7,0-1.2c0.2-0.5,0.7-0.5,0.7-0.7c-0.1-0.3-0.9-0.1-1.3-0.5c-0.4-0.5,0.1-1.2-0.3-1.5	c-0.3-0.2-0.9-0.1-1.1,0.2c-0.2,0.3,0.1,0.6,0.4,1.9c0.3,1.1,0.3,1.4,0.7,1.7C21.9,28.8,22.3,28.9,22.5,28.7z"/><path class="st5" d="M51.1,50.3c0.2,0.1,1.6-1.1,1.8-2.7c0.2-1.2-0.2-2.6-0.9-2.7c-0.5-0.1-1.2,0.5-1.3,1.2	c-0.1,0.6,0.4,0.8,0.7,1.6C51.8,49,50.9,50.2,51.1,50.3z"/><path class="st5" d="M50.4,43.6c0.4,0.2,0.9-0.1,1.1-0.4c0.3-0.6-0.4-1.7-1-1.6c-0.4,0-0.7,0.5-0.7,1C49.8,42.9,49.9,43.5,50.4,43.6	z"/><path class="st5" d="M46.6,45.4c0.2,0,0.3-0.2,0.6-0.9c0.4-1,0.6-1.4,0.5-1.7c-0.2-0.6-1.1-0.8-1.7-0.9c-0.5-0.1-1.4-0.2-1.5,0.1	c-0.1,0.2,0.7,0.5,1,1.3c0.2,0.7,0,1,0.3,1.6C46,45.1,46.3,45.5,46.6,45.4z"/><path class="st8" d="M52.8,89.5c0.6-0.1,0.8-0.7,1-1c0.3-0.6,0.3-1.4,0-1.6c-0.1-0.1-0.2,0-1.3,1c-0.5,0.5-0.8,0.7-0.8,0.9	C51.6,89.2,52.3,89.6,52.8,89.5z"/><path class="st8" d="M55.5,85.3c0.3,0.8,2.9,1.2,3.6,0.2c0.3-0.4,0.2-1,0-1.3c-0.4-0.7-1.5-0.8-2.2-0.5	C56.1,83.9,55.4,84.7,55.5,85.3z"/><path class="st9" d="M59.4,82.8c0.3,0.3,1.4-0.1,1.5-0.5c0-0.3-0.5-0.8-1-0.7C59.3,81.8,59.2,82.6,59.4,82.8z"/><path class="st8" d="M57.1,81.6c0.3,0.1,0.8-0.2,0.9-0.6c0.2-0.6-0.8-0.9-1.2-2c-0.4-1.1,0.1-1.8-0.4-2.2c-0.4-0.3-1-0.2-1.3-0.2	c-0.9,0.2-1.5,1-1.6,1.8c-0.1,0.8,0.1,1.6,0.4,1.6c0.3,0,0.5-1,1-1c0.2,0,0.3,0.1,0.8,0.9C56.6,81.1,56.7,81.6,57.1,81.6z"/><path class="st8" d="M54.4,82.7c0.5,0.1,1.3-0.9,1.1-1.3c-0.1-0.3-0.7-0.2-0.8-0.2c-0.2,0-0.6,0-0.7,0.3	C53.7,81.9,54,82.6,54.4,82.7z"/><path class="st5" d="M23.5,79.8c0.3,0,0.8-1.7,0.1-2.6c-0.1-0.1-0.4-0.5-0.9-0.4c-0.4,0-0.8,0.5-0.8,0.9c0,0.4,0.6,0.4,1.1,1.1	C23.4,79.4,23.3,79.9,23.5,79.8z"/><path class="st5" d="M24.7,70.6c0.7,0.1,1.4-0.6,1.3-1c-0.1-0.3-0.5-0.4-0.8-0.4c-0.5,0-1.1,0.4-1.1,0.8	C24.1,70.2,24.4,70.5,24.7,70.6z"/><path class="st5" d="M21.8,70.7c0.2-0.4,0.2-1-0.2-1.3c-0.5-0.4-1.2,0.3-2.1-0.1c-0.7-0.3-0.7-1-1-1c-0.3,0.1-0.5,0.8-0.4,1.4	c0,0.1,0.2,0.8,0.8,1.3C19.8,71.7,21.3,71.5,21.8,70.7z"/><path class="st5" d="M16.6,71.5c-0.4-0.4-1.1-0.7-1.6-0.4c-0.5,0.3-0.6,1.1-0.5,1.6c0.1,0.7,0.6,0.9,0.4,1.3	c-0.1,0.4-0.6,0.8-1.1,0.8c-0.6,0-1-0.6-1.1-0.4c-0.2,0.2,0.2,1.6,1.1,1.8c0.8,0.2,1.5-0.8,1.9-1.3C16.3,74.1,17.3,72.4,16.6,71.5z"	/><path class="st5" d="M13.5,70c0.4-0.2,0.4-1.1,0.4-1.3c0-0.2,0-0.8-0.4-1.3c-0.1-0.1-0.4-0.4-0.7-0.4c-0.5,0-0.9,0.9-0.8,1.6	C12.1,69.5,13,70.2,13.5,70z"/></svg>