<?xml version="1.0" encoding="utf-8"?>
<!-- Generator: Adobe Illustrator 26.0.3, SVG Export Plug-In . SVG Version: 6.00 Build 0)  -->
<svg version="1.1" id="Ebene_1" xmlns="http://www.w3.org/2000/svg" xmlns:xlink="http://www.w3.org/1999/xlink" x="0px" y="0px"
	 viewBox="0 0 100 100" style="enable-background:new 0 0 100 100;" xml:space="preserve">
<style type="text/css">
	.st0{fill:#5ABCD8;stroke:#000000;stroke-width:2;stroke-miterlimit:10;}
	.st1{fill:#5ABCD8;}
	.st2{fill:#735E3F;stroke:#000000;stroke-miterlimit:10;}
	.st3{fill:#BAD2B8;stroke:#000000;stroke-miterlimit:10;}
	.st4{fill:#73401F;stroke:#000000;stroke-miterlimit:10;}
	.st5{fill:#B0C573;stroke:#000000;stroke-miterlimit:10;}
	.st6{fill:#203731;stroke:#000000;stroke-miterlimit:10;}
	.st7{fill:#00678F;stroke:#000000;stroke-miterlimit:10;}
	.st8{stroke:#000000;stroke-miterlimit:10;}
	.st9{fill:#D8BB41;stroke:#000000;stroke-miterlimit:10;}
	.st10{fill:#FFFFFF;stroke:#000000;stroke-miterlimit:10;}
	.st11{fill:#B40028;stroke:#000000;stroke-width:0.25;stroke-miterlimit:10;}
	.st12{fill:#2785BD;stroke:#000000;stroke-width:0.25;stroke-miterlimit:10;}
	.st13{fill:#FFFFFF;stroke:#000000;stroke-width:0.25;stroke-miterlimit:10;}
	.st14{fill:#EBB3C9;stroke:#000000;stroke-width:0.25;stroke-miterlimit:10;}
</style>
<g id="Ebene_2_00000106115020321929722670000009173737682671299512_">
</g>
<g id="Ebene_1_00000153672420012526310020000002768640152473526447_">
	<polygon class="st0" points="8,25.4 50,1.2 92,25.5 92,74 50,98.2 8,73.9 	"/>
	<path class="st1" d="M110.9-0.8"/>
</g>
<path class="st2" d="M28.7,45.9c-3.7-1.1-11.3,13.8-13,25.2c-0.2,1.4-0.3,2.6,0,4c1.2,5.4,6.8,7.7,15.4,12.2
	c14.4,7.5,14.6,10.1,18.8,9.6c6.7-0.9,11-7.5,13.8-11.9c3.8-6,6.5-14.2,4.4-15.6c-0.9-0.6-2.1,0.3-4.4,1.2c-4.1,1.4-7.6,0.3-14.6-2
	c-8.7-2.9-13-4.3-15.5-7.3C28,54.6,31.4,46.6,28.7,45.9z"/>
<path class="st3" d="M25.3,42c-4.1-2.1-11.5,3.5-12.3,4.1c-2.2,1.7-3.7,2.9-4.8,5.2C7,54.1,8,54.5,8,61.4c0,5-0.7,7,0.5,10.5
	c0.2,0.6,0.3,1.1,0.7,1.7c2.1,3.5,6.8,5.8,8.4,4.8c1.5-0.9-0.9-3.6-0.6-8.4c0.3-5.2,3.6-9.7,10.1-18.7c1.9-2.6,2.7-3.9,2.3-5.3
	c-0.2-0.6-0.6-1-1.3-1.7C27,43,25.7,42.2,25.3,42z"/>
<path class="st4" d="M16.5,62.6c-0.5,1.2-2.1,5.5-1.6,10.8c0.1,1.1,0.5,6,2.4,6.4c0.9,0.2,1.9-0.7,2.4-1.5c1.7-2.6-1-5.2-1.2-9.2
	c-0.1-3.6,3.3-8.2,10.2-17.5c1.4-1.9,3.3-4.3,2.7-7c-0.4-1.6-1.7-3.3-2.7-3.1c-1.2,0.2-1.5,2.7-2.1,5C24.5,54.4,19.7,54.2,16.5,62.6
	z"/>
<path class="st5" d="M26.4,54.1c-1,0.1-1.2,1.1-3.3,5c-3.7,7-4.6,6.9-4.7,9c-0.1,3.6,2.5,4.8,1.7,8.5c-0.5,2.2-1.5,2.4-1.2,3.6
	c0.6,2.7,5.6,1.9,9.1,5.3c0.4,0.4,1.4,1.5,3,1.7c0.6,0.1,1.5,0.2,1.9-0.2c1.5-1.4-4.2-6.1-3.4-12c0.4-3,2.2-3.8,2.7-8.5
	c0.1-1.1,0.3-2.4,0-4.1C31.5,58.3,28.6,53.8,26.4,54.1z"/>
<path class="st5" d="M68.8,68.8c2-1.2,6.4,0.8,7.6,3.9c1,2.7-0.6,5.6-2.5,8.9c-0.5,0.9-1.4,2.4-3,4.1c-4.8,5.3-12.2,8.1-13.1,6.9
	c-1-1.4,8.4-6,9.8-15.8C68.2,72.7,67.1,69.9,68.8,68.8z"/>
<path class="st5" d="M39.9,26.6c-9.7,3.8-14.6,26-5.6,35.7c2.7,2.9,5.9,3.8,12.3,5.7c6,1.7,15.8,4.6,23.1-0.5c2.5-1.8,3.8-3.9,4.5-5
	c5.8-9.4,4.1-24.9-4.3-30.8c-1.9-1.3-6.9-2.1-16.9-3.8C45.4,26.5,41.5,25.9,39.9,26.6z"/>
<path class="st6" d="M27.1,38.3c1,1.1,8.7-6.4,12.9-3.9c2.7,1.6,2.1,6.3,3.9,6.6c2.3,0.3,3.9-6.6,6.8-6.4c2.8,0.1,4.2,6.9,5.7,6.6
	c1.3-0.3,0.5-6,2.3-6.7c2.1-0.7,5.8,6.4,7.6,5.7c1.6-0.6-0.5-6.6,1.8-8.2c2.8-2,9.6,4.1,10.1,3.4c0.5-0.7-4.5-8.8-13.2-10.9
	c-5.1-1.3-6.1,0.8-16.8,0.8c-7.7,0-8.9-1.1-12.1,0.2C29,28.3,25.8,37,27.1,38.3z"/>
<path class="st7" d="M37.7,24.9c0,1.8,7.6,3.3,12.1,3.6c2.2,0.2,6.5,0.3,11-1.9c1.4-0.7,2.7-1.3,2.7-2.1c-0.1-1.8-7.1-3.1-13-3
	C45,21.7,37.8,23.2,37.7,24.9z"/>
<path class="st6" d="M38.3,40.4c-1.7,0.7-2.2,3.9-1,6c0.5,1,1.8,2.3,3.2,2.1c1.8-0.2,3-2.8,2.6-4.8C42.6,41.5,40,39.8,38.3,40.4z"/>
<path class="st8" d="M72.4,58.4c11,3.8,11.4,3.9,11.4,4.1c-0.2,1.7-14.5,2.2-26-2.6c-1.1-0.5-5-2.1-4.7-3c0.2-0.9,4.3-0.6,7-0.4
	C66.5,56.9,71.4,58.1,72.4,58.4z"/>
<path class="st9" d="M41.4,54c-0.4,1.3,3.7,3.8,6.2,5.3c5.4,3.3,10,4.4,17.8,6.4c1.2,0.3,3.3,0.8,6.1,1c1.9,0.1,3.4,0.2,5.3-0.2
	c3.8-0.8,7.2-3.1,6.9-3.9c-0.3-0.9-5.1,1.1-13.4,0.8c-2.8-0.1-8-0.6-13.3-3.7c-1.5-0.9-3.2-1.9-3-2.5c0.5-2,16.1,0.3,18.2,0.6
	c10.3,1.5,14,3.2,14.8,1.8c1.1-1.9-3.4-8.3-9.2-10.1c-2.1-0.7-3-0.4-5-1.4c-4.1-2.3-4.7-6.2-6.1-6c-1.7,0.3-0.1,6.2-3,9.7
	C58.6,57.9,42.3,51.5,41.4,54z"/>
<path class="st10" d="M60.7,43.8c2,2.6,3.2,3,3,3.7c-0.3,1.1-4,1.8-7.1,0.6c-2.5-1-5.4-3.4-4.9-5.1c0.6-1.9,5.3-2.9,7.4-1.2
	C59.7,42.1,59.6,42.3,60.7,43.8z"/>
<path class="st8" d="M57.1,45.1c-0.1,0.8-1,1.3-1.3,1.2c-0.2-0.1,0-0.8,0.1-1.3c0.1-0.5,0.3-1.1,0.6-1.1
	C56.8,43.9,57.2,44.5,57.1,45.1z"/>
<path class="st11" d="M57.2,59.1c0.4-0.6,6.8,0.5,7.4,0.7c4.1,0.8,8.7,2.1,8.4,2.6c-0.2,0.4-3.8,0-6.5-0.2c-2.1-0.2-3.2-0.3-4.6-0.7
	C59.4,60.7,56.9,59.5,57.2,59.1z"/>
<path class="st10" d="M74,41.6c-1.4,2.5-2.2,2.8-2.1,3.4c0.2,1,2.8,1.7,5,0.5c1.8-0.9,3.8-3.2,3.5-4.8c-0.4-1.8-3.7-2.7-5.3-1.1
	C74.7,40,74.8,40.2,74,41.6z"/>
<path class="st8" d="M76.5,42.8c0.1,0.7,0.7,1.2,0.9,1.1c0.1-0.1,0-0.7-0.1-1.2c-0.1-0.5-0.2-1-0.4-1C76.7,41.7,76.5,42.3,76.5,42.8
	z"/>
<path class="st4" d="M27,102.9"/>
<path class="st3" d="M3.8,26.1"/>
<path class="st12" d="M45.4,23.4c-1.4,0-3,0.9-2.9,1.6c0.1,1.3,5.8,2.1,10.8,1.5c1.8-0.2,5.6-0.9,5.6-1.7c0-0.8-3.9-2.4-7.1-1.3
	c-1.3,0.4-1.9,1.1-3.3,1C47.1,24.4,46.7,23.4,45.4,23.4z"/>
<path class="st13" d="M53.9,23.5c-0.7,0-1.8,0.3-1.9,0.7c0,0.6,2.1,1.6,3.8,1c0.7-0.2,1.4-0.7,1.3-1c0-0.1-0.2-0.2-1.6-0.4
	C54.6,23.5,54.2,23.5,53.9,23.5z"/>
<path class="st14" d="M42.7,23.5c-0.4-0.2-1.4,0.5-1.5,1.3c0,0.9,1.4,1.8,2.3,1.5c0.5-0.2,0.9-0.7,0.8-1C44.2,25,43.5,25.3,43,25
	C42.6,24.5,43,23.7,42.7,23.5z"/>
<path class="st14" d="M49,22.9c-0.9-0.1-2.1,1.1-1.9,2c0.2,1.2,3,1.4,3.1,1.1c0.1-0.3-1.5-1.2-1.3-1.4c0.1-0.2,1.7,0.6,1.9,0.3
	c0.2-0.3-0.5-1.1-0.7-1.2C49.8,23.3,49.5,22.9,49,22.9z"/>
<path class="st14" d="M53.1,27.3c0.1,0.3,2.4,0,3.8-0.2c1.2-0.2,2-0.4,2.1-0.8c0.1-0.5-1-1.3-1.5-1.1c-0.3,0.1-0.2,0.6-0.6,0.9
	c-0.4,0.4-0.9,0.1-1.7,0.2C54.1,26.4,53.1,27,53.1,27.3z"/>
<g>
	<path d="M44.3,19.6c-0.4,0.1-0.9-0.4-1.2-0.8c-0.7-1-0.2-1.6-0.7-3.1c-0.4-1-1-1.6-0.8-1.7c0.1-0.1,0.6,0.6,1.3,0.6
		c1.4,0,2.5-3,2.6-3c0.1,0-0.4,1-0.8,2.4c-0.4,1.4-0.7,2.1-0.4,2.9c0.2,0.7,0.6,0.9,0.6,1.6C44.8,18.7,44.7,19.5,44.3,19.6z"/>
	<path d="M42.6,10.2c1.2,0.8,1.5,0.6,1.7,1.1c0.3,0.6,0,1.4-0.5,1.7c-0.7,0.3-2-0.6-2.3-1.7c-0.2-0.5-0.1-1.3,0.2-1.4
		C41.9,9.7,42.1,9.9,42.6,10.2z"/>
	<path d="M56.5,7.4c-0.1-0.2-0.6-0.4-1-0.3c-0.4,0.1-0.6,0.4-0.7,0.5c-0.9,0.9-2.8-0.4-5.6-0.1c-0.8,0.1-1.3,0.3-2.3,0.2
		c-0.6,0-1.2-0.1-1.8-0.4c-0.9-0.4-1.4-1-1.7-0.8c-0.2,0.1-0.2,0.4-0.2,0.6c0,0.9,0.8,1.8,1.2,1.6c0.2-0.1,0.1-0.4,0.3-0.7
		c0.5-0.5,1.5,0.2,2.9,0.4c1.2,0.1,1.2-0.3,3.4-0.4c1.6-0.1,2.4-0.1,2.8,0.4c0.4,0.5,0,1-0.1,2.9c-0.2,2.2-0.3,3.3,0,4.6
		c0.1,0.6,0.3,1.2,0,1.6c-0.4,0.4-1.2,0.1-1.3,0.3c-0.1,0.3,1.2,1.6,2,1.3c1.4-0.5,1.3-5.6,1.1-7.8c-0.1-0.9-0.3-2.2,0.5-3.2
		C56.1,8,56.5,7.7,56.5,7.4z"/>
	<path d="M51.8,10.1c-1.3-0.7-3.5,0.7-3.7,0.3c-0.1-0.2,0.2-0.4,0.1-0.6c-0.1-0.3-1-0.5-1.4-0.1c-0.5,0.4,0,1.1,0.1,2.8
		c0.1,2.1-0.3,2.9,0.3,3.3c0.5,0.4,1.4,0.3,1.6-0.1c0.1-0.2-0.1-0.4,0-0.7c0.2-0.5,1.6-0.7,1.9-0.2c0.2,0.4-0.2,0.9,0,1.2
		c0.2,0.3,1,0.1,1.5-0.2C53.5,14.7,53.3,10.9,51.8,10.1z M51.4,13.8c-0.2,0.3-0.7-0.1-1.6-0.1c-1.2,0-1.7,0.5-2,0.2
		c-0.2-0.2,0-0.5-0.2-1.5c-0.1-0.7-0.3-0.9-0.2-1.1c0.2-0.3,0.7-0.3,1.6-0.4c1.2,0,1.9-0.1,2.2,0.4c0.2,0.3-0.1,0.4,0,1.2
		C51.3,13.3,51.6,13.6,51.4,13.8z"/>
</g>
<g>
	<g>
		<path d="M55.8,22.1c-0.1,0.2,0.1,0.5,0.3,0.7c0.3,0.2,0.8,0,0.9,0c1-0.3,2.1,0,3.2,0c2.3,0,4.3,0.2,7.4,0.3c3.7,0.1,2-0.1,2.3-0.1
			c0.3,0,0.7,0.1,0.8-0.1c0.1-0.2,0-0.5-0.1-0.6c-0.4-0.4-1.3-0.1-1.7,0c-0.3,0.1-1.7,0.1-4.3,0c-3.7,0-5.5-0.1-6.9-0.3
			C57.1,21.9,56,21.7,55.8,22.1z"/>
		<path d="M62.2,16.1c0.4-0.4,1.2-0.3,1.6,0.1c0.3,0.3,0.1,0.9,0,1.2c-0.6,2.6,0.9,4.4,0,5.1c-0.4,0.4-1.2,0.3-1.6,0
			c-0.5-0.5,0-1.2,0-3C62.3,17.4,61.6,16.6,62.2,16.1z"/>
		<path d="M58.4,15.4c0.4-0.4,1.4-0.4,1.7,0c0.1,0.2,0,0.5-0.2,0.9c-0.6,1.7,0.6,3,0,3.7c-0.4,0.4-1.3,0.4-1.6,0
			c-0.4-0.4,0.1-1,0.1-2.6C58.4,16.2,58.1,15.7,58.4,15.4z"/>
		<path d="M66.7,15.4c0.4-0.4,1.4-0.4,1.7,0c0.1,0.2,0,0.5-0.2,0.9c-0.6,1.7,0.6,3,0,3.7c-0.4,0.4-1.3,0.4-1.6,0
			c-0.4-0.4,0.1-1,0.1-2.6C66.7,16.2,66.3,15.7,66.7,15.4z"/>
		<path d="M57.7,20.7c-0.1,0.2,0.1,0.5,0.2,0.7c0.3,0.2,0.6,0,0.7,0c0.8-0.3,1.6,0,2.4,0c1.7,0,3.2,0.2,5.6,0.3
			c2.8,0.1,1.5-0.1,1.7-0.1c0.2,0,0.5,0.1,0.6-0.1c0.1-0.2,0-0.5-0.1-0.6c-0.3-0.4-1-0.1-1.3,0c-0.2,0.1-1.2,0.1-3.3,0
			c-2.8,0-4.1-0.1-5.2-0.3C58.7,20.5,57.9,20.4,57.7,20.7z"/>
		<path d="M58.4,19.1c-0.1,0.2,0.1,0.5,0.2,0.7c0.2,0.2,0.5,0,0.6,0c0.7-0.4,1.4-0.1,2.1-0.1c1.5-0.1,2.8,0,4.9,0.1
			c2.4,0,1.3-0.2,1.5-0.1c0.2,0,0.4,0.1,0.5-0.1c0.1-0.2,0-0.5-0.1-0.6c-0.3-0.4-0.9-0.1-1.1,0.1C66.9,19,66,19,64.2,19
			c-2.4,0.1-3.6,0.1-4.6-0.1C59.2,18.9,58.5,18.7,58.4,19.1z"/>
		<path d="M58.7,17.5c0,0.2,0.1,0.5,0.2,0.7c0.2,0.2,0.5,0,0.5,0c0.6-0.4,1.3-0.1,1.9-0.1c1.4-0.1,2.6,0.1,4.5,0.1
			c2.2,0,1.2-0.2,1.4-0.1c0.2,0,0.4,0.1,0.5-0.1c0.1-0.2,0-0.5-0.1-0.6c-0.3-0.4-0.8-0.1-1,0.1c-0.2,0.1-1,0.1-2.6,0.2
			c-2.2,0.1-3.3,0.1-4.2-0.1C59.4,17.3,58.8,17.2,58.7,17.5z"/>
		<path d="M58.4,16c0,0.2,0.1,0.5,0.2,0.7c0.2,0.2,0.5,0,0.6,0c0.6-0.4,1.4-0.1,2.1-0.1c1.5-0.1,2.8,0,4.8,0.1
			c2.4,0,1.3-0.2,1.5-0.1c0.2,0,0.4,0.1,0.5-0.1c0.1-0.2,0-0.5-0.1-0.6c-0.3-0.4-0.8-0.1-1.1,0.1c-0.2,0.1-1.1,0.1-2.8,0.2
			c-2.4,0.1-3.6,0.1-4.5-0.1C59.2,15.8,58.5,15.6,58.4,16z"/>
		<path d="M56.5,15c-0.1,0.2,0.1,0.5,0.3,0.7c0.3,0.2,0.7,0,0.8,0c0.9-0.4,1.9-0.1,2.9-0.2c2.1-0.1,3.9,0,6.8,0
			c3.4,0,1.9-0.2,2.1-0.2c0.2,0,0.6,0.1,0.7-0.1c0.1-0.2,0-0.5-0.2-0.6c-0.4-0.4-1.2,0-1.6,0.1c-0.3,0.1-1.5,0.1-4,0.2
			c-3.4,0.1-5,0.2-6.4,0C57.6,14.8,56.6,14.6,56.5,15z"/>
		<path d="M57.2,12.9c-0.1,0.2,0.1,0.5,0.3,0.7c0.3,0.2,0.6,0,0.7,0c0.8-0.4,1.7-0.1,2.6-0.1c1.8-0.1,3.5,0,6,0c3,0,1.6-0.2,1.8-0.2
			c0.1,0,0.5,0,0.6-0.1c0.2-0.2,0.1-0.7-0.1-1c-0.4-0.4-1.1-0.2-1.5-0.1c-0.6,0.1-0.9,0.4-1,0.4c-0.7,0.5-1.9,0.4-4.2,0.3
			c-1.3-0.1-2.5,0-3.8-0.1C58.1,12.7,57.3,12.5,57.2,12.9z"/>
		<path d="M62.5,11.7c0,0.1-0.2,0.3-0.2,0.6c0,0.4,0.4,0.8,0.8,0.9c0.6,0.1,1.2-0.4,1.2-1c0-0.3-0.2-0.7-0.5-0.8
			C63.3,11.1,62.7,11.3,62.5,11.7z"/>
		<path d="M61.3,12.9c-0.2,0.1-0.4,0.3-0.5,0.4c-0.1,0.2,0,0.1,0.1,0.1c0.4-0.1,0.2,0.3,0.3,0.4c0.2,0.3,0.3,0.7,0.5,1.2
			c0.3,0.6,0.3,0.2,0.3,0.3c0,0.1,0,0.1,0.2,0c0.1-0.1,0.4-0.3,0.5-0.4c0.3-0.3-0.1-0.2-0.2-0.2c-0.1,0-0.2-0.2-0.5-0.6
			c-0.3-0.5-0.5-0.8-0.5-1.1C61.6,13,61.6,12.7,61.3,12.9z"/>
	</g>
	<path d="M65.9,13.2c-0.2-0.1-0.5-0.2-0.6-0.3c-0.2-0.1-0.1,0.1-0.1,0.1c0.2,0.3-0.2,0.3-0.2,0.5c-0.2,0.3-0.5,0.5-0.8,0.9
		c-0.4,0.5-0.1,0.3-0.1,0.4c0,0-0.1,0,0,0.2c0.1,0.1,0.4,0.2,0.6,0.3c0.4,0.1,0.2-0.1,0.1-0.3c-0.1-0.1,0.1-0.3,0.3-0.6
		c0.3-0.5,0.5-0.8,0.8-0.9C66,13.5,66.2,13.4,65.9,13.2z"/>
</g>
</svg>
