<?xml version="1.0" encoding="utf-8"?>
<!-- Generator: Adobe Illustrator 26.0.3, SVG Export Plug-In . SVG Version: 6.00 Build 0)  -->
<svg version="1.1" id="Ebene_1" xmlns="http://www.w3.org/2000/svg" xmlns:xlink="http://www.w3.org/1999/xlink" x="0px" y="0px"
	 viewBox="0 0 100 100" style="enable-background:new 0 0 100 100;" xml:space="preserve">
<style type="text/css">
	.st0{fill:#8B8F8E;stroke:#000000;stroke-width:2;stroke-miterlimit:10;}
	.st1{fill:#1B5B0C;stroke:#000000;stroke-width:2;stroke-miterlimit:10;}
	.st2{fill:#336E00;stroke:#000000;stroke-width:0.75;stroke-miterlimit:10;}
</style>
<g id="Ebene_1_00000017510764199299988230000010460311392665681541_">
	<path class="st0" d="M92,25.8L50,1.6L8,25.8v48.5l42,24.3l42-24.2V25.8z"/>
</g>
<path class="st1" d="M64.7,19.1c-8.4,5-3.4,16.8-9.4,27.3c-9.4,16.5-36.6,14.1-36.9,23.7c-0.1,2.2,1.2,4.9,3.2,6.3
	c3,2.2,7,1.3,9.4,0.7c17.1-4.2,25.6-6.3,30.9-10.7c3-2.5,13.6-12,15.3-26.9c0.9-7.4,0-19.6-5.9-21.7C68.4,16.9,65.4,18.7,64.7,19.1z
	"/>
<path class="st2" d="M66.7,18.1c0.3-0.5-5.3-4.5-5.6-4.1c-0.2,0.2,0.9,1.5,1,1.6C63.9,17.6,66.6,18.4,66.7,18.1z"/>
<path class="st2" d="M64.1,24.6c-3.3,1.8-0.4,9.3-2,16.6c-1.6,7.5-7.6,12.1-12.2,15.7c-11.6,8.9-23.7,8.7-23.6,9.9
	c0.2,1.1,10.2,2,19.7-2.7c4.2-2.1,6.9-4.5,8.9-6.3c2.8-2.6,8.6-8.1,11.3-16.9c2-6.5,2.5-15.3-0.2-16.4C65.2,24,64.3,24.5,64.1,24.6z
	"/>
<path class="st2" d="M72.1,33.3c-1,0-0.8,4.4-2.4,9.4c-3.2,10-11.3,15-10.4,16c0.5,0.6,3.7-1.2,5.8-2.8c4.2-3.2,5.9-7.3,7.3-10.7
	c1.6-3.8,1.6-5.8,1.6-6.9C73.8,36.1,72.9,33.3,72.1,33.3z"/>
</svg>
