<?xml version="1.0" encoding="utf-8"?>
<!-- Generator: Adobe Illustrator 26.0.3, SVG Export Plug-In . SVG Version: 6.00 Build 0)  -->
<svg version="1.1" id="Ebene_1" xmlns="http://www.w3.org/2000/svg" xmlns:xlink="http://www.w3.org/1999/xlink" x="0px" y="0px"
	 viewBox="0 0 100 100" style="enable-background:new 0 0 100 100;" xml:space="preserve">
<style type="text/css">
	.st0{fill:#5ABCD8;stroke:#000000;stroke-width:2;stroke-miterlimit:10;}
	.st1{fill:#5ABCD8;stroke:#000000;stroke-width:0.5;stroke-miterlimit:10;}
	.st2{stroke:#000000;stroke-miterlimit:10;}
	.st3{fill:#FFFFFF;stroke:#FFFFFF;stroke-miterlimit:10;}
</style>
<g id="Ebene_1_00000105394206495958893710000000907105606858611385_">
	<g id="Ebene_2_00000037695081456361326870000000537167486581588369_">
	</g>
	<g id="Ebene_1_00000061445211855329728190000003209767103334527892_">
		<polygon class="st0" points="8,25.8 50,1.6 92,25.8 92,74.3 50,98.6 8,74.3 		"/>
	</g>
	<path class="st1" d="M62.1,86.1"/>
</g>
<g>
	<path class="st2" d="M57,15.7c3.7,6.2,3,14.9,0.4,20.2c-7,14.1-29.5,7.3-35.9,20.9c-2.8,5.9-1.7,13.8,2.2,18.8
		c3.9,5.1,9.9,6.3,13.2,7c10.3,2.1,18.8-2,21.8-3.5c3-1.5,15.4-8.2,19.8-23.3c3.7-12.6-0.1-24.6-5.4-32.2
		c-4.2-6.1-9.6-9.5-11.6-10.7c-4-2.5-9.3-4.8-9.9-4C51.2,9.7,54.8,12,57,15.7z"/>
	<circle class="st3" cx="37.5" cy="65.3" r="3.8"/>
</g>
</svg>
