<?xml version="1.0" encoding="utf-8"?>
<!-- Generator: Adobe Illustrator 26.0.3, SVG Export Plug-In . SVG Version: 6.00 Build 0)  -->
<svg version="1.1" id="Ebene_1" xmlns="http://www.w3.org/2000/svg" xmlns:xlink="http://www.w3.org/1999/xlink" x="0px" y="0px"
	 viewBox="0 0 1920 1080" style="enable-background:new 0 0 1920 1080;" xml:space="preserve">
<style type="text/css">
	.st0{fill:#1D1D22;stroke:#FFFFFF;stroke-miterlimit:10;}
	.st1{fill:#FFFFFF;stroke:#FFFFFF;stroke-miterlimit:10;}
	.st2{stroke:#FFFFFF;stroke-miterlimit:10;}
	.st3{fill:#FFC600;}
	.st4{fill:#FFD700;}
	.st5{fill:#E6BE00;}
</style>
<rect class="st0" width="1920" height="1080"/>
<path class="st1" d="M71.8,93.5c37.4-36,71.5-20.9,325.4-26c251.2-5,274.3-20.6,309.4,9c90.1,76-14.7,218.6,13.4,548.8
	c18.1,212.1,73.8,299.7,15.3,359.1c-41.5,42.1-90.6,19.5-316.6,19.6c-249.7,0-289.9,28.7-335.1-12.2C9.7,925,81.9,817.5,77.3,537.3
	C72.9,264.4,1.1,161.7,71.8,93.5z"/>
<g>
	<g id="Ebene_1_00000140009915772017522300000016664586206789009556_">
		<path d="M188.6,776.8l-0.2-35.4L158,724.1l-30.4,18.1l0.3,35.3l30.4,17.2L188.6,776.8z M158.5,792.3l-28.2-16.1l-0.2-32.8l28-16.6
			l28.2,16.1l0.3,32.7L158.5,792.3z"/>
		<path d="M158.1,726.8l-28,16.7l0.2,32.8l28.2,16.1l28.1-16.7l-0.2-32.8L158.1,726.8z M146.9,765.5l-11.1-6.3l0.1-13.2l11.2-6.7
			l11.1,6.3l-0.1,13.2L146.9,765.5z M170.3,779.5l-11.2,6.7l-11.1-6.3l0.1-13.2l11.2-6.7l11.1,6.3L170.3,779.5z M171,765.1
			l-11.1-6.3l0.1-13.2l11.2-6.7l11.2,6.3l-0.1,13.2L171,765.1z"/>
	</g>
	<path d="M163.9,734.1c-1.5-1.4-3.1-1.4-4-3.3c-0.2-0.4-0.4-0.9-0.5-1.1c-0.7-0.6-2.3-0.1-2.7,0.7c-0.7,1-0.4,2.2-0.1,2.5
		c0.6,1.8,2.6,2.8,4.5,3.5c1.1,0.4,3.8,1.7,4.6,0.6C165.6,736.6,164.8,735.1,163.9,734.1z"/>
	<path d="M160.2,739.2c-1.5-1.2-2.8-0.1-4.8-0.9c-0.3-0.1-1-0.7-1.8-1.5c-0.4-1.4,0.4-2.2-0.2-2.9c-0.9-1.2-4.8-0.9-6.5,1.3
		c-0.6,0.7-1.1,2-0.8,2.3c0.5,0.6,2.3-1.1,3.7-0.4c1.1,0.4,0.6,1.8,2.1,3.2c1.4,1.3,3.3,1.8,4.5,1.9c1.8,0.3,4.5-0.1,4.8-0.9
		C161.5,740,160.2,739.2,160.2,739.2z"/>
	<path d="M184.6,760.1c0.1-2.5-0.1-3.3,0.3-5.5s0.7-2.1,1.1-4.1c0.2-2.8-0.3-5.8-0.4-5.9c-0.3-0.1-0.6,0.7-0.8,1.3
		c-0.2,1.6,0.5,2.1,0.4,3.7c0.1,0.9-0.4,1.1-0.9,2.6c-0.3,0.8-0.6,1.8-0.7,4.6c-0.2,3.1-0.1,8.6,0.3,8.5
		C183.9,765.6,184.3,762.5,184.6,760.1z"/>
	<path d="M177.7,767.7c0.6-0.5,1.4,0.5,2.8,0.2c1-0.4,2.1-1.6,2-2.2c-0.2-0.4-0.8-0.3-2.1-0.7c-1.4-0.5-1.1-1.3-1.9-1.6
		c-1.1-0.4-3.1,0.9-4.1,2.6c-0.9,1.6,0.4,2.6-0.3,4.4c-0.5,1.4-1.8,1.8-1.7,2.3c0.1,0.8,4.6-0.4,5.3-2.3
		C177.9,769.1,177.2,768.1,177.7,767.7z"/>
	<path d="M182.8,774.9c1.1-1.2,1.6-1.1,2.2-1.8c0.8-1.3,0.5-3.4-0.4-3.7c-0.6-0.2-0.9,0.6-2.1,1.3c-1,0.4-1.8-0.6-2.3-0.1
		c-0.9,0.4,0.2,2.1-0.4,3.1c-0.8,1.3-3.8-0.1-4.4,1c-0.6,0.7,0.2,2.9,1.6,3.4c1.6,0.9,3.5-0.8,3.9-1
		C181.8,776.5,181.6,776,182.8,774.9z"/>
	<path d="M143.7,766.7c0,0-0.2-0.4-0.9-1c-1.9-1.6-2.3-1.7-2.6-1.6c-0.7,0.1-1.4,0.4-1.2,0.9c-0.2,0.6,0.9,1,0.9,1.2
		c-0.1,0.1-1.8-0.3-2.4,0.4c-0.6,0.5-0.3,1.8,0.1,2.3c1,0.7,2.3-1.1,3.5-0.8c0.7,0.6,0,2.5,0.6,2.7c0.6,0.2,1.2-0.9,1.8-1.7
		C143.7,768.8,144.4,767.8,143.7,766.7z"/>
	<path d="M146,774.8c-0.2-2.1-0.4-3.3-0.9-3.2c-0.6-0.2-0.6,1.8-1.7,2.3c-1.1,0.5-2.6-0.6-3.2-1.1c-1.4-0.8-1.4-1.7-1.9-1.6
		c-0.9,0.1-1.7,1.3-1.7,2.3c0.1,0.9,1.1,1.6,1.1,1.6c1.4,0.8,2.3,0.1,3,0.6c0.2,0.4,0.1,0.8,0.4,1.4c0.3,0.6,0.7,2.6,1.6,2.6
		c1.1,0.4,2.7-1.1,3.1-2.5C146.1,777.2,146.2,776.8,146,774.8z"/>
	<path d="M137.1,763.6c1.2-0.9,1.5-0.7,1.6-1.1c-0.1-0.8-3.1-0.1-4.4-2.2c-0.4-0.9-0.1-0.8-0.6-4.1c-0.2-2.1-0.2-2.9-0.6-2.7
		c-0.6-0.2-1.1,2.1-1.4,4c-0.1,1.2-0.1,2.5,0.1,4.2c0.4,1.4,1.1,1.6,0.7,2.6c-0.2,1.6-1.4,2.1-1,2.9c0.2,0.4,1,0.7,1.8,0.3
		c0.7-0.1,0.6-0.7,1.5-1.8C135.4,765,136,764.4,137.1,763.6z"/>
	<path d="M140,740.4c-0.9-1-3.8-0.1-3.9,1c-0.2,0.6,0.5,1.1,1.4,1.7c0.8,0.3,2.3,0.1,2.8-1C140.6,741.5,140.5,740.9,140,740.4z"/>
	<path d="M133.2,748.2c-0.4-2.5,1.7-3.9,1.1-4.4c-0.2-0.4-1.2-0.1-1.8,0.6c-0.6,0.5-0.7,1-0.8,1.3c-0.3,0.8,0.3,1.3,0.1,2.3
		c0,2-0.6,3-0.4,3.1c0.2,0.4,1.6-0.1,1.9-0.9C133.8,749.5,133.5,749.4,133.2,748.2z"/>
	<path d="M157.8,786.9c-0.2-0.4-0.8-0.3-2.1-0.7c-0.6-0.2-1-0.7-1.6-0.9c-1-0.7-1.2-1.1-1.9-1.6s-2.3-1.5-2.8-1
		c-0.6,0.5-0.2,1.6,0.5,2.1s1.6,0.1,2.6,0.9c0.7,0.6,0.6,0.9,1.8,1.8c0.5,0.6,1.9,1.6,3.1,1.4C157.7,788.4,157.9,787.6,157.8,786.9z
		"/>
	<path d="M167.6,783.3c-0.5-0.6-2,0.1-2.2,0.9c-0.1,0.4-0.3,0.8-0.1,1.2c0.5,0.6,1.8,0.3,2.4-0.4
		C168.3,784.3,168.2,783.5,167.6,783.3z"/>
	<path d="M164.5,787.5c-0.1-0.8-1.5-1.4-2.3-1.5c0,0-1.4,0.3-1.6,1.1c-0.3,0.8,0.3,1.7,1.3,2.1C162.7,789.4,164.6,788.4,164.5,787.5
		z"/>
	<path d="M176.3,779.4c-0.2-0.4-2.3,1.1-3.3,0.1c-0.5-0.6,0.1-2.3-0.1-2.3c-0.1-0.1-0.9,0.4-1.3,1.1c-0.4,1.1,0.1,1.6-0.2,3.1
		c-0.3,0.8-0.4,1.1-0.4,1.1c0.3,0.1,1.2-0.9,3.3-2.4C175.7,780.1,176.5,779.5,176.3,779.4z"/>
	<path d="M177.2,739c-0.9-1-1.8-0.6-3.6-1.6c-1.6-0.9-1.8-1.5-2.6-1.6c-0.7,0.1-1.4,0.4-2.8,1.3c-1.1,0.5-2.9,1.8-2.7,2.3
		s2.2,0.4,4.1-0.6c1.4-0.4,1.6-1.1,2.3-1.1c1.2,0.1,1.7,1.8,3.5,2.8c0.8,0.3,2.2,0.8,2.4,0.1C177.9,740.2,177.7,739.5,177.2,739z"/>
	<path d="M181.9,741.1c0,0-1.4-0.8-2.2-0.4c-0.1,0.4-0.2,0.6-0.3,0.8c0.2,0.4,0.5,0.6,1.6,0.9c2.1,0.7,2.1,0.7,2.2,0.4
		C183.5,742.7,182.9,741.8,181.9,741.1z"/>
	<path d="M135.5,774c-0.3-1.7,1.1-3.2,0.6-3.8c-0.4-0.9-2.3-0.4-3.3,0.5c-0.6,0.5-0.7,1-0.8,2.3c-0.1,1.2-0.4,2.2-0.1,2.8
		c1.3,2.1,5,1.7,5.3,0.9C137.6,776.2,135.8,775.7,135.5,774z"/>
	<path d="M147.7,781.4c-0.2-0.4-1.1,0.5-2.5,0.1c-0.6-0.2-0.8-0.3-2.1-1.1c-1.1-0.4-1.8-0.6-1.8-0.6c-0.4,0.2,2,3.5,4.4,3.1
		C146.7,783,147.7,781.8,147.7,781.4z"/>
	<polygon points="171.2,763.6 181.1,757.7 181.1,746 171,740.4 160.9,746.3 161.1,757.7 	"/>
	<polygon points="146.9,764.2 157,758 156.7,746.4 146.9,740.8 136.9,746.7 136.8,758.2 	"/>
	<polygon points="158.9,784.7 168.9,778.9 169,767.2 159,761.4 148.9,767.5 149,779 	"/>
	<path d="M161.3,748.9c0.9-0.6,2,1.4,3.8,0.9c0.9-0.4,0.6-0.7,2.1-1.6c1.6-1.1,2.7-0.7,3.3-1.3c0.3-0.8-0.3-1.3,0.4-2.2
		c0.6-0.7,1.1-0.5,1.6-1.1c0.6-0.7-0.9-2.3-0.4-2.5c0.1-0.4,0.9-0.1,3.1,1.4c3.2,2,3.3,2.3,3.1,2.7c-0.3,0.8-3.3,0.1-4,2.2
		c-0.1,0.4-0.1,0.4-0.3,0.8c-1.1,2-3.8,1.6-3.8,2.6c-0.3,0.8,1.7,1.8,4.7,4.8c2.1,2,2.6,2.8,2.4,3.3c-0.1,0.4-0.6,0.5-2.5,1.6
		c-1.6,1.1-1.7,1.3-2.1,1.3c-1.1-0.4,0.4-3.8-1.7-6.3c-0.9-1-1.8-1.8-2.3-1.5c-0.4,0.2,0.3,1.3-0.4,2.3c-0.6,0.7-1.4,0.4-1.7,1.3
		c-0.7,1,1.6,3.4,1.2,3.6c-0.1,0.4-1-0.7-2.6-1.6c-1.4-0.8-2.2-0.8-2.3-1.5c-0.2-0.4,0.3-0.8,0.8-1.3c2.1-2.5,3.3-2.8,2.8-3.5
		c-0.1-0.8-1.5-1.2-2.6-0.6c-0.9,0.4-1.2,0.9-1.2,0.9c-0.6,0.5-0.9,0.4-0.9,0.4c-0.3-0.1-0.4-0.9-0.2-2.9
		C161.2,749.2,160.9,749.1,161.3,748.9z"/>
	<path d="M150.1,749.9c-1.6,0.1-3.1,1.8-3.3,2.8c0.3,1.3,3.2,1.1,3.8,2.9c0.5,1.1-0.4,2.2,0.2,2.9c0.9,1,3.1,0.4,3,0.6
		c0.2,0.4-1.2,0.9-3.8,2.6c-1.2,0.9-2,1.1-2.3,1c-0.2-0.4,0.5-1.4,0.2-2.8c-0.4-0.9-0.5-1.1-2.1-2c-0.9-1-2.5-2.1-3.6-3.5
		c-0.6-0.9-1.9-2.6-1.1-4c0.2-0.6,0.9-0.4,1.6-1.1c1.7-1.3,1.6-2.7,2.7-3.2c0.9-0.4,1.4-0.3,3.9,0.4c4.7,1.3,6,1.1,6.5,2.2
		c0.5,0.6,0.4,1,0.4,2.5c0.1,0.9,0.4,3.7-0.5,4C155,755.7,153.3,750.1,150.1,749.9z"/>
	<path d="M160.5,763.1c-0.7,0.1-1.1,1.2-1.1,2s0.6,0.9,0.3,1.7c-0.2,0.6-0.6,0.5-1.1,1.2c-0.6,0.7-0.4,1.1-0.7,1
		c-0.4,0.2-1.8-1.3-2.3-2.8s0.1-2.5,0-2.5c-0.3-0.1-0.9,0.4-2.1,1.3c-1.1,0.5-1.5,0.7-2.1,1.3c-0.6,0.5-0.8,1.3-0.7,2.1
		c0.4,0.9,1.6-0.1,2.6,0.6c0.7,0.6,1.4,1.7,1.4,2.8c0.1,0.9-0.8,2.3-1.6,2.7c-1.6,0.1-2.8-3.5-3.9-3.7c-0.4,0.2-0.5,1.4-0.6,4.3
		c-0.2,3.1,0.4,3.7,0.2,4c0.2,0.4,0.5,0.6,3.1,2.3c2.3,1.5,3.2,2,3.8,1.7c0.4-0.2,0.9-0.4,1-0.9c0.3-0.8-1.1-1.3-0.9-2.3
		c0.2-0.6,1.4-0.4,2.1-1.6c0.1-0.4,0.6-0.7,0.6-1.8c0-1.1-1.1-1.6-0.9-1.9c0.1-0.4,1.4-0.3,2.1,0.7c1.9,1.6,0.4,5.7,1.8,6.7
		c1,0.7,2.7-0.7,3.1-0.9c0.9-0.4,1.6-1.1,1.6-2c0.2-1.6-2.3-2.4-2.1-3.2c0.3-0.8,3,0.6,4.1-0.6c0.4-0.2,0.4-1.1,0.2-2.8
		c0.1-2.5,0.1-2.5,0-2.5c-0.6-0.2-1.1,1.2-1.6,1.1c-0.5-0.1-0.6-0.9-1.4-0.8c-0.6-0.2-0.9,0.4-1.2,0.9c-1.1,0.5-2.8-0.1-3-0.6
		c-0.4-1,1.8-3.3,3.6-3.3c0.4-0.2,1.2,0.1,1.7-0.3c0.4-0.2-0.1-0.9-0.1-0.9c-0.4-0.9-1.4-0.8-3-1.7
		C161.6,763.5,161.4,762.7,160.5,763.1z"/>
</g>
<path d="M142.6,810.3c13.2,5.6-20.4,73.7,2.7,108.4c33.3,50.2,170.4,6,172.1,14.6c1.1,5.7-59.3,27.6-129.3,22.7
	c-46.1-3.3-57.9-15.4-61.4-19.5c-11.3-13-10.8-36.6-8.9-83.6c0.4-11,1.5-26.4,12.4-36.4C132.8,814.1,138.7,808.6,142.6,810.3z"/>
<path d="M285,909.5c0.8,6,35.9-0.7,42.2,12.6c6.8,14.4-26,39-21.7,44.3c3.3,4.1,27.5-4.6,38.4-24.2c2.4-4.4,8.6-15.4,4.4-26.1
	c-5.7-14.6-26.2-17.9-37.7-17.3C297.6,899.5,284.5,905.8,285,909.5z"/>
<path class="st2" d="M192.9,808c8.8-6.3,9.1-8.2,11.8-9c6.3-1.8,15.7,4.9,17.9,12.6c1.4,4.9-2.3,7.4-0.4,11.5
	c2.3,4.9,8.3,3.9,9.5,7.7c1.9,5.6-8.4,15.9-13.4,14.2c-3.8-1.3-3-9.1-8-10.7c-1.9-0.6-3.4,0.1-5,0.6c-10.7,3.2-25.9-3.3-27.2-10.1
	c-0.3-1.4,0-3.2,1.1-4.2c3.3-2.6,12.4,3.8,12.5,3.6c0.1-0.2-9.4-6-18.4-14c-3.6-3.3-6.4-6.2-6-9.5c0.2-1.6,1.3-4,3.2-4.4
	c5.5-1.4,11.3,15.2,18.4,14C189.7,810.3,190.8,809.5,192.9,808z"/>
<path class="st1" d="M264.6,796.3"/>
<path class="st2" d="M293,791.9"/>
<g>
	<g id="Ebene_1_00000144333038049205020770000011587642240696760221_">
		<path class="st3" d="M722.9,934.2l-0.2-35.4l-30.4-17.2l-30.4,18.1l0.3,35.3l30.4,17.2L722.9,934.2z M692.8,949.6l-28.2-16.1
			l-0.2-32.8l28-16.6l28.2,16.1l0.3,32.7L692.8,949.6z"/>
		<path class="st4" d="M692.4,884.1l-28,16.7l0.2,32.8l28.2,16.1l28.1-16.7l-0.2-32.8L692.4,884.1z M681.3,922.8l-11.1-6.3l0.1-13.2
			l11.2-6.7l11.1,6.3l-0.1,13.2L681.3,922.8z M704.6,936.9l-11.2,6.7l-11.1-6.3l0.1-13.2l11.2-6.7l11.1,6.3L704.6,936.9z
			 M705.3,922.5l-11.1-6.3l0.1-13.2l11.2-6.7l11.2,6.3l-0.1,13.2L705.3,922.5z"/>
	</g>
	<path class="st5" d="M698.2,891.4c-1.5-1.4-3.1-1.4-4-3.3c-0.2-0.4-0.4-0.9-0.5-1.1c-0.7-0.6-2.3-0.1-2.7,0.7
		c-0.7,1-0.4,2.2-0.1,2.5c0.6,1.8,2.6,2.8,4.5,3.5c1.1,0.4,3.8,1.7,4.6,0.6C699.9,894,699.1,892.5,698.2,891.4z"/>
	<path class="st5" d="M694.5,896.6c-1.5-1.2-2.8-0.1-4.8-0.9c-0.3-0.1-1-0.7-1.8-1.5c-0.4-1.4,0.4-2.2-0.2-2.9
		c-0.9-1.2-4.8-0.9-6.5,1.3c-0.6,0.7-1.1,2-0.8,2.3c0.5,0.6,2.3-1.1,3.7-0.4c1.1,0.4,0.6,1.8,2.1,3.2c1.4,1.3,3.3,1.8,4.5,1.9
		c1.8,0.3,4.5-0.1,4.8-0.9C695.8,897.4,694.5,896.6,694.5,896.6z"/>
	<path class="st5" d="M718.9,917.4c0.1-2.5-0.1-3.3,0.3-5.5s0.7-2.1,1.1-4.1c0.2-2.8-0.3-5.8-0.4-5.9c-0.3-0.1-0.6,0.7-0.8,1.3
		c-0.2,1.6,0.5,2.1,0.4,3.7c0.1,0.9-0.4,1.1-0.9,2.6c-0.3,0.8-0.6,1.8-0.7,4.6c-0.2,3.1-0.1,8.6,0.3,8.5
		C718.2,923,718.6,919.8,718.9,917.4z"/>
	<path class="st5" d="M712,925.1c0.6-0.5,1.4,0.5,2.8,0.2c1-0.4,2.1-1.6,2-2.2c-0.2-0.4-0.8-0.3-2.1-0.7c-1.4-0.5-1.1-1.3-1.9-1.6
		c-1.1-0.4-3.1,0.9-4.1,2.6c-0.9,1.6,0.4,2.6-0.3,4.4c-0.5,1.4-1.8,1.8-1.7,2.3c0.1,0.8,4.6-0.4,5.3-2.3
		C712.2,926.4,711.5,925.4,712,925.1z"/>
	<path class="st5" d="M717.2,932.2c1.1-1.2,1.6-1.1,2.2-1.8c0.8-1.3,0.5-3.4-0.4-3.7c-0.6-0.2-0.9,0.6-2.1,1.3
		c-1,0.4-1.8-0.6-2.3-0.1c-0.9,0.4,0.2,2.1-0.4,3.1c-0.8,1.3-3.8-0.1-4.4,1c-0.6,0.7,0.2,2.9,1.6,3.4c1.6,0.9,3.5-0.8,3.9-1
		C716.1,933.8,715.9,933.4,717.2,932.2z"/>
	<path class="st5" d="M678,924c0,0-0.2-0.4-0.9-1c-1.9-1.6-2.3-1.7-2.6-1.6c-0.7,0.1-1.4,0.4-1.2,0.9c-0.2,0.6,0.9,1,0.9,1.2
		c-0.1,0.1-1.8-0.3-2.4,0.4c-0.6,0.5-0.3,1.8,0.1,2.3c1,0.7,2.3-1.1,3.5-0.8c0.7,0.6,0,2.5,0.6,2.7c0.6,0.2,1.2-0.9,1.8-1.7
		C678,926.1,678.7,925.2,678,924z"/>
	<path class="st5" d="M680.3,932.1c-0.2-2.1-0.4-3.3-0.9-3.2c-0.6-0.2-0.6,1.8-1.7,2.3c-1.1,0.5-2.6-0.6-3.2-1.1
		c-1.4-0.8-1.4-1.7-1.9-1.6c-0.9,0.1-1.7,1.3-1.7,2.3c0.1,0.9,1.1,1.6,1.1,1.6c1.4,0.8,2.3,0.1,3,0.6c0.2,0.4,0.1,0.8,0.4,1.4
		c0.3,0.6,0.7,2.6,1.6,2.6c1.1,0.4,2.7-1.1,3.1-2.5C680.4,934.5,680.5,934.2,680.3,932.1z"/>
	<path class="st5" d="M671.4,920.9c1.2-0.9,1.5-0.7,1.6-1.1c-0.1-0.8-3.1-0.1-4.4-2.2c-0.4-0.9-0.1-0.8-0.6-4.1
		c-0.2-2.1-0.2-2.9-0.6-2.7c-0.6-0.2-1.1,2.1-1.4,4c-0.1,1.2-0.1,2.5,0.1,4.2c0.4,1.4,1.1,1.6,0.7,2.6c-0.2,1.6-1.4,2.1-1,2.9
		c0.2,0.4,1,0.7,1.8,0.3c0.7-0.1,0.6-0.7,1.5-1.8C669.7,922.4,670.3,921.8,671.4,920.9z"/>
	<path class="st5" d="M674.3,897.7c-0.9-1-3.8-0.1-3.9,1c-0.2,0.6,0.5,1.1,1.4,1.7c0.8,0.3,2.3,0.1,2.8-1
		C674.9,898.9,674.8,898.2,674.3,897.7z"/>
	<path class="st5" d="M667.5,905.6c-0.4-2.5,1.7-3.9,1.1-4.4c-0.2-0.4-1.2-0.1-1.8,0.6c-0.6,0.5-0.7,1-0.8,1.3
		c-0.3,0.8,0.3,1.3,0.1,2.3c0,2-0.6,3-0.4,3.1c0.2,0.4,1.6-0.1,1.9-0.9C668.1,906.9,667.8,906.7,667.5,905.6z"/>
	<path class="st5" d="M692.1,944.2c-0.2-0.4-0.8-0.3-2.1-0.7c-0.6-0.2-1-0.7-1.6-0.9c-1-0.7-1.2-1.1-1.9-1.6s-2.3-1.5-2.8-1
		c-0.6,0.5-0.2,1.6,0.5,2.1c0.7,0.6,1.6,0.1,2.6,0.9c0.7,0.6,0.6,0.9,1.8,1.8c0.5,0.6,1.9,1.6,3.1,1.4
		C692,945.8,692.2,944.9,692.1,944.2z"/>
	<path class="st5" d="M701.9,940.6c-0.5-0.6-2,0.1-2.2,0.9c-0.1,0.4-0.3,0.8-0.1,1.2c0.5,0.6,1.8,0.3,2.4-0.4
		C702.6,941.7,702.5,940.8,701.9,940.6z"/>
	<path class="st5" d="M698.8,944.9c-0.1-0.8-1.5-1.4-2.3-1.5c0,0-1.4,0.3-1.6,1.1s0.3,1.7,1.3,2.1
		C697,946.8,698.9,945.8,698.8,944.9z"/>
	<path class="st5" d="M710.6,936.8c-0.2-0.4-2.3,1.1-3.3,0.1c-0.5-0.6,0.1-2.3-0.1-2.3c-0.1-0.1-0.9,0.4-1.3,1.1
		c-0.4,1.1,0.1,1.6-0.2,3.1c-0.3,0.8-0.4,1.1-0.4,1.1c0.3,0.1,1.2-0.9,3.3-2.4C710,937.5,710.8,936.9,710.6,936.8z"/>
	<path class="st5" d="M711.5,896.3c-0.9-1-1.8-0.6-3.6-1.6c-1.6-0.9-1.8-1.5-2.6-1.6c-0.7,0.1-1.4,0.4-2.8,1.3
		c-1.1,0.5-2.9,1.8-2.7,2.3c0.2,0.4,2.2,0.4,4.1-0.6c1.4-0.4,1.6-1.1,2.3-1.1c1.2,0.1,1.7,1.8,3.5,2.8c0.8,0.3,2.2,0.8,2.4,0.1
		C712.2,897.5,712,896.9,711.5,896.3z"/>
	<path class="st5" d="M716.2,898.4c0,0-1.4-0.8-2.2-0.4c-0.1,0.4-0.2,0.6-0.3,0.8c0.2,0.4,0.5,0.6,1.6,0.9c2.1,0.7,2.1,0.7,2.2,0.4
		C717.8,900.1,717.2,899.1,716.2,898.4z"/>
	<path class="st5" d="M669.8,931.4c-0.3-1.7,1.1-3.2,0.6-3.8c-0.4-0.9-2.3-0.4-3.3,0.5c-0.6,0.5-0.7,1-0.8,2.3
		c-0.1,1.2-0.4,2.2-0.1,2.8c1.3,2.1,5,1.7,5.3,0.9C671.9,933.5,670.1,933.1,669.8,931.4z"/>
	<path class="st5" d="M682,938.8c-0.2-0.4-1.1,0.5-2.5,0.1c-0.6-0.2-0.8-0.3-2.1-1.1c-1.1-0.4-1.8-0.6-1.8-0.6
		c-0.4,0.2,2,3.5,4.4,3.1C681,940.4,682,939.1,682,938.8z"/>
	<polygon class="st3" points="705.5,920.9 715.4,915 715.4,903.4 705.3,897.8 695.3,903.7 695.4,915.1 	"/>
	<polygon class="st3" points="681.2,921.5 691.3,915.3 691,903.7 681.3,898.1 671.2,904 671.2,915.6 	"/>
	<polygon class="st3" points="693.2,942.1 703.2,936.2 703.3,924.6 693.3,918.7 683.2,924.9 683.3,936.4 	"/>
	<path class="st4" d="M695.6,906.2c0.9-0.6,2,1.4,3.8,0.9c0.9-0.4,0.6-0.7,2.1-1.6c1.6-1.1,2.7-0.7,3.3-1.3c0.3-0.8-0.3-1.3,0.4-2.2
		c0.6-0.7,1.1-0.5,1.6-1.1c0.6-0.7-0.9-2.3-0.4-2.5c0.1-0.4,0.9-0.1,3.1,1.4c3.2,2,3.3,2.3,3.1,2.7c-0.3,0.8-3.3,0.1-4,2.2
		c-0.1,0.4-0.1,0.4-0.3,0.8c-1.1,2-3.8,1.6-3.8,2.6c-0.3,0.8,1.7,1.8,4.7,4.8c2.1,2,2.6,2.8,2.4,3.3c-0.1,0.4-0.6,0.5-2.5,1.6
		c-1.6,1.1-1.7,1.3-2.1,1.3c-1.1-0.4,0.4-3.8-1.7-6.3c-0.9-1-1.8-1.8-2.3-1.5c-0.4,0.2,0.3,1.3-0.4,2.3c-0.6,0.7-1.4,0.4-1.7,1.3
		c-0.7,1,1.6,3.4,1.2,3.6c-0.1,0.4-1-0.7-2.6-1.6c-1.4-0.8-2.2-0.8-2.3-1.5c-0.2-0.4,0.3-0.8,0.8-1.3c2.1-2.5,3.3-2.8,2.8-3.5
		c-0.1-0.8-1.5-1.2-2.6-0.6c-0.9,0.4-1.2,0.9-1.2,0.9c-0.6,0.5-0.9,0.4-0.9,0.4c-0.3-0.1-0.4-0.9-0.2-2.9
		C695.5,906.6,695.2,906.4,695.6,906.2z"/>
	<path class="st4" d="M684.4,907.3c-1.6,0.1-3.1,1.8-3.3,2.8c0.3,1.3,3.2,1.1,3.8,2.9c0.5,1.1-0.4,2.2,0.2,2.9c0.9,1,3.1,0.4,3,0.6
		c0.2,0.4-1.2,0.9-3.8,2.6c-1.2,0.9-2,1.1-2.3,1c-0.2-0.4,0.5-1.4,0.2-2.8c-0.4-0.9-0.5-1.1-2.1-2c-0.9-1-2.5-2.1-3.6-3.5
		c-0.6-0.9-1.9-2.6-1.1-4c0.2-0.6,0.9-0.4,1.6-1.1c1.7-1.3,1.6-2.7,2.7-3.2c0.9-0.4,1.4-0.3,3.9,0.4c4.7,1.3,6,1.1,6.5,2.2
		c0.5,0.6,0.4,1,0.4,2.5c0.1,0.9,0.4,3.7-0.5,4C689.4,913,687.6,907.4,684.4,907.3z"/>
	<path class="st4" d="M694.8,920.5c-0.7,0.1-1.1,1.2-1.1,2c0.1,0.8,0.6,0.9,0.3,1.7c-0.2,0.6-0.6,0.5-1.1,1.2
		c-0.6,0.7-0.4,1.1-0.7,1c-0.4,0.2-1.8-1.3-2.3-2.8c-0.4-1.4,0.1-2.5,0-2.5c-0.3-0.1-0.9,0.4-2.1,1.3c-1.1,0.5-1.5,0.7-2.1,1.3
		c-0.6,0.5-0.8,1.3-0.7,2.1c0.4,0.9,1.6-0.1,2.6,0.6c0.7,0.6,1.4,1.7,1.4,2.8c0.1,0.9-0.8,2.3-1.6,2.7c-1.6,0.1-2.8-3.5-3.9-3.7
		c-0.4,0.2-0.5,1.4-0.6,4.3c-0.2,3.1,0.4,3.7,0.2,4c0.2,0.4,0.5,0.6,3.1,2.3c2.3,1.5,3.2,2,3.8,1.7c0.4-0.2,0.9-0.4,1-0.9
		c0.3-0.8-1.1-1.3-0.9-2.3c0.2-0.6,1.4-0.4,2.1-1.6c0.1-0.4,0.6-0.7,0.6-1.8c0-1.1-1.1-1.6-0.9-1.9c0.1-0.4,1.4-0.3,2.1,0.7
		c1.9,1.6,0.4,5.7,1.8,6.7c1,0.7,2.7-0.7,3.1-0.9c0.9-0.4,1.6-1.1,1.6-2c0.2-1.6-2.3-2.4-2.1-3.2s3,0.6,4.1-0.6
		c0.4-0.2,0.4-1.1,0.2-2.8c0.1-2.5,0.1-2.5,0-2.5c-0.6-0.2-1.1,1.2-1.6,1.1c-0.5-0.1-0.6-0.9-1.4-0.8c-0.6-0.2-0.9,0.4-1.2,0.9
		c-1.1,0.5-2.8-0.1-3-0.6c-0.4-1,1.8-3.3,3.6-3.3c0.4-0.2,1.2,0.1,1.7-0.3c0.4-0.2-0.1-0.9-0.1-0.9c-0.4-0.9-1.4-0.8-3-1.7
		C695.9,920.8,695.7,920.1,694.8,920.5z"/>
</g>
<path d="M-116,540"/>
</svg>
