<?xml version="1.0" encoding="utf-8"?>
<!-- Generator: Adobe Illustrator 26.0.3, SVG Export Plug-In . SVG Version: 6.00 Build 0)  -->
<svg version="1.1" id="Ebene_1" xmlns="http://www.w3.org/2000/svg" xmlns:xlink="http://www.w3.org/1999/xlink" x="0px" y="0px"
	 viewBox="0 0 100 100" style="enable-background:new 0 0 100 100;" xml:space="preserve">
<style type="text/css">
	.st0{fill:#FFC600;}
	.st1{fill:#FFD700;}
	.st2{fill:#E6BE00;}
</style>
<g id="Ebene_2_00000093860788734264317370000010671531211922489223_">
</g>
<g>
	<g id="Ebene_1_00000140009915772017522300000016664586206789009556_">
		<path class="st0" d="M92.9,74.5l-0.3-50L49.8,0.2L7.1,25.7l0.4,49.8l42.8,24.3L92.9,74.5z M50.5,96.3L10.9,73.6l-0.3-46.3L50,3.9
			l39.6,22.7L90,72.8L50.5,96.3z"/>
		<path class="st1" d="M50,3.9L10.6,27.4l0.3,46.3l39.6,22.7L90,72.8l-0.3-46.3L50,3.9z M34.3,58.5l-15.6-8.9L18.8,31l15.7-9.5
			l15.6,8.9L50,49L34.3,58.5z M67.1,78.3l-15.7,9.5l-15.6-8.9l0.1-18.6l15.7-9.5l15.6,8.9L67.1,78.3z M68.1,58l-15.6-8.9l0.1-18.6
			L68.3,21L84,29.9l-0.1,18.6L68.1,58z"/>
	</g>
	<path class="st2" d="M58.2,14.2c-2.1-2-4.3-2-5.6-4.7C52.3,8.9,52,8.3,51.9,8c-1-0.8-3.2-0.1-3.8,1c-1,1.4-0.6,3.1-0.2,3.5
		c0.9,2.6,3.6,4,6.3,4.9c1.6,0.5,5.4,2.4,6.4,0.9C60.5,17.8,59.4,15.7,58.2,14.2z"/>
	<path class="st2" d="M53,21.5c-2.1-1.7-4-0.1-6.8-1.3c-0.4-0.2-1.4-1-2.5-2.1c-0.6-2,0.6-3.1-0.3-4.1c-1.2-1.7-6.8-1.3-9.1,1.9
		c-0.8,1-1.5,2.8-1.1,3.2c0.7,0.8,3.3-1.6,5.2-0.5c1.6,0.5,0.9,2.6,2.9,4.5s4.6,2.6,6.3,2.7c2.6,0.4,6.3-0.1,6.7-1.2
		C54.8,22.6,53,21.5,53,21.5z"/>
	<path class="st2" d="M87.2,50.9c0.2-3.5-0.2-4.6,0.4-7.7c0.6-3.1,1-2.9,1.5-5.8c0.3-3.9-0.4-8.2-0.6-8.3c-0.4-0.2-0.8,1-1.1,1.9
		c-0.3,2.2,0.7,3,0.5,5.2c0.1,1.3-0.5,1.6-1.2,3.6c-0.4,1.1-0.9,2.5-1,6.5c-0.3,4.4-0.1,12.1,0.4,12C86.3,58.7,86.8,54.3,87.2,50.9z
		"/>
	<path class="st2" d="M77.6,61.7c0.8-0.7,2,0.7,3.9,0.3c1.4-0.5,3-2.2,2.8-3.1c-0.3-0.6-1.1-0.4-2.9-1c-2-0.7-1.6-1.8-2.7-2.2
		c-1.6-0.5-4.4,1.3-5.7,3.6c-1.3,2.3,0.5,3.7-0.4,6.2c-0.7,2-2.6,2.6-2.4,3.2c0.1,1.1,6.4-0.6,7.4-3.3
		C77.9,63.6,76.9,62.2,77.6,61.7z"/>
	<path class="st2" d="M84.8,71.8c1.6-1.7,2.3-1.5,3.1-2.5c1.1-1.9,0.7-4.8-0.5-5.2c-0.9-0.3-1.3,0.8-2.9,1.8
		c-1.4,0.5-2.5-0.8-3.2-0.1c-1.2,0.6,0.3,2.9-0.5,4.4c-1.1,1.9-5.4-0.1-6.2,1.4c-0.8,1,0.3,4.1,2.3,4.8c2.3,1.3,4.9-1.1,5.5-1.4
		C83.3,74,83,73.4,84.8,71.8z"/>
	<path class="st2" d="M29.7,60.2c0,0-0.3-0.6-1.3-1.4c-2.7-2.2-3.2-2.4-3.7-2.3c-1,0.1-1.9,0.6-1.7,1.2c-0.3,0.9,1.3,1.4,1.2,1.7
		c-0.1,0.2-2.6-0.4-3.4,0.6c-0.8,0.7-0.4,2.6,0.1,3.3c1.4,1,3.3-1.6,4.9-1.1c1,0.8,0,3.5,0.9,3.8c0.9,0.3,1.7-1.2,2.6-2.4
		C29.7,63.2,30.7,61.8,29.7,60.2z"/>
	<path class="st2" d="M33,71.6c-0.3-2.9-0.6-4.7-1.2-4.5c-0.9-0.3-0.9,2.5-2.4,3.2s-3.7-0.8-4.5-1.5c-1.9-1.1-1.9-2.4-2.7-2.2
		c-1.3,0.1-2.4,1.9-2.4,3.2c0.1,1.3,1.5,2.3,1.5,2.3c1.9,1.1,3.2,0.1,4.2,0.9c0.3,0.6,0.1,1.1,0.6,2c0.4,0.9,1,3.6,2.3,3.6
		c1.6,0.5,3.8-1.5,4.4-3.5C33.1,75,33.3,74.5,33,71.6z"/>
	<path class="st2" d="M20.5,55.8c1.7-1.2,2.1-1,2.3-1.5c-0.1-1.1-4.4-0.2-6.2-3.1c-0.6-1.2-0.1-1.1-0.8-5.8
		c-0.3-2.9-0.3-4.1-0.9-3.8c-0.9-0.3-1.5,3-1.9,5.6c-0.1,1.7-0.2,3.5,0.2,5.9c0.6,2,1.5,2.3,1,3.6c-0.3,2.2-2,2.9-1.4,4.1
		c0.3,0.6,1.4,1,2.6,0.4c1-0.1,0.8-1,2.1-2.6C18,57.9,18.9,57,20.5,55.8z"/>
	<path class="st2" d="M24.5,23.1c-1.3-1.4-5.4-0.1-5.5,1.4c-0.3,0.9,0.7,1.5,1.9,2.4c1.1,0.4,3.2,0.1,4-1.4
		C25.4,24.7,25.2,23.8,24.5,23.1z"/>
	<path class="st2" d="M15,34.2c-0.6-3.5,2.4-5.5,1.6-6.2c-0.3-0.6-1.7-0.1-2.5,0.9c-0.8,0.7-1,1.4-1.1,1.9c-0.4,1.1,0.4,1.9,0.1,3.3
		c0,2.8-0.9,4.2-0.5,4.4c0.3,0.6,2.3-0.2,2.7-1.3C15.8,36,15.4,35.8,15,34.2z"/>
	<path class="st2" d="M49.6,88.7c-0.3-0.6-1.1-0.4-2.9-1c-0.9-0.3-1.4-1-2.3-1.3c-1.4-1-1.7-1.6-2.7-2.2c-1-0.6-3.3-2.1-4-1.4
		c-0.8,0.7-0.3,2.2,0.7,3c1,0.8,2.2,0.2,3.6,1.2c1,0.8,0.8,1.3,2.6,2.6c0.7,0.8,2.7,2.2,4.3,2C49.4,90.9,49.7,89.7,49.6,88.7z"/>
	<path class="st2" d="M63.3,83.6c-0.7-0.8-2.8,0.1-3.1,1.2c-0.2,0.5-0.4,1.1-0.1,1.7c0.7,0.8,2.6,0.4,3.4-0.6
		C64.3,85.1,64.2,83.9,63.3,83.6z"/>
	<path class="st2" d="M59,89.6c-0.1-1.1-2.1-2-3.3-2.1c0,0-1.9,0.4-2.3,1.5c-0.4,1.1,0.4,2.4,1.8,2.9C56.4,92.3,59.1,90.9,59,89.6z"
		/>
	<path class="st2" d="M75.6,78.2c-0.3-0.6-3.3,1.6-4.6,0.2c-0.7-0.8,0.1-3.2-0.1-3.3s-1.2,0.6-1.8,1.6c-0.5,1.6,0.2,2.3-0.3,4.4
		c-0.4,1.1-0.5,1.6-0.5,1.6c0.4,0.2,1.7-1.2,4.7-3.4C74.8,79.2,75.9,78.3,75.6,78.2z"/>
	<path class="st2" d="M76.8,21.1c-1.3-1.4-2.5-0.8-5-2.2c-2.3-1.3-2.5-2.1-3.7-2.3c-1,0.1-1.9,0.6-3.9,1.9c-1.5,0.7-4.1,2.6-3.8,3.2
		c0.3,0.6,3.1,0.5,5.8-0.8c1.9-0.6,2.3-1.5,3.3-1.6c1.7,0.1,2.4,2.6,4.9,3.9c1.1,0.4,3.1,1.1,3.4,0.2C77.9,22.8,77.5,21.9,76.8,21.1
		z"/>
	<path class="st2" d="M83.5,24.1c0,0-1.9-1.1-3.1-0.5c-0.2,0.5-0.3,0.9-0.4,1.1c0.3,0.6,0.7,0.8,2.3,1.3c2.9,1,2.9,1,3.1,0.5
		C85.7,26.4,84.9,25.1,83.5,24.1z"/>
	<path class="st2" d="M18.2,70.6c-0.4-2.4,1.5-4.5,0.8-5.3c-0.6-1.2-3.3-0.6-4.7,0.7c-0.8,0.7-1,1.4-1.1,3.2c-0.1,1.7-0.6,3.1-0.1,4
		c1.8,2.9,7.1,2.4,7.5,1.3C21.1,73.6,18.6,73,18.2,70.6z"/>
	<path class="st2" d="M35.3,81c-0.3-0.6-1.5,0.7-3.5,0.1c-0.9-0.3-1.1-0.4-3-1.5c-1.6-0.5-2.5-0.8-2.5-0.8c-0.6,0.3,2.8,5,6.2,4.4
		C34,83.3,35.4,81.5,35.3,81z"/>
	<polygon class="st0" points="68.4,55.8 82.4,47.5 82.3,31.1 68.1,23.2 54,31.5 54.2,47.6 	"/>
	<polygon class="st0" points="34.2,56.7 48.4,47.9 48,31.6 34.3,23.7 20.2,32 20.1,48.3 	"/>
	<polygon class="st0" points="51.1,85.7 65.2,77.4 65.3,61 51.2,52.7 37,61.4 37.2,77.6 	"/>
	<path class="st1" d="M54.5,35.1c1.3-0.8,2.8,2,5.3,1.3c1.2-0.6,0.8-1,3-2.2c2.3-1.5,3.8-1,4.7-1.9c0.4-1.1-0.4-1.9,0.6-3.1
		c0.8-1,1.5-0.7,2.3-1.5c0.8-1-1.2-3.2-0.6-3.5c0.2-0.5,1.3-0.1,4.3,2c4.5,2.8,4.6,3.3,4.4,3.8c-0.4,1.1-4.6,0.2-5.6,3.1
		c-0.2,0.5-0.2,0.5-0.4,1.1c-1.5,2.8-5.3,2.2-5.3,3.7c-0.4,1.1,2.4,2.6,6.6,6.8c3,2.8,3.6,4,3.4,4.7c-0.2,0.5-0.8,0.7-3.5,2.3
		c-2.3,1.5-2.4,1.9-2.9,1.8c-1.6-0.5,0.6-5.3-2.4-8.9c-1.3-1.4-2.6-2.6-3.3-2.1c-0.6,0.3,0.4,1.9-0.6,3.3c-0.8,1-1.9,0.6-2.4,1.9
		c-1,1.4,2.3,4.8,1.7,5.1c-0.2,0.5-1.4-1-3.7-2.3c-1.9-1.1-3.1-1.1-3.3-2.1c-0.3-0.6,0.4-1.1,1.1-1.9c3-3.5,4.6-4,3.9-5
		c-0.1-1.1-2.1-1.7-3.7-0.8c-1.2,0.6-1.7,1.2-1.7,1.2c-0.8,0.7-1.2,0.6-1.2,0.6c-0.4-0.2-0.6-1.2-0.3-4.1
		C54.4,35.6,53.9,35.4,54.5,35.1z"/>
	<path class="st1" d="M38.8,36.6c-2.3,0.2-4.4,2.5-4.6,4c0.4,1.9,4.5,1.5,5.3,4.1c0.7,1.5-0.6,3.1,0.3,4.1c1.3,1.4,4.3,0.5,4.2,0.9
		c0.3,0.6-1.7,1.2-5.3,3.7c-1.7,1.2-2.8,1.6-3.2,1.4c-0.3-0.6,0.7-2,0.3-3.9c-0.6-1.2-0.7-1.5-3-2.8c-1.3-1.4-3.5-3-5-5
		c-0.8-1.3-2.7-3.7-1.6-5.6c0.3-0.9,1.2-0.6,2.3-1.5c2.4-1.9,2.3-3.8,3.8-4.5c1.2-0.6,1.9-0.4,5.5,0.6c6.6,1.8,8.4,1.6,9.1,3.1
		c0.7,0.8,0.5,1.4,0.6,3.5c0.1,1.3,0.5,5.2-0.7,5.6C45.7,44.7,43.2,36.8,38.8,36.6z"/>
	<path class="st1" d="M53.4,55.2c-1,0.1-1.6,1.7-1.5,2.8c0.1,1.1,0.8,1.3,0.4,2.4c-0.3,0.9-0.8,0.7-1.6,1.7c-0.8,1-0.5,1.6-1,1.4
		c-0.6,0.3-2.6-1.9-3.2-3.9c-0.6-2,0.2-3.5,0-3.5c-0.4-0.2-1.2,0.6-2.9,1.8c-1.5,0.7-2.1,1-2.9,1.8c-0.8,0.7-1.1,1.9-1,2.9
		c0.6,1.2,2.3-0.2,3.7,0.8c1,0.8,1.9,2.4,1.9,3.9c0.1,1.3-1.1,3.2-2.3,3.8c-2.3,0.2-4-4.9-5.5-5.2c-0.6,0.3-0.7,2-0.8,6
		c-0.3,4.4,0.5,5.2,0.3,5.7c0.3,0.6,0.7,0.8,4.4,3.3c3.3,2.1,4.5,2.8,5.4,2.4c0.6-0.3,1.2-0.6,1.4-1.3c0.4-1.1-1.6-1.8-1.2-3.2
		c0.3-0.9,1.9-0.6,3-2.2c0.2-0.5,0.8-1,0.9-2.5c0-1.5-1.5-2.3-1.3-2.7c0.2-0.5,1.9-0.4,2.9,1c2.7,2.2,0.5,8,2.5,9.4
		c1.4,1,3.8-1,4.4-1.3c1.2-0.6,2.3-1.5,2.2-2.8c0.3-2.2-3.3-3.4-2.9-4.5c0.4-1.1,4.2,0.9,5.8-0.8c0.6-0.3,0.5-1.6,0.3-3.9
		c0.2-3.5,0.2-3.5,0-3.5c-0.9-0.3-1.6,1.7-2.3,1.5c-0.7-0.2-0.8-1.3-1.9-1.1c-0.9-0.3-1.2,0.6-1.7,1.2c-1.5,0.7-4-0.1-4.2-0.9
		c-0.5-1.4,2.6-4.7,5.1-4.6c0.6-0.3,1.7,0.1,2.4-0.4c0.6-0.3-0.1-1.3-0.1-1.3c-0.6-1.2-1.9-1.1-4.2-2.4
		C54.9,55.7,54.6,54.6,53.4,55.2z"/>
</g>
</svg>
