<?xml version="1.0" encoding="utf-8"?>
<!-- Generator: Adobe Illustrator 26.0.3, SVG Export Plug-In . SVG Version: 6.00 Build 0)  -->
<svg version="1.1" id="Ebene_2_00000126308112139821010380000011903406711838980787_"
	 xmlns="http://www.w3.org/2000/svg" xmlns:xlink="http://www.w3.org/1999/xlink" x="0px" y="0px" viewBox="0 0 100 100"
	 style="enable-background:new 0 0 100 100;" xml:space="preserve">
<style type="text/css">
	.st0{fill:#603726;stroke:#000000;stroke-width:2;stroke-miterlimit:10;}
	.st1{fill:#804122;stroke:#000000;stroke-miterlimit:10;}
	.st2{fill:#493127;stroke:#000000;stroke-width:0.5;stroke-miterlimit:10;}
	.st3{fill:#5D4135;stroke:#000000;stroke-width:0.25;stroke-miterlimit:10;}
	.st4{fill:#5D4135;stroke:#000000;stroke-width:0.5;stroke-miterlimit:10;}
	.st5{fill:#493127;stroke:#000000;stroke-width:0.25;stroke-miterlimit:10;}
	.st6{fill:none;stroke:#000000;stroke-width:0.25;stroke-miterlimit:10;}
</style>
<polygon class="st0" points="7.6,74.2 49.6,98.5 91.6,74.2 91.6,25.7 49.6,1.5 7.6,25.7 "/>
<path class="st1" d="M34.2,10.4c-6.9,3.7-10.4,5.5-10.5,6.9c-0.6,5.1,23.5,9.4,23,13.3c-0.5,3.7-21.9,2.7-23.7,2.2
	c-0.3-0.1-1.5-0.5-3.2-0.7c-4-0.5-8.6-1.1-11,1.2c-1.6,1.5-1.3,3.4-1.3,10.9c0,12-0.5,15.2,1,15.8c1.5,0.6,2.8-2.4,7.6-6.2
	c2.1-1.7,10.5-8.5,20.2-7.5c1.9,0.2,1,0.4,6.5,1.6c7.4,1.6,11.1,2.4,14.1,1.9c1.5-0.2,3.9-0.8,7-0.1c4.1,0.8,4.5,2,9,3.6
	c6.2,2.2,7.4,0.8,11.8,3.1c3.3,1.8,4.3,3.5,5.5,2.9c1-0.4,1.1-1.9,1.3-9c0.2-5.2,0.2-7.9-0.2-8.4c-1.9-2.7-7-3-17.2-3.7
	c-3-0.2-4.5-0.6-5.9-1.6c-3.2-2.3-2.3-5.6-4.4-10.1c-3.3-6.8-8-5.2-11.4-11.9c-3-6-1.1-11.2-3.6-12c-1.6-0.5-2.6,1.6-9,5
	C37,9,36.7,9,34.2,10.4z"/>
<g>
	<path class="st2" d="M88.9,70.8c0.2-0.4,1.2-2.3,0.6-3.6c-0.6-1.1-1.7-0.6-3.2-1.9c-1.4-1.3-1.1-2.6-2.3-2.8
		c-0.8-0.1-1.9,0.1-2.3,0.9c-0.4,0.9,0.7,1.6,0.5,3c-0.2,1.5-1.6,1.9-1.4,3c0.1,0.5,0.7,1,1.9,1.9c0.3,0.2,1.1,0.8,2.1,1.2
		c0.4,0.2,0.7,0.3,1.1,0.3c0.4,0,0.8,0,1,0C87.4,72.5,88.2,71.9,88.9,70.8z"/>
	<path class="st3" d="M86,70.5c-0.2-0.4,0.4-0.8,0.2-1.2c-0.1-0.2-0.6-0.3-0.8-0.2c-0.6,0.3-0.5,1.7,0,2c0.1,0.1,0.2,0,0.8,0
		c0.6,0,1,0,1,0C87.1,71,86.2,71,86,70.5z"/>
	<path class="st3" d="M87.7,67.4c-0.4-0.3-1-0.7-1.1-0.5c-0.1,0.1,0.3,0.3,0.8,1.2c0.1,0.2,0.2,0.4,0.4,0.4c0.2,0.1,0.5-0.1,0.6-0.2
		C88.5,68,88.1,67.6,87.7,67.4z"/>
	<path class="st3" d="M82.3,69.2c-0.3-0.5-0.3-1.3,0.1-1.6c0.2-0.2,0.5-0.3,0.7-0.1c0.3,0.3-0.2,1.1,0.1,1.4c0.2,0.2,0.6-0.2,0.9,0
		c0.1,0.1,0.1,0.4,0,0.6C83.7,69.8,82.7,69.8,82.3,69.2z"/>
	<path class="st3" d="M85.2,66.5c-0.2-0.1-0.7,0.2-0.7,0.5c0,0.2,0.4,0.5,0.6,0.4C85.4,67.2,85.4,66.6,85.2,66.5z"/>
	<path class="st3" d="M85,64.4c-0.3-0.7-1.2-1.2-1.7-0.9c-0.2,0.2-0.4,0.5-0.3,0.7c0.2,0.3,0.9-0.1,1.1,0.2c0.2,0.3-0.3,0.8-0.1,1.2
		c0.2,0.3,0.6,0.4,0.9,0.3C85.3,65.6,85.2,64.8,85,64.4z"/>
</g>
<g>
	<path class="st4" d="M59,80.5c-1.2-0.5-1.1-1.5-2.7-2.9c-2-1.8-5-2.6-6.8-1.5c-0.8,0.6-1.6,1.7-1.2,2.3c0.4,0.9,2.1,0.3,3.1,1.5
		c0.3,0.4,0.4,0.7,0.6,3c0.3,3.3,0.3,3.7,0.7,4.5c0.7,1.1,2,2.1,2.9,1.9c1-0.3,0.5-1.7,1.5-3c1.4-1.8,3.7-0.2,7.1-2
		c1.8-1,1.8-1.7,1.8-1.9c-0.1-0.9-1.3-1.9-2.4-2.3C61.6,79.5,60.8,81.2,59,80.5z"/>
	<path class="st5" d="M60.9,83c0.7-0.2,1.4,0.5,1.5,0.4c0.1-0.1-0.6-1.1-1.4-1.3c-0.8-0.2-1.7,0.4-1.6,0.8c0,0.3,0.4,0.6,0.7,0.6
		C60.5,83.5,60.5,83.1,60.9,83z"/>
	<path class="st5" d="M54.7,82.4c0,0.3,1.3,0.7,1.3,1.2c0,0.6-2,0.5-2,1.2c0,0.4,0.5,0.8,0.9,0.9c1.1,0.4,2.6-0.8,2.4-1.9
		c-0.2-0.8-1.1-1.3-1.2-1.3C55.4,82.2,54.7,82.2,54.7,82.4z"/>
	<path class="st5" d="M54.2,79.4c-0.6-0.4-1.4,0-1.6,0.6c-0.1,0.5,0,1.1,0.3,1.4c0.6,0.5,1.7-0.1,1.8-0.9
		C54.8,80.1,54.6,79.6,54.2,79.4z"/>
	<path class="st5" d="M51.1,77.2c-0.2,0.1-0.3,1,0.2,1.2c0.3,0.2,0.7,0,0.8-0.2C52.1,77.8,51.3,77.1,51.1,77.2z"/>
</g>
<g>
	<path class="st4" d="M20.3,24.3c0.5-1.9,2.2-2.8,1.9-3.3c-0.5-0.9-5.8,0.6-7,2.6c-0.4,0.7,0,0.8-0.5,1.7c-0.8,1.3-2.4,1.5-3.5,3
		c-0.5,0.6-0.9,1.6-0.5,1.9c0.3,0.3,1.1-0.2,2.9-0.7c2.6-0.8,3.3-0.5,4.6-1.4c0.2-0.2,0.9-0.6,1.4-1.3C20.3,25.8,20,25.3,20.3,24.3z
		"/>
	<path class="st5" d="M17.7,27.4c0.3-0.1,0.6-0.5,0.7-0.8c0.1-0.4-0.6-0.7-1.2-0.5c-0.7,0.2-1.1,0.8-1.2,1c-0.4,0.6-0.5,1.2-0.2,1.3
		c0.2,0,0.5-0.2,0.5-0.2c0.5-0.4,0.5-0.9,0.7-1C17.3,27.1,17.4,27.5,17.7,27.4z"/>
	<path class="st5" d="M18.2,25.3c-0.2,0.2-0.9,0.3-1.3,0.1c-0.1,0-0.2-0.2-0.2-0.3c0.1-0.2,0.9-0.5,1.3-0.3
		C18.2,24.9,18.3,25.1,18.2,25.3z"/>
	<path class="st5" d="M20.5,22.4c0-0.2-0.3-0.3-0.5-0.3c-0.4,0-0.8,0.3-0.8,0.6C19,23,19.5,23.2,19.9,23
		C20.2,22.9,20.4,22.7,20.5,22.4z"/>
	<path class="st5" d="M13.8,28.1c-1,0-1.1,0-1.2,0.1c-0.1,0.1,0,0.4,0.3,0.6c0.6,0.3,1.8-0.4,1.8-0.6C14.7,28.2,14.6,28.2,13.8,28.1
		z"/>
</g>
<path class="st6" d="M54,76.7"/>
<g>
	<path class="st4" d="M64.1,20.8c0.5,3.7,3.5,5.8,4,6.1c1.4,0.9,1.6,0.5,3.2,1.4c2,1.2,2.3,2.2,5.3,5.3c3.4,3.5,4.2,3.3,4.5,3.2
		c0.8-0.3,1.1-1.6,1.4-3.3c0.3-1.7,0.9-4.6-0.4-7.9c-0.6-1.5-1.3-3.4-3.2-4.6c-2.4-1.5-3.7-0.1-6.5-1.2c-4-1.6-4.4-6-6.1-5.8
		C64.7,14.4,63.7,18,64.1,20.8z"/>
	<path class="st5" d="M75.3,23.9c-0.1,0.2,0.9,0.6,1.4,1.8c0.5,1.2,0,2.3,0.3,2.4c0.4,0.2,1.6-1,1.4-2c-0.1-0.6-0.7-1-1.2-1.4
		C76.4,24,75.4,23.7,75.3,23.9z"/>
	<path class="st5" d="M67.3,24.7c-0.1,0.6,0.7,1.4,1.3,1.4c0.5,0,0.6-0.4,1.6-1.4c1.1-1.1,1.5-1.3,1.5-1.4
		C71.4,22.7,67.4,23.4,67.3,24.7z"/>
	<path class="st5" d="M68.3,20.6c-0.5,0-1,0.6-0.9,1.2c0.1,0.5,0.7,0.8,1.1,0.6c0.3-0.1,0.5-0.4,0.6-0.7
		C69.2,21.2,68.8,20.6,68.3,20.6z"/>
	<path class="st5" d="M67.5,18c-0.3-0.8-1.8-1.1-2.3-0.5c-0.3,0.3-0.2,0.9,0,1.3c0.3,0.5,0.9,0.9,1.5,0.7
		C67.4,19.2,67.7,18.5,67.5,18z"/>
	<path class="st5" d="M72.3,28.2c0,0.6,1.5,1.3,1.9,0.9c0.3-0.3,0.2-1.5-0.5-1.8C73,27.1,72.3,27.7,72.3,28.2z"/>
	<path class="st5" d="M80.4,31.4c-0.2,0.3-0.7,0-1.1,0.4c-0.5,0.5,0.2,1.3-0.3,2.1c-0.2,0.4-0.7,0.7-1.1,0.6c-0.5-0.1-0.9-1.2-0.6-2
		c0.4-1,1.6-0.9,1.9-1.9c0.2-0.8-0.5-1.5-0.3-1.6C79,28.8,80.8,30.8,80.4,31.4z"/>
</g>
<g>
	<path class="st2" d="M25,71.8c-0.2-1.8-0.9-1.9-3.6-6.4c-2.3-3.9-2.5-5.2-4.1-5.4c-1.8-0.2-3.9,1-5,2.3c-3.3,3.8,0.4,9.5,1.1,10.7
		c1.4,2.2,5.2,6.7,8.3,5.7C24,78,25.2,74.3,25,71.8z"/>
	<path class="st3" d="M22.8,71.1c-0.2-0.6-0.9-1.1-1.7-0.9c-0.8,0.2-1.3,1-1.2,1.5c0.1,0.9,1.5,1.4,2.3,1
		C22.8,72.4,23,71.6,22.8,71.1z"/>
	<path class="st3" d="M19,65.6c0.9-1.5-1.6-3.6-2.2-3.3c-0.2,0.1-0.2,0.5-0.3,1.2c-0.1,1.7-0.3,2.9,0.4,3.1
		C17.5,66.8,18.6,66.2,19,65.6z"/>
</g>
<g>
	<path class="st2" d="M35.1,30.3c1.3,0.2,1.1,1.5,2.2,1.7c2,0.3,5.9-3.2,5-4C42,27.8,40.8,28.4,39,28c-0.7-0.1-1.4-0.5-2.9-1.3
		c-1.8-1-1.8-1.1-2.3-1.2c-2.1-0.2-6,2.6-5,4.4c0.3,0.6,1.2,1.2,2.3,1.3C32.9,31.3,33.8,30.1,35.1,30.3z"/>
	<path class="st3" d="M35,29.2c0.3-0.5,0.1-1.3-0.8-1.5c-0.8-0.2-1.6,0.2-2,0.5c-0.5,0.4-0.8,1.1-0.3,1.4C32.5,30.2,34.5,30,35,29.2
		z"/>
	<path class="st3" d="M37.8,30c1,0,1.4,0.5,1.7,0.4c0.3-0.1,0.3-1-0.4-1.4c-0.4-0.3-1.2-0.5-1.2-0.5l0,0c0.5,0.2-1.1-0.5-1.7-0.3
		c-0.6,0.2-0.6,1.6,0.2,1.9C36.9,30.2,37.1,30,37.8,30z"/>
</g>
<g>
	<path class="st4" d="M36.4,52.3c-1.2,0.7-0.8,2.2-1.6,4.7c-1.7,5.3-5.6,5.2-7.1,9.9c-1.2,4,0.4,7.7,0.7,8.2
		c1.1,2.3,3.2,3.8,7.3,6.7c4.5,3.2,6.8,4.8,8.4,4.2c3-1.2,2.9-7.8,2.8-9.8c-0.1-6.5-2.7-7.1-3-14.3c-0.1-3.3,0.4-5-1-7
		C41.4,52.8,38.1,51.3,36.4,52.3z"/>
	<path class="st5" d="M36.8,61.5c0.9,0.5,3.2-0.3,3.3-2c0.2-1.7-2-3-3-2.7C35.8,57.2,35.5,60.8,36.8,61.5z"/>
	<path class="st5" d="M38.9,68.8c0.6-0.4,0.3-2.9-0.9-3.1c-0.7-0.2-1.7,0.5-1.8,1.3C36.1,68.1,38.3,69.2,38.9,68.8z"/>
	<path class="st5" d="M31.4,68.2c0,0.8,1.5,0.9,3.1,2.6c1.6,1.7,1.7,3.3,2.2,3.2c0.6-0.1,1.1-2.4,0.2-4.4c-0.1-0.1-1.3-2.8-3.3-2.7
		C32.6,66.8,31.4,67.5,31.4,68.2z"/>
	<path class="st5" d="M38,78.7c0.3,1.5,2.6,2.4,3.9,1.5c0.8-0.5,1.2-1.6,0.8-2.6c-0.4-1.2-1.8-1.9-3.1-1.6
		C38.5,76.4,37.8,77.7,38,78.7z"/>
</g>
<g>
	<path class="st4" d="M24.6,21.2c-0.5,0.5,0.3,1.5-0.3,2.4c-0.4,0.5-0.7,0.3-1.2,0.9c-0.7,0.8-0.1,1.5-0.8,2.4c-0.5,0.7-1,0.5-2,1.4
		c-0.4,0.4-1.2,1.1-1,1.6c0.1,0.5,1.2,0.6,1.8,0.6c1.4,0.1,4.3,0.2,5.9-1.9c0.1-0.2,1-1.2,1-2.6c0-0.9-0.4-0.9-1-2.7
		c-0.4-1.3-0.4-1.8-1-2.2C25.6,21.1,24.9,21,24.6,21.2z"/>
	<path class="st5" d="M25.4,25.5c0.2,0.3,0.4,0.7,0.8,0.7c0.2,0,0.5-0.2,0.6-0.4c0.1-0.3-0.2-0.6-0.7-1.1c-0.4-0.4-0.8-0.8-1-0.7
		C24.9,24.2,25.1,24.9,25.4,25.5z"/>
	<path class="st5" d="M23.7,26.3c0-0.2,0.1-0.4,0.3-0.5c0.3-0.1,0.6,0,0.6,0.3c0.1,0.3-0.2,0.6-0.5,0.7
		C23.8,26.8,23.6,26.6,23.7,26.3z"/>
	<path class="st5" d="M21.6,29.3c0.1,0.3,0.8,0.3,1,0c0.2-0.3,0-0.7-0.3-0.8C22,28.4,21.6,29,21.6,29.3z"/>
	<path class="st5" d="M25.7,27c0.2-0.2,0.8-0.2,1,0.1c0.2,0.2,0.2,0.6,0,0.8c-0.2,0.2-0.8,0.1-1-0.3C25.8,27.6,25.6,27.3,25.7,27z"
		/>
</g>
<g>
	<path class="st2" d="M75.2,62.1c-0.3-2.9,0.4-4.3-0.9-4.5c-1.8-0.3-5.8,1.7-7,3.6c-1.1,1.7,1,2.1-0.1,3.9c-1.1,1.9-3.9,2.4-4.9,4.5
		c-0.4,0.8,0,0.6-0.3,2.1c-0.6,2.3-1.8,3.3-1.3,3.6c0.6,0.4,2.6-0.7,5.9-2.1c7.2-3.1,8.7-2.7,9.9-4.1C78,67.4,75.7,66.8,75.2,62.1z"
		/>
	<path class="st3" d="M72.1,69.9c-0.7,0.2-2.2,0.6-2.3,0.4c-0.1-0.2,1.2-1,2.5-1.3c0.9-0.2,1.8-0.1,1.7,0.1
		C74,69.4,72.3,69.9,72.1,69.9z"/>
	<path class="st3" d="M68.9,67.7c-0.1-0.2,0.2-0.7,0.6-0.8c0.6-0.2,1.3,0.3,1.1,0.6C70.4,67.8,69.1,68,68.9,67.7z"/>
	<path class="st3" d="M67.1,70.9c-0.9,0.1-1-0.8-1-0.9c-0.1-0.4,0.1-1,0.4-1.1c0.2-0.1,0.3,0.2,1,0.3c0.8,0.2,1.4,0,1.5,0.2
		C69.1,69.7,68,70.8,67.1,70.9z"/>
	<path class="st3" d="M72.8,65.6c0.3-0.2,0.9,0.1,1.2,0.4c0.3,0.3,0.5,0.7,0.2,0.9s-0.9,0-1.2-0.2C72.6,66.3,72.5,65.7,72.8,65.6z"
		/>
	<path class="st3" d="M72.8,62.2c-0.9-0.2-2.5,0.3-3,0.9c-0.4,0.5,0.2,1.1,0.7,1c0.5-0.1,0.6-0.7,1.2-0.9c0.9-0.3,1.5,0.7,1.8,0.5
		C73.8,63.5,73.9,62.4,72.8,62.2z"/>
	<path class="st3" d="M71.4,59.3c-0.4,0.1-0.9,0.7-0.7,1.1c0.2,0.5,1.4,0.3,1.7,0.1C72.8,60.1,72,59.1,71.4,59.3z"/>
</g>
<g>
	<path class="st2" d="M52.2,62.2c0.7,0.8,1.7-0.1,4.3,0.7c2.8,0.8,3.3,2.4,4.7,2.2c1.7-0.3,3.3-2.9,3-4.9C63.7,58,61,57.6,61,55.6
		c0-1.5,1.4-2.1,1-3.1c-0.4-1-2.3-1.3-3.7-1.1C53.6,52.3,50.4,60.4,52.2,62.2z"/>
	<path class="st3" d="M58.9,54.8c-0.6-0.3-1.4,0.3-1.7,0.8c-0.5,0.7-0.5,1.8-0.1,2.1c0.6,0.4,2.3-0.6,2.4-1.8
		C59.5,55.5,59.3,54.9,58.9,54.8z"/>
	<path class="st3" d="M56.6,60c-0.3-0.1-0.7,0.1-0.8,0.3c-0.2,0.4,0.3,1.1,0.8,1.1c0.3,0,0.6-0.4,0.6-0.8
		C57.1,60.3,56.9,60.1,56.6,60z"/>
	<path class="st3" d="M59.6,60.3c0.3,0.2,1,0,1.2-0.6c0.2-0.7-0.5-1.3-0.8-1.2C59.5,58.5,59.2,60,59.6,60.3z"/>
</g>
</svg>
