<?xml version="1.0" encoding="utf-8"?>
<!-- Generator: Adobe Illustrator 26.0.3, SVG Export Plug-In . SVG Version: 6.00 Build 0)  -->
<svg version="1.1" id="Ebene_2_00000020371425143906055610000010711333585448278916_"
	 xmlns="http://www.w3.org/2000/svg" xmlns:xlink="http://www.w3.org/1999/xlink" x="0px" y="0px" viewBox="0 0 100 100"
	 style="enable-background:new 0 0 100 100;" xml:space="preserve">
<style type="text/css">
	.st0{fill:#602C11;stroke:#000000;stroke-width:2;stroke-miterlimit:10;}
	.st1{fill:#804122;stroke:#000000;stroke-miterlimit:10;}
	.st2{fill:#493127;stroke:#000000;stroke-width:0.5;stroke-miterlimit:10;}
	.st3{fill:#5D4135;stroke:#000000;stroke-width:0.5;stroke-miterlimit:10;}
	.st4{fill:#4D372B;stroke:#000000;stroke-width:0.5;stroke-miterlimit:10;}
	.st5{fill:#804122;stroke:#000000;stroke-width:0.25;stroke-miterlimit:10;}
	.st6{fill:#804122;stroke:#000000;stroke-width:0.75;stroke-miterlimit:10;}
	.st7{fill:#493127;stroke:#000000;stroke-width:0.25;stroke-miterlimit:10;}
	.st8{fill:#5D4135;stroke:#000000;stroke-width:0.25;stroke-miterlimit:10;}
	.st9{fill:#5D4135;stroke:#030300;stroke-width:0.25;stroke-miterlimit:10;}
</style>
<g id="Ebene_1_00000178169986029889010870000017977382286501971088_">
	<path class="st0" d="M8.61,25.78c2.52-1.45,5.03-2.9,7.55-4.35c11.47-6.6,22.95-13.21,34.42-19.81c14,8.07,28,16.14,42,24.21
		l0.03,48.37L50.64,98.37l-42-24.22L8.61,25.78z"/>
</g>
<path class="st1" d="M25.8,35.46c2.79,7,14.92,8.17,21.22,14.89c11.16,11.89,7.02,44.32,7.56,44.56c0.18,0.08,0.37,0.13,0.37,0.13
	c0.12,0.03,0.26,0.05,0.45,0.06c1.87,0.08,4.28-2.4,19.06-10.52c9.88-5.43,15.23-8.01,14.75-9.96c-0.4-1.6-4.46-0.28-8.75-2.04
	c-13.15-5.41-7.35-31.18-20.32-37.36c-2.09-0.99-8.86-3.55-10.12-6.97c-0.24-0.65-0.84-2.66-2.33-5.11c-0.3-0.5-0.57-0.89-0.8-1.21
	c-0.58-0.82-1.04-1.39-1.09-1.45c-1.35-1.71,2.97-13.37,0.9-15.31c-1.48-1.38-5.8,2.51-16.64,8.29c-7.8,4.16-12.09,5.62-12.14,8.48
	c-0.03,1.77,1.61,2.32,4.44,6.75C24.41,31.9,25.32,34.24,25.8,35.46z"/>
<path class="st2" d="M16,30.52c-1.27,0.19-1.91,4.58-1.78,8.44c0.27,7.88,3.58,8.9,3.7,15.7c0.1,5.52-2.05,7.22-0.44,11.11
	c1.14,2.78,3.78,5.65,5.63,5.19c2.46-0.61,0.66-6.41,4.89-12.15c2.89-3.93,6.18-4.53,5.93-6.81c-0.24-2.15-3.21-2.21-5.48-6.22
	c-1.27-2.23-0.63-2.71-1.93-4.59c-1.7-2.47-3.22-2.24-5.78-4.59C17.33,33.46,17.09,30.35,16,30.52z"/>
<path class="st2" d="M36.81,58.26c-1.23-1.56,0.19-2.99-0.37-6.41c-0.63-3.89-3.79-5.49-2.96-6.96c0.36-0.64,1.24-0.92,1.89-0.85
	c1.39,0.14,1.47,1.86,3.15,3.52c2.48,2.46,5.14,1.42,6.37,3.84c0.42,0.83,0.11,0.86,0.59,2.64c0.98,3.58,2.58,4.61,2.07,5.52
	c-0.49,0.89-2.41,0.67-5.07,0.37C39.3,59.57,37.71,59.39,36.81,58.26z"/>
<path class="st3" d="M32.73,61.18c-2.94,2.17,0,8.14-3.11,10.22c-2.53,1.7-6.15-1.17-7.7,0.59c-1.43,1.62,0.49,5.3,0.74,5.78
	c1.46,2.72,4.51,5.14,7.85,5.19c0.69,0.01,2.84-0.88,7.11-2.67c3.95-1.65,4.34-1.87,4.89-2.37c2.37-2.17,1.52-3.97,3.7-5.63
	c2.18-1.66,3.77-0.44,5.48-2.07c1.8-1.72,2.28-5.22,0.89-6.81c-1.22-1.4-3.17-0.51-7.41-0.59C37.43,62.66,35.02,59.49,32.73,61.18z"
	/>
<path class="st4" d="M38.07,82.96c-0.78,1.21-0.66,2.87-0.15,4c0.75,1.67,2.14,1.77,5.04,3.56c4.16,2.56,4.42,4.28,6.22,4.15
	c2.14-0.15,4-2.52,4.59-4.74c0.33-1.24-0.02-1.33-0.19-4.89c-0.19-4.05,0.24-4.33-0.26-5.63c-0.9-2.32-3.49-4.57-5.48-4.15
	c-1.95,0.41-1.49,3.21-4.44,5.19C41.02,82.04,39.17,81.24,38.07,82.96z"/>
<path class="st3" d="M87.58,39.26c1.95,0.97-0.97,6.51-0.33,14.81c0.5,6.48,2.81,9.94,0.74,12c-0.93,0.93-2.6,1.44-3.7,0.89
	c-2.1-1.05-0.43-5.11-3.11-7.85c-1.61-1.65-2.97-0.94-4.15-2.67c-1.43-2.1-1.12-5.6,0.44-6.52c1.59-0.94,3.4,1.42,4.89,0.59
	c2.33-1.29-0.65-7.8,2.56-10.48C85.54,39.52,86.75,38.84,87.58,39.26z"/>
<path class="st4" d="M86.67,32.3c-1.17,1.48-3,0.55-4.44,2.22c-0.48,0.56-0.87,1.34-1.04,6.07c-0.17,4.82,0.18,5.32-0.44,6.22
	c-1.68,2.41-7.07,2.8-9.04,0.59c-1.62-1.81,0.4-3.89-1.19-7.26c-1.52-3.24-4.19-3.05-4.59-5.63c-0.24-1.54,0.71-1.62,2.37-6.22
	c1.11-3.07,1.06-4.09,2.22-5.04c0.63-0.51,1.58-0.99,4.44-1.04c4.85-0.08,8-0.13,10.22,2.22C87.24,26.63,88.1,30.47,86.67,32.3z"/>
<path class="st2" d="M72,17.63c0.07,1.67-2.48,1.74-4.15,5.19c-1.14,2.35-0.53,3.49-1.93,5.04c-0.15,0.16-2.05,2.21-4.3,1.93
	c-2.65-0.34-2.42-3.51-6.37-6.22c-2.65-1.82-4.33-1.47-5.33-3.41c-0.3-0.57-0.25-0.8-0.44-4.3c-0.23-4.33-0.35-4.9,0-6.07
	c0.21-0.72,0.97-3.3,2.52-3.56c1.35-0.23,2.11,1.53,4.44,3.26c2.13,1.58,2.97,1.2,7.11,2.81C67.9,13.98,71.91,15.55,72,17.63z"/>
<path class="st4" d="M45.77,7.11c-0.63,0.01-0.47,1.63-1.93,2.81c-1.43,1.16-2.72,0.51-3.41,1.48c-0.77,1.09-0.09,3.26,1.19,4.44
	c1.95,1.81,5.57,1.55,6.52,0c0.16-0.26,0.33-0.7-0.3-3.41C47.24,9.86,46.6,7.1,45.77,7.11z"/>
<path class="st5" d="M115.04,66.48"/>
<path class="st6" d="M120.48,36.48"/>
<path class="st7" d="M71.26,30.15c-0.61-0.06-1.61,1.56-1.22,2.67c0.27,0.78,0.98,0.6,1.78,1.78c0.52,0.77,0.53,1.31,1.11,1.56
	c0.38,0.16,0.94,0.15,1.11-0.11c0.25-0.39-0.5-1.07-1.22-2.33C71.59,31.58,71.81,30.2,71.26,30.15z"/>
<path class="st7" d="M76.7,29.48c-0.38-0.11-0.16-0.89-0.67-1.89c-0.57-1.11-1.39-1.22-1.33-1.67c0.11-0.91,3.59-1.44,3.89-0.78
	c0.15,0.33-0.62,0.63-0.78,1.67c-0.12,0.76,0.23,1.04,0,1.67C77.61,29.06,77.05,29.58,76.7,29.48z"/>
<path class="st7" d="M83.37,29.26c-0.16,0.29,1.03,1.73,1.89,1.44c0.94-0.32,0.8-2.49,0.56-2.56c-0.14-0.04-0.24,0.67-0.89,1
	C84.2,29.52,83.48,29.06,83.37,29.26z"/>
<path class="st7" d="M77.37,33.82c0.22-0.17,1.24,0.38,1.44,1.33c0.11,0.5,0.01,1.18-0.22,1.22C78.12,36.46,77.02,34.08,77.37,33.82
	z"/>
<path class="st7" d="M73.81,38.93c0.26-0.44,1.82-0.28,2,0.33c0.12,0.4-0.34,1.06-0.89,1.11C74.16,40.44,73.59,39.31,73.81,38.93z"
	/>
<path class="st7" d="M76.81,42.26c-0.74,0.19-1.38-0.08-1.44,0.11c-0.07,0.21,0.65,0.49,1.44,1.22c1.1,1.01,1.47,2.08,1.67,2
	c0.21-0.09-0.42-1.23,0.11-2.22c0.28-0.53,0.6-0.47,0.89-1c0.49-0.9,0.2-2.23-0.22-2.33C78.71,39.91,78.35,41.87,76.81,42.26z"/>
<path class="st7" d="M85.15,44.82c-0.25-0.05-0.79,1.03-0.78,2.11c0.01,0.91,0.42,1.92,0.67,1.89C85.5,48.75,85.6,44.9,85.15,44.82z
	"/>
<path class="st7" d="M84.81,52.15c-0.23-0.19-0.82-0.05-1,0.33c-0.24,0.51,0.36,1.16,0.67,1.11C84.85,53.54,85.17,52.43,84.81,52.15
	z"/>
<path class="st7" d="M84.7,56.15c-0.23-0.17-1.09,0.35-1.44,1.11c-0.03,0.08-0.2,0.44-0.18,0.95c0.03,0.65,0.35,1.4,0.62,1.38
	c0.18-0.01,0.23-0.36,0.67-1.89C84.72,56.46,84.82,56.24,84.7,56.15z"/>
<path class="st7" d="M83.59,62.04c0.34-0.65,2.11-0.5,2.22-0.11c0.06,0.21-0.4,0.41-0.67,1.22c0,0-0.04,0.11-0.07,0.23
	c-0.27,1.13,0.51,2.15,0.18,2.54c-0.22,0.26-0.91,0.22-1.22-0.11c-0.44-0.46,0.16-1.14-0.11-2.44
	C83.76,62.57,83.43,62.35,83.59,62.04z"/>
<path class="st7" d="M79.92,57.15c-0.15,0-0.07-0.76-0.56-1.56c-0.51-0.82-1.15-0.91-1.11-1.22c0.08-0.61,2.62-1.02,2.89-0.44
	c0.11,0.24-0.28,0.45-0.67,1.33C80.02,56.31,80.08,57.15,79.92,57.15z"/>
<path class="st8" d="M57.59,20.26c0.18-0.16,1,0.94,3.03,1.45c0.52,0.13,0.93,0.17,1.3,0.21c2.29,0.24,3.31-0.29,3.67,0.22
	c0.24,0.35,0.06,1.04-0.33,1.33c-0.8,0.59-2.36-0.52-2.56-0.22c-0.19,0.29,1.32,1.39,1.11,1.78c-0.14,0.26-1.02,0.1-1.67-0.11
	C59.06,23.92,57.3,20.53,57.59,20.26z"/>
<path class="st8" d="M63.7,16.93c0.16-0.57,3.03-0.59,3.33,0.22c0.14,0.37-0.26,0.9-0.67,1.11C65.27,18.85,63.56,17.41,63.7,16.93z"
	/>
<path class="st8" d="M60.37,15.48c-0.53-0.13-1.51,1.19-1.22,1.67c0.19,0.32,1.11,0.47,1.56-0.11
	C61.16,16.44,60.74,15.57,60.37,15.48z"/>
<path class="st8" d="M54.48,16.26c-0.21-0.17-1.12,0.28-1.33,1c-0.29,1,0.86,2.11,1.11,2c0.16-0.07-0.13-0.61,0-1.67
	C54.36,16.74,54.63,16.38,54.48,16.26z"/>
<path class="st8" d="M55.48,12.48c-0.28,0.86-2.72,1.02-3,0.44c-0.17-0.34,0.54-0.73,0.56-1.67c0.01-0.85-0.56-1.33-0.44-1.44
	C52.85,9.57,55.82,11.43,55.48,12.48z"/>
<path class="st7" d="M44.48,10.93c0.4,0.27,0.87,0.87,0.67,1.33c-0.21,0.47-1.02,0.6-1.56,0.33c-0.7-0.34-0.99-1.38-0.63-1.78
	C43.27,10.47,44.02,10.62,44.48,10.93z"/>
<path class="st7" d="M42.26,14.15c-0.27,0.35,0.32,1.61,1,1.56c0.43-0.03,0.86-0.58,0.78-1C43.91,14.04,42.53,13.79,42.26,14.15z"/>
<path class="st7" d="M48.61,79.44c-0.41-0.23-1.73,0.97-1.23,1.89c0.47,0.86,2.28,1.25,2.34,0.78c0.03-0.22-0.54-0.28-0.89-0.89
	C48.37,80.4,48.85,79.57,48.61,79.44z"/>
<path class="st7" d="M50.92,89.15c-0.42-0.01-1.06,1.15-0.67,1.89c0.2,0.37,0.68,0.69,1,0.56c0.4-0.17,0.34-0.94,0.33-1.11
	C51.55,89.92,51.27,89.15,50.92,89.15z"/>
<path class="st7" d="M46.37,88.93c-0.12-0.04,0.15-0.7-0.09-1.67c-0.17-0.69-0.45-0.91-0.57-1c-0.23-0.16-0.48-0.2-0.62-0.22
	c-0.12-0.02-0.5-0.07-0.91,0.08c-0.23,0.09-0.28,0.17-0.36,0.14c-0.23-0.1-0.3-1.01,0.11-1.33c0.52-0.41,1.38,0.46,2.11,0
	c0.38-0.24,0.72-0.84,0.73-0.88c0.04-0.1,0.04-0.12,0.04-0.12l0,0c0.03-0.02,0.89,1.33,0.89,1.33l0,0c0,0-0.17,0.94-0.33,1.56
	C47.06,87.97,46.52,88.97,46.37,88.93z"/>
<path class="st7" d="M48.67,67.53c0.62-0.27,1.37-0.98,1.7-0.27c0.24,0.51,0.08,1.22-0.33,1.56c-0.38,0.3-0.78,0.16-2,0.11
	c-0.9-0.04-2.24-0.36-2.33-0.05c-0.12,0.41,2,1.35,1.89,1.94c-0.06,0.34-1.3-0.63-1.89-0.71c-0.85-0.1-1.41,0.37-1.44-0.63
	c-0.03-0.94,0.83-1.52,0.89-1.56c0.03-0.02,0.66-0.42,1.42-0.3c0.23,0.04,0.21,0.08,0.36,0.08C47.55,67.71,48.01,67.82,48.67,67.53z
	"/>
<path class="st7" d="M41.92,65.65c0.38-0.01,0.59,2.02-0.16,3.23c-0.59,0.96-1.4,1.06-1.62,0.77c-0.14-0.18,0.26-0.53,0.78-1.56
	C41.72,66.53,41.66,65.65,41.92,65.65z"/>
<path class="st7" d="M35.59,66.48c1.18,0.59,1.92,0.43,2,0.78c0.08,0.33-0.49,0.91-1.11,1c-0.84,0.12-1.41-0.69-1.78-0.44
	c-0.32,0.21,0.03,0.88-0.33,1.22c-0.39,0.37-1.44,0.21-1.78-0.33c-0.54-0.88,0.73-2.89,1.78-2.89
	C34.75,65.81,34.79,66.08,35.59,66.48z"/>
<path class="st7" d="M34.25,71.7c0.66,0.21,0.65,1.06,1.22,1.11c0.44,0.04,0.95-0.43,1.08-0.9c0.09-0.35-0.06-0.6,0.03-0.66
	c0.18-0.1,1.03,0.5,1,1.11c-0.03,0.76-1.38,0.75-2.11,2c-0.54,0.93-0.35,1.88-0.56,1.89c-0.24,0.01,0.01-2-0.97-3.03
	c-0.66-0.7-1.46-0.11-1.47-0.52C32.46,72.17,33.52,71.47,34.25,71.7z"/>
<path class="st7" d="M31.15,75.48c0.66,0.04,1.54,0.37,1.56,0.78c0.02,0.46-1.05,1.04-2,0.89c-0.66-0.11-1.38-0.6-1.33-1
	C29.42,75.7,30.4,75.43,31.15,75.48z"/>
<path class="st7" d="M25.92,75.59c1.15,0.43,2.09,1.72,1.78,2.56c-0.16,0.43-0.69,0.78-1,0.67c-0.38-0.14-0.15-0.85-0.56-1.56
	c-0.68-1.2-2.47-1.12-2.44-1.44C23.72,75.56,24.88,75.21,25.92,75.59z"/>
<path class="st8" d="M21.48,62.04c-0.64,1.35,0.58,3.18,1,3.11c0.35-0.06-0.03-1.42,0.89-2.67c0.83-1.12,2.05-1.24,2-1.44
	C25.29,60.72,22.27,60.37,21.48,62.04z"/>
<path class="st8" d="M29.04,53.04c0.95,0.61,2.49,0.22,2.78-0.56c0.31-0.83-0.88-1.89-1.67-2.33c-0.38-0.21-1.11-0.62-1.56-0.33
	C27.91,50.25,27.86,52.29,29.04,53.04z"/>
<path class="st8" d="M23.33,53.26c-0.02,0.04-0.49-0.63-0.72-1.15c-0.31-0.4-2.01-0.3-0.34-1.35c0-0.01,0-0.02,0-0.02
	c-0.06-0.78-0.4-1.67-0.72-1.7c-0.41-0.04-1.26,1.36-0.89,2.44C21.13,52.83,23.35,53.19,23.33,53.26z"/>
<path class="st8" d="M19.48,47.15c-0.4-0.04-1.25,1.24-0.78,2.33c0.25,0.6,0.9,1.15,1.22,1C20.54,50.19,20.07,47.21,19.48,47.15z"/>
<path class="st8" d="M19.92,40.15c-0.2,0.91-1.26,1.66-1.78,1.44c-0.5-0.21-0.22-1.18-0.56-2.89c-0.47-2.42-1.66-3.74-1.44-3.89
	c0.29-0.2,2.22,2.3,2.33,2.44C20.04,39.29,19.98,39.88,19.92,40.15z"/>
<path class="st8" d="M36.63,47.7c-0.71,0.34-0.68,2.83,0.33,3.22c0.65,0.25,1.7-0.34,1.89-1.11C39.13,48.63,37.28,47.39,36.63,47.7z
	"/>
<path class="st8" d="M38.2,55.04c-0.26,0.29,0.39,1.74,1.56,2.11c0.88,0.29,1.96-0.08,2-0.44c0.03-0.3-0.48-0.07-1.65-0.59
	C39.03,55.63,38.36,54.87,38.2,55.04z"/>
<path class="st9" d="M42.15,52.26c-0.05,0.4,1.26,0.06,1.68,1c0.37,0.84-0.39,1.99-0.13,2.11c0.29,0.14,1.14-0.61,1.33-1.56
	c0.11-0.57,0.06-1.55-0.67-2C43.5,51.27,42.21,51.81,42.15,52.26z"/>
</svg>
