<?xml version="1.0" encoding="utf-8"?>
<!-- Generator: Adobe Illustrator 26.0.3, SVG Export Plug-In . SVG Version: 6.00 Build 0)  -->
<svg version="1.1" id="Ebene_1" xmlns="http://www.w3.org/2000/svg" xmlns:xlink="http://www.w3.org/1999/xlink" x="0px" y="0px"
	 viewBox="0 0 100 100" style="enable-background:new 0 0 100 100;" xml:space="preserve">
<style type="text/css">
	.st0{fill:#804122;stroke:#000000;stroke-width:2;stroke-miterlimit:10;}
	.st1{fill:#5D4135;stroke:#000000;stroke-width:0.5;stroke-miterlimit:10;}
	.st2{fill:#493127;stroke:#000000;stroke-width:0.25;stroke-miterlimit:10;}
	.st3{fill:#493127;stroke:#000000;stroke-width:0.5;stroke-miterlimit:10;}
	.st4{fill:#5D4135;stroke:#000000;stroke-width:0.25;stroke-miterlimit:10;}
	.st5{fill:#DF1200;stroke:#000000;stroke-miterlimit:10;}
	.st6{fill:#FFA46A;stroke:#000000;stroke-width:0.75;stroke-miterlimit:10;}
	.st7{fill:#999999;stroke:#000000;stroke-miterlimit:10;}
	.st8{fill:#555555;stroke:#000000;stroke-miterlimit:10;}
	.st9{fill:none;stroke:#000000;stroke-width:0.75;stroke-miterlimit:10;}
	.st10{fill:#FFFFFF;stroke:#E5211C;stroke-width:3;stroke-miterlimit:10;}
	.st11{stroke:#000000;stroke-width:0.25;stroke-miterlimit:10;}
	.st12{stroke:#000000;stroke-width:0.75;stroke-miterlimit:10;}
</style>
<g id="Ebene_1_00000017510764199299988230000010460311392665681541_">
	<path class="st0" d="M92,25.8L50,1.6L8,25.8l0,48.5l42,24.3l42-24.2L92,25.8z"/>
</g>
<path class="st1" d="M43,71.5c-0.9-7.2-1.3-8.5-0.4-10.4c1-2.1,2.6-2.1,3.3-4.4c0.5-1.7,0.5-4.2-0.7-5.2c-1-0.9-2.7,0.1-6.1,1.3
	c-2.6,0.9-7.3,2.6-8.2,5.9c-0.3,1.3,0.3,1.4,0.1,2.9c-0.5,4.2-5.3,5.1-6.2,9.4c-0.3,1.5-0.1,3.5,0.9,4.7c1.5,1.7,3.4,0,6.8,1.2
	c3.1,1,3.4,3,7,3.7c1.4,0.3,2.5,0.5,3.3-0.2C43.8,79.5,43.8,77.8,43,71.5z"/>
<path class="st2" d="M38.8,76.6c-0.5-0.2-0.5-0.7-0.9-0.9c-0.7-0.6-1.9,0-2-0.1c0-0.1,1.3-0.1,1.6-0.8c0.2-0.4,0-0.7,0.3-1
	c0.3-0.3,0.7-0.3,0.9-0.2c1.1,0.1,2,1.6,1.6,2.5c-0.1,0.3-0.5,0.6-0.7,0.6C39.5,76.6,39.2,76.6,38.8,76.6z"/>
<path class="st2" d="M39.1,67.2c0.2-1,1-1.4,0.9-1.8c-0.1-0.3-0.7-0.6-1.1-0.3c-0.4,0.3-0.1,1-0.5,1.6c-0.2,0.3-0.3,0.3-1.2,0.8
	c-0.9,0.6-1.4,0.8-1.3,0.9c0,0.2,0.8-0.2,1.8,0c0.9,0.2,1.3,0.7,1.5,0.5C39.4,68.9,38.9,68.2,39.1,67.2z"/>
<path class="st2" d="M41.7,56.9c0.4-1,0.3-1,0.6-1.4c0.6-1.1,1.5-1.6,1.5-1.8c0-0.1-0.2-0.1-1.1,0.2c-0.8,0.2-1.2,0.4-1.4,0.4
	c-0.2,0.1-1.6,0.8-1.6,1.5c0,0.7,1.2,1.1,1,1.7c0,0.1,0,0.1-0.1,0.2c-0.3,0.4-0.6,0.4-0.7,0.6c-0.1,0.3,0.1,0.9,0.5,0.8
	C40.8,59.2,41.3,58,41.7,56.9z"/>
<path class="st2" d="M32.3,71.3c-1.8-0.3-1.8-0.3-2.1-0.3c-1.4,0.2-2.4,1.4-2.5,1.2c0-0.1,0.1-0.2,0.5-1.1c0.8-1.4,0.6-1.2,0.9-1.6
	c0.5-0.7,1-1.5,1.7-1.6c0.8-0.2,1.2,0.5,1.9,0.2s0.9-1.2,1.3-1.2c0.2,0.1,0.4,0.7,0.2,1.2c-0.4,1.3-2.7,1.7-2.8,2
	c0,0.2,1.2-0.2,2.2,0.5c0.3,0.2,0.7,0.6,0.7,0.7C34.2,71.5,33.8,71.5,32.3,71.3z"/>
<path class="st2" d="M34.4,59.7c0.1,0.1-0.1,0.6,0.3,1.1c0.3,0.5,0.7,0.4,0.8,0.8c0,0.3-0.1,0.7-0.3,0.9c-0.2,0.2-0.4,0.2-1.2,0.4
	c-1,0.2-1.3,0.3-1.3,0.1c-0.1-0.2,0.4-0.6,0.9-1.4C34.1,60.6,34.2,59.7,34.4,59.7z"/>
<path class="st3" d="M64.3,26.3c1.3,0.5,0.4,3.2,2.1,4.6c1.9,1.6,6.5,0.9,8.6-1.9c1.7-2.3,1.2-5.1,1-5.9c-0.9-4-5.1-7-8.6-6.8
	c-2.7,0.2-3.9,2.2-5.8,1.5c-1.5-0.6-1.5-2.1-2.8-4.2c-2.5-4-7.8-6.8-9.9-5.5c-1.7,1.1-1.2,4.7-1.2,5.2c0.5,3.5,2.6,3.7,4,8
	c1,2.9,0.4,4,1.8,5.8c0.4,0.5,1.9,2.4,4,2.5C60.7,29.8,62.6,25.7,64.3,26.3z"/>
<path class="st4" d="M58.5,23.7c-0.2-0.5-1.1,0-2.1-0.7c-1.3-1-0.9-2.9-1.6-3c-0.4,0-0.9,0.6-0.9,1.2c0.1,0.9,1.5,1,1.6,1.8
	c0,0.5-0.4,0.6-1,2c-0.1,0.3-0.2,0.7-0.2,1c0.1,0.3,0.3,0.6,0.5,0.7C56,27.4,59,24.7,58.5,23.7z"/>
<path class="st4" d="M58.7,17.5c0.2-1-0.3-2.2-1.2-2.3c-0.5-0.1-1.2,0.3-1.3,0.7c-0.1,0.6,0.8,0.8,1,1.8c0.1,0.7-0.3,1.1-0.2,1.3
	C57.3,19.2,58.4,18.5,58.7,17.5z"/>
<path class="st4" d="M55,13.4c0.4-0.9-0.7-2-1.1-2.4c-0.2-0.2-1.7-1.7-2.7-1.2c-0.4,0.2-0.8,0.8-0.7,1.3s0.6,0.4,0.9,0.9
	c0.5,0.8-0.2,1.5,0.2,2C52.2,14.6,54.5,14.5,55,13.4z"/>
<path class="st4" d="M68.9,21.2c-0.2-0.3-1.2,0.3-1.6-0.2c-0.3-0.4,0.4-1,0.1-1.6c-0.3-0.7-1.9-0.9-2.2-0.4c-0.2,0.3,0.1,0.7,0.6,2
	c0.6,1.8,0.5,2.4,0.9,2.6C67.5,23.9,69.2,21.6,68.9,21.2z"/>
<path class="st4" d="M64.4,24.2c0.1-0.4-0.8-1.2-1.1-1c-0.2,0.1-0.2,1.1,0.3,1.3C64,24.6,64.4,24.4,64.4,24.2z"/>
<path class="st4" d="M70.9,31c0.8,0.3,1.8-0.2,1.8-0.7s-0.8-0.5-1-1.3c-0.3-0.9,0.5-1.5,0.2-2.1s-1.4-0.8-2-0.4
	c-0.5,0.4-0.4,1.1-0.3,1.9C69.7,29.2,69.9,30.7,70.9,31z"/>
<path class="st5" d="M48.1,13.8c-5.5-1.9-6.6-3.3-8.1-2.5c-3.5,1.8-3.8,13.3,1.2,16.4c6.3,3.9,19.3-6.8,18.3-10.3
	C59,15.8,56,16.6,48.1,13.8z M43.4,25.7c-4-2-3.9-10.5-1.8-11.5c1-0.5,1.8,0.9,5.6,2.5c4.5,1.8,6.6,1.2,7,2.3
	C54.8,21.1,47.7,27.8,43.4,25.7z"/>
<rect x="18.5" y="42.2" transform="matrix(0.3794 -0.9252 0.9252 0.3794 -18.3682 59.8259)" class="st6" width="33.9" height="2.8"/>
<path class="st7" d="M20.6,56.2c-4.6,2.3-5,16.7,0.5,19.5c6.2,3.2,19.3-8.8,17.8-13.4c-0.4-1.2-3.6-2.3-9.8-4.3
	C22,55.7,21.1,56,20.6,56.2z"/>
<path class="st8" d="M26.5,62.5l1.8,0.7c0.6,0.2,1.3,0,1.5-0.6l3.1-7.6c0.2-0.6,0-1.3-0.6-1.5l-1.8-0.7c-0.6-0.2-1.3,0-1.5,0.6
	L25.9,61C25.6,61.6,25.9,62.3,26.5,62.5z"/>
<polygon class="st9" points="66.8,30.4 43.8,72.9 89.7,72.9 "/>
<polygon class="st10" points="66.8,34.2 46.9,70.7 86.7,70.7 "/>
<path class="st11" d="M57.5,65.5c-0.4-0.6,1.2-1.5,1.8-3.7c0.3-1.2,0-1.7,0.5-2.2c0.1-0.1,0.1-0.1,0.2-0.2c0.6-0.3,1.2-0.4,2.4-0.3
	c1.1,0.1,1.7,0.1,2,0.2c0.1,0,1.4,0.5,2,1.7c0.1,0.2,0.2,0.4,0.3,0.6c0.2,0.5,0.4,0.9,0.6,1.4c0.7,1.6,1,2.4,0.7,2.8
	c-0.3,0.4-1.2,0.4-1.8,0c-0.7-0.5-0.3-1.3-1.2-3.3c-0.5-1.1-0.9-1.5-1.4-1.8c-0.3-0.2-0.6-0.3-0.9-0.3c-1.4,0.2-1,4.2-3.1,5.3
	C58.9,66.1,57.8,65.9,57.5,65.5z"/>
<path class="st11" d="M60.5,58.5c0.1,0.3,1.1-0.1,2.6,0.1c1.3,0.2,1.6,0.7,2.2,0.4c1.1-0.4,1-2.4,1.6-2.4c0.4,0,0.5,0.8,1.5,1.8
	c0.3,0.3,1,1.1,1.3,1c0.3-0.2-0.5-1.3-0.7-3.4c0,0-0.2-1.8-0.8-2.5c-0.1-0.1-0.1-0.1-0.2-0.2c-0.5-0.4-0.8-0.2-2.4-0.6
	c-1.4-0.4-1.4-0.6-2.1-0.6c-0.2,0-1.7-0.1-2.7,0.9c-0.3,0.3-0.4,0.7-0.8,1.5c-0.4,0.8-0.6,1.3-0.4,1.6c0.2,0.5,0.8,0.8,1.3,0.7
	c0.4-0.1,0.7-0.5,0.8-0.7c0.3-0.5,0.1-0.9,0.4-1.2c0.4-0.4,1.3-0.5,1.5-0.1c0.1,0.1,0.1,0.4-0.6,1.2C61.6,57.6,60.3,58.2,60.5,58.5z
	"/>
<path class="st11" d="M66.9,49.2c-0.6,0.3-0.7,1-0.7,1.2c0,0.9,0.6,1.5,1.2,1.6c0.9,0.1,1.8-0.9,1.7-1.8
	C68.9,49.3,67.7,48.8,66.9,49.2z"/>
<path class="st12" d="M70.3,67.2c0.4,0.6,1.7,0.6,4.4,0.7c2.7,0.1,4.1,0.1,4.4-0.4c0.9-1.4-1.6-6.3-4.8-6.1
	C71.6,61.5,69.4,65.8,70.3,67.2z"/>
<rect x="65.8" y="50.9" transform="matrix(0.5 -0.866 0.866 0.5 -17.5773 86.5341)" class="st12" width="0.6" height="15.1"/>
<path class="st3" d="M10.5,45.7c0.3,2.6,0.5,3.8,1.5,4.7c2.1,1.8,5.8,0.8,6,0.8c3.7-1,5.1-4.6,5.1-7.3c0-2.5-1.2-4.8-1.8-4.8
	c-0.7,0-0.1,3.4-2.2,4.3c-0.8,0.3-1.6,0.1-3.1-0.1c-3.2-0.6-4.4-1.7-5.2-1.3C10,42.3,10.1,43.4,10.5,45.7z"/>
<path class="st1" d="M51.3,42.1c2.5-1,4,0.6,6-0.6c1.3-0.7,2.2-2.1,1.9-3.3c-0.4-1.3-2.1-1.2-4.8-2.8c-3.7-2.2-4.5-4.6-5.9-4.3
	c-0.8,0.2-1.1,1.1-1.6,2.6c-0.6,1.8-0.3,2.2-0.6,4.3c-0.5,2.7-1.5,3.3-0.9,4.6c0.4,0.9,1.4,1.7,2.4,1.7
	C49.1,44.3,49.3,42.8,51.3,42.1z"/>
<path class="st2" d="M49.8,39.8c0.8,0.6,2.4-0.2,2.5,0c0.2,0.3-2.9,2.2-3.6,1.7c-0.3-0.2,0-0.6-0.4-1.3c-0.4-0.6-1-0.7-0.9-1
	c0-0.5,1.1-0.9,1.6-0.7C49.6,38.7,49.2,39.4,49.8,39.8z"/>
<path class="st4" d="M20.6,42.3c0,0.2,0.2,0.5,0.4,0.6s0.2-0.1,0.7-0.3c0.4-0.2,0.7-0.1,0.7-0.2c0.1-0.2-0.2-0.3-0.4-0.7
	c-0.2-0.4,0-0.7-0.2-0.8C21.5,40.7,20.4,41.5,20.6,42.3z"/>
<path class="st4" d="M19.9,45.3c-1.2,0.1-1.3,0.3-1.4,0.3c-0.1,0.2,0,0.5,0.1,0.6c0.4,0.3,1.1,0.1,1.2,0.1c0.7-0.2,1.2-0.8,1.1-1
	C20.9,45.2,20.6,45.2,19.9,45.3z"/>
<path class="st4" d="M15.8,45.7c0.3,0.3,0.8,0.2,1.1,0.1c0.3-0.1,0.4-0.5,0.4-0.6c-0.1-0.1-0.3,0-0.6,0c-0.4-0.1-0.5-0.5-0.7-0.4
	C15.7,44.8,15.4,45.4,15.8,45.7z"/>
<path class="st4" d="M11.9,44c-0.3,0-0.4,0.5-0.3,0.9c0.1,0.5,0.6,0.9,0.9,0.9c0.3,0,0.2-0.3,0.6-0.5c0.5-0.3,1-0.1,1-0.3
	c0-0.1-0.3-0.3-0.6-0.4c-0.3-0.1-0.4,0-0.7-0.1C12.4,44.4,12.2,44,11.9,44z"/>
<path class="st4" d="M12.7,47.6c-0.1,0.2,0.1,0.3,0.2,0.7c0.2,0.6-0.2,1,0,1.1c0.1,0.1,0.5-0.2,0.7-0.4c0.1-0.2,0.4-0.5,0.2-0.9
	c-0.1-0.2-0.3-0.5-0.6-0.6C13,47.4,12.8,47.5,12.7,47.6z"/>
<path class="st2" d="M50.9,35c0.9-0.4,2,0.2,2.2,0.1c0.1-0.1-0.3-0.4-1.4-1.2c-1.8-1.2-2-1.3-2.2-1.2c-0.2,0.2,0.2,0.6,0.4,1.7
	c0.1,1-0.2,1.8,0,1.9C49.9,36.4,50,35.4,50.9,35z"/>
<path class="st4" d="M16.6,49.2c0.2,0.2,0,0.4-0.1,1c-0.1,0.5,0.1,0.7-0.2,0.8c-0.3,0.3-1-0.1-1.2-0.1c-0.7-0.3-1.3-0.9-1.1-1.1
	c0.1-0.2,0.9,0.3,1.3,0c0.3-0.2,0-0.7,0.3-0.9C15.9,48.8,16.4,48.9,16.6,49.2z"/>
<path class="st3" d="M81.1,24.7c-1,0.6-0.5,2.3-1.7,5.7c-0.6,1.6-0.9,2.5-1.7,3c-2.3,1.6-5.7-0.8-6.1-0.1c-0.3,0.6,1.5,3,4.3,4.3
	c3,1.4,8,2,11.3-1c0.1-0.2,3.5-3.2,2.7-6.2c-0.4-1.4-1.7-2.3-4.4-3.9C83.1,24.9,81.9,24.2,81.1,24.7z"/>
<path class="st1" d="M63,83c0.7-1,0.3-2.4-0.5-3.2c-1-1.3-2.3-0.6-5.7-1.5c-2.6-0.8-2.8-1.3-5.2-1.7c-2-0.3-3.2-0.5-3.9,0.2
	c-1.2,1.1,1.1,3.2,1.3,7.9c0.2,3.5-0.9,5.1,0.3,6.1c1.2,0.9,3.3,0.8,4.9-0.1c2.5-1.4,1.6-3.6,4.3-5.5C60.5,83.6,62.4,84.2,63,83z"/>
<path class="st2" d="M55.8,81.1c0.1-0.6,1.3-1.4,1.8-1.2c0.4,0.1,0.1,0.7,0.6,1.4c0.5,0.7,1.1,0.6,1.2,1c0.2,1-3.8,2.9-4.1,2.6
	c-0.2-0.2,1.8-1.3,1.5-2.4C56.7,81.7,55.7,81.7,55.8,81.1z"/>
<path class="st4" d="M73.1,34.8c0,0.2,0.4,0.1,0.8,0.6s0.3,0.8,0.6,0.8c0.2,0,0.2-0.3,0.7-0.6s0.7-0.3,0.8-0.5s-0.2-0.5-0.4-0.7
	C74.6,33.8,73.2,34.5,73.1,34.8z"/>
<path class="st4" d="M78.6,36.3c0.2,0.2,1.2,0.1,1.8-0.5c0.1-0.1,0.8-0.7,0.6-1.2c-0.1-0.2-0.3-0.4-0.6-0.4c-0.1,0-0.3,0.1-1.2,1.1
	C78.8,35.9,78.5,36.2,78.6,36.3z"/>
<path class="st4" d="M81,31.2c-0.1,0.2,0.2,0.4,0.1,0.9c-0.1,0.3-0.3,0.5-0.3,0.6c0.1,0.2,0.5,0.2,0.9,0c0.4-0.2,0.8-0.7,0.6-1.1
	C82.1,31,81.2,31,81,31.2z"/>
<path class="st4" d="M82.7,28.1c-0.1,0.3-0.3,0.4-0.3,0.7s-0.1,0.7,0,0.8c0.1,0.1,0.3-0.5,0.9-0.9c0.5-0.3,0.8-0.1,0.9-0.3
	c0.2-0.3,0-1-0.5-1.3c-0.4-0.3-1-0.4-1.1-0.2C82.5,27.2,82.9,27.6,82.7,28.1z"/>
<path class="st4" d="M85.8,30c-0.1,0.4,0.1,0.7,0.2,0.9c0.3,0.4,0.9,0.3,1.1,0.2c0.4-0.1,1-0.2,0.9-0.4c0-0.2-0.7,0-1.2-0.5
	c-0.3-0.3-0.4-0.6-0.6-0.6C86,29.6,85.8,29.8,85.8,30z"/>
<path class="st2" d="M52.9,80.6c0-0.2-1-0.4-2.1-1c-1.1-0.7-1.4-1.3-1.7-1.3c-0.2,0.1-0.2,0.3,0,2.7c0.2,1.5,0.3,2,0.4,2
	c0.3-0.1,0.2-1.5,1.2-2.1C51.7,80.3,52.9,80.8,52.9,80.6z"/>
<path class="st4" d="M85.9,33c0.4-0.2,0.7,0.3,1.2,0.2c0.6-0.2,0.5-1.2,0.7-1.2c0.3,0,0.6,0.8,0.6,1.7c0,0.1-0.1,1-0.6,1.2
	c-0.3,0.1-0.4-0.1-1-0.3c-0.7-0.3-1.1-0.1-1.2-0.4C85.5,33.8,85.6,33.2,85.9,33z"/>
<path class="st1" d="M35.7,27.4c0.7-1,0.3-2.4-0.5-3.2c-1-1.3-2.3-0.6-5.7-1.5c-2.6-0.8-2.8-1.3-5.2-1.7c-2-0.3-3.2-0.5-3.9,0.2
	c-1.2,1.1,1.1,3.2,1.3,7.9c0.2,3.5-0.9,5.1,0.3,6.1c1.2,0.9,3.3,0.8,4.9-0.1c2.5-1.4,1.6-3.6,4.3-5.5C33.2,28,35,28.5,35.7,27.4z"/>
<path class="st2" d="M28.5,25.5c0.1-0.6,1.3-1.4,1.8-1.2c0.4,0.1,0.1,0.7,0.6,1.4s1.1,0.6,1.2,1c0.2,1-3.8,2.9-4.1,2.6
	c-0.2-0.2,1.8-1.3,1.5-2.4C29.4,26.1,28.4,26.1,28.5,25.5z"/>
<path class="st2" d="M25.6,25c0-0.2-1-0.4-2.1-1c-1.1-0.7-1.4-1.3-1.7-1.3c-0.2,0.1-0.2,0.3,0,2.7c0.2,1.5,0.3,2,0.4,2
	c0.3-0.1,0.2-1.5,1.2-2.1C24.4,24.7,25.6,25.2,25.6,25z"/>
</svg>
