<?xml version="1.0" encoding="utf-8"?>
<!-- Generator: Adobe Illustrator 26.0.3, SVG Export Plug-In . SVG Version: 6.00 Build 0)  -->
<svg version="1.1" id="Ebene_1" xmlns="http://www.w3.org/2000/svg" xmlns:xlink="http://www.w3.org/1999/xlink" x="0px" y="0px"
	 viewBox="0 0 100 100" style="enable-background:new 0 0 100 100;" xml:space="preserve">
<style type="text/css">
	.st0{opacity:0.5;fill:#FFDC85;}
	.st1{fill:#603722;stroke:#FFFFFF;stroke-width:2;stroke-miterlimit:10;}
	.st2{fill:#5D4135;stroke:#000000;stroke-width:0.5;stroke-miterlimit:10;}
	.st3{fill:#493127;stroke:#000000;stroke-width:0.25;stroke-miterlimit:10;}
	.st4{fill:#493127;stroke:#000000;stroke-width:0.5;stroke-miterlimit:10;}
	.st5{fill:#5D4135;stroke:#000000;stroke-width:0.25;stroke-miterlimit:10;}
</style>
<ellipse class="st0" cx="50.4" cy="50.7" rx="46.9" ry="45"/>
<g>
	<g id="Ebene_1_00000017510764199299988230000010460311392665681541_">
		<polygon class="st1" points="12,28 51,5.5 90,28 90,73 51,95.5 12,73 		"/>
	</g>
	<path class="st2" d="M42.4,77.8c-2.5,0.8-5,3-4.9,5.1c0.2,3.1,6,4.8,6.9,5c8.4,2.4,18.5-2,24.5-9c1.7-2.1,6.6-7.7,5.5-14.6
		c-0.8-4.9-4.2-9.1-5.5-8.7c-1.5,0.5,1.8,7-0.8,14.4c-1.6,4.5-5.9,10.5-11.5,11.2C50.7,81.9,47.8,76.1,42.4,77.8z"/>
	<path class="st3" d="M48.3,83.7c0-0.1,0-1.7-1.2-2.7c-0.8-0.7-1.7-0.8-2.8-0.8c-1,0-2.1-0.1-2.7,0.7c-0.4,0.5-0.6,1.3-0.3,1.6
		c0.5,0.5,1.7-0.6,2.5,0c0.3,0.2,0.4,0.9,0.7,2.2c0.2,1.1,0.2,1.4,0.4,1.6c0.6,0.5,1.7,0.2,2.4-0.3C48.2,85.1,48.2,84,48.3,83.7z"/>
	<path class="st3" d="M54.1,84.9c0.5,0.2,1.1-0.2,1.4-0.3c2-1.2,3.1-0.6,5.1-1.6c1.2-0.7,0.8-0.9,3.3-3.4c2.2-2.3,2.7-2.3,4.2-4.1
		c1.4-1.6,2.6-3.6,2.4-3.8c-0.2-0.1-1.5,1.1-4,3.5c-1.6,1.5-2.4,2.3-3.2,3.1c-1.4,1.6-1.3,1.7-2.2,2.5c-0.5,0.4-1.8,1.5-3.7,1.8
		c-0.4,0.1-1.1,0.2-2.3,0.5s-1.6,0.4-1.7,0.7C53.2,84.2,53.5,84.8,54.1,84.9z"/>
	<path class="st3" d="M72.9,64.4c-0.3-1.2-0.9-2.3-2.2-4.6c-0.3-0.6-0.5-0.8-0.6-0.8c-0.6,0.1-0.3,4.9,0.1,4.9
		c0.2,0,0.5-1.3,0.7-1.3s0,1,0.4,2.1c0.4,1.3,1.4,2.4,1.7,2.3C73.4,66.9,72.9,64.5,72.9,64.4z"/>
	<path class="st4" d="M70.6,20.4c-1.9-3.2-19.9-7.2-29.7-4.2c-3.6,1.1-6.1,3.1-5.3,3.8c0.9,0.8,4.9-0.8,11.2,0.6
		c5.4,1.2,6.6,3.2,10.8,4.1C64.6,26,72.1,22.8,70.6,20.4z"/>
	<path class="st5" d="M60.3,17.6c1.6,0,3.5,0.6,5,1.6c1.1,0.8,2.3,2,1.8,2.9c-0.4,0.8-1.8,0.9-4.2,1c-1.6,0.1-3.9,0.2-4.5-0.3
		s0.4-1.8,2.2-2c1.7-0.2,3.4,0.6,3.8,0.2c0.3-0.3-0.6-1.4-1.9-1.9c-2.1-0.9-4.5-0.3-4.8-0.6C57.6,18.2,58.7,17.6,60.3,17.6z"/>
	<path class="st5" d="M56.9,20.5c0-0.2-2.4-0.5-4.7-1.7c-1.7-0.9-2.2-1.7-3.3-1.9c-1-0.1-1.9,0.2-1.8,0.7c0.3,0.8,4.3,1.3,5.3,2.7
		c0.1,0.2,0.3,0.6,0.8,1c0.2,0.2,0.8,0.7,1.6,0.8c0.8,0.1,1.4-0.4,1.1-0.8c-0.2-0.4-1.6-0.7-1.6-0.8C54.4,20.2,56.9,20.6,56.9,20.5z
		"/>
	<path class="st5" d="M44.3,17.6c-0.3-0.1-1.4-0.4-3.4,0c-0.8,0.1-2.3,0.6-2.1,0.8c0.1,0.2,1,0.2,2.2,0.3c1.1,0.1,1.1,0,1.8,0
		c1.8,0.1,2.6,0.7,3.1,0.5c0.4-0.2,0.1-0.8-0.5-1.3C45.2,17.9,44.9,17.8,44.3,17.6z"/>
	<path class="st4" d="M33,32.9c-2.2-4.3-8.2-6.5-11.3-4.1c-8.2,6.3,0.5,46.5,5.5,46.7c0.9,0,1.5-1.2,2-2.2c3.5-6.7-3-14.8-0.2-22.7
		c1.3-3.6,3-3.1,4.2-7.6C33.6,41.9,34.9,36.7,33,32.9z"/>
	<path class="st5" d="M27.5,71c0.9-0.9,0.4-4.1-0.1-7.1c-0.6-3.7-1.2-4.3-1.1-6.5c0.1-2.6,1-3.5,0.5-4.5c-0.6-1.4-3.2-1.5-4.2,0.4
		c-0.8,1.7-0.1,4.3,0.2,5.4c0.8,3,2,3.1,2.3,5.2c0.3,2.6-1.2,3.8-0.7,5.5C24.8,70.8,26.6,71.7,27.5,71z"/>
	<path class="st5" d="M27.5,45.8c1.1,0.4,2.7-6.5,2.9-7c0.3-1.2,1.4-5.8,0.6-6.5c-0.5-0.4-1.7,0.5-2.2,1.9c-0.6,1.7,0.3,3.4-0.5,4.8
		c-0.4,0.7-0.7,0.5-1,1.1C26.2,41.7,26.7,45.6,27.5,45.8z"/>
	<path class="st5" d="M21.4,43.2c1.4,1.4,5-1.2,5.8-5.3c0.5-2.4,0.1-6-1.3-7c-1.4-1-3.2,1.1-3.4,1.3C20.2,35.1,19.9,41.7,21.4,43.2z
		"/>
	<path class="st4" d="M77.1,75.8c-1.8-1.3,2.7-6.4,1.2-12.9c-2.1-9.6-14.3-11.2-14.8-20c0-0.6-0.2-3.4,1.1-4.1
		c1.3-0.7,3.5,0.7,4.8,2.2c2.2,2.5,1,4.5,2.9,6.4c2,2,4.1,0.5,5.5,2.4c1.3,1.8-0.2,3.5,0.9,7c0.6,2,1.3,1.9,3,5.2
		c2,3.7,3.2,5.7,2.8,8C83.8,73.8,78.7,77,77.1,75.8z"/>
	<path class="st5" d="M79.4,75.2c-0.5-0.2,0.1-1.5,0.4-4.5c0-0.5,0.3-3.5,0-6c-0.6-4.7-3.1-7.7-2.9-7.8s2.3,3,4.3,6.9
		c2.4,4.7,2.4,6,2.2,6.9C82.8,73.5,80.1,75.7,79.4,75.2z"/>
	<path class="st5" d="M76.8,53.6c-0.8,0.6-2.2,0.8-3,0c-0.7-0.7-0.5-1.9-0.1-2.6c0.8-1.3,3-1.7,3.8-0.8C78.3,51,77.9,52.7,76.8,53.6
		z"/>
	<path class="st5" d="M68.6,48.8c-0.2,0-0.6-0.1-1.5-1.5s-1.6-2.3-1.2-2.9c0.3-0.5,1.1-0.7,1.5-0.4c0.6,0.4-0.1,1.4,0.5,2.3
		c0.7,1,2.3,0.8,2.4,1.4C70.2,48.2,69.3,48.9,68.6,48.8z"/>
	<path class="st5" d="M68.8,44.7c-0.3,0,0.2-1.3-0.5-2.3c-0.9-1.3-2.9-1.1-3-1.7c0-0.4,0.8-0.9,1.6-1c1.3-0.1,2.6,1,2.9,2.4
		C70.1,43.4,69.1,44.8,68.8,44.7z"/>
	<path class="st2" d="M86.4,47.2c1-4.1-3.3-8.2-7.1-9.1c-2.5-0.6-5.8-0.1-6.3,1.4c-0.4,1.1,1.2,1.9,3.1,4.7c2.8,4.4,1.9,7.1,3.8,7.8
		C81.9,52.8,85.6,50.3,86.4,47.2z"/>
	<path class="st3" d="M84.6,45.8c0.4-0.7-1.1-2.4-2.6-3.5c-1.6-1.2-4.4-2.6-5.1-1.8c-0.5,0.4-0.1,1.4,0.1,2.2
		c0.5,1.7,1.4,1.7,2.1,3.3c0.8,1.8,0.3,2.5,1.2,3.3c0.9,0.8,2.5,1,2.9,0.5c0.6-0.7-1.1-2.5-0.5-3.3C83.1,45.8,84.3,46.3,84.6,45.8z"
		/>
	<path class="st4" d="M35.5,77.2c0.7-0.9,0.8-3,0.3-4c-1-1.8-4.4-0.4-5.2,2.3c-0.4,1.4-0.2,3.1,0.5,3.6c0.5,0.3,1-0.5,2.6-1.1
		C34.9,77.5,35.2,77.7,35.5,77.2z"/>
	<path class="st5" d="M35,75.9c0.2-0.2,0.4-1.1,0.2-1.7c-0.2-0.8-1.1-0.7-1.5-0.6c-0.7,0.1-2.1,0.6-2.3,1.9c-0.2,0.6,0,1.4,0.3,1.5
		c0.4,0.1,0.6-0.9,1.4-1.3c0.5-0.3,0.9-0.2,1-0.1C34.6,75.7,34.8,76.1,35,75.9z"/>
	<path class="st5" d="M34.1,76.8c0.1-0.5-0.2-0.7-0.2-0.7c-0.3-0.4-0.9,0-1.1,0.5c-0.1,0.2-0.1,0.4-0.1,0.5c0.1,0.1,0.2-0.2,0.4-0.2
		c0.1,0,0.1,0.1,0.3,0.4c0.2,0.2,0.2,0.3,0.3,0.3C33.8,77.6,34,77.2,34.1,76.8z"/>
	<path class="st2" d="M45.5,32c2.3-0.9,5-4.3,5-6.2c-0.2-3.4-9.8-3.5-15.7,1.6c-2.3,2-4.2,4.9-3.7,5.6c0.5,0.8,3.7-2.3,7.5-2.6
		C42.4,29.9,42.8,33.1,45.5,32z"/>
	<path class="st3" d="M48.1,28.6c0.8-0.9,0.4-2.3,0-3c-0.2-0.3-0.7-1.1-1.7-1c-0.3,0-0.7,0.1-1,0.5c-0.6,0.7,0.3,1.7-0.2,2.4
		c-0.4,0.4-0.9,0.2-2.4,0.7c-0.8,0.3-1.6,0.6-1.8,1c-0.3,0.6,1,1.6,2.7,1.3c0.7-0.1,0.7-0.4,2.5-1C47.5,28.9,47.7,28.9,48.1,28.6z"
		/>
	<path class="st3" d="M42.5,26.1c0.1-0.4-1.1-0.9-2.8-0.7c-0.3,0-1.8,0.2-2.1,0.8c-0.3,0.5,0.4,1.1,1.2,1c0.6-0.2,0.8-0.7,1.2-0.8
		c0.6,0,0.1,1.4,1,1.7c0.4,0.1,1.1-0.2,1.3-0.4c0.2-0.3-0.7-0.6-0.5-1C41.8,26.3,42.4,26.3,42.5,26.1z"/>
	<path class="st3" d="M37.8,29.3c0.2-0.2-0.4-1.2-1.6-1.5c-0.3-0.1-0.6-0.1-0.9,0c-1.2,0.5-2.3,2.4-2.1,2.6c0.1,0.1,0.4-0.2,1.4-0.7
		c0.4-0.2,1-0.5,1.5-0.5C37.2,29,37.6,29.5,37.8,29.3z"/>
	<path class="st2" d="M37,56.4c-1.1-0.5-4,0.8-5.3,2.5c-4.3,5.7,9.6,17.4,11.5,16.6c0.3-0.1,0.2-0.6,0.1-1.4
		c-0.7-5.4-5.9-6.5-6.8-10.8C35.7,59.7,38.4,57,37,56.4z"/>
	<path class="st3" d="M35.4,58c-0.9-0.3-2.1,0.2-2.3,0.8c0,0-0.1,0.4,0.1,0.6c0.5,0.6,2.3,0.6,2.8,0C36.4,59,36.1,58.2,35.4,58z"/>
	<path class="st3" d="M33.9,60.9c0-0.1-0.3-0.1-0.6-0.2c-0.5,0-1-0.1-1.4,0.1c-0.5,0.3-0.3,1-0.1,1.4c0.1,0.2,0.3,0.6,0.8,0.7
		c0.7,0,1.1-0.8,1.7-0.8c0.5,0,0.6,0.8,0.8,0.8c0.3,0,0.6-1,0.1-1.3c-0.2-0.1-0.6,0-1.4,0.1c-0.6,0-1.3,0-1.3-0.2
		C32.5,61.3,33.9,61.1,33.9,60.9z"/>
	<path class="st3" d="M35.6,65.5c-0.5-0.4-1.3-0.8-1.7-0.7c-0.4,0.2-0.2,0.9,0,1.4c0.5,0.9,1.3,0.8,2.2,1.7c0.8,0.8,0.7,1.5,1.3,1.5
		c0.4,0,0.9-0.3,0.9-0.7c0-0.4-0.8-0.4-1.6-0.9C35.9,67.1,36.6,66.3,35.6,65.5z"/>
	<path class="st3" d="M38.1,67.8c0-0.1,0.4-0.2,0.7-0.1c0.4,0.1,0.3,0.4,0.7,0.9c0.4,0.6,0.8,0.5,1,1c0,0,0.2,0.7-0.3,1.2
		c-0.4,0.3-1.1,0.6-1.3,0.5s0.1-0.5,0.3-1.6c0.1-0.5,0.1-0.8,0-1C38.8,68.1,38,68,38.1,67.8z"/>
	<path class="st4" d="M75.9,25.2c-1.8-1.6-5.1-1.4-6.7,0.1C66,28.4,69.6,37.8,72.6,38c2.1,0.1,4.7-4.4,4.7-8.4
		C77.3,28.4,77.3,26.4,75.9,25.2z"/>
	<path class="st5" d="M76.3,31c-0.3-0.4-1.2-0.5-1.7-0.2c-1.4,0.6-1.4,3.1-1.8,3.1c-0.3,0-0.2-1.6-1-1.9c-0.5-0.2-1.4,0.1-1.7,0.7
		c-0.7,1,0.1,3,1.4,3.4c0.9,0.3,1.8-0.1,2.3-0.4C75.7,34.7,77,31.9,76.3,31z"/>
	<path class="st5" d="M73.9,28.4c0-0.2-0.1-1.3-0.9-1.6c-1-0.5-2.1,0.5-2.2,0.6C70.3,27.9,69.5,29,70,30c0.5,0.9,1.7,1.1,2.6,0.8
		C73.5,30.2,73.9,29.2,73.9,28.4z"/>
</g>
</svg>
