<?xml version="1.0" encoding="utf-8"?>
<!-- Generator: Adobe Illustrator 26.0.3, SVG Export Plug-In . SVG Version: 6.00 Build 0)  -->
<svg version="1.1" id="Ebene_1" xmlns="http://www.w3.org/2000/svg" xmlns:xlink="http://www.w3.org/1999/xlink" x="0px" y="0px"
	 viewBox="0 0 100 100" style="enable-background:new 0 0 100 100;" xml:space="preserve">
<style type="text/css">
	.st0{fill:#804122;stroke:#000000;stroke-width:2;stroke-miterlimit:10;}
	.st1{stroke:#FFFFFF;stroke-width:0.5;stroke-miterlimit:10;}
	.st2{fill:#00B400;stroke:#000000;stroke-width:2;stroke-miterlimit:10;}
	.st3{fill:#B40000;stroke:#FFFFFF;stroke-width:0.5;stroke-miterlimit:10;}
</style>
<g id="Ebene_2_00000093860788734264317370000010671531211922489223_">
</g>
<g id="Ebene_1_00000017510764199299988230000010460311392665681541_">
	<polygon class="st0" points="8,25.8 50,1.6 92,25.8 92,74.3 50,98.6 8,74.3 	"/>
</g>
<path class="st1" d="M13,70.4c0.1,0.6,3.7,0.9,6.6,0.8c3.4-0.1,5.1-0.1,6.7-0.9c5.3-2.7,5.2-11.8,6.4-11.6c0.6,0.1,0.6,2.7,1.5,8
	c1.2,7.1,2.3,8.6,3.6,9.2c0.1,0,2,0.9,3.1,0c2.7-2.1-3.9-10.4-2.5-17.5c0.2-0.9,0.9-4-0.7-6.4c-0.2-0.3-0.4-0.5-0.5-0.6
	c-1.8-1.9-5.5-2.7-7.6-1.4c-2.2,1.4-0.9,4.2-3.7,11c-0.8,2-1.2,2.9-2,3.9C20,70,12.9,69.6,13,70.4z"/>
<path class="st1" d="M30.8,46.9c0.7,1,2,1.4,3.7,1.9c1.8,0.5,3.3,1,4.2,0.4c2.3-1.5-0.9-8.5,0.3-9.1c1.3-0.6,4.5,6.9,8.5,6.6
	c3.7-0.3,6.3-7.4,5.6-7.9c-0.6-0.4-2.8,3.8-6,3.5c-2-0.2-2.5-2.1-6.9-5.9c-2.3-2-3.4-3-4.5-3.4c-5.4-1.8-14.3,3.4-14.4,8.5
	c-0.1,2.4,1.8,4.9,3,4.7c1.2-0.1,1-2.9,3.6-5.7c1.8-2,4.4-3.4,5.1-2.9C34,38.4,28.8,44,30.8,46.9z"/>
<path class="st1" d="M37.6,29.4c0.2,1.5,1.3,3.2,3.1,3.5c2.1,0.3,3.9-1.3,4.6-3c1-2.5-0.6-5.6-2.8-6C40.1,23.6,37.3,26.7,37.6,29.4z
	"/>
<path d="M41.1,43.1"/>
<rect x="64.7" y="32" class="st2" width="21.8" height="41.3"/>
<rect x="53.2" y="50.4" class="st3" width="13.6" height="2.1"/>
<polygon class="st3" points="66.8,48.8 66.8,54 71.3,51.4 "/>
</svg>
