<?xml version="1.0" encoding="utf-8"?>
<!-- Generator: Adobe Illustrator 26.0.3, SVG Export Plug-In . SVG Version: 6.00 Build 0)  -->
<svg version="1.1" id="Ebene_1" xmlns="http://www.w3.org/2000/svg" xmlns:xlink="http://www.w3.org/1999/xlink" x="0px" y="0px"
	 viewBox="0 0 100 100" style="enable-background:new 0 0 100 100;" xml:space="preserve">
<style type="text/css">
	.st0{fill:#8A3C8F;stroke:#000000;stroke-width:2;stroke-miterlimit:10;}
	.st1{fill:#3C0606;stroke:#000000;stroke-miterlimit:10;}
	.st2{fill:#AC1C1C;stroke:#000000;stroke-miterlimit:10;}
	.st3{fill:#FFC600;}
	.st4{fill:#FFD700;}
	.st5{fill:#E6BE00;}
	.st6{fill:#C81C1C;stroke:#000000;stroke-miterlimit:10;}
	.st7{fill:#E44E1C;stroke:#000000;stroke-miterlimit:10;}
	.st8{fill:#E4801C;stroke:#000000;stroke-miterlimit:10;}
	.st9{fill:#C6D300;stroke:#000000;stroke-miterlimit:10;}
</style>
<g id="Ebene_1_00000009555231547046583080000011892253992037278349_">
	<g id="Ebene_2_00000037695081456361326870000000537167486581588369_">
	</g>
	<g id="Ebene_1_00000061445211855329728190000003209767103334527892_">
		<polygon class="st0" points="8,25.8 50,1.6 92,25.8 92,74.3 50,98.6 8,74.3 		"/>
	</g>
</g>
<path class="st1" d="M32.5,32.9c3.7-1.6,5.1,0.3,17.2,0.4C63.1,33.4,65.1,31,69,33c10.6,5.4,13.9,32.4,2.7,41.2
	c-3.8,3-10.1,2.9-22.7,2.7c-12.4-0.2-18.5-0.3-22.1-3.4C16.5,64.4,21.4,37.9,32.5,32.9z"/>
<path class="st2" d="M33.7,32.1c-0.1,2.1,8.3,4.8,16.1,4.9c8.4,0.1,17.5-2.6,17.5-4.9c0-1.7-5.2-3.9-9.8-3.4
	c-2.8,0.3-3.6,1.4-6.8,1.3c-3.1,0-3.9-1.1-6.6-1.5C39.4,27.9,33.8,30.3,33.7,32.1z"/>
<g>
	<g id="Ebene_1_00000140009915772017522300000016664586206789009556_">
		<path class="st3" d="M71,34l-7-19.8l-20.5-3.8L29.9,26.3l7,19.7l20.5,3.8L71,34z M57,48.4l-19-3.6l-6.5-18.3l12.6-14.7l19,3.6
			l6.5,18.3L57,48.4z"/>
		<path class="st4" d="M44.1,11.8L31.5,26.5L38,44.8l19,3.6l12.6-14.7l-6.5-18.3L44.1,11.8z M45.3,35.6l-7.5-1.4l-2.5-7.4l5-5.9
			l7.5,1.4l2.5,7.4L45.3,35.6z M61.2,39l-5,5.9l-7.5-1.4l-2.5-7.4l5-5.9l7.5,1.4L61.2,39z M58.8,30.8l-7.5-1.4L48.8,22l5-5.9
			l7.5,1.4l2.5,7.4L58.8,30.8z"/>
	</g>
	<path class="st5" d="M48.8,14.8c-1.1-0.5-2-0.2-2.9-1.1c-0.2-0.2-0.4-0.4-0.5-0.5c-0.5-0.2-1.3,0.4-1.4,0.9
		c-0.2,0.7,0.2,1.3,0.4,1.4c0.7,0.9,2,1.1,3.2,1.1c0.7,0,2.5,0.2,2.7-0.5C50.2,15.9,49.5,15.2,48.8,14.8z"/>
	<path class="st5" d="M47.7,18.4c-1.1-0.4-1.6,0.5-2.9,0.4c-0.2,0-0.7-0.2-1.3-0.5c-0.5-0.7-0.2-1.3-0.7-1.6c-0.7-0.5-2.9,0.4-3.4,2
		c-0.2,0.5-0.2,1.3,0,1.4c0.4,0.2,1.1-1.1,2-0.9c0.7,0,0.7,0.9,1.8,1.4s2.2,0.4,2.9,0.2c1.1-0.2,2.5-0.9,2.5-1.4
		C48.6,18.6,47.7,18.4,47.7,18.4z"/>
	<path class="st5" d="M65.5,25.4c-0.4-1.4-0.7-1.8-0.9-3.1c-0.2-1.3,0-1.3-0.2-2.5c-0.4-1.6-1.3-3.2-1.4-3.2c-0.2,0-0.2,0.5-0.2,0.9
		c0.2,0.9,0.7,1.1,0.9,2c0.2,0.5,0,0.7,0,1.6c0,0.5,0,1.1,0.5,2.7c0.5,1.8,1.6,4.8,1.8,4.7C66.2,28.6,65.8,26.8,65.5,25.4z"/>
	<path class="st5" d="M63.1,31c0.2-0.4,0.9,0,1.6-0.4c0.5-0.4,0.9-1.3,0.7-1.6c-0.2-0.2-0.5,0-1.3,0c-0.9,0-0.9-0.5-1.4-0.5
		c-0.7,0-1.6,1.1-1.8,2.2c-0.2,1.1,0.7,1.4,0.7,2.5c0,0.9-0.7,1.4-0.5,1.6c0.2,0.4,2.5-1.1,2.5-2.3C63.5,31.7,62.9,31.3,63.1,31z"/>
	<path class="st5" d="M67.4,34c0.4-0.9,0.7-0.9,0.9-1.4c0.2-0.9-0.4-2-0.9-2c-0.4,0-0.4,0.5-0.9,1.1c-0.5,0.4-1.1,0-1.3,0.4
		c-0.4,0.4,0.5,1.1,0.4,1.8c-0.2,0.9-2.2,0.7-2.3,1.4c-0.2,0.5,0.7,1.6,1.6,1.6c1.1,0.2,1.8-1.1,2-1.3C67.1,35.1,66.9,34.9,67.4,34z
		"/>
	<path class="st5" d="M43.7,36.9c0,0-0.2-0.2-0.7-0.4c-1.4-0.5-1.6-0.5-1.8-0.4c-0.4,0.2-0.7,0.5-0.5,0.7c0,0.4,0.7,0.4,0.7,0.5
		s-1.1,0.2-1.3,0.7c-0.2,0.4,0.2,1.1,0.5,1.3c0.7,0.2,1.1-1.1,1.8-1.1c0.5,0.2,0.5,1.4,0.9,1.4s0.5-0.7,0.7-1.3
		C44.1,38.1,44.3,37.4,43.7,36.9z"/>
	<path class="st5" d="M46.6,41c-0.5-1.1-0.9-1.8-1.1-1.6c-0.4,0,0,1.1-0.5,1.6s-1.6,0.2-2,0c-0.9-0.2-1.1-0.7-1.4-0.5
		c-0.5,0.2-0.7,1.1-0.5,1.6s0.9,0.7,0.9,0.7c0.9,0.2,1.3-0.4,1.8-0.2c0.2,0.2,0.2,0.4,0.5,0.7s0.9,1.3,1.4,1.1c0.7,0,1.3-1.1,1.3-2
		C47.1,42.3,47.1,42.1,46.6,41z"/>
	<path class="st5" d="M39.4,36.4c0.5-0.7,0.7-0.7,0.7-0.9c-0.2-0.4-1.8,0.5-2.9-0.4c-0.4-0.4-0.2-0.4-1.1-2.2
		c-0.5-1.1-0.7-1.6-0.9-1.4c-0.4,0-0.2,1.4,0,2.5c0.2,0.7,0.4,1.4,0.9,2.3C36.6,37,37,37,37,37.6c0.2,0.9-0.4,1.4,0,1.8
		c0.2,0.2,0.7,0.2,1.1-0.2c0.4-0.2,0.2-0.5,0.5-1.3C38.7,37.6,38.9,37.1,39.4,36.4z"/>
	<path class="st5" d="M36.5,22.9c-0.7-0.4-2.2,0.7-2,1.3c0,0.4,0.5,0.5,1.1,0.7c0.5,0,1.3-0.4,1.4-1.1
		C37.1,23.4,36.9,23.1,36.5,22.9z"/>
	<path class="st5" d="M34.2,28.6c-0.7-1.3,0.2-2.5-0.2-2.7c-0.2-0.2-0.7,0.2-0.9,0.7c-0.2,0.4-0.2,0.7-0.2,0.9
		c0,0.5,0.4,0.7,0.5,1.3c0.4,1.1,0.2,1.8,0.4,1.8c0.2,0.2,0.9-0.4,0.9-0.9C34.8,29.2,34.6,29.2,34.2,28.6z"/>
	<path class="st5" d="M55.6,45.5c-0.2-0.2-0.5,0-1.3,0c-0.4,0-0.7-0.2-1.1-0.2c-0.7-0.2-0.9-0.4-1.4-0.5s-1.6-0.4-1.8,0
		s0.2,0.9,0.7,1.1c0.5,0.2,0.9-0.2,1.6,0c0.5,0.2,0.5,0.4,1.4,0.7c0.4,0.2,1.4,0.5,2,0.2C55.8,46.4,55.8,45.9,55.6,45.5z"/>
	<path class="st5" d="M60.4,41.6c-0.4-0.2-1.1,0.4-1.1,0.9c0,0.2,0,0.5,0.2,0.7c0.4,0.2,1.1-0.2,1.3-0.7
		C61,42.1,60.8,41.6,60.4,41.6z"/>
	<path class="st5" d="M59.5,44.6c-0.2-0.4-1.1-0.5-1.6-0.4c0,0-0.7,0.4-0.7,0.9s0.5,0.9,1.1,0.9C58.8,46,59.7,45.1,59.5,44.6z"/>
	<path class="st5" d="M64.6,37.8c-0.2-0.2-1.1,1.1-1.8,0.7c-0.4-0.2-0.4-1.3-0.5-1.3s-0.4,0.4-0.5,0.9c0,0.7,0.4,0.9,0.5,1.8
		c0,0.5,0,0.7,0,0.7c0.2,0,0.5-0.7,1.4-2C64.4,38.3,64.7,37.8,64.6,37.8z"/>
	<path class="st5" d="M57.2,15c-0.7-0.4-1.1,0-2.3-0.2c-1.1-0.2-1.3-0.5-1.8-0.4c-0.4,0.2-0.7,0.5-1.3,1.3c-0.5,0.5-1.3,1.6-1.1,1.8
		c0.2,0.2,1.3-0.2,2.2-1.1c0.7-0.5,0.7-0.9,1.1-1.1c0.7-0.2,1.3,0.7,2.5,0.9c0.5,0,1.4,0,1.4-0.4C57.9,15.5,57.6,15.2,57.2,15z"/>
	<path class="st5" d="M60.3,15.3c0,0-0.9-0.2-1.3,0.2c0,0.2,0,0.4,0,0.5c0.2,0.2,0.4,0.2,1.1,0.2c1.3,0,1.3,0,1.3-0.2
		C61.5,15.9,61,15.5,60.3,15.3z"/>
	<path class="st5" d="M40.5,42.6c-0.5-0.9,0-2-0.4-2.2c-0.4-0.4-1.4,0.2-1.8,0.9c-0.2,0.4-0.2,0.7,0,1.4s0.2,1.3,0.5,1.6
		c1.1,0.9,3.2,0,3.2-0.5C42.1,43.4,41,43.5,40.5,42.6z"/>
	<path class="st5" d="M48.8,44.4c-0.2-0.2-0.5,0.5-1.4,0.5c-0.4,0-0.5,0-1.4-0.2c-0.7,0-1.1,0-1.1,0c-0.2,0.2,1.8,1.6,3.1,0.9
		C48.6,45.5,48.9,44.6,48.8,44.4z"/>
	<polygon class="st3" points="58.6,29.9 63.1,24.7 60.8,18.2 54,17 49.5,22.2 51.8,28.6 	"/>
	<polygon class="st3" points="45,34.9 49.5,29.5 47.1,23.1 40.5,21.8 36,27 38.2,33.5 	"/>
	<polygon class="st3" points="55.8,44.1 60.3,38.9 58.1,32.4 51.3,31 46.8,36.4 49.1,42.8 	"/>
	<path class="st4" d="M50.2,23.6c0.4-0.5,1.4,0.4,2.3-0.2c0.4-0.4,0.2-0.5,0.9-1.3c0.7-0.9,1.4-0.9,1.6-1.4c0-0.5-0.4-0.7-0.2-1.3
		c0.2-0.5,0.5-0.5,0.7-0.9c0.2-0.5-0.9-1.1-0.7-1.3c0-0.2,0.5-0.2,2,0.2c2.2,0.5,2.3,0.7,2.3,0.9c0,0.5-1.8,0.7-1.8,2
		c0,0.2,0,0.2,0,0.5c-0.2,1.3-1.8,1.6-1.6,2.2c0,0.5,1.3,0.7,3.6,1.8c1.6,0.7,2,1.1,2,1.4c0,0.2-0.2,0.4-1.1,1.4
		c-0.7,0.9-0.7,1.1-0.9,1.1c-0.7,0-0.5-2.2-2.2-3.2c-0.7-0.4-1.4-0.7-1.6-0.4c-0.2,0.2,0.4,0.7,0.2,1.4C55.5,27,55,27,55,27.6
		c-0.2,0.7,1.6,1.6,1.4,1.8c0,0.2-0.7-0.2-1.8-0.4c-0.9-0.2-1.4,0-1.6-0.4c-0.2-0.2,0-0.5,0.2-0.9c0.7-1.8,1.3-2.2,0.9-2.5
		c-0.2-0.4-1.1-0.4-1.6,0.2c-0.4,0.4-0.5,0.7-0.5,0.7c-0.2,0.4-0.4,0.4-0.4,0.4c-0.2,0-0.4-0.4-0.7-1.6C50.2,23.8,50,23.8,50.2,23.6
		z"/>
	<path class="st4" d="M44.1,26.3c-0.9,0.4-1.4,1.6-1.3,2.2c0.4,0.7,2,0,2.7,0.9c0.5,0.5,0.2,1.3,0.7,1.6c0.7,0.4,1.8-0.4,1.8-0.2
		c0.2,0.2-0.5,0.7-1.6,2.2c-0.5,0.7-0.9,1-1.1,1c-0.2-0.2,0-0.9-0.4-1.6c-0.4-0.4-0.5-0.5-1.6-0.7c-0.7-0.4-1.8-0.7-2.7-1.3
		c-0.5-0.4-1.6-1.1-1.4-2c0-0.4,0.4-0.4,0.7-0.9c0.7-1.1,0.4-1.8,0.9-2.3c0.4-0.4,0.7-0.4,2.3-0.5c2.9-0.2,3.6-0.5,4.1,0
		c0.4,0.2,0.4,0.5,0.7,1.3c0.2,0.5,0.9,2,0.5,2.3S45.9,25.8,44.1,26.3z"/>
	<path class="st4" d="M52.5,31.7c-0.4,0.2-0.4,0.9-0.2,1.3c0.2,0.4,0.5,0.4,0.5,0.9c0,0.4-0.2,0.4-0.4,0.9s0,0.7-0.2,0.7
		c-0.2,0.2-1.3-0.4-1.8-1.1C49.9,33.7,50,33,49.9,33c-0.2,0-0.4,0.4-0.9,1.1c-0.5,0.5-0.7,0.7-0.9,1.1c-0.2,0.4-0.2,0.9,0,1.3
		c0.4,0.4,0.9-0.4,1.6-0.2c0.5,0.2,1.1,0.7,1.3,1.3c0.2,0.5,0,1.4-0.4,1.8c-0.9,0.4-2.3-1.4-2.9-1.3c-0.2,0.2,0,0.9,0.5,2.5
		c0.5,1.8,0.9,2,0.9,2.2c0.2,0.2,0.4,0.2,2.2,0.7c1.6,0.4,2.2,0.5,2.5,0.2c0.2-0.2,0.4-0.4,0.4-0.7c0-0.5-0.9-0.5-0.9-1.1
		c0-0.4,0.7-0.5,0.9-1.3c0-0.2,0.2-0.5,0-1.1s-0.9-0.7-0.9-0.9s0.7-0.4,1.3,0c1.4,0.5,1.3,3.1,2.3,3.4c0.7,0.2,1.4-0.9,1.6-1.1
		c0.4-0.4,0.7-0.9,0.5-1.4c-0.2-0.9-1.8-0.9-1.8-1.4s1.8-0.2,2.2-1.1c0.2-0.2,0-0.7-0.4-1.6C58.6,34,58.6,34,58.5,34
		c-0.4,0-0.4,0.9-0.7,0.9s-0.5-0.4-0.9-0.2c-0.4,0-0.4,0.4-0.5,0.7c-0.5,0.5-1.6,0.5-1.8,0.2c-0.4-0.5,0.4-2.2,1.4-2.5
		c0.2-0.2,0.7-0.2,0.9-0.5c0.2-0.2-0.2-0.5-0.2-0.5c-0.4-0.4-0.9-0.2-2-0.4C53.2,31.7,52.9,31.3,52.5,31.7z"/>
</g>
<g>
	<g id="Ebene_1_00000129187258032271988630000005740329093797663402_">
		<path class="st3" d="M75,52.4l-2.6-7.2L65,43.8l-5,5.8l2.6,7.2l7.5,1.4L75,52.4z M69.9,57.6L63,56.3l-2.4-6.7l4.6-5.4l6.9,1.3
			l2.4,6.7L69.9,57.6z"/>
		<path class="st4" d="M65.2,44.3l-4.6,5.4l2.4,6.7l6.9,1.3l4.6-5.4l-2.4-6.7L65.2,44.3z M65.7,53l-2.7-0.5L62,49.8l1.8-2.2l2.7,0.5
			l0.9,2.7L65.7,53z M71.5,54.2l-1.8,2.2l-2.7-0.5L66,53.1l1.8-2.2l2.7,0.5L71.5,54.2z M70.6,51.2l-2.7-0.5L66.9,48l1.8-2.2l2.7,0.5
			l0.9,2.7L70.6,51.2z"/>
	</g>
	<path class="st5" d="M66.9,45.4c-0.4-0.2-0.7-0.1-1.1-0.4c-0.1-0.1-0.1-0.1-0.2-0.2c-0.2-0.1-0.5,0.1-0.5,0.3
		c-0.1,0.3,0.1,0.5,0.1,0.5c0.3,0.3,0.7,0.4,1.2,0.4c0.3,0,0.9,0.1,1-0.2C67.5,45.8,67.2,45.5,66.9,45.4z"/>
	<path class="st5" d="M66.5,46.7c-0.4-0.1-0.6,0.2-1.1,0.1c-0.1,0-0.3-0.1-0.5-0.2c-0.2-0.3-0.1-0.5-0.3-0.6
		c-0.3-0.2-1.1,0.1-1.2,0.7c-0.1,0.2-0.1,0.5,0,0.5c0.1,0.1,0.4-0.4,0.7-0.3c0.3,0,0.3,0.3,0.7,0.5c0.4,0.2,0.8,0.1,1.1,0.1
		c0.4-0.1,0.9-0.3,0.9-0.5C66.9,46.8,66.5,46.7,66.5,46.7z"/>
	<path class="st5" d="M73,49.2c-0.1-0.5-0.3-0.7-0.3-1.1s0-0.5-0.1-0.9c-0.1-0.6-0.5-1.2-0.5-1.2c-0.1,0-0.1,0.2-0.1,0.3
		c0.1,0.3,0.3,0.4,0.3,0.7c0.1,0.2,0,0.3,0,0.6c0,0.2,0,0.4,0.2,1c0.2,0.7,0.6,1.8,0.7,1.7C73.3,50.4,73.1,49.8,73,49.2z"/>
	<path class="st5" d="M72.2,51.3c0.1-0.1,0.3,0,0.6-0.1c0.2-0.1,0.3-0.5,0.3-0.6c-0.1-0.1-0.2,0-0.5,0c-0.3,0-0.3-0.2-0.5-0.2
		c-0.3,0-0.6,0.4-0.7,0.8c-0.1,0.4,0.3,0.5,0.3,0.9c0,0.3-0.3,0.5-0.2,0.6c0.1,0.1,0.9-0.4,0.9-0.8C72.3,51.5,72.1,51.4,72.2,51.3z"
		/>
	<path class="st5" d="M73.7,52.4c0.1-0.3,0.3-0.3,0.3-0.5c0.1-0.3-0.1-0.7-0.3-0.7c-0.1,0-0.1,0.2-0.3,0.4c-0.2,0.1-0.4,0-0.5,0.1
		c-0.1,0.1,0.2,0.4,0.1,0.7c-0.1,0.3-0.8,0.3-0.8,0.5c-0.1,0.2,0.3,0.6,0.6,0.6c0.4,0.1,0.7-0.4,0.7-0.5
		C73.6,52.8,73.5,52.7,73.7,52.4z"/>
	<path class="st5" d="M65.1,53.4c0,0-0.1-0.1-0.3-0.1c-0.5-0.2-0.6-0.2-0.7-0.1c-0.1,0.1-0.3,0.2-0.2,0.3c0,0.1,0.3,0.1,0.3,0.2
		s-0.4,0.1-0.5,0.3c-0.1,0.1,0.1,0.4,0.2,0.5c0.3,0.1,0.4-0.4,0.7-0.4c0.2,0.1,0.2,0.5,0.3,0.5c0.1,0,0.2-0.3,0.3-0.5
		C65.2,53.9,65.3,53.6,65.1,53.4z"/>
	<path class="st5" d="M66.1,54.9c-0.2-0.4-0.3-0.7-0.4-0.6c-0.1,0,0,0.4-0.2,0.6c-0.2,0.2-0.6,0.1-0.7,0c-0.3-0.1-0.4-0.3-0.5-0.2
		c-0.2,0.1-0.3,0.4-0.2,0.6c0.1,0.2,0.3,0.3,0.3,0.3c0.3,0.1,0.5-0.1,0.7-0.1c0.1,0.1,0.1,0.1,0.2,0.3c0.1,0.1,0.3,0.5,0.5,0.4
		c0.3,0,0.5-0.4,0.5-0.7C66.3,55.4,66.3,55.3,66.1,54.9z"/>
	<path class="st5" d="M63.5,53.3c0.2-0.3,0.3-0.3,0.3-0.3c-0.1-0.1-0.7,0.2-1.1-0.1c-0.1-0.1-0.1-0.1-0.4-0.8
		c-0.2-0.4-0.3-0.6-0.3-0.5c-0.1,0-0.1,0.5,0,0.9c0.1,0.3,0.1,0.5,0.3,0.8c0.2,0.3,0.3,0.3,0.3,0.5c0.1,0.3-0.1,0.5,0,0.7
		c0.1,0.1,0.3,0.1,0.4-0.1c0.1-0.1,0.1-0.2,0.2-0.5C63.3,53.7,63.3,53.5,63.5,53.3z"/>
	<path class="st5" d="M62.5,48.3c-0.3-0.1-0.8,0.3-0.7,0.5c0,0.1,0.2,0.2,0.4,0.3c0.2,0,0.5-0.1,0.5-0.4
		C62.7,48.5,62.6,48.4,62.5,48.3z"/>
	<path class="st5" d="M61.6,50.4c-0.3-0.5,0.1-0.9-0.1-1c-0.1-0.1-0.3,0.1-0.3,0.3c-0.1,0.1-0.1,0.3-0.1,0.3c0,0.2,0.1,0.3,0.2,0.5
		c0.1,0.4,0.1,0.7,0.1,0.7c0.1,0.1,0.3-0.1,0.3-0.3C61.8,50.6,61.8,50.6,61.6,50.4z"/>
	<path class="st5" d="M69.4,56.6c-0.1-0.1-0.2,0-0.5,0c-0.1,0-0.3-0.1-0.4-0.1c-0.3-0.1-0.3-0.1-0.5-0.2s-0.6-0.1-0.7,0
		c-0.1,0.1,0.1,0.3,0.3,0.4c0.2,0.1,0.3-0.1,0.6,0c0.2,0.1,0.2,0.1,0.5,0.3c0.1,0.1,0.5,0.2,0.7,0.1C69.5,56.9,69.5,56.7,69.4,56.6z
		"/>
	<path class="st5" d="M71.2,55.2c-0.1-0.1-0.4,0.1-0.4,0.3c0,0.1,0,0.2,0.1,0.3c0.1,0.1,0.4-0.1,0.5-0.3
		C71.4,55.3,71.3,55.2,71.2,55.2z"/>
	<path class="st5" d="M70.8,56.2c-0.1-0.1-0.4-0.2-0.6-0.1c0,0-0.3,0.1-0.3,0.3c0,0.2,0.2,0.3,0.4,0.3
		C70.6,56.8,70.9,56.4,70.8,56.2z"/>
	<path class="st5" d="M72.7,53.8c-0.1-0.1-0.4,0.4-0.7,0.3c-0.1-0.1-0.1-0.5-0.2-0.5s-0.1,0.1-0.2,0.3c0,0.3,0.1,0.3,0.2,0.7
		c0,0.2,0,0.3,0,0.3c0.1,0,0.2-0.3,0.5-0.7C72.6,53.9,72.7,53.8,72.7,53.8z"/>
	<path class="st5" d="M70,45.4c-0.3-0.1-0.4,0-0.8-0.1c-0.4-0.1-0.5-0.2-0.7-0.1c-0.1,0.1-0.3,0.2-0.5,0.5c-0.2,0.2-0.5,0.6-0.4,0.7
		c0.1,0.1,0.5-0.1,0.8-0.4c0.3-0.2,0.3-0.3,0.4-0.4c0.3-0.1,0.5,0.3,0.9,0.3c0.2,0,0.5,0,0.5-0.1C70.3,45.6,70.2,45.5,70,45.4z"/>
	<path class="st5" d="M71.1,45.6c0,0-0.3-0.1-0.5,0.1c0,0.1,0,0.1,0,0.2c0.1,0.1,0.1,0.1,0.4,0.1c0.5,0,0.5,0,0.5-0.1
		C71.6,45.8,71.4,45.6,71.1,45.6z"/>
	<path class="st5" d="M63.9,55.5c-0.2-0.3,0-0.7-0.1-0.8c-0.1-0.1-0.5,0.1-0.7,0.3c-0.1,0.1-0.1,0.3,0,0.5s0.1,0.5,0.2,0.6
		c0.4,0.3,1.2,0,1.2-0.2C64.5,55.8,64.1,55.8,63.9,55.5z"/>
	<path class="st5" d="M66.9,56.2c-0.1-0.1-0.2,0.2-0.5,0.2c-0.1,0-0.2,0-0.5-0.1c-0.3,0-0.4,0-0.4,0c-0.1,0.1,0.7,0.6,1.1,0.3
		C66.9,56.6,67,56.2,66.9,56.2z"/>
	<polygon class="st3" points="70.5,50.9 72.2,49 71.3,46.6 68.8,46.2 67.2,48.1 68,50.4 	"/>
	<polygon class="st3" points="65.6,52.7 67.2,50.7 66.3,48.4 63.9,47.9 62.3,49.8 63.1,52.2 	"/>
	<polygon class="st3" points="69.5,56.1 71.1,54.2 70.3,51.8 67.9,51.3 66.2,53.3 67.1,55.6 	"/>
	<path class="st4" d="M67.5,48.6c0.1-0.2,0.5,0.1,0.8-0.1c0.1-0.1,0.1-0.2,0.3-0.5c0.3-0.3,0.5-0.3,0.6-0.5c0-0.2-0.1-0.3-0.1-0.5
		c0.1-0.2,0.2-0.2,0.3-0.3c0.1-0.2-0.3-0.4-0.3-0.5c0-0.1,0.2-0.1,0.7,0.1c0.8,0.2,0.8,0.3,0.8,0.3c0,0.2-0.7,0.3-0.7,0.7
		c0,0.1,0,0.1,0,0.2c-0.1,0.5-0.7,0.6-0.6,0.8c0,0.2,0.5,0.3,1.3,0.7c0.6,0.3,0.7,0.4,0.7,0.5c0,0.1-0.1,0.1-0.4,0.5
		c-0.3,0.3-0.3,0.4-0.3,0.4c-0.3,0-0.2-0.8-0.8-1.2c-0.3-0.1-0.5-0.3-0.6-0.1c-0.1,0.1,0.1,0.3,0.1,0.5c-0.1,0.2-0.3,0.2-0.3,0.4
		c-0.1,0.3,0.6,0.6,0.5,0.7c0,0.1-0.3-0.1-0.7-0.1c-0.3-0.1-0.5,0-0.6-0.1c-0.1-0.1,0-0.2,0.1-0.3c0.3-0.7,0.5-0.8,0.3-0.9
		c-0.1-0.1-0.4-0.1-0.6,0.1c-0.1,0.1-0.2,0.3-0.2,0.3C68,49.6,68,49.6,68,49.6c-0.1,0-0.1-0.1-0.3-0.6
		C67.5,48.7,67.4,48.7,67.5,48.6z"/>
	<path class="st4" d="M65.2,49.6c-0.3,0.1-0.5,0.6-0.5,0.8c0.1,0.3,0.7,0,1,0.3c0.2,0.2,0.1,0.5,0.3,0.6c0.3,0.1,0.7-0.1,0.7-0.1
		c0.1,0.1-0.2,0.3-0.6,0.8c-0.2,0.3-0.3,0.4-0.4,0.4c-0.1-0.1,0-0.3-0.1-0.6c-0.1-0.1-0.2-0.2-0.6-0.3c-0.3-0.1-0.7-0.3-1-0.5
		c-0.2-0.1-0.6-0.4-0.5-0.7c0-0.1,0.1-0.1,0.3-0.3c0.3-0.4,0.1-0.7,0.3-0.8c0.1-0.1,0.3-0.1,0.8-0.2c1.1-0.1,1.3-0.2,1.5,0
		c0.1,0.1,0.1,0.2,0.3,0.5c0.1,0.2,0.3,0.7,0.2,0.8C66.7,50.4,65.9,49.4,65.2,49.6z"/>
	<path class="st4" d="M68.3,51.5c-0.1,0.1-0.1,0.3-0.1,0.5s0.2,0.1,0.2,0.3c0,0.1-0.1,0.1-0.1,0.3c-0.1,0.2,0,0.3-0.1,0.3
		c-0.1,0.1-0.5-0.1-0.7-0.4c-0.2-0.3-0.1-0.5-0.2-0.5c-0.1,0-0.1,0.1-0.3,0.4c-0.2,0.2-0.3,0.3-0.3,0.4c-0.1,0.1-0.1,0.3,0,0.5
		c0.1,0.1,0.3-0.1,0.6-0.1c0.2,0.1,0.4,0.3,0.5,0.5c0.1,0.2,0,0.5-0.1,0.7c-0.3,0.1-0.8-0.5-1.1-0.5c-0.1,0.1,0,0.3,0.2,0.9
		c0.2,0.7,0.3,0.7,0.3,0.8c0.1,0.1,0.1,0.1,0.8,0.3c0.6,0.1,0.8,0.2,0.9,0.1c0.1-0.1,0.1-0.1,0.1-0.3c0-0.2-0.3-0.2-0.3-0.4
		c0-0.1,0.3-0.2,0.3-0.5c0-0.1,0.1-0.2,0-0.4c-0.1-0.2-0.3-0.3-0.3-0.3s0.3-0.1,0.5,0c0.5,0.2,0.5,1.1,0.8,1.2
		c0.3,0.1,0.5-0.3,0.6-0.4c0.1-0.1,0.3-0.3,0.2-0.5c-0.1-0.3-0.7-0.3-0.7-0.5c0-0.2,0.7-0.1,0.8-0.4c0.1-0.1,0-0.3-0.1-0.6
		c-0.1-0.5-0.1-0.5-0.2-0.5c-0.1,0-0.1,0.3-0.3,0.3s-0.2-0.1-0.3-0.1c-0.1,0-0.1,0.1-0.2,0.3c-0.2,0.2-0.6,0.2-0.7,0.1
		c-0.1-0.2,0.1-0.8,0.5-0.9c0.1-0.1,0.3-0.1,0.3-0.2c0.1-0.1-0.1-0.2-0.1-0.2c-0.1-0.1-0.3-0.1-0.7-0.1
		C68.5,51.5,68.4,51.4,68.3,51.5z"/>
</g>
<g>
	<g id="Ebene_1_00000041988108547197834870000009034189582618582420_">
		<path class="st3" d="M67.8,59.6l-2.6-7.2L57.8,51l-5,5.8l2.6,7.2l7.5,1.4L67.8,59.6z M62.7,64.8l-6.9-1.3l-2.4-6.7l4.6-5.4
			l6.9,1.3l2.4,6.7L62.7,64.8z"/>
		<path class="st4" d="M58,51.5l-4.6,5.4l2.4,6.7l6.9,1.3l4.6-5.4L65,52.8L58,51.5z M58.5,60.2l-2.7-0.5l-0.9-2.7l1.8-2.2l2.7,0.5
			l0.9,2.7L58.5,60.2z M64.3,61.4l-1.8,2.2L59.7,63l-0.9-2.7l1.8-2.2l2.7,0.5L64.3,61.4z M63.4,58.4l-2.7-0.5l-0.9-2.7l1.8-2.2
			l2.7,0.5l0.9,2.7L63.4,58.4z"/>
	</g>
	<path class="st5" d="M59.7,52.6c-0.4-0.2-0.7-0.1-1.1-0.4c-0.1-0.1-0.1-0.1-0.2-0.2c-0.2-0.1-0.5,0.1-0.5,0.3
		c-0.1,0.3,0.1,0.5,0.1,0.5c0.3,0.3,0.7,0.4,1.2,0.4c0.3,0,0.9,0.1,1-0.2C60.3,53,60,52.7,59.7,52.6z"/>
	<path class="st5" d="M59.3,53.9c-0.4-0.1-0.6,0.2-1.1,0.1c-0.1,0-0.3-0.1-0.5-0.2c-0.2-0.3-0.1-0.5-0.3-0.6
		c-0.3-0.2-1.1,0.1-1.2,0.7c-0.1,0.2-0.1,0.5,0,0.5c0.1,0.1,0.4-0.4,0.7-0.3c0.3,0,0.3,0.3,0.7,0.5c0.4,0.2,0.8,0.1,1.1,0.1
		c0.4-0.1,0.9-0.3,0.9-0.5C59.7,53.9,59.3,53.9,59.3,53.9z"/>
	<path class="st5" d="M65.8,56.4c-0.1-0.5-0.3-0.7-0.3-1.1s0-0.5-0.1-0.9c-0.1-0.6-0.5-1.2-0.5-1.2c-0.1,0-0.1,0.2-0.1,0.3
		c0.1,0.3,0.3,0.4,0.3,0.7c0.1,0.2,0,0.3,0,0.6c0,0.2,0,0.4,0.2,1c0.2,0.7,0.6,1.8,0.7,1.7C66.1,57.6,65.9,56.9,65.8,56.4z"/>
	<path class="st5" d="M65,58.5c0.1-0.1,0.3,0,0.6-0.1c0.2-0.1,0.3-0.5,0.3-0.6c-0.1-0.1-0.2,0-0.5,0c-0.3,0-0.3-0.2-0.5-0.2
		c-0.3,0-0.6,0.4-0.7,0.8c-0.1,0.4,0.3,0.5,0.3,0.9c0,0.3-0.3,0.5-0.2,0.6c0.1,0.1,0.9-0.4,0.9-0.8C65.1,58.7,64.9,58.6,65,58.5z"/>
	<path class="st5" d="M66.5,59.6c0.1-0.3,0.3-0.3,0.3-0.5c0.1-0.3-0.1-0.7-0.3-0.7c-0.1,0-0.1,0.2-0.3,0.4c-0.2,0.1-0.4,0-0.5,0.1
		c-0.1,0.1,0.2,0.4,0.1,0.7c-0.1,0.3-0.8,0.3-0.8,0.5c-0.1,0.2,0.3,0.6,0.6,0.6c0.4,0.1,0.7-0.4,0.7-0.5
		C66.4,60,66.3,59.9,66.5,59.6z"/>
	<path class="st5" d="M57.9,60.6c0,0-0.1-0.1-0.3-0.1c-0.5-0.2-0.6-0.2-0.7-0.1c-0.1,0.1-0.3,0.2-0.2,0.3c0,0.1,0.3,0.1,0.3,0.2
		s-0.4,0.1-0.5,0.3c-0.1,0.1,0.1,0.4,0.2,0.5c0.3,0.1,0.4-0.4,0.7-0.4c0.2,0.1,0.2,0.5,0.3,0.5c0.1,0,0.2-0.3,0.3-0.5
		C58,61.1,58.1,60.8,57.9,60.6z"/>
	<path class="st5" d="M58.9,62.1c-0.2-0.4-0.3-0.7-0.4-0.6c-0.1,0,0,0.4-0.2,0.6c-0.2,0.2-0.6,0.1-0.7,0c-0.3-0.1-0.4-0.3-0.5-0.2
		c-0.2,0.1-0.3,0.4-0.2,0.6c0.1,0.2,0.3,0.3,0.3,0.3c0.3,0.1,0.5-0.1,0.7-0.1c0.1,0.1,0.1,0.1,0.2,0.3c0.1,0.1,0.3,0.5,0.5,0.4
		c0.3,0,0.5-0.4,0.5-0.7C59.1,62.6,59.1,62.5,58.9,62.1z"/>
	<path class="st5" d="M56.3,60.4c0.2-0.3,0.3-0.3,0.3-0.3c-0.1-0.1-0.7,0.2-1.1-0.1c-0.1-0.1-0.1-0.1-0.4-0.8
		c-0.2-0.4-0.3-0.6-0.3-0.5c-0.1,0-0.1,0.5,0,0.9c0.1,0.3,0.1,0.5,0.3,0.8c0.2,0.3,0.3,0.3,0.3,0.5c0.1,0.3-0.1,0.5,0,0.7
		c0.1,0.1,0.3,0.1,0.4-0.1c0.1-0.1,0.1-0.2,0.2-0.5C56.1,60.9,56.1,60.7,56.3,60.4z"/>
	<path class="st5" d="M55.3,55.5c-0.3-0.1-0.8,0.3-0.7,0.5c0,0.1,0.2,0.2,0.4,0.3c0.2,0,0.5-0.1,0.5-0.4
		C55.5,55.7,55.4,55.6,55.3,55.5z"/>
	<path class="st5" d="M54.4,57.6c-0.3-0.5,0.1-0.9-0.1-1c-0.1-0.1-0.3,0.1-0.3,0.3c-0.1,0.1-0.1,0.3-0.1,0.3c0,0.2,0.1,0.3,0.2,0.5
		c0.1,0.4,0.1,0.7,0.1,0.7c0.1,0.1,0.3-0.1,0.3-0.3C54.6,57.8,54.6,57.8,54.4,57.6z"/>
	<path class="st5" d="M62.2,63.8c-0.1-0.1-0.2,0-0.5,0c-0.1,0-0.3-0.1-0.4-0.1c-0.3-0.1-0.3-0.1-0.5-0.2c-0.2,0-0.6-0.1-0.7,0
		c-0.1,0.1,0.1,0.3,0.3,0.4c0.2,0.1,0.3-0.1,0.6,0c0.2,0.1,0.2,0.1,0.5,0.3c0.1,0.1,0.5,0.2,0.7,0.1C62.3,64.1,62.3,63.9,62.2,63.8z
		"/>
	<path class="st5" d="M64,62.3c-0.1-0.1-0.4,0.1-0.4,0.3c0,0.1,0,0.2,0.1,0.3c0.1,0.1,0.4-0.1,0.5-0.3C64.2,62.5,64.1,62.3,64,62.3z
		"/>
	<path class="st5" d="M63.6,63.4c-0.1-0.1-0.4-0.2-0.6-0.1c0,0-0.3,0.1-0.3,0.3c0,0.2,0.2,0.3,0.4,0.3
		C63.4,63.9,63.7,63.6,63.6,63.4z"/>
	<path class="st5" d="M65.5,61c-0.1-0.1-0.4,0.4-0.7,0.3c-0.1-0.1-0.1-0.5-0.2-0.5s-0.1,0.1-0.2,0.3c0,0.3,0.1,0.3,0.2,0.7
		c0,0.2,0,0.3,0,0.3c0.1,0,0.2-0.3,0.5-0.7C65.4,61.1,65.5,61,65.5,61z"/>
	<path class="st5" d="M62.8,52.6c-0.3-0.1-0.4,0-0.8-0.1c-0.4-0.1-0.5-0.2-0.7-0.1c-0.1,0.1-0.3,0.2-0.5,0.5
		c-0.2,0.2-0.5,0.6-0.4,0.7c0.1,0.1,0.5-0.1,0.8-0.4c0.3-0.2,0.3-0.3,0.4-0.4c0.3-0.1,0.5,0.3,0.9,0.3c0.2,0,0.5,0,0.5-0.1
		C63.1,52.8,63,52.7,62.8,52.6z"/>
	<path class="st5" d="M63.9,52.7c0,0-0.3-0.1-0.5,0.1c0,0.1,0,0.1,0,0.2c0.1,0.1,0.1,0.1,0.4,0.1c0.5,0,0.5,0,0.5-0.1
		C64.4,53,64.2,52.8,63.9,52.7z"/>
	<path class="st5" d="M56.7,62.7c-0.2-0.3,0-0.7-0.1-0.8c-0.1-0.1-0.5,0.1-0.7,0.3c-0.1,0.1-0.1,0.3,0,0.5s0.1,0.5,0.2,0.6
		c0.4,0.3,1.2,0,1.2-0.2C57.3,63,56.9,63,56.7,62.7z"/>
	<path class="st5" d="M59.7,63.4c-0.1-0.1-0.2,0.2-0.5,0.2c-0.1,0-0.2,0-0.5-0.1c-0.3,0-0.4,0-0.4,0c-0.1,0.1,0.7,0.6,1.1,0.3
		C59.7,63.8,59.8,63.4,59.7,63.4z"/>
	<polygon class="st3" points="63.3,58.1 65,56.2 64.1,53.8 61.6,53.4 60,55.3 60.8,57.6 	"/>
	<polygon class="st3" points="58.4,59.9 60,57.9 59.1,55.6 56.7,55.1 55.1,57 55.9,59.4 	"/>
	<polygon class="st3" points="62.3,63.3 63.9,61.4 63.1,59 60.7,58.5 59,60.4 59.9,62.8 	"/>
	<path class="st4" d="M60.3,55.8c0.1-0.2,0.5,0.1,0.8-0.1c0.1-0.1,0.1-0.2,0.3-0.5c0.3-0.3,0.5-0.3,0.6-0.5c0-0.2-0.1-0.3-0.1-0.5
		c0.1-0.2,0.2-0.2,0.3-0.3c0.1-0.2-0.3-0.4-0.3-0.5c0-0.1,0.2-0.1,0.7,0.1c0.8,0.2,0.8,0.3,0.8,0.3c0,0.2-0.7,0.3-0.7,0.7
		c0,0.1,0,0.1,0,0.2c-0.1,0.5-0.7,0.6-0.6,0.8c0,0.2,0.5,0.3,1.3,0.7c0.6,0.3,0.7,0.4,0.7,0.5c0,0.1-0.1,0.1-0.4,0.5
		c-0.3,0.3-0.3,0.4-0.3,0.4c-0.3,0-0.2-0.8-0.8-1.2c-0.3-0.1-0.5-0.3-0.6-0.1c-0.1,0.1,0.1,0.3,0.1,0.5C62.2,57,62,57,62,57.2
		c-0.1,0.3,0.6,0.6,0.5,0.7c0,0.1-0.3-0.1-0.7-0.1c-0.3-0.1-0.5,0-0.6-0.1c-0.1-0.1,0-0.2,0.1-0.3c0.3-0.7,0.5-0.8,0.3-0.9
		c-0.1-0.1-0.4-0.1-0.6,0.1c-0.1,0.1-0.2,0.3-0.2,0.3c-0.1,0.1-0.1,0.1-0.1,0.1c-0.1,0-0.1-0.1-0.3-0.6
		C60.3,55.8,60.2,55.8,60.3,55.8z"/>
	<path class="st4" d="M58,56.8c-0.3,0.1-0.5,0.6-0.5,0.8c0.1,0.3,0.7,0,1,0.3c0.2,0.2,0.1,0.5,0.3,0.6c0.3,0.1,0.7-0.1,0.7-0.1
		c0.1,0.1-0.2,0.3-0.6,0.8c-0.2,0.3-0.3,0.4-0.4,0.4c-0.1-0.1,0-0.3-0.1-0.6c-0.1-0.1-0.2-0.2-0.6-0.3c-0.3-0.1-0.7-0.3-1-0.5
		c-0.2-0.1-0.6-0.4-0.5-0.7c0-0.1,0.1-0.1,0.3-0.3c0.3-0.4,0.1-0.7,0.3-0.8c0.1-0.1,0.3-0.1,0.8-0.2c1.1-0.1,1.3-0.2,1.5,0
		c0.1,0.1,0.1,0.2,0.3,0.5c0.1,0.2,0.3,0.7,0.2,0.8C59.5,57.6,58.7,56.6,58,56.8z"/>
	<path class="st4" d="M61.1,58.7c-0.1,0.1-0.1,0.3-0.1,0.5s0.2,0.1,0.2,0.3c0,0.1-0.1,0.1-0.1,0.3c-0.1,0.2,0,0.3-0.1,0.3
		c-0.1,0.1-0.5-0.1-0.7-0.4c-0.2-0.3-0.1-0.5-0.2-0.5c-0.1,0-0.1,0.1-0.3,0.4c-0.2,0.2-0.3,0.3-0.3,0.4s-0.1,0.3,0,0.5
		c0.1,0.1,0.3-0.1,0.6-0.1c0.2,0.1,0.4,0.3,0.5,0.5c0.1,0.2,0,0.5-0.1,0.7c-0.3,0.1-0.8-0.5-1.1-0.5c-0.1,0.1,0,0.3,0.2,0.9
		c0.2,0.7,0.3,0.7,0.3,0.8c0.1,0.1,0.1,0.1,0.8,0.3c0.6,0.1,0.8,0.2,0.9,0.1c0.1-0.1,0.1-0.1,0.1-0.3c0-0.2-0.3-0.2-0.3-0.4
		c0-0.1,0.3-0.2,0.3-0.5c0-0.1,0.1-0.2,0-0.4c-0.1-0.2-0.3-0.3-0.3-0.3s0.3-0.1,0.5,0c0.5,0.2,0.5,1.1,0.8,1.2
		c0.3,0.1,0.5-0.3,0.6-0.4c0.1-0.1,0.3-0.3,0.2-0.5c-0.1-0.3-0.7-0.3-0.7-0.5c0-0.2,0.7-0.1,0.8-0.4c0.1-0.1,0-0.3-0.1-0.6
		c-0.1-0.5-0.1-0.5-0.2-0.5c-0.1,0-0.1,0.3-0.3,0.3c-0.1,0-0.2-0.1-0.3-0.1c-0.1,0-0.1,0.1-0.2,0.3c-0.2,0.2-0.6,0.2-0.7,0.1
		c-0.1-0.2,0.1-0.8,0.5-0.9c0.1-0.1,0.3-0.1,0.3-0.2c0.1-0.1-0.1-0.2-0.1-0.2c-0.1-0.1-0.3-0.1-0.7-0.1
		C61.3,58.7,61.2,58.6,61.1,58.7z"/>
</g>
<g>
	<g id="Ebene_1_00000136385092196039508400000016113902782499949977_">
		<path class="st3" d="M74.8,64.6l-2.6-7.2L64.8,56l-5,5.8l2.6,7.2l7.5,1.4L74.8,64.6z M69.7,69.9l-6.9-1.3l-2.4-6.7l4.6-5.4
			l6.9,1.3l2.4,6.7L69.7,69.9z"/>
		<path class="st4" d="M65,56.5l-4.6,5.4l2.4,6.7l6.9,1.3l4.6-5.4L72,57.8L65,56.5z M65.5,65.2l-2.7-0.5L61.8,62l1.8-2.2l2.7,0.5
			l0.9,2.7L65.5,65.2z M71.3,66.4l-1.8,2.2l-2.7-0.5l-0.9-2.7l1.8-2.2l2.7,0.5L71.3,66.4z M70.4,63.4l-2.7-0.5l-0.9-2.7l1.8-2.2
			l2.7,0.5l0.9,2.7L70.4,63.4z"/>
	</g>
	<path class="st5" d="M66.7,57.6c-0.4-0.2-0.7-0.1-1.1-0.4c-0.1-0.1-0.1-0.1-0.2-0.2c-0.2-0.1-0.5,0.1-0.5,0.3
		c-0.1,0.3,0.1,0.5,0.1,0.5c0.3,0.3,0.7,0.4,1.2,0.4c0.3,0,0.9,0.1,1-0.2C67.2,58,67,57.7,66.7,57.6z"/>
	<path class="st5" d="M66.3,58.9c-0.4-0.1-0.6,0.2-1.1,0.1c-0.1,0-0.3-0.1-0.5-0.2c-0.2-0.3-0.1-0.5-0.3-0.6
		c-0.3-0.2-1.1,0.1-1.2,0.7c-0.1,0.2-0.1,0.5,0,0.5c0.1,0.1,0.4-0.4,0.7-0.3c0.3,0,0.3,0.3,0.7,0.5c0.4,0.2,0.8,0.1,1.1,0.1
		c0.4-0.1,0.9-0.3,0.9-0.5C66.7,59,66.3,58.9,66.3,58.9z"/>
	<path class="st5" d="M72.8,61.5c-0.1-0.5-0.3-0.7-0.3-1.1s0-0.5-0.1-0.9c-0.1-0.6-0.5-1.2-0.5-1.2c-0.1,0-0.1,0.2-0.1,0.3
		c0.1,0.3,0.3,0.4,0.3,0.7c0.1,0.2,0,0.3,0,0.6c0,0.2,0,0.4,0.2,1c0.2,0.7,0.6,1.8,0.7,1.7C73.1,62.6,72.9,62,72.8,61.5z"/>
	<path class="st5" d="M72,63.5c0.1-0.1,0.3,0,0.6-0.1c0.2-0.1,0.3-0.5,0.3-0.6c-0.1-0.1-0.2,0-0.5,0c-0.3,0-0.3-0.2-0.5-0.2
		c-0.3,0-0.6,0.4-0.7,0.8c-0.1,0.4,0.3,0.5,0.3,0.9c0,0.3-0.3,0.5-0.2,0.6c0.1,0.1,0.9-0.4,0.9-0.8C72.1,63.8,71.9,63.6,72,63.5z"/>
	<path class="st5" d="M73.5,64.6c0.1-0.3,0.3-0.3,0.3-0.5c0.1-0.3-0.1-0.7-0.3-0.7c-0.1,0-0.1,0.2-0.3,0.4c-0.2,0.1-0.4,0-0.5,0.1
		c-0.1,0.1,0.2,0.4,0.1,0.7c-0.1,0.3-0.8,0.3-0.8,0.5c-0.1,0.2,0.3,0.6,0.6,0.6c0.4,0.1,0.7-0.4,0.7-0.5
		C73.4,65,73.3,64.9,73.5,64.6z"/>
	<path class="st5" d="M64.9,65.7c0,0-0.1-0.1-0.3-0.1c-0.5-0.2-0.6-0.2-0.7-0.1c-0.1,0.1-0.3,0.2-0.2,0.3c0,0.1,0.3,0.1,0.3,0.2
		c0,0-0.4,0.1-0.5,0.3c-0.1,0.1,0.1,0.4,0.2,0.5c0.3,0.1,0.4-0.4,0.7-0.4c0.2,0.1,0.2,0.5,0.3,0.5c0.1,0,0.2-0.3,0.3-0.5
		C65,66.1,65.1,65.8,64.9,65.7z"/>
	<path class="st5" d="M65.9,67.1c-0.2-0.4-0.3-0.7-0.4-0.6c-0.1,0,0,0.4-0.2,0.6c-0.2,0.2-0.6,0.1-0.7,0c-0.3-0.1-0.4-0.3-0.5-0.2
		c-0.2,0.1-0.3,0.4-0.2,0.6c0.1,0.2,0.3,0.3,0.3,0.3c0.3,0.1,0.5-0.1,0.7-0.1c0.1,0.1,0.1,0.1,0.2,0.3c0.1,0.1,0.3,0.5,0.5,0.4
		c0.3,0,0.5-0.4,0.5-0.7C66.1,67.6,66.1,67.6,65.9,67.1z"/>
	<path class="st5" d="M63.3,65.5c0.2-0.3,0.3-0.3,0.3-0.3c-0.1-0.1-0.7,0.2-1.1-0.1c-0.1-0.1-0.1-0.1-0.4-0.8
		c-0.2-0.4-0.3-0.6-0.3-0.5c-0.1,0-0.1,0.5,0,0.9c0.1,0.3,0.1,0.5,0.3,0.8c0.2,0.3,0.3,0.3,0.3,0.5c0.1,0.3-0.1,0.5,0,0.7
		c0.1,0.1,0.3,0.1,0.4-0.1c0.1-0.1,0.1-0.2,0.2-0.5C63,65.9,63.1,65.7,63.3,65.5z"/>
	<path class="st5" d="M62.2,60.5c-0.3-0.1-0.8,0.3-0.7,0.5c0,0.1,0.2,0.2,0.4,0.3c0.2,0,0.5-0.1,0.5-0.4
		C62.5,60.7,62.4,60.6,62.2,60.5z"/>
	<path class="st5" d="M61.4,62.6c-0.3-0.5,0.1-0.9-0.1-1c-0.1-0.1-0.3,0.1-0.3,0.3c-0.1,0.1-0.1,0.3-0.1,0.3c0,0.2,0.1,0.3,0.2,0.5
		c0.1,0.4,0.1,0.7,0.1,0.7c0.1,0.1,0.3-0.1,0.3-0.3C61.6,62.8,61.6,62.8,61.4,62.6z"/>
	<path class="st5" d="M69.2,68.8c-0.1-0.1-0.2,0-0.5,0c-0.1,0-0.3-0.1-0.4-0.1c-0.3-0.1-0.3-0.1-0.5-0.2c-0.2,0-0.6-0.1-0.7,0
		c-0.1,0.1,0.1,0.3,0.3,0.4c0.2,0.1,0.3-0.1,0.6,0c0.2,0.1,0.2,0.1,0.5,0.3c0.1,0.1,0.5,0.2,0.7,0.1C69.3,69.1,69.3,68.9,69.2,68.8z
		"/>
	<path class="st5" d="M71,67.4c-0.1-0.1-0.4,0.1-0.4,0.3c0,0.1,0,0.2,0.1,0.3c0.1,0.1,0.4-0.1,0.5-0.3C71.2,67.6,71.1,67.4,71,67.4z
		"/>
	<path class="st5" d="M70.6,68.5c-0.1-0.1-0.4-0.2-0.6-0.1c0,0-0.3,0.1-0.3,0.3S70,69,70.2,69C70.4,69,70.7,68.6,70.6,68.5z"/>
	<path class="st5" d="M72.5,66c-0.1-0.1-0.4,0.4-0.7,0.3c-0.1-0.1-0.1-0.5-0.2-0.5c0,0-0.1,0.1-0.2,0.3c0,0.3,0.1,0.3,0.2,0.7
		c0,0.2,0,0.3,0,0.3c0.1,0,0.2-0.3,0.5-0.7C72.4,66.2,72.5,66,72.5,66z"/>
	<path class="st5" d="M69.8,57.7c-0.3-0.1-0.4,0-0.8-0.1c-0.4-0.1-0.5-0.2-0.7-0.1c-0.1,0.1-0.3,0.2-0.5,0.5
		c-0.2,0.2-0.5,0.6-0.4,0.7c0.1,0.1,0.5-0.1,0.8-0.4c0.3-0.2,0.3-0.3,0.4-0.4c0.3-0.1,0.5,0.3,0.9,0.3c0.2,0,0.5,0,0.5-0.1
		C70.1,57.8,69.9,57.7,69.8,57.7z"/>
	<path class="st5" d="M70.9,57.8c0,0-0.3-0.1-0.5,0.1c0,0.1,0,0.1,0,0.2c0.1,0.1,0.1,0.1,0.4,0.1c0.5,0,0.5,0,0.5-0.1
		C71.4,58,71.2,57.8,70.9,57.8z"/>
	<path class="st5" d="M63.7,67.7c-0.2-0.3,0-0.7-0.1-0.8c-0.1-0.1-0.5,0.1-0.7,0.3c-0.1,0.1-0.1,0.3,0,0.5c0.1,0.3,0.1,0.5,0.2,0.6
		c0.4,0.3,1.2,0,1.2-0.2C64.3,68,63.9,68.1,63.7,67.7z"/>
	<path class="st5" d="M66.7,68.4c-0.1-0.1-0.2,0.2-0.5,0.2c-0.1,0-0.2,0-0.5-0.1c-0.3,0-0.4,0-0.4,0c-0.1,0.1,0.7,0.6,1.1,0.3
		C66.7,68.8,66.8,68.5,66.7,68.4z"/>
	<polygon class="st3" points="70.3,63.1 72,61.2 71.1,58.8 68.6,58.4 67,60.3 67.8,62.6 	"/>
	<polygon class="st3" points="65.3,64.9 67,63 66.1,60.6 63.7,60.1 62.1,62 62.9,64.4 	"/>
	<polygon class="st3" points="69.3,68.3 70.9,66.4 70.1,64 67.6,63.5 66,65.5 66.8,67.8 	"/>
	<path class="st4" d="M67.2,60.8c0.1-0.2,0.5,0.1,0.8-0.1c0.1-0.1,0.1-0.2,0.3-0.5c0.3-0.3,0.5-0.3,0.6-0.5c0-0.2-0.1-0.3-0.1-0.5
		c0.1-0.2,0.2-0.2,0.3-0.3c0.1-0.2-0.3-0.4-0.3-0.5c0-0.1,0.2-0.1,0.7,0.1c0.8,0.2,0.8,0.3,0.8,0.3c0,0.2-0.7,0.3-0.7,0.7
		c0,0.1,0,0.1,0,0.2c-0.1,0.5-0.7,0.6-0.6,0.8c0,0.2,0.5,0.3,1.3,0.7c0.6,0.3,0.7,0.4,0.7,0.5c0,0.1-0.1,0.1-0.4,0.5
		c-0.3,0.3-0.3,0.4-0.3,0.4c-0.3,0-0.2-0.8-0.8-1.2c-0.3-0.1-0.5-0.3-0.6-0.1c-0.1,0.1,0.1,0.3,0.1,0.5C69.2,62,69,62,69,62.3
		c-0.1,0.3,0.6,0.6,0.5,0.7c0,0.1-0.3-0.1-0.7-0.1c-0.3-0.1-0.5,0-0.6-0.1c-0.1-0.1,0-0.2,0.1-0.3c0.3-0.7,0.5-0.8,0.3-0.9
		c-0.1-0.1-0.4-0.1-0.6,0.1c-0.1,0.1-0.2,0.3-0.2,0.3c-0.1,0.1-0.1,0.1-0.1,0.1c-0.1,0-0.1-0.1-0.3-0.6
		C67.2,60.9,67.2,60.9,67.2,60.8z"/>
	<path class="st4" d="M65,61.8c-0.3,0.1-0.5,0.6-0.5,0.8c0.1,0.3,0.7,0,1,0.3c0.2,0.2,0.1,0.5,0.3,0.6c0.3,0.1,0.7-0.1,0.7-0.1
		c0.1,0.1-0.2,0.3-0.6,0.8c-0.2,0.3-0.3,0.4-0.4,0.4c-0.1-0.1,0-0.3-0.1-0.6c-0.1-0.1-0.2-0.2-0.6-0.3c-0.3-0.1-0.7-0.3-1-0.5
		c-0.2-0.1-0.6-0.4-0.5-0.7c0-0.1,0.1-0.1,0.3-0.3c0.3-0.4,0.1-0.7,0.3-0.8c0.1-0.1,0.3-0.1,0.8-0.2c1.1-0.1,1.3-0.2,1.5,0
		c0.1,0.1,0.1,0.2,0.3,0.5c0.1,0.2,0.3,0.7,0.2,0.8C66.4,62.6,65.7,61.6,65,61.8z"/>
	<path class="st4" d="M68.1,63.8c-0.1,0.1-0.1,0.3-0.1,0.5c0.1,0.1,0.2,0.1,0.2,0.3c0,0.1-0.1,0.1-0.1,0.3c-0.1,0.2,0,0.3-0.1,0.3
		c-0.1,0.1-0.5-0.1-0.7-0.4c-0.2-0.3-0.1-0.5-0.2-0.5c-0.1,0-0.1,0.1-0.3,0.4c-0.2,0.2-0.3,0.3-0.3,0.4c-0.1,0.1-0.1,0.3,0,0.5
		c0.1,0.1,0.3-0.1,0.6-0.1c0.2,0.1,0.4,0.3,0.5,0.5c0.1,0.2,0,0.5-0.1,0.7c-0.3,0.1-0.8-0.5-1.1-0.5c-0.1,0.1,0,0.3,0.2,0.9
		c0.2,0.7,0.3,0.7,0.3,0.8c0.1,0.1,0.1,0.1,0.8,0.3c0.6,0.1,0.8,0.2,0.9,0.1c0.1-0.1,0.1-0.1,0.1-0.3c0-0.2-0.3-0.2-0.3-0.4
		c0-0.1,0.3-0.2,0.3-0.5c0-0.1,0.1-0.2,0-0.4c-0.1-0.2-0.3-0.3-0.3-0.3s0.3-0.1,0.5,0c0.5,0.2,0.5,1.1,0.8,1.2
		c0.3,0.1,0.5-0.3,0.6-0.4c0.1-0.1,0.3-0.3,0.2-0.5c-0.1-0.3-0.7-0.3-0.7-0.5s0.7-0.1,0.8-0.4c0.1-0.1,0-0.3-0.1-0.6
		c-0.1-0.5-0.1-0.5-0.2-0.5c-0.1,0-0.1,0.3-0.3,0.3c-0.1,0-0.2-0.1-0.3-0.1c-0.1,0-0.1,0.1-0.2,0.3c-0.2,0.2-0.6,0.2-0.7,0.1
		c-0.1-0.2,0.1-0.8,0.5-0.9c0.1-0.1,0.3-0.1,0.3-0.2c0.1-0.1-0.1-0.2-0.1-0.2c-0.1-0.1-0.3-0.1-0.7-0.1
		C68.3,63.8,68.2,63.6,68.1,63.8z"/>
</g>
<g>
	<g id="Ebene_1_00000049919815242917331240000011127990570293508529_">
		<path class="st3" d="M74.1,70.5l-2.6-7.2L64,61.9l-5,5.8l2.6,7.2l7.5,1.4L74.1,70.5z M69,75.8L62,74.4l-2.4-6.7l4.6-5.4l6.9,1.3
			l2.4,6.7L69,75.8z"/>
		<path class="st4" d="M64.2,62.4l-4.6,5.4l2.4,6.7l6.9,1.3l4.6-5.4l-2.4-6.7L64.2,62.4z M64.7,71.1l-2.7-0.5L61,67.9l1.8-2.2
			l2.7,0.5l0.9,2.7L64.7,71.1z M70.5,72.3l-1.8,2.2L65.9,74L65,71.3l1.8-2.2l2.7,0.5L70.5,72.3z M69.6,69.3l-2.7-0.5L66,66.1
			l1.8-2.2l2.7,0.5l0.9,2.7L69.6,69.3z"/>
	</g>
	<path class="st5" d="M66,63.5c-0.4-0.2-0.7-0.1-1.1-0.4c-0.1-0.1-0.1-0.1-0.2-0.2c-0.2-0.1-0.5,0.1-0.5,0.3
		c-0.1,0.3,0.1,0.5,0.1,0.5c0.3,0.3,0.7,0.4,1.2,0.4c0.3,0,0.9,0.1,1-0.2C66.5,63.9,66.2,63.6,66,63.5z"/>
	<path class="st5" d="M65.6,64.8C65.2,64.7,65,65,64.5,65c-0.1,0-0.3-0.1-0.5-0.2c-0.2-0.3-0.1-0.5-0.3-0.6
		c-0.3-0.2-1.1,0.1-1.2,0.7c-0.1,0.2-0.1,0.5,0,0.5c0.1,0.1,0.4-0.4,0.7-0.3c0.3,0,0.3,0.3,0.7,0.5c0.4,0.2,0.8,0.1,1.1,0.1
		c0.4-0.1,0.9-0.3,0.9-0.5C65.9,64.9,65.6,64.8,65.6,64.8z"/>
	<path class="st5" d="M72.1,67.4c-0.1-0.5-0.3-0.7-0.3-1.1c-0.1-0.5,0-0.5-0.1-0.9c-0.1-0.6-0.5-1.2-0.5-1.2c-0.1,0-0.1,0.2-0.1,0.3
		c0.1,0.3,0.3,0.4,0.3,0.7c0.1,0.2,0,0.3,0,0.6c0,0.2,0,0.4,0.2,1c0.2,0.7,0.6,1.8,0.7,1.7C72.3,68.5,72.2,67.9,72.1,67.4z"/>
	<path class="st5" d="M71.2,69.4c0.1-0.1,0.3,0,0.6-0.1c0.2-0.1,0.3-0.5,0.3-0.6c-0.1-0.1-0.2,0-0.5,0c-0.3,0-0.3-0.2-0.5-0.2
		c-0.3,0-0.6,0.4-0.7,0.8s0.3,0.5,0.3,0.9c0,0.3-0.3,0.5-0.2,0.6c0.1,0.1,0.9-0.4,0.9-0.8C71.3,69.7,71.1,69.5,71.2,69.4z"/>
	<path class="st5" d="M72.7,70.5c0.1-0.3,0.3-0.3,0.3-0.5c0.1-0.3-0.1-0.7-0.3-0.7c-0.1,0-0.1,0.2-0.3,0.4c-0.2,0.1-0.4,0-0.5,0.1
		c-0.1,0.1,0.2,0.4,0.1,0.7c-0.1,0.3-0.8,0.3-0.8,0.5c-0.1,0.2,0.3,0.6,0.6,0.6c0.4,0.1,0.7-0.4,0.7-0.5
		C72.6,70.9,72.6,70.8,72.7,70.5z"/>
	<path class="st5" d="M64.1,71.6c0,0-0.1-0.1-0.3-0.1c-0.5-0.2-0.6-0.2-0.7-0.1c-0.1,0.1-0.3,0.2-0.2,0.3c0,0.1,0.3,0.1,0.3,0.2
		c0,0-0.4,0.1-0.5,0.3c-0.1,0.1,0.1,0.4,0.2,0.5c0.3,0.1,0.4-0.4,0.7-0.4c0.2,0.1,0.2,0.5,0.3,0.5c0.1,0,0.2-0.3,0.3-0.5
		C64.2,72,64.3,71.7,64.1,71.6z"/>
	<path class="st5" d="M65.2,73.1c-0.2-0.4-0.3-0.7-0.4-0.6c-0.1,0,0,0.4-0.2,0.6s-0.6,0.1-0.7,0c-0.3-0.1-0.4-0.3-0.5-0.2
		c-0.2,0.1-0.3,0.4-0.2,0.6c0.1,0.2,0.3,0.3,0.3,0.3c0.3,0.1,0.5-0.1,0.7-0.1c0.1,0.1,0.1,0.1,0.2,0.3c0.1,0.1,0.3,0.5,0.5,0.4
		c0.3,0,0.5-0.4,0.5-0.7C65.3,73.5,65.3,73.5,65.2,73.1z"/>
	<path class="st5" d="M62.5,71.4c0.2-0.3,0.3-0.3,0.3-0.3c-0.1-0.1-0.7,0.2-1.1-0.1c-0.1-0.1-0.1-0.1-0.4-0.8
		c-0.2-0.4-0.3-0.6-0.3-0.5c-0.1,0-0.1,0.5,0,0.9c0.1,0.3,0.1,0.5,0.3,0.8c0.2,0.3,0.3,0.3,0.3,0.5c0.1,0.3-0.1,0.5,0,0.7
		c0.1,0.1,0.3,0.1,0.4-0.1c0.1-0.1,0.1-0.2,0.2-0.5C62.3,71.8,62.3,71.6,62.5,71.4z"/>
	<path class="st5" d="M61.5,66.5c-0.3-0.1-0.8,0.3-0.7,0.5c0,0.1,0.2,0.2,0.4,0.3c0.2,0,0.5-0.1,0.5-0.4
		C61.7,66.6,61.6,66.5,61.5,66.5z"/>
	<path class="st5" d="M60.6,68.5c-0.3-0.5,0.1-0.9-0.1-1c-0.1-0.1-0.3,0.1-0.3,0.3c-0.1,0.1-0.1,0.3-0.1,0.3c0,0.2,0.1,0.3,0.2,0.5
		c0.1,0.4,0.1,0.7,0.1,0.7c0.1,0.1,0.3-0.1,0.3-0.3C60.8,68.8,60.8,68.8,60.6,68.5z"/>
	<path class="st5" d="M68.4,74.7c-0.1-0.1-0.2,0-0.5,0c-0.1,0-0.3-0.1-0.4-0.1c-0.3-0.1-0.3-0.1-0.5-0.2c-0.2,0-0.6-0.1-0.7,0
		c-0.1,0.1,0.1,0.3,0.3,0.4s0.3-0.1,0.6,0c0.2,0.1,0.2,0.1,0.5,0.3c0.1,0.1,0.5,0.2,0.7,0.1C68.5,75,68.5,74.9,68.4,74.7z"/>
	<path class="st5" d="M70.2,73.3c-0.1-0.1-0.4,0.1-0.4,0.3c0,0.1,0,0.2,0.1,0.3c0.1,0.1,0.4-0.1,0.5-0.3
		C70.4,73.5,70.3,73.3,70.2,73.3z"/>
	<path class="st5" d="M69.9,74.4c-0.1-0.1-0.4-0.2-0.6-0.1c0,0-0.3,0.1-0.3,0.3c0,0.2,0.2,0.3,0.4,0.3
		C69.6,74.9,69.9,74.6,69.9,74.4z"/>
	<path class="st5" d="M71.7,71.9c-0.1-0.1-0.4,0.4-0.7,0.3c-0.1-0.1-0.1-0.5-0.2-0.5c0,0-0.1,0.1-0.2,0.3c0,0.3,0.1,0.3,0.2,0.7
		c0,0.2,0,0.3,0,0.3c0.1,0,0.2-0.3,0.5-0.7C71.7,72.1,71.8,71.9,71.7,71.9z"/>
	<path class="st5" d="M69,63.6c-0.3-0.1-0.4,0-0.8-0.1c-0.4-0.1-0.5-0.2-0.7-0.1c-0.1,0.1-0.3,0.2-0.5,0.5c-0.2,0.2-0.5,0.6-0.4,0.7
		s0.5-0.1,0.8-0.4c0.3-0.2,0.3-0.3,0.4-0.4c0.3-0.1,0.5,0.3,0.9,0.3c0.2,0,0.5,0,0.5-0.1C69.3,63.8,69.2,63.6,69,63.6z"/>
	<path class="st5" d="M70.2,63.7c0,0-0.3-0.1-0.5,0.1c0,0.1,0,0.1,0,0.2c0.1,0.1,0.1,0.1,0.4,0.1c0.5,0,0.5,0,0.5-0.1
		C70.6,63.9,70.4,63.8,70.2,63.7z"/>
	<path class="st5" d="M62.9,73.6c-0.2-0.3,0-0.7-0.1-0.8c-0.1-0.1-0.5,0.1-0.7,0.3c-0.1,0.1-0.1,0.3,0,0.5c0.1,0.3,0.1,0.5,0.2,0.6
		c0.4,0.3,1.2,0,1.2-0.2C63.5,73.9,63.1,74,62.9,73.6z"/>
	<path class="st5" d="M66,74.3c-0.1-0.1-0.2,0.2-0.5,0.2c-0.1,0-0.2,0-0.5-0.1c-0.3,0-0.4,0-0.4,0c-0.1,0.1,0.7,0.6,1.1,0.3
		C65.9,74.7,66,74.4,66,74.3z"/>
	<polygon class="st3" points="69.5,69 71.2,67.1 70.3,64.7 67.9,64.3 66.2,66.2 67.1,68.5 	"/>
	<polygon class="st3" points="64.6,70.8 66.2,68.9 65.3,66.5 62.9,66.1 61.3,68 62.1,70.3 	"/>
	<polygon class="st3" points="68.5,74.2 70.2,72.3 69.4,69.9 66.9,69.4 65.2,71.4 66.1,73.7 	"/>
	<path class="st4" d="M66.5,66.7c0.1-0.2,0.5,0.1,0.8-0.1c0.1-0.1,0.1-0.2,0.3-0.5c0.3-0.3,0.5-0.3,0.6-0.5c0-0.2-0.1-0.3-0.1-0.5
		c0.1-0.2,0.2-0.2,0.3-0.3c0.1-0.2-0.3-0.4-0.3-0.5c0-0.1,0.2-0.1,0.7,0.1c0.8,0.2,0.8,0.3,0.8,0.3c0,0.2-0.7,0.3-0.7,0.7
		c0,0.1,0,0.1,0,0.2c-0.1,0.5-0.7,0.6-0.6,0.8c0,0.2,0.5,0.3,1.3,0.7c0.6,0.3,0.7,0.4,0.7,0.5c0,0.1-0.1,0.1-0.4,0.5
		c-0.3,0.3-0.3,0.4-0.3,0.4c-0.3,0-0.2-0.8-0.8-1.2c-0.3-0.1-0.5-0.3-0.6-0.1c-0.1,0.1,0.1,0.3,0.1,0.5c-0.1,0.2-0.3,0.2-0.3,0.4
		c-0.1,0.3,0.6,0.6,0.5,0.7c0,0.1-0.3-0.1-0.7-0.1c-0.3-0.1-0.5,0-0.6-0.1c-0.1-0.1,0-0.2,0.1-0.3c0.3-0.7,0.5-0.8,0.3-0.9
		c-0.1-0.1-0.4-0.1-0.6,0.1c-0.1,0.1-0.2,0.3-0.2,0.3c-0.1,0.1-0.1,0.1-0.1,0.1c-0.1,0-0.1-0.1-0.3-0.6
		C66.5,66.8,66.4,66.8,66.5,66.7z"/>
	<path class="st4" d="M64.2,67.7c-0.3,0.1-0.5,0.6-0.5,0.8c0.1,0.3,0.7,0,1,0.3c0.2,0.2,0.1,0.5,0.3,0.6c0.3,0.1,0.7-0.1,0.7-0.1
		c0.1,0.1-0.2,0.3-0.6,0.8c-0.2,0.3-0.3,0.4-0.4,0.4c-0.1-0.1,0-0.3-0.1-0.6c-0.1-0.1-0.2-0.2-0.6-0.3c-0.3-0.1-0.7-0.3-1-0.5
		c-0.2-0.1-0.6-0.4-0.5-0.7c0-0.1,0.1-0.1,0.3-0.3c0.3-0.4,0.1-0.7,0.3-0.8c0.1-0.1,0.3-0.1,0.8-0.2c1.1-0.1,1.3-0.2,1.5,0
		c0.1,0.1,0.1,0.2,0.3,0.5c0.1,0.2,0.3,0.7,0.2,0.8S64.9,67.5,64.2,67.7z"/>
	<path class="st4" d="M67.3,69.7c-0.1,0.1-0.1,0.3-0.1,0.5c0.1,0.1,0.2,0.1,0.2,0.3c0,0.1-0.1,0.1-0.1,0.3c-0.1,0.2,0,0.3-0.1,0.3
		c-0.1,0.1-0.5-0.1-0.7-0.4c-0.2-0.3-0.1-0.5-0.2-0.5c-0.1,0-0.1,0.1-0.3,0.4c-0.2,0.2-0.3,0.3-0.3,0.4c-0.1,0.1-0.1,0.3,0,0.5
		c0.1,0.1,0.3-0.1,0.6-0.1c0.2,0.1,0.4,0.3,0.5,0.5c0.1,0.2,0,0.5-0.1,0.7c-0.3,0.1-0.8-0.5-1.1-0.5c-0.1,0.1,0,0.3,0.2,0.9
		c0.2,0.7,0.3,0.7,0.3,0.8c0.1,0.1,0.1,0.1,0.8,0.3c0.6,0.1,0.8,0.2,0.9,0.1c0.1-0.1,0.1-0.1,0.1-0.3c0-0.2-0.3-0.2-0.3-0.4
		c0-0.1,0.3-0.2,0.3-0.5c0-0.1,0.1-0.2,0-0.4c-0.1-0.2-0.3-0.3-0.3-0.3c0-0.1,0.3-0.1,0.5,0c0.5,0.2,0.5,1.1,0.8,1.2
		c0.3,0.1,0.5-0.3,0.6-0.4c0.1-0.1,0.3-0.3,0.2-0.5C69.6,72.2,69,72.2,69,72s0.7-0.1,0.8-0.4c0.1-0.1,0-0.3-0.1-0.6
		c-0.1-0.5-0.1-0.5-0.2-0.5c-0.1,0-0.1,0.3-0.3,0.3s-0.2-0.1-0.3-0.1c-0.1,0-0.1,0.1-0.2,0.3c-0.2,0.2-0.6,0.2-0.7,0.1
		c-0.1-0.2,0.1-0.8,0.5-0.9c0.1-0.1,0.3-0.1,0.3-0.2c0.1-0.1-0.1-0.2-0.1-0.2c-0.1-0.1-0.3-0.1-0.7-0.1
		C67.6,69.7,67.5,69.5,67.3,69.7z"/>
</g>
<g>
	<g id="Ebene_1_00000015349274877744448780000005144845556385446557_">
		<path class="st3" d="M65.8,68.7l-2.6-7.2l-7.5-1.4l-5,5.8l2.6,7.2l7.5,1.4L65.8,68.7z M60.7,73.9l-6.9-1.3l-2.4-6.7l4.6-5.4
			l6.9,1.3l2.4,6.7L60.7,73.9z"/>
		<path class="st4" d="M56,60.6l-4.6,5.4l2.4,6.7l6.9,1.3l4.6-5.4l-2.4-6.7L56,60.6z M56.4,69.3l-2.7-0.5L52.7,66l1.8-2.2l2.7,0.5
			l0.9,2.7L56.4,69.3z M62.2,70.5l-1.8,2.2l-2.7-0.5l-0.9-2.7l1.8-2.2l2.7,0.5L62.2,70.5z M61.3,67.5L58.6,67l-0.9-2.7l1.8-2.2
			l2.7,0.5l0.9,2.7L61.3,67.5z"/>
	</g>
	<path class="st5" d="M57.7,61.7c-0.4-0.2-0.7-0.1-1.1-0.4c-0.1-0.1-0.1-0.1-0.2-0.2c-0.2-0.1-0.5,0.1-0.5,0.3
		c-0.1,0.3,0.1,0.5,0.1,0.5c0.3,0.3,0.7,0.4,1.2,0.4c0.3,0,0.9,0.1,1-0.2C58.2,62.1,57.9,61.8,57.7,61.7z"/>
	<path class="st5" d="M57.3,63c-0.4-0.1-0.6,0.2-1.1,0.1c-0.1,0-0.3-0.1-0.5-0.2c-0.2-0.3-0.1-0.5-0.3-0.6c-0.3-0.2-1.1,0.1-1.2,0.7
		c-0.1,0.2-0.1,0.5,0,0.5c0.1,0.1,0.4-0.4,0.7-0.3c0.3,0,0.3,0.3,0.7,0.5c0.4,0.2,0.8,0.1,1.1,0.1c0.4-0.1,0.9-0.3,0.9-0.5
		C57.6,63.1,57.3,63,57.3,63z"/>
	<path class="st5" d="M63.8,65.5c-0.1-0.5-0.3-0.7-0.3-1.1c-0.1-0.5,0-0.5-0.1-0.9c-0.1-0.6-0.5-1.2-0.5-1.2c-0.1,0-0.1,0.2-0.1,0.3
		c0.1,0.3,0.3,0.4,0.3,0.7c0.1,0.2,0,0.3,0,0.6c0,0.2,0,0.4,0.2,1c0.2,0.7,0.6,1.8,0.7,1.7C64,66.7,63.9,66,63.8,65.5z"/>
	<path class="st5" d="M62.9,67.6c0.1-0.1,0.3,0,0.6-0.1c0.2-0.1,0.3-0.5,0.3-0.6c-0.1-0.1-0.2,0-0.5,0c-0.3,0-0.3-0.2-0.5-0.2
		c-0.3,0-0.6,0.4-0.7,0.8s0.3,0.5,0.3,0.9c0,0.3-0.3,0.5-0.2,0.6c0.1,0.1,0.9-0.4,0.9-0.8C63,67.8,62.8,67.7,62.9,67.6z"/>
	<path class="st5" d="M64.5,68.7c0.1-0.3,0.3-0.3,0.3-0.5c0.1-0.3-0.1-0.7-0.3-0.7c-0.1,0-0.1,0.2-0.3,0.4c-0.2,0.1-0.4,0-0.5,0.1
		c-0.1,0.1,0.2,0.4,0.1,0.7C63.7,69,63,68.9,63,69.1c-0.1,0.2,0.3,0.6,0.6,0.6c0.4,0.1,0.7-0.4,0.7-0.5C64.3,69.1,64.3,69,64.5,68.7
		z"/>
	<path class="st5" d="M55.8,69.7c0,0-0.1-0.1-0.3-0.1c-0.5-0.2-0.6-0.2-0.7-0.1c-0.1,0.1-0.3,0.2-0.2,0.3c0,0.1,0.3,0.1,0.3,0.2
		c0,0-0.4,0.1-0.5,0.3c-0.1,0.1,0.1,0.4,0.2,0.5c0.3,0.1,0.4-0.4,0.7-0.4c0.2,0.1,0.2,0.5,0.3,0.5s0.2-0.3,0.3-0.5
		C56,70.2,56,69.9,55.8,69.7z"/>
	<path class="st5" d="M56.9,71.2c-0.2-0.4-0.3-0.7-0.4-0.6c-0.1,0,0,0.4-0.2,0.6c-0.2,0.2-0.6,0.1-0.7,0C55.2,71.2,55.1,71,55,71
		c-0.2,0.1-0.3,0.4-0.2,0.6c0.1,0.2,0.3,0.3,0.3,0.3c0.3,0.1,0.5-0.1,0.7-0.1c0.1,0.1,0.1,0.1,0.2,0.3s0.3,0.5,0.5,0.4
		c0.3,0,0.5-0.4,0.5-0.7C57,71.7,57,71.6,56.9,71.2z"/>
	<path class="st5" d="M54.2,69.5c0.2-0.3,0.3-0.3,0.3-0.3c-0.1-0.1-0.7,0.2-1.1-0.1c-0.1-0.1-0.1-0.1-0.4-0.8
		c-0.2-0.4-0.3-0.6-0.3-0.5c-0.1,0-0.1,0.5,0,0.9c0.1,0.3,0.1,0.5,0.3,0.8c0.2,0.3,0.3,0.3,0.3,0.5c0.1,0.3-0.1,0.5,0,0.7
		c0.1,0.1,0.3,0.1,0.4-0.1c0.1-0.1,0.1-0.2,0.2-0.5C54,70,54.1,69.8,54.2,69.5z"/>
	<path class="st5" d="M53.2,64.6c-0.3-0.1-0.8,0.3-0.7,0.5c0,0.1,0.2,0.2,0.4,0.3c0.2,0,0.5-0.1,0.5-0.4
		C53.4,64.8,53.3,64.7,53.2,64.6z"/>
	<path class="st5" d="M52.3,66.7c-0.3-0.5,0.1-0.9-0.1-1c-0.1-0.1-0.3,0.1-0.3,0.3c-0.1,0.1-0.1,0.3-0.1,0.3c0,0.2,0.1,0.3,0.2,0.5
		c0.1,0.4,0.1,0.7,0.1,0.7c0.1,0.1,0.3-0.1,0.3-0.3C52.6,66.9,52.5,66.9,52.3,66.7z"/>
	<path class="st5" d="M60.1,72.9c-0.1-0.1-0.2,0-0.5,0c-0.1,0-0.3-0.1-0.4-0.1c-0.3-0.1-0.3-0.1-0.5-0.2c-0.2,0-0.6-0.1-0.7,0
		c-0.1,0.1,0.1,0.3,0.3,0.4c0.2,0.1,0.3-0.1,0.6,0c0.2,0.1,0.2,0.1,0.5,0.3c0.1,0.1,0.5,0.2,0.7,0.1C60.2,73.2,60.2,73,60.1,72.9z"
		/>
	<path class="st5" d="M61.9,71.4c-0.1-0.1-0.4,0.1-0.4,0.3c0,0.1,0,0.2,0.1,0.3c0.1,0.1,0.4-0.1,0.5-0.3
		C62.1,71.6,62,71.4,61.9,71.4z"/>
	<path class="st5" d="M61.6,72.5c-0.1-0.1-0.4-0.2-0.6-0.1c0,0-0.3,0.1-0.3,0.3c0,0.2,0.2,0.3,0.4,0.3
		C61.3,73.1,61.6,72.7,61.6,72.5z"/>
	<path class="st5" d="M63.4,70.1c-0.1-0.1-0.4,0.4-0.7,0.3c-0.1-0.1-0.1-0.5-0.2-0.5c0,0-0.1,0.1-0.2,0.3c0,0.3,0.1,0.3,0.2,0.7
		c0,0.2,0,0.3,0,0.3c0.1,0,0.2-0.3,0.5-0.7C63.4,70.2,63.5,70.1,63.4,70.1z"/>
	<path class="st5" d="M60.7,61.7c-0.3-0.1-0.4,0-0.8-0.1c-0.4-0.1-0.5-0.2-0.7-0.1c-0.1,0.1-0.3,0.2-0.5,0.5
		c-0.2,0.2-0.5,0.6-0.4,0.7c0.1,0.1,0.5-0.1,0.8-0.4c0.3-0.2,0.3-0.3,0.4-0.4c0.3-0.1,0.5,0.3,0.9,0.3c0.2,0,0.5,0,0.5-0.1
		C61,61.9,60.9,61.8,60.7,61.7z"/>
	<path class="st5" d="M61.9,61.8c0,0-0.3-0.1-0.5,0.1c0,0.1,0,0.1,0,0.2c0.1,0.1,0.1,0.1,0.4,0.1c0.5,0,0.5,0,0.5-0.1
		C62.3,62.1,62.1,61.9,61.9,61.8z"/>
	<path class="st5" d="M54.6,71.8c-0.2-0.3,0-0.7-0.1-0.8c-0.1-0.1-0.5,0.1-0.7,0.3c-0.1,0.1-0.1,0.3,0,0.5c0.1,0.3,0.1,0.5,0.2,0.6
		c0.4,0.3,1.2,0,1.2-0.2C55.2,72.1,54.8,72.1,54.6,71.8z"/>
	<path class="st5" d="M57.7,72.5c-0.1-0.1-0.2,0.2-0.5,0.2c-0.1,0-0.2,0-0.5-0.1c-0.3,0-0.4,0-0.4,0c-0.1,0.1,0.7,0.6,1.1,0.3
		C57.6,72.9,57.7,72.5,57.7,72.5z"/>
	<polygon class="st3" points="61.2,67.2 62.9,65.3 62,62.9 59.6,62.5 57.9,64.4 58.8,66.7 	"/>
	<polygon class="st3" points="56.3,69 57.9,67 57,64.7 54.6,64.2 53,66.1 53.8,68.5 	"/>
	<polygon class="st3" points="60.2,72.4 61.9,70.5 61.1,68.1 58.6,67.6 56.9,69.5 57.8,71.9 	"/>
	<path class="st4" d="M58.2,64.9c0.1-0.2,0.5,0.1,0.8-0.1c0.1-0.1,0.1-0.2,0.3-0.5c0.3-0.3,0.5-0.3,0.6-0.5c0-0.2-0.1-0.3-0.1-0.5
		c0.1-0.2,0.2-0.2,0.3-0.3c0.1-0.2-0.3-0.4-0.3-0.5c0-0.1,0.2-0.1,0.7,0.1c0.8,0.2,0.8,0.3,0.8,0.3c0,0.2-0.7,0.3-0.7,0.7
		c0,0.1,0,0.1,0,0.2c-0.1,0.5-0.7,0.6-0.6,0.8c0,0.2,0.5,0.3,1.3,0.7c0.6,0.3,0.7,0.4,0.7,0.5c0,0.1-0.1,0.1-0.4,0.5
		c-0.3,0.3-0.3,0.4-0.3,0.4c-0.3,0-0.2-0.8-0.8-1.2c-0.3-0.1-0.5-0.3-0.6-0.1c-0.1,0.1,0.1,0.3,0.1,0.5c-0.1,0.2-0.3,0.2-0.3,0.4
		c-0.1,0.3,0.6,0.6,0.5,0.7c0,0.1-0.3-0.1-0.7-0.1c-0.3-0.1-0.5,0-0.6-0.1c-0.1-0.1,0-0.2,0.1-0.3c0.3-0.7,0.5-0.8,0.3-0.9
		c-0.1-0.1-0.4-0.1-0.6,0.1c-0.1,0.1-0.2,0.3-0.2,0.3c-0.1,0.1-0.1,0.1-0.1,0.1c-0.1,0-0.1-0.1-0.3-0.6
		C58.2,64.9,58.1,64.9,58.2,64.9z"/>
	<path class="st4" d="M56,65.9c-0.3,0.1-0.5,0.6-0.5,0.8c0.1,0.3,0.7,0,1,0.3c0.2,0.2,0.1,0.5,0.3,0.6c0.3,0.1,0.7-0.1,0.7-0.1
		c0.1,0.1-0.2,0.3-0.6,0.8c-0.2,0.3-0.3,0.4-0.4,0.4c-0.1-0.1,0-0.3-0.1-0.6c-0.1-0.1-0.2-0.2-0.6-0.3c-0.3-0.1-0.7-0.3-1-0.5
		c-0.2-0.1-0.6-0.4-0.5-0.7c0-0.1,0.1-0.1,0.3-0.3c0.3-0.4,0.1-0.7,0.3-0.8c0.1-0.1,0.3-0.1,0.8-0.2c1.1-0.1,1.3-0.2,1.5,0
		c0.1,0.1,0.1,0.2,0.3,0.5c0.1,0.2,0.3,0.7,0.2,0.8S56.6,65.7,56,65.9z"/>
	<path class="st4" d="M59,67.8c-0.1,0.1-0.1,0.3-0.1,0.5c0.1,0.1,0.2,0.1,0.2,0.3c0,0.1-0.1,0.1-0.1,0.3c-0.1,0.2,0,0.3-0.1,0.3
		c-0.1,0.1-0.5-0.1-0.7-0.4c-0.2-0.3-0.1-0.5-0.2-0.5c-0.1,0-0.1,0.1-0.3,0.4c-0.2,0.2-0.3,0.3-0.3,0.4c-0.1,0.1-0.1,0.3,0,0.5
		c0.1,0.1,0.3-0.1,0.6-0.1c0.2,0.1,0.4,0.3,0.5,0.5c0.1,0.2,0,0.5-0.1,0.7c-0.3,0.1-0.8-0.5-1.1-0.5c-0.1,0.1,0,0.3,0.2,0.9
		c0.2,0.7,0.3,0.7,0.3,0.8c0.1,0.1,0.1,0.1,0.8,0.3c0.6,0.1,0.8,0.2,0.9,0.1c0.1-0.1,0.1-0.1,0.1-0.3c0-0.2-0.3-0.2-0.3-0.4
		c0-0.1,0.3-0.2,0.3-0.5c0-0.1,0.1-0.2,0-0.4c-0.1-0.2-0.3-0.3-0.3-0.3c0-0.1,0.3-0.1,0.5,0c0.5,0.2,0.5,1.1,0.8,1.2
		c0.3,0.1,0.5-0.3,0.6-0.4c0.1-0.1,0.3-0.3,0.2-0.5c-0.1-0.3-0.7-0.3-0.7-0.5s0.7-0.1,0.8-0.4c0.1-0.1,0-0.3-0.1-0.6
		c-0.1-0.5-0.1-0.5-0.2-0.5c-0.1,0-0.1,0.3-0.3,0.3s-0.2-0.1-0.3-0.1c-0.1,0-0.1,0.1-0.2,0.3c-0.2,0.2-0.6,0.2-0.7,0.1
		c-0.1-0.2,0.1-0.8,0.5-0.9c0.1-0.1,0.3-0.1,0.3-0.2c0.1-0.1-0.1-0.2-0.1-0.2c-0.1-0.1-0.3-0.1-0.7-0.1C59.3,67.8,59.2,67.7,59,67.8
		z"/>
</g>
<g>
	<g id="Ebene_1_00000101797387931501450050000004877375985433526194_">
		<path class="st3" d="M55.6,68.3L53,61.1l-7.5-1.4l-5,5.8l2.6,7.2l7.5,1.4L55.6,68.3z M50.4,73.6l-6.9-1.3l-2.4-6.7l4.6-5.4
			l6.9,1.3l2.4,6.7L50.4,73.6z"/>
		<path class="st4" d="M45.7,60.2l-4.6,5.4l2.4,6.7l6.9,1.3l4.6-5.4l-2.4-6.7L45.7,60.2z M46.2,68.9l-2.7-0.5l-0.9-2.7l1.8-2.2
			l2.7,0.5l0.9,2.7L46.2,68.9z M52,70.2l-1.8,2.2l-2.7-0.5l-0.9-2.7l1.8-2.2l2.7,0.5L52,70.2z M51.1,67.2l-2.7-0.5L47.4,64l1.8-2.2
			l2.7,0.5l0.9,2.7L51.1,67.2z"/>
	</g>
	<path class="st5" d="M47.4,61.3c-0.4-0.2-0.7-0.1-1.1-0.4c-0.1-0.1-0.1-0.1-0.2-0.2c-0.2-0.1-0.5,0.1-0.5,0.3
		c-0.1,0.3,0.1,0.5,0.1,0.5c0.3,0.3,0.7,0.4,1.2,0.4c0.3,0,0.9,0.1,1-0.2C48,61.7,47.7,61.5,47.4,61.3z"/>
	<path class="st5" d="M47,62.7c-0.4-0.1-0.6,0.2-1.1,0.1c-0.1,0-0.3-0.1-0.5-0.2c-0.2-0.3-0.1-0.5-0.3-0.6c-0.3-0.2-1.1,0.1-1.2,0.7
		c-0.1,0.2-0.1,0.5,0,0.5c0.1,0.1,0.4-0.4,0.7-0.3c0.3,0,0.3,0.3,0.7,0.5c0.4,0.2,0.8,0.1,1.1,0.1c0.4-0.1,0.9-0.3,0.9-0.5
		C47.4,62.7,47,62.7,47,62.7z"/>
	<path class="st5" d="M53.5,65.2c-0.1-0.5-0.3-0.7-0.3-1.1c-0.1-0.5,0-0.5-0.1-0.9C53,62.6,52.7,62,52.6,62c-0.1,0-0.1,0.2-0.1,0.3
		c0.1,0.3,0.3,0.4,0.3,0.7c0.1,0.2,0,0.3,0,0.6c0,0.2,0,0.4,0.2,1c0.2,0.7,0.6,1.8,0.7,1.7C53.8,66.4,53.7,65.7,53.5,65.2z"/>
	<path class="st5" d="M52.7,67.3c0.1-0.1,0.3,0,0.6-0.1c0.2-0.1,0.3-0.5,0.3-0.6c-0.1-0.1-0.2,0-0.5,0c-0.3,0-0.3-0.2-0.5-0.2
		c-0.3,0-0.6,0.4-0.7,0.8c-0.1,0.4,0.3,0.5,0.3,0.9c0,0.3-0.3,0.5-0.2,0.6c0.1,0.1,0.9-0.4,0.9-0.8C52.8,67.5,52.6,67.4,52.7,67.3z"
		/>
	<path class="st5" d="M54.2,68.3c0.1-0.3,0.3-0.3,0.3-0.5c0.1-0.3-0.1-0.7-0.3-0.7c-0.1,0-0.1,0.2-0.3,0.4c-0.2,0.1-0.4,0-0.5,0.1
		c-0.1,0.1,0.2,0.4,0.1,0.7c-0.1,0.3-0.8,0.3-0.8,0.5c-0.1,0.2,0.3,0.6,0.6,0.6c0.4,0.1,0.7-0.4,0.7-0.5
		C54.1,68.7,54.1,68.7,54.2,68.3z"/>
	<path class="st5" d="M45.6,69.4c0,0-0.1-0.1-0.3-0.1c-0.5-0.2-0.6-0.2-0.7-0.1c-0.1,0.1-0.3,0.2-0.2,0.3c0,0.1,0.3,0.1,0.3,0.2
		c0,0-0.4,0.1-0.5,0.3c-0.1,0.1,0.1,0.4,0.2,0.5c0.3,0.1,0.4-0.4,0.7-0.4c0.2,0.1,0.2,0.5,0.3,0.5c0.1,0,0.2-0.3,0.3-0.5
		C45.7,69.8,45.8,69.6,45.6,69.4z"/>
	<path class="st5" d="M46.6,70.9c-0.2-0.4-0.3-0.7-0.4-0.6c-0.1,0,0,0.4-0.2,0.6c-0.2,0.2-0.6,0.1-0.7,0c-0.3-0.1-0.4-0.3-0.5-0.2
		c-0.2,0.1-0.3,0.4-0.2,0.6c0.1,0.2,0.3,0.3,0.3,0.3c0.3,0.1,0.5-0.1,0.7-0.1c0.1,0.1,0.1,0.1,0.2,0.3c0.1,0.1,0.3,0.5,0.5,0.4
		c0.3,0,0.5-0.4,0.5-0.7C46.8,71.4,46.8,71.3,46.6,70.9z"/>
	<path class="st5" d="M44,69.2c0.2-0.3,0.3-0.3,0.3-0.3c-0.1-0.1-0.7,0.2-1.1-0.1c-0.1-0.1-0.1-0.1-0.4-0.8
		c-0.2-0.4-0.3-0.6-0.3-0.5c-0.1,0-0.1,0.5,0,0.9c0.1,0.3,0.1,0.5,0.3,0.8c0.2,0.3,0.3,0.3,0.3,0.5c0.1,0.3-0.1,0.5,0,0.7
		c0.1,0.1,0.3,0.1,0.4-0.1c0.1-0.1,0.1-0.2,0.2-0.5C43.8,69.7,43.8,69.5,44,69.2z"/>
	<path class="st5" d="M43,64.3c-0.3-0.1-0.8,0.3-0.7,0.5c0,0.1,0.2,0.2,0.4,0.3c0.2,0,0.5-0.1,0.5-0.4C43.2,64.5,43.1,64.4,43,64.3z
		"/>
	<path class="st5" d="M42.1,66.4c-0.3-0.5,0.1-0.9-0.1-1c-0.1-0.1-0.3,0.1-0.3,0.3c-0.1,0.1-0.1,0.3-0.1,0.3c0,0.2,0.1,0.3,0.2,0.5
		c0.1,0.4,0.1,0.7,0.1,0.7c0.1,0.1,0.3-0.1,0.3-0.3C42.3,66.6,42.3,66.6,42.1,66.4z"/>
	<path class="st5" d="M49.9,72.5c-0.1-0.1-0.2,0-0.5,0c-0.1,0-0.3-0.1-0.4-0.1c-0.3-0.1-0.3-0.1-0.5-0.2c-0.2,0-0.6-0.1-0.7,0
		c-0.1,0.1,0.1,0.3,0.3,0.4c0.2,0.1,0.3-0.1,0.6,0c0.2,0.1,0.2,0.1,0.5,0.3c0.1,0.1,0.5,0.2,0.7,0.1C50,72.9,50,72.7,49.9,72.5z"/>
	<path class="st5" d="M51.7,71.1c-0.1-0.1-0.4,0.1-0.4,0.3c0,0.1,0,0.2,0.1,0.3c0.1,0.1,0.4-0.1,0.5-0.3
		C51.9,71.3,51.8,71.1,51.7,71.1z"/>
	<path class="st5" d="M51.4,72.2c-0.1-0.1-0.4-0.2-0.6-0.1c0,0-0.3,0.1-0.3,0.3s0.2,0.3,0.4,0.3C51.1,72.7,51.4,72.4,51.4,72.2z"/>
	<path class="st5" d="M53.2,69.7c-0.1-0.1-0.4,0.4-0.7,0.3c-0.1-0.1-0.1-0.5-0.2-0.5s-0.1,0.1-0.2,0.3c0,0.3,0.1,0.3,0.2,0.7
		c0,0.2,0,0.3,0,0.3c0.1,0,0.2-0.3,0.5-0.7C53.1,69.9,53.3,69.7,53.2,69.7z"/>
	<path class="st5" d="M50.5,61.4c-0.3-0.1-0.4,0-0.8-0.1c-0.4-0.1-0.5-0.2-0.7-0.1c-0.1,0.1-0.3,0.2-0.5,0.5
		c-0.2,0.2-0.5,0.6-0.4,0.7c0.1,0.1,0.5-0.1,0.8-0.4c0.3-0.2,0.3-0.3,0.4-0.4c0.3-0.1,0.5,0.3,0.9,0.3c0.2,0,0.5,0,0.5-0.1
		C50.8,61.6,50.7,61.5,50.5,61.4z"/>
	<path class="st5" d="M51.6,61.5c0,0-0.3-0.1-0.5,0.1c0,0.1,0,0.1,0,0.2c0.1,0.1,0.1,0.1,0.4,0.1c0.5,0,0.5,0,0.5-0.1
		C52.1,61.7,51.9,61.6,51.6,61.5z"/>
	<path class="st5" d="M44.4,71.5c-0.2-0.3,0-0.7-0.1-0.8c-0.1-0.1-0.5,0.1-0.7,0.3c-0.1,0.1-0.1,0.3,0,0.5c0.1,0.3,0.1,0.5,0.2,0.6
		c0.4,0.3,1.2,0,1.2-0.2C45,71.8,44.6,71.8,44.4,71.5z"/>
	<path class="st5" d="M47.4,72.1c-0.1-0.1-0.2,0.2-0.5,0.2c-0.1,0-0.2,0-0.5-0.1c-0.3,0-0.4,0-0.4,0c-0.1,0.1,0.7,0.6,1.1,0.3
		C47.4,72.5,47.5,72.2,47.4,72.1z"/>
	<polygon class="st3" points="51,66.9 52.7,65 51.8,62.6 49.3,62.1 47.7,64 48.5,66.4 	"/>
	<polygon class="st3" points="46.1,68.7 47.7,66.7 46.8,64.4 44.4,63.9 42.8,65.8 43.6,68.2 	"/>
	<polygon class="st3" points="50,72 51.6,70.1 50.8,67.8 48.4,67.3 46.7,69.2 47.6,71.6 	"/>
	<path class="st4" d="M48,64.6c0.1-0.2,0.5,0.1,0.8-0.1c0.1-0.1,0.1-0.2,0.3-0.5c0.3-0.3,0.5-0.3,0.6-0.5c0-0.2-0.1-0.3-0.1-0.5
		c0.1-0.2,0.2-0.2,0.3-0.3c0.1-0.2-0.3-0.4-0.3-0.5c0-0.1,0.2-0.1,0.7,0.1c0.8,0.2,0.8,0.3,0.8,0.3c0,0.2-0.7,0.3-0.7,0.7
		c0,0.1,0,0.1,0,0.2c-0.1,0.5-0.7,0.6-0.6,0.8c0,0.2,0.5,0.3,1.3,0.7c0.6,0.3,0.7,0.4,0.7,0.5c0,0.1-0.1,0.1-0.4,0.5
		c-0.3,0.3-0.3,0.4-0.3,0.4c-0.3,0-0.2-0.8-0.8-1.2c-0.3-0.1-0.5-0.3-0.6-0.1c-0.1,0.1,0.1,0.3,0.1,0.5c-0.1,0.2-0.3,0.2-0.3,0.4
		c-0.1,0.3,0.6,0.6,0.5,0.7c0,0.1-0.3-0.1-0.7-0.1c-0.3-0.1-0.5,0-0.6-0.1c-0.1-0.1,0-0.2,0.1-0.3c0.3-0.7,0.5-0.8,0.3-0.9
		C49.3,65,49,65,48.8,65.2c-0.1,0.1-0.2,0.3-0.2,0.3c-0.1,0.1-0.1,0.1-0.1,0.1c-0.1,0-0.1-0.1-0.3-0.6C48,64.6,47.9,64.6,48,64.6z"
		/>
	<path class="st4" d="M45.7,65.5c-0.3,0.1-0.5,0.6-0.5,0.8c0.1,0.3,0.7,0,1,0.3c0.2,0.2,0.1,0.5,0.3,0.6c0.3,0.1,0.7-0.1,0.7-0.1
		c0.1,0.1-0.2,0.3-0.6,0.8c-0.2,0.3-0.3,0.4-0.4,0.4c-0.1-0.1,0-0.3-0.1-0.6c-0.1-0.1-0.2-0.2-0.6-0.3c-0.3-0.1-0.7-0.3-1-0.5
		c-0.2-0.1-0.6-0.4-0.5-0.7c0-0.1,0.1-0.1,0.3-0.3c0.3-0.4,0.1-0.7,0.3-0.8c0.1-0.1,0.3-0.1,0.8-0.2c1.1-0.1,1.3-0.2,1.5,0
		c0.1,0.1,0.1,0.2,0.3,0.5c0.1,0.2,0.3,0.7,0.2,0.8C47.2,66.4,46.4,65.4,45.7,65.5z"/>
	<path class="st4" d="M48.8,67.5c-0.1,0.1-0.1,0.3-0.1,0.5c0.1,0.1,0.2,0.1,0.2,0.3c0,0.1-0.1,0.1-0.1,0.3c-0.1,0.2,0,0.3-0.1,0.3
		c-0.1,0.1-0.5-0.1-0.7-0.4c-0.2-0.3-0.1-0.5-0.2-0.5c-0.1,0-0.1,0.1-0.3,0.4c-0.2,0.2-0.3,0.3-0.3,0.4c-0.1,0.1-0.1,0.3,0,0.5
		c0.1,0.1,0.3-0.1,0.6-0.1c0.2,0.1,0.4,0.3,0.5,0.5c0.1,0.2,0,0.5-0.1,0.7c-0.3,0.1-0.8-0.5-1.1-0.5c-0.1,0.1,0,0.3,0.2,0.9
		c0.2,0.7,0.3,0.7,0.3,0.8c0.1,0.1,0.1,0.1,0.8,0.3c0.6,0.1,0.8,0.2,0.9,0.1c0.1-0.1,0.1-0.1,0.1-0.3c0-0.2-0.3-0.2-0.3-0.4
		c0-0.1,0.3-0.2,0.3-0.5c0-0.1,0.1-0.2,0-0.4c-0.1-0.2-0.3-0.3-0.3-0.3s0.3-0.1,0.5,0c0.5,0.2,0.5,1.1,0.8,1.2
		c0.3,0.1,0.5-0.3,0.6-0.4c0.1-0.1,0.3-0.3,0.2-0.5c-0.1-0.3-0.7-0.3-0.7-0.5c0-0.2,0.7-0.1,0.8-0.4c0.1-0.1,0-0.3-0.1-0.6
		C51,68.3,51,68.3,51,68.3c-0.1,0-0.1,0.3-0.3,0.3s-0.2-0.1-0.3-0.1c-0.1,0-0.1,0.1-0.2,0.3C50,69,49.6,69,49.6,68.9
		c-0.1-0.2,0.1-0.8,0.5-0.9c0.1-0.1,0.3-0.1,0.3-0.2c0.1-0.1-0.1-0.2-0.1-0.2c-0.1-0.1-0.3-0.1-0.7-0.1
		C49.1,67.5,48.9,67.4,48.8,67.5z"/>
</g>
<g>
	<g id="Ebene_1_00000160896132878187614920000007518780636904084356_">
		<path class="st3" d="M60.8,72.9l-2.6-7.2l-7.5-1.4l-5,5.8l2.6,7.2l7.5,1.4L60.8,72.9z M55.7,78.2l-6.9-1.3l-2.4-6.7l4.6-5.4
			l6.9,1.3l2.4,6.7L55.7,78.2z"/>
		<path class="st4" d="M51,64.8l-4.6,5.4l2.4,6.7l6.9,1.3l4.6-5.4L58,66.1L51,64.8z M51.5,73.5L48.7,73l-0.9-2.7l1.8-2.2l2.7,0.5
			l0.9,2.7L51.5,73.5z M57.3,74.7l-1.8,2.2l-2.7-0.5l-0.9-2.7l1.8-2.2l2.7,0.5L57.3,74.7z M56.4,71.7l-2.7-0.5l-0.9-2.7l1.8-2.2
			l2.7,0.5l0.9,2.7L56.4,71.7z"/>
	</g>
	<path class="st5" d="M52.7,65.9c-0.4-0.2-0.7-0.1-1.1-0.4c-0.1-0.1-0.1-0.1-0.2-0.2c-0.2-0.1-0.5,0.1-0.5,0.3
		c-0.1,0.3,0.1,0.5,0.1,0.5c0.3,0.3,0.7,0.4,1.2,0.4c0.3,0,0.9,0.1,1-0.2C53.3,66.3,53,66,52.7,65.9z"/>
	<path class="st5" d="M52.3,67.2c-0.4-0.1-0.6,0.2-1.1,0.1c-0.1,0-0.3-0.1-0.5-0.2c-0.2-0.3-0.1-0.5-0.3-0.6
		c-0.3-0.2-1.1,0.1-1.2,0.7c-0.1,0.2-0.1,0.5,0,0.5c0.1,0.1,0.4-0.4,0.7-0.3c0.3,0,0.3,0.3,0.7,0.5c0.4,0.2,0.8,0.1,1.1,0.1
		c0.4-0.1,0.9-0.3,0.9-0.5C52.7,67.3,52.3,67.2,52.3,67.2z"/>
	<path class="st5" d="M58.8,69.8c-0.1-0.5-0.3-0.7-0.3-1.1c-0.1-0.5,0-0.5-0.1-0.9c-0.1-0.6-0.5-1.2-0.5-1.2c-0.1,0-0.1,0.2-0.1,0.3
		c0.1,0.3,0.3,0.4,0.3,0.7c0.1,0.2,0,0.3,0,0.6c0,0.2,0,0.4,0.2,1c0.2,0.7,0.6,1.8,0.7,1.7C59.1,70.9,58.9,70.3,58.8,69.8z"/>
	<path class="st5" d="M58,71.8c0.1-0.1,0.3,0,0.6-0.1c0.2-0.1,0.3-0.5,0.3-0.6c-0.1-0.1-0.2,0-0.5,0c-0.3,0-0.3-0.2-0.5-0.2
		c-0.3,0-0.6,0.4-0.7,0.8s0.3,0.5,0.3,0.9c0,0.3-0.3,0.5-0.2,0.6c0.1,0.1,0.9-0.4,0.9-0.8C58.1,72.1,57.9,71.9,58,71.8z"/>
	<path class="st5" d="M59.5,72.9c0.1-0.3,0.3-0.3,0.3-0.5c0.1-0.3-0.1-0.7-0.3-0.7c-0.1,0-0.1,0.2-0.3,0.4c-0.2,0.1-0.4,0-0.5,0.1
		c-0.1,0.1,0.2,0.4,0.1,0.7c-0.1,0.3-0.8,0.3-0.8,0.5C58,73.6,58.3,74,58.6,74c0.4,0.1,0.7-0.4,0.7-0.5
		C59.4,73.3,59.3,73.2,59.5,72.9z"/>
	<path class="st5" d="M50.9,74c0,0-0.1-0.1-0.3-0.1c-0.5-0.2-0.6-0.2-0.7-0.1c-0.1,0.1-0.3,0.2-0.2,0.3c0,0.1,0.3,0.1,0.3,0.2
		c0,0-0.4,0.1-0.5,0.3c-0.1,0.1,0.1,0.4,0.2,0.5c0.3,0.1,0.4-0.4,0.7-0.4c0.2,0.1,0.2,0.5,0.3,0.5c0.1,0,0.2-0.3,0.3-0.5
		C51,74.4,51.1,74.1,50.9,74z"/>
	<path class="st5" d="M51.9,75.5c-0.2-0.4-0.3-0.7-0.4-0.6c-0.1,0,0,0.4-0.2,0.6c-0.2,0.2-0.6,0.1-0.7,0c-0.3-0.1-0.4-0.3-0.5-0.2
		c-0.2,0.1-0.3,0.4-0.2,0.6s0.3,0.3,0.3,0.3c0.3,0.1,0.5-0.1,0.7-0.1c0.1,0.1,0.1,0.1,0.2,0.3s0.3,0.5,0.5,0.4
		c0.3,0,0.5-0.4,0.5-0.7C52.1,75.9,52.1,75.9,51.9,75.5z"/>
	<path class="st5" d="M49.3,73.8c0.2-0.3,0.3-0.3,0.3-0.3c-0.1-0.1-0.7,0.2-1.1-0.1c-0.1-0.1-0.1-0.1-0.4-0.8
		c-0.2-0.4-0.3-0.6-0.3-0.5c-0.1,0-0.1,0.5,0,0.9c0.1,0.3,0.1,0.5,0.3,0.8c0.2,0.3,0.3,0.3,0.3,0.5c0.1,0.3-0.1,0.5,0,0.7
		c0.1,0.1,0.3,0.1,0.4-0.1c0.1-0.1,0.1-0.2,0.2-0.5C49.1,74.2,49.1,74,49.3,73.8z"/>
	<path class="st5" d="M48.3,68.9c-0.3-0.1-0.8,0.3-0.7,0.5c0,0.1,0.2,0.2,0.4,0.3c0.2,0,0.5-0.1,0.5-0.4
		C48.5,69,48.4,68.9,48.3,68.9z"/>
	<path class="st5" d="M47.4,70.9c-0.3-0.5,0.1-0.9-0.1-1c-0.1-0.1-0.3,0.1-0.3,0.3c-0.1,0.1-0.1,0.3-0.1,0.3c0,0.2,0.1,0.3,0.2,0.5
		c0.1,0.4,0.1,0.7,0.1,0.7c0.1,0.1,0.3-0.1,0.3-0.3C47.6,71.2,47.6,71.2,47.4,70.9z"/>
	<path class="st5" d="M55.2,77.1c-0.1-0.1-0.2,0-0.5,0c-0.1,0-0.3-0.1-0.4-0.1c-0.3-0.1-0.3-0.1-0.5-0.2c-0.2,0-0.6-0.1-0.7,0
		c-0.1,0.1,0.1,0.3,0.3,0.4c0.2,0.1,0.3-0.1,0.6,0c0.2,0.1,0.2,0.1,0.5,0.3c0.1,0.1,0.5,0.2,0.7,0.1C55.3,77.4,55.3,77.2,55.2,77.1z
		"/>
	<path class="st5" d="M57,75.7c-0.1-0.1-0.4,0.1-0.4,0.3c0,0.1,0,0.2,0.1,0.3c0.1,0.1,0.4-0.1,0.5-0.3C57.2,75.9,57.1,75.7,57,75.7z
		"/>
	<path class="st5" d="M56.6,76.8c-0.1-0.1-0.4-0.2-0.6-0.1c0,0-0.3,0.1-0.3,0.3c0,0.2,0.2,0.3,0.4,0.3C56.4,77.3,56.7,77,56.6,76.8z
		"/>
	<path class="st5" d="M58.5,74.3c-0.1-0.1-0.4,0.4-0.7,0.3c-0.1-0.1-0.1-0.5-0.2-0.5s-0.1,0.1-0.2,0.3c0,0.3,0.1,0.3,0.2,0.7
		c0,0.2,0,0.3,0,0.3c0.1,0,0.2-0.3,0.5-0.7C58.4,74.5,58.5,74.3,58.5,74.3z"/>
	<path class="st5" d="M55.8,66c-0.3-0.1-0.4,0-0.8-0.1c-0.4-0.1-0.5-0.2-0.7-0.1c-0.1,0.1-0.3,0.2-0.5,0.5c-0.2,0.2-0.5,0.6-0.4,0.7
		s0.5-0.1,0.8-0.4c0.3-0.2,0.3-0.3,0.4-0.4c0.3-0.1,0.5,0.3,0.9,0.3c0.2,0,0.5,0,0.5-0.1C56.1,66.2,56,66,55.8,66z"/>
	<path class="st5" d="M56.9,66.1c0,0-0.3-0.1-0.5,0.1c0,0.1,0,0.1,0,0.2c0.1,0.1,0.1,0.1,0.4,0.1c0.5,0,0.5,0,0.5-0.1
		C57.4,66.3,57.2,66.2,56.9,66.1z"/>
	<path class="st5" d="M49.7,76c-0.2-0.3,0-0.7-0.1-0.8c-0.1-0.1-0.5,0.1-0.7,0.3c-0.1,0.1-0.1,0.3,0,0.5c0.1,0.3,0.1,0.5,0.2,0.6
		c0.4,0.3,1.2,0,1.2-0.2C50.3,76.3,49.9,76.4,49.7,76z"/>
	<path class="st5" d="M52.7,76.7c-0.1-0.1-0.2,0.2-0.5,0.2c-0.1,0-0.2,0-0.5-0.1c-0.3,0-0.4,0-0.4,0c-0.1,0.1,0.7,0.6,1.1,0.3
		C52.7,77.1,52.8,76.8,52.7,76.7z"/>
	<polygon class="st3" points="56.3,71.4 58,69.5 57.1,67.1 54.6,66.7 53,68.6 53.8,70.9 	"/>
	<polygon class="st3" points="51.4,73.2 53,71.3 52.1,68.9 49.7,68.5 48.1,70.3 48.9,72.7 	"/>
	<polygon class="st3" points="55.3,76.6 56.9,74.7 56.1,72.3 53.7,71.8 52,73.8 52.8,76.1 	"/>
	<path class="st4" d="M53.3,69.1c0.1-0.2,0.5,0.1,0.8-0.1c0.1-0.1,0.1-0.2,0.3-0.5c0.3-0.3,0.5-0.3,0.6-0.5c0-0.2-0.1-0.3-0.1-0.5
		c0.1-0.2,0.2-0.2,0.3-0.3c0.1-0.2-0.3-0.4-0.3-0.5c0-0.1,0.2-0.1,0.7,0.1c0.8,0.2,0.8,0.3,0.8,0.3c0,0.2-0.7,0.3-0.7,0.7
		c0,0.1,0,0.1,0,0.2c-0.1,0.5-0.7,0.6-0.6,0.8c0,0.2,0.5,0.3,1.3,0.7c0.6,0.3,0.7,0.4,0.7,0.5c0,0.1-0.1,0.1-0.4,0.5
		c-0.3,0.3-0.3,0.4-0.3,0.4c-0.3,0-0.2-0.8-0.8-1.2c-0.3-0.1-0.5-0.3-0.6-0.1c-0.1,0.1,0.1,0.3,0.1,0.5c-0.1,0.2-0.3,0.2-0.3,0.4
		c-0.1,0.3,0.6,0.6,0.5,0.7c0,0.1-0.3-0.1-0.7-0.1c-0.3-0.1-0.5,0-0.6-0.1c-0.1-0.1,0-0.2,0.1-0.3c0.3-0.7,0.5-0.8,0.3-0.9
		c-0.1-0.1-0.4-0.1-0.6,0.1c-0.1,0.1-0.2,0.3-0.2,0.3c-0.1,0.1-0.1,0.1-0.1,0.1c-0.1,0-0.1-0.1-0.3-0.6
		C53.3,69.2,53.2,69.2,53.3,69.1z"/>
	<path class="st4" d="M51,70.1c-0.3,0.1-0.5,0.6-0.5,0.8c0.1,0.3,0.7,0,1,0.3c0.2,0.2,0.1,0.5,0.3,0.6c0.3,0.1,0.7-0.1,0.7-0.1
		c0.1,0.1-0.2,0.3-0.6,0.8c-0.2,0.3-0.3,0.4-0.4,0.4c-0.1-0.1,0-0.3-0.1-0.6c-0.1-0.1-0.2-0.2-0.6-0.3c-0.3-0.1-0.7-0.3-1-0.5
		c-0.2-0.1-0.6-0.4-0.5-0.7c0-0.1,0.1-0.1,0.3-0.3c0.3-0.4,0.1-0.7,0.3-0.8c0.1-0.1,0.3-0.1,0.8-0.2c1.1-0.1,1.3-0.2,1.5,0
		c0.1,0.1,0.1,0.2,0.3,0.5c0.1,0.2,0.3,0.7,0.2,0.8S51.7,69.9,51,70.1z"/>
	<path class="st4" d="M54.1,72.1c-0.1,0.1-0.1,0.3-0.1,0.5c0.1,0.1,0.2,0.1,0.2,0.3c0,0.1-0.1,0.1-0.1,0.3c-0.1,0.2,0,0.3-0.1,0.3
		c-0.1,0.1-0.5-0.1-0.7-0.4c-0.2-0.3-0.1-0.5-0.2-0.5c-0.1,0-0.1,0.1-0.3,0.4c-0.2,0.2-0.3,0.3-0.3,0.4c-0.1,0.1-0.1,0.3,0,0.5
		c0.1,0.1,0.3-0.1,0.6-0.1c0.2,0.1,0.4,0.3,0.5,0.5c0.1,0.2,0,0.5-0.1,0.7c-0.3,0.1-0.8-0.5-1.1-0.5c-0.1,0.1,0,0.3,0.2,0.9
		c0.2,0.7,0.3,0.7,0.3,0.8c0.1,0.1,0.1,0.1,0.8,0.3c0.6,0.1,0.8,0.2,0.9,0.1c0.1-0.1,0.1-0.1,0.1-0.3c0-0.2-0.3-0.2-0.3-0.4
		c0-0.1,0.3-0.2,0.3-0.5c0-0.1,0.1-0.2,0-0.4c-0.1-0.2-0.3-0.3-0.3-0.3c0-0.1,0.3-0.1,0.5,0c0.5,0.2,0.5,1.1,0.8,1.2
		c0.3,0.1,0.5-0.3,0.6-0.4c0.1-0.1,0.3-0.3,0.2-0.5c-0.1-0.3-0.7-0.3-0.7-0.5s0.7-0.1,0.8-0.4c0.1-0.1,0-0.3-0.1-0.6
		c-0.1-0.5-0.1-0.5-0.2-0.5c-0.1,0-0.1,0.3-0.3,0.3s-0.2-0.1-0.3-0.1c-0.1,0-0.1,0.1-0.2,0.3c-0.2,0.2-0.6,0.2-0.7,0.1
		c-0.1-0.2,0.1-0.8,0.5-0.9c0.1-0.1,0.3-0.1,0.3-0.2c0.1-0.1-0.1-0.2-0.1-0.2c-0.1-0.1-0.3-0.1-0.7-0.1
		C54.3,72.1,54.2,71.9,54.1,72.1z"/>
</g>
<g>
	<g id="Ebene_1_00000022528036869202076620000006373302284378557868_">
		<path class="st3" d="M46.8,73.3l-2.6-7.2l-7.5-1.4l-5,5.8l2.6,7.2l7.5,1.4L46.8,73.3z M41.7,78.5l-6.9-1.3l-2.4-6.7l4.6-5.4
			l6.9,1.3l2.4,6.7L41.7,78.5z"/>
		<path class="st4" d="M37,65.2l-4.6,5.4l2.4,6.7l6.9,1.3l4.6-5.4l-2.4-6.7L37,65.2z M37.4,73.9l-2.7-0.5l-0.9-2.7l1.8-2.2l2.7,0.5
			l0.9,2.7L37.4,73.9z M43.2,75.1l-1.8,2.2l-2.7-0.5L37.7,74l1.8-2.2l2.7,0.5L43.2,75.1z M42.3,72.1l-2.7-0.5l-0.9-2.7l1.8-2.2
			l2.7,0.5l0.9,2.7L42.3,72.1z"/>
	</g>
	<path class="st5" d="M38.7,66.3c-0.4-0.2-0.7-0.1-1.1-0.4c-0.1-0.1-0.1-0.1-0.2-0.2c-0.2-0.1-0.5,0.1-0.5,0.3
		c-0.1,0.3,0.1,0.5,0.1,0.5c0.3,0.3,0.7,0.4,1.2,0.4c0.3,0,0.9,0.1,1-0.2C39.2,66.7,39,66.4,38.7,66.3z"/>
	<path class="st5" d="M38.3,67.6c-0.4-0.1-0.6,0.2-1.1,0.1c-0.1,0-0.3-0.1-0.5-0.2c-0.2-0.3-0.1-0.5-0.3-0.6
		c-0.3-0.2-1.1,0.1-1.2,0.7c-0.1,0.2-0.1,0.5,0,0.5c0.1,0.1,0.4-0.4,0.7-0.3c0.3,0,0.3,0.3,0.7,0.5c0.4,0.2,0.8,0.1,1.1,0.1
		c0.4-0.1,0.9-0.3,0.9-0.5C38.6,67.7,38.3,67.6,38.3,67.6z"/>
	<path class="st5" d="M44.8,70.1c-0.1-0.5-0.3-0.7-0.3-1.1c-0.1-0.5,0-0.5-0.1-0.9c-0.1-0.6-0.5-1.2-0.5-1.2c-0.1,0-0.1,0.2-0.1,0.3
		c0.1,0.3,0.3,0.4,0.3,0.7c0.1,0.2,0,0.3,0,0.6c0,0.2,0,0.4,0.2,1c0.2,0.7,0.6,1.8,0.7,1.7C45,71.3,44.9,70.7,44.8,70.1z"/>
	<path class="st5" d="M43.9,72.2c0.1-0.1,0.3,0,0.6-0.1c0.2-0.1,0.3-0.5,0.3-0.6c-0.1-0.1-0.2,0-0.5,0c-0.3,0-0.3-0.2-0.5-0.2
		c-0.3,0-0.6,0.4-0.7,0.8c-0.1,0.4,0.3,0.5,0.3,0.9c0,0.3-0.3,0.5-0.2,0.6c0.1,0.1,0.9-0.4,0.9-0.8C44.1,72.4,43.8,72.3,43.9,72.2z"
		/>
	<path class="st5" d="M45.5,73.3c0.1-0.3,0.3-0.3,0.3-0.5c0.1-0.3-0.1-0.7-0.3-0.7c-0.1,0-0.1,0.2-0.3,0.4c-0.2,0.1-0.4,0-0.5,0.1
		c-0.1,0.1,0.2,0.4,0.1,0.7c-0.1,0.3-0.8,0.3-0.8,0.5c-0.1,0.2,0.3,0.6,0.6,0.6c0.4,0.1,0.7-0.4,0.7-0.5
		C45.4,73.7,45.3,73.6,45.5,73.3z"/>
	<path class="st5" d="M36.8,74.3c0,0-0.1-0.1-0.3-0.1C36.1,74,36,74,35.9,74c-0.1,0.1-0.3,0.2-0.2,0.3c0,0.1,0.3,0.1,0.3,0.2
		c0,0-0.4,0.1-0.5,0.3c-0.1,0.1,0.1,0.4,0.2,0.5c0.3,0.1,0.4-0.4,0.7-0.4c0.2,0.1,0.2,0.5,0.3,0.5s0.2-0.3,0.3-0.5
		C37,74.8,37.1,74.5,36.8,74.3z"/>
	<path class="st5" d="M37.9,75.8c-0.2-0.4-0.3-0.7-0.4-0.6c-0.1,0,0,0.4-0.2,0.6c-0.2,0.2-0.6,0.1-0.7,0c-0.3-0.1-0.4-0.3-0.5-0.2
		c-0.2,0.1-0.3,0.4-0.2,0.6c0.1,0.2,0.3,0.3,0.3,0.3c0.3,0.1,0.5-0.1,0.7-0.1c0.1,0.1,0.1,0.1,0.2,0.3s0.3,0.5,0.5,0.4
		c0.3,0,0.5-0.4,0.5-0.7C38.1,76.3,38.1,76.2,37.9,75.8z"/>
	<path class="st5" d="M35.3,74.2c0.2-0.3,0.3-0.3,0.3-0.3c-0.1-0.1-0.7,0.2-1.1-0.1c-0.1-0.1-0.1-0.1-0.4-0.8
		c-0.2-0.4-0.3-0.6-0.3-0.5c-0.1,0-0.1,0.5,0,0.9c0.1,0.3,0.1,0.5,0.3,0.8c0.2,0.3,0.3,0.3,0.3,0.5c0.1,0.3-0.1,0.5,0,0.7
		c0.1,0.1,0.3,0.1,0.4-0.1c0.1-0.1,0.1-0.2,0.2-0.5C35,74.6,35.1,74.4,35.3,74.2z"/>
	<path class="st5" d="M34.2,69.2c-0.3-0.1-0.8,0.3-0.7,0.5c0,0.1,0.2,0.2,0.4,0.3c0.2,0,0.5-0.1,0.5-0.4
		C34.4,69.4,34.4,69.3,34.2,69.2z"/>
	<path class="st5" d="M33.4,71.3c-0.3-0.5,0.1-0.9-0.1-1c-0.1-0.1-0.3,0.1-0.3,0.3c-0.1,0.1-0.1,0.3-0.1,0.3c0,0.2,0.1,0.3,0.2,0.5
		c0.1,0.4,0.1,0.7,0.1,0.7c0.1,0.1,0.3-0.1,0.3-0.3C33.6,71.5,33.5,71.5,33.4,71.3z"/>
	<path class="st5" d="M41.2,77.5c-0.1-0.1-0.2,0-0.5,0c-0.1,0-0.3-0.1-0.4-0.1c-0.3-0.1-0.3-0.1-0.5-0.2c-0.2,0-0.6-0.1-0.7,0
		c-0.1,0.1,0.1,0.3,0.3,0.4c0.2,0.1,0.3-0.1,0.6,0c0.2,0.1,0.2,0.1,0.5,0.3c0.1,0.1,0.5,0.2,0.7,0.1C41.3,77.8,41.3,77.6,41.2,77.5z
		"/>
	<path class="st5" d="M42.9,76.1c-0.1-0.1-0.4,0.1-0.4,0.3c0,0.1,0,0.2,0.1,0.3c0.1,0.1,0.4-0.1,0.5-0.3
		C43.1,76.2,43.1,76.1,42.9,76.1z"/>
	<path class="st5" d="M42.6,77.1C42.5,77,42.2,77,42,77c0,0-0.3,0.1-0.3,0.3s0.2,0.3,0.4,0.3C42.3,77.7,42.7,77.3,42.6,77.1z"/>
	<path class="st5" d="M44.5,74.7c-0.1-0.1-0.4,0.4-0.7,0.3c-0.1-0.1-0.1-0.5-0.2-0.5s-0.1,0.1-0.2,0.3c0,0.3,0.1,0.3,0.2,0.7
		c0,0.2,0,0.3,0,0.3c0.1,0,0.2-0.3,0.5-0.7C44.4,74.8,44.5,74.7,44.5,74.7z"/>
	<path class="st5" d="M41.8,66.3c-0.3-0.1-0.4,0-0.8-0.1c-0.4-0.1-0.5-0.2-0.7-0.1c-0.1,0.1-0.3,0.2-0.5,0.5
		c-0.2,0.2-0.5,0.6-0.4,0.7c0.1,0.1,0.5-0.1,0.8-0.4c0.3-0.2,0.3-0.3,0.4-0.4c0.3-0.1,0.5,0.3,0.9,0.3c0.2,0,0.5,0,0.5-0.1
		C42,66.5,41.9,66.4,41.8,66.3z"/>
	<path class="st5" d="M42.9,66.5c0,0-0.3-0.1-0.5,0.1c0,0.1,0,0.1,0,0.2c0.1,0.1,0.1,0.1,0.4,0.1c0.5,0,0.5,0,0.5-0.1
		C43.3,66.7,43.1,66.5,42.9,66.5z"/>
	<path class="st5" d="M35.7,76.4c-0.2-0.3,0-0.7-0.1-0.8c-0.1-0.1-0.5,0.1-0.7,0.3c-0.1,0.1-0.1,0.3,0,0.5c0.1,0.3,0.1,0.5,0.2,0.6
		c0.4,0.3,1.2,0,1.2-0.2C36.3,76.7,35.9,76.7,35.7,76.4z"/>
	<path class="st5" d="M38.7,77.1c-0.1-0.1-0.2,0.2-0.5,0.2c-0.1,0-0.2,0-0.5-0.1c-0.3,0-0.4,0-0.4,0c-0.1,0.1,0.7,0.6,1.1,0.3
		C38.6,77.5,38.7,77.1,38.7,77.1z"/>
	<polygon class="st3" points="42.3,71.8 43.9,69.9 43.1,67.5 40.6,67.1 39,69 39.8,71.3 	"/>
	<polygon class="st3" points="37.3,73.6 39,71.6 38.1,69.3 35.7,68.8 34,70.7 34.8,73.1 	"/>
	<polygon class="st3" points="41.3,77 42.9,75.1 42.1,72.7 39.6,72.2 38,74.2 38.8,76.5 	"/>
	<path class="st4" d="M39.2,69.5c0.1-0.2,0.5,0.1,0.8-0.1c0.1-0.1,0.1-0.2,0.3-0.5c0.3-0.3,0.5-0.3,0.6-0.5c0-0.2-0.1-0.3-0.1-0.5
		c0.1-0.2,0.2-0.2,0.3-0.3c0.1-0.2-0.3-0.4-0.3-0.5c0-0.1,0.2-0.1,0.7,0.1c0.8,0.2,0.8,0.3,0.8,0.3c0,0.2-0.7,0.3-0.7,0.7
		c0,0.1,0,0.1,0,0.2c-0.1,0.5-0.7,0.6-0.6,0.8c0,0.2,0.5,0.3,1.3,0.7c0.6,0.3,0.7,0.4,0.7,0.5c0,0.1-0.1,0.1-0.4,0.5
		c-0.3,0.3-0.3,0.4-0.3,0.4c-0.3,0-0.2-0.8-0.8-1.2c-0.3-0.1-0.5-0.3-0.6-0.1c-0.1,0.1,0.1,0.3,0.1,0.5c-0.1,0.2-0.3,0.2-0.3,0.4
		c-0.1,0.3,0.6,0.6,0.5,0.7c0,0.1-0.3-0.1-0.7-0.1c-0.3-0.1-0.5,0-0.6-0.1c-0.1-0.1,0-0.2,0.1-0.3c0.3-0.7,0.5-0.8,0.3-0.9
		c-0.1-0.1-0.4-0.1-0.6,0.1c-0.1,0.1-0.2,0.3-0.2,0.3c-0.1,0.1-0.1,0.1-0.1,0.1c-0.1,0-0.1-0.1-0.3-0.6
		C39.2,69.6,39.1,69.6,39.2,69.5z"/>
	<path class="st4" d="M37,70.5c-0.3,0.1-0.5,0.6-0.5,0.8c0.1,0.3,0.7,0,1,0.3c0.2,0.2,0.1,0.5,0.3,0.6c0.3,0.1,0.7-0.1,0.7-0.1
		c0.1,0.1-0.2,0.3-0.6,0.8c-0.2,0.3-0.3,0.4-0.4,0.4c-0.1-0.1,0-0.3-0.1-0.6c-0.1-0.1-0.2-0.2-0.6-0.3c-0.3-0.1-0.7-0.3-1-0.5
		c-0.2-0.1-0.6-0.4-0.5-0.7c0-0.1,0.1-0.1,0.3-0.3c0.3-0.4,0.1-0.7,0.3-0.8c0.1-0.1,0.3-0.1,0.8-0.2c1.1-0.1,1.3-0.2,1.5,0
		c0.1,0.1,0.1,0.2,0.3,0.5c0.1,0.2,0.3,0.7,0.2,0.8C38.4,71.3,37.6,70.3,37,70.5z"/>
	<path class="st4" d="M40,72.4c-0.1,0.1-0.1,0.3-0.1,0.5c0.1,0.1,0.2,0.1,0.2,0.3c0,0.1-0.1,0.1-0.1,0.3s0,0.3-0.1,0.3
		c-0.1,0.1-0.5-0.1-0.7-0.4c-0.2-0.3-0.1-0.5-0.2-0.5c-0.1,0-0.1,0.1-0.3,0.4c-0.2,0.2-0.3,0.3-0.3,0.4c-0.1,0.1-0.1,0.3,0,0.5
		c0.1,0.1,0.3-0.1,0.6-0.1c0.2,0.1,0.4,0.3,0.5,0.5c0.1,0.2,0,0.5-0.1,0.7c-0.3,0.1-0.8-0.5-1.1-0.5c-0.1,0.1,0,0.3,0.2,0.9
		c0.2,0.7,0.3,0.7,0.3,0.8c0.1,0.1,0.1,0.1,0.8,0.3c0.6,0.1,0.8,0.2,0.9,0.1c0.1-0.1,0.1-0.1,0.1-0.3c0-0.2-0.3-0.2-0.3-0.4
		c0-0.1,0.3-0.2,0.3-0.5c0-0.1,0.1-0.2,0-0.4S40.3,75,40.3,75s0.3-0.1,0.5,0c0.5,0.2,0.5,1.1,0.8,1.2c0.3,0.1,0.5-0.3,0.6-0.4
		c0.1-0.1,0.3-0.3,0.2-0.5c-0.1-0.3-0.7-0.3-0.7-0.5c0-0.2,0.7-0.1,0.8-0.4c0.1-0.1,0-0.3-0.1-0.6c-0.1-0.5-0.1-0.5-0.2-0.5
		c-0.1,0-0.1,0.3-0.3,0.3s-0.2-0.1-0.3-0.1c-0.1,0-0.1,0.1-0.2,0.3c-0.2,0.2-0.6,0.2-0.7,0.1c-0.1-0.2,0.1-0.8,0.5-0.9
		c0.1-0.1,0.3-0.1,0.3-0.2c0.1-0.1-0.1-0.2-0.1-0.2c-0.1-0.1-0.3-0.1-0.7-0.1C40.3,72.4,40.2,72.3,40,72.4z"/>
</g>
<path class="st6" d="M82.3,53.2c-0.5-12.7-11-24.9-17-23.5c-3.4,0.8-5.2,6.1-6.2,11.4c1.2-0.4,1.6-1,2.4-1.4
	c2.1-1.1,5.6-0.7,6.9,1.1c1.6,2.3-1,6.1-2.1,7.6c-0.2,0.3-3.5,5-5.6,4.3c-1-0.4-0.7-1.6-2.1-4.9c-0.1-0.2-0.2-0.4-0.3-0.6
	c-0.2,3.1-0.3,5.5-0.3,6c0,2.6,0.2,6.1,0.6,9.6c0.4,0.3,0.7,0.6,1.2,0.6c0.7-0.1,0.9-0.8,2.1-1.8c1-0.8,1.3-0.6,2.1-1.2
	c1.9-1.4,1.7-3.7,2.2-3.7c0.6,0,1.7,3.7,0.7,7.6c-0.8,3.1-2.8,6.2-4.1,5.9c-1.2-0.2-1.4-3.4-3-3.6c-0.2,0-0.4,0-0.6,0.1
	c1.2,6,3.3,11.4,6.8,12.1C72.3,80.1,82.9,66.6,82.3,53.2z"/>
<path class="st6" d="M35.1,67.1c-1.7-2.8-2.6-6.7-1.5-7.4c0.8-0.5,3,1.1,5.8,3.1c0.6,0.4,1.2,0.9,1.9,1c0.6-4.6,0.7-8.7,0.8-9.9
	c0-1.1,0.1-2.6,0.1-4.3c-0.2,0.1-0.4,0.3-0.7,0.6c-2.1,2.4-1.3,5.3-2.4,5.7c-1,0.4-2.4-1.2-3.3-2.2c-2.4-2.7-5.9-8.2-4-10.3
	c1.1-1.3,3.8-0.9,4.6-0.7c2.5,0.4,3.1,1.7,5.2,1.6c0.2,0,0.4,0,0.6-0.1c-0.3-6.1-1.5-12.6-5.2-13.9c-6-2-18.7,9.9-19.7,23.4
	c-1,13.8,10.4,27.6,16.7,26.4c2.8-0.6,4.6-4.1,5.8-8.4C38.3,71,36.4,69.3,35.1,67.1z"/>
<path class="st7" d="M75.1,53.7C74.6,41.4,65,28.9,58.1,30c-6.8,1.1-10,15.7-10,25c0,1.7,0.1,3.6,0.3,5.5c1.6-0.3,3.1-0.1,3.8-0.1
	c2.1,0.2,4.3,0.3,5.9,1.9c0.5,0.5,1,1.3,1.8,1.2c0.7-0.1,0.9-0.8,2.1-1.8c1-0.8,1.3-0.6,2.1-1.2c1.9-1.4,1.7-3.7,2.2-3.7
	c0.6,0,1.7,3.7,0.7,7.6c-0.8,3.1-2.8,6.2-4.1,5.9c-1.2-0.2-1.4-3.4-3-3.6c-0.4,0-0.6,0.2-1.3,0.1c-1-0.1-1.4-0.6-1.9-0.7
	c-1.7-0.4-2.8,4-4.9,4.1c-0.5,0-1-0.2-1.5-0.6c1.7,5.4,4.3,9.7,7.8,10.3C65.1,81.1,75.6,67.2,75.1,53.7z M66.3,48.4
	c-0.2,0.3-3.5,5-5.6,4.3c-1-0.4-0.7-1.6-2.1-4.9c-1.5-3.6-3.1-5.2-2.5-6c0.4-0.5,1.1-0.1,2.8-0.6c1.4-0.5,1.8-1,2.7-1.5
	c2.1-1.1,5.6-0.7,6.9,1.1C70,43.1,67.4,46.9,66.3,48.4z"/>
<path class="st7" d="M45.7,65.5c-0.6,0.2-0.6,1-2.1,2.2c-0.7,0.6-0.8,0.5-1.2,0.9c-1.2,1.3-0.4,2.9-1,3.4c-0.9,0.7-4.3-1.5-6.4-4.9
	c-1.7-2.8-2.6-6.7-1.5-7.4c0.8-0.5,3,1.1,5.8,3.1c0.7,0.5,1.5,1.1,2.5,1c1.1-0.1,1.7-0.9,2.4-1.5c2.3-2,5.6-2.1,7.3-2
	c0.1-1.5,0.2-3.1,0.2-4.5c0-9.8-3.5-24.2-10-25s-15.4,12-15.6,24.3c-0.3,13,9,26.5,15.6,25.7c3.7-0.5,6.4-5.4,8.1-11.4
	C48.3,67.9,46.9,65.1,45.7,65.5z M31.6,43.4c1.1-1.3,3.8-0.9,4.6-0.7c2.5,0.4,3.1,1.7,5.2,1.6c2-0.1,2.8-1.4,3.4-0.9
	c0.8,0.6,0.1,3.4-1.5,5.2c-0.8,1-1.1,0.7-1.9,1.6c-2.1,2.4-1.3,5.3-2.4,5.7c-1,0.4-2.4-1.2-3.3-2.2C33.3,51,29.8,45.5,31.6,43.4z"/>
<path class="st8" d="M41.9,63.8c1.1-0.1,1.7-0.9,2.4-1.5c2.6-2.3,6.6-2,8-1.9c2.1,0.2,4.3,0.3,5.9,1.9c0.5,0.5,1,1.3,1.8,1.2
	c0.1,0,0.2,0,0.3-0.1c0.4-2.6,0.6-5.5,0.6-8.4c0-0.8,0-1.6,0-2.3c-1-0.4-0.7-1.6-2.1-4.9c-1.5-3.6-3.1-5.2-2.5-6
	c0.4-0.5,1.1-0.1,2.8-0.6c0.1,0,0.1,0,0.2-0.1c-1.8-6.7-4.8-11-8.3-11c-4,0-7.4,5.8-9,14.2c1.7-0.2,2.5-1.3,3.1-0.8
	c0.8,0.6,0.1,3.4-1.5,5.2c-0.8,1-1.1,0.7-1.9,1.6c-0.2,0.2-0.3,0.4-0.5,0.6c-0.1,1.4-0.1,2.8-0.1,4.2c0,3.1,0.2,6,0.6,8.8
	C41.6,63.8,41.7,63.8,41.9,63.8z"/>
<g>
	<g id="Ebene_1_00000137117502849689881260000005378625841922058165_">
		<path class="st3" d="M47.2,71.3l-2.6-7.2l-7.5-1.4l-5,5.8l2.6,7.2l7.5,1.4L47.2,71.3z M42.1,76.5l-6.9-1.3l-2.4-6.7l4.6-5.4
			l6.9,1.3l2.4,6.7L42.1,76.5z"/>
		<path class="st4" d="M37.4,63.2l-4.6,5.4l2.4,6.7l6.9,1.3l4.6-5.4l-2.4-6.7L37.4,63.2z M37.8,71.9l-2.7-0.5l-0.9-2.7l1.8-2.2
			l2.7,0.5l0.9,2.7L37.8,71.9z M43.6,73.1l-1.8,2.2l-2.7-0.5l-0.9-2.7l1.8-2.2l2.7,0.5L43.6,73.1z M42.8,70.1L40,69.6l-0.9-2.7
			l1.8-2.2l2.7,0.5l0.9,2.7L42.8,70.1z"/>
	</g>
	<path class="st5" d="M39.1,64.3c-0.4-0.2-0.7-0.1-1.1-0.4c-0.1-0.1-0.1-0.1-0.2-0.2c-0.2-0.1-0.5,0.1-0.5,0.3
		c-0.1,0.3,0.1,0.5,0.1,0.5c0.3,0.3,0.7,0.4,1.2,0.4c0.3,0,0.9,0.1,1-0.2C39.6,64.7,39.4,64.4,39.1,64.3z"/>
	<path class="st5" d="M38.7,65.6c-0.4-0.1-0.6,0.2-1.1,0.1c-0.1,0-0.3-0.1-0.5-0.2c-0.2-0.3-0.1-0.5-0.3-0.6
		c-0.3-0.2-1.1,0.1-1.2,0.7c-0.1,0.2-0.1,0.5,0,0.5c0.1,0.1,0.4-0.4,0.7-0.3c0.3,0,0.3,0.3,0.7,0.5c0.4,0.2,0.8,0.1,1.1,0.1
		c0.4-0.1,0.9-0.3,0.9-0.5C39,65.7,38.7,65.6,38.7,65.6z"/>
	<path class="st5" d="M45.2,68.1c-0.1-0.5-0.3-0.7-0.3-1.1c-0.1-0.5,0-0.5-0.1-0.9c-0.1-0.6-0.5-1.2-0.5-1.2c-0.1,0-0.1,0.2-0.1,0.3
		c0.1,0.3,0.3,0.4,0.3,0.7c0.1,0.2,0,0.3,0,0.6c0,0.2,0,0.4,0.2,1c0.2,0.7,0.6,1.8,0.7,1.7C45.5,69.3,45.3,68.7,45.2,68.1z"/>
	<path class="st5" d="M44.3,70.2c0.1-0.1,0.3,0,0.6-0.1c0.2-0.1,0.3-0.5,0.3-0.6c-0.1-0.1-0.2,0-0.5,0c-0.3,0-0.3-0.2-0.5-0.2
		c-0.3,0-0.6,0.4-0.7,0.8c-0.1,0.4,0.3,0.5,0.3,0.9c0,0.3-0.3,0.5-0.2,0.6c0.1,0.1,0.9-0.4,0.9-0.8C44.5,70.4,44.3,70.3,44.3,70.2z"
		/>
	<path class="st5" d="M45.9,71.3c0.1-0.3,0.3-0.3,0.3-0.5c0.1-0.3-0.1-0.7-0.3-0.7c-0.1,0-0.1,0.2-0.3,0.4c-0.2,0.1-0.4,0-0.5,0.1
		c-0.1,0.1,0.2,0.4,0.1,0.7c-0.1,0.3-0.8,0.3-0.8,0.5c-0.1,0.2,0.3,0.6,0.6,0.6c0.4,0.1,0.7-0.4,0.7-0.5
		C45.8,71.7,45.7,71.6,45.9,71.3z"/>
	<path class="st5" d="M37.3,72.3c0,0-0.1-0.1-0.3-0.1c-0.5-0.2-0.6-0.2-0.7-0.1c-0.1,0.1-0.3,0.2-0.2,0.3c0,0.1,0.3,0.1,0.3,0.2
		s-0.4,0.1-0.5,0.3c-0.1,0.1,0.1,0.4,0.2,0.5c0.3,0.1,0.4-0.4,0.7-0.4c0.2,0.1,0.2,0.5,0.3,0.5c0.1,0,0.2-0.3,0.3-0.5
		C37.4,72.8,37.5,72.5,37.3,72.3z"/>
	<path class="st5" d="M38.3,73.8c-0.2-0.4-0.3-0.7-0.4-0.6c-0.1,0,0,0.4-0.2,0.6c-0.2,0.2-0.6,0.1-0.7,0c-0.3-0.1-0.4-0.3-0.5-0.2
		c-0.2,0.1-0.3,0.4-0.2,0.6c0.1,0.2,0.3,0.3,0.3,0.3c0.3,0.1,0.5-0.1,0.7-0.1c0.1,0.1,0.1,0.1,0.2,0.3s0.3,0.5,0.5,0.4
		c0.3,0,0.5-0.4,0.5-0.7C38.5,74.3,38.5,74.2,38.3,73.8z"/>
	<path class="st5" d="M35.7,72.2c0.2-0.3,0.3-0.3,0.3-0.3c-0.1-0.1-0.7,0.2-1.1-0.1c-0.1-0.1-0.1-0.1-0.4-0.8
		c-0.2-0.4-0.3-0.6-0.3-0.5c-0.1,0-0.1,0.5,0,0.9c0.1,0.3,0.1,0.5,0.3,0.8c0.2,0.3,0.3,0.3,0.3,0.5c0.1,0.3-0.1,0.5,0,0.7
		c0.1,0.1,0.3,0.1,0.4-0.1c0.1-0.1,0.1-0.2,0.2-0.5C35.4,72.6,35.5,72.4,35.7,72.2z"/>
	<path class="st5" d="M34.6,67.2c-0.3-0.1-0.8,0.3-0.7,0.5c0,0.1,0.2,0.2,0.4,0.3c0.2,0,0.5-0.1,0.5-0.4
		C34.8,67.4,34.8,67.3,34.6,67.2z"/>
	<path class="st5" d="M33.8,69.3c-0.3-0.5,0.1-0.9-0.1-1c-0.1-0.1-0.3,0.1-0.3,0.3c-0.1,0.1-0.1,0.3-0.1,0.3c0,0.2,0.1,0.3,0.2,0.5
		c0.1,0.4,0.1,0.7,0.1,0.7c0.1,0.1,0.3-0.1,0.3-0.3C34,69.5,33.9,69.5,33.8,69.3z"/>
	<path class="st5" d="M41.6,75.5c-0.1-0.1-0.2,0-0.5,0c-0.1,0-0.3-0.1-0.4-0.1c-0.3-0.1-0.3-0.1-0.5-0.2c-0.2,0-0.6-0.1-0.7,0
		c-0.1,0.1,0.1,0.3,0.3,0.4c0.2,0.1,0.3-0.1,0.6,0c0.2,0.1,0.2,0.1,0.5,0.3c0.1,0.1,0.5,0.2,0.7,0.1C41.7,75.8,41.7,75.6,41.6,75.5z
		"/>
	<path class="st5" d="M43.4,74.1c-0.1-0.1-0.4,0.1-0.4,0.3c0,0.1,0,0.2,0.1,0.3c0.1,0.1,0.4-0.1,0.5-0.3
		C43.6,74.2,43.5,74.1,43.4,74.1z"/>
	<path class="st5" d="M43,75.2C42.9,75,42.6,75,42.4,75c0,0-0.3,0.1-0.3,0.3c0,0.2,0.2,0.3,0.4,0.3C42.8,75.7,43.1,75.3,43,75.2z"/>
	<path class="st5" d="M44.9,72.7c-0.1-0.1-0.4,0.4-0.7,0.3c-0.1-0.1-0.1-0.5-0.2-0.5s-0.1,0.1-0.2,0.3c0,0.3,0.1,0.3,0.2,0.7
		c0,0.2,0,0.3,0,0.3c0.1,0,0.2-0.3,0.5-0.7C44.8,72.9,44.9,72.7,44.9,72.7z"/>
	<path class="st5" d="M42.2,64.4c-0.3-0.1-0.4,0-0.8-0.1c-0.4-0.1-0.5-0.2-0.7-0.1c-0.1,0.1-0.3,0.2-0.5,0.5
		c-0.2,0.2-0.5,0.6-0.4,0.7c0.1,0.1,0.5-0.1,0.8-0.4c0.3-0.2,0.3-0.3,0.4-0.4c0.3-0.1,0.5,0.3,0.9,0.3c0.2,0,0.5,0,0.5-0.1
		C42.4,64.5,42.3,64.4,42.2,64.4z"/>
	<path class="st5" d="M43.3,64.5c0,0-0.3-0.1-0.5,0.1c0,0.1,0,0.1,0,0.2c0.1,0.1,0.1,0.1,0.4,0.1c0.5,0,0.5,0,0.5-0.1
		C43.8,64.7,43.6,64.5,43.3,64.5z"/>
	<path class="st5" d="M36.1,74.4c-0.2-0.3,0-0.7-0.1-0.8c-0.1-0.1-0.5,0.1-0.7,0.3c-0.1,0.1-0.1,0.3,0,0.5c0.1,0.3,0.1,0.5,0.2,0.6
		c0.4,0.3,1.2,0,1.2-0.2C36.7,74.7,36.3,74.8,36.1,74.4z"/>
	<path class="st5" d="M39.1,75.1c-0.1-0.1-0.2,0.2-0.5,0.2c-0.1,0-0.2,0-0.5-0.1c-0.3,0-0.4,0-0.4,0c-0.1,0.1,0.7,0.6,1.1,0.3
		C39,75.5,39.2,75.2,39.1,75.1z"/>
	<polygon class="st3" points="42.7,69.8 44.3,67.9 43.5,65.5 41,65.1 39.4,67 40.2,69.3 	"/>
	<polygon class="st3" points="37.7,71.6 39.4,69.6 38.5,67.3 36.1,66.8 34.4,68.7 35.2,71.1 	"/>
	<polygon class="st3" points="41.7,75 43.3,73.1 42.5,70.7 40,70.2 38.4,72.2 39.2,74.5 	"/>
	<path class="st4" d="M39.6,67.5c0.1-0.2,0.5,0.1,0.8-0.1c0.1-0.1,0.1-0.2,0.3-0.5c0.3-0.3,0.5-0.3,0.6-0.5c0-0.2-0.1-0.3-0.1-0.5
		c0.1-0.2,0.2-0.2,0.3-0.3c0.1-0.2-0.3-0.4-0.3-0.5c0-0.1,0.2-0.1,0.7,0.1c0.8,0.2,0.8,0.3,0.8,0.3c0,0.2-0.7,0.3-0.7,0.7
		c0,0.1,0,0.1,0,0.2c-0.1,0.5-0.7,0.6-0.6,0.8c0,0.2,0.5,0.3,1.3,0.7c0.6,0.3,0.7,0.4,0.7,0.5c0,0.1-0.1,0.1-0.4,0.5
		c-0.3,0.3-0.3,0.4-0.3,0.4c-0.3,0-0.2-0.8-0.8-1.2c-0.3-0.1-0.5-0.3-0.6-0.1c-0.1,0.1,0.1,0.3,0.1,0.5c-0.1,0.2-0.3,0.2-0.3,0.4
		c-0.1,0.3,0.6,0.6,0.5,0.7c0,0.1-0.3-0.1-0.7-0.1c-0.3-0.1-0.5,0-0.6-0.1c-0.1-0.1,0-0.2,0.1-0.3c0.3-0.7,0.5-0.8,0.3-0.9
		c-0.1-0.1-0.4-0.1-0.6,0.1c-0.1,0.1-0.2,0.3-0.2,0.3c-0.1,0.1-0.1,0.1-0.1,0.1c-0.1,0-0.1-0.1-0.3-0.6
		C39.6,67.6,39.6,67.6,39.6,67.5z"/>
	<path class="st4" d="M37.4,68.5c-0.3,0.1-0.5,0.6-0.5,0.8c0.1,0.3,0.7,0,1,0.3c0.2,0.2,0.1,0.5,0.3,0.6c0.3,0.1,0.7-0.1,0.7-0.1
		c0.1,0.1-0.2,0.3-0.6,0.8c-0.2,0.3-0.3,0.4-0.4,0.4c-0.1-0.1,0-0.3-0.1-0.6c-0.1-0.1-0.2-0.2-0.6-0.3c-0.3-0.1-0.7-0.3-1-0.5
		c-0.2-0.1-0.6-0.4-0.5-0.7c0-0.1,0.1-0.1,0.3-0.3c0.3-0.4,0.1-0.7,0.3-0.8c0.1-0.1,0.3-0.1,0.8-0.2c1.1-0.1,1.3-0.2,1.5,0
		c0.1,0.1,0.1,0.2,0.3,0.5c0.1,0.2,0.3,0.7,0.2,0.8C38.8,69.3,38.1,68.3,37.4,68.5z"/>
	<path class="st4" d="M40.5,70.4c-0.1,0.1-0.1,0.3-0.1,0.5c0.1,0.1,0.2,0.1,0.2,0.3c0,0.1-0.1,0.1-0.1,0.3s0,0.3-0.1,0.3
		c-0.1,0.1-0.5-0.1-0.7-0.4c-0.2-0.3-0.1-0.5-0.2-0.5c-0.1,0-0.1,0.1-0.3,0.4c-0.2,0.2-0.3,0.3-0.3,0.4c-0.1,0.1-0.1,0.3,0,0.5
		c0.1,0.1,0.3-0.1,0.6-0.1c0.2,0.1,0.4,0.3,0.5,0.5c0.1,0.2,0,0.5-0.1,0.7c-0.3,0.1-0.8-0.5-1.1-0.5c-0.1,0.1,0,0.3,0.2,0.9
		c0.2,0.7,0.3,0.7,0.3,0.8c0.1,0.1,0.1,0.1,0.8,0.3c0.6,0.1,0.8,0.2,0.9,0.1c0.1-0.1,0.1-0.1,0.1-0.3c0-0.2-0.3-0.2-0.3-0.4
		c0-0.1,0.3-0.2,0.3-0.5c0-0.1,0.1-0.2,0-0.4C41,73.1,40.8,73,40.8,73c0-0.1,0.3-0.1,0.5,0c0.5,0.2,0.5,1.1,0.8,1.2
		c0.3,0.1,0.5-0.3,0.6-0.4c0.1-0.1,0.3-0.3,0.2-0.5c-0.1-0.3-0.7-0.3-0.7-0.5c0-0.2,0.7-0.1,0.8-0.4c0.1-0.1,0-0.3-0.1-0.6
		c-0.1-0.5-0.1-0.5-0.2-0.5c-0.1,0-0.1,0.3-0.3,0.3c-0.1,0-0.2-0.1-0.3-0.1c-0.1,0-0.1,0.1-0.2,0.3c-0.2,0.2-0.6,0.2-0.7,0.1
		c-0.1-0.2,0.1-0.8,0.5-0.9c0.1-0.1,0.3-0.1,0.3-0.2c0.1-0.1-0.1-0.2-0.1-0.2c-0.1-0.1-0.3-0.1-0.7-0.1
		C40.7,70.4,40.6,70.3,40.5,70.4z"/>
</g>
<path class="st8" d="M56.7,66.2c-1.7-0.4-2.8,4-4.9,4.1c-2.4,0.2-4.4-5.4-6.1-4.9c-0.6,0.2-0.6,1-2.1,2.2c-0.7,0.6-0.8,0.5-1.2,0.9
	c0,0,0,0.1-0.1,0.1c1.8,6.9,4.9,11.4,8.4,11.4c3.8,0,7.1-5.4,8.8-13.2c-0.3,0.1-0.5,0.2-1,0.1C57.6,66.9,57.2,66.3,56.7,66.2z"/>
<path class="st9" d="M56.1,16.6"/>
<path class="st6" d="M68.5,79.1"/>
<g>
	<g id="Ebene_1_00000169546200246978180190000002364230661610339985_">
		<path class="st3" d="M50.8,77.4l-2.6-7.2l-7.5-1.4l-5,5.8l2.6,7.2l7.5,1.4L50.8,77.4z M45.7,82.7l-6.9-1.3l-2.4-6.7l4.6-5.4
			l6.9,1.3l2.4,6.7L45.7,82.7z"/>
		<path class="st4" d="M41,69.3l-4.6,5.4l2.4,6.7l6.9,1.3l4.6-5.4l-2.4-6.7L41,69.3z M41.4,78l-2.7-0.5l-0.9-2.7l1.8-2.2l2.7,0.5
			l0.9,2.7L41.4,78z M47.2,79.2l-1.8,2.2l-2.7-0.5l-0.9-2.7l1.8-2.2l2.7,0.5L47.2,79.2z M46.3,76.2l-2.7-0.5L42.7,73l1.8-2.2
			l2.7,0.5l0.9,2.7L46.3,76.2z"/>
	</g>
	<path class="st5" d="M42.7,70.4c-0.4-0.2-0.7-0.1-1.1-0.4c-0.1-0.1-0.1-0.1-0.2-0.2c-0.2-0.1-0.5,0.1-0.5,0.3
		c-0.1,0.3,0.1,0.5,0.1,0.5c0.3,0.3,0.7,0.4,1.2,0.4c0.3,0,0.9,0.1,1-0.2C43.2,70.8,42.9,70.5,42.7,70.4z"/>
	<path class="st5" d="M42.3,71.7c-0.4-0.1-0.6,0.2-1.1,0.1c-0.1,0-0.3-0.1-0.5-0.2c-0.2-0.3-0.1-0.5-0.3-0.6
		c-0.3-0.2-1.1,0.1-1.2,0.7c-0.1,0.2-0.1,0.5,0,0.5c0.1,0.1,0.4-0.4,0.7-0.3c0.3,0,0.3,0.3,0.7,0.5s0.8,0.1,1.1,0.1
		c0.4-0.1,0.9-0.3,0.9-0.5C42.6,71.8,42.3,71.7,42.3,71.7z"/>
	<path class="st5" d="M48.8,74.3c-0.1-0.5-0.3-0.7-0.3-1.1c-0.1-0.5,0-0.5-0.1-0.9c-0.1-0.6-0.5-1.2-0.5-1.2c-0.1,0-0.1,0.2-0.1,0.3
		c0.1,0.3,0.3,0.4,0.3,0.7c0.1,0.2,0,0.3,0,0.6c0,0.2,0,0.4,0.2,1c0.2,0.7,0.6,1.8,0.7,1.7C49,75.4,48.9,74.8,48.8,74.3z"/>
	<path class="st5" d="M47.9,76.3c0.1-0.1,0.3,0,0.6-0.1c0.2-0.1,0.3-0.5,0.3-0.6c-0.1-0.1-0.2,0-0.5,0c-0.3,0-0.3-0.2-0.5-0.2
		c-0.3,0-0.6,0.4-0.7,0.8s0.3,0.5,0.3,0.9c0,0.3-0.3,0.5-0.2,0.6c0.1,0.1,0.9-0.4,0.9-0.8C48,76.6,47.8,76.4,47.9,76.3z"/>
	<path class="st5" d="M49.5,77.4c0.1-0.3,0.3-0.3,0.3-0.5c0.1-0.3-0.1-0.7-0.3-0.7c-0.1,0-0.1,0.2-0.3,0.4c-0.2,0.1-0.4,0-0.5,0.1
		c-0.1,0.1,0.2,0.4,0.1,0.7c-0.1,0.3-0.8,0.3-0.8,0.5c-0.1,0.2,0.3,0.6,0.6,0.6c0.4,0.1,0.7-0.4,0.7-0.5
		C49.4,77.8,49.3,77.7,49.5,77.4z"/>
	<path class="st5" d="M40.8,78.5c0,0-0.1-0.1-0.3-0.1c-0.5-0.2-0.6-0.2-0.7-0.1c-0.1,0.1-0.3,0.2-0.2,0.3c0,0.1,0.3,0.1,0.3,0.2
		c0,0-0.4,0.1-0.5,0.3c-0.1,0.1,0.1,0.4,0.2,0.5c0.3,0.1,0.4-0.4,0.7-0.4c0.2,0.1,0.2,0.5,0.3,0.5s0.2-0.3,0.3-0.5
		C41,78.9,41,78.6,40.8,78.5z"/>
	<path class="st5" d="M41.9,80c-0.2-0.4-0.3-0.7-0.4-0.6c-0.1,0,0,0.4-0.2,0.6c-0.2,0.2-0.6,0.1-0.7,0c-0.3-0.1-0.4-0.3-0.5-0.2
		c-0.2,0.1-0.3,0.4-0.2,0.6c0.1,0.2,0.3,0.3,0.3,0.3c0.3,0.1,0.5-0.1,0.7-0.1c0.1,0.1,0.1,0.1,0.2,0.3s0.3,0.5,0.5,0.4
		c0.3,0,0.5-0.4,0.5-0.7C42.1,80.4,42.1,80.4,41.9,80z"/>
	<path class="st5" d="M39.2,78.3c0.2-0.3,0.3-0.3,0.3-0.3c-0.1-0.1-0.7,0.2-1.1-0.1c-0.1-0.1-0.1-0.1-0.4-0.8
		c-0.2-0.4-0.3-0.6-0.3-0.5c-0.1,0-0.1,0.5,0,0.9c0.1,0.3,0.1,0.5,0.3,0.8c0.2,0.3,0.3,0.3,0.3,0.5c0.1,0.3-0.1,0.5,0,0.7
		c0.1,0.1,0.3,0.1,0.4-0.1c0.1-0.1,0.1-0.2,0.2-0.5C39,78.7,39.1,78.5,39.2,78.3z"/>
	<path class="st5" d="M38.2,73.4c-0.3-0.1-0.8,0.3-0.7,0.5c0,0.1,0.2,0.2,0.4,0.3c0.2,0,0.5-0.1,0.5-0.4
		C38.4,73.5,38.3,73.4,38.2,73.4z"/>
	<path class="st5" d="M37.3,75.4c-0.3-0.5,0.1-0.9-0.1-1c-0.1-0.1-0.3,0.1-0.3,0.3c-0.1,0.1-0.1,0.3-0.1,0.3c0,0.2,0.1,0.3,0.2,0.5
		c0.1,0.4,0.1,0.7,0.1,0.7c0.1,0.1,0.3-0.1,0.3-0.3C37.6,75.7,37.5,75.7,37.3,75.4z"/>
	<path class="st5" d="M45.2,81.6c-0.1-0.1-0.2,0-0.5,0c-0.1,0-0.3-0.1-0.4-0.1c-0.3-0.1-0.3-0.1-0.5-0.2c-0.2,0-0.6-0.1-0.7,0
		c-0.1,0.1,0.1,0.3,0.3,0.4c0.2,0.1,0.3-0.1,0.6,0c0.2,0.1,0.2,0.1,0.5,0.3c0.1,0.1,0.5,0.2,0.7,0.1C45.2,81.9,45.2,81.7,45.2,81.6z
		"/>
	<path class="st5" d="M46.9,80.2c-0.1-0.1-0.4,0.1-0.4,0.3c0,0.1,0,0.2,0.1,0.3c0.1,0.1,0.4-0.1,0.5-0.3
		C47.1,80.4,47.1,80.2,46.9,80.2z"/>
	<path class="st5" d="M46.6,81.3c-0.1-0.1-0.4-0.2-0.6-0.1c0,0-0.3,0.1-0.3,0.3c0,0.2,0.2,0.3,0.4,0.3
		C46.3,81.8,46.7,81.5,46.6,81.3z"/>
	<path class="st5" d="M48.4,78.8c-0.1-0.1-0.4,0.4-0.7,0.3c-0.1-0.1-0.1-0.5-0.2-0.5c0,0-0.1,0.1-0.2,0.3c0,0.3,0.1,0.3,0.2,0.7
		c0,0.2,0,0.3,0,0.3c0.1,0,0.2-0.3,0.5-0.7C48.4,79,48.5,78.8,48.4,78.8z"/>
	<path class="st5" d="M45.7,70.5c-0.3-0.1-0.4,0-0.8-0.1c-0.4-0.1-0.5-0.2-0.7-0.1c-0.1,0.1-0.3,0.2-0.5,0.5
		c-0.2,0.2-0.5,0.6-0.4,0.7c0.1,0.1,0.5-0.1,0.8-0.4c0.3-0.2,0.3-0.3,0.4-0.4c0.3-0.1,0.5,0.3,0.9,0.3c0.2,0,0.5,0,0.5-0.1
		C46,70.7,45.9,70.5,45.7,70.5z"/>
	<path class="st5" d="M46.9,70.6c0,0-0.3-0.1-0.5,0.1c0,0.1,0,0.1,0,0.2c0.1,0.1,0.1,0.1,0.4,0.1c0.5,0,0.5,0,0.5-0.1
		C47.3,70.8,47.1,70.7,46.9,70.6z"/>
	<path class="st5" d="M39.6,80.5c-0.2-0.3,0-0.7-0.1-0.8c-0.1-0.1-0.5,0.1-0.7,0.3c-0.1,0.1-0.1,0.3,0,0.5c0.1,0.3,0.1,0.5,0.2,0.6
		c0.4,0.3,1.2,0,1.2-0.2C40.2,80.8,39.8,80.9,39.6,80.5z"/>
	<path class="st5" d="M42.7,81.2c-0.1-0.1-0.2,0.2-0.5,0.2c-0.1,0-0.2,0-0.5-0.1c-0.3,0-0.4,0-0.4,0c-0.1,0.1,0.7,0.6,1.1,0.3
		C42.6,81.6,42.7,81.3,42.7,81.2z"/>
	<polygon class="st3" points="46.3,75.9 47.9,74 47.1,71.6 44.6,71.2 42.9,73.1 43.8,75.4 	"/>
	<polygon class="st3" points="41.3,77.7 42.9,75.8 42.1,73.4 39.6,73 38,74.8 38.8,77.2 	"/>
	<polygon class="st3" points="45.2,81.1 46.9,79.2 46.1,76.8 43.6,76.3 41.9,78.3 42.8,80.6 	"/>
	<path class="st4" d="M43.2,73.6c0.1-0.2,0.5,0.1,0.8-0.1c0.1-0.1,0.1-0.2,0.3-0.5c0.3-0.3,0.5-0.3,0.6-0.5c0-0.2-0.1-0.3-0.1-0.5
		c0.1-0.2,0.2-0.2,0.3-0.3c0.1-0.2-0.3-0.4-0.3-0.5c0-0.1,0.2-0.1,0.7,0.1c0.8,0.2,0.8,0.3,0.8,0.3c0,0.2-0.7,0.3-0.7,0.7
		c0,0.1,0,0.1,0,0.2c-0.1,0.5-0.7,0.6-0.6,0.8c0,0.2,0.5,0.3,1.3,0.7c0.6,0.3,0.7,0.4,0.7,0.5c0,0.1-0.1,0.1-0.4,0.5
		c-0.3,0.3-0.3,0.4-0.3,0.4c-0.3,0-0.2-0.8-0.8-1.2c-0.3-0.1-0.5-0.3-0.6-0.1c-0.1,0.1,0.1,0.3,0.1,0.5c-0.1,0.2-0.3,0.2-0.3,0.4
		c-0.1,0.3,0.6,0.6,0.5,0.7c0,0.1-0.3-0.1-0.7-0.1c-0.3-0.1-0.5,0-0.6-0.1c-0.1-0.1,0-0.2,0.1-0.3c0.3-0.7,0.5-0.8,0.3-0.9
		C44.5,74,44.2,74,44,74.3c-0.1,0.1-0.2,0.3-0.2,0.3c-0.1,0.1-0.1,0.1-0.1,0.1c-0.1,0-0.1-0.1-0.3-0.6
		C43.2,73.7,43.1,73.7,43.2,73.6z"/>
	<path class="st4" d="M41,74.6c-0.3,0.1-0.5,0.6-0.5,0.8c0.1,0.3,0.7,0,1,0.3c0.2,0.2,0.1,0.5,0.3,0.6c0.3,0.1,0.7-0.1,0.7-0.1
		c0.1,0.1-0.2,0.3-0.6,0.8c-0.2,0.3-0.3,0.4-0.4,0.4c-0.1-0.1,0-0.3-0.1-0.6c-0.1-0.1-0.2-0.2-0.6-0.3c-0.3-0.1-0.7-0.3-1-0.5
		c-0.2-0.1-0.6-0.4-0.5-0.7c0-0.1,0.1-0.1,0.3-0.3c0.3-0.4,0.1-0.7,0.3-0.8C39.9,74,40,74,40.6,74c1.1-0.1,1.3-0.2,1.5,0
		c0.1,0.1,0.1,0.2,0.3,0.5c0.1,0.2,0.3,0.7,0.2,0.8S41.6,74.4,41,74.6z"/>
	<path class="st4" d="M44,76.6c-0.1,0.1-0.1,0.3-0.1,0.5c0.1,0.1,0.2,0.1,0.2,0.3c0,0.1-0.1,0.1-0.1,0.3c-0.1,0.2,0,0.3-0.1,0.3
		c-0.1,0.1-0.5-0.1-0.7-0.4c-0.2-0.3-0.1-0.5-0.2-0.5c-0.1,0-0.1,0.1-0.3,0.4c-0.2,0.2-0.3,0.3-0.3,0.4c-0.1,0.1-0.1,0.3,0,0.5
		c0.1,0.1,0.3-0.1,0.6-0.1c0.2,0.1,0.4,0.3,0.5,0.5c0.1,0.2,0,0.5-0.1,0.7c-0.3,0.1-0.8-0.5-1.1-0.5c-0.1,0.1,0,0.3,0.2,0.9
		c0.2,0.7,0.3,0.7,0.3,0.8c0.1,0.1,0.1,0.1,0.8,0.3c0.6,0.1,0.8,0.2,0.9,0.1c0.1-0.1,0.1-0.1,0.1-0.3c0-0.2-0.3-0.2-0.3-0.4
		c0-0.1,0.3-0.2,0.3-0.5c0-0.1,0.1-0.2,0-0.4c-0.1-0.2-0.3-0.3-0.3-0.3c0-0.1,0.3-0.1,0.5,0c0.5,0.2,0.5,1.1,0.8,1.2
		c0.3,0.1,0.5-0.3,0.6-0.4c0.1-0.1,0.3-0.3,0.2-0.5c-0.1-0.3-0.7-0.3-0.7-0.5s0.7-0.1,0.8-0.4c0.1-0.1,0-0.3-0.1-0.6
		c-0.1-0.5-0.1-0.5-0.2-0.5c-0.1,0-0.1,0.3-0.3,0.3s-0.2-0.1-0.3-0.1c-0.1,0-0.1,0.1-0.2,0.3c-0.2,0.2-0.6,0.2-0.7,0.1
		c-0.1-0.2,0.1-0.8,0.5-0.9c0.1-0.1,0.3-0.1,0.3-0.2c0.1-0.1-0.1-0.2-0.1-0.2c-0.1-0.1-0.3-0.1-0.7-0.1C44.3,76.6,44.2,76.4,44,76.6
		z"/>
</g>
<g>
	<g id="Ebene_1_00000035529265695373438730000014383049172678687671_">
		<path class="st3" d="M41.5,78.1L39,70.9l-7.5-1.4l-5,5.8l2.6,7.2l7.5,1.4L41.5,78.1z M36.4,83.4l-6.9-1.3l-2.4-6.7l4.6-5.4
			l6.9,1.3L41,78L36.4,83.4z"/>
		<path class="st4" d="M31.7,70l-4.6,5.4l2.4,6.7l6.9,1.3L41,78l-2.4-6.7L31.7,70z M32.1,78.7l-2.7-0.5l-0.9-2.7l1.8-2.2l2.7,0.5
			l0.9,2.7L32.1,78.7z M37.9,80l-1.8,2.2l-2.7-0.5l-0.9-2.7l1.8-2.2l2.7,0.5L37.9,80z M37.1,77l-2.7-0.5l-0.9-2.7l1.8-2.2l2.7,0.5
			l0.9,2.7L37.1,77z"/>
	</g>
	<path class="st5" d="M33.4,71.1c-0.4-0.2-0.7-0.1-1.1-0.4c-0.1-0.1-0.1-0.1-0.2-0.2c-0.2-0.1-0.5,0.1-0.5,0.3
		c-0.1,0.3,0.1,0.5,0.1,0.5c0.3,0.3,0.7,0.4,1.2,0.4c0.3,0,0.9,0.1,1-0.2C33.9,71.5,33.7,71.3,33.4,71.1z"/>
	<path class="st5" d="M33,72.4c-0.4-0.1-0.6,0.2-1.1,0.1c-0.1,0-0.3-0.1-0.5-0.2c-0.2-0.3-0.1-0.5-0.3-0.6C31,71.6,30.2,72,30,72.5
		c-0.1,0.2-0.1,0.5,0,0.5c0.1,0.1,0.4-0.4,0.7-0.3c0.3,0,0.3,0.3,0.7,0.5c0.4,0.2,0.8,0.1,1.1,0.1c0.4-0.1,0.9-0.3,0.9-0.5
		C33.4,72.5,33,72.4,33,72.4z"/>
	<path class="st5" d="M39.5,75c-0.1-0.5-0.3-0.7-0.3-1.1c-0.1-0.5,0-0.5-0.1-0.9c-0.1-0.6-0.5-1.2-0.5-1.2c-0.1,0-0.1,0.2-0.1,0.3
		c0.1,0.3,0.3,0.4,0.3,0.7c0.1,0.2,0,0.3,0,0.6c0,0.2,0,0.4,0.2,1c0.2,0.7,0.6,1.8,0.7,1.7C39.8,76.2,39.6,75.5,39.5,75z"/>
	<path class="st5" d="M38.6,77c0.1-0.1,0.3,0,0.6-0.1c0.2-0.1,0.3-0.5,0.3-0.6c-0.1-0.1-0.2,0-0.5,0c-0.3,0-0.3-0.2-0.5-0.2
		c-0.3,0-0.6,0.4-0.7,0.8c-0.1,0.4,0.3,0.5,0.3,0.9c0,0.3-0.3,0.5-0.2,0.6c0.1,0.1,0.9-0.4,0.9-0.8C38.8,77.3,38.6,77.1,38.6,77z"/>
	<path class="st5" d="M40.2,78.1c0.1-0.3,0.3-0.3,0.3-0.5c0.1-0.3-0.1-0.7-0.3-0.7c-0.1,0-0.1,0.2-0.3,0.4c-0.2,0.1-0.4,0-0.5,0.1
		c-0.1,0.1,0.2,0.4,0.1,0.7c-0.1,0.3-0.8,0.3-0.8,0.5c-0.1,0.2,0.3,0.6,0.6,0.6c0.4,0.1,0.7-0.4,0.7-0.5
		C40.1,78.5,40,78.5,40.2,78.1z"/>
	<path class="st5" d="M31.6,79.2c0,0-0.1-0.1-0.3-0.1c-0.5-0.2-0.6-0.2-0.7-0.1c-0.1,0.1-0.3,0.2-0.2,0.3c0,0.1,0.3,0.1,0.3,0.2
		c0,0-0.4,0.1-0.5,0.3c-0.1,0.1,0.1,0.4,0.2,0.5c0.3,0.1,0.4-0.4,0.7-0.4c0.2,0.1,0.2,0.5,0.3,0.5c0.1,0,0.2-0.3,0.3-0.5
		C31.7,79.6,31.8,79.4,31.6,79.2z"/>
	<path class="st5" d="M32.6,80.7c-0.2-0.4-0.3-0.7-0.4-0.6c-0.1,0,0,0.4-0.2,0.6c-0.2,0.2-0.6,0.1-0.7,0c-0.3-0.1-0.4-0.3-0.5-0.2
		c-0.2,0.1-0.3,0.4-0.2,0.6c0.1,0.2,0.3,0.3,0.3,0.3c0.3,0.1,0.5-0.1,0.7-0.1c0.1,0.1,0.1,0.1,0.2,0.3c0.1,0.1,0.3,0.5,0.5,0.4
		c0.3,0,0.5-0.4,0.5-0.7C32.8,81.2,32.8,81.1,32.6,80.7z"/>
	<path class="st5" d="M30,79c0.2-0.3,0.3-0.3,0.3-0.3c-0.1-0.1-0.7,0.2-1.1-0.1c-0.1-0.1-0.1-0.1-0.4-0.8c-0.2-0.4-0.3-0.6-0.3-0.5
		c-0.1,0-0.1,0.5,0,0.9c0.1,0.3,0.1,0.5,0.3,0.8c0.2,0.3,0.3,0.3,0.3,0.5c0.1,0.3-0.1,0.5,0,0.7c0.1,0.1,0.3,0.1,0.4-0.1
		c0.1-0.1,0.1-0.2,0.2-0.5C29.7,79.4,29.8,79.3,30,79z"/>
	<path class="st5" d="M28.9,74.1c-0.3-0.1-0.8,0.3-0.7,0.5c0,0.1,0.2,0.2,0.4,0.3c0.2,0,0.5-0.1,0.5-0.4
		C29.2,74.3,29.1,74.2,28.9,74.1z"/>
	<path class="st5" d="M28.1,76.2c-0.3-0.5,0.1-0.9-0.1-1c-0.1-0.1-0.3,0.1-0.3,0.3c-0.1,0.1-0.1,0.3-0.1,0.3c0,0.2,0.1,0.3,0.2,0.5
		c0.1,0.4,0.1,0.7,0.1,0.7c0.1,0.1,0.3-0.1,0.3-0.3C28.3,76.4,28.2,76.4,28.1,76.2z"/>
	<path class="st5" d="M35.9,82.3c-0.1-0.1-0.2,0-0.5,0c-0.1,0-0.3-0.1-0.4-0.1c-0.3-0.1-0.3-0.1-0.5-0.2c-0.2,0-0.6-0.1-0.7,0
		c-0.1,0.1,0.1,0.3,0.3,0.4c0.2,0.1,0.3-0.1,0.6,0c0.2,0.1,0.2,0.1,0.5,0.3c0.1,0.1,0.5,0.2,0.7,0.1C36,82.7,36,82.5,35.9,82.3z"/>
	<path class="st5" d="M37.7,80.9c-0.1-0.1-0.4,0.1-0.4,0.3c0,0.1,0,0.2,0.1,0.3c0.1,0.1,0.4-0.1,0.5-0.3
		C37.9,81.1,37.8,80.9,37.7,80.9z"/>
	<path class="st5" d="M37.3,82c-0.1-0.1-0.4-0.2-0.6-0.1c0,0-0.3,0.1-0.3,0.3s0.2,0.3,0.4,0.3C37.1,82.5,37.4,82.2,37.3,82z"/>
	<path class="st5" d="M39.2,79.5c-0.1-0.1-0.4,0.4-0.7,0.3c-0.1-0.1-0.1-0.5-0.2-0.5s-0.1,0.1-0.2,0.3c0,0.3,0.1,0.3,0.2,0.7
		c0,0.2,0,0.3,0,0.3c0.1,0,0.2-0.3,0.5-0.7C39.1,79.7,39.2,79.5,39.2,79.5z"/>
	<path class="st5" d="M36.5,71.2c-0.3-0.1-0.4,0-0.8-0.1c-0.4-0.1-0.5-0.2-0.7-0.1c-0.1,0.1-0.3,0.2-0.5,0.5
		c-0.2,0.2-0.5,0.6-0.4,0.7c0.1,0.1,0.5-0.1,0.8-0.4c0.3-0.2,0.3-0.3,0.4-0.4c0.3-0.1,0.5,0.3,0.9,0.3c0.2,0,0.5,0,0.5-0.1
		C36.7,71.4,36.6,71.3,36.5,71.2z"/>
	<path class="st5" d="M37.6,71.3c0,0-0.3-0.1-0.5,0.1c0,0.1,0,0.1,0,0.2c0.1,0.1,0.1,0.1,0.4,0.1c0.5,0,0.5,0,0.5-0.1
		C38.1,71.5,37.9,71.4,37.6,71.3z"/>
	<path class="st5" d="M30.4,81.3c-0.2-0.3,0-0.7-0.1-0.8c-0.1-0.1-0.5,0.1-0.7,0.3c-0.1,0.1-0.1,0.3,0,0.5c0.1,0.3,0.1,0.5,0.2,0.6
		c0.4,0.3,1.2,0,1.2-0.2C31,81.6,30.6,81.6,30.4,81.3z"/>
	<path class="st5" d="M33.4,81.9c-0.1-0.1-0.2,0.2-0.5,0.2c-0.1,0-0.2,0-0.5-0.1c-0.3,0-0.4,0-0.4,0c-0.1,0.1,0.7,0.6,1.1,0.3
		C33.4,82.3,33.5,82,33.4,81.9z"/>
	<polygon class="st3" points="37,76.6 38.6,74.7 37.8,72.4 35.3,71.9 33.7,73.8 34.5,76.2 	"/>
	<polygon class="st3" points="32,78.5 33.7,76.5 32.8,74.2 30.4,73.7 28.8,75.6 29.6,78 	"/>
	<polygon class="st3" points="36,81.8 37.6,79.9 36.8,77.5 34.3,77 32.7,79 33.5,81.3 	"/>
	<path class="st4" d="M33.9,74.3c0.1-0.2,0.5,0.1,0.8-0.1c0.1-0.1,0.1-0.2,0.3-0.5c0.3-0.3,0.5-0.3,0.6-0.5c0-0.2-0.1-0.3-0.1-0.5
		c0.1-0.2,0.2-0.2,0.3-0.3c0.1-0.2-0.3-0.4-0.3-0.5c0-0.1,0.2-0.1,0.7,0.1c0.8,0.2,0.8,0.3,0.8,0.3c0,0.2-0.7,0.3-0.7,0.7
		c0,0.1,0,0.1,0,0.2c-0.1,0.5-0.7,0.6-0.6,0.8c0,0.2,0.5,0.3,1.3,0.7c0.6,0.3,0.7,0.4,0.7,0.5c0,0.1-0.1,0.1-0.4,0.5
		c-0.3,0.3-0.3,0.4-0.3,0.4c-0.3,0-0.2-0.8-0.8-1.2c-0.3-0.1-0.5-0.3-0.6-0.1c-0.1,0.1,0.1,0.3,0.1,0.5c-0.1,0.2-0.3,0.2-0.3,0.4
		c-0.1,0.3,0.6,0.6,0.5,0.7c0,0.1-0.3-0.1-0.7-0.1c-0.3-0.1-0.5,0-0.6-0.1c-0.1-0.1,0-0.2,0.1-0.3c0.3-0.7,0.5-0.8,0.3-0.9
		c-0.1-0.1-0.4-0.1-0.6,0.1c-0.1,0.1-0.2,0.3-0.2,0.3c-0.1,0.1-0.1,0.1-0.1,0.1c-0.1,0-0.1-0.1-0.3-0.6
		C33.9,74.4,33.9,74.4,33.9,74.3z"/>
	<path class="st4" d="M31.7,75.3c-0.3,0.1-0.5,0.6-0.5,0.8c0.1,0.3,0.7,0,1,0.3c0.2,0.2,0.1,0.5,0.3,0.6c0.3,0.1,0.7-0.1,0.7-0.1
		c0.1,0.1-0.2,0.3-0.6,0.8c-0.2,0.3-0.3,0.4-0.4,0.4c-0.1-0.1,0-0.3-0.1-0.6c-0.1-0.1-0.2-0.2-0.6-0.3c-0.3-0.1-0.7-0.3-1-0.5
		c-0.2-0.1-0.6-0.4-0.5-0.7c0-0.1,0.1-0.1,0.3-0.3c0.3-0.4,0.1-0.7,0.3-0.8c0.1-0.1,0.3-0.1,0.8-0.2c1.1-0.1,1.3-0.2,1.5,0
		c0.1,0.1,0.1,0.2,0.3,0.5c0.1,0.2,0.3,0.7,0.2,0.8C33.1,76.2,32.4,75.1,31.7,75.3z"/>
	<path class="st4" d="M34.8,77.3c-0.1,0.1-0.1,0.3-0.1,0.5c0.1,0.1,0.2,0.1,0.2,0.3c0,0.1-0.1,0.1-0.1,0.3s0,0.3-0.1,0.3
		c-0.1,0.1-0.5-0.1-0.7-0.4c-0.2-0.3-0.1-0.5-0.2-0.5c-0.1,0-0.1,0.1-0.3,0.4c-0.2,0.2-0.3,0.3-0.3,0.4c-0.1,0.1-0.1,0.3,0,0.5
		c0.1,0.1,0.3-0.1,0.6-0.1c0.2,0.1,0.4,0.3,0.5,0.5c0.1,0.2,0,0.5-0.1,0.7c-0.3,0.1-0.8-0.5-1.1-0.5c-0.1,0.1,0,0.3,0.2,0.9
		c0.2,0.7,0.3,0.7,0.3,0.8c0.1,0.1,0.1,0.1,0.8,0.3c0.6,0.1,0.8,0.2,0.9,0.1c0.1-0.1,0.1-0.1,0.1-0.3c0-0.2-0.3-0.2-0.3-0.4
		c0-0.1,0.3-0.2,0.3-0.5c0-0.1,0.1-0.2,0-0.4s-0.3-0.3-0.3-0.3c0-0.1,0.3-0.1,0.5,0c0.5,0.2,0.5,1.1,0.8,1.2
		c0.3,0.1,0.5-0.3,0.6-0.4c0.1-0.1,0.3-0.3,0.2-0.5c-0.1-0.3-0.7-0.3-0.7-0.5c0-0.2,0.7-0.1,0.8-0.4c0.1-0.1,0-0.3-0.1-0.6
		C37,78.1,37,78.1,37,78.1c-0.1,0-0.1,0.3-0.3,0.3c-0.1,0-0.2-0.1-0.3-0.1c-0.1,0-0.1,0.1-0.2,0.3c-0.2,0.2-0.6,0.2-0.7,0.1
		c-0.1-0.2,0.1-0.8,0.5-0.9c0.1-0.1,0.3-0.1,0.3-0.2c0.1-0.1-0.1-0.2-0.1-0.2c-0.1-0.1-0.3-0.1-0.7-0.1C35,77.3,34.9,77.1,34.8,77.3
		z"/>
</g>
<g>
	<g id="Ebene_1_00000044866011568203647350000016627232325593374382_">
		<path class="st3" d="M55.3,88.5l-2.6-7.2l-7.5-1.4l-5,5.8l2.6,7.2l7.5,1.4L55.3,88.5z M50.2,93.8l-6.9-1.3l-2.4-6.7l4.6-5.4
			l6.9,1.3l2.4,6.7L50.2,93.8z"/>
		<path class="st4" d="M45.5,80.4l-4.6,5.4l2.4,6.7l6.9,1.3l4.6-5.4l-2.4-6.7L45.5,80.4z M45.9,89.1l-2.7-0.5l-0.9-2.7l1.8-2.2
			l2.7,0.5l0.9,2.7L45.9,89.1z M51.7,90.4l-1.8,2.2L47.2,92l-0.9-2.7l1.8-2.2l2.7,0.5L51.7,90.4z M50.9,87.4l-2.7-0.5l-0.9-2.7
			L49,82l2.7,0.5l0.9,2.7L50.9,87.4z"/>
	</g>
	<path class="st5" d="M47.2,81.5c-0.4-0.2-0.7-0.1-1.1-0.4C46.1,81.1,46,81,46,80.9c-0.2-0.1-0.5,0.1-0.5,0.3
		c-0.1,0.3,0.1,0.5,0.1,0.5c0.3,0.3,0.7,0.4,1.2,0.4c0.3,0,0.9,0.1,1-0.2C47.7,81.9,47.5,81.7,47.2,81.5z"/>
	<path class="st5" d="M46.8,82.8c-0.4-0.1-0.6,0.2-1.1,0.1c-0.1,0-0.3-0.1-0.5-0.2c-0.2-0.3-0.1-0.5-0.3-0.6
		C44.8,82,44,82.4,43.8,83c-0.1,0.2-0.1,0.5,0,0.5c0.1,0.1,0.4-0.4,0.7-0.3c0.3,0,0.3,0.3,0.7,0.5s0.8,0.1,1.1,0.1
		c0.4-0.1,0.9-0.3,0.9-0.5C47.1,82.9,46.8,82.8,46.8,82.8z"/>
	<path class="st5" d="M53.3,85.4c-0.1-0.5-0.3-0.7-0.3-1.1c-0.1-0.5,0-0.5-0.1-0.9c-0.1-0.6-0.5-1.2-0.5-1.2c-0.1,0-0.1,0.2-0.1,0.3
		c0.1,0.3,0.3,0.4,0.3,0.7c0.1,0.2,0,0.3,0,0.6c0,0.2,0,0.4,0.2,1c0.2,0.7,0.6,1.8,0.7,1.7C53.6,86.6,53.4,85.9,53.3,85.4z"/>
	<path class="st5" d="M52.4,87.4c0.1-0.1,0.3,0,0.6-0.1c0.2-0.1,0.3-0.5,0.3-0.6c-0.1-0.1-0.2,0-0.5,0c-0.3,0-0.3-0.2-0.5-0.2
		c-0.3,0-0.6,0.4-0.7,0.8c-0.1,0.4,0.3,0.5,0.3,0.9c0,0.3-0.3,0.5-0.2,0.6c0.1,0.1,0.9-0.4,0.9-0.8C52.6,87.7,52.4,87.6,52.4,87.4z"
		/>
	<path class="st5" d="M54,88.5c0.1-0.3,0.3-0.3,0.3-0.5c0.1-0.3-0.1-0.7-0.3-0.7c-0.1,0-0.1,0.2-0.3,0.4c-0.2,0.1-0.4,0-0.5,0.1
		c-0.1,0.1,0.2,0.4,0.1,0.7c-0.1,0.3-0.8,0.3-0.8,0.5c-0.1,0.2,0.3,0.6,0.6,0.6c0.4,0.1,0.7-0.4,0.7-0.5
		C53.9,88.9,53.8,88.9,54,88.5z"/>
	<path class="st5" d="M45.3,89.6c0,0-0.1-0.1-0.3-0.1c-0.5-0.2-0.6-0.2-0.7-0.1c-0.1,0.1-0.3,0.2-0.2,0.3c0,0.1,0.3,0.1,0.3,0.2
		c0,0-0.4,0.1-0.5,0.3c-0.1,0.1,0.1,0.4,0.2,0.5c0.3,0.1,0.4-0.4,0.7-0.4c0.2,0.1,0.2,0.5,0.3,0.5s0.2-0.3,0.3-0.5
		C45.5,90,45.6,89.8,45.3,89.6z"/>
	<path class="st5" d="M46.4,91.1c-0.2-0.4-0.3-0.7-0.4-0.6c-0.1,0,0,0.4-0.2,0.6c-0.2,0.2-0.6,0.1-0.7,0c-0.3-0.1-0.4-0.3-0.5-0.2
		c-0.2,0.1-0.3,0.4-0.2,0.6c0.1,0.2,0.3,0.3,0.3,0.3c0.3,0.1,0.5-0.1,0.7-0.1c0.1,0.1,0.1,0.1,0.2,0.3c0.1,0.1,0.3,0.5,0.5,0.4
		c0.3,0,0.5-0.4,0.5-0.7C46.6,91.6,46.6,91.5,46.4,91.1z"/>
	<path class="st5" d="M43.8,89.4c0.2-0.3,0.3-0.3,0.3-0.3c-0.1-0.1-0.7,0.2-1.1-0.1c-0.1-0.1-0.1-0.1-0.4-0.8
		c-0.2-0.4-0.3-0.6-0.3-0.5c-0.1,0-0.1,0.5,0,0.9c0.1,0.3,0.1,0.5,0.3,0.8c0.2,0.3,0.3,0.3,0.3,0.5c0.1,0.3-0.1,0.5,0,0.7
		c0.1,0.1,0.3,0.1,0.4-0.1c0.1-0.1,0.1-0.2,0.2-0.5C43.5,89.9,43.6,89.7,43.8,89.4z"/>
	<path class="st5" d="M42.7,84.5c-0.3-0.1-0.8,0.3-0.7,0.5c0,0.1,0.2,0.2,0.4,0.3c0.2,0,0.5-0.1,0.5-0.4
		C42.9,84.7,42.9,84.6,42.7,84.5z"/>
	<path class="st5" d="M41.9,86.6c-0.3-0.5,0.1-0.9-0.1-1c-0.1-0.1-0.3,0.1-0.3,0.3c-0.1,0.1-0.1,0.3-0.1,0.3c0,0.2,0.1,0.3,0.2,0.5
		c0.1,0.4,0.1,0.7,0.1,0.7c0.1,0.1,0.3-0.1,0.3-0.3C42.1,86.8,42,86.8,41.9,86.6z"/>
	<path class="st5" d="M49.7,92.7c-0.1-0.1-0.2,0-0.5,0c-0.1,0-0.3-0.1-0.4-0.1c-0.3-0.1-0.3-0.1-0.5-0.2c-0.2,0-0.6-0.1-0.7,0
		c-0.1,0.1,0.1,0.3,0.3,0.4c0.2,0.1,0.3-0.1,0.6,0c0.2,0.1,0.2,0.1,0.5,0.3c0.1,0.1,0.5,0.2,0.7,0.1C49.8,93.1,49.8,92.9,49.7,92.7z
		"/>
	<path class="st5" d="M51.4,91.3c-0.1-0.1-0.4,0.1-0.4,0.3c0,0.1,0,0.2,0.1,0.3c0.1,0.1,0.4-0.1,0.5-0.3
		C51.7,91.5,51.6,91.3,51.4,91.3z"/>
	<path class="st5" d="M51.1,92.4c-0.1-0.1-0.4-0.2-0.6-0.1c0,0-0.3,0.1-0.3,0.3s0.2,0.3,0.4,0.3C50.9,92.9,51.2,92.6,51.1,92.4z"/>
	<path class="st5" d="M53,89.9c-0.1-0.1-0.4,0.4-0.7,0.3c-0.1-0.1-0.1-0.5-0.2-0.5S52,89.9,52,90c0,0.3,0.1,0.3,0.2,0.7
		c0,0.2,0,0.3,0,0.3c0.1,0,0.2-0.3,0.5-0.7C52.9,90.1,53,89.9,53,89.9z"/>
	<path class="st5" d="M50.3,81.6c-0.3-0.1-0.4,0-0.8-0.1c-0.4-0.1-0.5-0.2-0.7-0.1c-0.1,0.1-0.3,0.2-0.5,0.5
		c-0.2,0.2-0.5,0.6-0.4,0.7c0.1,0.1,0.5-0.1,0.8-0.4c0.3-0.2,0.3-0.3,0.4-0.4c0.3-0.1,0.5,0.3,0.9,0.3c0.2,0,0.5,0,0.5-0.1
		C50.5,81.8,50.4,81.7,50.3,81.6z"/>
	<path class="st5" d="M51.4,81.7c0,0-0.3-0.1-0.5,0.1c0,0.1,0,0.1,0,0.2C51,82,51.1,82,51.3,82c0.5,0,0.5,0,0.5-0.1
		C51.8,81.9,51.7,81.8,51.4,81.7z"/>
	<path class="st5" d="M44.2,91.7c-0.2-0.3,0-0.7-0.1-0.8c-0.1-0.1-0.5,0.1-0.7,0.3c-0.1,0.1-0.1,0.3,0,0.5c0.1,0.3,0.1,0.5,0.2,0.6
		c0.4,0.3,1.2,0,1.2-0.2C44.8,92,44.4,92,44.2,91.7z"/>
	<path class="st5" d="M47.2,92.3c-0.1-0.1-0.2,0.2-0.5,0.2c-0.1,0-0.2,0-0.5-0.1c-0.3,0-0.4,0-0.4,0c-0.1,0.1,0.7,0.6,1.1,0.3
		C47.1,92.7,47.2,92.4,47.2,92.3z"/>
	<polygon class="st3" points="50.8,87 52.4,85.1 51.6,82.8 49.1,82.3 47.5,84.2 48.3,86.6 	"/>
	<polygon class="st3" points="45.8,88.9 47.5,86.9 46.6,84.6 44.2,84.1 42.5,86 43.3,88.4 	"/>
	<polygon class="st3" points="49.8,92.2 51.4,90.3 50.6,88 48.1,87.4 46.5,89.4 47.3,91.7 	"/>
	<path class="st4" d="M47.7,84.7c0.1-0.2,0.5,0.1,0.8-0.1c0.1-0.1,0.1-0.2,0.3-0.5c0.3-0.3,0.5-0.3,0.6-0.5c0-0.2-0.1-0.3-0.1-0.5
		c0.1-0.2,0.2-0.2,0.3-0.3c0.1-0.2-0.3-0.4-0.3-0.5c0-0.1,0.2-0.1,0.7,0.1c0.8,0.2,0.8,0.3,0.8,0.3c0,0.2-0.7,0.3-0.7,0.7
		c0,0.1,0,0.1,0,0.2c-0.1,0.5-0.7,0.6-0.6,0.8c0,0.2,0.5,0.3,1.3,0.7c0.6,0.3,0.7,0.4,0.7,0.5c0,0.1-0.1,0.1-0.4,0.5
		c-0.3,0.3-0.3,0.4-0.3,0.4c-0.3,0-0.2-0.8-0.8-1.2c-0.3-0.1-0.5-0.3-0.6-0.1c-0.1,0.1,0.1,0.3,0.1,0.5c-0.1,0.2-0.3,0.2-0.3,0.4
		c-0.1,0.3,0.6,0.6,0.5,0.7c0,0.1-0.3-0.1-0.7-0.1c-0.3-0.1-0.5,0-0.6-0.1c-0.1-0.1,0-0.2,0.1-0.3c0.3-0.7,0.5-0.8,0.3-0.9
		c-0.1-0.1-0.4-0.1-0.6,0.1c-0.1,0.1-0.2,0.3-0.2,0.3c-0.1,0.1-0.1,0.1-0.1,0.1c-0.1,0-0.1-0.1-0.3-0.6
		C47.7,84.8,47.6,84.8,47.7,84.7z"/>
	<path class="st4" d="M45.5,85.7c-0.3,0.1-0.5,0.6-0.5,0.8c0.1,0.3,0.7,0,1,0.3c0.2,0.2,0.1,0.5,0.3,0.6c0.3,0.1,0.7-0.1,0.7-0.1
		c0.1,0.1-0.2,0.3-0.6,0.8c-0.2,0.3-0.3,0.4-0.4,0.4c-0.1-0.1,0-0.3-0.1-0.6c-0.1-0.1-0.2-0.2-0.6-0.3c-0.3-0.1-0.7-0.3-1-0.5
		c-0.2-0.1-0.6-0.4-0.5-0.7c0-0.1,0.1-0.1,0.3-0.3c0.3-0.4,0.1-0.7,0.3-0.8c0.1-0.1,0.3-0.1,0.8-0.2c1.1-0.1,1.3-0.2,1.5,0
		c0.1,0.1,0.1,0.2,0.3,0.5c0.1,0.2,0.3,0.7,0.2,0.8C46.9,86.6,46.2,85.5,45.5,85.7z"/>
	<path class="st4" d="M48.6,87.7c-0.1,0.1-0.1,0.3-0.1,0.5c0.1,0.1,0.2,0.1,0.2,0.3c0,0.1-0.1,0.1-0.1,0.3c-0.1,0.2,0,0.3-0.1,0.3
		c-0.1,0.1-0.5-0.1-0.7-0.4c-0.2-0.3-0.1-0.5-0.2-0.5c-0.1,0-0.1,0.1-0.3,0.4C47.1,88.8,47,88.8,47,89c-0.1,0.1-0.1,0.3,0,0.5
		c0.1,0.1,0.3-0.1,0.6-0.1c0.2,0.1,0.4,0.3,0.5,0.5c0.1,0.2,0,0.5-0.1,0.7C47.5,90.7,47,90,46.8,90c-0.1,0.1,0,0.3,0.2,0.9
		c0.2,0.7,0.3,0.7,0.3,0.8c0.1,0.1,0.1,0.1,0.8,0.3c0.6,0.1,0.8,0.2,0.9,0.1c0.1-0.1,0.1-0.1,0.1-0.3c0-0.2-0.3-0.2-0.3-0.4
		c0-0.1,0.3-0.2,0.3-0.5c0-0.1,0.1-0.2,0-0.4c-0.1-0.2-0.3-0.3-0.3-0.3s0.3-0.1,0.5,0c0.5,0.2,0.5,1.1,0.8,1.2
		c0.3,0.1,0.5-0.3,0.6-0.4c0.1-0.1,0.3-0.3,0.2-0.5c-0.1-0.3-0.7-0.3-0.7-0.5s0.7-0.1,0.8-0.4c0.1-0.1,0-0.3-0.1-0.6
		c-0.1-0.5-0.1-0.5-0.2-0.5c-0.1,0-0.1,0.3-0.3,0.3s-0.2-0.1-0.3-0.1C50,88.8,50,88.9,50,89c-0.2,0.2-0.6,0.2-0.7,0.1
		c-0.1-0.2,0.1-0.8,0.5-0.9c0.1-0.1,0.3-0.1,0.3-0.2c0.1-0.1-0.1-0.2-0.1-0.2c-0.1-0.1-0.3-0.1-0.7-0.1
		C48.8,87.7,48.7,87.6,48.6,87.7z"/>
</g>
<path d="M26.9,40.9c-0.4,0.3-1,0.1-2.1-0.2c-2.7-0.7-3.4-0.4-3.9-0.8c-2.2-1.6,1.3-16.2,12.7-25.3c2.8-2.3,8.7-7,17.2-7.1
	C58.7,7.3,64.4,11.2,67,13c13.6,9.6,17.3,28,15.2,29.3c-0.3,0.2-0.6-0.2-2.3-0.3c-2.7-0.2-4,0.6-4.9-0.2c-0.4-0.3-0.6-1-0.4-1.3
	c0.5-1,3.7,0.8,5-0.1c2.5-1.7-0.3-14.7-9.3-23.2c-2.1-1.9-9-8.4-19.4-8.2c-10.6,0.2-17.3,7.2-20,10c-7.2,7.5-10.2,17.7-8.2,19.2
	c1,0.8,3.3-0.8,4.3,0.4C27.5,39.2,27.4,40.5,26.9,40.9z"/>
</svg>
