<?xml version="1.0" encoding="utf-8"?>
<!-- Generator: Adobe Illustrator 26.0.3, SVG Export Plug-In . SVG Version: 6.00 Build 0)  -->
<svg version="1.1" id="Ebene_1" xmlns="http://www.w3.org/2000/svg" xmlns:xlink="http://www.w3.org/1999/xlink" x="0px" y="0px"
	 viewBox="0 0 1920 1080" style="enable-background:new 0 0 1920 1080;" xml:space="preserve">
<style type="text/css">
	.st0{display:none;fill:#644128;filter:url(#SAND_dark-hard);stroke:#000000;stroke-width:4;stroke-miterlimit:10;}
</style>
<filter  color-interpolation-filters="sRGB" filterUnits="objectBoundingBox" height="100%" id="SAND_dark-hard" width="100%" x="0%" y="0%">
	<feTurbulence  baseFrequency="0.6" numOctaves="1" result="f1" seed="0" stitchTiles="noStitch" type="fractalNoise">
		</feTurbulence>
	<feColorMatrix  in="f1" result="f2" type="matrix" values="-17 0 0 0 8     -17 0 0 0 8     -17 0 0 0 8     0 0 0 0 1">
		</feColorMatrix>
	<feColorMatrix  in="f2" result="f3" type="luminanceToAlpha"></feColorMatrix>
	<feComposite  in="SourceGraphic" in2="f3" operator="in" result="f4"></feComposite>
	<feColorMatrix  in="f4" result="f5" type="matrix" values="1 0 0 0 -0.26     0 1 0 0 -0.26     0 0 1 0 -0.26     0 0 0 1 0">
		</feColorMatrix>
	<feMerge>
		<feMergeNode  in="SourceGraphic"></feMergeNode>
		<feMergeNode  in="f5"></feMergeNode>
	</feMerge>
</filter>
<image style="overflow:visible;filter:url(#SAND_dark-hard);" width="1926" height="1089" id="Hintergrund" xlink:href="64466E5D.png"  transform="matrix(1 0 0 1 -5 -9.4)">
</image>
<image style="overflow:visible;filter:url(#SAND_dark-hard);" width="1924" height="702" id="Boden_00000010313203474523797640000012975766943300734399_" xlink:href="64466E5F.png"  transform="matrix(1 0 0 1 -2.0007 379.5)">
</image>
<image style="overflow:visible;filter:url(#SAND_dark-hard);" width="1924" height="141" id="Rasen_00000174588821782124810660000010927631385788730289_" xlink:href="64466E5A.png"  transform="matrix(1 0 0 1 -2 377.3821)">
</image>
<path id="Boden2_x3F_" style="display:none;fill:#644128;stroke:#000000;stroke-width:4;stroke-miterlimit:10;" d="M1920,1080H0
	c0-94.8,0-189.6,0-284.4c0-46.9,0-93.7,0-140.6c640,0,1280,0,1920,0V1080z"/>
<image style="overflow:visible;filter:url(#SAND_dark-hard);" width="1925" height="208" id="Gras" xlink:href="64466E5B.png"  transform="matrix(1 0 0 1 -2.3096 284.6712)">
</image>
</svg>
