<?xml version="1.0" encoding="utf-8"?><!-- Generator: Adobe Illustrator 26.0.3, SVG Export Plug-In . SVG Version: 6.00 Build 0)  --><svg version="1.1" id="Ebene_2_00000020371425143906055610000010711333585448278916_"	 xmlns="http://www.w3.org/2000/svg" xmlns:xlink="http://www.w3.org/1999/xlink" x="0px" y="0px" viewBox="0 0 100 100"	 style="enable-background:new 0 0 100 100;" xml:space="preserve"><style type="text/css">	.st0{fill:#8A3C8F;stroke:#000000;stroke-width:2;stroke-miterlimit:10;}	.st1{fill:#DB8F00;stroke:#000000;stroke-width:0.5;stroke-miterlimit:10;}	.st2{fill:#DB8F00;stroke:#000000;stroke-width:0.5;stroke-miterlimit:10;}	.st3{fill:#C78F55;stroke:#000000;stroke-width:0.5;stroke-miterlimit:10;}	.st4{fill:#493127;stroke:#000000;stroke-width:0.25;stroke-miterlimit:10;}	.st5{fill:#804122;stroke:#000000;stroke-width:0.75;stroke-miterlimit:10;}	.st6{fill:#493127;stroke:#000000;stroke-width:0.25;stroke-miterlimit:10;}	.st7{fill:#493127;stroke:#000000;stroke-width:0.25;stroke-miterlimit:10;}	.st8{fill:#5D4135;stroke:#030300;stroke-width:0.25;stroke-miterlimit:10;}	.st9{fill:#69B42D;stroke:#000000;stroke-miterlimit:10;}</style><g id="Ebene_1_00000178169986029889010870000017977382286501971088_">	<path class="st0" d="M8.6,25.8c2.5-1.5,5-2.9,7.6-4.4c11.5-6.6,23-13.2,34.4-19.8c14,8.1,28,16.1,42,24.2v48.4l-42,24.2l-42-24.2		L8.6,25.8z"/></g><path class="st1" d="M51.6,64.2c1.2,0.4,3.9-3.1,5.6-6.6c3.5-7,1.1-9.5,4.3-15.6c2.6-4.9,5.3-5.4,5.7-9.5c0.3-3-0.6-6.8-2.5-7.3	c-2.5-0.6-3.7,5.3-10.1,8.3c-4.4,2.1-7.6,1-8.5,3.1c-0.8,2,1.8,3.5,1.8,8.1c0,2.6-0.7,2.7-0.5,5c0.3,3,1.8,3.5,2.9,6.8	C51.8,61,50.6,63.9,51.6,64.2z"/><path class="st1" d="M36.8,58.3c-1.2-1.6,0.2-3-0.4-6.4c-0.6-3.9-3.8-5.5-3-7c0.4-0.6,1.2-0.9,1.9-0.8c1.4,0.1,1.5,1.9,3.2,3.5	c2.5,2.5,5.1,1.4,6.4,3.8c0.4,0.8,0.1,0.9,0.6,2.6c1,3.6,2.6,4.6,2.1,5.5s-2.4,0.7-5.1,0.4C39.3,59.6,37.7,59.4,36.8,58.3z"/><path class="st2" d="M38.1,83c-0.8,1.2-0.7,2.9-0.2,4c0.8,1.7,2.1,1.8,5,3.6c4.2,2.6,4.4,4.3,6.2,4.2c2.1-0.2,4-2.5,4.6-4.7	c0.3-1.2,0-1.3-0.2-4.9c-0.2-4.1,0.2-4.3-0.3-5.6c-0.9-2.3-3.5-4.6-5.5-4.2s-1.5,3.2-4.4,5.2C41,82,39.2,81.2,38.1,83z"/><path class="st3" d="M30.6,69.1c0.6-4.7,13.8-1.2,30.2-6.5c12.8-4.4,18.2-10.9,23.7-7.5c2.6,1.5,4.7,4.8,4.4,7.6	c-0.7,5-9.9,3.5-13.7,10.5c-2.3,4.2,0.2,6.9-2.5,10.3c-3.4,4.1-10.5,5.1-13.5,2.4c-2.9-3,0.5-8-2.2-10.8c-4.2-4.4-15.5,5.2-23.1-0.3	C32.5,73.4,30.4,71.2,30.6,69.1z"/><path class="st2" d="M88,34.1c-1.2,1.5-3,0.5-4.4,2.2c-0.5,0.6-0.9,1.3-1,6.1c-0.2,4.8,0.2,5.3-0.4,6.2c-1.7,2.4-7.1,2.8-9,0.6	c-1.6-1.8,0.4-3.9-1.2-7.3c-1.5-3.2-4.2-3-4.6-5.6c-0.2-1.5,0.7-1.6,2.4-6.2c1.1-3.1,1.1-4.1,2.2-5c0.6-0.5,1.6-1,4.4-1	c4.8-0.1,8-0.1,10.2,2.2C88.6,28.4,89.5,32.2,88,34.1z"/><path class="st1" d="M33.9,57.4c0.1,1.7-2.5,1.7-4.2,5.2c-1.1,2.4-0.5,3.5-1.9,5c-0.2,0.2-2,2.2-4.3,1.9c-2.7-0.3-2.4-3.5-6.4-6.2	c-2.7-1.8-4.3-1.5-5.3-3.4c-0.3-0.6-0.2-0.8-0.4-4.3c-0.2-4.3-0.3-4.9,0-6.1c0.2-0.7,1-3.3,2.5-3.6c1.3-0.2,2.1,1.5,4.4,3.3	c2.1,1.6,3,1.2,7.1,2.8C29.8,53.7,33.9,55.3,33.9,57.4z"/><path class="st2" d="M20.1,28.1c-0.6,0-0.5,1.6-1.9,2.8s-2.7,0.5-3.4,1.5c-0.8,1.1-0.1,3.3,1.2,4.4c2,1.8,5.6,1.5,6.5,0	c0.2-0.3,0.3-0.7-0.3-3.4C21.5,30.9,20.9,28.1,20.1,28.1z"/><path class="st4" d="M115,66.5"/><path class="st5" d="M120.5,36.5"/><path class="st6" d="M71.8,31.1c-0.6-0.1-1.6,1.6-1.2,2.7c0.3,0.8,1,0.6,1.8,1.8c0.5,0.8,0.5,1.3,1.1,1.6c0.4,0.2,0.9,0.2,1.1-0.1	c0.2-0.4-0.5-1.1-1.2-2.3C72.2,32.5,72.4,31.2,71.8,31.1z"/><path class="st6" d="M77.3,30.4c-0.4-0.1-0.2-0.9-0.7-1.9c-0.6-1.1-1.4-1.2-1.3-1.7c0.1-0.9,3.6-1.4,3.9-0.8	c0.2,0.3-0.6,0.6-0.8,1.7c-0.1,0.8,0.2,1,0,1.7C78.2,30,77.6,30.5,77.3,30.4z"/><path class="st6" d="M83.4,29.3c-0.2,0.3,1,1.7,1.9,1.4c0.9-0.3,0.8-2.5,0.6-2.6c-0.1,0-0.2,0.7-0.9,1	C84.2,29.5,83.5,29.1,83.4,29.3z"/><path class="st6" d="M77.4,33.8c0.2-0.2,1.2,0.4,1.4,1.3c0.1,0.5,0,1.2-0.2,1.2C78.1,36.5,77,34.1,77.4,33.8z"/><path class="st6" d="M73.8,38.9c0.3-0.4,1.8-0.3,2,0.3c0.1,0.4-0.3,1.1-0.9,1.1C74.2,40.4,73.6,39.3,73.8,38.9z"/><path class="st6" d="M76.8,42.3c-0.7,0.2-1.4-0.1-1.4,0.1c-0.1,0.2,0.7,0.5,1.4,1.2c1.1,1,1.5,2.1,1.7,2s-0.4-1.2,0.1-2.2	c0.3-0.5,0.6-0.5,0.9-1c0.5-0.9,0.2-2.2-0.2-2.3C78.7,39.9,78.3,41.9,76.8,42.3z"/><path class="st6" d="M43.4,71.7c0.1,0.5,2.6,1.2,4.8,0.7c1.9-0.5,3.6-1.7,3.3-2.4C51.3,68.9,43.4,70.6,43.4,71.7z"/><path class="st6" d="M58.5,68.8c-0.2,0.7,0.6,1.9,1.5,2c1.2,0.3,2.1-1.3,1.9-1.9C61.4,68.1,58.9,67.9,58.5,68.8z"/><path class="st6" d="M66.7,67.1c-0.1,0.6,1.5,2,3.3,2.4c0.3,0.1,0.9,0.2,2,0c1.3-0.3,2.5-1.5,2.4-2c-0.1-0.5-0.9-0.2-4.2-0.6	C67.3,66.9,66.9,66.7,66.7,67.1z"/><path class="st6" d="M79.5,66.6c-1.5-0.3-2.5-4.5-1.7-4.8c0.3-0.2,1,0.7,2.8,0.8c0,0,0.3,0.1,0.5-0.1c2.5-0.1,4.1-2.1,4.9-1.6	c0.7,0.3,1,1.8,0.6,2.6c-0.6,1.3-2.3,0.3-4.8,1.5C80.4,66,80.1,66.8,79.5,66.6z"/><path class="st6" d="M72.1,77.1c0,0.3-1.4,0.5-2.8,2c-1.2,1.5-0.9,2.9-1.7,2.9c-1.2,0-3.9-5.1-2.9-6.1c0.5-0.4,1,0.4,3.1,0.8	C70.4,77.2,72,76.6,72.1,77.1z"/><path class="st7" d="M19.5,60c0.2-0.2,1,0.9,3,1.5c0.5,0.1,0.9,0.2,1.3,0.2c2.3,0.2,3.3-0.3,3.7,0.2c0.2,0.3,0.1,1-0.3,1.3	c-0.8,0.6-2.4-0.5-2.6-0.2s1.3,1.4,1.1,1.8c-0.1,0.3-1,0.1-1.7-0.1C21,63.7,19.2,60.3,19.5,60z"/><path class="st7" d="M25.6,56.7c0.2-0.6,3-0.6,3.3,0.2c0.1,0.4-0.3,0.9-0.7,1.1C27.2,58.6,25.5,57.2,25.6,56.7z"/><path class="st7" d="M22.3,55.2c-0.5-0.1-1.5,1.2-1.2,1.7c0.2,0.3,1.1,0.5,1.6-0.1C23.1,56.2,22.7,55.3,22.3,55.2z"/><path class="st7" d="M16.4,56c-0.2-0.2-1.1,0.3-1.3,1c-0.3,1,0.9,2.1,1.1,2c0.2-0.1-0.1-0.6,0-1.7C16.3,56.5,16.6,56.1,16.4,56z"/><path class="st7" d="M17.4,52.2c-0.3,0.9-2.7,1-3,0.4C14.3,52.3,15,51.9,15,51s-0.6-1.3-0.4-1.4C14.8,49.3,17.8,51.2,17.4,52.2z"/><path class="st6" d="M18.8,31.9c0.4,0.3,0.9,0.9,0.7,1.3c-0.2,0.5-1,0.6-1.6,0.3c-0.7-0.3-1-1.4-0.6-1.8	C17.6,31.5,18.3,31.6,18.8,31.9z"/><path class="st6" d="M16.6,35.2c-0.3,0.4,0.3,1.6,1,1.6c0.4,0,0.9-0.6,0.8-1C18.2,35.1,16.8,34.8,16.6,35.2z"/><path class="st6" d="M48.6,79.4c-0.4-0.2-1.7,1-1.2,1.9s2.3,1.2,2.3,0.8c0-0.2-0.5-0.3-0.9-0.9C48.4,80.4,48.8,79.6,48.6,79.4z"/><path class="st6" d="M50.9,89.2c-0.4,0-1.1,1.2-0.7,1.9c0.2,0.4,0.7,0.7,1,0.6c0.4-0.2,0.3-0.9,0.3-1.1	C51.5,89.9,51.3,89.2,50.9,89.2z"/><path class="st6" d="M46.4,88.9c-0.1,0,0.2-0.7-0.1-1.7c-0.2-0.7-0.5-0.9-0.6-1C45.5,86,45.2,86,45.1,86s-0.5-0.1-0.9,0.1	c-0.2,0.1-0.3,0.2-0.4,0.1c-0.2-0.1-0.3-1,0.1-1.3c0.5-0.4,1.4,0.5,2.1,0c0.4-0.2,0.7-0.8,0.7-0.9s0-0.1,0-0.1l0,0l0.9,1.3l0,0	c0,0-0.2,0.9-0.3,1.6C47.1,88,46.5,89,46.4,88.9z"/><path class="st7" d="M62.9,33.4c1.2-0.9,1-3.1,0.6-3.2c-0.3-0.1-0.7,1.3-2.1,1.9c-1.3,0.6-2.4,0.1-2.4,0.3	C58.9,32.7,61.4,34.4,62.9,33.4z"/><path class="st7" d="M52,37.6c-0.5-1-2.1-1.4-2.7-0.8c-0.7,0.6-0.1,2.1,0.3,2.8c0.2,0.4,0.7,1.1,1.2,1C51.6,40.6,52.6,38.9,52,37.6z	"/><path class="st7" d="M57.1,40.2c0,0,0.1,0.8,0.1,1.4c0.1,0.5,1.6,1.2-0.3,1.3l0,0c-0.3,0.7-0.4,1.7-0.2,1.8c0.3,0.2,1.8-0.6,2-1.7	C58.8,41.6,57,40.2,57.1,40.2z"/><path class="st7" d="M57.6,47.2c0.3,0.2,1.7-0.5,1.8-1.7c0.1-0.7-0.2-1.5-0.6-1.5C58.1,44,57.1,46.8,57.6,47.2z"/><path class="st7" d="M53.8,53.2c0.6-0.7,1.9-0.9,2.3-0.4c0.3,0.4-0.4,1.2-0.9,2.9c-0.8,2.4-0.3,4.1-0.6,4.2c-0.4,0-0.9-3.1-0.9-3.3	C53.2,53.9,53.6,53.4,53.8,53.2z"/><path class="st7" d="M36.6,47.7C35.9,48,36,50.5,37,50.9c0.7,0.2,1.7-0.3,1.9-1.1C39.1,48.6,37.3,47.4,36.6,47.7z"/><path class="st7" d="M38.2,55c-0.3,0.3,0.4,1.7,1.6,2.1c0.9,0.3,2-0.1,2-0.4c0-0.3-0.5-0.1-1.7-0.6C39,55.6,38.4,54.9,38.2,55z"/><path class="st8" d="M42.2,52.3c0,0.4,1.3,0.1,1.7,1c0.4,0.8-0.4,2-0.1,2.1c0.3,0.1,1.1-0.6,1.3-1.6c0.1-0.6,0.1-1.5-0.7-2	C43.5,51.3,42.2,51.8,42.2,52.3z"/><path class="st9" d="M20.9,20.3c0.1,2,3,2,4.3,5.1c1.5,3.7-1.6,6.3,0.1,9.1c1.3,2.1,4.2,2.5,5.7,2.7c2.8,0.4,4.7-0.4,8.9-1.8	c7.3-2.4,6.6-1.7,9.5-2.9c8.4-3.3,8.1-6.5,14.8-9.3c8.3-3.5,14.9-1,15.4-3.1c0.2-0.8-0.8-1.8-9.6-7.4C60.8,7,58.8,6,57.6,6.9	c-1.8,1.2,0.6,4.6-1.3,8.7c-2.4,5.5-10.5,8.8-13.8,6.5c-1.2-0.8-1.6-2.2-1.9-3.6c-1.4-5.4,1.8-9.1,0.5-10.2	c-0.9-0.8-3.2,0.7-9.6,4.3C23.3,17.3,20.8,18.4,20.9,20.3z"/><path class="st1" d="M54.3,13.7c-0.8,1.6-2.4,0.9-4.8,2.7c-2.8,1.9-2.8,5.1-4.2,5c-0.6-0.1-1.2-0.7-1.4-1.3	c-0.5-1.2,0.9-1.9,1.5-3.9c1-3-0.9-4.7,0.5-6.6c0.5-0.6,0.7-0.4,1.8-1.4C50,6,50.1,4.3,51,4.4c0.9,0.1,1.5,1.7,2.3,4	C54.3,11.2,54.8,12.6,54.3,13.7z"/><path class="st7" d="M46.2,17.7c0.5,0.5,2.4-0.5,2.3-1.5c-0.1-0.6-0.9-1.3-1.6-1.2C45.9,15.4,45.7,17.3,46.2,17.7z"/><path class="st7" d="M51.2,13.8c0.3,0.1,1.2-1,1-2.1c-0.1-0.8-0.9-1.6-1.1-1.5c-0.2,0.1,0.1,0.4,0.2,1.6	C51.3,12.9,51,13.6,51.2,13.8z"/><path class="st8" d="M47.6,11.5c0.3-0.1-0.4-1.1,0.1-1.8c0.5-0.6,1.7-0.4,1.7-0.7c0-0.3-0.9-0.7-1.7-0.5c-0.5,0.1-1.2,0.5-1.3,1.3	C46.3,10.8,47.2,11.6,47.6,11.5z"/><path class="st9" d="M-5.1,1.7"/></svg>