<?xml version="1.0" encoding="utf-8"?><!-- Generator: Adobe Illustrator 26.0.3, SVG Export Plug-In . SVG Version: 6.00 Build 0)  --><svg version="1.1" id="Ebene_1" xmlns="http://www.w3.org/2000/svg" xmlns:xlink="http://www.w3.org/1999/xlink" x="0px" y="0px"	 viewBox="0 0 100 100" style="enable-background:new 0 0 100 100;" xml:space="preserve"><style type="text/css">	.st0{fill:#8A3C8F;stroke:#000000;stroke-width:2;stroke-miterlimit:10;}	.st1{fill:#DB6500;stroke:#000000;stroke-width:0.5;stroke-miterlimit:10;}	.st2{fill:#493127;stroke:#000000;stroke-width:0.25;stroke-miterlimit:10;}	.st3{fill:#DB8F00;stroke:#000000;stroke-width:0.5;stroke-miterlimit:10;}	.st4{fill:#493127;stroke:#000000;stroke-width:0.25;stroke-miterlimit:10;}	.st5{fill:#69B42D;stroke:#000000;stroke-miterlimit:10;}</style><g id="Ebene_2_00000093860788734264317370000010671531211922489223_"></g><g id="Ebene_1_00000017510764199299988230000010460311392665681541_">	<polygon class="st0" points="8,25.9 50,1.6 92,25.9 92,74.4 50,98.6 8,74.4 	"/></g><path class="st1" d="M51.9,91.7c-1.4,1-3.4,0.6-6.8-0.1c-6.7-1.4-13.3-5-12.9-6.4c0.3-1.1,4.3,0.6,6.8-1.5	c3.8-3.1-0.1-10.7,2.4-11.8c1.8-0.8,5.7,2.5,7.8,5.1C53.1,81.8,55,89.4,51.9,91.7z"/><path class="st1" d="M33.1,79.4c-2.2,1.2-5.6,1.5-8.4-0.2c-0.5-0.3-3.3-2-3.2-4.1c0.1-1.9,2.4-2.5,9.2-6c5.8-3,7.3-4.3,8.2-3.6	c1.6,1.2-1.1,6.7-2.1,8.9C35.5,77.1,34.8,78.5,33.1,79.4z"/><path class="st2" d="M40.1,87.4c-0.1,0.3,1.3,1.2,2.2,0.8c0.9-0.4,1.1-1.7,0.6-2.5c-0.4-0.7-1.2-1.2-1.5-1s0.8,1.5,0.3,2.2	C41.3,87.5,40.1,87.2,40.1,87.4z"/><path class="st2" d="M49.4,89.3c-1,0.2-2.5-0.4-2.8-1.2c-0.5-1.4,2.3-2.5,1.9-4.4c-0.3-1.4-1.9-2-1.7-2.3c0.2-0.4,2.6-0.1,3.9,1.5	c0.9,1.1,0.8,2.4,0.7,3.1C51.4,86.5,51.1,89,49.4,89.3z"/><path class="st2" d="M42.8,82c-0.7-0.3-0.9-2.5,0.1-3.4c1.2-1,3.4,0.1,3.7-0.5c0.3-0.7-2.2-2.3-2-2.6c0.1-0.2,1.5,0.3,2.7,1.2	c0.3,0.2,2.5,1.8,2.1,2.6c-0.2,0.6-1.5,0-3.3,0.7C43.9,80.7,43.4,82.3,42.8,82z"/><path class="st2" d="M31.4,77.5c-1.2,0.7-2.2,1.2-3.5,1.2c-0.5,0-2.1,0-2.4-0.7c-0.5-1.2,2.1-4,5.1-4c1.3,0,3,0.6,3.1,1.4	C33.9,76.1,32.9,76.7,31.4,77.5z"/><path class="st2" d="M35.5,70c-0.8,0.7-2,1.6-2.3,1.3c-0.3-0.2,0.1-1.2,0.3-1.5c1-2.3,3.6-3.9,4-3.5C37.9,66.8,36.8,68.8,35.5,70z"	/><path class="st1" d="M51.3,63c1.3,2.1,2.6,6.3,2.9,11c0.1,0.8,0.4,5.5-0.5,6.7c-0.8,1.1-1.8-1.6-5.6-8.1c-3.2-5.6-4.2-6.7-4.3-8.3	c-0.1-2.7,3-2.8,4.2-2.9C49.5,61.4,50.3,61.4,51.3,63z"/><path class="st2" d="M51.1,66.4c0.7,1.2,1.2,2,1.7,3.8c0.2,0.7,0.7,2.7,0.6,3.5c-0.2,1.4-2.3-0.2-3.3-4.1c-0.5-1.7-0.8-4.3-0.6-4.9	C49.7,64.1,50.3,65,51.1,66.4z"/><path class="st2" d="M46.8,65.9c0.6,0.5,1.3,1.5,1.3,2.2c0,0.5-0.5,0.6-0.7,0.6c-1.2,0.1-2.8-2.2-2.8-3C44.7,64.8,45.8,65,46.8,65.9	z"/><path class="st1" d="M11.1,29c1.2-1.5,2.9-0.6,5.3-1.8c2.8-1.4,3.3-4.1,4.2-3.8c0.9,0.3,1.5,3,0.4,5c-0.9,1.8-2.3,1.5-5.3,4	c-2.5,2-3,3.5-4,3.2c-1.1-0.3-1.5-2.6-1.5-3.8C10.4,30.9,10.4,29.9,11.1,29z"/><path class="st2" d="M12.6,33c0.1-2.2-0.3-3.1,0.2-3.5c0.4-0.3,1.2-0.1,1.6,0.3c1,1.3-1.4,5.1-1.8,4.9C12.4,34.8,12.5,34.4,12.6,33z	"/><path class="st3" d="M83.2,25.2c2.9-0.5,6.2,1.5,6.2,3.3c0,0.8-0.6,1.4-1.1,1.9c-2.8,2.7-8.3,3.1-9.5,1.1c-0.7-1.2,0.3-3,0.5-3.5	C79.4,27.9,80.7,25.7,83.2,25.2z"/><path class="st4" d="M87.8,28.7c-0.6-0.1-1.8-0.4-3-1c-0.2-0.1-1.4-0.7-1.6-1s0.6-0.1,2.6,0.1c1.7,0.2,2.1,0.2,2.5,0.4	c0.7,0.3,0.4,0.9,0.2,1.1C88.3,28.6,88.3,28.7,87.8,28.7z"/><path class="st4" d="M80.4,30.4c0.5-1.2,1.2-2.8,1.7-2.7c0.6,0.1,1.1,2.1,0.4,3.1c-0.1,0.2-0.5,0.5-1.3,1c-1,0.7-1.2,0.7-1.2,0.7	C79.6,32.3,80.2,30.9,80.4,30.4z"/><path class="st1" d="M45.8,66.3"/><path class="st5" d="M9.2,37.8c2.7-2,6.5,2,10.6-0.4c2.7-1.6,3.5-4.9,4-6.8c1.5-5.7-1.4-7.5,0-11.3c0.8-2.2,4.8-4.5,12.8-9.1	C44,6,44.8,6.3,46.8,4c0.8-1,1.7-2.4,3.2-2.4c1.9-0.1,3.1,2.1,4.6,3.7c2.6,3,4.1,2.6,11.3,6.6c7.4,4.1,11.2,6.1,12,8.7	c1.9,5.8-5.1,12-3,14.1c1.6,1.6,5.9-1.8,12,0.6c1,0.4,1.8,0.7,2.6,1.3c3,2.5,2.2,6.4,1.9,20.1c-0.2,7.7-0.2,11.6,0.2,12.8	c0.4,1,1.4,3.2,0.4,5c-0.7,1.3-2.2,1.8-2.8,2c-3.8,1.4-7.1,4-10.8,5.8c-9.4,4.5-15,7.2-19.7,11.5c-0.6,0.5-1.6,1.5-2.3,1.2	c-1.7-0.7-0.3-8,1.2-12.9c0.7-2.3,1.1-2.9,1.4-4c3.1-9.8-6-24.4-10.9-23.6c-3,0.5-3.1,6.8-7.8,7.8c-1.9,0.4-2.4-0.6-4.8-0.7	c-5.5-0.2-11.6,4.5-14.4,10c-2.3,4.4-1.9,8.1-3.8,8.4c-1.4,0.2-1.9-1.9-5.7-3.5c-2-0.8-3.1-0.8-3.8-1.9c-0.9-1.4-0.2-3.2,0-3.8	c1.4-4.3,0.6-9,1-13.6C10.1,44.9,6.3,39.9,9.2,37.8z"/></svg>