<?xml version="1.0" encoding="utf-8"?><!-- Generator: Adobe Illustrator 26.0.3, SVG Export Plug-In . SVG Version: 6.00 Build 0)  --><svg version="1.1" id="Ebene_2_00000109015629924098340060000008336861892324566444_"	 xmlns="http://www.w3.org/2000/svg" xmlns:xlink="http://www.w3.org/1999/xlink" x="0px" y="0px" viewBox="0 0 100 100"	 style="enable-background:new 0 0 100 100;" xml:space="preserve"><style type="text/css">	.st0{fill:#8A3C8F;stroke:#000000;stroke-width:2;stroke-miterlimit:10;}	.st1{fill:#69B42D;stroke:#000000;stroke-miterlimit:10;}	.st2{fill:#DB6500;stroke:#000000;stroke-width:0.5;stroke-miterlimit:10;}	.st3{fill:#DB8F00;stroke:#000000;stroke-width:0.5;stroke-miterlimit:10;}	.st4{fill:#493127;stroke:#000000;stroke-width:0.25;stroke-miterlimit:10;}	.st5{fill:#493127;stroke:#000000;stroke-width:0.25;stroke-miterlimit:10;}</style><path class="st0" d="M8,74.2c1.2,0.7,2.5,1.4,3.7,2.2C24.5,83.8,37.2,91.1,50,98.5c14-8.1,28-16.2,42-24.2V25.8L50,1.5L8,25.8V74.2z	"/><path class="st1" d="M11,76c6.8-4.5,12.9-8.8,18.5-12.9c4.8-3.5,8.3-6.2,8.7-10.4c0.3-3.2-1.2-5.8-2.2-7.4c-2.5-4.1-5.6-5.4-13-10.1	c-11.2-7.1-11.5-8.8-11.5-9.5c0-2.2,2.4-3.7,11.1-8.4C40.1,7.8,42.6,7.2,43.3,8.1c1.4,1.6-4.5,5.8-4.7,13.8c-0.2,6.1,3,12.8,6.2,13	c3,0.2,5.8-5.4,6.4-6.5c1.4-2.8,0.8-3.3,2.2-7.8c2-6.1,3.6-7.1,3.1-9.9c-0.6-3.5-3.6-4.9-3.2-5.6c1-1.4,14.6,6.8,15.9,7.6	c11.5,7,12.1,8.9,11.9,10c-0.3,2.1-3.5,1.7-8,5.2c-3.7,2.8-3.2,4.3-9.6,12.6c-3.5,4.5-3.6,4-5.9,7.3c-2.9,4.1-3.4,5.7-7,12	c-5.8,10.2-6.8,9.9-8.1,14.4c-0.9,2.9-2.2,7.5-0.7,12.7c1.4,4.9,4.5,7.1,3.8,7.8c-1,1.2-8.2-3.3-19.9-10.2	C19.4,80.8,14.3,77.9,11,76z"/><path class="st2" d="M48.7,92.3c0.8-0.2,2-0.6,3.2-1.3c0.8-0.5,4-2.5,4.7-6.2c0.2-0.8,0.4-2-0.1-3.3c-0.7-1.9-2.1-1.9-3.3-4	c-0.9-1.7-0.3-2.3-1.1-4.2c-0.2-0.4-1.6-3.9-3-3.8c-1.1,0.1-1.4,2-2.8,5.3c-2.5,5.9-4.3,6.3-4.4,8.8C42,85.2,42.6,88.4,48.7,92.3z"	/><path class="st2" d="M66.4,82.8c1.3-0.2,4.3-0.7,5.4-2.8c0.7-1.3-0.1-1.9,0.7-3c1.2-1.7,3.5-0.6,4.8-2.3c0.9-1.2,0.9-3.3,0.1-3.8	c-0.9-0.6-2.1,1.1-3.7,0.7c-1.6-0.4-1.3-2.5-3-3.9c-3-2.6-7.9,0.9-10.4-1.6c-1.5-1.5-0.4-3.4-1.8-4.4c-2-1.4-6.6,0.4-7,2.7	c-0.2,1.1,0.6,1.7,3.8,5.9c1.9,2.6,2.9,3.8,3.5,4.8c2.5,4.3,2.1,6.7,4.2,7.6C63.9,83.2,64.7,83.1,66.4,82.8z"/><path class="st3" d="M87.8,72c-0.4,0.8-2,0.6-2.3,0.6c-2.5-0.3-2.8-2.8-5.3-3.8c-2.3-0.9-2.8,0.8-6.1,0.1C72.3,68.4,71,67.4,69,66	c-1.1-0.8-3-2.1-2.7-2.7c0.3-0.7,3,1,5.1-0.2c1.9-1.1,1.2-3.2,3.9-6.7c0.7-0.9,2.1-2.7,3.1-2.4c0.8,0.3,0.7,1.6,1.4,3.8	c0.4,1.4,1,2.5,2.2,4.7C85.1,68.4,88.5,70.7,87.8,72z"/><path class="st3" d="M74.2,51.3c-0.4,1.6-1.4,1.9-3.3,4.2c-2.5,3-2.4,4.3-3.7,4.5c-1.5,0.3-1.9-1.4-4.5-2.2	c-2.9-0.8-4.5,0.6-5.4-0.4c-1.1-1.2,0.1-4.7,2.3-6.5c2-1.7,4.7-1.8,5.6-1.8c2-0.1,2.2,0.5,3.9,0.2c2.5-0.5,3.4-2,4.4-1.5	C74.4,48.2,74.5,50,74.2,51.3z"/><path class="st2" d="M78.2,48.6c-1,2.2,0,4.4,0.7,5.7c1.2,2.6,3.9,5.2,5.4,4.7c0.8-0.3,0.5-1.2,1.7-4c1.2-2.8,1.9-3,2-4.6	c0-0.3,0.2-2.9-1.7-4.3c-1.4-1-3.1-0.8-3.7-0.7C82.3,45.5,79.3,46,78.2,48.6z"/><path class="st3" d="M85.8,37.3c-0.8,1.7,0.5,2.8,0.3,4.3c-0.5,2.8-5.8,5.4-9.6,4.1c-1.9-0.7-1.8-1.8-3.5-2.1c-3.1-0.6-5,2.9-7.2,2	c-1.2-0.5-2-2.1-1.8-3.4c0.1-0.7,0.4-1.3,6.2-4.7c3.1-1.8,4.2-2.3,5.7-2.1c1.3,0.2,1.3,0.8,2.4,0.8c1.4,0,2-1,5.1-3.3	c1.9-1.4,2.3-1.5,2.7-1.4c1,0.3,1.6,2.4,1,3.8C86.8,36.4,86.3,36.4,85.8,37.3z"/><path class="st3" d="M80.8,32.4c-2.1,1.1-4,2-5.8,1.2c-0.1-0.1-1.8-0.8-1.8-2.1c-0.1-1.5,2.3-2.6,5.3-4c2.9-1.3,4.9-2.2,5.8-1.4	c0.8,0.8,0.5,2.6-0.2,3.8C83.4,31.1,82.4,31.6,80.8,32.4z"/><path class="st2" d="M47.6,31.9c-0.8-0.1-0.4-2.4-2.2-3.4c-1.2-0.7-2,0.1-3-0.7c-1.3-1-1.3-3.8-0.3-4.5c0.9-0.6,1.8,0.8,4.2,0.7	c1.8-0.1,3-1.1,3.6-0.5c0.3,0.3,0.2,1,0.2,1.4C49.6,27.6,48.7,32,47.6,31.9z"/><path class="st2" d="M52.1,11.6c0.6-4.2,1.3-5.4,0.4-6.5c-0.9-1.1-2.6-1-3.4-1c-1.9,0.1-4.3,1.1-5,3c-0.5,1.4,0.5,2,1.3,5.3	c0.9,3.8,0.1,5.4,1.3,6.2c1.1,0.7,3,0.1,4-0.9C51.8,16.6,51.5,15.6,52.1,11.6z"/><path class="st2" d="M25.8,59c-0.7,1.2-1.9,3-4,4.9c-2.4,2.2-2.7,1.6-3.9,3.1c-1.6,2-1.5,3.6-3.3,4.5c-0.3,0.2-1.3,0.6-2.2,0.3	c-1.5-0.6-1.6-3-1.6-3.5c-0.1-1.8,0.6-2,1-4.2c0.5-3-0.5-4.1,0.4-5.4c0.9-1.2,2.6-1.5,3.4-1.6c3.5-0.4,5.5,2,6.9,1	c0.9-0.7,0.2-1.9,1.4-3.2c1-1.1,2.9-1.7,3.5-1.1C28.3,54.8,26.5,58,25.8,59z"/><path class="st2" d="M30.1,57.1c1.3-0.6,1.1-1.7,2.6-3.3c1.4-1.5,2.2-1.2,2.8-2.4c0.8-1.4,0.2-3.1-0.1-4c-1-3.1-3.7-4.6-5.4-5.6	c-1.5-0.9-3-1.7-3.9-1.1c-0.9,0.6-0.9,2.4-0.4,3.6c0.8,2,2.6,2.2,2.7,3.6c0.1,1.2-1.3,1.6-1.2,2.8c0.1,1.3,1.8,1.5,2,2.7	c0.2,1.6-2.1,2.7-1.7,3.5C27.7,57.5,29.1,57.6,30.1,57.1z"/><path class="st3" d="M22.7,53c2.1-2.9,2.2-2.8,2.4-3.3c0.8-2-0.9-4.5-1.3-5c-1.6-2.3-3.4-2.3-3.8-4.1c-0.3-1.5,0.8-2.1,0.4-3.3	c-0.6-1.6-2.9-1-5.2-2.8c-2.2-1.8-2.6-4.5-3-4.4c-0.5,0.2,0.5,2.8-0.9,5.3c-0.6,1-0.9,0.9-1.2,1.7c-0.5,1.6,0.8,2.7,1.7,5.3	c0.8,2.3,0.8,4.6,0.7,7.3c-0.1,2.9-0.5,3.8,0.2,4.4c0.9,0.8,1.8-0.2,5.4,0.2c1.6,0.2,2.8,0.5,3.8-0.3C22.2,53.7,22.3,53.6,22.7,53z"	/><path class="st4" d="M51,87.9c-0.2-1.4-0.7-2.3-1-2.9c-0.3-0.5-0.7-1.1-1.2-1c-0.4,0.1-0.7,0.6-0.7,1.1c0.1,0.9,1.7,1.3,1.6,1.8	c-0.1,0.3-0.8,0.2-1.6,0.7c-0.8,0.6-1.1,1.7-0.9,1.9c0.2,0.2,1-0.7,2.7-1.3C50.3,88.1,50.7,88,51,87.9z"/><path class="st4" d="M47.7,81.3c0.3,0.2,1,0,1.1-0.5c0.1-0.3-0.1-0.8-0.4-0.9c-0.4-0.1-0.7,0.3-0.8,0.7	C47.5,80.7,47.5,81.1,47.7,81.3z"/><path class="st4" d="M45.6,82.9c-0.1-0.3-0.8-0.4-1.3-0.2c-0.9,0.3-1.1,1.5-1.2,1.8c0,0.2-0.2,0.9,0.1,1c0.1,0.1,0.3,0,1.5-1.3	C45.5,83.2,45.6,83.1,45.6,82.9z"/><path class="st4" d="M52,79.7c-0.2,0.1-0.4,0.5-0.4,0.8c0.2,0.8,1.8,0.8,1.8,1.3c0,0.4-0.9,0.4-1.5,1.3c-0.3,0.4-0.5,1.1-0.2,1.3	c0.3,0.4,1.6,0,2.3-0.9c0.1-0.1,0.8-1,0.4-2.2C54.1,80.1,52.6,79.3,52,79.7z"/><path class="st4" d="M48.4,78.3c0.3-0.1-0.4-1.6,0.3-2.7c0.5-0.8,1.3-0.8,1.4-1.6c0.1-0.4-0.1-0.9-0.4-1c-0.6-0.3-1.5,0.6-1.8,1.1	c-0.2,0.2-1,1.3-0.6,2.7C47.4,77.6,48.1,78.4,48.4,78.3z"/><path class="st4" d="M66.1,80.2c0.2,0,0.1-0.7,0.7-1.2c0.8-0.6,1.6-0.2,1.9-0.7c0.2-0.4,0.1-1-0.3-1.3c-0.6-0.5-1.6,0-2.2,0.6	C65.5,78.6,65.8,80.2,66.1,80.2z"/><path class="st4" d="M65.1,75c0,0,0.4,0.1,0.7-0.1c0.3-0.2,0.2-0.8,0.2-1.6c-0.1-0.9-0.2-1.8-0.7-1.9c-0.3-0.1-0.7,0.4-0.9,0.7	C63.8,73.2,64.3,74.8,65.1,75z"/><path class="st4" d="M62.5,77.3c0.4-0.1,0.5-1,0.4-1.7c0-0.2-0.1-0.9-0.4-1c-0.3-0.1-0.9,0.5-1,1.1C61.4,76.4,62.1,77.3,62.5,77.3z"	/><path class="st4" d="M68.7,75.4c0.6,0.1,1.2-0.2,1.6-0.7c0.4-0.5,0.5-1.4,0.1-1.9c-0.5-0.6-1.5-0.7-1.6-0.4	c-0.2,0.3,0.8,0.9,0.6,1.6c-0.2,0.6-1.4,0.6-1.4,1C67.8,75.2,68.3,75.4,68.7,75.4z"/><path class="st4" d="M59.3,72.6c0.2,0,0.1-0.8,0.3-2c0.2-0.8,0.3-1.4,0.7-1.6c0.5-0.2,1.1,0.8,1.3,0.7c0.2-0.1,0-1.6-1-2	c-0.8-0.3-1.6,0.2-2,0.7c-0.6,0.8-0.2,1.8,0.1,2.8C58.7,71.9,59.1,72.6,59.3,72.6z"/><path class="st4" d="M56.3,67.4c0.5-0.1,0.8-1.2,0.5-2.1c-0.1-0.4-0.5-1-0.9-1c-0.5,0.1-1,1.2-0.7,2.1	C55.4,66.9,55.9,67.5,56.3,67.4z"/><path class="st5" d="M84.2,68.2c-0.1,0.4-1.2,0.5-2,0c-0.7-0.4-1.3-1.4-1.1-2.2c0.1-0.4,0.5-0.9,0.9-0.9c0.4,0,0.4,0.6,1.1,1.6	C83.8,67.7,84.3,67.9,84.2,68.2z"/><path class="st5" d="M76.7,63c0.8,0.4,2.2-0.5,2.3-1.5c0.1-0.3,0-0.7-1.8-2.7c-1.4-1.7-1.6-1.8-1.7-1.7c-0.3,0.1,0,1.5,0.6,2.6	c0.6,1,1.3,1.6,1.2,1.8c-0.1,0.2-0.9-0.3-1.2-0.1C75.8,61.8,76.1,62.8,76.7,63z"/><path class="st5" d="M74.1,65.6c0.5-0.4-0.4-2.6-1.1-2.6c-0.4,0-1,0.8-0.9,1.5C72.3,65.6,73.8,65.9,74.1,65.6z"/><path class="st5" d="M70.9,65.5c-0.1-0.3-0.3-0.6-0.6-0.6c-0.4-0.1-0.7,0.2-0.8,0.5c-0.1,0.5,0.6,1.1,1,1	C70.8,66.2,71,65.8,70.9,65.5z"/><path class="st4" d="M83.5,55.4c0.4-0.1,0.7-1.3,0.2-2.2c-0.3-0.6-0.9-1-1.6-1c-0.5,0-1.2,0.2-1.3,0.6c-0.1,0.4,0.5,0.6,1.7,1.7	C83.2,55.2,83.3,55.5,83.5,55.4z"/><path class="st4" d="M85,51.6c0.4-0.2,0.4-1,0.1-1.3c-0.2-0.2-0.6-0.3-0.9-0.2c-0.4,0.2-0.5,0.7-0.3,1C84.1,51.5,84.7,51.8,85,51.6z	"/><path class="st5" d="M82.7,39.9c0.4-0.1,0.7-1.1,0.7-2c-0.1-1.2-0.7-1.5-0.5-2.2c0.2-0.9,1.3-1.2,1.3-1.4c-0.1-0.2-1.3-0.2-2,0.4	c-0.5,0.5-0.5,1.1-0.6,2.4c-0.1,1.2,0.2,1.7,0.3,1.9C81.8,39.2,82.3,40,82.7,39.9z"/><path class="st5" d="M80.7,41.8c0.3-0.6,0.2-1.4-0.2-1.6c-0.3-0.2-0.7,0.1-1.6,0.7c-0.9,0.6-1.3,0.9-1.3,1.2	c0.1,0.5,1.1,0.8,1.9,0.6C79.8,42.7,80.4,42.5,80.7,41.8z"/><path class="st5" d="M76.6,38.6c0.4,0.3,1.8-0.7,1.7-1.3c-0.1-0.3-0.7-0.6-1.1-0.4C76.4,37.1,76.3,38.4,76.6,38.6z"/><path class="st5" d="M74.3,40.3c0.4-0.4-0.1-1.6-0.7-2.4c-0.2-0.2-0.8-0.8-1.2-0.7c-0.4,0.2-0.5,1-0.4,1.5c0.1,0.7,0.6,1.3,1.3,1.6	C73.3,40.3,74,40.6,74.3,40.3z"/><path class="st5" d="M71.4,40.9c0.2-0.2,0.3-0.8-0.1-1.1c-0.4-0.5-1.3-0.1-1.3,0.2C69.9,40.3,71,41.1,71.4,40.9z"/><path class="st5" d="M68.4,42.3c0.3-0.3,0.6-1,0.4-1.3c-0.4-0.6-2.3-0.5-2.6,0.2c-0.2,0.5,0.3,1.4,1,1.6	C67.8,42.8,68.3,42.4,68.4,42.3z"/><path class="st5" d="M69,55.8c0-0.7-0.8-1-1-1.1c-0.2-0.1-0.8-0.3-1.4-0.1c-0.8,0.3-1.2,1.2-1,2c0.2,0.7,1,1.1,1.3,1	c0.3-0.2,0-1.1,0.4-1.3c0.3-0.2,0.8,0.5,1.3,0.3C68.8,56.5,69,56.1,69,55.8z"/><path class="st5" d="M70.1,53.2c0.9,0.1,1.8-1,1.6-1.7c-0.2-0.4-0.7-0.6-1.2-0.6C69.6,51,69,52,69.2,52.6	C69.4,52.9,69.7,53.2,70.1,53.2z"/><path class="st5" d="M64.1,54c0.2-0.3,0.5-0.8,0.4-1c-0.2-0.4-1.2-0.4-1.6,0.2c-0.3,0.4-0.3,1,0,1.3C63.1,54.6,63.7,54.3,64.1,54z"	/><path class="st5" d="M60.2,55.6c0.3,0,1-1,0.7-1.4c-0.2-0.2-0.7-0.2-1,0C59.5,54.6,59.9,55.6,60.2,55.6z"/><path class="st5" d="M81.8,28.6c0.3,0,0.8-1,1.2-1.4c0,0,0,0,0,0c0.2-0.2,0-0.7-0.2-0.8c-0.3-0.2-0.9,0.2-1.2,0.7	C81.3,27.7,81.6,28.6,81.8,28.6z"/><path class="st5" d="M77.5,30.3c0.7-0.2,1.1-1.1,0.9-1.4c-0.2-0.4-1.2-0.2-1.6,0c-0.2,0.1-1,0.4-1,0.7C75.8,30,76.7,30.6,77.5,30.3z	"/><path class="st4" d="M48.7,15.9c0.7-0.3,1.1-1.2,0.8-1.6c-0.2-0.3-0.9-0.2-1.3-0.1c-0.5,0.2-1.2,0.7-1,1.2	C47.2,15.9,48,16.2,48.7,15.9z"/><path class="st4" d="M49.5,11.2c0.4-0.1,0.6-1.2,0.2-1.5c-0.3-0.2-0.9,0-1,0.4C48.4,10.6,49.1,11.3,49.5,11.2z"/><path class="st4" d="M47.4,9.8c0-1,1.2-1.6,1-2c-0.1-0.2-0.6-0.3-1-0.2c-0.5,0.2-0.4,0.8-1,1.5c-0.4,0.5-0.7,0.5-0.7,0.7	c0,0.6,1.6,1.2,1.9,0.8C47.7,10.6,47.4,10.3,47.4,9.8z"/><path class="st4" d="M50.7,6.1C51,6,52,5.8,52,5.5c0-0.4-1.2-1.3-2.1-0.8c-0.5,0.3-0.8,0.9-0.6,1.3C49.5,6.3,50.3,6.2,50.7,6.1z"/><path class="st4" d="M30.5,53.8c0.2,0.1,0.3-0.7,1-1.1c0.6-0.4,0.9-0.1,1.3-0.5c0.4-0.4,0.6-1.2,0.3-1.6c-0.4-0.4-1.3,0-1.3,0	c-0.9,0.4-1.2,1.5-1.3,1.8C30.3,53.1,30.3,53.8,30.5,53.8z"/><path class="st4" d="M33.7,49c0.6-0.3,0.9-1.3,0.4-1.7c-0.3-0.3-0.8-0.3-1.1-0.1c-0.6,0.4-0.6,1.5-0.1,1.8	C33.3,49.2,33.7,49,33.7,49z"/><path class="st4" d="M30.7,49.1c0.3-0.5,0.4-1.3,0.1-1.5c-0.3-0.2-0.9,0.2-1.3,0.5c-0.5,0.6-0.8,1.5-0.4,1.8	C29.4,50.2,30.3,49.8,30.7,49.1z"/><path class="st4" d="M29.7,45.7c0.5-0.2,0.6-1.2,0.2-1.7c-0.4-0.4-1.2-0.5-1.6-0.1c-0.3,0.4,0,1.1,0.3,1.4	C28.8,45.6,29.3,45.9,29.7,45.7z"/><path class="st5" d="M21.3,45.5c-0.3,0.3-1.1-0.6-2-0.3c-0.5,0.2-0.6,0.6-0.8,0.5c-0.3-0.1-0.6-1.4,0.1-2.1c0.5-0.5,1.4-0.5,2-0.2	C21.4,44,21.6,45.2,21.3,45.5z"/><path class="st5" d="M16.5,40.1c0.3-0.4-0.3-0.9-1-2.7c-0.6-1.5-0.7-2.3-1-2.3c-0.4,0-0.9,0.7-0.9,1.4c0,0.7,0.6,0.8,0.9,1.7	c0.2,0.8-0.2,1.2,0.2,1.6C15,40.4,16.2,40.5,16.5,40.1z"/><path class="st5" d="M19.6,51.3c0.4-0.2,0.2-1.4-0.3-2.2c-0.1-0.2-0.6-0.9-1-0.8c-0.4,0.1-0.7,1.1-0.4,1.8	C18.2,51,19.2,51.5,19.6,51.3z"/><path class="st5" d="M16.8,49.6c0.4-0.9-0.3-1.8-1-2.8c-0.7-1-1.6-1.9-1.8-1.8c-0.2,0.1,1,1.3,1,3.1c0.1,1.4-0.6,2.2-0.2,2.5	C15.3,50.9,16.5,50.4,16.8,49.6z"/><path class="st4" d="M20.7,63.2c0.6-0.2,0.9-1.2,0.5-1.8c-0.2-0.3-0.6-0.5-1-0.4c-0.6,0.1-0.9,1-0.7,1.6	C19.7,63,20.2,63.3,20.7,63.2z"/><path class="st4" d="M17.2,62c0.1-1-0.7-2-1.7-2.2c-0.8-0.2-1.7,0.1-1.7,0.4c0,0.3,0.8,0.3,1.5,1.1c0.8,0.9,0.7,1.8,1.1,1.8	C16.7,63.2,17.1,62.6,17.2,62z"/><path class="st4" d="M15.1,67c1-0.8,1.3-2.2,1.1-2.3c-0.2-0.1-0.6,0.8-1.6,1.1c-0.8,0.2-1.3-0.2-1.6,0.2c-0.3,0.4-0.2,1.3,0.3,1.6	C13.9,68,14.9,67.2,15.1,67z"/><path class="st4" d="M24.7,58.3c0.4,0,0.7-0.5,0.7-0.6c0-0.1,0.3-0.7,0.1-1c-0.3-0.4-1.3-0.4-1.6,0.1C23.7,57.3,24.2,58.3,24.7,58.3	z"/><path class="st4" d="M47.7,29.6c0.6-0.1,1.1-1.8,0.4-2.4c-0.4-0.3-1.1-0.3-1.5,0.2c-0.5,0.6,0,1.4,0.1,1.5	C46.9,29.1,47.3,29.6,47.7,29.6z"/><path class="st4" d="M45.4,27c0.5-0.3,0.5-1.1,0.2-1.5c-0.2-0.3-0.5-0.2-1.1-0.5c-0.9-0.4-1.1-1-1.3-0.9C42.9,24.2,43,26,44,26.7	C44.1,26.8,44.9,27.3,45.4,27z"/></svg>