<?xml version="1.0" encoding="utf-8"?><!-- Generator: Adobe Illustrator 26.0.3, SVG Export Plug-In . SVG Version: 6.00 Build 0)  --><svg version="1.1" id="Ebene_2_00000126308112139821010380000011903406711838980787_"	 xmlns="http://www.w3.org/2000/svg" xmlns:xlink="http://www.w3.org/1999/xlink" x="0px" y="0px" viewBox="0 0 100 100"	 style="enable-background:new 0 0 100 100;" xml:space="preserve"><style type="text/css">	.st0{fill:#8A3C8F;stroke:#000000;stroke-width:2;stroke-miterlimit:10;}	.st1{fill:#69B42D;stroke:#000000;stroke-miterlimit:10;}	.st2{fill:#DB8F00;stroke:#000000;stroke-width:0.5;stroke-miterlimit:10;}	.st3{fill:#C78F55;stroke:#000000;stroke-width:0.5;stroke-miterlimit:10;}	.st4{fill:#493127;stroke:#000000;stroke-width:0.25;stroke-miterlimit:10;}	.st5{fill:#493127;stroke:#000000;stroke-width:0.25;stroke-miterlimit:10;}	.st6{fill:none;stroke:#000000;stroke-width:0.25;stroke-miterlimit:10;}</style><polygon class="st0" points="8,74.2 50,98.5 92,74.2 92,25.8 50,1.5 8,25.8 "/><path class="st1" d="M67.8,11.8c-2.3-1.2-9.1-5-12-6.9c0,0,0.2,0.1-3.4-2.1c-1.7-1-1.9-1.2-2.4-1.2c-1.5-0.2-2.5,1.1-4.5,2.6	c0,0-1.9,1.1-5.6,3.2c-2.1,1.2-4.2,2.4-6.3,3.7c-2.8,1.6-4.2,2.4-4.2,2.4c-7,3.9-8.2,3.8-8.4,4.8c-0.7,3.4,10.9,6.5,10.5,11.7	c-0.1,1.7-1.4,3.3-2.9,3.7c-1.9,0.5-3.4-1.4-6-2.8c-3.9-2.1-9.8-2.9-12.7-0.7C7.8,31.7,8,34.2,8,45.6c0,13-0.4,18.5,1.9,19.2	c1.2,0.4,2.9-0.7,3.8-1.2c1.8-1.1,2.4-2.7,3.6-4.2c2.5-3.2,3.4-4.8,5-6c4-3.2,11.5-3.1,13.7,0.1c1.4,2.1,0.7,5.6-0.9,7.8	c-2.1,2.9-4.7,1.9-7.7,5.1c-2.5,2.8-1.5,4.4-3.8,6.6c-3.7,3.5-9.3,1.3-9.9,2.9c-0.3,0.8,0.9,2.6,13.5,9.5	c12.6,6.9,14.6,6.9,15.4,6.1c1-1.1-1.1-3-1-6.9c0.1-6.1,4.5-8.2,7.4-15.1c2.6-6.2,0-6.5,2.3-13.9c1.8-5.8,3.5-5.8,10.8-17.7	c5.6-9.1,6-10.8,9-12.8c5.3-3.5,11.7-3.1,15.7-2.4C77.6,17.3,71.7,13.9,67.8,11.8z"/><path class="st2" d="M80.4,24.8c-0.7-0.3-4.5-1.7-6.8,0c-1.9,1.5-0.5,3.5-2.6,6.8c-1.9,3.1-4.5,3-4.6,5.3c0,1.6,0.8,3.8,2.3,4.2	c1.8,0.5,2.7-1.9,5.4-2c2.9-0.1,3.9,2.5,5.9,1.9c1-0.3,1.6-1.6,2.9-4.2c0.3-0.6,1.2-2.4,1.7-4.6c0.2-0.8,0.3-1.5,0.2-2.3	c0-0.8-0.2-1.5-0.4-2C83.9,27.1,82.6,25.6,80.4,24.8z"/><path class="st2" d="M72.4,44.9c-5-0.8-6.7-2-8-0.9c-1.7,1.5-1.2,6,1,7.8c2,1.7,4-0.1,6.2,1.6c2.2,1.7,1.3,4.5,3.9,6.2	c1,0.6,1.1,0.2,3.1,1.1c3.3,1.4,4.1,2.9,5,2.6c1-0.4,0.7-2.6,0.7-6.2c0-7.8,1.5-9,0.2-10.6C82.8,44.4,80.2,46.2,72.4,44.9z"/><path class="st3" d="M76.4,65.9c-1.1-1.2-0.2-2.1-1.1-4.4c-1.1-2.9-4-5.5-6.9-5.4c-1.4,0-3,0.7-3.1,1.6c-0.1,1.1,2.3,1.5,2.6,3.3	c0.1,0.5-0.1,0.9-1.4,3.3C64.4,67.6,64,68.1,64,69c0,1.5,0.9,3.2,2.1,3.6c1.4,0.3,1.9-1.4,3.9-2c2.9-0.9,4.4,2,9.8,2.2	c2.8,0.1,3.3-0.6,3.4-0.8c0.6-0.9-0.2-2.7-1.2-3.7C80.1,66.4,77.9,67.6,76.4,65.9z"/><path class="st3" d="M60,56.3c-2.8-1.8-2.4-4.4-3.7-4.4c-2-0.1-5,6.9-2.9,9.6c0.7,0.9,1.5,0.6,2.3,1.7c1.4,1.8,0,3.7,1.4,6	c0.6,0.9,1.7,2.1,2.7,1.9c0.8-0.2,0.9-1.3,1.9-3.8c1.5-3.5,2.7-4,2.6-6.1c0-0.4-0.1-1.4-0.8-2.4C62.7,57.3,61.5,57.3,60,56.3z"/><path class="st2" d="M61,75.9c-0.2,1,1.1,1.3,1.9,3.9c0.9,2.8-0.1,4.1,0.9,5.1c1.2,1.2,4.3,1.1,5.7-0.3c1.6-1.6,0.3-4.1,2-5.2	c1.2-0.9,2.6-0.1,3.1-0.9c0.6-0.8-0.2-2.6-1.2-3.7C70,71.4,61.6,73.4,61,75.9z"/><path class="st3" d="M49.3,70.8c-1.4,3.2,0,6.3,0.2,6.7c0.7,1.4,1,1.1,1.9,2.7c1,1.9,0.8,2.8,1.7,6.7c1,4.3,1.7,4.6,2,4.7	c0.8,0.2,1.6-0.7,2.7-1.9c1.1-1.2,2.9-3.2,3.4-6.4c0.3-1.5,0.6-3.3-0.3-5.1c-1.2-2.3-2.9-1.8-4.6-4c-2.4-3.2-0.6-6.8-2.1-7.4	C52.8,66,50.3,68.4,49.3,70.8z"/><path class="st2" d="M44.8,84c-0.2,1.2,0.1,1.4,0.8,4.9c0.5,3,0.4,3.9,1.2,4.3c0.9,0.5,2.2,0.2,3-0.4c2.4-1.7,1.4-6.2,1.2-7.1	c-0.4-1.7-1.6-5.4-3.3-5.4C46.4,80.2,45.1,82.3,44.8,84z"/><path class="st2" d="M29.6,56.5c-1.1-0.4-0.8-2-1.7-2.3c-1.6-0.6-5,3.4-4.3,4.3c0.3,0.5,1.2-0.2,2.7,0.4c0.6,0.2,1.1,0.8,2.2,1.9	c1.4,1.4,1.4,1.6,1.8,1.7c1.7,0.5,5-2.6,4.3-4.9c-0.2-0.7-0.9-1.6-1.8-1.8C31.5,55.5,30.6,56.8,29.6,56.5z"/><path class="st3" d="M26.5,60c-0.6-0.3-1.1,0.3-2.3,0.8c-2.6,0.9-3.7-0.6-6,0.2c-1.9,0.7-2.9,2.4-3,2.7c-0.6,1.1-0.5,2.3-0.4,4.8	c0.1,2.7,0.2,4,0.9,4.4c1.4,0.8,3.9-1.2,4.7-1.8c2.5-2,1.9-3.1,4.7-5.3c1.3-1,2.1-1.3,2.4-2.4C27.8,62.1,27.4,60.4,26.5,60z"/><path class="st4" d="M80.7,30.5c-0.7,0.4-1.6-0.5-2.2,0c-0.4,0.3-0.4,1.2-0.1,1.7c0.8,1,3.3,0.5,3.7-0.5c0.1-0.3-0.1-0.4-0.3-1.6	c-0.2-1.2-0.3-1.9-0.4-1.9C81.3,28.1,81.5,29.9,80.7,30.5z"/><path class="st4" d="M74.5,28c-0.4,0.8-0.9,2.1-0.7,2.3c0.2,0.1,0.5-0.7,2-2c0.3-0.3,0.6-0.5,0.7-1c0-0.5-0.2-1-0.6-1	C75.4,26.2,74.8,27.3,74.5,28z"/><path class="st4" d="M79.4,38.1c-0.8,0.8-2.2,1-3,0.4c-0.3-0.3-0.6-1-0.4-1.3c0.4-0.7,2.1,0.1,2.5-0.5c0.3-0.5-0.5-1.2-0.2-1.7	c0.2-0.3,0.7-0.4,1-0.2C80.1,35.1,80.4,37.1,79.4,38.1z"/><path class="st4" d="M73.5,33.3c-0.2,0.4,0.5,1.3,1,1.2c0.4-0.1,0.8-0.9,0.5-1.3C74.8,32.7,73.7,32.8,73.5,33.3z"/><path class="st4" d="M69.7,34.4c-1.2,0.9-1.9,2.7-1.2,3.6c0.4,0.4,1.1,0.6,1.4,0.4c0.5-0.4-0.5-1.7,0-2.2c0.5-0.5,1.5,0.4,2.2-0.2	c0.5-0.4,0.6-1.4,0.2-1.8C71.8,33.5,70.4,33.8,69.7,34.4z"/><path class="st4" d="M82.8,50.8c-0.1,0.7-0.6,2.2-1,2.2c-0.4,0-0.8-1.5-0.4-2.7c0.3-0.9,1-1.7,1.3-1.6	C83.2,48.8,82.9,50.5,82.8,50.8z"/><path class="st4" d="M77,52.7c-0.4,0-0.9-0.5-0.9-0.9c0.1-0.7,1.5-1.1,1.8-0.7C78.2,51.4,77.7,52.7,77,52.7z"/><path class="st4" d="M81,55.6c-0.4,0.8-2,0.6-2.2,0.6c-0.7-0.1-1.6-0.5-1.6-0.8c0-0.2,0.5-0.2,1.2-0.7c0.9-0.6,0.9-1.2,1.3-1.3	C80.4,53.4,81.4,54.8,81,55.6z"/><path class="st4" d="M76.3,48.4c-0.1-0.3,0.7-0.8,1.4-1c0.6-0.1,1.5-0.1,1.6,0.2c0.1,0.3-0.6,0.8-1.3,1	C77.2,48.9,76.3,48.8,76.3,48.4z"/><path class="st4" d="M70.9,47.1c-0.9,0.8-1.3,2.4-0.6,3c0.6,0.5,1.9,0.3,2.1-0.2c0.2-0.5-0.8-0.8-0.7-1.5c0.1-0.9,2.1-1.1,2.1-1.5	C73.7,46.7,71.9,46.2,70.9,47.1z"/><path class="st4" d="M65.1,47.2c-0.1,0.4,0.5,1,1.3,1c0.9,0,1.5-1.1,1.3-1.5C67.4,46.3,65.3,46.6,65.1,47.2z"/><path class="st5" d="M76.8,69.4c0.9,0.2,1.2,1.3,1.4,1.3c0.2-0.1,0.2-1.4-0.7-2.2c-0.8-0.7-2.2-0.6-2.4-0.2c-0.2,0.3,0.1,0.8,0.4,1	C75.9,69.7,76.3,69.3,76.8,69.4z"/><path class="st5" d="M70,65.2c-0.2,0.2,1.1,1.5,0.7,1.9c-0.4,0.6-2.7-0.7-3.2-0.1c-0.3,0.3,0,1.1,0.4,1.5c1,1.1,3.6,0.8,4.1-0.4	c0.4-0.9-0.4-1.9-0.5-2C71,65.4,70.1,65,70,65.2z"/><path class="st5" d="M71.5,61.9c-0.4-0.7-1.6-0.8-2.3-0.3c-0.5,0.4-0.8,1.1-0.6,1.6c0.3,0.8,2.1,1,2.7,0.2	C71.7,63,71.8,62.4,71.5,61.9z"/><path class="st5" d="M69.4,57.9c-0.3,0-1,0.8-0.7,1.3c0.2,0.3,0.8,0.4,1,0.2C70.1,59.1,69.8,58,69.4,57.9z"/><path class="st4" d="M71,77.2c-0.1-0.7-1.1-1.1-1.8-1c-0.9,0-2,0.6-1.9,1.2c0,0.8,2,1.7,3.1,1C70.7,78.2,71.1,77.7,71,77.2z"/><path class="st4" d="M64.8,78.4c-0.1-0.3-0.5-0.6-0.8-0.5c-0.5,0.1-0.8,1-0.4,1.4c0.2,0.3,0.8,0.3,1.1,0	C64.9,79.1,64.9,78.7,64.8,78.4z"/><path class="st4" d="M66.5,81.3c0,0.4,0.6,0.9,1.3,0.7c0.7-0.2,0.9-1.2,0.6-1.5C68,80.2,66.5,80.8,66.5,81.3z"/><path class="st5" d="M62.6,61.3c0.2-0.4-0.1-1-0.6-1.3c-0.7-0.4-1.8,0.2-2.1,1c-0.4,0.9,0.2,1.7,0.4,2c0.6,0.8,1.6,1.4,2,1.1	c0.2-0.2,0.2-0.7,0.2-0.7c-0.1-0.8-1-1.1-0.9-1.5C61.7,61.5,62.4,61.7,62.6,61.3z"/><path class="st5" d="M59.4,59.3c0.2,0.4-0.4,1.2-1.2,1.5c-0.2,0-0.5,0.2-0.7,0c-0.3-0.3,0.1-1.4,0.9-1.6	C58.8,59.1,59.3,59.1,59.4,59.3z"/><path class="st5" d="M57,54.8c-0.4-0.2-0.8,0.1-1,0.4c-0.3,0.4-0.3,1.1,0.1,1.3c0.4,0.2,1.2-0.2,1.3-0.7C57.4,55.5,57.3,55,57,54.8z	"/><path class="st5" d="M59.7,66.2c-1,1.1-1.2,1.3-1.1,1.4c0.1,0.2,0.8,0.3,1.3,0.1c1.1-0.5,1.2-2.3,0.9-2.4	C60.7,65.2,60.7,65.3,59.7,66.2z"/><path class="st5" d="M56.7,78.5c-0.2,0.1,0.5,0.9,0.3,2.1c-0.2,1.2-1.1,1.8-0.9,2.1c0.2,0.3,1.7,0,2.1-1c0.2-0.5,0-1.1-0.3-1.7	C57.5,79.2,56.9,78.4,56.7,78.5z"/><path class="st6" d="M54.5,76.7"/><path class="st5" d="M49.9,75.3c-0.4,0.4-0.1,1.4,0.4,1.7c0.4,0.2,0.7,0,1.9-0.4c1.4-0.4,1.8-0.3,1.8-0.4	C54.1,75.8,50.6,74.4,49.9,75.3z"/><path class="st5" d="M52.7,72.6c-0.4-0.3-1.1,0-1.3,0.5c-0.1,0.4,0.2,0.9,0.6,1c0.3,0.1,0.6-0.1,0.8-0.3	C53.1,73.5,53.1,72.8,52.7,72.6z"/><path class="st5" d="M53.3,70.1c0.2-0.8-0.9-1.7-1.6-1.5c-0.4,0.1-0.6,0.7-0.6,1c0,0.5,0.3,1.2,0.9,1.3	C52.6,71.1,53.2,70.6,53.3,70.1z"/><path class="st5" d="M52.2,80.4c-0.3,0.5,0.6,1.7,1.1,1.6c0.4-0.1,0.9-1.1,0.4-1.6C53.3,79.9,52.4,80.1,52.2,80.4z"/><path class="st5" d="M57.1,86.8c-0.3,0.1-0.6-0.3-1-0.2c-0.6,0.2-0.5,1.1-1.3,1.5c-0.4,0.2-0.9,0.2-1.1-0.1	c-0.4-0.4-0.1-1.4,0.4-1.8c0.8-0.6,1.7,0,2.4-0.6c0.6-0.5,0.4-1.4,0.5-1.4C57.2,84.2,57.7,86.5,57.1,86.8z"/><path class="st4" d="M45.8,84.9c0,0.4,0.3,0.9,0.7,1c0.4,0,0.8-0.3,0.9-0.7c0.1-0.6-0.5-1.2-1-1.1C46.1,84.1,45.8,84.5,45.8,84.9z"	/><path class="st4" d="M46.8,89.3c-0.7,0.8,0.2,2.6,0.6,2.6c0.1,0,0.2-0.2,0.4-0.7c0.4-1,0.6-1.8,0.3-2.1	C47.8,88.8,47.2,88.9,46.8,89.3z"/><path class="st4" d="M29.6,57.9c-0.3,0.6-0.1,1.5,0.5,1.8c0.6,0.3,1.3-0.1,1.6-0.4c0.4-0.5,0.7-1.2,0.4-1.7	C31.7,56.9,30.1,57,29.6,57.9z"/><path class="st4" d="M27.4,56.6c-0.8-0.1-1.1-0.8-1.3-0.7c-0.3,0.1-0.3,1.1,0.2,1.7c0.3,0.4,1,0.7,1,0.7l0,0	c-0.4-0.3,0.9,0.8,1.3,0.6c0.5-0.2,0.6-1.9-0.1-2.3C28.2,56.4,28,56.7,27.4,56.6z"/><path class="st5" d="M22.4,63.7c0.1,0.5,1.1,1.1,1.8,0.7c0.7-0.4,0.6-1.6,0.2-1.9C23.8,62.1,22.3,63,22.4,63.7z"/><path class="st5" d="M20.2,66.7c0.4,0.1,1.2-0.8,1-1.3c-0.2-0.3-0.7-0.5-1-0.3C19.6,65.4,19.8,66.6,20.2,66.7z"/><path class="st5" d="M18.2,63.6c-0.3,0.2,0.1,0.8-0.1,1.9c-0.2,1.1-0.8,1.6-0.6,1.8c0.2,0.2,1.3-0.3,1.8-1.2c0-0.1,0.7-1.3,0.1-2.1	C19.1,63.7,18.5,63.4,18.2,63.6z"/><path class="st5" d="M16,69.2c-0.5,0.6-0.1,1.7,0.6,1.9c0.4,0.1,1,0,1.3-0.4c0.3-0.5,0.2-1.3-0.3-1.6C17.1,68.8,16.4,68.9,16,69.2z"	/><g>	<path class="st3" d="M15.7,26.8c0.6,0.5,1.6-0.7,2.7-0.2c0.7,0.3,0.6,0.7,1.3,1.1c1.1,0.6,1.7-0.2,2.9,0.3c0.9,0.4,0.8,0.9,2.1,1.8		c0.5,0.3,1.5,1,2,0.8c0.5-0.3,0.3-1.4,0.2-2.1c-0.3-1.5-0.9-4.7-3.6-6c-0.2-0.1-1.6-0.8-3.1-0.5c-1,0.2-0.8,0.6-2.6,1.7		c-1.3,0.7-1.9,0.8-2.1,1.5C15.3,25.7,15.3,26.5,15.7,26.8z"/>	<path class="st5" d="M20.1,24.9c0.3-0.3,0.7-0.6,0.6-1.1c-0.1-0.3-0.4-0.5-0.6-0.6c-0.4-0.1-0.7,0.4-1,1c-0.3,0.5-0.6,1.1-0.4,1.3		C18.8,25.8,19.6,25.4,20.1,24.9z"/>	<path class="st5" d="M21.5,26.6c-0.2,0-0.5,0-0.6-0.2c-0.2-0.3-0.1-0.6,0.2-0.8c0.3-0.1,0.8,0.1,0.8,0.4		C21.9,26.3,21.8,26.6,21.5,26.6z"/>	<path class="st5" d="M25.2,28.1c0.3-0.2,0.1-1-0.3-1.1c-0.3-0.1-0.8,0.2-0.7,0.5C24.2,27.9,25,28.3,25.2,28.1z"/>	<path class="st5" d="M21.7,24.2c-0.3-0.1-0.5-0.8-0.2-1.2c0.2-0.2,0.6-0.4,0.8-0.2c0.3,0.2,0.3,0.9-0.1,1.2		C22.3,24,22,24.3,21.7,24.2z"/></g></svg>