<?xml version="1.0" encoding="utf-8"?>
<!-- Generator: Adobe Illustrator 26.0.3, SVG Export Plug-In . SVG Version: 6.00 Build 0)  -->
<svg version="1.1" id="Ebene_2_00000126308112139821010380000011903406711838980787_"
	 xmlns="http://www.w3.org/2000/svg" xmlns:xlink="http://www.w3.org/1999/xlink" x="0px" y="0px" viewBox="0 0 100 100"
	 style="enable-background:new 0 0 100 100;" xml:space="preserve">
<style type="text/css">
	.st0{fill:#603726;stroke:#000000;stroke-width:2;stroke-miterlimit:10;}
	.st1{fill:#804122;stroke:#000000;stroke-miterlimit:10;}
	.st2{fill:#493127;stroke:#000000;stroke-width:0.5;stroke-miterlimit:10;}
	.st3{fill:#5D4135;stroke:#000000;stroke-width:0.5;stroke-miterlimit:10;}
	.st4{fill:#5D4135;stroke:#000000;stroke-width:0.25;stroke-miterlimit:10;}
	.st5{fill:#493127;stroke:#000000;stroke-width:0.25;stroke-miterlimit:10;}
	.st6{fill:none;stroke:#000000;stroke-width:0.25;stroke-miterlimit:10;}
</style>
<polygon class="st0" points="8,74.2 50,98.5 92,74.2 92,25.7 50,1.5 8,25.7 "/>
<path class="st1" d="M86.8,77.2c-4,0.7-10.4,1.1-15.7-2.4c-3-2-3.4-3.6-9-12.8c-7.3-11.8-9-11.9-10.8-17.7
	c-2.3-7.4,0.3-7.7-2.3-13.9c-3-7-7.3-9-7.4-15.1c-0.1-3.9,2-5.8,1-6.9c-0.8-0.8-2.8-0.8-15.4,6.1c-12.6,6.9-13.8,8.7-13.5,9.5
	c0.5,1.6,6.2-0.7,9.9,2.9c2.3,2.1,1.2,3.8,3.8,6.6c3,3.2,5.5,2.2,7.7,5.1c1.5,2.2,2.3,5.7,0.9,7.8c-2.2,3.2-9.6,3.3-13.7,0.1
	c-1.6-1.3-2.4-2.9-5-6c-1.2-1.5-1.8-3.1-3.6-4.2c-0.8-0.6-2.5-1.6-3.8-1.2C7.6,36,8,41.4,8,54.4c0,11.4-0.3,13.8,1.9,15.4
	c2.9,2.2,8.8,1.4,12.7-0.7c2.7-1.4,4.1-3.4,6-2.8c1.4,0.4,2.7,2.1,2.9,3.7c0.3,5.2-11.2,8.3-10.5,11.7c0.2,1.1,1.4,0.9,8.4,4.8
	c0,0,1.4,0.8,4.2,2.4c2.1,1.2,4.2,2.4,6.3,3.7c3.7,2.2,5.6,3.2,5.6,3.2c2,1.5,3,2.8,4.5,2.6c0.5-0.1,0.7-0.2,2.4-1.2
	c3.6-2.2,3.4-2.1,3.4-2.1c2.9-1.9,9.8-5.7,12-6.9C71.7,86.1,77.6,82.7,86.8,77.2z"/>
<path class="st2" d="M84.6,72.1c0.1-0.5,0.3-1.2,0.4-2c0-0.8-0.1-1.5-0.2-2.3c-0.5-2.2-1.4-3.9-1.7-4.6c-1.3-2.6-1.9-3.9-2.9-4.2
	c-1.9-0.6-3,2-5.9,1.9c-2.7-0.1-3.6-2.5-5.4-2c-1.5,0.5-2.4,2.6-2.3,4.2c0,2.3,2.7,2.3,4.6,5.3c2,3.2,0.6,5.3,2.6,6.8
	c2.3,1.7,6.1,0.3,6.8,0C82.6,74.4,83.9,72.9,84.6,72.1z"/>
<path class="st2" d="M84.5,53.5c1.3-1.6-0.2-2.8-0.2-10.6c0-3.6,0.3-5.8-0.7-6.2c-0.9-0.4-1.7,1.1-5,2.6c-2.1,0.9-2.1,0.5-3.1,1.1
	c-2.6,1.7-1.7,4.5-3.9,6.2c-2.2,1.7-4.2-0.1-6.2,1.6c-2.2,1.8-2.7,6.3-1,7.8c1.3,1.2,3,0,8-0.9C80.2,53.8,82.8,55.6,84.5,53.5z"/>
<path class="st3" d="M82,31.7c1-1,1.8-2.7,1.2-3.7c-0.1-0.2-0.6-0.9-3.4-0.8c-5.3,0.3-6.8,3.1-9.8,2.2c-2-0.6-2.5-2.3-3.9-2
	C64.9,27.7,64,29.5,64,31c0,0.9,0.4,1.4,2.3,4.8c1.4,2.4,1.5,2.8,1.4,3.3c-0.3,1.8-2.7,2.3-2.6,3.3c0.1,0.8,1.7,1.5,3.1,1.6
	c2.9,0.1,5.8-2.5,6.9-5.4c0.9-2.3,0-3.2,1.1-4.4C77.9,32.4,80.1,33.6,82,31.7z"/>
<path class="st3" d="M63.6,41.3c0.7-1,0.8-2.1,0.8-2.4c0.1-2.1-1.1-2.6-2.6-6.1c-1-2.4-1-3.6-1.9-3.8c-0.9-0.2-2.1,0.9-2.7,1.9
	c-1.4,2.3,0,4.2-1.4,6c-0.9,1.1-1.6,0.7-2.3,1.7c-2.2,2.7,0.9,9.6,2.9,9.6c1.2,0,0.9-2.6,3.7-4.4C61.5,42.7,62.7,42.7,63.6,41.3z"/>
<path class="st2" d="M73.4,25.2c1-1,1.8-2.8,1.2-3.7c-0.6-0.8-1.9,0-3.1-0.9c-1.7-1.2-0.4-3.6-2-5.2c-1.4-1.5-4.5-1.6-5.7-0.3
	c-1,1.1,0,2.3-0.9,5.1c-0.8,2.5-2.1,2.8-1.9,3.9C61.6,26.6,70,28.6,73.4,25.2z"/>
<path class="st3" d="M54.1,33.4c1.5-0.6-0.3-4.3,2.1-7.4c1.6-2.2,3.4-1.7,4.6-4c0.9-1.8,0.6-3.6,0.3-5.1c-0.6-3.2-2.3-5.2-3.4-6.4
	c-1.1-1.2-1.9-2.1-2.7-1.9c-0.3,0.1-1,0.3-2,4.7c-0.9,3.9-0.6,4.8-1.7,6.7c-0.8,1.6-1.2,1.3-1.9,2.7c-0.2,0.4-1.6,3.5-0.2,6.7
	C50.3,31.6,52.8,34,54.1,33.4z"/>
<path class="st2" d="M47.7,19.8c1.8,0,3-3.7,3.3-5.4c0.2-0.9,1.2-5.4-1.2-7.1c-0.8-0.6-2.1-1-3-0.4c-0.8,0.5-0.7,1.4-1.2,4.3
	c-0.6,3.5-1,3.7-0.8,4.9C45.1,17.7,46.4,19.8,47.7,19.8z"/>
<path class="st2" d="M32.8,44.2c0.9-0.2,1.6-1,1.8-1.8c0.7-2.3-2.6-5.3-4.3-4.9c-0.4,0.1-0.4,0.3-1.8,1.7c-1.1,1.1-1.7,1.6-2.2,1.9
	c-1.4,0.6-2.4,0-2.7,0.4c-0.6,1,2.8,4.9,4.3,4.3c0.9-0.3,0.6-1.9,1.7-2.3C30.6,43.2,31.5,44.5,32.8,44.2z"/>
<path class="st3" d="M27.4,36.7c-0.4-1.1-1.2-1.4-2.4-2.4c-2.7-2.2-2.2-3.4-4.7-5.3c-0.8-0.6-3.3-2.6-4.7-1.8
	c-0.7,0.4-0.8,1.8-0.9,4.4c-0.1,2.4-0.1,3.7,0.4,4.8c0.1,0.3,1.1,2,3,2.7c2.3,0.8,3.4-0.7,6,0.2c1.2,0.4,1.7,1,2.3,0.8
	C27.4,39.6,27.8,37.9,27.4,36.7z"/>
<path class="st4" d="M81.4,71.8c0.1,0,0.1-0.8,0.4-1.9c0.2-1.1,0.4-1.2,0.3-1.6c-0.4-1-2.9-1.5-3.7-0.5c-0.4,0.5-0.4,1.4,0.1,1.7
	c0.6,0.5,1.5-0.4,2.2,0C81.5,70,81.3,71.8,81.4,71.8z"/>
<path class="st4" d="M75.9,73.7c0.3,0,0.6-0.6,0.6-1c0-0.4-0.3-0.7-0.7-1c-1.5-1.3-1.8-2.1-2-2c-0.3,0.2,0.3,1.5,0.7,2.3
	C74.8,72.7,75.4,73.8,75.9,73.7z"/>
<path class="st4" d="M79.4,65.2c-0.3,0.2-0.8,0.1-1-0.2c-0.3-0.5,0.5-1.2,0.2-1.7c-0.4-0.6-2.1,0.1-2.5-0.5c-0.2-0.4,0-1,0.4-1.3
	c0.7-0.7,2.2-0.4,3,0.4C80.4,62.9,80.1,64.9,79.4,65.2z"/>
<path class="st4" d="M75.1,66.8c0.2-0.4-0.1-1.2-0.5-1.3c-0.6-0.1-1.2,0.8-1,1.2C73.7,67.1,74.8,67.3,75.1,66.8z"/>
<path class="st4" d="M72.3,65.9c0.4-0.5,0.3-1.5-0.2-1.8c-0.7-0.5-1.8,0.3-2.2-0.2c-0.5-0.5,0.5-1.8,0-2.2c-0.3-0.3-1-0.1-1.4,0.4
	c-0.7,0.8,0,2.7,1.2,3.6C70.4,66.2,71.8,66.5,72.3,65.9z"/>
<path class="st4" d="M82.8,51.3c-0.3,0.1-1-0.7-1.3-1.6c-0.4-1.2,0-2.7,0.4-2.7c0.4,0,0.8,1.5,1,2.2C82.9,49.5,83.2,51.2,82.8,51.3z
	"/>
<path class="st4" d="M77.9,48.9c-0.3,0.3-1.7-0.1-1.8-0.7c0-0.4,0.4-0.9,0.9-0.9C77.7,47.3,78.2,48.6,77.9,48.9z"/>
<path class="st4" d="M79.7,46.6c-0.4,0-0.4-0.6-1.3-1.3c-0.7-0.5-1.2-0.5-1.2-0.7c0-0.3,0.8-0.7,1.6-0.8c0.2,0,1.8-0.2,2.2,0.6
	C81.4,45.2,80.4,46.6,79.7,46.6z"/>
<path class="st4" d="M78,51.3c0.7,0.2,1.4,0.8,1.3,1c-0.1,0.3-0.9,0.3-1.6,0.2c-0.7-0.2-1.5-0.7-1.4-1C76.3,51.2,77.2,51.1,78,51.3z
	"/>
<path class="st4" d="M73.7,53c0-0.3-2-0.6-2.1-1.5c-0.1-0.6,0.8-1,0.7-1.5c-0.2-0.5-1.5-0.8-2.1-0.2c-0.7,0.6-0.3,2.3,0.6,3
	C71.9,53.8,73.7,53.3,73.7,53z"/>
<path class="st4" d="M67.7,53.2c0.2-0.4-0.3-1.5-1.3-1.5c-0.7,0-1.3,0.7-1.3,1C65.3,53.4,67.4,53.7,67.7,53.2z"/>
<path class="st5" d="M75.5,30.6c-0.4,0.2-0.6,0.8-0.4,1c0.2,0.5,1.6,0.5,2.4-0.2c0.9-0.7,0.9-2.1,0.7-2.2c-0.2-0.1-0.5,1.1-1.4,1.3
	C76.3,30.7,75.9,30.3,75.5,30.6z"/>
<path class="st5" d="M71.5,33.9c0.1-0.1,0.9-1.1,0.5-2c-0.5-1.2-3-1.5-4.1-0.4c-0.4,0.4-0.7,1.1-0.4,1.5c0.5,0.7,2.8-0.7,3.2-0.1
	c0.3,0.5-1,1.7-0.7,1.9C70.1,35,71,34.6,71.5,33.9z"/>
<path class="st5" d="M71.4,36.7c-0.7-0.8-2.4-0.6-2.7,0.2c-0.2,0.5,0.1,1.2,0.6,1.6c0.7,0.5,1.9,0.4,2.3-0.3
	C71.8,37.6,71.7,37,71.4,36.7z"/>
<path class="st5" d="M69.7,40.5c-0.2-0.2-0.8-0.1-1,0.2c-0.3,0.5,0.3,1.4,0.7,1.3C69.8,42,70.1,40.8,69.7,40.5z"/>
<path class="st4" d="M70.3,21.5c-1.1-0.7-3.1,0.3-3.1,1c0,0.6,1,1.2,1.9,1.2c0.7,0,1.7-0.3,1.8-1C71.1,22.3,70.7,21.8,70.3,21.5z"/>
<path class="st4" d="M64.6,20.7c-0.3-0.3-0.9-0.3-1.1,0c-0.4,0.4,0,1.3,0.4,1.4c0.3,0.1,0.7-0.2,0.8-0.5
	C64.9,21.3,64.9,20.9,64.6,20.7z"/>
<path class="st4" d="M68.3,19.5c0.3-0.3,0.1-1.3-0.6-1.5c-0.6-0.2-1.3,0.3-1.3,0.7C66.5,19.2,68,19.8,68.3,19.5z"/>
<path class="st5" d="M61.6,38.1c-0.1-0.4,0.8-0.7,0.9-1.5c0-0.1,0.1-0.6-0.2-0.7c-0.4-0.3-1.4,0.3-2,1.1c-0.2,0.3-0.8,1.1-0.4,2
	c0.3,0.8,1.4,1.3,2.1,1c0.5-0.2,0.8-0.9,0.6-1.3C62.4,38.3,61.7,38.5,61.6,38.1z"/>
<path class="st5" d="M58.5,40.8c-0.8-0.3-1.2-1.3-0.9-1.6c0.2-0.2,0.5,0,0.7,0c0.8,0.2,1.4,1.1,1.2,1.5
	C59.3,40.9,58.8,40.9,58.5,40.8z"/>
<path class="st5" d="M57.4,44.2c-0.1-0.6-0.9-1-1.3-0.7c-0.3,0.2-0.4,0.9-0.1,1.3c0.2,0.3,0.7,0.5,1,0.4
	C57.3,45,57.4,44.5,57.4,44.2z"/>
<path class="st5" d="M60.8,34.7c0.3-0.1,0.2-1.9-0.9-2.4c-0.5-0.2-1.2-0.2-1.3,0.1c-0.1,0.1,0.1,0.3,1.1,1.4
	C60.7,34.7,60.7,34.8,60.8,34.7z"/>
<path class="st5" d="M57.9,20c0.3-0.6,0.5-1.2,0.3-1.7c-0.4-0.9-1.8-1.3-2.1-1c-0.2,0.3,0.7,0.8,0.9,2.1c0.2,1.2-0.5,2-0.3,2.1
	C56.9,21.6,57.5,20.8,57.9,20z"/>
<path class="st6" d="M54.5,23.3"/>
<path class="st5" d="M54,23.8c0-0.2-0.5-0.1-1.8-0.4c-1.2-0.3-1.6-0.6-1.9-0.4c-0.5,0.3-0.7,1.3-0.4,1.7
	C50.6,25.6,54.1,24.2,54,23.8z"/>
<path class="st5" d="M52.8,26.1c-0.2-0.2-0.5-0.4-0.8-0.3c-0.4,0.1-0.7,0.6-0.6,1c0.1,0.5,0.8,0.8,1.3,0.5
	C53.1,27.1,53.1,26.5,52.8,26.1z"/>
<path class="st5" d="M52,29c-0.6,0.1-0.9,0.8-0.9,1.3c0,0.4,0.2,0.9,0.6,1c0.7,0.2,1.7-0.7,1.6-1.5C53.2,29.4,52.6,28.9,52,29z"/>
<path class="st5" d="M53.7,19.5c0.5-0.6,0-1.6-0.4-1.6c-0.5-0.1-1.4,1.1-1.1,1.6C52.4,19.9,53.3,20,53.7,19.5z"/>
<path class="st5" d="M57,15.8c-0.2,0,0-0.9-0.5-1.4c-0.7-0.6-1.6,0-2.4-0.6c-0.6-0.5-0.8-1.5-0.4-1.8c0.2-0.2,0.8-0.2,1.1-0.1
	c0.8,0.3,0.7,1.3,1.3,1.5c0.5,0.1,0.7-0.4,1-0.2C57.7,13.5,57.2,15.8,57,15.8z"/>
<path class="st4" d="M46.4,16c0.5,0.1,1.1-0.5,1-1.1c-0.1-0.4-0.5-0.8-0.9-0.7c-0.5,0-0.7,0.6-0.7,1C45.8,15.5,46.1,15.9,46.4,16z"
	/>
<path class="st4" d="M48.1,10.9c0.3-0.3,0.1-1-0.3-2.1c-0.2-0.5-0.2-0.7-0.4-0.7c-0.4,0-1.3,1.8-0.6,2.6
	C47.2,11.1,47.8,11.2,48.1,10.9z"/>
<path class="st4" d="M32.1,42.4c0.3-0.5,0.1-1.2-0.4-1.7c-0.3-0.3-1-0.7-1.6-0.4c-0.7,0.3-0.8,1.3-0.5,1.8
	C30.1,43,31.7,43.1,32.1,42.4z"/>
<path class="st4" d="M28.5,43.4c0.6-0.4,0.6-2.1,0.1-2.3c-0.4-0.2-1.7,0.9-1.3,0.6l0,0c0,0-0.6,0.3-1,0.7c-0.5,0.6-0.5,1.6-0.2,1.7
	c0.2,0.1,0.5-0.5,1.3-0.7C28,43.3,28.2,43.6,28.5,43.4z"/>
<path class="st5" d="M24.3,37.5c0.4-0.3,0.6-1.5-0.2-1.9c-0.7-0.4-1.7,0.2-1.8,0.7C22.3,37,23.8,37.9,24.3,37.5z"/>
<path class="st5" d="M20.1,34.9c0.3,0.2,0.9,0,1-0.3c0.2-0.5-0.6-1.4-1-1.3C19.8,33.4,19.6,34.6,20.1,34.9z"/>
<path class="st5" d="M19.4,35.9c0.6-0.8,0-2-0.1-2.1c-0.5-0.9-1.6-1.4-1.8-1.2c-0.2,0.2,0.4,0.7,0.6,1.8c0.2,1.1-0.2,1.7,0.1,1.9
	C18.5,36.6,19.1,36.3,19.4,35.9z"/>
<path class="st5" d="M17.6,30.9c0.5-0.4,0.7-1.1,0.3-1.6c-0.3-0.4-0.8-0.6-1.3-0.4c-0.7,0.2-1.1,1.3-0.6,1.9
	C16.4,31.1,17.1,31.2,17.6,30.9z"/>
<g>
	<path class="st3" d="M15.4,74.8c0.2,0.7,0.8,0.8,2.1,1.5c1.8,1,1.7,1.5,2.6,1.7c1.4,0.3,2.8-0.3,3.1-0.5c2.7-1.3,3.3-4.4,3.6-6
		c0.2-0.7,0.4-1.9-0.2-2.1c-0.5-0.3-1.5,0.4-2,0.8c-1.3,0.9-1.2,1.5-2.1,1.8c-1.2,0.5-1.7-0.3-2.9,0.3c-0.7,0.4-0.6,0.9-1.3,1.1
		c-1.1,0.5-2.1-0.7-2.7-0.2C15.3,73.5,15.3,74.3,15.4,74.8z"/>
	<path class="st5" d="M18.6,74.4c-0.2,0.2,0.2,0.8,0.4,1.3c0.3,0.6,0.6,1,1,1c0.3,0,0.6-0.3,0.6-0.6c0.1-0.4-0.3-0.8-0.6-1.1
		C19.6,74.6,18.8,74.2,18.6,74.4z"/>
	<path class="st5" d="M21.9,73.9c-0.1,0.3-0.5,0.6-0.8,0.4c-0.3-0.1-0.4-0.5-0.2-0.8c0.1-0.2,0.4-0.3,0.6-0.2
		C21.8,73.4,21.9,73.7,21.9,73.9z"/>
	<path class="st5" d="M24.2,72.5c0,0.3,0.4,0.6,0.7,0.5c0.4-0.2,0.5-1,0.3-1.1C25,71.7,24.2,72.1,24.2,72.5z"/>
	<path class="st5" d="M22.3,76c0.3,0.3,0.4,1,0.1,1.2c-0.2,0.2-0.6,0-0.8-0.2c-0.3-0.4-0.1-1,0.2-1.2C22,75.7,22.3,76,22.3,76z"/>
</g>
</svg>
