<?xml version="1.0" encoding="utf-8"?><!-- Generator: Adobe Illustrator 26.0.3, SVG Export Plug-In . SVG Version: 6.00 Build 0)  --><svg version="1.1" id="Ebene_2_00000074422167821747138070000012155992511794515371_"	 xmlns="http://www.w3.org/2000/svg" xmlns:xlink="http://www.w3.org/1999/xlink" x="0px" y="0px" viewBox="0 0 100 100"	 style="enable-background:new 0 0 100 100;" xml:space="preserve"><style type="text/css">	.st0{fill:#8A3C8F;stroke:#000000;stroke-width:2;stroke-miterlimit:10;}	.st1{fill:#69B42D;stroke:#000000;stroke-miterlimit:10;}	.st2{fill:#DB6500;stroke:#000000;stroke-width:0.5;stroke-miterlimit:10;}	.st3{fill:#DB8F00;stroke:#000000;stroke-width:0.5;stroke-miterlimit:10;}	.st4{fill:#493127;stroke:#000000;stroke-width:0.25;stroke-miterlimit:10;}	.st5{fill:#493127;stroke:#000000;stroke-width:0.25;stroke-miterlimit:10;}</style><polygon class="st0" points="92,25.8 50,1.5 8,25.8 8,74.2 50,98.5 92,74.2 "/><path class="st1" d="M28.1,85.8c7.1,4.8,10.6,8.4,13.7,7.2c2.2-0.9,2.7-3.5,4-7.8c5.3-18.2,9.6-18.1,9.4-27	c-0.2-8.1-3.7-8.7-2.4-15.6c1-5.1,3.4-7.1,3.1-12.8c-0.2-3.2-1-3.9-1.1-8.3c-0.1-4.9,0.9-5.6,0.4-8.4c-0.6-3.5-3.2-8.2-7-9.2	c-3.3-0.9-5.4,1.4-14.8,7.2c-10.1,6.3-15.1,8.2-14.6,9.9c0.7,2.6,13.4-0.5,15.6,4.3c0.6,1.4-0.1,2.2-1.1,7.1c0,0-0.6,2.8-1.4,10.3	c-1,9.3,0.7,12.1,0.1,16.4c-0.7,5-4.7,11.5-18.9,18.1C19.3,80.2,24.3,83.2,28.1,85.8z"/><path class="st2" d="M75.5,81.7c0.4-0.1,2.8-1,5.6-2.8c2.6-1.7,6.4-4.3,6.4-7.8c0-2.6-2.1-4.4-2.8-5c-2.2-1.9-4.5-2.2-7.6-2.7	c-12.1-1.9-13.7-3.5-15.7-1.8c-2.3,2-2.4,6-1.9,8.3c0.8,4.1,3.6,4.8,3.3,7.7c-0.2,2.2-1.9,2-4.6,6.8c-1.7,3.1-1.9,4.9-1.8,6.4	c0.1,1.2,0.5,2.1,0.7,2.7C65.8,85.9,71.7,83,75.5,81.7z"/><path class="st2" d="M12.6,62.8c0.4,3.3,0.6,4.9,1.7,6c2.3,2.3,6.5,1.1,6.7,1.1c4.1-1.2,5.6-5.9,5.6-9.3c0-3.1-1.4-6.1-2-6.1	c-0.8,0-0.1,4.3-2.5,5.4c-0.8,0.4-1.7,0.2-3.4-0.2c-3.6-0.8-4.8-2.2-5.8-1.6C12.1,58.5,12.2,60,12.6,62.8z"/><path class="st2" d="M58.7,36.9c1.5,2.3,2.3,3.5,2.7,3.9c3.8,3.8,6.8,3.7,8.6,6.8c1.3,2.3,0,2.8,1.4,7.3c0.8,2.6,2,6.2,4.4,6.8	c1.7,0.4,2.2-1.2,5.2-1.9c4.2-1,6.3,1.3,8,0c2-1.5,1.6-6.4-0.3-9.6c-2-3.1-3.8-2.1-6.7-5.5c-2.9-3.7-2.3-6.3-4.9-7.6	c-2.1-1-2.6,0.5-5.6-0.3c-3.9-1-5.5-3.9-8.6-3.6c-0.8,0-1.7,0.4-1.9,0.4c-1,0.4-2.6,0.8-2.7,1.9C58.1,36,58.4,36.3,58.7,36.9z"/><path class="st3" d="M57.9,58.2c2.8-1.3,4.4,0.7,6.7-0.7c1.4-0.9,2.4-2.7,2.1-4.2c-0.4-1.6-2.3-1.5-5.3-3.6c-4.1-2.8-5-5.9-6.5-5.5	c-0.9,0.2-1.2,1.4-1.8,3.3c-0.7,2.3-0.3,2.8-0.7,5.5c-0.6,3.4-1.7,4.2-1,5.8c0.4,1.1,1.5,2.2,2.7,2.2C55.4,61.1,55.7,59.2,57.9,58.2	z"/><path class="st3" d="M29.8,44.5c-0.9-7.2-1.3-8.5-0.4-10.4c1-2.1,2.6-2.1,3.3-4.4c0.5-1.7,0.5-4.2-0.7-5.2c-1-0.9-2.7,0.1-6.1,1.3	c-2.6,0.9-7.3,2.6-8.2,5.9c-0.3,1.3,0.3,1.4,0.1,2.9c-0.5,4.2-5.3,5.1-6.2,9.4c-0.3,1.5-0.1,3.5,0.9,4.7c1.5,1.7,3.4,0,6.8,1.2	c3.1,1,3.4,3,7,3.7c1.4,0.3,2.5,0.5,3.3-0.2C30.6,52.6,30.6,50.8,29.8,44.5z"/><path class="st2" d="M77.4,31.3c1.3,0.5,0.4,3.2,2.1,4.6c1.9,1.6,6.5,0.9,8.6-1.9c1.7-2.3,1.2-5.1,1-5.9c-0.9-4-5.1-7-8.6-6.8	c-2.7,0.2-3.9,2.2-5.8,1.5c-1.5-0.6-1.5-2.1-2.8-4.2c-2.5-4-7.8-6.8-9.9-5.5c-1.7,1.1-1.2,4.7-1.2,5.2c0.5,3.5,2.6,3.7,4,8	c1,2.9,0.4,4,1.8,5.8c0.4,0.5,1.9,2.4,4,2.5C73.8,34.8,75.7,30.7,77.4,31.3z"/><path class="st4" d="M64.6,39.1c0.3,0.1,0.5,0.1,0.9,0.3c0.8,0.5,0.9,1,1.3,1c0.4,0.1,0.5-0.4,1.3-1.1c0.9-0.5,1.5-0.7,1.5-0.9	c0-0.3-0.7-0.5-1-0.4c-0.9-0.1-1.3,0.2-2.2-0.1c-0.6-0.2-0.8-0.4-0.9-0.3c-0.3-0.3-0.3-0.6-0.5-0.7c-0.2-0.2-0.7-0.3-1.8,0.3	C63.4,38.4,64,38.8,64.6,39.1z"/><path class="st4" d="M79.5,47.8c-0.3,0.5-1.5-0.1-1.8,0.3c-0.4,0.6,2,3.5,4.3,3.4c0.4,0,1-0.2,1.1-0.5c0.1-0.3-0.4-0.5-1.1-1.2	c-0.3-0.5-0.7-0.9-0.6-1.3c0.1-0.4,0.6-0.3,0.8-0.7c0.2-0.4,0-0.8-0.3-1.1c-0.1-0.3-0.6-1-2.3-1.8c-0.8-0.5-1.8-0.9-1.9-0.6	C77.3,44.6,79.9,47,79.5,47.8z"/><path class="st4" d="M74.4,55.1c-0.2,1,0.4,2,1,2.7c0.6,0.9,1.1,1.5,1.9,1.7c1.1,0.2,2.5-0.5,2.8-1.7c0.3-0.8,0.1-1.8-0.3-1.9	c-0.6-0.2-1.2,1.8-1.9,1.7c-0.4-0.1-0.3-0.7-0.9-1.8c-0.3-0.6-1-1.8-1.7-1.7C74.8,54.1,74.5,54.7,74.4,55.1z"/><path class="st4" d="M84.3,54.4c0.7,0.1,0.7,0.9,1.8,1.5c1,0.5,1.9,0.2,2,0.6c0.2,0.6-1.4,2.2-2.3,1.8c-0.5-0.2-0.4-0.9-1.2-1.6	c-0.8-0.8-1.5-0.6-1.7-1.1C82.9,55.1,83.6,54.4,84.3,54.4z"/><path class="st5" d="M56.2,55.4c0.9,0.8,2.7-0.3,2.8,0c0.2,0.4-3.2,2.8-4,2.1c-0.3-0.3,0-0.8-0.4-1.6s-1.1-0.9-1-1.3	c0-0.6,1.2-1.2,1.8-0.9C56,53.9,55.6,54.8,56.2,55.4z"/><path class="st4" d="M23.8,58.5c0,0.2,0.2,0.7,0.4,0.7c0.2,0.1,0.3-0.2,0.8-0.4c0.5-0.2,0.7-0.1,0.8-0.3c0.1-0.2-0.2-0.4-0.5-0.9	c-0.2-0.6-0.1-0.8-0.2-1C24.9,56.6,23.7,57.5,23.8,58.5z"/><path class="st4" d="M23.1,62.3c-1.3,0.1-1.4,0.3-1.5,0.4c-0.1,0.2,0,0.6,0.1,0.8c0.4,0.4,1.2,0.1,1.3,0.1c0.8-0.3,1.4-1,1.2-1.3	C24.2,62.2,23.8,62.2,23.1,62.3z"/><path class="st4" d="M18.5,62.9c0.3,0.4,0.9,0.3,1.2,0.1c0.4-0.2,0.5-0.6,0.4-0.8c-0.1-0.1-0.3,0.1-0.7-0.1	c-0.5-0.2-0.6-0.6-0.8-0.6C18.4,61.7,18.1,62.4,18.5,62.9z"/><path class="st4" d="M14.2,60.7c-0.3,0-0.4,0.6-0.3,1.1c0.1,0.6,0.6,1.2,1,1.2c0.3,0,0.2-0.4,0.7-0.6c0.6-0.4,1.1-0.2,1.1-0.3	c0-0.2-0.4-0.4-0.7-0.5s-0.5,0-0.8-0.1C14.7,61.2,14.5,60.6,14.2,60.7z"/><path class="st4" d="M15.1,65.2c-0.1,0.2,0.1,0.4,0.3,0.9c0.2,0.8-0.2,1.3,0,1.4c0.1,0.1,0.5-0.2,0.7-0.6c0.1-0.2,0.5-0.6,0.3-1.1	c-0.1-0.3-0.3-0.6-0.7-0.7C15.4,65,15.2,65.1,15.1,65.2z"/><path class="st5" d="M57.4,49.2c1-0.5,2.2,0.3,2.4,0.1c0.1-0.1-0.3-0.5-1.6-1.5c-2-1.5-2.2-1.6-2.4-1.5c-0.2,0.2,0.2,0.8,0.4,2.2	c0.1,1.3-0.2,2.3,0,2.4C56.3,51,56.4,49.7,57.4,49.2z"/><path class="st5" d="M25.6,49.6c-0.5-0.2-0.5-0.7-0.9-0.9c-0.7-0.6-1.9,0-2-0.1c0-0.1,1.3-0.1,1.6-0.8c0.2-0.4,0-0.7,0.3-1	c0.3-0.3,0.7-0.3,0.9-0.2c1.1,0.1,2,1.6,1.6,2.5c-0.1,0.3-0.5,0.6-0.7,0.6C26.3,49.6,26,49.7,25.6,49.6z"/><path class="st5" d="M25.9,40.2c0.2-1,1-1.4,0.9-1.8c-0.1-0.3-0.7-0.6-1.1-0.3c-0.4,0.3-0.1,1-0.5,1.6c-0.2,0.3-0.3,0.3-1.2,0.8	c-0.9,0.6-1.4,0.8-1.3,0.9c0,0.2,0.8-0.2,1.8,0c0.9,0.2,1.3,0.7,1.5,0.5C26.1,41.9,25.7,41.3,25.9,40.2z"/><path class="st5" d="M28.5,29.9c0.4-1,0.3-1,0.6-1.4c0.6-1.1,1.5-1.6,1.5-1.8c0-0.1-0.2-0.1-1.1,0.2c-0.8,0.2-1.2,0.4-1.4,0.4	c-0.2,0.1-1.6,0.8-1.6,1.5c0,0.7,1.2,1.1,1,1.7c0,0.1,0,0.1-0.1,0.2c-0.3,0.4-0.6,0.4-0.7,0.6c-0.1,0.3,0.1,0.9,0.5,0.8	C27.6,32.2,28,31.1,28.5,29.9z"/><path class="st5" d="M19.1,44.3C17.3,44,17.3,44,17,44c-1.4,0.2-2.4,1.4-2.5,1.2c0-0.1,0.1-0.2,0.5-1.1c0.8-1.4,0.6-1.2,0.9-1.6	c0.5-0.7,1-1.5,1.7-1.6c0.8-0.2,1.2,0.5,1.9,0.2c0.7-0.3,0.9-1.2,1.3-1.2c0.2,0.1,0.4,0.7,0.2,1.2c-0.4,1.3-2.7,1.7-2.8,2	c0,0.2,1.2-0.2,2.2,0.5c0.3,0.2,0.7,0.6,0.7,0.7C21,44.5,20.6,44.5,19.1,44.3z"/><path class="st5" d="M21.2,32.7c0.1,0.1-0.1,0.6,0.3,1.1c0.3,0.5,0.7,0.4,0.8,0.8c0,0.3-0.1,0.7-0.3,0.9c-0.2,0.2-0.4,0.2-1.2,0.4	c-1,0.2-1.3,0.3-1.3,0.1c-0.1-0.2,0.4-0.6,0.9-1.4C20.9,33.6,21,32.7,21.2,32.7z"/><path class="st4" d="M19.4,67.2c0.2,0.3-0.1,0.5-0.1,1.3c-0.1,0.7,0.1,0.9-0.2,1.1c-0.3,0.3-1.2-0.1-1.3-0.1	C17,69,16.4,68.2,16.5,68c0.1-0.2,1,0.4,1.4,0c0.3-0.3,0-0.9,0.3-1.1C18.6,66.8,19.2,66.9,19.4,67.2z"/><path class="st4" d="M61.5,86.8c1.4-0.4,1.9,0.1,2.7-0.4c0.9-0.5,1.4-1.6,1.2-1.8c-0.1-0.2-0.5,0.1-1.7,0.4c-1.3,0.4-2,0.6-2.7,0.3	c-0.9-0.3-1.2-1.2-1.4-1c-0.2,0.1,0.1,0.7-0.1,1.7c-0.2,1.1-0.7,1.6-0.5,1.8C59.3,87.9,60.1,87.2,61.5,86.8z"/><path class="st4" d="M67.5,81.2c1.7-0.4,3.1-1.8,2.9-2.4c-0.2-0.5-1.4,0.2-2.8-0.7c-0.7-0.4-0.9-0.8-1.2-0.7c-0.3,0.2,0,0.9-0.3,2.2	c-0.2,0.8-0.5,1.1-0.3,1.4C66.1,81.5,67.3,81.2,67.5,81.2z"/><path class="st4" d="M70.7,72.6c-0.3-0.4-1.2-0.4-1.6,0.2c-0.3,0.6,0.2,1.4,0.7,1.4C70.4,74.2,71.1,73,70.7,72.6z"/><path class="st4" d="M66.9,70.4c0.6-0.2,0.3-1.3,1-2.2c1.1-1.4,3.6-0.8,3.7-1.3c0-0.3-0.8-0.7-1.7-0.7c-1.5-0.1-1.9,0.9-3,0.8	c-1.8-0.2-2.7-3.3-3-3.2c-0.2,0.1,0.2,1,0.6,3c0.3,1.5,0.3,2.1,0.9,2.7C65.5,69.8,66.3,70.7,66.9,70.4z"/><path class="st4" d="M78,72.7c0.2,0.3-0.3,0.8-1.3,2c-1.4,1.8-1.7,2.8-2.1,2.7c-0.3-0.1-0.2-0.6-0.6-2.1c-0.3-1.2-0.5-1.4-0.7-2.3	c0-0.2-0.3-1.9,0.1-2.1c0.3-0.1,0.6,1,1.7,1.5C76.5,73.1,77.8,72.2,78,72.7z"/><path class="st4" d="M81.5,71.2c0.2-0.2-0.2-0.8-0.1-1.6c0.2-1.3,1.7-2.1,1.6-2.1c0-0.1-1.8,1.7-2.8,1.3c-0.7-0.3-0.6-1.6-1-1.6	c-0.3,0-0.6,0.5-0.7,1c-0.1,0.8,0.6,1.5,1.3,2.2C80,70.3,81.2,71.4,81.5,71.2z"/><path class="st4" d="M83.2,74.6c0.9-0.2,2.5-1,2.7-2.4c0.1-0.9-0.4-1.6-0.7-2.1c-0.1-0.2-0.8-1.1-1.2-1c-0.4,0.1,0,1.1-0.3,2.2	c-0.5,1.9-2.3,2.7-2.1,3.2C81.8,74.9,83.1,74.6,83.2,74.6z"/><path class="st4" d="M71.6,28.7c-0.2-0.5-1.1,0-2.1-0.7c-1.3-1-0.9-2.9-1.6-3c-0.4,0-0.9,0.6-0.9,1.2c0.1,0.9,1.5,1,1.6,1.8	c0,0.5-0.4,0.6-1,2c-0.1,0.3-0.2,0.7-0.2,1c0.1,0.3,0.3,0.6,0.5,0.7C69.1,32.4,72.1,29.7,71.6,28.7z"/><path class="st4" d="M71.8,22.5c0.2-1-0.3-2.2-1.2-2.3c-0.5-0.1-1.2,0.3-1.3,0.7c-0.1,0.6,0.8,0.8,1,1.8c0.1,0.7-0.3,1.1-0.2,1.3	C70.4,24.2,71.5,23.5,71.8,22.5z"/><path class="st4" d="M68.1,18.4c0.4-0.9-0.7-2-1.1-2.4c-0.2-0.2-1.7-1.7-2.7-1.2c-0.4,0.2-0.8,0.8-0.7,1.3s0.6,0.4,0.9,0.9	c0.5,0.8-0.2,1.5,0.2,2C65.3,19.6,67.6,19.5,68.1,18.4z"/><path class="st4" d="M82,26.2c-0.2-0.3-1.2,0.3-1.6-0.2c-0.3-0.4,0.4-1,0.1-1.6c-0.3-0.7-1.9-0.9-2.2-0.4c-0.2,0.3,0.1,0.7,0.6,2	c0.6,1.8,0.5,2.4,0.9,2.6C80.6,28.9,82.3,26.6,82,26.2z"/><path class="st4" d="M77.5,29.2c0.1-0.4-0.8-1.2-1.1-1c-0.2,0.1-0.2,1.1,0.3,1.3C77.1,29.6,77.5,29.4,77.5,29.2z"/><path class="st4" d="M84,36c0.8,0.3,1.8-0.2,1.8-0.7s-0.8-0.5-1-1.3c-0.3-0.9,0.5-1.5,0.2-2.1s-1.4-0.8-2-0.4	c-0.5,0.4-0.4,1.1-0.3,1.9C82.8,34.2,83,35.7,84,36z"/></svg>