<?xml version="1.0" encoding="utf-8"?><!-- Generator: Adobe Illustrator 26.0.3, SVG Export Plug-In . SVG Version: 6.00 Build 0)  --><svg version="1.1" id="Ebene_2_00000126308112139821010380000011903406711838980787_"	 xmlns="http://www.w3.org/2000/svg" xmlns:xlink="http://www.w3.org/1999/xlink" x="0px" y="0px" viewBox="0 0 100 100"	 style="enable-background:new 0 0 100 100;" xml:space="preserve"><style type="text/css">	.st0{fill:#8A3C8F;stroke:#000000;stroke-width:2;stroke-miterlimit:10;}	.st1{fill:#69B42D;stroke:#000000;stroke-miterlimit:10;}	.st2{fill:#DB8F00;stroke:#000000;stroke-width:0.5;stroke-miterlimit:10;}	.st3{fill:#493127;stroke:#000000;stroke-width:0.25;stroke-miterlimit:10;}	.st4{fill:#C78F55;stroke:#000000;stroke-width:0.5;stroke-miterlimit:10;}	.st5{fill:#493127;stroke:#000000;stroke-width:0.25;stroke-miterlimit:10;}	.st6{fill:none;stroke:#000000;stroke-width:0.25;stroke-miterlimit:10;}</style><polygon class="st0" points="8,74.4 50,98.7 92,74.4 92,25.9 50,1.7 8,25.9 "/><path class="st1" d="M40.7,92.5c4,2.1,6.9,5.6,9,5c2.8-0.8,3.6-8.6,3.7-12c0.1-4.1,0-4.9,0.9-7.1c1.8-4.7,5-4.5,6.1-7.4	c2.2-5.9-9.6-10.9-13.9-25.5c-0.9-3.2-1.3-6.3-2.1-12.6c-0.8-6.9-1.2-10.4-0.9-15c0.6-8,2.9-11.2,1.4-12.4c-1.7-1.3-5.2,2-14.5,7.4	c-11.7,6.8-16.3,7.5-16.7,11.1c-0.6,5.1,7.9,8.4,6.7,12.5c-1.1,3.6-7.8,2.2-11,7.4c-1,1.7-1,4.8-1,11c0,7,0,10.5,1.3,11.7	c2.9,2.8,7.6-0.7,18.6-0.8c5,0,13.7,0.7,14.2,3.3c0.3,1.8-3.5,4.1-8.7,7.4c-6.3,3.9-9.3,4.5-9.2,6.1c0.1,1.3,3.6,3.2,10.5,6.9	C37.5,90.9,37.8,91,40.7,92.5z"/><g>	<path class="st2" d="M87.8,27.2c-0.2,0-0.6-0.1-1,0c-0.4,0-0.7,0.1-1.1,0.3c-1.1,0.4-1.8,1-2.1,1.2c-1.2,0.9-1.8,1.3-1.9,1.9		c-0.2,1.1,1.2,1.5,1.4,3c0.2,1.5-1,2.1-0.5,3c0.3,0.8,1.5,1.1,2.3,0.9c1.1-0.2,0.9-1.6,2.3-2.8c1.4-1.3,2.6-0.7,3.2-1.9		c0.7-1.4-0.4-3.3-0.6-3.6C89.1,28.1,88.2,27.5,87.8,27.2z"/>	<path class="st3" d="M87.9,28.9c0-0.1-0.4,0-1,0c-0.6,0-0.7-0.1-0.8,0c-0.5,0.3-0.5,1.7,0,2c0.3,0.2,0.7,0.1,0.8-0.2		c0.2-0.3-0.3-0.8-0.2-1.2C87,29,87.9,29,87.9,28.9z"/>	<path class="st3" d="M89.3,31.7c-0.1-0.2-0.3-0.3-0.6-0.2c-0.2,0.1-0.3,0.2-0.4,0.4c-0.5,0.9-0.9,1.1-0.8,1.2		c0.1,0.1,0.7-0.3,1.1-0.5C88.9,32.3,89.4,32,89.3,31.7z"/>	<path class="st3" d="M84.8,30.5c0.1,0.2,0.1,0.4,0,0.6c-0.2,0.2-0.7-0.2-0.9,0c-0.3,0.2,0.2,1.1-0.1,1.4c-0.2,0.2-0.5,0.1-0.7-0.1		c-0.4-0.3-0.4-1.1-0.1-1.6C83.6,30.1,84.6,30.1,84.8,30.5z"/>	<path class="st3" d="M85.9,32.7c-0.2-0.1-0.6,0.1-0.6,0.4c0,0.3,0.5,0.6,0.7,0.5C86.2,33.4,86.2,32.8,85.9,32.7z"/>	<path class="st3" d="M85.7,34.2c-0.3-0.2-0.7,0-0.9,0.3c-0.2,0.4,0.3,0.9,0.1,1.2c-0.2,0.3-0.9-0.1-1.1,0.2		c-0.1,0.2,0.1,0.6,0.3,0.7c0.5,0.3,1.3-0.2,1.7-0.9C86,35.2,86.1,34.4,85.7,34.2z"/></g><g>	<path class="st4" d="M64.5,19.8c1.1-0.4,2.3-1.4,2.4-2.3c0-0.2,0-0.9-1.8-1.9c-3.5-1.8-5.7-0.3-7.1-2c-1-1.2-0.5-2.7-1.5-3		c-0.9-0.2-2.3,0.7-2.9,1.9c-0.4,0.7-0.4,1.2-0.7,4.5c-0.2,2.3-0.3,2.7-0.6,3c-1,1.2-2.7,0.7-3.1,1.5c-0.3,0.7,0.4,1.8,1.2,2.3		c1.8,1.1,4.8,0.3,6.8-1.5c1.6-1.4,1.5-2.4,2.7-2.9C61.6,18.8,62.5,20.5,64.5,19.8z"/>	<path class="st5" d="M60.9,16.5c-0.3,0-0.7,0.3-0.7,0.6c-0.1,0.4,0.8,1,1.6,0.8c0.9-0.2,1.5-1.2,1.4-1.3c-0.1-0.1-0.8,0.6-1.5,0.4		C61.3,16.9,61.3,16.5,60.9,16.5z"/>	<path class="st5" d="M56.9,17.5c0.1,0,1.1-0.5,1.2-1.3c0.2-1.1-1.2-2.3-2.4-1.9c-0.4,0.2-1,0.6-0.9,0.9c0,0.7,2,0.6,2,1.2		c0,0.5-1.4,0.9-1.3,1.2C55.6,17.7,56.3,17.8,56.9,17.5z"/>	<path class="st5" d="M55.6,19.5c0-0.9-1.2-1.4-1.8-0.9c-0.4,0.3-0.5,0.9-0.3,1.4c0.2,0.7,1,1,1.6,0.6		C55.4,20.3,55.6,19.9,55.6,19.5z"/>	<path class="st5" d="M52.8,21.7c-0.1-0.3-0.5-0.4-0.8-0.2c-0.4,0.3-0.4,1.1-0.2,1.2C52.2,22.9,52.9,22.1,52.8,21.7z"/></g><g>	<path class="st4" d="M30.7,68.2c-1.4,0-2.6,0.5-3.1,0.6c-2.5,0.9-2.9,1.9-6.6,4.4c-2.7,1.8-4,2.3-4,2.9c0,0.7,1.6,0.8,2.9,0.8		c3.1-0.2,4.9-1.9,7.5-1.9c1.5,0,1.2,0.6,2.5,0.7c3.7,0.1,11.2-5,10.7-6.2c-0.4-0.7-3.3,0.7-6.2-0.2C32.9,68.8,32.6,68.1,30.7,68.2z		"/>	<path class="st5" d="M27.4,70.9c-0.4,0.2-1-0.2-2,0.1c-0.1,0-0.7,0.2-0.8,0.4c-0.2,0.4,0.7,0.7,1.8,0.7c0.4,0,1.5,0,2.5-0.7		c0.9-0.6,1.2-1.5,0.6-1.8c-0.4-0.2-1.2-0.1-1.6,0.2C27.4,70.3,27.8,70.7,27.4,70.9z"/>	<path class="st5" d="M31.3,71.6c-0.1,0.6-1.3,1.3-1.7,1.3c-0.2,0-0.2-0.3-0.2-0.4c0.1-0.6,1-1.4,1.5-1.4		C31.3,71,31.4,71.3,31.3,71.6z"/>	<path class="st5" d="M35.7,70.7c-0.7,0.4-1,1-0.6,1.2c0.3,0.1,1.2-0.2,1.6-0.6c0.3-0.3,0.5-0.7,0.2-0.8		C36.6,70.3,36,70.5,35.7,70.7z"/>	<path class="st5" d="M23.6,72.9c-0.2-0.1-2.4,0.8-2.7,1.7c-0.2,0.4,0.1,0.8,0.4,0.7c0.2,0,0.4-0.2,1.4-1.3		C23.6,73,23.6,73,23.6,72.9z"/></g><path class="st6" d="M54.8,23.3"/><g>	<path class="st4" d="M71.8,63.3c1.7,0.3,2.2-4.2,6.1-5.8c2.7-1.1,4.1,0.3,6.5-1.2c1.8-1.2,2.6-3.1,3.2-4.6c1.3-3.3,0.8-6.2,0.4-7.9		c-0.3-1.7-0.6-3-1.4-3.3c-0.3-0.1-1.1-0.2-4.5,3.2c-3,3.1-3.3,4.1-5.3,5.3c-1.7,1-1.9,0.5-3.2,1.4c-0.4,0.3-3.4,2.4-4,6.1		C69.2,59.5,70.2,63.1,71.8,63.3z"/>	<path class="st5" d="M82.8,52.9c0.6-0.4,1.1-0.8,1.2-1.4c0.2-1.1-1-2.2-1.4-2c-0.3,0.1,0.2,1.2-0.3,2.4c-0.5,1.2-1.5,1.6-1.4,1.8		C81,53.8,82,53.4,82.8,52.9z"/>	<path class="st5" d="M77.1,54.2c0.1-0.2-0.4-0.3-1.5-1.4c-1-1-1.1-1.4-1.6-1.4c-0.6,0-1.4,0.8-1.3,1.4		C72.9,54.1,76.9,54.7,77.1,54.2z"/>	<path class="st5" d="M74.7,55.8c0-0.3-0.3-0.6-0.6-0.7c-0.5-0.1-1,0.2-1.1,0.6c-0.2,0.6,0.3,1.2,0.9,1.2		C74.3,56.9,74.7,56.3,74.7,55.8z"/>	<path class="st5" d="M72.3,58c-0.6-0.2-1.3,0.2-1.5,0.7c-0.2,0.4-0.3,1,0,1.3c0.5,0.6,2,0.3,2.3-0.5C73.2,59,72.9,58.3,72.3,58z"/>	<path class="st5" d="M79.2,50.1c0.8-0.3,0.9-1.5,0.5-1.8c-0.4-0.4-1.9,0.3-1.9,0.9C77.8,49.7,78.5,50.4,79.2,50.1z"/>	<path class="st5" d="M84.3,48.5c-0.1-0.1,0.5-0.8,0.3-1.6c-0.3-1-1.5-0.9-1.9-1.9c-0.3-0.8,0.1-1.8,0.6-2c0.4-0.1,0.8,0.2,1.1,0.6		c0.5,0.7-0.1,1.6,0.3,2.1c0.4,0.4,0.9,0.1,1.1,0.4C86.3,46.7,84.5,48.6,84.3,48.5z"/></g><g>	<path class="st2" d="M65.9,49.5c-1.8-0.6-4.3,2.8-5.3,4.4c-0.5,0.9-3,5.1-1.1,7.7c0.6,0.9,1.9,1.7,3,1.5c1-0.2,1.2-1.2,2.7-4		c1.8-3.3,2.3-3.4,2.5-4.7C67.8,52.5,67.3,49.9,65.9,49.5z"/>	<path class="st3" d="M66,53.8c-0.5-0.3-1.4,0.1-1.5,0.8c-0.1,0.4,0.2,1,0.7,1.1c0.5,0.1,1-0.3,1.1-0.7C66.4,54.5,66.3,54,66,53.8z"		/>	<path class="st3" d="M62.5,58.4c-0.4,0.2-0.4,1-0.4,2.2c0,0.6,0,0.8,0.1,0.9c0.4,0.2,2-1.4,1.5-2.4C63.5,58.6,62.9,58.2,62.5,58.4z		"/></g><g>	<path class="st2" d="M58,83.4c-0.7,1.3-0.8,2.5-0.5,3.2c0.9,2,6-0.8,7.3-3.2c0.3-0.5,0.2-0.6,0.6-3.1c0.3-1.9,0.5-2.9,0.9-3.8		c0.9-2.2,2.3-3.1,2.2-3.7c0-1.3-5.9,1.2-7,3.5c-0.6,1.3,0.7,1.7,0,3.3C60.8,81.1,59.1,81.5,58,83.4z"/>	<path class="st3" d="M59.9,83.3c0,0.6,0.8,0.7,1.5,0.3c0.6-0.3,1.5-1,1.8-1.9c0.4-1-0.1-1.7-0.7-1.6C61.4,80.4,59.9,82.4,59.9,83.3		z"/>	<path class="st3" d="M62.7,78.2c-0.4,1,0.8,1.8,1.5,1.2c0.6-0.5,1.1-2.7,0.9-2l0,0c0,0,0.4-1,0.5-1.6c0.1-0.9-0.6-1.4-0.9-1.1		c-0.3,0.3-0.2,0.9-0.8,2C63.3,77.5,62.9,77.7,62.7,78.2z"/></g><g>	<path class="st4" d="M77.6,77.9c1.2-0.5,1.4-1.4,2.4-2.9c2.1-3.2,3.5-2.8,5.3-5.7c0.6-0.9,2.4-3.9,1.3-5.2		c-0.6-0.7-2.1-0.5-5.1-0.3c-2.8,0.3-4.2,0.4-5.3,1.2c-0.3,0.2-2.1,1.4-2.6,3.5c-0.6,2.5,1.3,3.5,0.6,6.3c-0.3,1.4-0.9,1.9-0.6,2.6		C74.2,78.4,76.2,78.6,77.6,77.9z"/>	<path class="st5" d="M75.2,75.6c0.4,0.4,1.7,0.4,2.2-0.4c0.4-0.8-0.4-1.8-1-1.8C75.6,73.4,74.8,75.1,75.2,75.6z"/>	<path class="st5" d="M77.7,70.8c-0.2,0.4,0.1,0.9,0.5,1c0.6,0.2,1.5-0.8,1.3-1.2S77.9,70.2,77.7,70.8z"/>	<path class="st5" d="M76.4,70.2c1,0.5,2.3-0.3,2.3-0.4c0.9-0.7,1.3-1.9,1.1-2c-0.2-0.2-0.7,0.6-1.9,0.9c-1.2,0.3-1.9,0-2.2,0.4		C75.5,69.3,75.9,69.9,76.4,70.2z"/>	<path class="st5" d="M81.8,67.6c0.5,0.5,1.4,0.5,1.9,0.1c0.4-0.4,0.5-1,0.3-1.4c-0.4-0.7-1.7-0.9-2.3-0.3		C81.4,66.3,81.3,67.1,81.8,67.6z"/></g><g>	<path class="st4" d="M11.2,39.7c0.7,0.2,1-0.3,2.2-0.9c1.7-0.9,1.9-0.6,2.5-1.3c0.9-1,1.1-2.3,1.1-2.5c0.2-2.6-1.9-4.5-3-5.4		c-0.5-0.4-1.3-1.1-1.7-0.8c-0.5,0.3-0.4,1.3-0.4,1.9c0.1,1.4,0.6,1.6,0.5,2.4c-0.2,1.1-1.1,1.2-1.1,2.3c0,0.7,0.4,0.9,0.3,1.5		c-0.2,1.1-1.5,1.3-1.4,2C10.2,39.2,10.7,39.6,11.2,39.7z"/>	<path class="st5" d="M12.4,37.1c0.1,0.2,0.7,0.2,1.2,0.2c0.6,0,1.1,0,1.2-0.3c0.1-0.2,0-0.6-0.1-0.7c-0.3-0.3-0.7-0.2-1.1-0.1		C13,36.4,12.3,36.9,12.4,37.1z"/>	<path class="st5" d="M13.6,34.4c0.2,0.2,0.2,0.7-0.1,0.8c-0.2,0.1-0.5,0-0.7-0.2c-0.1-0.2,0-0.4,0.1-0.6		C13.1,34.3,13.4,34.2,13.6,34.4z"/>	<path class="st5" d="M13.5,32c0.2,0.2,0.7-0.1,0.7-0.4c0.1-0.4-0.5-0.8-0.7-0.7C13.3,31.1,13.2,31.8,13.5,32z"/>	<path class="st5" d="M15.4,35c0.4-0.1,0.9,0.2,1,0.5c0,0.2-0.3,0.5-0.6,0.5c-0.4,0-0.8-0.4-0.8-0.7C15,35.1,15.4,35,15.4,35z"/></g><g>	<path class="st2" d="M78.3,28.2c-1.2-1.3-2.6-1-9.9-4.1c-3.4-1.4-5.4-2.5-5.9-2.1c-0.5,0.3,0.7,1.3,1.3,3.6c0.4,1.4,0,1.3,0.3,2.1		c1,2.1,3.8,2.6,4.9,4.5c1.1,1.8-1,2.1,0.1,3.9c1.2,1.9,5.2,3.9,7,3.6c1.4-0.2,0.6-1.6,0.9-4.5C77.6,30.5,79.9,29.9,78.3,28.2z"/>	<path class="st3" d="M75.9,28.2c0,0.2-0.9,0.3-1.7,0.1c-1.2-0.3-2.5-1.1-2.5-1.3c0.1-0.2,1.6,0.2,2.3,0.4		C74.2,27.5,75.8,27.9,75.9,28.2z"/>	<path class="st3" d="M72.5,29.8c0.3,0.3-0.5,0.9-1.1,0.6c-0.4-0.1-0.7-0.6-0.6-0.8C71,29.3,72.3,29.6,72.5,29.8z"/>	<path class="st3" d="M70.8,28c-0.1,0.2-0.7,0-1.5,0.2c-0.6,0.2-0.7,0.4-1,0.3c-0.3-0.1-0.5-0.7-0.4-1.1c0-0.1,0.2-1,1-0.9		C69.9,26.5,71,27.6,70.8,28z"/>	<path class="st3" d="M74.8,30.8c0.3-0.3,1-0.4,1.2-0.2c0.3,0.2,0.1,0.6-0.2,0.9c-0.3,0.3-0.9,0.5-1.2,0.4		C74.4,31.6,74.5,31.1,74.8,30.8z"/>	<path class="st3" d="M75.5,33.6c-0.3-0.2-1,0.8-1.8,0.5c-0.6-0.2-0.8-0.8-1.2-0.9c-0.5-0.1-1,0.5-0.7,1c0.4,0.6,2,1.1,3,0.9		C75.8,34.9,75.7,33.8,75.5,33.6z"/>	<path class="st3" d="M74.3,36.9c-0.3-0.2-1.4-0.4-1.7,0.1c-0.2,0.4,0.3,1,0.7,1.1C73.9,38.2,74.7,37.2,74.3,36.9z"/></g><g>	<path class="st2" d="M59.1,48.5c1.4,0.2,3.3-0.1,3.7-1.1c0.4-0.9-1.1-1.6-1-3.1c0-2,2.7-2.4,3.2-4.6c0.4-2-1.2-4.6-3-4.9		c-1.4-0.3-1.9,1.3-4.7,2.2c-2.6,0.8-3.5-0.1-4.3,0.7C51.3,39.6,54.4,47.7,59.1,48.5z"/>	<path class="st3" d="M60.3,44.1c-0.1-1.2-1.8-2.2-2.4-1.8c-0.4,0.3-0.4,1.4,0.1,2.1c0.4,0.5,1.2,1.1,1.7,0.8		C60.1,45,60.3,44.5,60.3,44.1z"/>	<path class="st3" d="M58,39.4c0.1-0.4-0.3-0.8-0.6-0.8c-0.5-0.1-1,0.6-0.8,1.1c0.1,0.3,0.5,0.4,0.8,0.3		C57.7,39.9,57.9,39.7,58,39.4z"/>	<path class="st3" d="M60.8,41.5c0.3,0.1,1-0.6,0.8-1.2c-0.2-0.6-0.9-0.8-1.2-0.6C60.1,40,60.4,41.4,60.8,41.5z"/></g></svg>