<?xml version="1.0" encoding="utf-8"?><!-- Generator: Adobe Illustrator 26.0.3, SVG Export Plug-In . SVG Version: 6.00 Build 0)  --><svg version="1.1" id="Ebene_2" xmlns="http://www.w3.org/2000/svg" xmlns:xlink="http://www.w3.org/1999/xlink" x="0px" y="0px"	 viewBox="0 0 100 100" style="enable-background:new 0 0 100 100;" xml:space="preserve"><style type="text/css">	.st0{fill:#8A3C8F;stroke:#000000;stroke-width:2;stroke-miterlimit:10;}	.st1{fill:#69B42D;stroke:#000000;stroke-miterlimit:10;}	.st2{fill:#C78F55;stroke:#000000;stroke-width:0.5;stroke-miterlimit:10;}	.st3{fill:#C78F55;stroke:#000000;stroke-width:0.5;stroke-miterlimit:10;}	.st4{fill:none;stroke:#000000;stroke-miterlimit:10;}	.st5{fill:#DB6500;stroke:#000000;stroke-width:0.5;stroke-miterlimit:10;}	.st6{fill:#493127;stroke:#000000;stroke-width:0.25;stroke-miterlimit:10;}	.st7{fill:#493127;stroke:#000000;stroke-width:0.25;stroke-miterlimit:10;}</style><polygon class="st0" points="92,25.75 50,1.5 8,25.75 8,74.25 50,98.5 92,74.25 "/><path class="st1" d="M55.04,6.3c-1.42,1.07-0.37,3.21-2.37,8.15c-1.15,2.85-1.81,2.86-2.67,4.89c-2.15,5.1,0.48,8.54,0.44,15.11	c-0.03,4.49-1.29,7.76-2.52,10.96C43.59,56.66,34.26,63.19,29.7,66.3c-9.32,6.35-15.14,6.49-15.26,9.78	c-0.1,2.68,3.72,3.97,15.38,10.78c11.54,6.73,17.54,11.15,18.99,9.66c1.44-1.48-3.91-6.47-2.22-12.59c0.86-3.11,3.06-4.87,4.59-6.22	c0,0,12.15-11.88,17.19-27.41c1.06-3.26,1.65-5.17,1.48-7.85c-0.31-4.85-2.85-7.63-1.33-9.78c1.05-1.49,2.99-1.07,4-3.11	c0.69-1.41,0.16-2.17,0.59-3.11c1.56-3.42,11.87-0.52,12.59-2.37c0.54-1.39-4.79-4.31-15.28-10.78C61.26,7.64,57.07,4.76,55.04,6.3z	"/><path class="st2" d="M17.85,29.41c-0.34,1.25,0.07,2.92,0.44,4.44c0.42,1.69,0.62,2.54,1.19,2.96c1.63,1.24,3.84-1.52,8.89-2.07	c4.42-0.48,8,0.59,8,0.59c1.98,0.59,2.85,1.24,3.7,0.74c1.3-0.76,0.37-2.89,1.78-6.52c0.77-1.98,1.19-1.72,1.93-3.7	c1-2.7,0.26-3.27,1.04-6.37c0.35-1.42,1.08-3.07,2.52-6.37c1.25-2.85,1.77-3.75,1.33-4.3C48,7.98,45.63,8.61,44.07,9.41	c-2.39,1.22-2.49,2.64-5.04,4.59c-2.11,1.62-2.7,1.16-4.74,2.52c-3.37,2.25-2.76,4.18-5.48,6.81C24.3,27.7,18.75,26.12,17.85,29.41z	"/><path class="st3" d="M14.3,35.48c0.87-0.31,2.12-0.13,2.67,0.59c0.93,1.22-0.84,3.09,0,4.44c0.73,1.19,2.92,1.09,4,1.04	c3.92-0.18,4.9-2.45,7.56-1.93c2.17,0.42,3.41,2.3,3.56,2.52c1.11,1.72,0.22,2.59,1.04,5.33c0.51,1.72,1.38,2.97,3.11,5.48	c1.18,1.7,2.2,1.91,2.37,3.11c0.25,1.79-1.32,3.26-1.48,3.41c-1.47,1.34-3.8,1.65-5.48,0.89c-1.91-0.86-1.83-2.56-3.56-2.96	c-1.49-0.35-1.89,0.85-3.56,0.89c-2.95,0.06-3.45-3.65-7.7-5.19c-2.43-0.88-3.51-0.12-4.59-1.33c-0.8-0.9-0.84-2.39-0.89-5.33	c-0.03-1.88-0.05-3.28,0.3-5.19C12.11,38.66,12.58,36.09,14.3,35.48z"/><path class="st4" d="M38.59,56.07"/><path class="st2" d="M13.85,56.52c1.07-0.52,1.69-0.81,2.37-0.74c1.86,0.2,1.68,2.87,3.85,4c2.12,1.1,3.65-0.74,6.07,0.59	c0.29,0.16,1.68,0.92,2.07,2.37c0.44,1.59-0.56,3.09-1.19,4c-1.54,2.24-2.78,2.12-7.61,5.26c-2.71,1.76-3.69,2.69-5.04,2.33	c-1.39-0.37-2.11-1.84-2.31-2.25c-1.01-2.07-0.37-4.37,0.15-6.22c0.61-2.17,1.13-2.24,1.04-3.41c-0.17-2.17-2.08-3.01-1.63-4.3	C11.86,57.48,12.58,57.13,13.85,56.52z"/><path class="st5" d="M60.81,74.59c-1.28-0.38-2.79,0.39-3.56,1.33c-1,1.23-0.21,2.16-0.74,4.3c-0.77,3.11-2.96,3.26-4,6.81	c-0.37,1.27-0.86,2.92-0.15,3.56c1.36,1.23,5.05-3.06,13.19-6.52c5.18-2.21,8.65-2.58,9.48-5.33c0.35-1.18,0.21-2.74-0.59-3.26	c-0.67-0.43-1.59-0.02-5.93,1.93c-2.26,1.01-3.4,1.51-4,1.33C62.56,78.16,62.83,75.19,60.81,74.59z"/><path class="st2" d="M63.48,69.11c-0.53,2.83,1.59,6.59,4,6.96c3.27,0.51,4.81-5.58,9.04-5.48c3.15,0.08,4.29,3.49,7.41,2.96	c1.61-0.27,3.03-1.47,3.7-2.81c0.56-1.13,0.47-2.11-2.52-10.52c-0.96-2.71-1.28-3.52-2.22-4.15c-0.64-0.42-1.35-0.62-6.07-0.44	c-4.45,0.17-4.88,0.39-5.19,0.59c-1.9,1.26-1.1,3.15-2.81,6.37C66.67,66.6,64,66.33,63.48,69.11z"/><path class="st3" d="M73.26,52.07c1.18,1,2.22,0.02,6.22,0.59c2.39,0.34,2.8,0.81,4.3,0.59c0.47-0.07,2.8-0.4,4-2.07	c0.63-0.87,0.8-1.92-0.3-8c-1.03-5.74-1.42-6.12-1.04-7.7c0.51-2.07,1.6-3.12,1.04-4.59c-0.42-1.11-1.55-1.82-2.52-2.07	c-0.48-0.12-1.77-0.35-5.93,2.37c-3.44,2.25-5.16,3.42-5.48,5.33c-0.24,1.43,0.55,1.54,0.59,3.56c0.06,2.88-1.53,3.51-1.93,6.67	C72.08,47.91,71.72,50.77,73.26,52.07z"/><path class="st3" d="M75.33,30c0.84,0.19,1.1-0.88,2.96-1.63c1.26-0.51,1.72-0.25,2.67-0.89c0.53-0.36,1.53-1.22,1.33-1.78	c-0.29-0.82-2.77,0.29-4.87-1.1c-1.38-0.91-1.41-2.12-2.39-2.16c-0.97-0.04-2,1.1-2.22,2.22c-0.15,0.76,0.19,1.5,0.89,2.96	C74.41,29.12,74.76,29.87,75.33,30z"/><path class="st2" d="M41.11,38.44l3.7-5.93l0,0c0,0,1.44-0.4,1.93,0c0.58,0.48-0.54,1.86-0.74,4c-0.21,2.28,0.87,2.67,1.04,5.93	c0.09,1.82,0.14,2.75-0.44,3.7c-1.05,1.73-2.81,1.35-3.56,2.96c-0.76,1.64,0.46,3.32-0.15,3.7c-0.51,0.32-1.81-0.58-2.67-1.63	c-1.6-1.96-0.77-3.33-2.22-6.07c-1.15-2.17-2.26-2.41-2.07-3.41C36.2,40.23,38.63,40.67,41.11,38.44z"/><path class="st6" d="M25.41,29.48c0.13,0.54,0.19,1.15-0.15,1.48c-0.5,0.49-1.46-0.07-1.93,0.44c-0.31,0.34-0.29,1.02,0,1.41	c0.47,0.63,1.6,0.4,3.19,0.07c0.42-0.09,0.8-0.19,0.81-0.37c0.03-0.29-0.89-0.36-1.11-0.96c-0.23-0.61,0.47-1.14,0.22-1.63	C26.29,29.63,25.87,29.51,25.41,29.48z"/><path class="st6" d="M34.22,26.52c-0.38,0.33-1.1,0.96-1.48,0.74c-0.3-0.18-0.36-0.86-0.07-1.26c0.37-0.5,1.05-0.19,1.41-0.67	c0.38-0.5-0.13-1.17,0.22-1.48c0.31-0.28,1.11-0.12,1.33,0.3C36.04,24.91,34.41,26.35,34.22,26.52z"/><path class="st6" d="M33.85,21.93c-0.05,0.28,0.16,0.56,0.3,0.74c0.23,0.31,0.52,0.45,0.67,0.52c0.27,0.13,0.58,0.27,0.81,0.15	c0.27-0.14,0.16-0.49,0.37-0.96c0.36-0.79,1.18-0.95,1.11-1.19c-0.07-0.25-1.04-0.16-1.19-0.15C35.69,21.06,33.97,21.21,33.85,21.93	z"/><path class="st6" d="M40,16.3c0.01,0.2,0.69,0.13,1.56,0.67c0.63,0.39,0.75,0.72,1.04,0.67c0.36-0.06,0.37-0.6,0.81-1.48	c0.27-0.55,0.7-1.08,1.56-2.15c0.78-0.97,1.12-1.29,1.04-1.41c-0.12-0.16-0.99,0.18-1.7,0.67c-1.26,0.86-1.13,1.55-2.22,2.22	C41.03,16.12,39.99,16.05,40,16.3z"/><path class="st6" d="M36.81,31.85c0.41-0.36,1.03,0.04,1.33-0.3c0.39-0.43-0.27-1.44-0.07-1.56c0.17-0.1,0.95,0.54,1.26,1.48	c0.08,0.25,0.52,1.58-0.3,2.22c-0.66,0.52-1.86,0.35-2.3-0.37C36.47,32.88,36.46,32.17,36.81,31.85z"/><path class="st6" d="M44.37,35.93c-0.59-0.13-1.72,1.28-1.56,2.52c0.08,0.59,0.45,1.15,0.67,1.11c0.2-0.03,0.1-0.55,0.52-1.11	c0.34-0.45,0.62-0.39,0.81-0.74C45.15,37.11,44.83,36.03,44.37,35.93z"/><path class="st6" d="M39.19,41.56c-0.13,0.04,0.17,0.69-0.22,1.19c-0.47,0.6-1.45,0.32-1.56,0.67c-0.1,0.31,0.69,0.55,1.26,1.41	c0.69,1.04,0.47,2.09,0.81,2.15c0.26,0.04,0.58-0.49,0.74-0.89C41.06,44.04,39.45,41.48,39.19,41.56z"/><path class="st6" d="M43.93,43.7c-0.15-0.01-0.52,0.94-0.3,1.93c0.05,0.23,0.27,1.19,0.81,1.26c0.58,0.07,1.24-0.93,1.04-1.33	c-0.14-0.28-0.61-0.08-1.04-0.44C43.88,44.63,44.08,43.71,43.93,43.7z"/><path class="st7" d="M15.41,40.44c-0.27-0.07-0.75,0.69-0.96,1.33c-0.28,0.86-0.22,1.92,0.07,2c0.27,0.07,0.75-0.69,0.96-1.33	C15.76,41.59,15.71,40.52,15.41,40.44z"/><path class="st7" d="M17.7,45.33c0.91,0.2,1.28-0.03,1.48,0.22c0.29,0.38-0.08,1.44-0.67,1.56c-0.41,0.08-0.77-0.33-1.26-0.89	c-0.28-0.32-0.82-1.01-0.67-1.19C16.7,44.92,17,45.18,17.7,45.33z"/><path class="st7" d="M22.37,46.67c-0.14,0.38,0.13,0.57,0,0.89c-0.22,0.55-1.19,0.35-1.41,0.81c-0.19,0.41,0.31,1.11,0.81,1.48	c1.17,0.86,3.02,0.46,3.11,0c0.07-0.35-0.95-0.44-1.41-1.41c-0.51-1.08,0.16-2.18-0.22-2.37C23.02,45.96,22.52,46.27,22.37,46.67z"	/><path class="st7" d="M25.41,43.85c-0.26,0.46-0.26,1.18,0.07,1.41c0.54,0.37,1.65-0.76,2.15-0.37c0.35,0.27,0.02,0.98,0.37,1.19	c0.27,0.16,0.78-0.1,1.04-0.44c0.41-0.57,0.23-1.49-0.22-2C27.97,42.68,25.96,42.89,25.41,43.85z"/><path class="st7" d="M28.44,50c-0.22,0.24,0.18,1.22,0.96,1.63c0.61,0.32,1.39,0.25,1.93-0.15C31.93,51.04,32.21,50.2,32,50	c-0.18-0.18-0.58,0.27-1.41,0.37C29.4,50.51,28.67,49.75,28.44,50z"/><path class="st7" d="M21.19,52.22c-0.05,0.29,0.6,0.72,1.19,0.89c0.88,0.26,1.16-0.17,1.78,0.07c0.75,0.3,0.58,1.05,1.56,1.93	c0.5,0.45,1.34,0.97,1.63,0.74c0.29-0.23,0.09-1.24-0.52-1.78c-0.55-0.48-1.02-0.21-1.41-0.67c-0.48-0.57,0.01-1.31-0.44-1.7	c-0.19-0.17-0.42-0.15-1.48,0C21.37,52.01,21.21,52.1,21.19,52.22z"/><path class="st7" d="M30.59,55.04c0.03,0.7,1.17,0.94,1.11,1.48c-0.05,0.49-1,0.56-1.04,1.11c-0.02,0.3,0.24,0.61,0.52,0.74	c0.56,0.25,0.95-0.35,1.63-0.3c1.08,0.08,1.43,1.67,2,1.56c0.46-0.09,0.89-1.26,0.52-2.07c-0.43-0.93-1.52-0.56-2.59-1.7	c-0.82-0.87-0.83-1.77-1.33-1.78C31.02,54.07,30.57,54.58,30.59,55.04z"/><path class="st6" d="M17.33,61.85c0.11,0.24,0.75,0.19,1.41,0.07c-0.15,0.43-0.27,0.98,0,1.33c0.43,0.56,1.47,0.15,1.7,0.59	c0.24,0.46-0.51,1.58-1.19,1.56c-0.66-0.02-1.04-1.15-1.33-1.04c-0.25,0.09,0.06,0.87-0.37,1.41c-0.4,0.5-1.32,0.63-1.63,0.3	c-0.26-0.28-0.06-0.87,0.22-1.7c0.23-0.68,0.4-0.85,0.44-1.41c0.02-0.21,0.04-0.55-0.07-0.96c-0.14-0.5-0.35-0.61-0.3-0.81	c0.13-0.49,1.48-0.67,1.63-0.37C17.98,61.07,17.2,61.56,17.33,61.85z"/><path class="st6" d="M22.22,64.3c0.36-0.71,2.07-0.75,2.44-0.15c0.15,0.24,0.06,0.54-0.07,1.04c-0.14,0.51-0.34,1.24-0.74,1.33	C23.18,66.68,21.81,65.1,22.22,64.3z"/><path class="st6" d="M16.52,70.3c-0.49-0.01-0.84,0.41-1.11,0.74c-0.27,0.32-0.57,0.85-0.44,0.96c0.16,0.16,0.81-0.68,1.85-0.67	c0.48,0,0.74,0.19,0.81,0.07C17.76,71.21,17.22,70.32,16.52,70.3z"/><path class="st7" d="M75.93,27.33c-0.51,0.04-1.24-1.24-0.89-1.7c0.2-0.27,0.82-0.31,1.19,0c0.3,0.26,0.3,0.65,0.3,0.74	C76.51,26.81,76.23,27.31,75.93,27.33z"/><path class="st7" d="M80.89,33.33c-0.21,0.34-0.05,0.94,0.3,1.26c0.42,0.38,0.85,0.11,1.41,0.52c0.47,0.34,0.47,0.76,0.67,0.74	c0.18-0.02,0.28-0.39,0.59-2.22c0.19-1.12,0.22-1.38,0.07-1.48c-0.25-0.16-0.6,0.4-1.63,0.74C81.48,33.16,81.09,33.01,80.89,33.33z"	/><path class="st7" d="M77.93,39.11c0.32,0.24,0.83,0.27,0.96,0.07c0.22-0.32-0.74-1.18-0.52-1.48c0.14-0.19,0.55,0.08,0.89-0.15	c0.34-0.23,0.48-0.88,0.22-1.19c-0.28-0.33-0.96-0.19-1.33,0.07C77.33,37.02,77.27,38.6,77.93,39.11z"/><path class="st7" d="M81.04,42.22c0.02,0.45,1.5,1.03,2.52,0.52c0.37-0.18,0.82-0.58,0.74-0.89c-0.09-0.38-0.97-0.47-1.48-0.44	C82.02,41.45,81.02,41.85,81.04,42.22z"/><path class="st7" d="M77.56,42c0.15-0.13,0.96,0.26,1.33,0.96c0.57,1.06-0.08,2.39-0.15,2.52C78.37,46.22,78,46.24,78,46.67	c0.01,0.7,1.02,0.82,1.56,1.93c0.37,0.77,0.33,1.64,0.15,1.7c-0.33,0.11-1.35-2.28-1.7-2.15c-0.23,0.08,0.17,1.08-0.3,1.48	c-0.45,0.38-1.52,0.06-1.63-0.37c-0.09-0.38,0.62-0.58,0.67-1.26c0.04-0.54-0.4-0.68-0.37-1.19c0.04-0.56,0.59-0.6,1.11-1.41	c0.09-0.14,0.65-1.04,0.52-2.07C77.89,42.53,77.43,42.12,77.56,42z"/><path class="st7" d="M84.07,46.15c-0.33,0-0.66,0.33-0.74,0.67c-0.07,0.31,0.08,0.56,0.37,1.04c1.07,1.75,1.17,1.8,1.26,1.78	c0.3-0.07,0.4-0.96,0.3-1.63C85.14,47.22,84.67,46.14,84.07,46.15z"/><path class="st6" d="M73.11,59.33c-0.23,0.38,0.19,0.74,0.3,1.48c0.17,1.23-0.76,1.72-0.44,2.59c0.21,0.57,0.85,1.02,1.19,0.89	c0.47-0.19-0.07-1.34,0.52-2.59c0.66-1.42,2.12-1.58,2-2.15c-0.12-0.58-1.71-0.71-2.67-0.59C73.35,59.04,73.18,59.22,73.11,59.33z"	/><path class="st6" d="M80.74,62.22c-0.69,0.67-1.52,0.73-1.48,0.96c0.04,0.22,0.81,0.27,1.26,0.3c0.84,0.05,1.12-0.07,1.78-0.07	c1.41-0.02,1.78,0.51,2.15,0.22c0.58-0.45,0.34-2.28-0.74-3.19c-0.11-0.09-0.96-0.8-1.63-0.52C81.36,60.23,81.68,61.31,80.74,62.22z	"/><path class="st6" d="M69.78,66.67c-0.17,0.92,0.79,1.9,1.19,1.78c0.37-0.11,0.3-1.24,0.3-1.33c-0.01-0.12-0.1-1.33-0.59-1.41	C70.32,65.65,69.87,66.16,69.78,66.67z"/><path class="st6" d="M75.41,68.15c0.13,0.35,0.64,0.58,0.89,0.44c0.16-0.09,0.14-0.3,0.22-0.89c0.14-0.94,0.32-1.2,0.22-1.26	C76.51,66.3,75.14,67.44,75.41,68.15z"/><path class="st6" d="M83.11,69.11c-0.45,0.54-0.31,1.49,0.22,2c0.41,0.4,1.2,0.67,1.63,0.3c0.35-0.31,0.4-0.98,0.15-1.19	c-0.31-0.25-0.96,0.3-1.19,0.07c-0.27-0.27,0.56-1.27,0.3-1.56C84.05,68.55,83.43,68.73,83.11,69.11z"/><path class="st6" d="M68.07,68.81c-0.22,0.07,0.18,1.1-0.15,2.44c-0.28,1.16-0.89,1.64-0.67,1.93c0.27,0.36,1.4-0.08,2.15-0.37	c1.08-0.42,2.71-1.23,2.59-1.63c-0.1-0.34-1.33,0.18-2.44-0.52C68.51,70.01,68.31,68.74,68.07,68.81z"/><path class="st7" d="M58.44,79.7c-0.06-0.37,0.45-0.49,1.11-1.48c0.63-0.95,0.64-1.56,0.89-1.56c0.18,0,0.27,0.32,0.89,2.59	c0.21,0.78,0.26,0.95,0.15,1.11C61.02,81.04,58.57,80.48,58.44,79.7z"/><path class="st7" d="M64,81.26c-0.5,0.41-0.74,1.25-0.37,1.63c0.29,0.3,0.89,0.22,1.26,0c0.64-0.39,0.9-1.4,0.52-1.78	C65.1,80.81,64.41,80.93,64,81.26z"/><path class="st7" d="M69.63,79.04c-1.03,0.19-1.79,1.39-1.56,1.78c0.2,0.34,1.18,0.13,1.78-0.15c0.49-0.23,1.29-0.76,1.19-1.19	C70.94,79.12,70.2,78.93,69.63,79.04z"/><path class="st7" d="M59.7,83.41c0.09,0.4,0.62,0.48,0.59,0.74c-0.03,0.25-0.51,0.27-1.11,0.67c-0.53,0.35-0.98,0.9-0.89,1.04	c0.11,0.17,0.88-0.44,2.22-0.59c0.95-0.1,1.52,0.1,1.63-0.15c0.11-0.24-0.4-0.47-0.81-1.26c-0.48-0.92-0.27-1.53-0.59-1.63	C60.35,82.1,59.59,82.88,59.7,83.41z"/><path class="st7" d="M55.93,85.93c-0.45,0.27-0.09,1-0.67,1.78c-0.52,0.69-1.29,0.78-1.26,0.89c0.04,0.14,1.26,0,2.44-0.59	c0.68-0.34,1.34-0.66,1.33-1.11C57.77,86.26,56.48,85.59,55.93,85.93z"/></svg>