<?xml version="1.0" encoding="utf-8"?><!-- Generator: Adobe Illustrator 26.0.3, SVG Export Plug-In . SVG Version: 6.00 Build 0)  --><svg version="1.1" id="Ebene_2" xmlns="http://www.w3.org/2000/svg" xmlns:xlink="http://www.w3.org/1999/xlink" x="0px" y="0px"	 viewBox="0 0 100 100" style="enable-background:new 0 0 100 100;" xml:space="preserve"><style type="text/css">	.st0{fill:#8A3C8F;stroke:#000000;stroke-width:2;stroke-miterlimit:10;}	.st1{fill:#69B42D;stroke:#000000;stroke-miterlimit:10;}	.st2{fill:#DB6500;stroke:#000000;stroke-width:0.5;stroke-miterlimit:10;}	.st3{fill:#C78F55;stroke:#000000;stroke-width:0.5;stroke-miterlimit:10;}	.st4{fill:#493127;stroke:#000000;stroke-width:0.25;stroke-miterlimit:10;}	.st5{fill:#493127;stroke:#000000;stroke-width:0.25;stroke-miterlimit:10;}</style><polygon class="st0" points="92,25.75 50,1.5 8,25.75 8,74.25 50,98.5 92,74.25 "/><path class="st1" d="M8,29.67c2.83,1.16,7.24,3.05,12.52,5.67c10.7,5.31,11.36,7.02,16.89,8.74c5.91,1.84,14.56,4.53,22.52,0.89	c6.25-2.86,7.41-7.49,15.11-9.48c2.07-0.54,3.62-0.62,7.7-1.78c5.44-1.54,6.35-2.36,7.56-1.78c2.47,1.2,1.68,6.13,1.71,15.96	c0.03,10.07,0.9,18.33,0,18.44c-0.87,0.11-1.45-7.71-5.26-8.63c-1.17-0.28-1.72,0.28-4.15,0.89c-3.68,0.93-6.13,0.43-8,0.44	C69.13,59.09,66.01,63.61,62,66c-12.31,7.34-25.98-9.12-40-2.07c-6.34,3.18-7.98,8.74-10.78,7.74C9.13,70.92,8.29,67.2,8,49.56	C7.86,41.34,7.92,34.5,8,29.67z"/><path class="st2" d="M32.07,15.33c2.36-1,3.98-2.19,5.04-3.11c1.57-1.37,2.3-2.51,3.85-2.67c0.16-0.02,1.78-0.15,2.96,1.04	c1.15,1.15,1.06,2.71,1.04,2.96c-0.17,2.13-2.03,2.36-2.22,3.85c-0.36,2.87,6.25,4.22,6.96,8.74c0.26,1.63-0.35,3.04-0.89,4.3	c-1.08,2.53-2.36,2.86-4.44,5.48c-3.13,3.93-2.4,5.87-4.44,6.67c-2.33,0.91-5.9-0.58-6.81-2.81c-0.89-2.17,1.28-3.7,0.3-6.67	c-0.6-1.8-1.58-1.79-1.93-3.56c-0.41-2.09,0.91-2.45,1.04-5.04c0.15-3.04-1.59-4.13-1.04-7.26C31.63,16.43,31.88,15.76,32.07,15.33z	"/><path class="st3" d="M51.39,9.76c-1.98-0.13-4.3,2.03-4.3,4c0.01,1.79,1.94,2.04,4.3,4.89c1.83,2.21,2.8,4.78,4.74,9.93	c1.14,3.01,1.42,4.32,2.52,4.59c1.46,0.36,2.34-1.63,5.33-2.37c1.94-0.48,2.21,0.2,4.44,0c4.11-0.37,4.44-2.77,8.15-3.26	c3.74-0.49,5.95,1.61,6.96,0.44c0.79-0.91,0.09-2.92-0.74-4.15c-1.29-1.9-3.29-2.49-7.11-3.56c-4.35-1.21-6.52-1.82-8.59-2.37	c-9.37-2.48-10.53-3.35-11.26-4C53.48,11.81,53.2,9.87,51.39,9.76z"/><path class="st3" d="M26.3,19.93c-1.13,0.19-1.26,0.91-2.67,1.93c-2.97,2.13-4.97,0.76-7.7,2.81c-0.73,0.55-2.45,1.84-2.37,3.41	c0.09,1.7,2.18,2.01,6.52,5.19c3.52,2.58,4.09,3.8,6.37,4.15c1.53,0.24,3.92,0.1,4.59-1.19c0.69-1.31-1.16-2.38-1.63-5.19	c-0.69-4.13,2.6-6.1,1.33-8.74C29.96,20.66,27.86,19.66,26.3,19.93z"/><path class="st2" d="M19.93,70.59c1.75-1.28,3.97,1.37,7.56,0.44c2.3-0.59,2.39-1.94,4.44-2.07c2.36-0.15,5.05,1.45,5.19,3.11	c0.13,1.51-1.95,1.84-2.22,3.85c-0.29,2.14,1.71,4.4,3.11,5.48c1.71,1.32,3.13,1.34,3.56,2.67c0.23,0.73,0.18,1.9-0.44,2.37	c-1.71,1.28-5.43-4.43-13.63-7.56c-4.45-1.7-7.51-1.6-8.44-4C18.48,73.45,18.79,71.42,19.93,70.59z"/><path class="st3" d="M39.33,77.85c-0.89-2.42,0.83-5.94,2.96-6.67c2.22-0.75,3.55,1.97,6.96,1.63c2.9-0.28,3.41-2.39,5.48-2.07	c1.8,0.28,2.88,2.21,5.04,6.07c1.98,3.54,2.97,5.31,2.67,7.26c-0.21,1.38-1.43,2.81-3.85,5.63c-2.52,2.93-3.81,4.4-5.19,4.59	c-2.47,0.34-5.36-1.53-6.07-3.85c-0.8-2.61,1.71-3.91,1.04-6.22C47.33,80.66,40.69,81.54,39.33,77.85z"/><path class="st3" d="M63.63,68.67c2.51-1.43,3.85-0.19,6.67-1.63c2.01-1.03,1.71-1.85,3.26-2.22c0.71-0.17,1.42-0.15,6.22,1.48	c2.78,0.95,3.11,1.14,3.41,1.33c1.59,1.05,3.74,3.32,3.26,5.04c-0.49,1.74-3.14,1.04-6.81,3.26c-3.73,2.25-3.3,4.37-7.26,6.52	c-1.32,0.72-4.39,2.38-6.22,1.19c-1.54-1-0.49-2.89-2.22-6.22c-1.56-2.99-3.4-3.39-3.26-5.19C60.82,70.27,63.13,68.95,63.63,68.67z"	/><path class="st2" d="M80.52,61.41c-0.76,0.84-0.74,2.54,0,3.41c0.87,1.02,2.12,0.19,4.3,1.19c1.84,0.84,2.1,1.97,2.81,1.78	c1.21-0.33,1.52-3.9,0.59-6.67c-0.1-0.31-0.9-2.69-1.93-2.67c-0.61,0.01-0.65,0.87-1.63,1.63C83.06,61.34,81.48,60.33,80.52,61.41z"	/><path class="st3" d="M47.32,40.83c0.89-2.63,1.8-5.31,4.44-6.52c1.43-0.66,2.78-0.61,3.26-0.59c1.55,0.07,2.19,0.6,3.56,1.04	c3.83,1.23,6.53-0.49,7.11,0.59c0.42,0.79-0.7,2.24-1.48,2.96c-1.47,1.35-2.51,0.83-4.44,1.93c-2.68,1.51-2.44,3.49-4.15,3.7	c-1.9,0.23-2.59-2.17-4.89-2.07c-1.96,0.09-3.13,1.91-3.7,1.48C46.58,43.03,46.99,41.79,47.32,40.83z"/><path class="st4" d="M21.11,26.37c-0.46,0.28-0.64,1.19-0.3,1.63c0.41,0.52,1.24-0.04,2.07,0.52c0.79,0.53,0.78,1.51,1.11,1.48	c0.25-0.02,0.33-0.58,0.67-1.7c0.52-1.73,0.89-2.25,0.67-2.44c-0.34-0.3-1.21,0.86-2.67,0.74C21.87,26.53,21.51,26.13,21.11,26.37z"	/><path class="st4" d="M16.15,28.81c0.18-0.36,1.63-0.41,2.22,0.52c0.33,0.51,0.38,1.31,0.07,1.48	C17.87,31.14,15.89,29.32,16.15,28.81z"/><path class="st4" d="M25.26,32c-0.41,0.13-0.62,0.71-0.74,1.04c-0.07,0.18-0.39,1.08,0,1.7c0.63,1.01,2.88,0.85,3.26,0.07	C28.23,33.89,26.24,31.69,25.26,32z"/><path class="st5" d="M34.81,25.33c-0.41,0.1-0.71,1.23-0.3,2c0.38,0.72,1.11,0.6,1.33,1.19c0.36,0.95-1.21,2.16-0.96,2.44	c0.17,0.2,1.08-0.18,1.7-0.81c0.14-0.15,1.05-1.08,0.81-2.07c-0.09-0.38-0.27-0.43-1.26-1.48C35.18,25.56,35.04,25.28,34.81,25.33z"	/><path class="st5" d="M37.33,23.93c0.09,0.62,0.38,0.71,0.74,1.56c0.32,0.73,0.22,0.96,0.52,1.19c0.35,0.28,1.01,0.37,1.33,0.07	c0.58-0.53-0.32-1.99,0.3-2.52c0.32-0.27,0.79-0.1,0.81-0.22c0.02-0.13-0.54-0.28-1.93-0.74c-1.07-0.36-1.41-0.48-1.63-0.3	C37.22,23.18,37.29,23.67,37.33,23.93z"/><path class="st5" d="M37.63,19.56c0.14,0.27,1.24,0.29,1.7-0.37c0.27-0.38,0.33-0.99,0-1.41c-0.27-0.34-0.79-0.54-1.04-0.37	c-0.24,0.17,0.01,0.58-0.22,1.26C37.88,19.24,37.55,19.39,37.63,19.56z"/><path class="st5" d="M38.22,14.37c0.03,0.34,1.52,0.81,2.67,0.22c0.8-0.41,1.37-1.29,1.19-1.56c-0.19-0.28-1.25,0.13-2.59,0.67	C38.63,14.04,38.21,14.21,38.22,14.37z"/><path class="st5" d="M43.7,24.89c-0.18,0.16,0.54,0.76,0.44,1.78c-0.09,1.06-0.96,1.47-0.74,1.93c0.19,0.41,1.07,0.5,1.7,0.22	c0.65-0.29,1.01-0.98,1.04-1.56C46.23,25.7,43.99,24.63,43.7,24.89z"/><path class="st5" d="M40.22,30.44c-0.19-0.06-0.99,0.85-0.74,1.7c0.21,0.72,1.1,1.11,1.26,0.96c0.13-0.12-0.29-0.54-0.44-1.48	C40.18,30.88,40.34,30.48,40.22,30.44z"/><path class="st5" d="M34.81,35.78c0.17-0.2,1.14,0.75,1.85,0.44c0.74-0.32,0.66-1.78,0.89-1.78c0.22,0,0.39,1.27,0.44,2.52	c0.09,1.97,0.14,3.02-0.44,3.33c-0.55,0.29-1.54-0.11-1.85-0.74c-0.27-0.56,0.19-0.89,0.07-1.78	C35.62,36.62,34.66,35.96,34.81,35.78z"/><path class="st4" d="M52.65,15.53c-0.3,0.17-0.3,0.91-0.07,1.48c0.33,0.81,0.94,0.77,1.26,1.56c0.31,0.76-0.01,1.43,0.15,1.48	c0.18,0.05,0.45-0.77,1.19-1.93c0.75-1.18,1.27-1.59,1.11-1.85c-0.19-0.33-1.04,0.23-2.22-0.15C53.24,15.87,52.93,15.37,52.65,15.53	z"/><path class="st4" d="M61.53,21.09c-0.21,0.27,0.36,1.31,1.26,1.78c1.08,0.56,2.52,0.24,2.59-0.15c0.08-0.43-1.55-1.03-2.37-1.33	C62.24,21.1,61.69,20.9,61.53,21.09z"/><path class="st4" d="M65.83,20.2c-0.3,0.06-0.58,1.4,0,2.15c0.92,1.17,3.48,0.28,3.48,0c0-0.21-1.51,0.02-2.59-1.04	C66.14,20.75,66.04,20.16,65.83,20.2z"/><path class="st4" d="M59.83,28.42c0.84-0.22,1.06-0.72,1.41-0.59c0.4,0.15,0.58,0.99,0.37,1.63c-0.25,0.77-1.12,1.45-2,1.26	c-1.12-0.25-1.58-1.75-1.26-2.15C58.56,28.32,58.98,28.65,59.83,28.42z"/><path class="st4" d="M74.28,22.42c-0.12,0.07-0.12,0.21-0.15,2c-0.02,1.21-0.02,1.3,0.07,1.41c0.53,0.65,1.91-0.46,4.07-0.15	c1.43,0.2,2.17,0.88,2.52,0.52c0.29-0.29,0.14-1.08-0.3-1.48c-0.63-0.57-1.42,0.04-2.67-0.15C75.77,24.25,74.82,22.1,74.28,22.42z"	/><path class="st4" d="M52.87,35.27c0.92-0.48,2.21-0.18,2.3,0.22c0.06,0.25-0.38,0.43-1.63,1.41c-1.42,1.11-1.67,1.51-1.85,1.41	C51.31,38.1,51.54,35.97,52.87,35.27z"/><path class="st4" d="M52.87,40.76c-0.02-0.27,1.72-1.13,2.44-0.37c0.59,0.62,0.18,1.95-0.15,2c-0.25,0.04-0.33-0.69-1.11-1.19	C53.42,40.79,52.88,40.9,52.87,40.76z"/><path class="st4" d="M59.02,37.13c-0.47,0.38-0.63,1.26-0.3,1.63c0.56,0.61,2.47-0.3,3.33-0.81c1.02-0.61,1.89-1.45,1.78-1.63	c-0.12-0.2-1.16,0.72-2.89,0.74C59.96,37.06,59.47,36.77,59.02,37.13z"/><path class="st5" d="M21.56,72.59c0.65-0.04,0.94,1.57,1.63,1.56c0.68-0.02,0.98-1.61,1.26-1.56c0.36,0.08,0.44,2.81-0.44,3.11	c-0.22,0.07-0.34-0.06-1.48-0.67c-1.33-0.71-1.61-0.77-1.7-1.11C20.67,73.38,21.12,72.62,21.56,72.59z"/><path class="st5" d="M26.52,75.78c0.05,0.87,0.95,1.64,1.48,1.48c0.54-0.16,0.63-1.23,0.59-1.78c-0.01-0.16-0.08-1.26-0.59-1.41	C27.46,73.92,26.46,74.81,26.52,75.78z"/><path class="st5" d="M31.04,72.22c-0.64,0.8,0.2,2.62,1.04,2.67c0.65,0.04,1.54-0.97,1.33-1.93c-0.1-0.46-0.46-0.96-1.04-1.11	C31.89,71.73,31.32,71.86,31.04,72.22z"/><path class="st5" d="M31.85,78.15c-0.49,0.05-0.9,0.84-0.67,1.26c0.26,0.48,1.34,0.43,1.56,0C32.96,78.99,32.4,78.1,31.85,78.15z"/><path class="st5" d="M35.33,80.96c0.51-0.3,2.82,2.15,2.52,2.59c-0.2,0.28-1.67-0.01-2.3-1.11C35.26,81.92,35.08,81.11,35.33,80.96z	"/><path class="st4" d="M40.52,77.19c0.09-0.12,0.31,0.04,0.74,0c1.41-0.14,1.88-2.12,2.52-2c0.69,0.12,0.74,2.54,0.74,2.81	c0.02,1.14,0.04,2.13-0.44,2.37C43.03,80.87,40.18,77.66,40.52,77.19z"/><path class="st4" d="M47.11,76.44c-0.28,0.43-0.57,1.23-0.22,1.56c0.32,0.3,1.06,0.08,1.48-0.3c0.69-0.62,0.73-1.89,0.3-2.15	C48.29,75.33,47.5,75.85,47.11,76.44z"/><path class="st4" d="M51.78,76.44c-0.54,0.46-0.4,1.79,0.15,2.07c0.43,0.22,0.76-0.38,1.7-0.52c1.46-0.22,2.43,0.95,2.81,0.59	c0.27-0.25-0.19-0.79-0.37-2.3c-0.12-1.04,0-1.55-0.22-1.63c-0.37-0.13-0.72,1.3-1.93,1.7C52.93,76.7,52.27,76.02,51.78,76.44z"/><path class="st4" d="M49.19,81.41c-0.36-0.4-1.03-0.14-1.11-0.37c-0.09-0.26,0.64-1.01,1.41-0.96c0.97,0.07,1.44,1.38,1.56,1.7	c0.13,0.37,0.35,0.97,0.07,1.26c-0.33,0.34-1.28,0.15-1.63-0.37C49.18,82.21,49.51,81.77,49.19,81.41z"/><path class="st4" d="M55.19,83.19c-0.45,0.55-0.69,1.52-0.3,2c0.54,0.66,1.92-0.05,2.37,0.59c0.42,0.6-0.5,1.62-0.07,2.07	c0.27,0.28,0.92,0.21,1.33-0.07c0.36-0.25,0.48-0.62,0.74-2.44c0.27-1.87,0.22-2.02,0.15-2.15C58.79,82.13,56.2,81.92,55.19,83.19z"	/><path class="st4" d="M51.26,88.81c-0.35-0.18-1.65,0.75-1.56,1.85c0.09,1.07,1.45,1.78,1.78,1.56c0.22-0.15-0.09-0.63-0.15-2	C51.29,89.24,51.43,88.9,51.26,88.81z"/><path class="st4" d="M65.48,73.78c-0.02,0.13,0.94,0.17,1.11,0.67c0.22,0.65-1.12,1.52-0.96,1.78c0.08,0.13,0.56,0.12,1.78-0.44	C69.6,74.76,72.36,72.82,72,72c-0.19-0.42-1.13-0.37-1.19-0.37c-1.4,0.09-1.58,1.53-3.19,2C66.56,73.94,65.5,73.64,65.48,73.78z"/><path class="st4" d="M74,69.33c0.34,0.21,0.88-0.63,1.56-0.44c0.58,0.16,0.58,0.89,1.11,0.96c0.46,0.06,1.03-0.4,1.04-0.81	c0.01-0.63-1.28-1.03-1.78-1.19c-0.71-0.22-1.29-0.4-1.7-0.07C73.72,68.18,73.69,69.14,74,69.33z"/><path class="st4" d="M81.11,69.04c-0.61-0.07-1.82,1.65-1.19,2.74c0.4,0.68,1.45,1.01,1.93,0.67c0.62-0.46,0.06-2-0.07-2.37	C81.58,69.54,81.41,69.07,81.11,69.04z"/><path class="st4" d="M71.48,77.78c-0.3-0.02-0.56,0.53-0.96,1.41c-0.44,0.95-0.71,1.53-0.52,1.7c0.3,0.27,1.85-0.41,2.07-1.56	C72.21,78.63,71.84,77.8,71.48,77.78z"/><path class="st4" d="M73.48,73.56c-0.23,0.01-0.64,1.01-0.22,1.7c0.44,0.73,1.59,0.8,1.7,0.59c0.08-0.16-0.46-0.4-0.96-1.26	C73.63,73.95,73.62,73.55,73.48,73.56z"/><path class="st5" d="M84.81,62.3c-0.18,0.28,0.05,1.03,0.59,1.11c0.54,0.08,0.98-0.56,0.89-0.89C86.17,62.09,85.06,61.93,84.81,62.3	z"/></svg>