<svg id="e62Vx71Gpya1" xmlns="http://www.w3.org/2000/svg" xmlns:xlink="http://www.w3.org/1999/xlink" viewBox="0 0 100 100" shape-rendering="geometricPrecision" text-rendering="geometricPrecision"><g><polygon points="8,25.8 50,1.6 92,25.8 92,74.3 50,98.6 8,74.3" fill="#804122" stroke="#000" stroke-width="2" stroke-miterlimit="10"/></g><path d="M21.838024,39.125682q-.232901-7.752267-.166358-7.785539t2.029564-.099816l.133086.964874c0,0,2.800127-1.068494,4.025856-1.031419s3.826227,1.231047,3.826227,1.231047l.399257,6.754122q-2.062836.066542-2.096107.066542c-.022181,0,1.03377-3.628812-.2329-5.556347s-1.812619-1.244702-2.728266-1.29759-2.927896.998145-2.927896.998145l-.199629,5.722703-2.062834.033278Z" transform="translate(.000001 0.000008)" stroke="#3f5787" stroke-width="0.5"/><path d="M44.629026,37.229205l1.264319.565616-3.460241,1.43068-4.225485-.133089-2.994438-2.495366.133086-3.227338l3.493511-2.029558l4.358571-.000001l2.828081,2.329003.066543,1.996289-2.16265-1.131233-1.031417-1.663576-2.195922-.665425-2.229193.632153-1.09796,1.663577l6.28832.033271l2.129378,1.197776-8.650599-.099815.698702,1.663577l2.395551.898331l4.391843-.964872Z" transform="translate(.000001 0.000002)" stroke="#3f5787" stroke-width="0.5"/><path d="M47.362364,31.340151h2.637636l2.466778,5.889056l3.149533-5.988872l1.882479.099816l2.85992,5.955597l2.715114-6.122886h2.244494L61.517158,39.2255h-1.882479l-3.258137-5.855792L53.335615,39.2255q-1.882479-.066533-1.954882-.099811t-4.018369-7.785538Z" transform="translate(0 0.000001)" stroke="#3f5787" stroke-width="0.5"/><path d="M35.213182,61.612387L33.79057,59.613193l-3.241936-1.215726-3.669972.189113-3.678417,1.215726-1.528579,2.809678.166358,4.025403l3.712624,2.24234l4.943953.432258l4.71858-1.350807v-3.944356l-6.366564-.108064-.027016,1.080645l3.998388.054032-.027017,2.37742-2.801423.648387-3.110888-.297177-2.300594-1.458871-.743751-1.89113.266171-2.37742l2.179597-2.16129l4.214517.054032l2.350404,1.593952l2.368177.081049Z" transform="translate(.000001 0.000001)" stroke="#3f5787" stroke-width="0.5"/><path d="M38.839779,63.368436l1.863206.486291l2.195922-1.810083l3.194067.567339.530261,1.81008h-3.724328l-3.272851.62137-1.152264,1.593951.365986,1.431855l2.326196,1.242742h3.463052l1.913159-1.242743-.449212-.648387-2.428822.648387-2.33608-.108064-.674994-1.323791l1.780027-1.080645l4.136097-.108065-.476228,1.972178.665341.648387.108065.810485l2.404435.432258-.594355-6.186695-1.314097-1.593952-3.43204-.540324-3.69314.621372-1.397403,1.756054Z" transform="translate(.000002 0.000006)" stroke="#3f5787" stroke-width="0.5"/><path d="M52.466778,69.311986v-7.780647l1.962088-.000001.138056.513311l2.931868-1.053634l3.591286.540324l1.242506,1.080645l1.79473-1.080646h4.555853l2.001815,1.837103.138056,5.943544h-2.243413l-.034514-5.403227-3.226791-1.296774-2.244494,1.242742v5.457259h-2.715114v-5.457259l-2.443926-1.242738-3.106264,1.29677-.069028,5.403227-2.272714.000001Z" transform="translate(0 0.000001)" stroke="#3f5787" stroke-width="0.5"/><path d="M83.378941,67.420856l1.179439.540323-1.965733,1.350806-3.659286-.000001-3.175413-.432259-2.026216-2.566534.241937-2.944753l2.933476-1.756054l5.050419-.08105l2.631056,2.323388.362904,1.702017-2.207668-1.134675-.60484-1.296777-2.570572-.513307h-1.93549l-1.451617,1.81008l6.502035.000004l2.177426,1.134675h-8.891156l.483873,1.864112l2.933476.648389h2.147184l1.844766-.648384Z" transform="translate(.000002 0.000005)" stroke="#3f5787" stroke-width="0.5"/></svg>
